%TF.GenerationSoftware,KiCad,Pcbnew,9.0.6-9.0.6~ubuntu24.04.1*%
%TF.CreationDate,2026-02-01T19:09:27-03:00*%
%TF.ProjectId,nuvoton_nuc980,6e75766f-746f-46e5-9f6e-75633938302e,0.0*%
%TF.SameCoordinates,Original*%
%TF.FileFunction,Legend,Bot*%
%TF.FilePolarity,Positive*%
%FSLAX46Y46*%
G04 Gerber Fmt 4.6, Leading zero omitted, Abs format (unit mm)*
G04 Created by KiCad (PCBNEW 9.0.6-9.0.6~ubuntu24.04.1) date 2026-02-01 19:09:27*
%MOMM*%
%LPD*%
G01*
G04 APERTURE LIST*
%ADD10C,0.150000*%
%ADD11C,0.120000*%
G04 APERTURE END LIST*
D10*
X145422857Y-96625580D02*
X145470476Y-96673200D01*
X145470476Y-96673200D02*
X145613333Y-96720819D01*
X145613333Y-96720819D02*
X145708571Y-96720819D01*
X145708571Y-96720819D02*
X145851428Y-96673200D01*
X145851428Y-96673200D02*
X145946666Y-96577961D01*
X145946666Y-96577961D02*
X145994285Y-96482723D01*
X145994285Y-96482723D02*
X146041904Y-96292247D01*
X146041904Y-96292247D02*
X146041904Y-96149390D01*
X146041904Y-96149390D02*
X145994285Y-95958914D01*
X145994285Y-95958914D02*
X145946666Y-95863676D01*
X145946666Y-95863676D02*
X145851428Y-95768438D01*
X145851428Y-95768438D02*
X145708571Y-95720819D01*
X145708571Y-95720819D02*
X145613333Y-95720819D01*
X145613333Y-95720819D02*
X145470476Y-95768438D01*
X145470476Y-95768438D02*
X145422857Y-95816057D01*
X144518095Y-95720819D02*
X144994285Y-95720819D01*
X144994285Y-95720819D02*
X145041904Y-96197009D01*
X145041904Y-96197009D02*
X144994285Y-96149390D01*
X144994285Y-96149390D02*
X144899047Y-96101771D01*
X144899047Y-96101771D02*
X144660952Y-96101771D01*
X144660952Y-96101771D02*
X144565714Y-96149390D01*
X144565714Y-96149390D02*
X144518095Y-96197009D01*
X144518095Y-96197009D02*
X144470476Y-96292247D01*
X144470476Y-96292247D02*
X144470476Y-96530342D01*
X144470476Y-96530342D02*
X144518095Y-96625580D01*
X144518095Y-96625580D02*
X144565714Y-96673200D01*
X144565714Y-96673200D02*
X144660952Y-96720819D01*
X144660952Y-96720819D02*
X144899047Y-96720819D01*
X144899047Y-96720819D02*
X144994285Y-96673200D01*
X144994285Y-96673200D02*
X145041904Y-96625580D01*
X143851428Y-95720819D02*
X143756190Y-95720819D01*
X143756190Y-95720819D02*
X143660952Y-95768438D01*
X143660952Y-95768438D02*
X143613333Y-95816057D01*
X143613333Y-95816057D02*
X143565714Y-95911295D01*
X143565714Y-95911295D02*
X143518095Y-96101771D01*
X143518095Y-96101771D02*
X143518095Y-96339866D01*
X143518095Y-96339866D02*
X143565714Y-96530342D01*
X143565714Y-96530342D02*
X143613333Y-96625580D01*
X143613333Y-96625580D02*
X143660952Y-96673200D01*
X143660952Y-96673200D02*
X143756190Y-96720819D01*
X143756190Y-96720819D02*
X143851428Y-96720819D01*
X143851428Y-96720819D02*
X143946666Y-96673200D01*
X143946666Y-96673200D02*
X143994285Y-96625580D01*
X143994285Y-96625580D02*
X144041904Y-96530342D01*
X144041904Y-96530342D02*
X144089523Y-96339866D01*
X144089523Y-96339866D02*
X144089523Y-96101771D01*
X144089523Y-96101771D02*
X144041904Y-95911295D01*
X144041904Y-95911295D02*
X143994285Y-95816057D01*
X143994285Y-95816057D02*
X143946666Y-95768438D01*
X143946666Y-95768438D02*
X143851428Y-95720819D01*
X154820857Y-134217580D02*
X154868476Y-134265200D01*
X154868476Y-134265200D02*
X155011333Y-134312819D01*
X155011333Y-134312819D02*
X155106571Y-134312819D01*
X155106571Y-134312819D02*
X155249428Y-134265200D01*
X155249428Y-134265200D02*
X155344666Y-134169961D01*
X155344666Y-134169961D02*
X155392285Y-134074723D01*
X155392285Y-134074723D02*
X155439904Y-133884247D01*
X155439904Y-133884247D02*
X155439904Y-133741390D01*
X155439904Y-133741390D02*
X155392285Y-133550914D01*
X155392285Y-133550914D02*
X155344666Y-133455676D01*
X155344666Y-133455676D02*
X155249428Y-133360438D01*
X155249428Y-133360438D02*
X155106571Y-133312819D01*
X155106571Y-133312819D02*
X155011333Y-133312819D01*
X155011333Y-133312819D02*
X154868476Y-133360438D01*
X154868476Y-133360438D02*
X154820857Y-133408057D01*
X153963714Y-133312819D02*
X154154190Y-133312819D01*
X154154190Y-133312819D02*
X154249428Y-133360438D01*
X154249428Y-133360438D02*
X154297047Y-133408057D01*
X154297047Y-133408057D02*
X154392285Y-133550914D01*
X154392285Y-133550914D02*
X154439904Y-133741390D01*
X154439904Y-133741390D02*
X154439904Y-134122342D01*
X154439904Y-134122342D02*
X154392285Y-134217580D01*
X154392285Y-134217580D02*
X154344666Y-134265200D01*
X154344666Y-134265200D02*
X154249428Y-134312819D01*
X154249428Y-134312819D02*
X154058952Y-134312819D01*
X154058952Y-134312819D02*
X153963714Y-134265200D01*
X153963714Y-134265200D02*
X153916095Y-134217580D01*
X153916095Y-134217580D02*
X153868476Y-134122342D01*
X153868476Y-134122342D02*
X153868476Y-133884247D01*
X153868476Y-133884247D02*
X153916095Y-133789009D01*
X153916095Y-133789009D02*
X153963714Y-133741390D01*
X153963714Y-133741390D02*
X154058952Y-133693771D01*
X154058952Y-133693771D02*
X154249428Y-133693771D01*
X154249428Y-133693771D02*
X154344666Y-133741390D01*
X154344666Y-133741390D02*
X154392285Y-133789009D01*
X154392285Y-133789009D02*
X154439904Y-133884247D01*
X153297047Y-133741390D02*
X153392285Y-133693771D01*
X153392285Y-133693771D02*
X153439904Y-133646152D01*
X153439904Y-133646152D02*
X153487523Y-133550914D01*
X153487523Y-133550914D02*
X153487523Y-133503295D01*
X153487523Y-133503295D02*
X153439904Y-133408057D01*
X153439904Y-133408057D02*
X153392285Y-133360438D01*
X153392285Y-133360438D02*
X153297047Y-133312819D01*
X153297047Y-133312819D02*
X153106571Y-133312819D01*
X153106571Y-133312819D02*
X153011333Y-133360438D01*
X153011333Y-133360438D02*
X152963714Y-133408057D01*
X152963714Y-133408057D02*
X152916095Y-133503295D01*
X152916095Y-133503295D02*
X152916095Y-133550914D01*
X152916095Y-133550914D02*
X152963714Y-133646152D01*
X152963714Y-133646152D02*
X153011333Y-133693771D01*
X153011333Y-133693771D02*
X153106571Y-133741390D01*
X153106571Y-133741390D02*
X153297047Y-133741390D01*
X153297047Y-133741390D02*
X153392285Y-133789009D01*
X153392285Y-133789009D02*
X153439904Y-133836628D01*
X153439904Y-133836628D02*
X153487523Y-133931866D01*
X153487523Y-133931866D02*
X153487523Y-134122342D01*
X153487523Y-134122342D02*
X153439904Y-134217580D01*
X153439904Y-134217580D02*
X153392285Y-134265200D01*
X153392285Y-134265200D02*
X153297047Y-134312819D01*
X153297047Y-134312819D02*
X153106571Y-134312819D01*
X153106571Y-134312819D02*
X153011333Y-134265200D01*
X153011333Y-134265200D02*
X152963714Y-134217580D01*
X152963714Y-134217580D02*
X152916095Y-134122342D01*
X152916095Y-134122342D02*
X152916095Y-133931866D01*
X152916095Y-133931866D02*
X152963714Y-133836628D01*
X152963714Y-133836628D02*
X153011333Y-133789009D01*
X153011333Y-133789009D02*
X153106571Y-133741390D01*
X104274857Y-105102819D02*
X104608190Y-104626628D01*
X104846285Y-105102819D02*
X104846285Y-104102819D01*
X104846285Y-104102819D02*
X104465333Y-104102819D01*
X104465333Y-104102819D02*
X104370095Y-104150438D01*
X104370095Y-104150438D02*
X104322476Y-104198057D01*
X104322476Y-104198057D02*
X104274857Y-104293295D01*
X104274857Y-104293295D02*
X104274857Y-104436152D01*
X104274857Y-104436152D02*
X104322476Y-104531390D01*
X104322476Y-104531390D02*
X104370095Y-104579009D01*
X104370095Y-104579009D02*
X104465333Y-104626628D01*
X104465333Y-104626628D02*
X104846285Y-104626628D01*
X103322476Y-105102819D02*
X103893904Y-105102819D01*
X103608190Y-105102819D02*
X103608190Y-104102819D01*
X103608190Y-104102819D02*
X103703428Y-104245676D01*
X103703428Y-104245676D02*
X103798666Y-104340914D01*
X103798666Y-104340914D02*
X103893904Y-104388533D01*
X102417714Y-104102819D02*
X102893904Y-104102819D01*
X102893904Y-104102819D02*
X102941523Y-104579009D01*
X102941523Y-104579009D02*
X102893904Y-104531390D01*
X102893904Y-104531390D02*
X102798666Y-104483771D01*
X102798666Y-104483771D02*
X102560571Y-104483771D01*
X102560571Y-104483771D02*
X102465333Y-104531390D01*
X102465333Y-104531390D02*
X102417714Y-104579009D01*
X102417714Y-104579009D02*
X102370095Y-104674247D01*
X102370095Y-104674247D02*
X102370095Y-104912342D01*
X102370095Y-104912342D02*
X102417714Y-105007580D01*
X102417714Y-105007580D02*
X102465333Y-105055200D01*
X102465333Y-105055200D02*
X102560571Y-105102819D01*
X102560571Y-105102819D02*
X102798666Y-105102819D01*
X102798666Y-105102819D02*
X102893904Y-105055200D01*
X102893904Y-105055200D02*
X102941523Y-105007580D01*
X133738857Y-96879580D02*
X133786476Y-96927200D01*
X133786476Y-96927200D02*
X133929333Y-96974819D01*
X133929333Y-96974819D02*
X134024571Y-96974819D01*
X134024571Y-96974819D02*
X134167428Y-96927200D01*
X134167428Y-96927200D02*
X134262666Y-96831961D01*
X134262666Y-96831961D02*
X134310285Y-96736723D01*
X134310285Y-96736723D02*
X134357904Y-96546247D01*
X134357904Y-96546247D02*
X134357904Y-96403390D01*
X134357904Y-96403390D02*
X134310285Y-96212914D01*
X134310285Y-96212914D02*
X134262666Y-96117676D01*
X134262666Y-96117676D02*
X134167428Y-96022438D01*
X134167428Y-96022438D02*
X134024571Y-95974819D01*
X134024571Y-95974819D02*
X133929333Y-95974819D01*
X133929333Y-95974819D02*
X133786476Y-96022438D01*
X133786476Y-96022438D02*
X133738857Y-96070057D01*
X133357904Y-96070057D02*
X133310285Y-96022438D01*
X133310285Y-96022438D02*
X133215047Y-95974819D01*
X133215047Y-95974819D02*
X132976952Y-95974819D01*
X132976952Y-95974819D02*
X132881714Y-96022438D01*
X132881714Y-96022438D02*
X132834095Y-96070057D01*
X132834095Y-96070057D02*
X132786476Y-96165295D01*
X132786476Y-96165295D02*
X132786476Y-96260533D01*
X132786476Y-96260533D02*
X132834095Y-96403390D01*
X132834095Y-96403390D02*
X133405523Y-96974819D01*
X133405523Y-96974819D02*
X132786476Y-96974819D01*
X132167428Y-95974819D02*
X132072190Y-95974819D01*
X132072190Y-95974819D02*
X131976952Y-96022438D01*
X131976952Y-96022438D02*
X131929333Y-96070057D01*
X131929333Y-96070057D02*
X131881714Y-96165295D01*
X131881714Y-96165295D02*
X131834095Y-96355771D01*
X131834095Y-96355771D02*
X131834095Y-96593866D01*
X131834095Y-96593866D02*
X131881714Y-96784342D01*
X131881714Y-96784342D02*
X131929333Y-96879580D01*
X131929333Y-96879580D02*
X131976952Y-96927200D01*
X131976952Y-96927200D02*
X132072190Y-96974819D01*
X132072190Y-96974819D02*
X132167428Y-96974819D01*
X132167428Y-96974819D02*
X132262666Y-96927200D01*
X132262666Y-96927200D02*
X132310285Y-96879580D01*
X132310285Y-96879580D02*
X132357904Y-96784342D01*
X132357904Y-96784342D02*
X132405523Y-96593866D01*
X132405523Y-96593866D02*
X132405523Y-96355771D01*
X132405523Y-96355771D02*
X132357904Y-96165295D01*
X132357904Y-96165295D02*
X132310285Y-96070057D01*
X132310285Y-96070057D02*
X132262666Y-96022438D01*
X132262666Y-96022438D02*
X132167428Y-95974819D01*
X110370857Y-96879580D02*
X110418476Y-96927200D01*
X110418476Y-96927200D02*
X110561333Y-96974819D01*
X110561333Y-96974819D02*
X110656571Y-96974819D01*
X110656571Y-96974819D02*
X110799428Y-96927200D01*
X110799428Y-96927200D02*
X110894666Y-96831961D01*
X110894666Y-96831961D02*
X110942285Y-96736723D01*
X110942285Y-96736723D02*
X110989904Y-96546247D01*
X110989904Y-96546247D02*
X110989904Y-96403390D01*
X110989904Y-96403390D02*
X110942285Y-96212914D01*
X110942285Y-96212914D02*
X110894666Y-96117676D01*
X110894666Y-96117676D02*
X110799428Y-96022438D01*
X110799428Y-96022438D02*
X110656571Y-95974819D01*
X110656571Y-95974819D02*
X110561333Y-95974819D01*
X110561333Y-95974819D02*
X110418476Y-96022438D01*
X110418476Y-96022438D02*
X110370857Y-96070057D01*
X109989904Y-96070057D02*
X109942285Y-96022438D01*
X109942285Y-96022438D02*
X109847047Y-95974819D01*
X109847047Y-95974819D02*
X109608952Y-95974819D01*
X109608952Y-95974819D02*
X109513714Y-96022438D01*
X109513714Y-96022438D02*
X109466095Y-96070057D01*
X109466095Y-96070057D02*
X109418476Y-96165295D01*
X109418476Y-96165295D02*
X109418476Y-96260533D01*
X109418476Y-96260533D02*
X109466095Y-96403390D01*
X109466095Y-96403390D02*
X110037523Y-96974819D01*
X110037523Y-96974819D02*
X109418476Y-96974819D01*
X108561333Y-96308152D02*
X108561333Y-96974819D01*
X108799428Y-95927200D02*
X109037523Y-96641485D01*
X109037523Y-96641485D02*
X108418476Y-96641485D01*
X80398857Y-134058819D02*
X80732190Y-133582628D01*
X80970285Y-134058819D02*
X80970285Y-133058819D01*
X80970285Y-133058819D02*
X80589333Y-133058819D01*
X80589333Y-133058819D02*
X80494095Y-133106438D01*
X80494095Y-133106438D02*
X80446476Y-133154057D01*
X80446476Y-133154057D02*
X80398857Y-133249295D01*
X80398857Y-133249295D02*
X80398857Y-133392152D01*
X80398857Y-133392152D02*
X80446476Y-133487390D01*
X80446476Y-133487390D02*
X80494095Y-133535009D01*
X80494095Y-133535009D02*
X80589333Y-133582628D01*
X80589333Y-133582628D02*
X80970285Y-133582628D01*
X79446476Y-134058819D02*
X80017904Y-134058819D01*
X79732190Y-134058819D02*
X79732190Y-133058819D01*
X79732190Y-133058819D02*
X79827428Y-133201676D01*
X79827428Y-133201676D02*
X79922666Y-133296914D01*
X79922666Y-133296914D02*
X80017904Y-133344533D01*
X78494095Y-134058819D02*
X79065523Y-134058819D01*
X78779809Y-134058819D02*
X78779809Y-133058819D01*
X78779809Y-133058819D02*
X78875047Y-133201676D01*
X78875047Y-133201676D02*
X78970285Y-133296914D01*
X78970285Y-133296914D02*
X79065523Y-133344533D01*
X102750857Y-84179580D02*
X102798476Y-84227200D01*
X102798476Y-84227200D02*
X102941333Y-84274819D01*
X102941333Y-84274819D02*
X103036571Y-84274819D01*
X103036571Y-84274819D02*
X103179428Y-84227200D01*
X103179428Y-84227200D02*
X103274666Y-84131961D01*
X103274666Y-84131961D02*
X103322285Y-84036723D01*
X103322285Y-84036723D02*
X103369904Y-83846247D01*
X103369904Y-83846247D02*
X103369904Y-83703390D01*
X103369904Y-83703390D02*
X103322285Y-83512914D01*
X103322285Y-83512914D02*
X103274666Y-83417676D01*
X103274666Y-83417676D02*
X103179428Y-83322438D01*
X103179428Y-83322438D02*
X103036571Y-83274819D01*
X103036571Y-83274819D02*
X102941333Y-83274819D01*
X102941333Y-83274819D02*
X102798476Y-83322438D01*
X102798476Y-83322438D02*
X102750857Y-83370057D01*
X101893714Y-83274819D02*
X102084190Y-83274819D01*
X102084190Y-83274819D02*
X102179428Y-83322438D01*
X102179428Y-83322438D02*
X102227047Y-83370057D01*
X102227047Y-83370057D02*
X102322285Y-83512914D01*
X102322285Y-83512914D02*
X102369904Y-83703390D01*
X102369904Y-83703390D02*
X102369904Y-84084342D01*
X102369904Y-84084342D02*
X102322285Y-84179580D01*
X102322285Y-84179580D02*
X102274666Y-84227200D01*
X102274666Y-84227200D02*
X102179428Y-84274819D01*
X102179428Y-84274819D02*
X101988952Y-84274819D01*
X101988952Y-84274819D02*
X101893714Y-84227200D01*
X101893714Y-84227200D02*
X101846095Y-84179580D01*
X101846095Y-84179580D02*
X101798476Y-84084342D01*
X101798476Y-84084342D02*
X101798476Y-83846247D01*
X101798476Y-83846247D02*
X101846095Y-83751009D01*
X101846095Y-83751009D02*
X101893714Y-83703390D01*
X101893714Y-83703390D02*
X101988952Y-83655771D01*
X101988952Y-83655771D02*
X102179428Y-83655771D01*
X102179428Y-83655771D02*
X102274666Y-83703390D01*
X102274666Y-83703390D02*
X102322285Y-83751009D01*
X102322285Y-83751009D02*
X102369904Y-83846247D01*
X100846095Y-84274819D02*
X101417523Y-84274819D01*
X101131809Y-84274819D02*
X101131809Y-83274819D01*
X101131809Y-83274819D02*
X101227047Y-83417676D01*
X101227047Y-83417676D02*
X101322285Y-83512914D01*
X101322285Y-83512914D02*
X101417523Y-83560533D01*
X133770666Y-105007580D02*
X133818285Y-105055200D01*
X133818285Y-105055200D02*
X133961142Y-105102819D01*
X133961142Y-105102819D02*
X134056380Y-105102819D01*
X134056380Y-105102819D02*
X134199237Y-105055200D01*
X134199237Y-105055200D02*
X134294475Y-104959961D01*
X134294475Y-104959961D02*
X134342094Y-104864723D01*
X134342094Y-104864723D02*
X134389713Y-104674247D01*
X134389713Y-104674247D02*
X134389713Y-104531390D01*
X134389713Y-104531390D02*
X134342094Y-104340914D01*
X134342094Y-104340914D02*
X134294475Y-104245676D01*
X134294475Y-104245676D02*
X134199237Y-104150438D01*
X134199237Y-104150438D02*
X134056380Y-104102819D01*
X134056380Y-104102819D02*
X133961142Y-104102819D01*
X133961142Y-104102819D02*
X133818285Y-104150438D01*
X133818285Y-104150438D02*
X133770666Y-104198057D01*
X133294475Y-105102819D02*
X133103999Y-105102819D01*
X133103999Y-105102819D02*
X133008761Y-105055200D01*
X133008761Y-105055200D02*
X132961142Y-105007580D01*
X132961142Y-105007580D02*
X132865904Y-104864723D01*
X132865904Y-104864723D02*
X132818285Y-104674247D01*
X132818285Y-104674247D02*
X132818285Y-104293295D01*
X132818285Y-104293295D02*
X132865904Y-104198057D01*
X132865904Y-104198057D02*
X132913523Y-104150438D01*
X132913523Y-104150438D02*
X133008761Y-104102819D01*
X133008761Y-104102819D02*
X133199237Y-104102819D01*
X133199237Y-104102819D02*
X133294475Y-104150438D01*
X133294475Y-104150438D02*
X133342094Y-104198057D01*
X133342094Y-104198057D02*
X133389713Y-104293295D01*
X133389713Y-104293295D02*
X133389713Y-104531390D01*
X133389713Y-104531390D02*
X133342094Y-104626628D01*
X133342094Y-104626628D02*
X133294475Y-104674247D01*
X133294475Y-104674247D02*
X133199237Y-104721866D01*
X133199237Y-104721866D02*
X133008761Y-104721866D01*
X133008761Y-104721866D02*
X132913523Y-104674247D01*
X132913523Y-104674247D02*
X132865904Y-104626628D01*
X132865904Y-104626628D02*
X132818285Y-104531390D01*
X128150857Y-52778819D02*
X128484190Y-52302628D01*
X128722285Y-52778819D02*
X128722285Y-51778819D01*
X128722285Y-51778819D02*
X128341333Y-51778819D01*
X128341333Y-51778819D02*
X128246095Y-51826438D01*
X128246095Y-51826438D02*
X128198476Y-51874057D01*
X128198476Y-51874057D02*
X128150857Y-51969295D01*
X128150857Y-51969295D02*
X128150857Y-52112152D01*
X128150857Y-52112152D02*
X128198476Y-52207390D01*
X128198476Y-52207390D02*
X128246095Y-52255009D01*
X128246095Y-52255009D02*
X128341333Y-52302628D01*
X128341333Y-52302628D02*
X128722285Y-52302628D01*
X127293714Y-52112152D02*
X127293714Y-52778819D01*
X127531809Y-51731200D02*
X127769904Y-52445485D01*
X127769904Y-52445485D02*
X127150857Y-52445485D01*
X126579428Y-51778819D02*
X126484190Y-51778819D01*
X126484190Y-51778819D02*
X126388952Y-51826438D01*
X126388952Y-51826438D02*
X126341333Y-51874057D01*
X126341333Y-51874057D02*
X126293714Y-51969295D01*
X126293714Y-51969295D02*
X126246095Y-52159771D01*
X126246095Y-52159771D02*
X126246095Y-52397866D01*
X126246095Y-52397866D02*
X126293714Y-52588342D01*
X126293714Y-52588342D02*
X126341333Y-52683580D01*
X126341333Y-52683580D02*
X126388952Y-52731200D01*
X126388952Y-52731200D02*
X126484190Y-52778819D01*
X126484190Y-52778819D02*
X126579428Y-52778819D01*
X126579428Y-52778819D02*
X126674666Y-52731200D01*
X126674666Y-52731200D02*
X126722285Y-52683580D01*
X126722285Y-52683580D02*
X126769904Y-52588342D01*
X126769904Y-52588342D02*
X126817523Y-52397866D01*
X126817523Y-52397866D02*
X126817523Y-52159771D01*
X126817523Y-52159771D02*
X126769904Y-51969295D01*
X126769904Y-51969295D02*
X126722285Y-51874057D01*
X126722285Y-51874057D02*
X126674666Y-51826438D01*
X126674666Y-51826438D02*
X126579428Y-51778819D01*
X136786857Y-98911580D02*
X136834476Y-98959200D01*
X136834476Y-98959200D02*
X136977333Y-99006819D01*
X136977333Y-99006819D02*
X137072571Y-99006819D01*
X137072571Y-99006819D02*
X137215428Y-98959200D01*
X137215428Y-98959200D02*
X137310666Y-98863961D01*
X137310666Y-98863961D02*
X137358285Y-98768723D01*
X137358285Y-98768723D02*
X137405904Y-98578247D01*
X137405904Y-98578247D02*
X137405904Y-98435390D01*
X137405904Y-98435390D02*
X137358285Y-98244914D01*
X137358285Y-98244914D02*
X137310666Y-98149676D01*
X137310666Y-98149676D02*
X137215428Y-98054438D01*
X137215428Y-98054438D02*
X137072571Y-98006819D01*
X137072571Y-98006819D02*
X136977333Y-98006819D01*
X136977333Y-98006819D02*
X136834476Y-98054438D01*
X136834476Y-98054438D02*
X136786857Y-98102057D01*
X136405904Y-98102057D02*
X136358285Y-98054438D01*
X136358285Y-98054438D02*
X136263047Y-98006819D01*
X136263047Y-98006819D02*
X136024952Y-98006819D01*
X136024952Y-98006819D02*
X135929714Y-98054438D01*
X135929714Y-98054438D02*
X135882095Y-98102057D01*
X135882095Y-98102057D02*
X135834476Y-98197295D01*
X135834476Y-98197295D02*
X135834476Y-98292533D01*
X135834476Y-98292533D02*
X135882095Y-98435390D01*
X135882095Y-98435390D02*
X136453523Y-99006819D01*
X136453523Y-99006819D02*
X135834476Y-99006819D01*
X134929714Y-98006819D02*
X135405904Y-98006819D01*
X135405904Y-98006819D02*
X135453523Y-98483009D01*
X135453523Y-98483009D02*
X135405904Y-98435390D01*
X135405904Y-98435390D02*
X135310666Y-98387771D01*
X135310666Y-98387771D02*
X135072571Y-98387771D01*
X135072571Y-98387771D02*
X134977333Y-98435390D01*
X134977333Y-98435390D02*
X134929714Y-98483009D01*
X134929714Y-98483009D02*
X134882095Y-98578247D01*
X134882095Y-98578247D02*
X134882095Y-98816342D01*
X134882095Y-98816342D02*
X134929714Y-98911580D01*
X134929714Y-98911580D02*
X134977333Y-98959200D01*
X134977333Y-98959200D02*
X135072571Y-99006819D01*
X135072571Y-99006819D02*
X135310666Y-99006819D01*
X135310666Y-99006819D02*
X135405904Y-98959200D01*
X135405904Y-98959200D02*
X135453523Y-98911580D01*
X98210666Y-68018819D02*
X98543999Y-67542628D01*
X98782094Y-68018819D02*
X98782094Y-67018819D01*
X98782094Y-67018819D02*
X98401142Y-67018819D01*
X98401142Y-67018819D02*
X98305904Y-67066438D01*
X98305904Y-67066438D02*
X98258285Y-67114057D01*
X98258285Y-67114057D02*
X98210666Y-67209295D01*
X98210666Y-67209295D02*
X98210666Y-67352152D01*
X98210666Y-67352152D02*
X98258285Y-67447390D01*
X98258285Y-67447390D02*
X98305904Y-67495009D01*
X98305904Y-67495009D02*
X98401142Y-67542628D01*
X98401142Y-67542628D02*
X98782094Y-67542628D01*
X97829713Y-67114057D02*
X97782094Y-67066438D01*
X97782094Y-67066438D02*
X97686856Y-67018819D01*
X97686856Y-67018819D02*
X97448761Y-67018819D01*
X97448761Y-67018819D02*
X97353523Y-67066438D01*
X97353523Y-67066438D02*
X97305904Y-67114057D01*
X97305904Y-67114057D02*
X97258285Y-67209295D01*
X97258285Y-67209295D02*
X97258285Y-67304533D01*
X97258285Y-67304533D02*
X97305904Y-67447390D01*
X97305904Y-67447390D02*
X97877332Y-68018819D01*
X97877332Y-68018819D02*
X97258285Y-68018819D01*
X130944857Y-83163580D02*
X130992476Y-83211200D01*
X130992476Y-83211200D02*
X131135333Y-83258819D01*
X131135333Y-83258819D02*
X131230571Y-83258819D01*
X131230571Y-83258819D02*
X131373428Y-83211200D01*
X131373428Y-83211200D02*
X131468666Y-83115961D01*
X131468666Y-83115961D02*
X131516285Y-83020723D01*
X131516285Y-83020723D02*
X131563904Y-82830247D01*
X131563904Y-82830247D02*
X131563904Y-82687390D01*
X131563904Y-82687390D02*
X131516285Y-82496914D01*
X131516285Y-82496914D02*
X131468666Y-82401676D01*
X131468666Y-82401676D02*
X131373428Y-82306438D01*
X131373428Y-82306438D02*
X131230571Y-82258819D01*
X131230571Y-82258819D02*
X131135333Y-82258819D01*
X131135333Y-82258819D02*
X130992476Y-82306438D01*
X130992476Y-82306438D02*
X130944857Y-82354057D01*
X130611523Y-82258819D02*
X129992476Y-82258819D01*
X129992476Y-82258819D02*
X130325809Y-82639771D01*
X130325809Y-82639771D02*
X130182952Y-82639771D01*
X130182952Y-82639771D02*
X130087714Y-82687390D01*
X130087714Y-82687390D02*
X130040095Y-82735009D01*
X130040095Y-82735009D02*
X129992476Y-82830247D01*
X129992476Y-82830247D02*
X129992476Y-83068342D01*
X129992476Y-83068342D02*
X130040095Y-83163580D01*
X130040095Y-83163580D02*
X130087714Y-83211200D01*
X130087714Y-83211200D02*
X130182952Y-83258819D01*
X130182952Y-83258819D02*
X130468666Y-83258819D01*
X130468666Y-83258819D02*
X130563904Y-83211200D01*
X130563904Y-83211200D02*
X130611523Y-83163580D01*
X129135333Y-82592152D02*
X129135333Y-83258819D01*
X129373428Y-82211200D02*
X129611523Y-82925485D01*
X129611523Y-82925485D02*
X128992476Y-82925485D01*
X144914857Y-64462819D02*
X145248190Y-63986628D01*
X145486285Y-64462819D02*
X145486285Y-63462819D01*
X145486285Y-63462819D02*
X145105333Y-63462819D01*
X145105333Y-63462819D02*
X145010095Y-63510438D01*
X145010095Y-63510438D02*
X144962476Y-63558057D01*
X144962476Y-63558057D02*
X144914857Y-63653295D01*
X144914857Y-63653295D02*
X144914857Y-63796152D01*
X144914857Y-63796152D02*
X144962476Y-63891390D01*
X144962476Y-63891390D02*
X145010095Y-63939009D01*
X145010095Y-63939009D02*
X145105333Y-63986628D01*
X145105333Y-63986628D02*
X145486285Y-63986628D01*
X144581523Y-63462819D02*
X143962476Y-63462819D01*
X143962476Y-63462819D02*
X144295809Y-63843771D01*
X144295809Y-63843771D02*
X144152952Y-63843771D01*
X144152952Y-63843771D02*
X144057714Y-63891390D01*
X144057714Y-63891390D02*
X144010095Y-63939009D01*
X144010095Y-63939009D02*
X143962476Y-64034247D01*
X143962476Y-64034247D02*
X143962476Y-64272342D01*
X143962476Y-64272342D02*
X144010095Y-64367580D01*
X144010095Y-64367580D02*
X144057714Y-64415200D01*
X144057714Y-64415200D02*
X144152952Y-64462819D01*
X144152952Y-64462819D02*
X144438666Y-64462819D01*
X144438666Y-64462819D02*
X144533904Y-64415200D01*
X144533904Y-64415200D02*
X144581523Y-64367580D01*
X143105333Y-63796152D02*
X143105333Y-64462819D01*
X143343428Y-63415200D02*
X143581523Y-64129485D01*
X143581523Y-64129485D02*
X142962476Y-64129485D01*
X94622857Y-89923580D02*
X94670476Y-89971200D01*
X94670476Y-89971200D02*
X94813333Y-90018819D01*
X94813333Y-90018819D02*
X94908571Y-90018819D01*
X94908571Y-90018819D02*
X95051428Y-89971200D01*
X95051428Y-89971200D02*
X95146666Y-89875961D01*
X95146666Y-89875961D02*
X95194285Y-89780723D01*
X95194285Y-89780723D02*
X95241904Y-89590247D01*
X95241904Y-89590247D02*
X95241904Y-89447390D01*
X95241904Y-89447390D02*
X95194285Y-89256914D01*
X95194285Y-89256914D02*
X95146666Y-89161676D01*
X95146666Y-89161676D02*
X95051428Y-89066438D01*
X95051428Y-89066438D02*
X94908571Y-89018819D01*
X94908571Y-89018819D02*
X94813333Y-89018819D01*
X94813333Y-89018819D02*
X94670476Y-89066438D01*
X94670476Y-89066438D02*
X94622857Y-89114057D01*
X94241904Y-89114057D02*
X94194285Y-89066438D01*
X94194285Y-89066438D02*
X94099047Y-89018819D01*
X94099047Y-89018819D02*
X93860952Y-89018819D01*
X93860952Y-89018819D02*
X93765714Y-89066438D01*
X93765714Y-89066438D02*
X93718095Y-89114057D01*
X93718095Y-89114057D02*
X93670476Y-89209295D01*
X93670476Y-89209295D02*
X93670476Y-89304533D01*
X93670476Y-89304533D02*
X93718095Y-89447390D01*
X93718095Y-89447390D02*
X94289523Y-90018819D01*
X94289523Y-90018819D02*
X93670476Y-90018819D01*
X93194285Y-90018819D02*
X93003809Y-90018819D01*
X93003809Y-90018819D02*
X92908571Y-89971200D01*
X92908571Y-89971200D02*
X92860952Y-89923580D01*
X92860952Y-89923580D02*
X92765714Y-89780723D01*
X92765714Y-89780723D02*
X92718095Y-89590247D01*
X92718095Y-89590247D02*
X92718095Y-89209295D01*
X92718095Y-89209295D02*
X92765714Y-89114057D01*
X92765714Y-89114057D02*
X92813333Y-89066438D01*
X92813333Y-89066438D02*
X92908571Y-89018819D01*
X92908571Y-89018819D02*
X93099047Y-89018819D01*
X93099047Y-89018819D02*
X93194285Y-89066438D01*
X93194285Y-89066438D02*
X93241904Y-89114057D01*
X93241904Y-89114057D02*
X93289523Y-89209295D01*
X93289523Y-89209295D02*
X93289523Y-89447390D01*
X93289523Y-89447390D02*
X93241904Y-89542628D01*
X93241904Y-89542628D02*
X93194285Y-89590247D01*
X93194285Y-89590247D02*
X93099047Y-89637866D01*
X93099047Y-89637866D02*
X92908571Y-89637866D01*
X92908571Y-89637866D02*
X92813333Y-89590247D01*
X92813333Y-89590247D02*
X92765714Y-89542628D01*
X92765714Y-89542628D02*
X92718095Y-89447390D01*
X98210666Y-70050819D02*
X98543999Y-69574628D01*
X98782094Y-70050819D02*
X98782094Y-69050819D01*
X98782094Y-69050819D02*
X98401142Y-69050819D01*
X98401142Y-69050819D02*
X98305904Y-69098438D01*
X98305904Y-69098438D02*
X98258285Y-69146057D01*
X98258285Y-69146057D02*
X98210666Y-69241295D01*
X98210666Y-69241295D02*
X98210666Y-69384152D01*
X98210666Y-69384152D02*
X98258285Y-69479390D01*
X98258285Y-69479390D02*
X98305904Y-69527009D01*
X98305904Y-69527009D02*
X98401142Y-69574628D01*
X98401142Y-69574628D02*
X98782094Y-69574628D01*
X97258285Y-70050819D02*
X97829713Y-70050819D01*
X97543999Y-70050819D02*
X97543999Y-69050819D01*
X97543999Y-69050819D02*
X97639237Y-69193676D01*
X97639237Y-69193676D02*
X97734475Y-69288914D01*
X97734475Y-69288914D02*
X97829713Y-69336533D01*
X110370857Y-94847580D02*
X110418476Y-94895200D01*
X110418476Y-94895200D02*
X110561333Y-94942819D01*
X110561333Y-94942819D02*
X110656571Y-94942819D01*
X110656571Y-94942819D02*
X110799428Y-94895200D01*
X110799428Y-94895200D02*
X110894666Y-94799961D01*
X110894666Y-94799961D02*
X110942285Y-94704723D01*
X110942285Y-94704723D02*
X110989904Y-94514247D01*
X110989904Y-94514247D02*
X110989904Y-94371390D01*
X110989904Y-94371390D02*
X110942285Y-94180914D01*
X110942285Y-94180914D02*
X110894666Y-94085676D01*
X110894666Y-94085676D02*
X110799428Y-93990438D01*
X110799428Y-93990438D02*
X110656571Y-93942819D01*
X110656571Y-93942819D02*
X110561333Y-93942819D01*
X110561333Y-93942819D02*
X110418476Y-93990438D01*
X110418476Y-93990438D02*
X110370857Y-94038057D01*
X109418476Y-94942819D02*
X109989904Y-94942819D01*
X109704190Y-94942819D02*
X109704190Y-93942819D01*
X109704190Y-93942819D02*
X109799428Y-94085676D01*
X109799428Y-94085676D02*
X109894666Y-94180914D01*
X109894666Y-94180914D02*
X109989904Y-94228533D01*
X108942285Y-94942819D02*
X108751809Y-94942819D01*
X108751809Y-94942819D02*
X108656571Y-94895200D01*
X108656571Y-94895200D02*
X108608952Y-94847580D01*
X108608952Y-94847580D02*
X108513714Y-94704723D01*
X108513714Y-94704723D02*
X108466095Y-94514247D01*
X108466095Y-94514247D02*
X108466095Y-94133295D01*
X108466095Y-94133295D02*
X108513714Y-94038057D01*
X108513714Y-94038057D02*
X108561333Y-93990438D01*
X108561333Y-93990438D02*
X108656571Y-93942819D01*
X108656571Y-93942819D02*
X108847047Y-93942819D01*
X108847047Y-93942819D02*
X108942285Y-93990438D01*
X108942285Y-93990438D02*
X108989904Y-94038057D01*
X108989904Y-94038057D02*
X109037523Y-94133295D01*
X109037523Y-94133295D02*
X109037523Y-94371390D01*
X109037523Y-94371390D02*
X108989904Y-94466628D01*
X108989904Y-94466628D02*
X108942285Y-94514247D01*
X108942285Y-94514247D02*
X108847047Y-94561866D01*
X108847047Y-94561866D02*
X108656571Y-94561866D01*
X108656571Y-94561866D02*
X108561333Y-94514247D01*
X108561333Y-94514247D02*
X108513714Y-94466628D01*
X108513714Y-94466628D02*
X108466095Y-94371390D01*
X107322857Y-98911580D02*
X107370476Y-98959200D01*
X107370476Y-98959200D02*
X107513333Y-99006819D01*
X107513333Y-99006819D02*
X107608571Y-99006819D01*
X107608571Y-99006819D02*
X107751428Y-98959200D01*
X107751428Y-98959200D02*
X107846666Y-98863961D01*
X107846666Y-98863961D02*
X107894285Y-98768723D01*
X107894285Y-98768723D02*
X107941904Y-98578247D01*
X107941904Y-98578247D02*
X107941904Y-98435390D01*
X107941904Y-98435390D02*
X107894285Y-98244914D01*
X107894285Y-98244914D02*
X107846666Y-98149676D01*
X107846666Y-98149676D02*
X107751428Y-98054438D01*
X107751428Y-98054438D02*
X107608571Y-98006819D01*
X107608571Y-98006819D02*
X107513333Y-98006819D01*
X107513333Y-98006819D02*
X107370476Y-98054438D01*
X107370476Y-98054438D02*
X107322857Y-98102057D01*
X106370476Y-99006819D02*
X106941904Y-99006819D01*
X106656190Y-99006819D02*
X106656190Y-98006819D01*
X106656190Y-98006819D02*
X106751428Y-98149676D01*
X106751428Y-98149676D02*
X106846666Y-98244914D01*
X106846666Y-98244914D02*
X106941904Y-98292533D01*
X105513333Y-98340152D02*
X105513333Y-99006819D01*
X105751428Y-97959200D02*
X105989523Y-98673485D01*
X105989523Y-98673485D02*
X105370476Y-98673485D01*
X151010857Y-71574819D02*
X151344190Y-71098628D01*
X151582285Y-71574819D02*
X151582285Y-70574819D01*
X151582285Y-70574819D02*
X151201333Y-70574819D01*
X151201333Y-70574819D02*
X151106095Y-70622438D01*
X151106095Y-70622438D02*
X151058476Y-70670057D01*
X151058476Y-70670057D02*
X151010857Y-70765295D01*
X151010857Y-70765295D02*
X151010857Y-70908152D01*
X151010857Y-70908152D02*
X151058476Y-71003390D01*
X151058476Y-71003390D02*
X151106095Y-71051009D01*
X151106095Y-71051009D02*
X151201333Y-71098628D01*
X151201333Y-71098628D02*
X151582285Y-71098628D01*
X150629904Y-70670057D02*
X150582285Y-70622438D01*
X150582285Y-70622438D02*
X150487047Y-70574819D01*
X150487047Y-70574819D02*
X150248952Y-70574819D01*
X150248952Y-70574819D02*
X150153714Y-70622438D01*
X150153714Y-70622438D02*
X150106095Y-70670057D01*
X150106095Y-70670057D02*
X150058476Y-70765295D01*
X150058476Y-70765295D02*
X150058476Y-70860533D01*
X150058476Y-70860533D02*
X150106095Y-71003390D01*
X150106095Y-71003390D02*
X150677523Y-71574819D01*
X150677523Y-71574819D02*
X150058476Y-71574819D01*
X149725142Y-70574819D02*
X149106095Y-70574819D01*
X149106095Y-70574819D02*
X149439428Y-70955771D01*
X149439428Y-70955771D02*
X149296571Y-70955771D01*
X149296571Y-70955771D02*
X149201333Y-71003390D01*
X149201333Y-71003390D02*
X149153714Y-71051009D01*
X149153714Y-71051009D02*
X149106095Y-71146247D01*
X149106095Y-71146247D02*
X149106095Y-71384342D01*
X149106095Y-71384342D02*
X149153714Y-71479580D01*
X149153714Y-71479580D02*
X149201333Y-71527200D01*
X149201333Y-71527200D02*
X149296571Y-71574819D01*
X149296571Y-71574819D02*
X149582285Y-71574819D01*
X149582285Y-71574819D02*
X149677523Y-71527200D01*
X149677523Y-71527200D02*
X149725142Y-71479580D01*
X104274857Y-107134819D02*
X104608190Y-106658628D01*
X104846285Y-107134819D02*
X104846285Y-106134819D01*
X104846285Y-106134819D02*
X104465333Y-106134819D01*
X104465333Y-106134819D02*
X104370095Y-106182438D01*
X104370095Y-106182438D02*
X104322476Y-106230057D01*
X104322476Y-106230057D02*
X104274857Y-106325295D01*
X104274857Y-106325295D02*
X104274857Y-106468152D01*
X104274857Y-106468152D02*
X104322476Y-106563390D01*
X104322476Y-106563390D02*
X104370095Y-106611009D01*
X104370095Y-106611009D02*
X104465333Y-106658628D01*
X104465333Y-106658628D02*
X104846285Y-106658628D01*
X103893904Y-106230057D02*
X103846285Y-106182438D01*
X103846285Y-106182438D02*
X103751047Y-106134819D01*
X103751047Y-106134819D02*
X103512952Y-106134819D01*
X103512952Y-106134819D02*
X103417714Y-106182438D01*
X103417714Y-106182438D02*
X103370095Y-106230057D01*
X103370095Y-106230057D02*
X103322476Y-106325295D01*
X103322476Y-106325295D02*
X103322476Y-106420533D01*
X103322476Y-106420533D02*
X103370095Y-106563390D01*
X103370095Y-106563390D02*
X103941523Y-107134819D01*
X103941523Y-107134819D02*
X103322476Y-107134819D01*
X102703428Y-106134819D02*
X102608190Y-106134819D01*
X102608190Y-106134819D02*
X102512952Y-106182438D01*
X102512952Y-106182438D02*
X102465333Y-106230057D01*
X102465333Y-106230057D02*
X102417714Y-106325295D01*
X102417714Y-106325295D02*
X102370095Y-106515771D01*
X102370095Y-106515771D02*
X102370095Y-106753866D01*
X102370095Y-106753866D02*
X102417714Y-106944342D01*
X102417714Y-106944342D02*
X102465333Y-107039580D01*
X102465333Y-107039580D02*
X102512952Y-107087200D01*
X102512952Y-107087200D02*
X102608190Y-107134819D01*
X102608190Y-107134819D02*
X102703428Y-107134819D01*
X102703428Y-107134819D02*
X102798666Y-107087200D01*
X102798666Y-107087200D02*
X102846285Y-107039580D01*
X102846285Y-107039580D02*
X102893904Y-106944342D01*
X102893904Y-106944342D02*
X102941523Y-106753866D01*
X102941523Y-106753866D02*
X102941523Y-106515771D01*
X102941523Y-106515771D02*
X102893904Y-106325295D01*
X102893904Y-106325295D02*
X102846285Y-106230057D01*
X102846285Y-106230057D02*
X102798666Y-106182438D01*
X102798666Y-106182438D02*
X102703428Y-106134819D01*
X110402666Y-102975580D02*
X110450285Y-103023200D01*
X110450285Y-103023200D02*
X110593142Y-103070819D01*
X110593142Y-103070819D02*
X110688380Y-103070819D01*
X110688380Y-103070819D02*
X110831237Y-103023200D01*
X110831237Y-103023200D02*
X110926475Y-102927961D01*
X110926475Y-102927961D02*
X110974094Y-102832723D01*
X110974094Y-102832723D02*
X111021713Y-102642247D01*
X111021713Y-102642247D02*
X111021713Y-102499390D01*
X111021713Y-102499390D02*
X110974094Y-102308914D01*
X110974094Y-102308914D02*
X110926475Y-102213676D01*
X110926475Y-102213676D02*
X110831237Y-102118438D01*
X110831237Y-102118438D02*
X110688380Y-102070819D01*
X110688380Y-102070819D02*
X110593142Y-102070819D01*
X110593142Y-102070819D02*
X110450285Y-102118438D01*
X110450285Y-102118438D02*
X110402666Y-102166057D01*
X109450285Y-103070819D02*
X110021713Y-103070819D01*
X109735999Y-103070819D02*
X109735999Y-102070819D01*
X109735999Y-102070819D02*
X109831237Y-102213676D01*
X109831237Y-102213676D02*
X109926475Y-102308914D01*
X109926475Y-102308914D02*
X110021713Y-102356533D01*
X148470857Y-77575580D02*
X148518476Y-77623200D01*
X148518476Y-77623200D02*
X148661333Y-77670819D01*
X148661333Y-77670819D02*
X148756571Y-77670819D01*
X148756571Y-77670819D02*
X148899428Y-77623200D01*
X148899428Y-77623200D02*
X148994666Y-77527961D01*
X148994666Y-77527961D02*
X149042285Y-77432723D01*
X149042285Y-77432723D02*
X149089904Y-77242247D01*
X149089904Y-77242247D02*
X149089904Y-77099390D01*
X149089904Y-77099390D02*
X149042285Y-76908914D01*
X149042285Y-76908914D02*
X148994666Y-76813676D01*
X148994666Y-76813676D02*
X148899428Y-76718438D01*
X148899428Y-76718438D02*
X148756571Y-76670819D01*
X148756571Y-76670819D02*
X148661333Y-76670819D01*
X148661333Y-76670819D02*
X148518476Y-76718438D01*
X148518476Y-76718438D02*
X148470857Y-76766057D01*
X147566095Y-76670819D02*
X148042285Y-76670819D01*
X148042285Y-76670819D02*
X148089904Y-77147009D01*
X148089904Y-77147009D02*
X148042285Y-77099390D01*
X148042285Y-77099390D02*
X147947047Y-77051771D01*
X147947047Y-77051771D02*
X147708952Y-77051771D01*
X147708952Y-77051771D02*
X147613714Y-77099390D01*
X147613714Y-77099390D02*
X147566095Y-77147009D01*
X147566095Y-77147009D02*
X147518476Y-77242247D01*
X147518476Y-77242247D02*
X147518476Y-77480342D01*
X147518476Y-77480342D02*
X147566095Y-77575580D01*
X147566095Y-77575580D02*
X147613714Y-77623200D01*
X147613714Y-77623200D02*
X147708952Y-77670819D01*
X147708952Y-77670819D02*
X147947047Y-77670819D01*
X147947047Y-77670819D02*
X148042285Y-77623200D01*
X148042285Y-77623200D02*
X148089904Y-77575580D01*
X146661333Y-77004152D02*
X146661333Y-77670819D01*
X146899428Y-76623200D02*
X147137523Y-77337485D01*
X147137523Y-77337485D02*
X146518476Y-77337485D01*
X133738857Y-94847580D02*
X133786476Y-94895200D01*
X133786476Y-94895200D02*
X133929333Y-94942819D01*
X133929333Y-94942819D02*
X134024571Y-94942819D01*
X134024571Y-94942819D02*
X134167428Y-94895200D01*
X134167428Y-94895200D02*
X134262666Y-94799961D01*
X134262666Y-94799961D02*
X134310285Y-94704723D01*
X134310285Y-94704723D02*
X134357904Y-94514247D01*
X134357904Y-94514247D02*
X134357904Y-94371390D01*
X134357904Y-94371390D02*
X134310285Y-94180914D01*
X134310285Y-94180914D02*
X134262666Y-94085676D01*
X134262666Y-94085676D02*
X134167428Y-93990438D01*
X134167428Y-93990438D02*
X134024571Y-93942819D01*
X134024571Y-93942819D02*
X133929333Y-93942819D01*
X133929333Y-93942819D02*
X133786476Y-93990438D01*
X133786476Y-93990438D02*
X133738857Y-94038057D01*
X132786476Y-94942819D02*
X133357904Y-94942819D01*
X133072190Y-94942819D02*
X133072190Y-93942819D01*
X133072190Y-93942819D02*
X133167428Y-94085676D01*
X133167428Y-94085676D02*
X133262666Y-94180914D01*
X133262666Y-94180914D02*
X133357904Y-94228533D01*
X131929333Y-93942819D02*
X132119809Y-93942819D01*
X132119809Y-93942819D02*
X132215047Y-93990438D01*
X132215047Y-93990438D02*
X132262666Y-94038057D01*
X132262666Y-94038057D02*
X132357904Y-94180914D01*
X132357904Y-94180914D02*
X132405523Y-94371390D01*
X132405523Y-94371390D02*
X132405523Y-94752342D01*
X132405523Y-94752342D02*
X132357904Y-94847580D01*
X132357904Y-94847580D02*
X132310285Y-94895200D01*
X132310285Y-94895200D02*
X132215047Y-94942819D01*
X132215047Y-94942819D02*
X132024571Y-94942819D01*
X132024571Y-94942819D02*
X131929333Y-94895200D01*
X131929333Y-94895200D02*
X131881714Y-94847580D01*
X131881714Y-94847580D02*
X131834095Y-94752342D01*
X131834095Y-94752342D02*
X131834095Y-94514247D01*
X131834095Y-94514247D02*
X131881714Y-94419009D01*
X131881714Y-94419009D02*
X131929333Y-94371390D01*
X131929333Y-94371390D02*
X132024571Y-94323771D01*
X132024571Y-94323771D02*
X132215047Y-94323771D01*
X132215047Y-94323771D02*
X132310285Y-94371390D01*
X132310285Y-94371390D02*
X132357904Y-94419009D01*
X132357904Y-94419009D02*
X132405523Y-94514247D01*
X136786857Y-100943580D02*
X136834476Y-100991200D01*
X136834476Y-100991200D02*
X136977333Y-101038819D01*
X136977333Y-101038819D02*
X137072571Y-101038819D01*
X137072571Y-101038819D02*
X137215428Y-100991200D01*
X137215428Y-100991200D02*
X137310666Y-100895961D01*
X137310666Y-100895961D02*
X137358285Y-100800723D01*
X137358285Y-100800723D02*
X137405904Y-100610247D01*
X137405904Y-100610247D02*
X137405904Y-100467390D01*
X137405904Y-100467390D02*
X137358285Y-100276914D01*
X137358285Y-100276914D02*
X137310666Y-100181676D01*
X137310666Y-100181676D02*
X137215428Y-100086438D01*
X137215428Y-100086438D02*
X137072571Y-100038819D01*
X137072571Y-100038819D02*
X136977333Y-100038819D01*
X136977333Y-100038819D02*
X136834476Y-100086438D01*
X136834476Y-100086438D02*
X136786857Y-100134057D01*
X136405904Y-100134057D02*
X136358285Y-100086438D01*
X136358285Y-100086438D02*
X136263047Y-100038819D01*
X136263047Y-100038819D02*
X136024952Y-100038819D01*
X136024952Y-100038819D02*
X135929714Y-100086438D01*
X135929714Y-100086438D02*
X135882095Y-100134057D01*
X135882095Y-100134057D02*
X135834476Y-100229295D01*
X135834476Y-100229295D02*
X135834476Y-100324533D01*
X135834476Y-100324533D02*
X135882095Y-100467390D01*
X135882095Y-100467390D02*
X136453523Y-101038819D01*
X136453523Y-101038819D02*
X135834476Y-101038819D01*
X134882095Y-101038819D02*
X135453523Y-101038819D01*
X135167809Y-101038819D02*
X135167809Y-100038819D01*
X135167809Y-100038819D02*
X135263047Y-100181676D01*
X135263047Y-100181676D02*
X135358285Y-100276914D01*
X135358285Y-100276914D02*
X135453523Y-100324533D01*
X97670857Y-133963580D02*
X97718476Y-134011200D01*
X97718476Y-134011200D02*
X97861333Y-134058819D01*
X97861333Y-134058819D02*
X97956571Y-134058819D01*
X97956571Y-134058819D02*
X98099428Y-134011200D01*
X98099428Y-134011200D02*
X98194666Y-133915961D01*
X98194666Y-133915961D02*
X98242285Y-133820723D01*
X98242285Y-133820723D02*
X98289904Y-133630247D01*
X98289904Y-133630247D02*
X98289904Y-133487390D01*
X98289904Y-133487390D02*
X98242285Y-133296914D01*
X98242285Y-133296914D02*
X98194666Y-133201676D01*
X98194666Y-133201676D02*
X98099428Y-133106438D01*
X98099428Y-133106438D02*
X97956571Y-133058819D01*
X97956571Y-133058819D02*
X97861333Y-133058819D01*
X97861333Y-133058819D02*
X97718476Y-133106438D01*
X97718476Y-133106438D02*
X97670857Y-133154057D01*
X96813714Y-133058819D02*
X97004190Y-133058819D01*
X97004190Y-133058819D02*
X97099428Y-133106438D01*
X97099428Y-133106438D02*
X97147047Y-133154057D01*
X97147047Y-133154057D02*
X97242285Y-133296914D01*
X97242285Y-133296914D02*
X97289904Y-133487390D01*
X97289904Y-133487390D02*
X97289904Y-133868342D01*
X97289904Y-133868342D02*
X97242285Y-133963580D01*
X97242285Y-133963580D02*
X97194666Y-134011200D01*
X97194666Y-134011200D02*
X97099428Y-134058819D01*
X97099428Y-134058819D02*
X96908952Y-134058819D01*
X96908952Y-134058819D02*
X96813714Y-134011200D01*
X96813714Y-134011200D02*
X96766095Y-133963580D01*
X96766095Y-133963580D02*
X96718476Y-133868342D01*
X96718476Y-133868342D02*
X96718476Y-133630247D01*
X96718476Y-133630247D02*
X96766095Y-133535009D01*
X96766095Y-133535009D02*
X96813714Y-133487390D01*
X96813714Y-133487390D02*
X96908952Y-133439771D01*
X96908952Y-133439771D02*
X97099428Y-133439771D01*
X97099428Y-133439771D02*
X97194666Y-133487390D01*
X97194666Y-133487390D02*
X97242285Y-133535009D01*
X97242285Y-133535009D02*
X97289904Y-133630247D01*
X96385142Y-133058819D02*
X95718476Y-133058819D01*
X95718476Y-133058819D02*
X96147047Y-134058819D01*
X148978857Y-64462819D02*
X149312190Y-63986628D01*
X149550285Y-64462819D02*
X149550285Y-63462819D01*
X149550285Y-63462819D02*
X149169333Y-63462819D01*
X149169333Y-63462819D02*
X149074095Y-63510438D01*
X149074095Y-63510438D02*
X149026476Y-63558057D01*
X149026476Y-63558057D02*
X148978857Y-63653295D01*
X148978857Y-63653295D02*
X148978857Y-63796152D01*
X148978857Y-63796152D02*
X149026476Y-63891390D01*
X149026476Y-63891390D02*
X149074095Y-63939009D01*
X149074095Y-63939009D02*
X149169333Y-63986628D01*
X149169333Y-63986628D02*
X149550285Y-63986628D01*
X148597904Y-63558057D02*
X148550285Y-63510438D01*
X148550285Y-63510438D02*
X148455047Y-63462819D01*
X148455047Y-63462819D02*
X148216952Y-63462819D01*
X148216952Y-63462819D02*
X148121714Y-63510438D01*
X148121714Y-63510438D02*
X148074095Y-63558057D01*
X148074095Y-63558057D02*
X148026476Y-63653295D01*
X148026476Y-63653295D02*
X148026476Y-63748533D01*
X148026476Y-63748533D02*
X148074095Y-63891390D01*
X148074095Y-63891390D02*
X148645523Y-64462819D01*
X148645523Y-64462819D02*
X148026476Y-64462819D01*
X147455047Y-63891390D02*
X147550285Y-63843771D01*
X147550285Y-63843771D02*
X147597904Y-63796152D01*
X147597904Y-63796152D02*
X147645523Y-63700914D01*
X147645523Y-63700914D02*
X147645523Y-63653295D01*
X147645523Y-63653295D02*
X147597904Y-63558057D01*
X147597904Y-63558057D02*
X147550285Y-63510438D01*
X147550285Y-63510438D02*
X147455047Y-63462819D01*
X147455047Y-63462819D02*
X147264571Y-63462819D01*
X147264571Y-63462819D02*
X147169333Y-63510438D01*
X147169333Y-63510438D02*
X147121714Y-63558057D01*
X147121714Y-63558057D02*
X147074095Y-63653295D01*
X147074095Y-63653295D02*
X147074095Y-63700914D01*
X147074095Y-63700914D02*
X147121714Y-63796152D01*
X147121714Y-63796152D02*
X147169333Y-63843771D01*
X147169333Y-63843771D02*
X147264571Y-63891390D01*
X147264571Y-63891390D02*
X147455047Y-63891390D01*
X147455047Y-63891390D02*
X147550285Y-63939009D01*
X147550285Y-63939009D02*
X147597904Y-63986628D01*
X147597904Y-63986628D02*
X147645523Y-64081866D01*
X147645523Y-64081866D02*
X147645523Y-64272342D01*
X147645523Y-64272342D02*
X147597904Y-64367580D01*
X147597904Y-64367580D02*
X147550285Y-64415200D01*
X147550285Y-64415200D02*
X147455047Y-64462819D01*
X147455047Y-64462819D02*
X147264571Y-64462819D01*
X147264571Y-64462819D02*
X147169333Y-64415200D01*
X147169333Y-64415200D02*
X147121714Y-64367580D01*
X147121714Y-64367580D02*
X147074095Y-64272342D01*
X147074095Y-64272342D02*
X147074095Y-64081866D01*
X147074095Y-64081866D02*
X147121714Y-63986628D01*
X147121714Y-63986628D02*
X147169333Y-63939009D01*
X147169333Y-63939009D02*
X147264571Y-63891390D01*
X110370857Y-105007580D02*
X110418476Y-105055200D01*
X110418476Y-105055200D02*
X110561333Y-105102819D01*
X110561333Y-105102819D02*
X110656571Y-105102819D01*
X110656571Y-105102819D02*
X110799428Y-105055200D01*
X110799428Y-105055200D02*
X110894666Y-104959961D01*
X110894666Y-104959961D02*
X110942285Y-104864723D01*
X110942285Y-104864723D02*
X110989904Y-104674247D01*
X110989904Y-104674247D02*
X110989904Y-104531390D01*
X110989904Y-104531390D02*
X110942285Y-104340914D01*
X110942285Y-104340914D02*
X110894666Y-104245676D01*
X110894666Y-104245676D02*
X110799428Y-104150438D01*
X110799428Y-104150438D02*
X110656571Y-104102819D01*
X110656571Y-104102819D02*
X110561333Y-104102819D01*
X110561333Y-104102819D02*
X110418476Y-104150438D01*
X110418476Y-104150438D02*
X110370857Y-104198057D01*
X109418476Y-105102819D02*
X109989904Y-105102819D01*
X109704190Y-105102819D02*
X109704190Y-104102819D01*
X109704190Y-104102819D02*
X109799428Y-104245676D01*
X109799428Y-104245676D02*
X109894666Y-104340914D01*
X109894666Y-104340914D02*
X109989904Y-104388533D01*
X108513714Y-104102819D02*
X108989904Y-104102819D01*
X108989904Y-104102819D02*
X109037523Y-104579009D01*
X109037523Y-104579009D02*
X108989904Y-104531390D01*
X108989904Y-104531390D02*
X108894666Y-104483771D01*
X108894666Y-104483771D02*
X108656571Y-104483771D01*
X108656571Y-104483771D02*
X108561333Y-104531390D01*
X108561333Y-104531390D02*
X108513714Y-104579009D01*
X108513714Y-104579009D02*
X108466095Y-104674247D01*
X108466095Y-104674247D02*
X108466095Y-104912342D01*
X108466095Y-104912342D02*
X108513714Y-105007580D01*
X108513714Y-105007580D02*
X108561333Y-105055200D01*
X108561333Y-105055200D02*
X108656571Y-105102819D01*
X108656571Y-105102819D02*
X108894666Y-105102819D01*
X108894666Y-105102819D02*
X108989904Y-105055200D01*
X108989904Y-105055200D02*
X109037523Y-105007580D01*
X99702857Y-135582819D02*
X100036190Y-135106628D01*
X100274285Y-135582819D02*
X100274285Y-134582819D01*
X100274285Y-134582819D02*
X99893333Y-134582819D01*
X99893333Y-134582819D02*
X99798095Y-134630438D01*
X99798095Y-134630438D02*
X99750476Y-134678057D01*
X99750476Y-134678057D02*
X99702857Y-134773295D01*
X99702857Y-134773295D02*
X99702857Y-134916152D01*
X99702857Y-134916152D02*
X99750476Y-135011390D01*
X99750476Y-135011390D02*
X99798095Y-135059009D01*
X99798095Y-135059009D02*
X99893333Y-135106628D01*
X99893333Y-135106628D02*
X100274285Y-135106628D01*
X98845714Y-134916152D02*
X98845714Y-135582819D01*
X99083809Y-134535200D02*
X99321904Y-135249485D01*
X99321904Y-135249485D02*
X98702857Y-135249485D01*
X98417142Y-134582819D02*
X97798095Y-134582819D01*
X97798095Y-134582819D02*
X98131428Y-134963771D01*
X98131428Y-134963771D02*
X97988571Y-134963771D01*
X97988571Y-134963771D02*
X97893333Y-135011390D01*
X97893333Y-135011390D02*
X97845714Y-135059009D01*
X97845714Y-135059009D02*
X97798095Y-135154247D01*
X97798095Y-135154247D02*
X97798095Y-135392342D01*
X97798095Y-135392342D02*
X97845714Y-135487580D01*
X97845714Y-135487580D02*
X97893333Y-135535200D01*
X97893333Y-135535200D02*
X97988571Y-135582819D01*
X97988571Y-135582819D02*
X98274285Y-135582819D01*
X98274285Y-135582819D02*
X98369523Y-135535200D01*
X98369523Y-135535200D02*
X98417142Y-135487580D01*
X88558666Y-134058819D02*
X88891999Y-133582628D01*
X89130094Y-134058819D02*
X89130094Y-133058819D01*
X89130094Y-133058819D02*
X88749142Y-133058819D01*
X88749142Y-133058819D02*
X88653904Y-133106438D01*
X88653904Y-133106438D02*
X88606285Y-133154057D01*
X88606285Y-133154057D02*
X88558666Y-133249295D01*
X88558666Y-133249295D02*
X88558666Y-133392152D01*
X88558666Y-133392152D02*
X88606285Y-133487390D01*
X88606285Y-133487390D02*
X88653904Y-133535009D01*
X88653904Y-133535009D02*
X88749142Y-133582628D01*
X88749142Y-133582628D02*
X89130094Y-133582628D01*
X87701523Y-133392152D02*
X87701523Y-134058819D01*
X87939618Y-133011200D02*
X88177713Y-133725485D01*
X88177713Y-133725485D02*
X87558666Y-133725485D01*
X137294857Y-71574819D02*
X137628190Y-71098628D01*
X137866285Y-71574819D02*
X137866285Y-70574819D01*
X137866285Y-70574819D02*
X137485333Y-70574819D01*
X137485333Y-70574819D02*
X137390095Y-70622438D01*
X137390095Y-70622438D02*
X137342476Y-70670057D01*
X137342476Y-70670057D02*
X137294857Y-70765295D01*
X137294857Y-70765295D02*
X137294857Y-70908152D01*
X137294857Y-70908152D02*
X137342476Y-71003390D01*
X137342476Y-71003390D02*
X137390095Y-71051009D01*
X137390095Y-71051009D02*
X137485333Y-71098628D01*
X137485333Y-71098628D02*
X137866285Y-71098628D01*
X136913904Y-70670057D02*
X136866285Y-70622438D01*
X136866285Y-70622438D02*
X136771047Y-70574819D01*
X136771047Y-70574819D02*
X136532952Y-70574819D01*
X136532952Y-70574819D02*
X136437714Y-70622438D01*
X136437714Y-70622438D02*
X136390095Y-70670057D01*
X136390095Y-70670057D02*
X136342476Y-70765295D01*
X136342476Y-70765295D02*
X136342476Y-70860533D01*
X136342476Y-70860533D02*
X136390095Y-71003390D01*
X136390095Y-71003390D02*
X136961523Y-71574819D01*
X136961523Y-71574819D02*
X136342476Y-71574819D01*
X135437714Y-70574819D02*
X135913904Y-70574819D01*
X135913904Y-70574819D02*
X135961523Y-71051009D01*
X135961523Y-71051009D02*
X135913904Y-71003390D01*
X135913904Y-71003390D02*
X135818666Y-70955771D01*
X135818666Y-70955771D02*
X135580571Y-70955771D01*
X135580571Y-70955771D02*
X135485333Y-71003390D01*
X135485333Y-71003390D02*
X135437714Y-71051009D01*
X135437714Y-71051009D02*
X135390095Y-71146247D01*
X135390095Y-71146247D02*
X135390095Y-71384342D01*
X135390095Y-71384342D02*
X135437714Y-71479580D01*
X135437714Y-71479580D02*
X135485333Y-71527200D01*
X135485333Y-71527200D02*
X135580571Y-71574819D01*
X135580571Y-71574819D02*
X135818666Y-71574819D01*
X135818666Y-71574819D02*
X135913904Y-71527200D01*
X135913904Y-71527200D02*
X135961523Y-71479580D01*
X107322857Y-105007580D02*
X107370476Y-105055200D01*
X107370476Y-105055200D02*
X107513333Y-105102819D01*
X107513333Y-105102819D02*
X107608571Y-105102819D01*
X107608571Y-105102819D02*
X107751428Y-105055200D01*
X107751428Y-105055200D02*
X107846666Y-104959961D01*
X107846666Y-104959961D02*
X107894285Y-104864723D01*
X107894285Y-104864723D02*
X107941904Y-104674247D01*
X107941904Y-104674247D02*
X107941904Y-104531390D01*
X107941904Y-104531390D02*
X107894285Y-104340914D01*
X107894285Y-104340914D02*
X107846666Y-104245676D01*
X107846666Y-104245676D02*
X107751428Y-104150438D01*
X107751428Y-104150438D02*
X107608571Y-104102819D01*
X107608571Y-104102819D02*
X107513333Y-104102819D01*
X107513333Y-104102819D02*
X107370476Y-104150438D01*
X107370476Y-104150438D02*
X107322857Y-104198057D01*
X106941904Y-104198057D02*
X106894285Y-104150438D01*
X106894285Y-104150438D02*
X106799047Y-104102819D01*
X106799047Y-104102819D02*
X106560952Y-104102819D01*
X106560952Y-104102819D02*
X106465714Y-104150438D01*
X106465714Y-104150438D02*
X106418095Y-104198057D01*
X106418095Y-104198057D02*
X106370476Y-104293295D01*
X106370476Y-104293295D02*
X106370476Y-104388533D01*
X106370476Y-104388533D02*
X106418095Y-104531390D01*
X106418095Y-104531390D02*
X106989523Y-105102819D01*
X106989523Y-105102819D02*
X106370476Y-105102819D01*
X105513333Y-104102819D02*
X105703809Y-104102819D01*
X105703809Y-104102819D02*
X105799047Y-104150438D01*
X105799047Y-104150438D02*
X105846666Y-104198057D01*
X105846666Y-104198057D02*
X105941904Y-104340914D01*
X105941904Y-104340914D02*
X105989523Y-104531390D01*
X105989523Y-104531390D02*
X105989523Y-104912342D01*
X105989523Y-104912342D02*
X105941904Y-105007580D01*
X105941904Y-105007580D02*
X105894285Y-105055200D01*
X105894285Y-105055200D02*
X105799047Y-105102819D01*
X105799047Y-105102819D02*
X105608571Y-105102819D01*
X105608571Y-105102819D02*
X105513333Y-105055200D01*
X105513333Y-105055200D02*
X105465714Y-105007580D01*
X105465714Y-105007580D02*
X105418095Y-104912342D01*
X105418095Y-104912342D02*
X105418095Y-104674247D01*
X105418095Y-104674247D02*
X105465714Y-104579009D01*
X105465714Y-104579009D02*
X105513333Y-104531390D01*
X105513333Y-104531390D02*
X105608571Y-104483771D01*
X105608571Y-104483771D02*
X105799047Y-104483771D01*
X105799047Y-104483771D02*
X105894285Y-104531390D01*
X105894285Y-104531390D02*
X105941904Y-104579009D01*
X105941904Y-104579009D02*
X105989523Y-104674247D01*
X145422857Y-77575580D02*
X145470476Y-77623200D01*
X145470476Y-77623200D02*
X145613333Y-77670819D01*
X145613333Y-77670819D02*
X145708571Y-77670819D01*
X145708571Y-77670819D02*
X145851428Y-77623200D01*
X145851428Y-77623200D02*
X145946666Y-77527961D01*
X145946666Y-77527961D02*
X145994285Y-77432723D01*
X145994285Y-77432723D02*
X146041904Y-77242247D01*
X146041904Y-77242247D02*
X146041904Y-77099390D01*
X146041904Y-77099390D02*
X145994285Y-76908914D01*
X145994285Y-76908914D02*
X145946666Y-76813676D01*
X145946666Y-76813676D02*
X145851428Y-76718438D01*
X145851428Y-76718438D02*
X145708571Y-76670819D01*
X145708571Y-76670819D02*
X145613333Y-76670819D01*
X145613333Y-76670819D02*
X145470476Y-76718438D01*
X145470476Y-76718438D02*
X145422857Y-76766057D01*
X144518095Y-76670819D02*
X144994285Y-76670819D01*
X144994285Y-76670819D02*
X145041904Y-77147009D01*
X145041904Y-77147009D02*
X144994285Y-77099390D01*
X144994285Y-77099390D02*
X144899047Y-77051771D01*
X144899047Y-77051771D02*
X144660952Y-77051771D01*
X144660952Y-77051771D02*
X144565714Y-77099390D01*
X144565714Y-77099390D02*
X144518095Y-77147009D01*
X144518095Y-77147009D02*
X144470476Y-77242247D01*
X144470476Y-77242247D02*
X144470476Y-77480342D01*
X144470476Y-77480342D02*
X144518095Y-77575580D01*
X144518095Y-77575580D02*
X144565714Y-77623200D01*
X144565714Y-77623200D02*
X144660952Y-77670819D01*
X144660952Y-77670819D02*
X144899047Y-77670819D01*
X144899047Y-77670819D02*
X144994285Y-77623200D01*
X144994285Y-77623200D02*
X145041904Y-77575580D01*
X143994285Y-77670819D02*
X143803809Y-77670819D01*
X143803809Y-77670819D02*
X143708571Y-77623200D01*
X143708571Y-77623200D02*
X143660952Y-77575580D01*
X143660952Y-77575580D02*
X143565714Y-77432723D01*
X143565714Y-77432723D02*
X143518095Y-77242247D01*
X143518095Y-77242247D02*
X143518095Y-76861295D01*
X143518095Y-76861295D02*
X143565714Y-76766057D01*
X143565714Y-76766057D02*
X143613333Y-76718438D01*
X143613333Y-76718438D02*
X143708571Y-76670819D01*
X143708571Y-76670819D02*
X143899047Y-76670819D01*
X143899047Y-76670819D02*
X143994285Y-76718438D01*
X143994285Y-76718438D02*
X144041904Y-76766057D01*
X144041904Y-76766057D02*
X144089523Y-76861295D01*
X144089523Y-76861295D02*
X144089523Y-77099390D01*
X144089523Y-77099390D02*
X144041904Y-77194628D01*
X144041904Y-77194628D02*
X143994285Y-77242247D01*
X143994285Y-77242247D02*
X143899047Y-77289866D01*
X143899047Y-77289866D02*
X143708571Y-77289866D01*
X143708571Y-77289866D02*
X143613333Y-77242247D01*
X143613333Y-77242247D02*
X143565714Y-77194628D01*
X143565714Y-77194628D02*
X143518095Y-77099390D01*
X110370857Y-100943580D02*
X110418476Y-100991200D01*
X110418476Y-100991200D02*
X110561333Y-101038819D01*
X110561333Y-101038819D02*
X110656571Y-101038819D01*
X110656571Y-101038819D02*
X110799428Y-100991200D01*
X110799428Y-100991200D02*
X110894666Y-100895961D01*
X110894666Y-100895961D02*
X110942285Y-100800723D01*
X110942285Y-100800723D02*
X110989904Y-100610247D01*
X110989904Y-100610247D02*
X110989904Y-100467390D01*
X110989904Y-100467390D02*
X110942285Y-100276914D01*
X110942285Y-100276914D02*
X110894666Y-100181676D01*
X110894666Y-100181676D02*
X110799428Y-100086438D01*
X110799428Y-100086438D02*
X110656571Y-100038819D01*
X110656571Y-100038819D02*
X110561333Y-100038819D01*
X110561333Y-100038819D02*
X110418476Y-100086438D01*
X110418476Y-100086438D02*
X110370857Y-100134057D01*
X109418476Y-101038819D02*
X109989904Y-101038819D01*
X109704190Y-101038819D02*
X109704190Y-100038819D01*
X109704190Y-100038819D02*
X109799428Y-100181676D01*
X109799428Y-100181676D02*
X109894666Y-100276914D01*
X109894666Y-100276914D02*
X109989904Y-100324533D01*
X108466095Y-101038819D02*
X109037523Y-101038819D01*
X108751809Y-101038819D02*
X108751809Y-100038819D01*
X108751809Y-100038819D02*
X108847047Y-100181676D01*
X108847047Y-100181676D02*
X108942285Y-100276914D01*
X108942285Y-100276914D02*
X109037523Y-100324533D01*
X133738857Y-100943580D02*
X133786476Y-100991200D01*
X133786476Y-100991200D02*
X133929333Y-101038819D01*
X133929333Y-101038819D02*
X134024571Y-101038819D01*
X134024571Y-101038819D02*
X134167428Y-100991200D01*
X134167428Y-100991200D02*
X134262666Y-100895961D01*
X134262666Y-100895961D02*
X134310285Y-100800723D01*
X134310285Y-100800723D02*
X134357904Y-100610247D01*
X134357904Y-100610247D02*
X134357904Y-100467390D01*
X134357904Y-100467390D02*
X134310285Y-100276914D01*
X134310285Y-100276914D02*
X134262666Y-100181676D01*
X134262666Y-100181676D02*
X134167428Y-100086438D01*
X134167428Y-100086438D02*
X134024571Y-100038819D01*
X134024571Y-100038819D02*
X133929333Y-100038819D01*
X133929333Y-100038819D02*
X133786476Y-100086438D01*
X133786476Y-100086438D02*
X133738857Y-100134057D01*
X133357904Y-100134057D02*
X133310285Y-100086438D01*
X133310285Y-100086438D02*
X133215047Y-100038819D01*
X133215047Y-100038819D02*
X132976952Y-100038819D01*
X132976952Y-100038819D02*
X132881714Y-100086438D01*
X132881714Y-100086438D02*
X132834095Y-100134057D01*
X132834095Y-100134057D02*
X132786476Y-100229295D01*
X132786476Y-100229295D02*
X132786476Y-100324533D01*
X132786476Y-100324533D02*
X132834095Y-100467390D01*
X132834095Y-100467390D02*
X133405523Y-101038819D01*
X133405523Y-101038819D02*
X132786476Y-101038819D01*
X132405523Y-100134057D02*
X132357904Y-100086438D01*
X132357904Y-100086438D02*
X132262666Y-100038819D01*
X132262666Y-100038819D02*
X132024571Y-100038819D01*
X132024571Y-100038819D02*
X131929333Y-100086438D01*
X131929333Y-100086438D02*
X131881714Y-100134057D01*
X131881714Y-100134057D02*
X131834095Y-100229295D01*
X131834095Y-100229295D02*
X131834095Y-100324533D01*
X131834095Y-100324533D02*
X131881714Y-100467390D01*
X131881714Y-100467390D02*
X132453142Y-101038819D01*
X132453142Y-101038819D02*
X131834095Y-101038819D01*
X154566857Y-93323580D02*
X154614476Y-93371200D01*
X154614476Y-93371200D02*
X154757333Y-93418819D01*
X154757333Y-93418819D02*
X154852571Y-93418819D01*
X154852571Y-93418819D02*
X154995428Y-93371200D01*
X154995428Y-93371200D02*
X155090666Y-93275961D01*
X155090666Y-93275961D02*
X155138285Y-93180723D01*
X155138285Y-93180723D02*
X155185904Y-92990247D01*
X155185904Y-92990247D02*
X155185904Y-92847390D01*
X155185904Y-92847390D02*
X155138285Y-92656914D01*
X155138285Y-92656914D02*
X155090666Y-92561676D01*
X155090666Y-92561676D02*
X154995428Y-92466438D01*
X154995428Y-92466438D02*
X154852571Y-92418819D01*
X154852571Y-92418819D02*
X154757333Y-92418819D01*
X154757333Y-92418819D02*
X154614476Y-92466438D01*
X154614476Y-92466438D02*
X154566857Y-92514057D01*
X153709714Y-92418819D02*
X153900190Y-92418819D01*
X153900190Y-92418819D02*
X153995428Y-92466438D01*
X153995428Y-92466438D02*
X154043047Y-92514057D01*
X154043047Y-92514057D02*
X154138285Y-92656914D01*
X154138285Y-92656914D02*
X154185904Y-92847390D01*
X154185904Y-92847390D02*
X154185904Y-93228342D01*
X154185904Y-93228342D02*
X154138285Y-93323580D01*
X154138285Y-93323580D02*
X154090666Y-93371200D01*
X154090666Y-93371200D02*
X153995428Y-93418819D01*
X153995428Y-93418819D02*
X153804952Y-93418819D01*
X153804952Y-93418819D02*
X153709714Y-93371200D01*
X153709714Y-93371200D02*
X153662095Y-93323580D01*
X153662095Y-93323580D02*
X153614476Y-93228342D01*
X153614476Y-93228342D02*
X153614476Y-92990247D01*
X153614476Y-92990247D02*
X153662095Y-92895009D01*
X153662095Y-92895009D02*
X153709714Y-92847390D01*
X153709714Y-92847390D02*
X153804952Y-92799771D01*
X153804952Y-92799771D02*
X153995428Y-92799771D01*
X153995428Y-92799771D02*
X154090666Y-92847390D01*
X154090666Y-92847390D02*
X154138285Y-92895009D01*
X154138285Y-92895009D02*
X154185904Y-92990247D01*
X152709714Y-92418819D02*
X153185904Y-92418819D01*
X153185904Y-92418819D02*
X153233523Y-92895009D01*
X153233523Y-92895009D02*
X153185904Y-92847390D01*
X153185904Y-92847390D02*
X153090666Y-92799771D01*
X153090666Y-92799771D02*
X152852571Y-92799771D01*
X152852571Y-92799771D02*
X152757333Y-92847390D01*
X152757333Y-92847390D02*
X152709714Y-92895009D01*
X152709714Y-92895009D02*
X152662095Y-92990247D01*
X152662095Y-92990247D02*
X152662095Y-93228342D01*
X152662095Y-93228342D02*
X152709714Y-93323580D01*
X152709714Y-93323580D02*
X152757333Y-93371200D01*
X152757333Y-93371200D02*
X152852571Y-93418819D01*
X152852571Y-93418819D02*
X153090666Y-93418819D01*
X153090666Y-93418819D02*
X153185904Y-93371200D01*
X153185904Y-93371200D02*
X153233523Y-93323580D01*
X146946857Y-66494819D02*
X147280190Y-66018628D01*
X147518285Y-66494819D02*
X147518285Y-65494819D01*
X147518285Y-65494819D02*
X147137333Y-65494819D01*
X147137333Y-65494819D02*
X147042095Y-65542438D01*
X147042095Y-65542438D02*
X146994476Y-65590057D01*
X146994476Y-65590057D02*
X146946857Y-65685295D01*
X146946857Y-65685295D02*
X146946857Y-65828152D01*
X146946857Y-65828152D02*
X146994476Y-65923390D01*
X146994476Y-65923390D02*
X147042095Y-65971009D01*
X147042095Y-65971009D02*
X147137333Y-66018628D01*
X147137333Y-66018628D02*
X147518285Y-66018628D01*
X146613523Y-65494819D02*
X145994476Y-65494819D01*
X145994476Y-65494819D02*
X146327809Y-65875771D01*
X146327809Y-65875771D02*
X146184952Y-65875771D01*
X146184952Y-65875771D02*
X146089714Y-65923390D01*
X146089714Y-65923390D02*
X146042095Y-65971009D01*
X146042095Y-65971009D02*
X145994476Y-66066247D01*
X145994476Y-66066247D02*
X145994476Y-66304342D01*
X145994476Y-66304342D02*
X146042095Y-66399580D01*
X146042095Y-66399580D02*
X146089714Y-66447200D01*
X146089714Y-66447200D02*
X146184952Y-66494819D01*
X146184952Y-66494819D02*
X146470666Y-66494819D01*
X146470666Y-66494819D02*
X146565904Y-66447200D01*
X146565904Y-66447200D02*
X146613523Y-66399580D01*
X145661142Y-65494819D02*
X145042095Y-65494819D01*
X145042095Y-65494819D02*
X145375428Y-65875771D01*
X145375428Y-65875771D02*
X145232571Y-65875771D01*
X145232571Y-65875771D02*
X145137333Y-65923390D01*
X145137333Y-65923390D02*
X145089714Y-65971009D01*
X145089714Y-65971009D02*
X145042095Y-66066247D01*
X145042095Y-66066247D02*
X145042095Y-66304342D01*
X145042095Y-66304342D02*
X145089714Y-66399580D01*
X145089714Y-66399580D02*
X145137333Y-66447200D01*
X145137333Y-66447200D02*
X145232571Y-66494819D01*
X145232571Y-66494819D02*
X145518285Y-66494819D01*
X145518285Y-66494819D02*
X145613523Y-66447200D01*
X145613523Y-66447200D02*
X145661142Y-66399580D01*
X125102857Y-58271580D02*
X125150476Y-58319200D01*
X125150476Y-58319200D02*
X125293333Y-58366819D01*
X125293333Y-58366819D02*
X125388571Y-58366819D01*
X125388571Y-58366819D02*
X125531428Y-58319200D01*
X125531428Y-58319200D02*
X125626666Y-58223961D01*
X125626666Y-58223961D02*
X125674285Y-58128723D01*
X125674285Y-58128723D02*
X125721904Y-57938247D01*
X125721904Y-57938247D02*
X125721904Y-57795390D01*
X125721904Y-57795390D02*
X125674285Y-57604914D01*
X125674285Y-57604914D02*
X125626666Y-57509676D01*
X125626666Y-57509676D02*
X125531428Y-57414438D01*
X125531428Y-57414438D02*
X125388571Y-57366819D01*
X125388571Y-57366819D02*
X125293333Y-57366819D01*
X125293333Y-57366819D02*
X125150476Y-57414438D01*
X125150476Y-57414438D02*
X125102857Y-57462057D01*
X124245714Y-57366819D02*
X124436190Y-57366819D01*
X124436190Y-57366819D02*
X124531428Y-57414438D01*
X124531428Y-57414438D02*
X124579047Y-57462057D01*
X124579047Y-57462057D02*
X124674285Y-57604914D01*
X124674285Y-57604914D02*
X124721904Y-57795390D01*
X124721904Y-57795390D02*
X124721904Y-58176342D01*
X124721904Y-58176342D02*
X124674285Y-58271580D01*
X124674285Y-58271580D02*
X124626666Y-58319200D01*
X124626666Y-58319200D02*
X124531428Y-58366819D01*
X124531428Y-58366819D02*
X124340952Y-58366819D01*
X124340952Y-58366819D02*
X124245714Y-58319200D01*
X124245714Y-58319200D02*
X124198095Y-58271580D01*
X124198095Y-58271580D02*
X124150476Y-58176342D01*
X124150476Y-58176342D02*
X124150476Y-57938247D01*
X124150476Y-57938247D02*
X124198095Y-57843009D01*
X124198095Y-57843009D02*
X124245714Y-57795390D01*
X124245714Y-57795390D02*
X124340952Y-57747771D01*
X124340952Y-57747771D02*
X124531428Y-57747771D01*
X124531428Y-57747771D02*
X124626666Y-57795390D01*
X124626666Y-57795390D02*
X124674285Y-57843009D01*
X124674285Y-57843009D02*
X124721904Y-57938247D01*
X123293333Y-57366819D02*
X123483809Y-57366819D01*
X123483809Y-57366819D02*
X123579047Y-57414438D01*
X123579047Y-57414438D02*
X123626666Y-57462057D01*
X123626666Y-57462057D02*
X123721904Y-57604914D01*
X123721904Y-57604914D02*
X123769523Y-57795390D01*
X123769523Y-57795390D02*
X123769523Y-58176342D01*
X123769523Y-58176342D02*
X123721904Y-58271580D01*
X123721904Y-58271580D02*
X123674285Y-58319200D01*
X123674285Y-58319200D02*
X123579047Y-58366819D01*
X123579047Y-58366819D02*
X123388571Y-58366819D01*
X123388571Y-58366819D02*
X123293333Y-58319200D01*
X123293333Y-58319200D02*
X123245714Y-58271580D01*
X123245714Y-58271580D02*
X123198095Y-58176342D01*
X123198095Y-58176342D02*
X123198095Y-57938247D01*
X123198095Y-57938247D02*
X123245714Y-57843009D01*
X123245714Y-57843009D02*
X123293333Y-57795390D01*
X123293333Y-57795390D02*
X123388571Y-57747771D01*
X123388571Y-57747771D02*
X123579047Y-57747771D01*
X123579047Y-57747771D02*
X123674285Y-57795390D01*
X123674285Y-57795390D02*
X123721904Y-57843009D01*
X123721904Y-57843009D02*
X123769523Y-57938247D01*
X136310666Y-92815580D02*
X136358285Y-92863200D01*
X136358285Y-92863200D02*
X136501142Y-92910819D01*
X136501142Y-92910819D02*
X136596380Y-92910819D01*
X136596380Y-92910819D02*
X136739237Y-92863200D01*
X136739237Y-92863200D02*
X136834475Y-92767961D01*
X136834475Y-92767961D02*
X136882094Y-92672723D01*
X136882094Y-92672723D02*
X136929713Y-92482247D01*
X136929713Y-92482247D02*
X136929713Y-92339390D01*
X136929713Y-92339390D02*
X136882094Y-92148914D01*
X136882094Y-92148914D02*
X136834475Y-92053676D01*
X136834475Y-92053676D02*
X136739237Y-91958438D01*
X136739237Y-91958438D02*
X136596380Y-91910819D01*
X136596380Y-91910819D02*
X136501142Y-91910819D01*
X136501142Y-91910819D02*
X136358285Y-91958438D01*
X136358285Y-91958438D02*
X136310666Y-92006057D01*
X135453523Y-92244152D02*
X135453523Y-92910819D01*
X135691618Y-91863200D02*
X135929713Y-92577485D01*
X135929713Y-92577485D02*
X135310666Y-92577485D01*
X103004857Y-91386819D02*
X103338190Y-90910628D01*
X103576285Y-91386819D02*
X103576285Y-90386819D01*
X103576285Y-90386819D02*
X103195333Y-90386819D01*
X103195333Y-90386819D02*
X103100095Y-90434438D01*
X103100095Y-90434438D02*
X103052476Y-90482057D01*
X103052476Y-90482057D02*
X103004857Y-90577295D01*
X103004857Y-90577295D02*
X103004857Y-90720152D01*
X103004857Y-90720152D02*
X103052476Y-90815390D01*
X103052476Y-90815390D02*
X103100095Y-90863009D01*
X103100095Y-90863009D02*
X103195333Y-90910628D01*
X103195333Y-90910628D02*
X103576285Y-90910628D01*
X102671523Y-90386819D02*
X102052476Y-90386819D01*
X102052476Y-90386819D02*
X102385809Y-90767771D01*
X102385809Y-90767771D02*
X102242952Y-90767771D01*
X102242952Y-90767771D02*
X102147714Y-90815390D01*
X102147714Y-90815390D02*
X102100095Y-90863009D01*
X102100095Y-90863009D02*
X102052476Y-90958247D01*
X102052476Y-90958247D02*
X102052476Y-91196342D01*
X102052476Y-91196342D02*
X102100095Y-91291580D01*
X102100095Y-91291580D02*
X102147714Y-91339200D01*
X102147714Y-91339200D02*
X102242952Y-91386819D01*
X102242952Y-91386819D02*
X102528666Y-91386819D01*
X102528666Y-91386819D02*
X102623904Y-91339200D01*
X102623904Y-91339200D02*
X102671523Y-91291580D01*
X101195333Y-90386819D02*
X101385809Y-90386819D01*
X101385809Y-90386819D02*
X101481047Y-90434438D01*
X101481047Y-90434438D02*
X101528666Y-90482057D01*
X101528666Y-90482057D02*
X101623904Y-90624914D01*
X101623904Y-90624914D02*
X101671523Y-90815390D01*
X101671523Y-90815390D02*
X101671523Y-91196342D01*
X101671523Y-91196342D02*
X101623904Y-91291580D01*
X101623904Y-91291580D02*
X101576285Y-91339200D01*
X101576285Y-91339200D02*
X101481047Y-91386819D01*
X101481047Y-91386819D02*
X101290571Y-91386819D01*
X101290571Y-91386819D02*
X101195333Y-91339200D01*
X101195333Y-91339200D02*
X101147714Y-91291580D01*
X101147714Y-91291580D02*
X101100095Y-91196342D01*
X101100095Y-91196342D02*
X101100095Y-90958247D01*
X101100095Y-90958247D02*
X101147714Y-90863009D01*
X101147714Y-90863009D02*
X101195333Y-90815390D01*
X101195333Y-90815390D02*
X101290571Y-90767771D01*
X101290571Y-90767771D02*
X101481047Y-90767771D01*
X101481047Y-90767771D02*
X101576285Y-90815390D01*
X101576285Y-90815390D02*
X101623904Y-90863009D01*
X101623904Y-90863009D02*
X101671523Y-90958247D01*
X101734857Y-134058819D02*
X102068190Y-133582628D01*
X102306285Y-134058819D02*
X102306285Y-133058819D01*
X102306285Y-133058819D02*
X101925333Y-133058819D01*
X101925333Y-133058819D02*
X101830095Y-133106438D01*
X101830095Y-133106438D02*
X101782476Y-133154057D01*
X101782476Y-133154057D02*
X101734857Y-133249295D01*
X101734857Y-133249295D02*
X101734857Y-133392152D01*
X101734857Y-133392152D02*
X101782476Y-133487390D01*
X101782476Y-133487390D02*
X101830095Y-133535009D01*
X101830095Y-133535009D02*
X101925333Y-133582628D01*
X101925333Y-133582628D02*
X102306285Y-133582628D01*
X100877714Y-133392152D02*
X100877714Y-134058819D01*
X101115809Y-133011200D02*
X101353904Y-133725485D01*
X101353904Y-133725485D02*
X100734857Y-133725485D01*
X100401523Y-133154057D02*
X100353904Y-133106438D01*
X100353904Y-133106438D02*
X100258666Y-133058819D01*
X100258666Y-133058819D02*
X100020571Y-133058819D01*
X100020571Y-133058819D02*
X99925333Y-133106438D01*
X99925333Y-133106438D02*
X99877714Y-133154057D01*
X99877714Y-133154057D02*
X99830095Y-133249295D01*
X99830095Y-133249295D02*
X99830095Y-133344533D01*
X99830095Y-133344533D02*
X99877714Y-133487390D01*
X99877714Y-133487390D02*
X100449142Y-134058819D01*
X100449142Y-134058819D02*
X99830095Y-134058819D01*
X133738857Y-92815580D02*
X133786476Y-92863200D01*
X133786476Y-92863200D02*
X133929333Y-92910819D01*
X133929333Y-92910819D02*
X134024571Y-92910819D01*
X134024571Y-92910819D02*
X134167428Y-92863200D01*
X134167428Y-92863200D02*
X134262666Y-92767961D01*
X134262666Y-92767961D02*
X134310285Y-92672723D01*
X134310285Y-92672723D02*
X134357904Y-92482247D01*
X134357904Y-92482247D02*
X134357904Y-92339390D01*
X134357904Y-92339390D02*
X134310285Y-92148914D01*
X134310285Y-92148914D02*
X134262666Y-92053676D01*
X134262666Y-92053676D02*
X134167428Y-91958438D01*
X134167428Y-91958438D02*
X134024571Y-91910819D01*
X134024571Y-91910819D02*
X133929333Y-91910819D01*
X133929333Y-91910819D02*
X133786476Y-91958438D01*
X133786476Y-91958438D02*
X133738857Y-92006057D01*
X132881714Y-92244152D02*
X132881714Y-92910819D01*
X133119809Y-91863200D02*
X133357904Y-92577485D01*
X133357904Y-92577485D02*
X132738857Y-92577485D01*
X132310285Y-92910819D02*
X132119809Y-92910819D01*
X132119809Y-92910819D02*
X132024571Y-92863200D01*
X132024571Y-92863200D02*
X131976952Y-92815580D01*
X131976952Y-92815580D02*
X131881714Y-92672723D01*
X131881714Y-92672723D02*
X131834095Y-92482247D01*
X131834095Y-92482247D02*
X131834095Y-92101295D01*
X131834095Y-92101295D02*
X131881714Y-92006057D01*
X131881714Y-92006057D02*
X131929333Y-91958438D01*
X131929333Y-91958438D02*
X132024571Y-91910819D01*
X132024571Y-91910819D02*
X132215047Y-91910819D01*
X132215047Y-91910819D02*
X132310285Y-91958438D01*
X132310285Y-91958438D02*
X132357904Y-92006057D01*
X132357904Y-92006057D02*
X132405523Y-92101295D01*
X132405523Y-92101295D02*
X132405523Y-92339390D01*
X132405523Y-92339390D02*
X132357904Y-92434628D01*
X132357904Y-92434628D02*
X132310285Y-92482247D01*
X132310285Y-92482247D02*
X132215047Y-92529866D01*
X132215047Y-92529866D02*
X132024571Y-92529866D01*
X132024571Y-92529866D02*
X131929333Y-92482247D01*
X131929333Y-92482247D02*
X131881714Y-92434628D01*
X131881714Y-92434628D02*
X131834095Y-92339390D01*
X103512857Y-88751580D02*
X103560476Y-88799200D01*
X103560476Y-88799200D02*
X103703333Y-88846819D01*
X103703333Y-88846819D02*
X103798571Y-88846819D01*
X103798571Y-88846819D02*
X103941428Y-88799200D01*
X103941428Y-88799200D02*
X104036666Y-88703961D01*
X104036666Y-88703961D02*
X104084285Y-88608723D01*
X104084285Y-88608723D02*
X104131904Y-88418247D01*
X104131904Y-88418247D02*
X104131904Y-88275390D01*
X104131904Y-88275390D02*
X104084285Y-88084914D01*
X104084285Y-88084914D02*
X104036666Y-87989676D01*
X104036666Y-87989676D02*
X103941428Y-87894438D01*
X103941428Y-87894438D02*
X103798571Y-87846819D01*
X103798571Y-87846819D02*
X103703333Y-87846819D01*
X103703333Y-87846819D02*
X103560476Y-87894438D01*
X103560476Y-87894438D02*
X103512857Y-87942057D01*
X103131904Y-87942057D02*
X103084285Y-87894438D01*
X103084285Y-87894438D02*
X102989047Y-87846819D01*
X102989047Y-87846819D02*
X102750952Y-87846819D01*
X102750952Y-87846819D02*
X102655714Y-87894438D01*
X102655714Y-87894438D02*
X102608095Y-87942057D01*
X102608095Y-87942057D02*
X102560476Y-88037295D01*
X102560476Y-88037295D02*
X102560476Y-88132533D01*
X102560476Y-88132533D02*
X102608095Y-88275390D01*
X102608095Y-88275390D02*
X103179523Y-88846819D01*
X103179523Y-88846819D02*
X102560476Y-88846819D01*
X101989047Y-88275390D02*
X102084285Y-88227771D01*
X102084285Y-88227771D02*
X102131904Y-88180152D01*
X102131904Y-88180152D02*
X102179523Y-88084914D01*
X102179523Y-88084914D02*
X102179523Y-88037295D01*
X102179523Y-88037295D02*
X102131904Y-87942057D01*
X102131904Y-87942057D02*
X102084285Y-87894438D01*
X102084285Y-87894438D02*
X101989047Y-87846819D01*
X101989047Y-87846819D02*
X101798571Y-87846819D01*
X101798571Y-87846819D02*
X101703333Y-87894438D01*
X101703333Y-87894438D02*
X101655714Y-87942057D01*
X101655714Y-87942057D02*
X101608095Y-88037295D01*
X101608095Y-88037295D02*
X101608095Y-88084914D01*
X101608095Y-88084914D02*
X101655714Y-88180152D01*
X101655714Y-88180152D02*
X101703333Y-88227771D01*
X101703333Y-88227771D02*
X101798571Y-88275390D01*
X101798571Y-88275390D02*
X101989047Y-88275390D01*
X101989047Y-88275390D02*
X102084285Y-88323009D01*
X102084285Y-88323009D02*
X102131904Y-88370628D01*
X102131904Y-88370628D02*
X102179523Y-88465866D01*
X102179523Y-88465866D02*
X102179523Y-88656342D01*
X102179523Y-88656342D02*
X102131904Y-88751580D01*
X102131904Y-88751580D02*
X102084285Y-88799200D01*
X102084285Y-88799200D02*
X101989047Y-88846819D01*
X101989047Y-88846819D02*
X101798571Y-88846819D01*
X101798571Y-88846819D02*
X101703333Y-88799200D01*
X101703333Y-88799200D02*
X101655714Y-88751580D01*
X101655714Y-88751580D02*
X101608095Y-88656342D01*
X101608095Y-88656342D02*
X101608095Y-88465866D01*
X101608095Y-88465866D02*
X101655714Y-88370628D01*
X101655714Y-88370628D02*
X101703333Y-88323009D01*
X101703333Y-88323009D02*
X101798571Y-88275390D01*
X93098857Y-133963580D02*
X93146476Y-134011200D01*
X93146476Y-134011200D02*
X93289333Y-134058819D01*
X93289333Y-134058819D02*
X93384571Y-134058819D01*
X93384571Y-134058819D02*
X93527428Y-134011200D01*
X93527428Y-134011200D02*
X93622666Y-133915961D01*
X93622666Y-133915961D02*
X93670285Y-133820723D01*
X93670285Y-133820723D02*
X93717904Y-133630247D01*
X93717904Y-133630247D02*
X93717904Y-133487390D01*
X93717904Y-133487390D02*
X93670285Y-133296914D01*
X93670285Y-133296914D02*
X93622666Y-133201676D01*
X93622666Y-133201676D02*
X93527428Y-133106438D01*
X93527428Y-133106438D02*
X93384571Y-133058819D01*
X93384571Y-133058819D02*
X93289333Y-133058819D01*
X93289333Y-133058819D02*
X93146476Y-133106438D01*
X93146476Y-133106438D02*
X93098857Y-133154057D01*
X92765523Y-133058819D02*
X92146476Y-133058819D01*
X92146476Y-133058819D02*
X92479809Y-133439771D01*
X92479809Y-133439771D02*
X92336952Y-133439771D01*
X92336952Y-133439771D02*
X92241714Y-133487390D01*
X92241714Y-133487390D02*
X92194095Y-133535009D01*
X92194095Y-133535009D02*
X92146476Y-133630247D01*
X92146476Y-133630247D02*
X92146476Y-133868342D01*
X92146476Y-133868342D02*
X92194095Y-133963580D01*
X92194095Y-133963580D02*
X92241714Y-134011200D01*
X92241714Y-134011200D02*
X92336952Y-134058819D01*
X92336952Y-134058819D02*
X92622666Y-134058819D01*
X92622666Y-134058819D02*
X92717904Y-134011200D01*
X92717904Y-134011200D02*
X92765523Y-133963580D01*
X91194095Y-134058819D02*
X91765523Y-134058819D01*
X91479809Y-134058819D02*
X91479809Y-133058819D01*
X91479809Y-133058819D02*
X91575047Y-133201676D01*
X91575047Y-133201676D02*
X91670285Y-133296914D01*
X91670285Y-133296914D02*
X91765523Y-133344533D01*
X151518857Y-76559580D02*
X151566476Y-76607200D01*
X151566476Y-76607200D02*
X151709333Y-76654819D01*
X151709333Y-76654819D02*
X151804571Y-76654819D01*
X151804571Y-76654819D02*
X151947428Y-76607200D01*
X151947428Y-76607200D02*
X152042666Y-76511961D01*
X152042666Y-76511961D02*
X152090285Y-76416723D01*
X152090285Y-76416723D02*
X152137904Y-76226247D01*
X152137904Y-76226247D02*
X152137904Y-76083390D01*
X152137904Y-76083390D02*
X152090285Y-75892914D01*
X152090285Y-75892914D02*
X152042666Y-75797676D01*
X152042666Y-75797676D02*
X151947428Y-75702438D01*
X151947428Y-75702438D02*
X151804571Y-75654819D01*
X151804571Y-75654819D02*
X151709333Y-75654819D01*
X151709333Y-75654819D02*
X151566476Y-75702438D01*
X151566476Y-75702438D02*
X151518857Y-75750057D01*
X150614095Y-75654819D02*
X151090285Y-75654819D01*
X151090285Y-75654819D02*
X151137904Y-76131009D01*
X151137904Y-76131009D02*
X151090285Y-76083390D01*
X151090285Y-76083390D02*
X150995047Y-76035771D01*
X150995047Y-76035771D02*
X150756952Y-76035771D01*
X150756952Y-76035771D02*
X150661714Y-76083390D01*
X150661714Y-76083390D02*
X150614095Y-76131009D01*
X150614095Y-76131009D02*
X150566476Y-76226247D01*
X150566476Y-76226247D02*
X150566476Y-76464342D01*
X150566476Y-76464342D02*
X150614095Y-76559580D01*
X150614095Y-76559580D02*
X150661714Y-76607200D01*
X150661714Y-76607200D02*
X150756952Y-76654819D01*
X150756952Y-76654819D02*
X150995047Y-76654819D01*
X150995047Y-76654819D02*
X151090285Y-76607200D01*
X151090285Y-76607200D02*
X151137904Y-76559580D01*
X150233142Y-75654819D02*
X149566476Y-75654819D01*
X149566476Y-75654819D02*
X149995047Y-76654819D01*
X142120857Y-96625580D02*
X142168476Y-96673200D01*
X142168476Y-96673200D02*
X142311333Y-96720819D01*
X142311333Y-96720819D02*
X142406571Y-96720819D01*
X142406571Y-96720819D02*
X142549428Y-96673200D01*
X142549428Y-96673200D02*
X142644666Y-96577961D01*
X142644666Y-96577961D02*
X142692285Y-96482723D01*
X142692285Y-96482723D02*
X142739904Y-96292247D01*
X142739904Y-96292247D02*
X142739904Y-96149390D01*
X142739904Y-96149390D02*
X142692285Y-95958914D01*
X142692285Y-95958914D02*
X142644666Y-95863676D01*
X142644666Y-95863676D02*
X142549428Y-95768438D01*
X142549428Y-95768438D02*
X142406571Y-95720819D01*
X142406571Y-95720819D02*
X142311333Y-95720819D01*
X142311333Y-95720819D02*
X142168476Y-95768438D01*
X142168476Y-95768438D02*
X142120857Y-95816057D01*
X141216095Y-95720819D02*
X141692285Y-95720819D01*
X141692285Y-95720819D02*
X141739904Y-96197009D01*
X141739904Y-96197009D02*
X141692285Y-96149390D01*
X141692285Y-96149390D02*
X141597047Y-96101771D01*
X141597047Y-96101771D02*
X141358952Y-96101771D01*
X141358952Y-96101771D02*
X141263714Y-96149390D01*
X141263714Y-96149390D02*
X141216095Y-96197009D01*
X141216095Y-96197009D02*
X141168476Y-96292247D01*
X141168476Y-96292247D02*
X141168476Y-96530342D01*
X141168476Y-96530342D02*
X141216095Y-96625580D01*
X141216095Y-96625580D02*
X141263714Y-96673200D01*
X141263714Y-96673200D02*
X141358952Y-96720819D01*
X141358952Y-96720819D02*
X141597047Y-96720819D01*
X141597047Y-96720819D02*
X141692285Y-96673200D01*
X141692285Y-96673200D02*
X141739904Y-96625580D01*
X140216095Y-96720819D02*
X140787523Y-96720819D01*
X140501809Y-96720819D02*
X140501809Y-95720819D01*
X140501809Y-95720819D02*
X140597047Y-95863676D01*
X140597047Y-95863676D02*
X140692285Y-95958914D01*
X140692285Y-95958914D02*
X140787523Y-96006533D01*
X107322857Y-102975580D02*
X107370476Y-103023200D01*
X107370476Y-103023200D02*
X107513333Y-103070819D01*
X107513333Y-103070819D02*
X107608571Y-103070819D01*
X107608571Y-103070819D02*
X107751428Y-103023200D01*
X107751428Y-103023200D02*
X107846666Y-102927961D01*
X107846666Y-102927961D02*
X107894285Y-102832723D01*
X107894285Y-102832723D02*
X107941904Y-102642247D01*
X107941904Y-102642247D02*
X107941904Y-102499390D01*
X107941904Y-102499390D02*
X107894285Y-102308914D01*
X107894285Y-102308914D02*
X107846666Y-102213676D01*
X107846666Y-102213676D02*
X107751428Y-102118438D01*
X107751428Y-102118438D02*
X107608571Y-102070819D01*
X107608571Y-102070819D02*
X107513333Y-102070819D01*
X107513333Y-102070819D02*
X107370476Y-102118438D01*
X107370476Y-102118438D02*
X107322857Y-102166057D01*
X106941904Y-102166057D02*
X106894285Y-102118438D01*
X106894285Y-102118438D02*
X106799047Y-102070819D01*
X106799047Y-102070819D02*
X106560952Y-102070819D01*
X106560952Y-102070819D02*
X106465714Y-102118438D01*
X106465714Y-102118438D02*
X106418095Y-102166057D01*
X106418095Y-102166057D02*
X106370476Y-102261295D01*
X106370476Y-102261295D02*
X106370476Y-102356533D01*
X106370476Y-102356533D02*
X106418095Y-102499390D01*
X106418095Y-102499390D02*
X106989523Y-103070819D01*
X106989523Y-103070819D02*
X106370476Y-103070819D01*
X106037142Y-102070819D02*
X105370476Y-102070819D01*
X105370476Y-102070819D02*
X105799047Y-103070819D01*
X126626857Y-83163580D02*
X126674476Y-83211200D01*
X126674476Y-83211200D02*
X126817333Y-83258819D01*
X126817333Y-83258819D02*
X126912571Y-83258819D01*
X126912571Y-83258819D02*
X127055428Y-83211200D01*
X127055428Y-83211200D02*
X127150666Y-83115961D01*
X127150666Y-83115961D02*
X127198285Y-83020723D01*
X127198285Y-83020723D02*
X127245904Y-82830247D01*
X127245904Y-82830247D02*
X127245904Y-82687390D01*
X127245904Y-82687390D02*
X127198285Y-82496914D01*
X127198285Y-82496914D02*
X127150666Y-82401676D01*
X127150666Y-82401676D02*
X127055428Y-82306438D01*
X127055428Y-82306438D02*
X126912571Y-82258819D01*
X126912571Y-82258819D02*
X126817333Y-82258819D01*
X126817333Y-82258819D02*
X126674476Y-82306438D01*
X126674476Y-82306438D02*
X126626857Y-82354057D01*
X126293523Y-82258819D02*
X125674476Y-82258819D01*
X125674476Y-82258819D02*
X126007809Y-82639771D01*
X126007809Y-82639771D02*
X125864952Y-82639771D01*
X125864952Y-82639771D02*
X125769714Y-82687390D01*
X125769714Y-82687390D02*
X125722095Y-82735009D01*
X125722095Y-82735009D02*
X125674476Y-82830247D01*
X125674476Y-82830247D02*
X125674476Y-83068342D01*
X125674476Y-83068342D02*
X125722095Y-83163580D01*
X125722095Y-83163580D02*
X125769714Y-83211200D01*
X125769714Y-83211200D02*
X125864952Y-83258819D01*
X125864952Y-83258819D02*
X126150666Y-83258819D01*
X126150666Y-83258819D02*
X126245904Y-83211200D01*
X126245904Y-83211200D02*
X126293523Y-83163580D01*
X125341142Y-82258819D02*
X124722095Y-82258819D01*
X124722095Y-82258819D02*
X125055428Y-82639771D01*
X125055428Y-82639771D02*
X124912571Y-82639771D01*
X124912571Y-82639771D02*
X124817333Y-82687390D01*
X124817333Y-82687390D02*
X124769714Y-82735009D01*
X124769714Y-82735009D02*
X124722095Y-82830247D01*
X124722095Y-82830247D02*
X124722095Y-83068342D01*
X124722095Y-83068342D02*
X124769714Y-83163580D01*
X124769714Y-83163580D02*
X124817333Y-83211200D01*
X124817333Y-83211200D02*
X124912571Y-83258819D01*
X124912571Y-83258819D02*
X125198285Y-83258819D01*
X125198285Y-83258819D02*
X125293523Y-83211200D01*
X125293523Y-83211200D02*
X125341142Y-83163580D01*
X104274857Y-103070819D02*
X104608190Y-102594628D01*
X104846285Y-103070819D02*
X104846285Y-102070819D01*
X104846285Y-102070819D02*
X104465333Y-102070819D01*
X104465333Y-102070819D02*
X104370095Y-102118438D01*
X104370095Y-102118438D02*
X104322476Y-102166057D01*
X104322476Y-102166057D02*
X104274857Y-102261295D01*
X104274857Y-102261295D02*
X104274857Y-102404152D01*
X104274857Y-102404152D02*
X104322476Y-102499390D01*
X104322476Y-102499390D02*
X104370095Y-102547009D01*
X104370095Y-102547009D02*
X104465333Y-102594628D01*
X104465333Y-102594628D02*
X104846285Y-102594628D01*
X103322476Y-103070819D02*
X103893904Y-103070819D01*
X103608190Y-103070819D02*
X103608190Y-102070819D01*
X103608190Y-102070819D02*
X103703428Y-102213676D01*
X103703428Y-102213676D02*
X103798666Y-102308914D01*
X103798666Y-102308914D02*
X103893904Y-102356533D01*
X102465333Y-102070819D02*
X102655809Y-102070819D01*
X102655809Y-102070819D02*
X102751047Y-102118438D01*
X102751047Y-102118438D02*
X102798666Y-102166057D01*
X102798666Y-102166057D02*
X102893904Y-102308914D01*
X102893904Y-102308914D02*
X102941523Y-102499390D01*
X102941523Y-102499390D02*
X102941523Y-102880342D01*
X102941523Y-102880342D02*
X102893904Y-102975580D01*
X102893904Y-102975580D02*
X102846285Y-103023200D01*
X102846285Y-103023200D02*
X102751047Y-103070819D01*
X102751047Y-103070819D02*
X102560571Y-103070819D01*
X102560571Y-103070819D02*
X102465333Y-103023200D01*
X102465333Y-103023200D02*
X102417714Y-102975580D01*
X102417714Y-102975580D02*
X102370095Y-102880342D01*
X102370095Y-102880342D02*
X102370095Y-102642247D01*
X102370095Y-102642247D02*
X102417714Y-102547009D01*
X102417714Y-102547009D02*
X102465333Y-102499390D01*
X102465333Y-102499390D02*
X102560571Y-102451771D01*
X102560571Y-102451771D02*
X102751047Y-102451771D01*
X102751047Y-102451771D02*
X102846285Y-102499390D01*
X102846285Y-102499390D02*
X102893904Y-102547009D01*
X102893904Y-102547009D02*
X102941523Y-102642247D01*
X110370857Y-98911580D02*
X110418476Y-98959200D01*
X110418476Y-98959200D02*
X110561333Y-99006819D01*
X110561333Y-99006819D02*
X110656571Y-99006819D01*
X110656571Y-99006819D02*
X110799428Y-98959200D01*
X110799428Y-98959200D02*
X110894666Y-98863961D01*
X110894666Y-98863961D02*
X110942285Y-98768723D01*
X110942285Y-98768723D02*
X110989904Y-98578247D01*
X110989904Y-98578247D02*
X110989904Y-98435390D01*
X110989904Y-98435390D02*
X110942285Y-98244914D01*
X110942285Y-98244914D02*
X110894666Y-98149676D01*
X110894666Y-98149676D02*
X110799428Y-98054438D01*
X110799428Y-98054438D02*
X110656571Y-98006819D01*
X110656571Y-98006819D02*
X110561333Y-98006819D01*
X110561333Y-98006819D02*
X110418476Y-98054438D01*
X110418476Y-98054438D02*
X110370857Y-98102057D01*
X109989904Y-98102057D02*
X109942285Y-98054438D01*
X109942285Y-98054438D02*
X109847047Y-98006819D01*
X109847047Y-98006819D02*
X109608952Y-98006819D01*
X109608952Y-98006819D02*
X109513714Y-98054438D01*
X109513714Y-98054438D02*
X109466095Y-98102057D01*
X109466095Y-98102057D02*
X109418476Y-98197295D01*
X109418476Y-98197295D02*
X109418476Y-98292533D01*
X109418476Y-98292533D02*
X109466095Y-98435390D01*
X109466095Y-98435390D02*
X110037523Y-99006819D01*
X110037523Y-99006819D02*
X109418476Y-99006819D01*
X109085142Y-98006819D02*
X108466095Y-98006819D01*
X108466095Y-98006819D02*
X108799428Y-98387771D01*
X108799428Y-98387771D02*
X108656571Y-98387771D01*
X108656571Y-98387771D02*
X108561333Y-98435390D01*
X108561333Y-98435390D02*
X108513714Y-98483009D01*
X108513714Y-98483009D02*
X108466095Y-98578247D01*
X108466095Y-98578247D02*
X108466095Y-98816342D01*
X108466095Y-98816342D02*
X108513714Y-98911580D01*
X108513714Y-98911580D02*
X108561333Y-98959200D01*
X108561333Y-98959200D02*
X108656571Y-99006819D01*
X108656571Y-99006819D02*
X108942285Y-99006819D01*
X108942285Y-99006819D02*
X109037523Y-98959200D01*
X109037523Y-98959200D02*
X109085142Y-98911580D01*
X127134857Y-123803580D02*
X127182476Y-123851200D01*
X127182476Y-123851200D02*
X127325333Y-123898819D01*
X127325333Y-123898819D02*
X127420571Y-123898819D01*
X127420571Y-123898819D02*
X127563428Y-123851200D01*
X127563428Y-123851200D02*
X127658666Y-123755961D01*
X127658666Y-123755961D02*
X127706285Y-123660723D01*
X127706285Y-123660723D02*
X127753904Y-123470247D01*
X127753904Y-123470247D02*
X127753904Y-123327390D01*
X127753904Y-123327390D02*
X127706285Y-123136914D01*
X127706285Y-123136914D02*
X127658666Y-123041676D01*
X127658666Y-123041676D02*
X127563428Y-122946438D01*
X127563428Y-122946438D02*
X127420571Y-122898819D01*
X127420571Y-122898819D02*
X127325333Y-122898819D01*
X127325333Y-122898819D02*
X127182476Y-122946438D01*
X127182476Y-122946438D02*
X127134857Y-122994057D01*
X126277714Y-123232152D02*
X126277714Y-123898819D01*
X126515809Y-122851200D02*
X126753904Y-123565485D01*
X126753904Y-123565485D02*
X126134857Y-123565485D01*
X125325333Y-122898819D02*
X125515809Y-122898819D01*
X125515809Y-122898819D02*
X125611047Y-122946438D01*
X125611047Y-122946438D02*
X125658666Y-122994057D01*
X125658666Y-122994057D02*
X125753904Y-123136914D01*
X125753904Y-123136914D02*
X125801523Y-123327390D01*
X125801523Y-123327390D02*
X125801523Y-123708342D01*
X125801523Y-123708342D02*
X125753904Y-123803580D01*
X125753904Y-123803580D02*
X125706285Y-123851200D01*
X125706285Y-123851200D02*
X125611047Y-123898819D01*
X125611047Y-123898819D02*
X125420571Y-123898819D01*
X125420571Y-123898819D02*
X125325333Y-123851200D01*
X125325333Y-123851200D02*
X125277714Y-123803580D01*
X125277714Y-123803580D02*
X125230095Y-123708342D01*
X125230095Y-123708342D02*
X125230095Y-123470247D01*
X125230095Y-123470247D02*
X125277714Y-123375009D01*
X125277714Y-123375009D02*
X125325333Y-123327390D01*
X125325333Y-123327390D02*
X125420571Y-123279771D01*
X125420571Y-123279771D02*
X125611047Y-123279771D01*
X125611047Y-123279771D02*
X125706285Y-123327390D01*
X125706285Y-123327390D02*
X125753904Y-123375009D01*
X125753904Y-123375009D02*
X125801523Y-123470247D01*
X133738857Y-107134819D02*
X134072190Y-106658628D01*
X134310285Y-107134819D02*
X134310285Y-106134819D01*
X134310285Y-106134819D02*
X133929333Y-106134819D01*
X133929333Y-106134819D02*
X133834095Y-106182438D01*
X133834095Y-106182438D02*
X133786476Y-106230057D01*
X133786476Y-106230057D02*
X133738857Y-106325295D01*
X133738857Y-106325295D02*
X133738857Y-106468152D01*
X133738857Y-106468152D02*
X133786476Y-106563390D01*
X133786476Y-106563390D02*
X133834095Y-106611009D01*
X133834095Y-106611009D02*
X133929333Y-106658628D01*
X133929333Y-106658628D02*
X134310285Y-106658628D01*
X132786476Y-107134819D02*
X133357904Y-107134819D01*
X133072190Y-107134819D02*
X133072190Y-106134819D01*
X133072190Y-106134819D02*
X133167428Y-106277676D01*
X133167428Y-106277676D02*
X133262666Y-106372914D01*
X133262666Y-106372914D02*
X133357904Y-106420533D01*
X132167428Y-106134819D02*
X132072190Y-106134819D01*
X132072190Y-106134819D02*
X131976952Y-106182438D01*
X131976952Y-106182438D02*
X131929333Y-106230057D01*
X131929333Y-106230057D02*
X131881714Y-106325295D01*
X131881714Y-106325295D02*
X131834095Y-106515771D01*
X131834095Y-106515771D02*
X131834095Y-106753866D01*
X131834095Y-106753866D02*
X131881714Y-106944342D01*
X131881714Y-106944342D02*
X131929333Y-107039580D01*
X131929333Y-107039580D02*
X131976952Y-107087200D01*
X131976952Y-107087200D02*
X132072190Y-107134819D01*
X132072190Y-107134819D02*
X132167428Y-107134819D01*
X132167428Y-107134819D02*
X132262666Y-107087200D01*
X132262666Y-107087200D02*
X132310285Y-107039580D01*
X132310285Y-107039580D02*
X132357904Y-106944342D01*
X132357904Y-106944342D02*
X132405523Y-106753866D01*
X132405523Y-106753866D02*
X132405523Y-106515771D01*
X132405523Y-106515771D02*
X132357904Y-106325295D01*
X132357904Y-106325295D02*
X132310285Y-106230057D01*
X132310285Y-106230057D02*
X132262666Y-106182438D01*
X132262666Y-106182438D02*
X132167428Y-106134819D01*
X104274857Y-99006819D02*
X104608190Y-98530628D01*
X104846285Y-99006819D02*
X104846285Y-98006819D01*
X104846285Y-98006819D02*
X104465333Y-98006819D01*
X104465333Y-98006819D02*
X104370095Y-98054438D01*
X104370095Y-98054438D02*
X104322476Y-98102057D01*
X104322476Y-98102057D02*
X104274857Y-98197295D01*
X104274857Y-98197295D02*
X104274857Y-98340152D01*
X104274857Y-98340152D02*
X104322476Y-98435390D01*
X104322476Y-98435390D02*
X104370095Y-98483009D01*
X104370095Y-98483009D02*
X104465333Y-98530628D01*
X104465333Y-98530628D02*
X104846285Y-98530628D01*
X103322476Y-99006819D02*
X103893904Y-99006819D01*
X103608190Y-99006819D02*
X103608190Y-98006819D01*
X103608190Y-98006819D02*
X103703428Y-98149676D01*
X103703428Y-98149676D02*
X103798666Y-98244914D01*
X103798666Y-98244914D02*
X103893904Y-98292533D01*
X102989142Y-98006819D02*
X102322476Y-98006819D01*
X102322476Y-98006819D02*
X102751047Y-99006819D01*
X133738857Y-98911580D02*
X133786476Y-98959200D01*
X133786476Y-98959200D02*
X133929333Y-99006819D01*
X133929333Y-99006819D02*
X134024571Y-99006819D01*
X134024571Y-99006819D02*
X134167428Y-98959200D01*
X134167428Y-98959200D02*
X134262666Y-98863961D01*
X134262666Y-98863961D02*
X134310285Y-98768723D01*
X134310285Y-98768723D02*
X134357904Y-98578247D01*
X134357904Y-98578247D02*
X134357904Y-98435390D01*
X134357904Y-98435390D02*
X134310285Y-98244914D01*
X134310285Y-98244914D02*
X134262666Y-98149676D01*
X134262666Y-98149676D02*
X134167428Y-98054438D01*
X134167428Y-98054438D02*
X134024571Y-98006819D01*
X134024571Y-98006819D02*
X133929333Y-98006819D01*
X133929333Y-98006819D02*
X133786476Y-98054438D01*
X133786476Y-98054438D02*
X133738857Y-98102057D01*
X132786476Y-99006819D02*
X133357904Y-99006819D01*
X133072190Y-99006819D02*
X133072190Y-98006819D01*
X133072190Y-98006819D02*
X133167428Y-98149676D01*
X133167428Y-98149676D02*
X133262666Y-98244914D01*
X133262666Y-98244914D02*
X133357904Y-98292533D01*
X132215047Y-98435390D02*
X132310285Y-98387771D01*
X132310285Y-98387771D02*
X132357904Y-98340152D01*
X132357904Y-98340152D02*
X132405523Y-98244914D01*
X132405523Y-98244914D02*
X132405523Y-98197295D01*
X132405523Y-98197295D02*
X132357904Y-98102057D01*
X132357904Y-98102057D02*
X132310285Y-98054438D01*
X132310285Y-98054438D02*
X132215047Y-98006819D01*
X132215047Y-98006819D02*
X132024571Y-98006819D01*
X132024571Y-98006819D02*
X131929333Y-98054438D01*
X131929333Y-98054438D02*
X131881714Y-98102057D01*
X131881714Y-98102057D02*
X131834095Y-98197295D01*
X131834095Y-98197295D02*
X131834095Y-98244914D01*
X131834095Y-98244914D02*
X131881714Y-98340152D01*
X131881714Y-98340152D02*
X131929333Y-98387771D01*
X131929333Y-98387771D02*
X132024571Y-98435390D01*
X132024571Y-98435390D02*
X132215047Y-98435390D01*
X132215047Y-98435390D02*
X132310285Y-98483009D01*
X132310285Y-98483009D02*
X132357904Y-98530628D01*
X132357904Y-98530628D02*
X132405523Y-98625866D01*
X132405523Y-98625866D02*
X132405523Y-98816342D01*
X132405523Y-98816342D02*
X132357904Y-98911580D01*
X132357904Y-98911580D02*
X132310285Y-98959200D01*
X132310285Y-98959200D02*
X132215047Y-99006819D01*
X132215047Y-99006819D02*
X132024571Y-99006819D01*
X132024571Y-99006819D02*
X131929333Y-98959200D01*
X131929333Y-98959200D02*
X131881714Y-98911580D01*
X131881714Y-98911580D02*
X131834095Y-98816342D01*
X131834095Y-98816342D02*
X131834095Y-98625866D01*
X131834095Y-98625866D02*
X131881714Y-98530628D01*
X131881714Y-98530628D02*
X131929333Y-98483009D01*
X131929333Y-98483009D02*
X132024571Y-98435390D01*
X102496857Y-82242819D02*
X102830190Y-81766628D01*
X103068285Y-82242819D02*
X103068285Y-81242819D01*
X103068285Y-81242819D02*
X102687333Y-81242819D01*
X102687333Y-81242819D02*
X102592095Y-81290438D01*
X102592095Y-81290438D02*
X102544476Y-81338057D01*
X102544476Y-81338057D02*
X102496857Y-81433295D01*
X102496857Y-81433295D02*
X102496857Y-81576152D01*
X102496857Y-81576152D02*
X102544476Y-81671390D01*
X102544476Y-81671390D02*
X102592095Y-81719009D01*
X102592095Y-81719009D02*
X102687333Y-81766628D01*
X102687333Y-81766628D02*
X103068285Y-81766628D01*
X102163523Y-81242819D02*
X101544476Y-81242819D01*
X101544476Y-81242819D02*
X101877809Y-81623771D01*
X101877809Y-81623771D02*
X101734952Y-81623771D01*
X101734952Y-81623771D02*
X101639714Y-81671390D01*
X101639714Y-81671390D02*
X101592095Y-81719009D01*
X101592095Y-81719009D02*
X101544476Y-81814247D01*
X101544476Y-81814247D02*
X101544476Y-82052342D01*
X101544476Y-82052342D02*
X101592095Y-82147580D01*
X101592095Y-82147580D02*
X101639714Y-82195200D01*
X101639714Y-82195200D02*
X101734952Y-82242819D01*
X101734952Y-82242819D02*
X102020666Y-82242819D01*
X102020666Y-82242819D02*
X102115904Y-82195200D01*
X102115904Y-82195200D02*
X102163523Y-82147580D01*
X101211142Y-81242819D02*
X100544476Y-81242819D01*
X100544476Y-81242819D02*
X100973047Y-82242819D01*
X98178857Y-71987580D02*
X98226476Y-72035200D01*
X98226476Y-72035200D02*
X98369333Y-72082819D01*
X98369333Y-72082819D02*
X98464571Y-72082819D01*
X98464571Y-72082819D02*
X98607428Y-72035200D01*
X98607428Y-72035200D02*
X98702666Y-71939961D01*
X98702666Y-71939961D02*
X98750285Y-71844723D01*
X98750285Y-71844723D02*
X98797904Y-71654247D01*
X98797904Y-71654247D02*
X98797904Y-71511390D01*
X98797904Y-71511390D02*
X98750285Y-71320914D01*
X98750285Y-71320914D02*
X98702666Y-71225676D01*
X98702666Y-71225676D02*
X98607428Y-71130438D01*
X98607428Y-71130438D02*
X98464571Y-71082819D01*
X98464571Y-71082819D02*
X98369333Y-71082819D01*
X98369333Y-71082819D02*
X98226476Y-71130438D01*
X98226476Y-71130438D02*
X98178857Y-71178057D01*
X97321714Y-71416152D02*
X97321714Y-72082819D01*
X97559809Y-71035200D02*
X97797904Y-71749485D01*
X97797904Y-71749485D02*
X97178857Y-71749485D01*
X96274095Y-72082819D02*
X96845523Y-72082819D01*
X96559809Y-72082819D02*
X96559809Y-71082819D01*
X96559809Y-71082819D02*
X96655047Y-71225676D01*
X96655047Y-71225676D02*
X96750285Y-71320914D01*
X96750285Y-71320914D02*
X96845523Y-71368533D01*
X133738857Y-102975580D02*
X133786476Y-103023200D01*
X133786476Y-103023200D02*
X133929333Y-103070819D01*
X133929333Y-103070819D02*
X134024571Y-103070819D01*
X134024571Y-103070819D02*
X134167428Y-103023200D01*
X134167428Y-103023200D02*
X134262666Y-102927961D01*
X134262666Y-102927961D02*
X134310285Y-102832723D01*
X134310285Y-102832723D02*
X134357904Y-102642247D01*
X134357904Y-102642247D02*
X134357904Y-102499390D01*
X134357904Y-102499390D02*
X134310285Y-102308914D01*
X134310285Y-102308914D02*
X134262666Y-102213676D01*
X134262666Y-102213676D02*
X134167428Y-102118438D01*
X134167428Y-102118438D02*
X134024571Y-102070819D01*
X134024571Y-102070819D02*
X133929333Y-102070819D01*
X133929333Y-102070819D02*
X133786476Y-102118438D01*
X133786476Y-102118438D02*
X133738857Y-102166057D01*
X132786476Y-103070819D02*
X133357904Y-103070819D01*
X133072190Y-103070819D02*
X133072190Y-102070819D01*
X133072190Y-102070819D02*
X133167428Y-102213676D01*
X133167428Y-102213676D02*
X133262666Y-102308914D01*
X133262666Y-102308914D02*
X133357904Y-102356533D01*
X132453142Y-102070819D02*
X131786476Y-102070819D01*
X131786476Y-102070819D02*
X132215047Y-103070819D01*
X128658857Y-80115580D02*
X128706476Y-80163200D01*
X128706476Y-80163200D02*
X128849333Y-80210819D01*
X128849333Y-80210819D02*
X128944571Y-80210819D01*
X128944571Y-80210819D02*
X129087428Y-80163200D01*
X129087428Y-80163200D02*
X129182666Y-80067961D01*
X129182666Y-80067961D02*
X129230285Y-79972723D01*
X129230285Y-79972723D02*
X129277904Y-79782247D01*
X129277904Y-79782247D02*
X129277904Y-79639390D01*
X129277904Y-79639390D02*
X129230285Y-79448914D01*
X129230285Y-79448914D02*
X129182666Y-79353676D01*
X129182666Y-79353676D02*
X129087428Y-79258438D01*
X129087428Y-79258438D02*
X128944571Y-79210819D01*
X128944571Y-79210819D02*
X128849333Y-79210819D01*
X128849333Y-79210819D02*
X128706476Y-79258438D01*
X128706476Y-79258438D02*
X128658857Y-79306057D01*
X127754095Y-79210819D02*
X128230285Y-79210819D01*
X128230285Y-79210819D02*
X128277904Y-79687009D01*
X128277904Y-79687009D02*
X128230285Y-79639390D01*
X128230285Y-79639390D02*
X128135047Y-79591771D01*
X128135047Y-79591771D02*
X127896952Y-79591771D01*
X127896952Y-79591771D02*
X127801714Y-79639390D01*
X127801714Y-79639390D02*
X127754095Y-79687009D01*
X127754095Y-79687009D02*
X127706476Y-79782247D01*
X127706476Y-79782247D02*
X127706476Y-80020342D01*
X127706476Y-80020342D02*
X127754095Y-80115580D01*
X127754095Y-80115580D02*
X127801714Y-80163200D01*
X127801714Y-80163200D02*
X127896952Y-80210819D01*
X127896952Y-80210819D02*
X128135047Y-80210819D01*
X128135047Y-80210819D02*
X128230285Y-80163200D01*
X128230285Y-80163200D02*
X128277904Y-80115580D01*
X127373142Y-79210819D02*
X126754095Y-79210819D01*
X126754095Y-79210819D02*
X127087428Y-79591771D01*
X127087428Y-79591771D02*
X126944571Y-79591771D01*
X126944571Y-79591771D02*
X126849333Y-79639390D01*
X126849333Y-79639390D02*
X126801714Y-79687009D01*
X126801714Y-79687009D02*
X126754095Y-79782247D01*
X126754095Y-79782247D02*
X126754095Y-80020342D01*
X126754095Y-80020342D02*
X126801714Y-80115580D01*
X126801714Y-80115580D02*
X126849333Y-80163200D01*
X126849333Y-80163200D02*
X126944571Y-80210819D01*
X126944571Y-80210819D02*
X127230285Y-80210819D01*
X127230285Y-80210819D02*
X127325523Y-80163200D01*
X127325523Y-80163200D02*
X127373142Y-80115580D01*
X110370857Y-107039580D02*
X110418476Y-107087200D01*
X110418476Y-107087200D02*
X110561333Y-107134819D01*
X110561333Y-107134819D02*
X110656571Y-107134819D01*
X110656571Y-107134819D02*
X110799428Y-107087200D01*
X110799428Y-107087200D02*
X110894666Y-106991961D01*
X110894666Y-106991961D02*
X110942285Y-106896723D01*
X110942285Y-106896723D02*
X110989904Y-106706247D01*
X110989904Y-106706247D02*
X110989904Y-106563390D01*
X110989904Y-106563390D02*
X110942285Y-106372914D01*
X110942285Y-106372914D02*
X110894666Y-106277676D01*
X110894666Y-106277676D02*
X110799428Y-106182438D01*
X110799428Y-106182438D02*
X110656571Y-106134819D01*
X110656571Y-106134819D02*
X110561333Y-106134819D01*
X110561333Y-106134819D02*
X110418476Y-106182438D01*
X110418476Y-106182438D02*
X110370857Y-106230057D01*
X110037523Y-106134819D02*
X109418476Y-106134819D01*
X109418476Y-106134819D02*
X109751809Y-106515771D01*
X109751809Y-106515771D02*
X109608952Y-106515771D01*
X109608952Y-106515771D02*
X109513714Y-106563390D01*
X109513714Y-106563390D02*
X109466095Y-106611009D01*
X109466095Y-106611009D02*
X109418476Y-106706247D01*
X109418476Y-106706247D02*
X109418476Y-106944342D01*
X109418476Y-106944342D02*
X109466095Y-107039580D01*
X109466095Y-107039580D02*
X109513714Y-107087200D01*
X109513714Y-107087200D02*
X109608952Y-107134819D01*
X109608952Y-107134819D02*
X109894666Y-107134819D01*
X109894666Y-107134819D02*
X109989904Y-107087200D01*
X109989904Y-107087200D02*
X110037523Y-107039580D01*
X109085142Y-106134819D02*
X108418476Y-106134819D01*
X108418476Y-106134819D02*
X108847047Y-107134819D01*
X123070857Y-123803580D02*
X123118476Y-123851200D01*
X123118476Y-123851200D02*
X123261333Y-123898819D01*
X123261333Y-123898819D02*
X123356571Y-123898819D01*
X123356571Y-123898819D02*
X123499428Y-123851200D01*
X123499428Y-123851200D02*
X123594666Y-123755961D01*
X123594666Y-123755961D02*
X123642285Y-123660723D01*
X123642285Y-123660723D02*
X123689904Y-123470247D01*
X123689904Y-123470247D02*
X123689904Y-123327390D01*
X123689904Y-123327390D02*
X123642285Y-123136914D01*
X123642285Y-123136914D02*
X123594666Y-123041676D01*
X123594666Y-123041676D02*
X123499428Y-122946438D01*
X123499428Y-122946438D02*
X123356571Y-122898819D01*
X123356571Y-122898819D02*
X123261333Y-122898819D01*
X123261333Y-122898819D02*
X123118476Y-122946438D01*
X123118476Y-122946438D02*
X123070857Y-122994057D01*
X122213714Y-123232152D02*
X122213714Y-123898819D01*
X122451809Y-122851200D02*
X122689904Y-123565485D01*
X122689904Y-123565485D02*
X122070857Y-123565485D01*
X121261333Y-123232152D02*
X121261333Y-123898819D01*
X121499428Y-122851200D02*
X121737523Y-123565485D01*
X121737523Y-123565485D02*
X121118476Y-123565485D01*
X84462857Y-134058819D02*
X84796190Y-133582628D01*
X85034285Y-134058819D02*
X85034285Y-133058819D01*
X85034285Y-133058819D02*
X84653333Y-133058819D01*
X84653333Y-133058819D02*
X84558095Y-133106438D01*
X84558095Y-133106438D02*
X84510476Y-133154057D01*
X84510476Y-133154057D02*
X84462857Y-133249295D01*
X84462857Y-133249295D02*
X84462857Y-133392152D01*
X84462857Y-133392152D02*
X84510476Y-133487390D01*
X84510476Y-133487390D02*
X84558095Y-133535009D01*
X84558095Y-133535009D02*
X84653333Y-133582628D01*
X84653333Y-133582628D02*
X85034285Y-133582628D01*
X83510476Y-134058819D02*
X84081904Y-134058819D01*
X83796190Y-134058819D02*
X83796190Y-133058819D01*
X83796190Y-133058819D02*
X83891428Y-133201676D01*
X83891428Y-133201676D02*
X83986666Y-133296914D01*
X83986666Y-133296914D02*
X84081904Y-133344533D01*
X83129523Y-133154057D02*
X83081904Y-133106438D01*
X83081904Y-133106438D02*
X82986666Y-133058819D01*
X82986666Y-133058819D02*
X82748571Y-133058819D01*
X82748571Y-133058819D02*
X82653333Y-133106438D01*
X82653333Y-133106438D02*
X82605714Y-133154057D01*
X82605714Y-133154057D02*
X82558095Y-133249295D01*
X82558095Y-133249295D02*
X82558095Y-133344533D01*
X82558095Y-133344533D02*
X82605714Y-133487390D01*
X82605714Y-133487390D02*
X83177142Y-134058819D01*
X83177142Y-134058819D02*
X82558095Y-134058819D01*
X142374857Y-76654819D02*
X142708190Y-76178628D01*
X142946285Y-76654819D02*
X142946285Y-75654819D01*
X142946285Y-75654819D02*
X142565333Y-75654819D01*
X142565333Y-75654819D02*
X142470095Y-75702438D01*
X142470095Y-75702438D02*
X142422476Y-75750057D01*
X142422476Y-75750057D02*
X142374857Y-75845295D01*
X142374857Y-75845295D02*
X142374857Y-75988152D01*
X142374857Y-75988152D02*
X142422476Y-76083390D01*
X142422476Y-76083390D02*
X142470095Y-76131009D01*
X142470095Y-76131009D02*
X142565333Y-76178628D01*
X142565333Y-76178628D02*
X142946285Y-76178628D01*
X142041523Y-75654819D02*
X141422476Y-75654819D01*
X141422476Y-75654819D02*
X141755809Y-76035771D01*
X141755809Y-76035771D02*
X141612952Y-76035771D01*
X141612952Y-76035771D02*
X141517714Y-76083390D01*
X141517714Y-76083390D02*
X141470095Y-76131009D01*
X141470095Y-76131009D02*
X141422476Y-76226247D01*
X141422476Y-76226247D02*
X141422476Y-76464342D01*
X141422476Y-76464342D02*
X141470095Y-76559580D01*
X141470095Y-76559580D02*
X141517714Y-76607200D01*
X141517714Y-76607200D02*
X141612952Y-76654819D01*
X141612952Y-76654819D02*
X141898666Y-76654819D01*
X141898666Y-76654819D02*
X141993904Y-76607200D01*
X141993904Y-76607200D02*
X142041523Y-76559580D01*
X140517714Y-75654819D02*
X140993904Y-75654819D01*
X140993904Y-75654819D02*
X141041523Y-76131009D01*
X141041523Y-76131009D02*
X140993904Y-76083390D01*
X140993904Y-76083390D02*
X140898666Y-76035771D01*
X140898666Y-76035771D02*
X140660571Y-76035771D01*
X140660571Y-76035771D02*
X140565333Y-76083390D01*
X140565333Y-76083390D02*
X140517714Y-76131009D01*
X140517714Y-76131009D02*
X140470095Y-76226247D01*
X140470095Y-76226247D02*
X140470095Y-76464342D01*
X140470095Y-76464342D02*
X140517714Y-76559580D01*
X140517714Y-76559580D02*
X140565333Y-76607200D01*
X140565333Y-76607200D02*
X140660571Y-76654819D01*
X140660571Y-76654819D02*
X140898666Y-76654819D01*
X140898666Y-76654819D02*
X140993904Y-76607200D01*
X140993904Y-76607200D02*
X141041523Y-76559580D01*
X136310666Y-94847580D02*
X136358285Y-94895200D01*
X136358285Y-94895200D02*
X136501142Y-94942819D01*
X136501142Y-94942819D02*
X136596380Y-94942819D01*
X136596380Y-94942819D02*
X136739237Y-94895200D01*
X136739237Y-94895200D02*
X136834475Y-94799961D01*
X136834475Y-94799961D02*
X136882094Y-94704723D01*
X136882094Y-94704723D02*
X136929713Y-94514247D01*
X136929713Y-94514247D02*
X136929713Y-94371390D01*
X136929713Y-94371390D02*
X136882094Y-94180914D01*
X136882094Y-94180914D02*
X136834475Y-94085676D01*
X136834475Y-94085676D02*
X136739237Y-93990438D01*
X136739237Y-93990438D02*
X136596380Y-93942819D01*
X136596380Y-93942819D02*
X136501142Y-93942819D01*
X136501142Y-93942819D02*
X136358285Y-93990438D01*
X136358285Y-93990438D02*
X136310666Y-94038057D01*
X135977332Y-93942819D02*
X135310666Y-93942819D01*
X135310666Y-93942819D02*
X135739237Y-94942819D01*
X136818666Y-102975580D02*
X136866285Y-103023200D01*
X136866285Y-103023200D02*
X137009142Y-103070819D01*
X137009142Y-103070819D02*
X137104380Y-103070819D01*
X137104380Y-103070819D02*
X137247237Y-103023200D01*
X137247237Y-103023200D02*
X137342475Y-102927961D01*
X137342475Y-102927961D02*
X137390094Y-102832723D01*
X137390094Y-102832723D02*
X137437713Y-102642247D01*
X137437713Y-102642247D02*
X137437713Y-102499390D01*
X137437713Y-102499390D02*
X137390094Y-102308914D01*
X137390094Y-102308914D02*
X137342475Y-102213676D01*
X137342475Y-102213676D02*
X137247237Y-102118438D01*
X137247237Y-102118438D02*
X137104380Y-102070819D01*
X137104380Y-102070819D02*
X137009142Y-102070819D01*
X137009142Y-102070819D02*
X136866285Y-102118438D01*
X136866285Y-102118438D02*
X136818666Y-102166057D01*
X136247237Y-102499390D02*
X136342475Y-102451771D01*
X136342475Y-102451771D02*
X136390094Y-102404152D01*
X136390094Y-102404152D02*
X136437713Y-102308914D01*
X136437713Y-102308914D02*
X136437713Y-102261295D01*
X136437713Y-102261295D02*
X136390094Y-102166057D01*
X136390094Y-102166057D02*
X136342475Y-102118438D01*
X136342475Y-102118438D02*
X136247237Y-102070819D01*
X136247237Y-102070819D02*
X136056761Y-102070819D01*
X136056761Y-102070819D02*
X135961523Y-102118438D01*
X135961523Y-102118438D02*
X135913904Y-102166057D01*
X135913904Y-102166057D02*
X135866285Y-102261295D01*
X135866285Y-102261295D02*
X135866285Y-102308914D01*
X135866285Y-102308914D02*
X135913904Y-102404152D01*
X135913904Y-102404152D02*
X135961523Y-102451771D01*
X135961523Y-102451771D02*
X136056761Y-102499390D01*
X136056761Y-102499390D02*
X136247237Y-102499390D01*
X136247237Y-102499390D02*
X136342475Y-102547009D01*
X136342475Y-102547009D02*
X136390094Y-102594628D01*
X136390094Y-102594628D02*
X136437713Y-102689866D01*
X136437713Y-102689866D02*
X136437713Y-102880342D01*
X136437713Y-102880342D02*
X136390094Y-102975580D01*
X136390094Y-102975580D02*
X136342475Y-103023200D01*
X136342475Y-103023200D02*
X136247237Y-103070819D01*
X136247237Y-103070819D02*
X136056761Y-103070819D01*
X136056761Y-103070819D02*
X135961523Y-103023200D01*
X135961523Y-103023200D02*
X135913904Y-102975580D01*
X135913904Y-102975580D02*
X135866285Y-102880342D01*
X135866285Y-102880342D02*
X135866285Y-102689866D01*
X135866285Y-102689866D02*
X135913904Y-102594628D01*
X135913904Y-102594628D02*
X135961523Y-102547009D01*
X135961523Y-102547009D02*
X136056761Y-102499390D01*
X107322857Y-90878819D02*
X107656190Y-90402628D01*
X107894285Y-90878819D02*
X107894285Y-89878819D01*
X107894285Y-89878819D02*
X107513333Y-89878819D01*
X107513333Y-89878819D02*
X107418095Y-89926438D01*
X107418095Y-89926438D02*
X107370476Y-89974057D01*
X107370476Y-89974057D02*
X107322857Y-90069295D01*
X107322857Y-90069295D02*
X107322857Y-90212152D01*
X107322857Y-90212152D02*
X107370476Y-90307390D01*
X107370476Y-90307390D02*
X107418095Y-90355009D01*
X107418095Y-90355009D02*
X107513333Y-90402628D01*
X107513333Y-90402628D02*
X107894285Y-90402628D01*
X106370476Y-90878819D02*
X106941904Y-90878819D01*
X106656190Y-90878819D02*
X106656190Y-89878819D01*
X106656190Y-89878819D02*
X106751428Y-90021676D01*
X106751428Y-90021676D02*
X106846666Y-90116914D01*
X106846666Y-90116914D02*
X106941904Y-90164533D01*
X105799047Y-90307390D02*
X105894285Y-90259771D01*
X105894285Y-90259771D02*
X105941904Y-90212152D01*
X105941904Y-90212152D02*
X105989523Y-90116914D01*
X105989523Y-90116914D02*
X105989523Y-90069295D01*
X105989523Y-90069295D02*
X105941904Y-89974057D01*
X105941904Y-89974057D02*
X105894285Y-89926438D01*
X105894285Y-89926438D02*
X105799047Y-89878819D01*
X105799047Y-89878819D02*
X105608571Y-89878819D01*
X105608571Y-89878819D02*
X105513333Y-89926438D01*
X105513333Y-89926438D02*
X105465714Y-89974057D01*
X105465714Y-89974057D02*
X105418095Y-90069295D01*
X105418095Y-90069295D02*
X105418095Y-90116914D01*
X105418095Y-90116914D02*
X105465714Y-90212152D01*
X105465714Y-90212152D02*
X105513333Y-90259771D01*
X105513333Y-90259771D02*
X105608571Y-90307390D01*
X105608571Y-90307390D02*
X105799047Y-90307390D01*
X105799047Y-90307390D02*
X105894285Y-90355009D01*
X105894285Y-90355009D02*
X105941904Y-90402628D01*
X105941904Y-90402628D02*
X105989523Y-90497866D01*
X105989523Y-90497866D02*
X105989523Y-90688342D01*
X105989523Y-90688342D02*
X105941904Y-90783580D01*
X105941904Y-90783580D02*
X105894285Y-90831200D01*
X105894285Y-90831200D02*
X105799047Y-90878819D01*
X105799047Y-90878819D02*
X105608571Y-90878819D01*
X105608571Y-90878819D02*
X105513333Y-90831200D01*
X105513333Y-90831200D02*
X105465714Y-90783580D01*
X105465714Y-90783580D02*
X105418095Y-90688342D01*
X105418095Y-90688342D02*
X105418095Y-90497866D01*
X105418095Y-90497866D02*
X105465714Y-90402628D01*
X105465714Y-90402628D02*
X105513333Y-90355009D01*
X105513333Y-90355009D02*
X105608571Y-90307390D01*
X107322857Y-100943580D02*
X107370476Y-100991200D01*
X107370476Y-100991200D02*
X107513333Y-101038819D01*
X107513333Y-101038819D02*
X107608571Y-101038819D01*
X107608571Y-101038819D02*
X107751428Y-100991200D01*
X107751428Y-100991200D02*
X107846666Y-100895961D01*
X107846666Y-100895961D02*
X107894285Y-100800723D01*
X107894285Y-100800723D02*
X107941904Y-100610247D01*
X107941904Y-100610247D02*
X107941904Y-100467390D01*
X107941904Y-100467390D02*
X107894285Y-100276914D01*
X107894285Y-100276914D02*
X107846666Y-100181676D01*
X107846666Y-100181676D02*
X107751428Y-100086438D01*
X107751428Y-100086438D02*
X107608571Y-100038819D01*
X107608571Y-100038819D02*
X107513333Y-100038819D01*
X107513333Y-100038819D02*
X107370476Y-100086438D01*
X107370476Y-100086438D02*
X107322857Y-100134057D01*
X106370476Y-101038819D02*
X106941904Y-101038819D01*
X106656190Y-101038819D02*
X106656190Y-100038819D01*
X106656190Y-100038819D02*
X106751428Y-100181676D01*
X106751428Y-100181676D02*
X106846666Y-100276914D01*
X106846666Y-100276914D02*
X106941904Y-100324533D01*
X106037142Y-100038819D02*
X105418095Y-100038819D01*
X105418095Y-100038819D02*
X105751428Y-100419771D01*
X105751428Y-100419771D02*
X105608571Y-100419771D01*
X105608571Y-100419771D02*
X105513333Y-100467390D01*
X105513333Y-100467390D02*
X105465714Y-100515009D01*
X105465714Y-100515009D02*
X105418095Y-100610247D01*
X105418095Y-100610247D02*
X105418095Y-100848342D01*
X105418095Y-100848342D02*
X105465714Y-100943580D01*
X105465714Y-100943580D02*
X105513333Y-100991200D01*
X105513333Y-100991200D02*
X105608571Y-101038819D01*
X105608571Y-101038819D02*
X105894285Y-101038819D01*
X105894285Y-101038819D02*
X105989523Y-100991200D01*
X105989523Y-100991200D02*
X106037142Y-100943580D01*
X107322857Y-92815580D02*
X107370476Y-92863200D01*
X107370476Y-92863200D02*
X107513333Y-92910819D01*
X107513333Y-92910819D02*
X107608571Y-92910819D01*
X107608571Y-92910819D02*
X107751428Y-92863200D01*
X107751428Y-92863200D02*
X107846666Y-92767961D01*
X107846666Y-92767961D02*
X107894285Y-92672723D01*
X107894285Y-92672723D02*
X107941904Y-92482247D01*
X107941904Y-92482247D02*
X107941904Y-92339390D01*
X107941904Y-92339390D02*
X107894285Y-92148914D01*
X107894285Y-92148914D02*
X107846666Y-92053676D01*
X107846666Y-92053676D02*
X107751428Y-91958438D01*
X107751428Y-91958438D02*
X107608571Y-91910819D01*
X107608571Y-91910819D02*
X107513333Y-91910819D01*
X107513333Y-91910819D02*
X107370476Y-91958438D01*
X107370476Y-91958438D02*
X107322857Y-92006057D01*
X106465714Y-92244152D02*
X106465714Y-92910819D01*
X106703809Y-91863200D02*
X106941904Y-92577485D01*
X106941904Y-92577485D02*
X106322857Y-92577485D01*
X106037142Y-91910819D02*
X105370476Y-91910819D01*
X105370476Y-91910819D02*
X105799047Y-92910819D01*
X90590666Y-135582819D02*
X90923999Y-135106628D01*
X91162094Y-135582819D02*
X91162094Y-134582819D01*
X91162094Y-134582819D02*
X90781142Y-134582819D01*
X90781142Y-134582819D02*
X90685904Y-134630438D01*
X90685904Y-134630438D02*
X90638285Y-134678057D01*
X90638285Y-134678057D02*
X90590666Y-134773295D01*
X90590666Y-134773295D02*
X90590666Y-134916152D01*
X90590666Y-134916152D02*
X90638285Y-135011390D01*
X90638285Y-135011390D02*
X90685904Y-135059009D01*
X90685904Y-135059009D02*
X90781142Y-135106628D01*
X90781142Y-135106628D02*
X91162094Y-135106628D01*
X90257332Y-134582819D02*
X89638285Y-134582819D01*
X89638285Y-134582819D02*
X89971618Y-134963771D01*
X89971618Y-134963771D02*
X89828761Y-134963771D01*
X89828761Y-134963771D02*
X89733523Y-135011390D01*
X89733523Y-135011390D02*
X89685904Y-135059009D01*
X89685904Y-135059009D02*
X89638285Y-135154247D01*
X89638285Y-135154247D02*
X89638285Y-135392342D01*
X89638285Y-135392342D02*
X89685904Y-135487580D01*
X89685904Y-135487580D02*
X89733523Y-135535200D01*
X89733523Y-135535200D02*
X89828761Y-135582819D01*
X89828761Y-135582819D02*
X90114475Y-135582819D01*
X90114475Y-135582819D02*
X90209713Y-135535200D01*
X90209713Y-135535200D02*
X90257332Y-135487580D01*
X139326857Y-76559580D02*
X139374476Y-76607200D01*
X139374476Y-76607200D02*
X139517333Y-76654819D01*
X139517333Y-76654819D02*
X139612571Y-76654819D01*
X139612571Y-76654819D02*
X139755428Y-76607200D01*
X139755428Y-76607200D02*
X139850666Y-76511961D01*
X139850666Y-76511961D02*
X139898285Y-76416723D01*
X139898285Y-76416723D02*
X139945904Y-76226247D01*
X139945904Y-76226247D02*
X139945904Y-76083390D01*
X139945904Y-76083390D02*
X139898285Y-75892914D01*
X139898285Y-75892914D02*
X139850666Y-75797676D01*
X139850666Y-75797676D02*
X139755428Y-75702438D01*
X139755428Y-75702438D02*
X139612571Y-75654819D01*
X139612571Y-75654819D02*
X139517333Y-75654819D01*
X139517333Y-75654819D02*
X139374476Y-75702438D01*
X139374476Y-75702438D02*
X139326857Y-75750057D01*
X138422095Y-75654819D02*
X138898285Y-75654819D01*
X138898285Y-75654819D02*
X138945904Y-76131009D01*
X138945904Y-76131009D02*
X138898285Y-76083390D01*
X138898285Y-76083390D02*
X138803047Y-76035771D01*
X138803047Y-76035771D02*
X138564952Y-76035771D01*
X138564952Y-76035771D02*
X138469714Y-76083390D01*
X138469714Y-76083390D02*
X138422095Y-76131009D01*
X138422095Y-76131009D02*
X138374476Y-76226247D01*
X138374476Y-76226247D02*
X138374476Y-76464342D01*
X138374476Y-76464342D02*
X138422095Y-76559580D01*
X138422095Y-76559580D02*
X138469714Y-76607200D01*
X138469714Y-76607200D02*
X138564952Y-76654819D01*
X138564952Y-76654819D02*
X138803047Y-76654819D01*
X138803047Y-76654819D02*
X138898285Y-76607200D01*
X138898285Y-76607200D02*
X138945904Y-76559580D01*
X137803047Y-76083390D02*
X137898285Y-76035771D01*
X137898285Y-76035771D02*
X137945904Y-75988152D01*
X137945904Y-75988152D02*
X137993523Y-75892914D01*
X137993523Y-75892914D02*
X137993523Y-75845295D01*
X137993523Y-75845295D02*
X137945904Y-75750057D01*
X137945904Y-75750057D02*
X137898285Y-75702438D01*
X137898285Y-75702438D02*
X137803047Y-75654819D01*
X137803047Y-75654819D02*
X137612571Y-75654819D01*
X137612571Y-75654819D02*
X137517333Y-75702438D01*
X137517333Y-75702438D02*
X137469714Y-75750057D01*
X137469714Y-75750057D02*
X137422095Y-75845295D01*
X137422095Y-75845295D02*
X137422095Y-75892914D01*
X137422095Y-75892914D02*
X137469714Y-75988152D01*
X137469714Y-75988152D02*
X137517333Y-76035771D01*
X137517333Y-76035771D02*
X137612571Y-76083390D01*
X137612571Y-76083390D02*
X137803047Y-76083390D01*
X137803047Y-76083390D02*
X137898285Y-76131009D01*
X137898285Y-76131009D02*
X137945904Y-76178628D01*
X137945904Y-76178628D02*
X137993523Y-76273866D01*
X137993523Y-76273866D02*
X137993523Y-76464342D01*
X137993523Y-76464342D02*
X137945904Y-76559580D01*
X137945904Y-76559580D02*
X137898285Y-76607200D01*
X137898285Y-76607200D02*
X137803047Y-76654819D01*
X137803047Y-76654819D02*
X137612571Y-76654819D01*
X137612571Y-76654819D02*
X137517333Y-76607200D01*
X137517333Y-76607200D02*
X137469714Y-76559580D01*
X137469714Y-76559580D02*
X137422095Y-76464342D01*
X137422095Y-76464342D02*
X137422095Y-76273866D01*
X137422095Y-76273866D02*
X137469714Y-76178628D01*
X137469714Y-76178628D02*
X137517333Y-76131009D01*
X137517333Y-76131009D02*
X137612571Y-76083390D01*
X136818666Y-105007580D02*
X136866285Y-105055200D01*
X136866285Y-105055200D02*
X137009142Y-105102819D01*
X137009142Y-105102819D02*
X137104380Y-105102819D01*
X137104380Y-105102819D02*
X137247237Y-105055200D01*
X137247237Y-105055200D02*
X137342475Y-104959961D01*
X137342475Y-104959961D02*
X137390094Y-104864723D01*
X137390094Y-104864723D02*
X137437713Y-104674247D01*
X137437713Y-104674247D02*
X137437713Y-104531390D01*
X137437713Y-104531390D02*
X137390094Y-104340914D01*
X137390094Y-104340914D02*
X137342475Y-104245676D01*
X137342475Y-104245676D02*
X137247237Y-104150438D01*
X137247237Y-104150438D02*
X137104380Y-104102819D01*
X137104380Y-104102819D02*
X137009142Y-104102819D01*
X137009142Y-104102819D02*
X136866285Y-104150438D01*
X136866285Y-104150438D02*
X136818666Y-104198057D01*
X136437713Y-104198057D02*
X136390094Y-104150438D01*
X136390094Y-104150438D02*
X136294856Y-104102819D01*
X136294856Y-104102819D02*
X136056761Y-104102819D01*
X136056761Y-104102819D02*
X135961523Y-104150438D01*
X135961523Y-104150438D02*
X135913904Y-104198057D01*
X135913904Y-104198057D02*
X135866285Y-104293295D01*
X135866285Y-104293295D02*
X135866285Y-104388533D01*
X135866285Y-104388533D02*
X135913904Y-104531390D01*
X135913904Y-104531390D02*
X136485332Y-105102819D01*
X136485332Y-105102819D02*
X135866285Y-105102819D01*
X140850857Y-71574819D02*
X141184190Y-71098628D01*
X141422285Y-71574819D02*
X141422285Y-70574819D01*
X141422285Y-70574819D02*
X141041333Y-70574819D01*
X141041333Y-70574819D02*
X140946095Y-70622438D01*
X140946095Y-70622438D02*
X140898476Y-70670057D01*
X140898476Y-70670057D02*
X140850857Y-70765295D01*
X140850857Y-70765295D02*
X140850857Y-70908152D01*
X140850857Y-70908152D02*
X140898476Y-71003390D01*
X140898476Y-71003390D02*
X140946095Y-71051009D01*
X140946095Y-71051009D02*
X141041333Y-71098628D01*
X141041333Y-71098628D02*
X141422285Y-71098628D01*
X140469904Y-70670057D02*
X140422285Y-70622438D01*
X140422285Y-70622438D02*
X140327047Y-70574819D01*
X140327047Y-70574819D02*
X140088952Y-70574819D01*
X140088952Y-70574819D02*
X139993714Y-70622438D01*
X139993714Y-70622438D02*
X139946095Y-70670057D01*
X139946095Y-70670057D02*
X139898476Y-70765295D01*
X139898476Y-70765295D02*
X139898476Y-70860533D01*
X139898476Y-70860533D02*
X139946095Y-71003390D01*
X139946095Y-71003390D02*
X140517523Y-71574819D01*
X140517523Y-71574819D02*
X139898476Y-71574819D01*
X139041333Y-70574819D02*
X139231809Y-70574819D01*
X139231809Y-70574819D02*
X139327047Y-70622438D01*
X139327047Y-70622438D02*
X139374666Y-70670057D01*
X139374666Y-70670057D02*
X139469904Y-70812914D01*
X139469904Y-70812914D02*
X139517523Y-71003390D01*
X139517523Y-71003390D02*
X139517523Y-71384342D01*
X139517523Y-71384342D02*
X139469904Y-71479580D01*
X139469904Y-71479580D02*
X139422285Y-71527200D01*
X139422285Y-71527200D02*
X139327047Y-71574819D01*
X139327047Y-71574819D02*
X139136571Y-71574819D01*
X139136571Y-71574819D02*
X139041333Y-71527200D01*
X139041333Y-71527200D02*
X138993714Y-71479580D01*
X138993714Y-71479580D02*
X138946095Y-71384342D01*
X138946095Y-71384342D02*
X138946095Y-71146247D01*
X138946095Y-71146247D02*
X138993714Y-71051009D01*
X138993714Y-71051009D02*
X139041333Y-71003390D01*
X139041333Y-71003390D02*
X139136571Y-70955771D01*
X139136571Y-70955771D02*
X139327047Y-70955771D01*
X139327047Y-70955771D02*
X139422285Y-71003390D01*
X139422285Y-71003390D02*
X139469904Y-71051009D01*
X139469904Y-71051009D02*
X139517523Y-71146247D01*
X107322857Y-107039580D02*
X107370476Y-107087200D01*
X107370476Y-107087200D02*
X107513333Y-107134819D01*
X107513333Y-107134819D02*
X107608571Y-107134819D01*
X107608571Y-107134819D02*
X107751428Y-107087200D01*
X107751428Y-107087200D02*
X107846666Y-106991961D01*
X107846666Y-106991961D02*
X107894285Y-106896723D01*
X107894285Y-106896723D02*
X107941904Y-106706247D01*
X107941904Y-106706247D02*
X107941904Y-106563390D01*
X107941904Y-106563390D02*
X107894285Y-106372914D01*
X107894285Y-106372914D02*
X107846666Y-106277676D01*
X107846666Y-106277676D02*
X107751428Y-106182438D01*
X107751428Y-106182438D02*
X107608571Y-106134819D01*
X107608571Y-106134819D02*
X107513333Y-106134819D01*
X107513333Y-106134819D02*
X107370476Y-106182438D01*
X107370476Y-106182438D02*
X107322857Y-106230057D01*
X106989523Y-106134819D02*
X106370476Y-106134819D01*
X106370476Y-106134819D02*
X106703809Y-106515771D01*
X106703809Y-106515771D02*
X106560952Y-106515771D01*
X106560952Y-106515771D02*
X106465714Y-106563390D01*
X106465714Y-106563390D02*
X106418095Y-106611009D01*
X106418095Y-106611009D02*
X106370476Y-106706247D01*
X106370476Y-106706247D02*
X106370476Y-106944342D01*
X106370476Y-106944342D02*
X106418095Y-107039580D01*
X106418095Y-107039580D02*
X106465714Y-107087200D01*
X106465714Y-107087200D02*
X106560952Y-107134819D01*
X106560952Y-107134819D02*
X106846666Y-107134819D01*
X106846666Y-107134819D02*
X106941904Y-107087200D01*
X106941904Y-107087200D02*
X106989523Y-107039580D01*
X105799047Y-106563390D02*
X105894285Y-106515771D01*
X105894285Y-106515771D02*
X105941904Y-106468152D01*
X105941904Y-106468152D02*
X105989523Y-106372914D01*
X105989523Y-106372914D02*
X105989523Y-106325295D01*
X105989523Y-106325295D02*
X105941904Y-106230057D01*
X105941904Y-106230057D02*
X105894285Y-106182438D01*
X105894285Y-106182438D02*
X105799047Y-106134819D01*
X105799047Y-106134819D02*
X105608571Y-106134819D01*
X105608571Y-106134819D02*
X105513333Y-106182438D01*
X105513333Y-106182438D02*
X105465714Y-106230057D01*
X105465714Y-106230057D02*
X105418095Y-106325295D01*
X105418095Y-106325295D02*
X105418095Y-106372914D01*
X105418095Y-106372914D02*
X105465714Y-106468152D01*
X105465714Y-106468152D02*
X105513333Y-106515771D01*
X105513333Y-106515771D02*
X105608571Y-106563390D01*
X105608571Y-106563390D02*
X105799047Y-106563390D01*
X105799047Y-106563390D02*
X105894285Y-106611009D01*
X105894285Y-106611009D02*
X105941904Y-106658628D01*
X105941904Y-106658628D02*
X105989523Y-106753866D01*
X105989523Y-106753866D02*
X105989523Y-106944342D01*
X105989523Y-106944342D02*
X105941904Y-107039580D01*
X105941904Y-107039580D02*
X105894285Y-107087200D01*
X105894285Y-107087200D02*
X105799047Y-107134819D01*
X105799047Y-107134819D02*
X105608571Y-107134819D01*
X105608571Y-107134819D02*
X105513333Y-107087200D01*
X105513333Y-107087200D02*
X105465714Y-107039580D01*
X105465714Y-107039580D02*
X105418095Y-106944342D01*
X105418095Y-106944342D02*
X105418095Y-106753866D01*
X105418095Y-106753866D02*
X105465714Y-106658628D01*
X105465714Y-106658628D02*
X105513333Y-106611009D01*
X105513333Y-106611009D02*
X105608571Y-106563390D01*
X128658857Y-78083580D02*
X128706476Y-78131200D01*
X128706476Y-78131200D02*
X128849333Y-78178819D01*
X128849333Y-78178819D02*
X128944571Y-78178819D01*
X128944571Y-78178819D02*
X129087428Y-78131200D01*
X129087428Y-78131200D02*
X129182666Y-78035961D01*
X129182666Y-78035961D02*
X129230285Y-77940723D01*
X129230285Y-77940723D02*
X129277904Y-77750247D01*
X129277904Y-77750247D02*
X129277904Y-77607390D01*
X129277904Y-77607390D02*
X129230285Y-77416914D01*
X129230285Y-77416914D02*
X129182666Y-77321676D01*
X129182666Y-77321676D02*
X129087428Y-77226438D01*
X129087428Y-77226438D02*
X128944571Y-77178819D01*
X128944571Y-77178819D02*
X128849333Y-77178819D01*
X128849333Y-77178819D02*
X128706476Y-77226438D01*
X128706476Y-77226438D02*
X128658857Y-77274057D01*
X127754095Y-77178819D02*
X128230285Y-77178819D01*
X128230285Y-77178819D02*
X128277904Y-77655009D01*
X128277904Y-77655009D02*
X128230285Y-77607390D01*
X128230285Y-77607390D02*
X128135047Y-77559771D01*
X128135047Y-77559771D02*
X127896952Y-77559771D01*
X127896952Y-77559771D02*
X127801714Y-77607390D01*
X127801714Y-77607390D02*
X127754095Y-77655009D01*
X127754095Y-77655009D02*
X127706476Y-77750247D01*
X127706476Y-77750247D02*
X127706476Y-77988342D01*
X127706476Y-77988342D02*
X127754095Y-78083580D01*
X127754095Y-78083580D02*
X127801714Y-78131200D01*
X127801714Y-78131200D02*
X127896952Y-78178819D01*
X127896952Y-78178819D02*
X128135047Y-78178819D01*
X128135047Y-78178819D02*
X128230285Y-78131200D01*
X128230285Y-78131200D02*
X128277904Y-78083580D01*
X127325523Y-77274057D02*
X127277904Y-77226438D01*
X127277904Y-77226438D02*
X127182666Y-77178819D01*
X127182666Y-77178819D02*
X126944571Y-77178819D01*
X126944571Y-77178819D02*
X126849333Y-77226438D01*
X126849333Y-77226438D02*
X126801714Y-77274057D01*
X126801714Y-77274057D02*
X126754095Y-77369295D01*
X126754095Y-77369295D02*
X126754095Y-77464533D01*
X126754095Y-77464533D02*
X126801714Y-77607390D01*
X126801714Y-77607390D02*
X127373142Y-78178819D01*
X127373142Y-78178819D02*
X126754095Y-78178819D01*
X136310666Y-96879580D02*
X136358285Y-96927200D01*
X136358285Y-96927200D02*
X136501142Y-96974819D01*
X136501142Y-96974819D02*
X136596380Y-96974819D01*
X136596380Y-96974819D02*
X136739237Y-96927200D01*
X136739237Y-96927200D02*
X136834475Y-96831961D01*
X136834475Y-96831961D02*
X136882094Y-96736723D01*
X136882094Y-96736723D02*
X136929713Y-96546247D01*
X136929713Y-96546247D02*
X136929713Y-96403390D01*
X136929713Y-96403390D02*
X136882094Y-96212914D01*
X136882094Y-96212914D02*
X136834475Y-96117676D01*
X136834475Y-96117676D02*
X136739237Y-96022438D01*
X136739237Y-96022438D02*
X136596380Y-95974819D01*
X136596380Y-95974819D02*
X136501142Y-95974819D01*
X136501142Y-95974819D02*
X136358285Y-96022438D01*
X136358285Y-96022438D02*
X136310666Y-96070057D01*
X135977332Y-95974819D02*
X135358285Y-95974819D01*
X135358285Y-95974819D02*
X135691618Y-96355771D01*
X135691618Y-96355771D02*
X135548761Y-96355771D01*
X135548761Y-96355771D02*
X135453523Y-96403390D01*
X135453523Y-96403390D02*
X135405904Y-96451009D01*
X135405904Y-96451009D02*
X135358285Y-96546247D01*
X135358285Y-96546247D02*
X135358285Y-96784342D01*
X135358285Y-96784342D02*
X135405904Y-96879580D01*
X135405904Y-96879580D02*
X135453523Y-96927200D01*
X135453523Y-96927200D02*
X135548761Y-96974819D01*
X135548761Y-96974819D02*
X135834475Y-96974819D01*
X135834475Y-96974819D02*
X135929713Y-96927200D01*
X135929713Y-96927200D02*
X135977332Y-96879580D01*
X110370857Y-92815580D02*
X110418476Y-92863200D01*
X110418476Y-92863200D02*
X110561333Y-92910819D01*
X110561333Y-92910819D02*
X110656571Y-92910819D01*
X110656571Y-92910819D02*
X110799428Y-92863200D01*
X110799428Y-92863200D02*
X110894666Y-92767961D01*
X110894666Y-92767961D02*
X110942285Y-92672723D01*
X110942285Y-92672723D02*
X110989904Y-92482247D01*
X110989904Y-92482247D02*
X110989904Y-92339390D01*
X110989904Y-92339390D02*
X110942285Y-92148914D01*
X110942285Y-92148914D02*
X110894666Y-92053676D01*
X110894666Y-92053676D02*
X110799428Y-91958438D01*
X110799428Y-91958438D02*
X110656571Y-91910819D01*
X110656571Y-91910819D02*
X110561333Y-91910819D01*
X110561333Y-91910819D02*
X110418476Y-91958438D01*
X110418476Y-91958438D02*
X110370857Y-92006057D01*
X109513714Y-92244152D02*
X109513714Y-92910819D01*
X109751809Y-91863200D02*
X109989904Y-92577485D01*
X109989904Y-92577485D02*
X109370857Y-92577485D01*
X108847047Y-92339390D02*
X108942285Y-92291771D01*
X108942285Y-92291771D02*
X108989904Y-92244152D01*
X108989904Y-92244152D02*
X109037523Y-92148914D01*
X109037523Y-92148914D02*
X109037523Y-92101295D01*
X109037523Y-92101295D02*
X108989904Y-92006057D01*
X108989904Y-92006057D02*
X108942285Y-91958438D01*
X108942285Y-91958438D02*
X108847047Y-91910819D01*
X108847047Y-91910819D02*
X108656571Y-91910819D01*
X108656571Y-91910819D02*
X108561333Y-91958438D01*
X108561333Y-91958438D02*
X108513714Y-92006057D01*
X108513714Y-92006057D02*
X108466095Y-92101295D01*
X108466095Y-92101295D02*
X108466095Y-92148914D01*
X108466095Y-92148914D02*
X108513714Y-92244152D01*
X108513714Y-92244152D02*
X108561333Y-92291771D01*
X108561333Y-92291771D02*
X108656571Y-92339390D01*
X108656571Y-92339390D02*
X108847047Y-92339390D01*
X108847047Y-92339390D02*
X108942285Y-92387009D01*
X108942285Y-92387009D02*
X108989904Y-92434628D01*
X108989904Y-92434628D02*
X109037523Y-92529866D01*
X109037523Y-92529866D02*
X109037523Y-92720342D01*
X109037523Y-92720342D02*
X108989904Y-92815580D01*
X108989904Y-92815580D02*
X108942285Y-92863200D01*
X108942285Y-92863200D02*
X108847047Y-92910819D01*
X108847047Y-92910819D02*
X108656571Y-92910819D01*
X108656571Y-92910819D02*
X108561333Y-92863200D01*
X108561333Y-92863200D02*
X108513714Y-92815580D01*
X108513714Y-92815580D02*
X108466095Y-92720342D01*
X108466095Y-92720342D02*
X108466095Y-92529866D01*
X108466095Y-92529866D02*
X108513714Y-92434628D01*
X108513714Y-92434628D02*
X108561333Y-92387009D01*
X108561333Y-92387009D02*
X108656571Y-92339390D01*
X154566857Y-91291580D02*
X154614476Y-91339200D01*
X154614476Y-91339200D02*
X154757333Y-91386819D01*
X154757333Y-91386819D02*
X154852571Y-91386819D01*
X154852571Y-91386819D02*
X154995428Y-91339200D01*
X154995428Y-91339200D02*
X155090666Y-91243961D01*
X155090666Y-91243961D02*
X155138285Y-91148723D01*
X155138285Y-91148723D02*
X155185904Y-90958247D01*
X155185904Y-90958247D02*
X155185904Y-90815390D01*
X155185904Y-90815390D02*
X155138285Y-90624914D01*
X155138285Y-90624914D02*
X155090666Y-90529676D01*
X155090666Y-90529676D02*
X154995428Y-90434438D01*
X154995428Y-90434438D02*
X154852571Y-90386819D01*
X154852571Y-90386819D02*
X154757333Y-90386819D01*
X154757333Y-90386819D02*
X154614476Y-90434438D01*
X154614476Y-90434438D02*
X154566857Y-90482057D01*
X153709714Y-90386819D02*
X153900190Y-90386819D01*
X153900190Y-90386819D02*
X153995428Y-90434438D01*
X153995428Y-90434438D02*
X154043047Y-90482057D01*
X154043047Y-90482057D02*
X154138285Y-90624914D01*
X154138285Y-90624914D02*
X154185904Y-90815390D01*
X154185904Y-90815390D02*
X154185904Y-91196342D01*
X154185904Y-91196342D02*
X154138285Y-91291580D01*
X154138285Y-91291580D02*
X154090666Y-91339200D01*
X154090666Y-91339200D02*
X153995428Y-91386819D01*
X153995428Y-91386819D02*
X153804952Y-91386819D01*
X153804952Y-91386819D02*
X153709714Y-91339200D01*
X153709714Y-91339200D02*
X153662095Y-91291580D01*
X153662095Y-91291580D02*
X153614476Y-91196342D01*
X153614476Y-91196342D02*
X153614476Y-90958247D01*
X153614476Y-90958247D02*
X153662095Y-90863009D01*
X153662095Y-90863009D02*
X153709714Y-90815390D01*
X153709714Y-90815390D02*
X153804952Y-90767771D01*
X153804952Y-90767771D02*
X153995428Y-90767771D01*
X153995428Y-90767771D02*
X154090666Y-90815390D01*
X154090666Y-90815390D02*
X154138285Y-90863009D01*
X154138285Y-90863009D02*
X154185904Y-90958247D01*
X153233523Y-90482057D02*
X153185904Y-90434438D01*
X153185904Y-90434438D02*
X153090666Y-90386819D01*
X153090666Y-90386819D02*
X152852571Y-90386819D01*
X152852571Y-90386819D02*
X152757333Y-90434438D01*
X152757333Y-90434438D02*
X152709714Y-90482057D01*
X152709714Y-90482057D02*
X152662095Y-90577295D01*
X152662095Y-90577295D02*
X152662095Y-90672533D01*
X152662095Y-90672533D02*
X152709714Y-90815390D01*
X152709714Y-90815390D02*
X153281142Y-91386819D01*
X153281142Y-91386819D02*
X152662095Y-91386819D01*
X133738857Y-90783580D02*
X133786476Y-90831200D01*
X133786476Y-90831200D02*
X133929333Y-90878819D01*
X133929333Y-90878819D02*
X134024571Y-90878819D01*
X134024571Y-90878819D02*
X134167428Y-90831200D01*
X134167428Y-90831200D02*
X134262666Y-90735961D01*
X134262666Y-90735961D02*
X134310285Y-90640723D01*
X134310285Y-90640723D02*
X134357904Y-90450247D01*
X134357904Y-90450247D02*
X134357904Y-90307390D01*
X134357904Y-90307390D02*
X134310285Y-90116914D01*
X134310285Y-90116914D02*
X134262666Y-90021676D01*
X134262666Y-90021676D02*
X134167428Y-89926438D01*
X134167428Y-89926438D02*
X134024571Y-89878819D01*
X134024571Y-89878819D02*
X133929333Y-89878819D01*
X133929333Y-89878819D02*
X133786476Y-89926438D01*
X133786476Y-89926438D02*
X133738857Y-89974057D01*
X132786476Y-90878819D02*
X133357904Y-90878819D01*
X133072190Y-90878819D02*
X133072190Y-89878819D01*
X133072190Y-89878819D02*
X133167428Y-90021676D01*
X133167428Y-90021676D02*
X133262666Y-90116914D01*
X133262666Y-90116914D02*
X133357904Y-90164533D01*
X132405523Y-89974057D02*
X132357904Y-89926438D01*
X132357904Y-89926438D02*
X132262666Y-89878819D01*
X132262666Y-89878819D02*
X132024571Y-89878819D01*
X132024571Y-89878819D02*
X131929333Y-89926438D01*
X131929333Y-89926438D02*
X131881714Y-89974057D01*
X131881714Y-89974057D02*
X131834095Y-90069295D01*
X131834095Y-90069295D02*
X131834095Y-90164533D01*
X131834095Y-90164533D02*
X131881714Y-90307390D01*
X131881714Y-90307390D02*
X132453142Y-90878819D01*
X132453142Y-90878819D02*
X131834095Y-90878819D01*
X107322857Y-96879580D02*
X107370476Y-96927200D01*
X107370476Y-96927200D02*
X107513333Y-96974819D01*
X107513333Y-96974819D02*
X107608571Y-96974819D01*
X107608571Y-96974819D02*
X107751428Y-96927200D01*
X107751428Y-96927200D02*
X107846666Y-96831961D01*
X107846666Y-96831961D02*
X107894285Y-96736723D01*
X107894285Y-96736723D02*
X107941904Y-96546247D01*
X107941904Y-96546247D02*
X107941904Y-96403390D01*
X107941904Y-96403390D02*
X107894285Y-96212914D01*
X107894285Y-96212914D02*
X107846666Y-96117676D01*
X107846666Y-96117676D02*
X107751428Y-96022438D01*
X107751428Y-96022438D02*
X107608571Y-95974819D01*
X107608571Y-95974819D02*
X107513333Y-95974819D01*
X107513333Y-95974819D02*
X107370476Y-96022438D01*
X107370476Y-96022438D02*
X107322857Y-96070057D01*
X106370476Y-96974819D02*
X106941904Y-96974819D01*
X106656190Y-96974819D02*
X106656190Y-95974819D01*
X106656190Y-95974819D02*
X106751428Y-96117676D01*
X106751428Y-96117676D02*
X106846666Y-96212914D01*
X106846666Y-96212914D02*
X106941904Y-96260533D01*
X105751428Y-95974819D02*
X105656190Y-95974819D01*
X105656190Y-95974819D02*
X105560952Y-96022438D01*
X105560952Y-96022438D02*
X105513333Y-96070057D01*
X105513333Y-96070057D02*
X105465714Y-96165295D01*
X105465714Y-96165295D02*
X105418095Y-96355771D01*
X105418095Y-96355771D02*
X105418095Y-96593866D01*
X105418095Y-96593866D02*
X105465714Y-96784342D01*
X105465714Y-96784342D02*
X105513333Y-96879580D01*
X105513333Y-96879580D02*
X105560952Y-96927200D01*
X105560952Y-96927200D02*
X105656190Y-96974819D01*
X105656190Y-96974819D02*
X105751428Y-96974819D01*
X105751428Y-96974819D02*
X105846666Y-96927200D01*
X105846666Y-96927200D02*
X105894285Y-96879580D01*
X105894285Y-96879580D02*
X105941904Y-96784342D01*
X105941904Y-96784342D02*
X105989523Y-96593866D01*
X105989523Y-96593866D02*
X105989523Y-96355771D01*
X105989523Y-96355771D02*
X105941904Y-96165295D01*
X105941904Y-96165295D02*
X105894285Y-96070057D01*
X105894285Y-96070057D02*
X105846666Y-96022438D01*
X105846666Y-96022438D02*
X105751428Y-95974819D01*
X143390857Y-66494819D02*
X143724190Y-66018628D01*
X143962285Y-66494819D02*
X143962285Y-65494819D01*
X143962285Y-65494819D02*
X143581333Y-65494819D01*
X143581333Y-65494819D02*
X143486095Y-65542438D01*
X143486095Y-65542438D02*
X143438476Y-65590057D01*
X143438476Y-65590057D02*
X143390857Y-65685295D01*
X143390857Y-65685295D02*
X143390857Y-65828152D01*
X143390857Y-65828152D02*
X143438476Y-65923390D01*
X143438476Y-65923390D02*
X143486095Y-65971009D01*
X143486095Y-65971009D02*
X143581333Y-66018628D01*
X143581333Y-66018628D02*
X143962285Y-66018628D01*
X143009904Y-65590057D02*
X142962285Y-65542438D01*
X142962285Y-65542438D02*
X142867047Y-65494819D01*
X142867047Y-65494819D02*
X142628952Y-65494819D01*
X142628952Y-65494819D02*
X142533714Y-65542438D01*
X142533714Y-65542438D02*
X142486095Y-65590057D01*
X142486095Y-65590057D02*
X142438476Y-65685295D01*
X142438476Y-65685295D02*
X142438476Y-65780533D01*
X142438476Y-65780533D02*
X142486095Y-65923390D01*
X142486095Y-65923390D02*
X143057523Y-66494819D01*
X143057523Y-66494819D02*
X142438476Y-66494819D01*
X142105142Y-65494819D02*
X141438476Y-65494819D01*
X141438476Y-65494819D02*
X141867047Y-66494819D01*
X107354666Y-94847580D02*
X107402285Y-94895200D01*
X107402285Y-94895200D02*
X107545142Y-94942819D01*
X107545142Y-94942819D02*
X107640380Y-94942819D01*
X107640380Y-94942819D02*
X107783237Y-94895200D01*
X107783237Y-94895200D02*
X107878475Y-94799961D01*
X107878475Y-94799961D02*
X107926094Y-94704723D01*
X107926094Y-94704723D02*
X107973713Y-94514247D01*
X107973713Y-94514247D02*
X107973713Y-94371390D01*
X107973713Y-94371390D02*
X107926094Y-94180914D01*
X107926094Y-94180914D02*
X107878475Y-94085676D01*
X107878475Y-94085676D02*
X107783237Y-93990438D01*
X107783237Y-93990438D02*
X107640380Y-93942819D01*
X107640380Y-93942819D02*
X107545142Y-93942819D01*
X107545142Y-93942819D02*
X107402285Y-93990438D01*
X107402285Y-93990438D02*
X107354666Y-94038057D01*
X106449904Y-93942819D02*
X106926094Y-93942819D01*
X106926094Y-93942819D02*
X106973713Y-94419009D01*
X106973713Y-94419009D02*
X106926094Y-94371390D01*
X106926094Y-94371390D02*
X106830856Y-94323771D01*
X106830856Y-94323771D02*
X106592761Y-94323771D01*
X106592761Y-94323771D02*
X106497523Y-94371390D01*
X106497523Y-94371390D02*
X106449904Y-94419009D01*
X106449904Y-94419009D02*
X106402285Y-94514247D01*
X106402285Y-94514247D02*
X106402285Y-94752342D01*
X106402285Y-94752342D02*
X106449904Y-94847580D01*
X106449904Y-94847580D02*
X106497523Y-94895200D01*
X106497523Y-94895200D02*
X106592761Y-94942819D01*
X106592761Y-94942819D02*
X106830856Y-94942819D01*
X106830856Y-94942819D02*
X106926094Y-94895200D01*
X106926094Y-94895200D02*
X106973713Y-94847580D01*
X136818666Y-107134819D02*
X137151999Y-106658628D01*
X137390094Y-107134819D02*
X137390094Y-106134819D01*
X137390094Y-106134819D02*
X137009142Y-106134819D01*
X137009142Y-106134819D02*
X136913904Y-106182438D01*
X136913904Y-106182438D02*
X136866285Y-106230057D01*
X136866285Y-106230057D02*
X136818666Y-106325295D01*
X136818666Y-106325295D02*
X136818666Y-106468152D01*
X136818666Y-106468152D02*
X136866285Y-106563390D01*
X136866285Y-106563390D02*
X136913904Y-106611009D01*
X136913904Y-106611009D02*
X137009142Y-106658628D01*
X137009142Y-106658628D02*
X137390094Y-106658628D01*
X136342475Y-107134819D02*
X136151999Y-107134819D01*
X136151999Y-107134819D02*
X136056761Y-107087200D01*
X136056761Y-107087200D02*
X136009142Y-107039580D01*
X136009142Y-107039580D02*
X135913904Y-106896723D01*
X135913904Y-106896723D02*
X135866285Y-106706247D01*
X135866285Y-106706247D02*
X135866285Y-106325295D01*
X135866285Y-106325295D02*
X135913904Y-106230057D01*
X135913904Y-106230057D02*
X135961523Y-106182438D01*
X135961523Y-106182438D02*
X136056761Y-106134819D01*
X136056761Y-106134819D02*
X136247237Y-106134819D01*
X136247237Y-106134819D02*
X136342475Y-106182438D01*
X136342475Y-106182438D02*
X136390094Y-106230057D01*
X136390094Y-106230057D02*
X136437713Y-106325295D01*
X136437713Y-106325295D02*
X136437713Y-106563390D01*
X136437713Y-106563390D02*
X136390094Y-106658628D01*
X136390094Y-106658628D02*
X136342475Y-106706247D01*
X136342475Y-106706247D02*
X136247237Y-106753866D01*
X136247237Y-106753866D02*
X136056761Y-106753866D01*
X136056761Y-106753866D02*
X135961523Y-106706247D01*
X135961523Y-106706247D02*
X135913904Y-106658628D01*
X135913904Y-106658628D02*
X135866285Y-106563390D01*
X104274857Y-94942819D02*
X104608190Y-94466628D01*
X104846285Y-94942819D02*
X104846285Y-93942819D01*
X104846285Y-93942819D02*
X104465333Y-93942819D01*
X104465333Y-93942819D02*
X104370095Y-93990438D01*
X104370095Y-93990438D02*
X104322476Y-94038057D01*
X104322476Y-94038057D02*
X104274857Y-94133295D01*
X104274857Y-94133295D02*
X104274857Y-94276152D01*
X104274857Y-94276152D02*
X104322476Y-94371390D01*
X104322476Y-94371390D02*
X104370095Y-94419009D01*
X104370095Y-94419009D02*
X104465333Y-94466628D01*
X104465333Y-94466628D02*
X104846285Y-94466628D01*
X103322476Y-94942819D02*
X103893904Y-94942819D01*
X103608190Y-94942819D02*
X103608190Y-93942819D01*
X103608190Y-93942819D02*
X103703428Y-94085676D01*
X103703428Y-94085676D02*
X103798666Y-94180914D01*
X103798666Y-94180914D02*
X103893904Y-94228533D01*
X102989142Y-93942819D02*
X102370095Y-93942819D01*
X102370095Y-93942819D02*
X102703428Y-94323771D01*
X102703428Y-94323771D02*
X102560571Y-94323771D01*
X102560571Y-94323771D02*
X102465333Y-94371390D01*
X102465333Y-94371390D02*
X102417714Y-94419009D01*
X102417714Y-94419009D02*
X102370095Y-94514247D01*
X102370095Y-94514247D02*
X102370095Y-94752342D01*
X102370095Y-94752342D02*
X102417714Y-94847580D01*
X102417714Y-94847580D02*
X102465333Y-94895200D01*
X102465333Y-94895200D02*
X102560571Y-94942819D01*
X102560571Y-94942819D02*
X102846285Y-94942819D01*
X102846285Y-94942819D02*
X102941523Y-94895200D01*
X102941523Y-94895200D02*
X102989142Y-94847580D01*
X122054857Y-52778819D02*
X122388190Y-52302628D01*
X122626285Y-52778819D02*
X122626285Y-51778819D01*
X122626285Y-51778819D02*
X122245333Y-51778819D01*
X122245333Y-51778819D02*
X122150095Y-51826438D01*
X122150095Y-51826438D02*
X122102476Y-51874057D01*
X122102476Y-51874057D02*
X122054857Y-51969295D01*
X122054857Y-51969295D02*
X122054857Y-52112152D01*
X122054857Y-52112152D02*
X122102476Y-52207390D01*
X122102476Y-52207390D02*
X122150095Y-52255009D01*
X122150095Y-52255009D02*
X122245333Y-52302628D01*
X122245333Y-52302628D02*
X122626285Y-52302628D01*
X121721523Y-51778819D02*
X121102476Y-51778819D01*
X121102476Y-51778819D02*
X121435809Y-52159771D01*
X121435809Y-52159771D02*
X121292952Y-52159771D01*
X121292952Y-52159771D02*
X121197714Y-52207390D01*
X121197714Y-52207390D02*
X121150095Y-52255009D01*
X121150095Y-52255009D02*
X121102476Y-52350247D01*
X121102476Y-52350247D02*
X121102476Y-52588342D01*
X121102476Y-52588342D02*
X121150095Y-52683580D01*
X121150095Y-52683580D02*
X121197714Y-52731200D01*
X121197714Y-52731200D02*
X121292952Y-52778819D01*
X121292952Y-52778819D02*
X121578666Y-52778819D01*
X121578666Y-52778819D02*
X121673904Y-52731200D01*
X121673904Y-52731200D02*
X121721523Y-52683580D01*
X120626285Y-52778819D02*
X120435809Y-52778819D01*
X120435809Y-52778819D02*
X120340571Y-52731200D01*
X120340571Y-52731200D02*
X120292952Y-52683580D01*
X120292952Y-52683580D02*
X120197714Y-52540723D01*
X120197714Y-52540723D02*
X120150095Y-52350247D01*
X120150095Y-52350247D02*
X120150095Y-51969295D01*
X120150095Y-51969295D02*
X120197714Y-51874057D01*
X120197714Y-51874057D02*
X120245333Y-51826438D01*
X120245333Y-51826438D02*
X120340571Y-51778819D01*
X120340571Y-51778819D02*
X120531047Y-51778819D01*
X120531047Y-51778819D02*
X120626285Y-51826438D01*
X120626285Y-51826438D02*
X120673904Y-51874057D01*
X120673904Y-51874057D02*
X120721523Y-51969295D01*
X120721523Y-51969295D02*
X120721523Y-52207390D01*
X120721523Y-52207390D02*
X120673904Y-52302628D01*
X120673904Y-52302628D02*
X120626285Y-52350247D01*
X120626285Y-52350247D02*
X120531047Y-52397866D01*
X120531047Y-52397866D02*
X120340571Y-52397866D01*
X120340571Y-52397866D02*
X120245333Y-52350247D01*
X120245333Y-52350247D02*
X120197714Y-52302628D01*
X120197714Y-52302628D02*
X120150095Y-52207390D01*
X154566857Y-71574819D02*
X154900190Y-71098628D01*
X155138285Y-71574819D02*
X155138285Y-70574819D01*
X155138285Y-70574819D02*
X154757333Y-70574819D01*
X154757333Y-70574819D02*
X154662095Y-70622438D01*
X154662095Y-70622438D02*
X154614476Y-70670057D01*
X154614476Y-70670057D02*
X154566857Y-70765295D01*
X154566857Y-70765295D02*
X154566857Y-70908152D01*
X154566857Y-70908152D02*
X154614476Y-71003390D01*
X154614476Y-71003390D02*
X154662095Y-71051009D01*
X154662095Y-71051009D02*
X154757333Y-71098628D01*
X154757333Y-71098628D02*
X155138285Y-71098628D01*
X154185904Y-70670057D02*
X154138285Y-70622438D01*
X154138285Y-70622438D02*
X154043047Y-70574819D01*
X154043047Y-70574819D02*
X153804952Y-70574819D01*
X153804952Y-70574819D02*
X153709714Y-70622438D01*
X153709714Y-70622438D02*
X153662095Y-70670057D01*
X153662095Y-70670057D02*
X153614476Y-70765295D01*
X153614476Y-70765295D02*
X153614476Y-70860533D01*
X153614476Y-70860533D02*
X153662095Y-71003390D01*
X153662095Y-71003390D02*
X154233523Y-71574819D01*
X154233523Y-71574819D02*
X153614476Y-71574819D01*
X152757333Y-70908152D02*
X152757333Y-71574819D01*
X152995428Y-70527200D02*
X153233523Y-71241485D01*
X153233523Y-71241485D02*
X152614476Y-71241485D01*
X104274857Y-96974819D02*
X104608190Y-96498628D01*
X104846285Y-96974819D02*
X104846285Y-95974819D01*
X104846285Y-95974819D02*
X104465333Y-95974819D01*
X104465333Y-95974819D02*
X104370095Y-96022438D01*
X104370095Y-96022438D02*
X104322476Y-96070057D01*
X104322476Y-96070057D02*
X104274857Y-96165295D01*
X104274857Y-96165295D02*
X104274857Y-96308152D01*
X104274857Y-96308152D02*
X104322476Y-96403390D01*
X104322476Y-96403390D02*
X104370095Y-96451009D01*
X104370095Y-96451009D02*
X104465333Y-96498628D01*
X104465333Y-96498628D02*
X104846285Y-96498628D01*
X103322476Y-96974819D02*
X103893904Y-96974819D01*
X103608190Y-96974819D02*
X103608190Y-95974819D01*
X103608190Y-95974819D02*
X103703428Y-96117676D01*
X103703428Y-96117676D02*
X103798666Y-96212914D01*
X103798666Y-96212914D02*
X103893904Y-96260533D01*
X102465333Y-96308152D02*
X102465333Y-96974819D01*
X102703428Y-95927200D02*
X102941523Y-96641485D01*
X102941523Y-96641485D02*
X102322476Y-96641485D01*
X110402666Y-90783580D02*
X110450285Y-90831200D01*
X110450285Y-90831200D02*
X110593142Y-90878819D01*
X110593142Y-90878819D02*
X110688380Y-90878819D01*
X110688380Y-90878819D02*
X110831237Y-90831200D01*
X110831237Y-90831200D02*
X110926475Y-90735961D01*
X110926475Y-90735961D02*
X110974094Y-90640723D01*
X110974094Y-90640723D02*
X111021713Y-90450247D01*
X111021713Y-90450247D02*
X111021713Y-90307390D01*
X111021713Y-90307390D02*
X110974094Y-90116914D01*
X110974094Y-90116914D02*
X110926475Y-90021676D01*
X110926475Y-90021676D02*
X110831237Y-89926438D01*
X110831237Y-89926438D02*
X110688380Y-89878819D01*
X110688380Y-89878819D02*
X110593142Y-89878819D01*
X110593142Y-89878819D02*
X110450285Y-89926438D01*
X110450285Y-89926438D02*
X110402666Y-89974057D01*
X109545523Y-89878819D02*
X109735999Y-89878819D01*
X109735999Y-89878819D02*
X109831237Y-89926438D01*
X109831237Y-89926438D02*
X109878856Y-89974057D01*
X109878856Y-89974057D02*
X109974094Y-90116914D01*
X109974094Y-90116914D02*
X110021713Y-90307390D01*
X110021713Y-90307390D02*
X110021713Y-90688342D01*
X110021713Y-90688342D02*
X109974094Y-90783580D01*
X109974094Y-90783580D02*
X109926475Y-90831200D01*
X109926475Y-90831200D02*
X109831237Y-90878819D01*
X109831237Y-90878819D02*
X109640761Y-90878819D01*
X109640761Y-90878819D02*
X109545523Y-90831200D01*
X109545523Y-90831200D02*
X109497904Y-90783580D01*
X109497904Y-90783580D02*
X109450285Y-90688342D01*
X109450285Y-90688342D02*
X109450285Y-90450247D01*
X109450285Y-90450247D02*
X109497904Y-90355009D01*
X109497904Y-90355009D02*
X109545523Y-90307390D01*
X109545523Y-90307390D02*
X109640761Y-90259771D01*
X109640761Y-90259771D02*
X109831237Y-90259771D01*
X109831237Y-90259771D02*
X109926475Y-90307390D01*
X109926475Y-90307390D02*
X109974094Y-90355009D01*
X109974094Y-90355009D02*
X110021713Y-90450247D01*
D11*
%TO.C,C50*%
X143537000Y-93464748D02*
X143537000Y-93987252D01*
X145007000Y-93464748D02*
X145007000Y-93987252D01*
%TO.C,C68*%
X155088000Y-137871252D02*
X155088000Y-136448748D01*
X153268000Y-137871252D02*
X153268000Y-136448748D01*
%TO.C,R15*%
X113511064Y-103913000D02*
X113056936Y-103913000D01*
X113511064Y-105383000D02*
X113056936Y-105383000D01*
%TO.C,C20*%
X125214748Y-95785000D02*
X125737252Y-95785000D01*
X125214748Y-97255000D02*
X125737252Y-97255000D01*
%TO.C,C24*%
X121673252Y-95785000D02*
X121150748Y-95785000D01*
X121673252Y-97255000D02*
X121150748Y-97255000D01*
%TO.C,R11*%
X80037000Y-139889564D02*
X80037000Y-139435436D01*
X81507000Y-139889564D02*
X81507000Y-139435436D01*
%TO.C,C61*%
X98290748Y-83085000D02*
X98813252Y-83085000D01*
X98290748Y-84555000D02*
X98813252Y-84555000D01*
%TO.C,C9*%
X125214748Y-103913000D02*
X125737252Y-103913000D01*
X125214748Y-105383000D02*
X125737252Y-105383000D01*
%TO.C,R40*%
X126011000Y-55091064D02*
X126011000Y-54636936D01*
X127481000Y-55091064D02*
X127481000Y-54636936D01*
%TO.C,C25*%
X129278748Y-97817000D02*
X129801252Y-97817000D01*
X129278748Y-99287000D02*
X129801252Y-99287000D01*
%TO.C,R2*%
X100864936Y-66829000D02*
X101319064Y-66829000D01*
X100864936Y-68299000D02*
X101319064Y-68299000D01*
%TO.C,C34*%
X129786748Y-84101000D02*
X130309252Y-84101000D01*
X129786748Y-85571000D02*
X130309252Y-85571000D01*
%TO.C,R34*%
X143537000Y-68807064D02*
X143537000Y-68352936D01*
X145007000Y-68807064D02*
X145007000Y-68352936D01*
%TO.C,C29*%
X93718748Y-87149000D02*
X94241252Y-87149000D01*
X93718748Y-88619000D02*
X94241252Y-88619000D01*
%TO.C,R1*%
X101319064Y-68861000D02*
X100864936Y-68861000D01*
X101319064Y-70331000D02*
X100864936Y-70331000D01*
%TO.C,C19*%
X121673252Y-93753000D02*
X121150748Y-93753000D01*
X121673252Y-95223000D02*
X121150748Y-95223000D01*
%TO.C,C14*%
X117609252Y-97817000D02*
X117086748Y-97817000D01*
X117609252Y-99287000D02*
X117086748Y-99287000D01*
%TO.C,R23*%
X149633000Y-68807064D02*
X149633000Y-68352936D01*
X151103000Y-68807064D02*
X151103000Y-68352936D01*
%TO.C,R20*%
X113511064Y-105945000D02*
X113056936Y-105945000D01*
X113511064Y-107415000D02*
X113056936Y-107415000D01*
%TO.C,C1*%
X121673252Y-101881000D02*
X121150748Y-101881000D01*
X121673252Y-103351000D02*
X121150748Y-103351000D01*
%TO.C,C54*%
X146664000Y-72948748D02*
X146664000Y-74371252D01*
X148484000Y-72948748D02*
X148484000Y-74371252D01*
%TO.C,C16*%
X125737252Y-93753000D02*
X125214748Y-93753000D01*
X125737252Y-95223000D02*
X125214748Y-95223000D01*
%TO.C,C21*%
X129278748Y-99849000D02*
X129801252Y-99849000D01*
X129278748Y-101319000D02*
X129801252Y-101319000D01*
%TO.C,C67*%
X96293000Y-139984248D02*
X96293000Y-140506752D01*
X97763000Y-139984248D02*
X97763000Y-140506752D01*
%TO.C,R28*%
X147601000Y-68352936D02*
X147601000Y-68807064D01*
X149071000Y-68352936D02*
X149071000Y-68807064D01*
%TO.C,C15*%
X121673252Y-103913000D02*
X121150748Y-103913000D01*
X121673252Y-105383000D02*
X121150748Y-105383000D01*
%TO.C,R43*%
X98325000Y-140472564D02*
X98325000Y-140018436D01*
X99795000Y-140472564D02*
X99795000Y-140018436D01*
%TO.C,R4*%
X87657000Y-140002436D02*
X87657000Y-140456564D01*
X89127000Y-140002436D02*
X89127000Y-140456564D01*
%TO.C,R25*%
X137441000Y-68352936D02*
X137441000Y-68807064D01*
X138911000Y-68352936D02*
X138911000Y-68807064D01*
%TO.C,C26*%
X117609252Y-103913000D02*
X117086748Y-103913000D01*
X117609252Y-105383000D02*
X117086748Y-105383000D01*
%TO.C,C59*%
X144124000Y-72948748D02*
X144124000Y-74371252D01*
X145944000Y-72948748D02*
X145944000Y-74371252D01*
%TO.C,C11*%
X121150748Y-99849000D02*
X121673252Y-99849000D01*
X121150748Y-101319000D02*
X121673252Y-101319000D01*
%TO.C,C22*%
X125737252Y-99849000D02*
X125214748Y-99849000D01*
X125737252Y-101319000D02*
X125214748Y-101319000D01*
%TO.C,C65*%
X150085248Y-92229000D02*
X150607752Y-92229000D01*
X150085248Y-93699000D02*
X150607752Y-93699000D01*
%TO.C,R33*%
X145569000Y-68807064D02*
X145569000Y-68352936D01*
X147039000Y-68807064D02*
X147039000Y-68352936D01*
%TO.C,C66*%
X123550000Y-55321252D02*
X123550000Y-53898748D01*
X125370000Y-55321252D02*
X125370000Y-53898748D01*
%TO.C,C4*%
X129801252Y-91721000D02*
X129278748Y-91721000D01*
X129801252Y-93191000D02*
X129278748Y-93191000D01*
%TO.C,R36*%
X98832936Y-90197000D02*
X99287064Y-90197000D01*
X98832936Y-91667000D02*
X99287064Y-91667000D01*
%TO.C,R42*%
X100357000Y-140018436D02*
X100357000Y-140472564D01*
X101827000Y-140018436D02*
X101827000Y-140472564D01*
%TO.C,C49*%
X125214748Y-91721000D02*
X125737252Y-91721000D01*
X125214748Y-93191000D02*
X125737252Y-93191000D01*
%TO.C,C28*%
X98798748Y-87695000D02*
X99321252Y-87695000D01*
X98798748Y-89165000D02*
X99321252Y-89165000D01*
%TO.C,C31*%
X91721000Y-139968248D02*
X91721000Y-140490752D01*
X93191000Y-139968248D02*
X93191000Y-140490752D01*
%TO.C,C57*%
X149125000Y-73921252D02*
X149125000Y-73398748D01*
X150595000Y-73921252D02*
X150595000Y-73398748D01*
%TO.C,C51*%
X141505000Y-93464748D02*
X141505000Y-93987252D01*
X142975000Y-93464748D02*
X142975000Y-93987252D01*
%TO.C,C27*%
X117609252Y-101881000D02*
X117086748Y-101881000D01*
X117609252Y-103351000D02*
X117086748Y-103351000D01*
%TO.C,C33*%
X126245252Y-84101000D02*
X125722748Y-84101000D01*
X126245252Y-85571000D02*
X125722748Y-85571000D01*
%TO.C,R16*%
X113511064Y-101881000D02*
X113056936Y-101881000D01*
X113511064Y-103351000D02*
X113056936Y-103351000D01*
%TO.C,C23*%
X121673252Y-97817000D02*
X121150748Y-97817000D01*
X121673252Y-99287000D02*
X121150748Y-99287000D01*
%TO.C,C46*%
X125757000Y-120134748D02*
X125757000Y-120657252D01*
X127227000Y-120134748D02*
X127227000Y-120657252D01*
%TO.C,R10*%
X125248936Y-105945000D02*
X125703064Y-105945000D01*
X125248936Y-107415000D02*
X125703064Y-107415000D01*
%TO.C,R17*%
X113511064Y-97817000D02*
X113056936Y-97817000D01*
X113511064Y-99287000D02*
X113056936Y-99287000D01*
%TO.C,C18*%
X125737252Y-97817000D02*
X125214748Y-97817000D01*
X125737252Y-99287000D02*
X125214748Y-99287000D01*
%TO.C,R37*%
X98324936Y-81053000D02*
X98779064Y-81053000D01*
X98324936Y-82523000D02*
X98779064Y-82523000D01*
%TO.C,C41*%
X101353252Y-70893000D02*
X100830748Y-70893000D01*
X101353252Y-72363000D02*
X100830748Y-72363000D01*
%TO.C,C17*%
X125737252Y-101881000D02*
X125214748Y-101881000D01*
X125737252Y-103351000D02*
X125214748Y-103351000D01*
%TO.C,C53*%
X131811752Y-79021000D02*
X131289248Y-79021000D01*
X131811752Y-80491000D02*
X131289248Y-80491000D01*
%TO.C,C37*%
X121150748Y-105945000D02*
X121673252Y-105945000D01*
X121150748Y-107415000D02*
X121673252Y-107415000D01*
%TO.C,C44*%
X121693000Y-120134748D02*
X121693000Y-120657252D01*
X123163000Y-120134748D02*
X123163000Y-120657252D01*
%TO.C,R12*%
X82069000Y-139889564D02*
X82069000Y-139435436D01*
X83539000Y-139889564D02*
X83539000Y-139435436D01*
%TO.C,R35*%
X142013000Y-73432936D02*
X142013000Y-73887064D01*
X143483000Y-73432936D02*
X143483000Y-73887064D01*
%TO.C,C7*%
X129278748Y-93753000D02*
X129801252Y-93753000D01*
X129278748Y-95223000D02*
X129801252Y-95223000D01*
%TO.C,C8*%
X129300248Y-101881000D02*
X129822752Y-101881000D01*
X129300248Y-103351000D02*
X129822752Y-103351000D01*
%TO.C,R18*%
X117575064Y-89689000D02*
X117120936Y-89689000D01*
X117575064Y-91159000D02*
X117120936Y-91159000D01*
%TO.C,C13*%
X117609252Y-99849000D02*
X117086748Y-99849000D01*
X117609252Y-101319000D02*
X117086748Y-101319000D01*
%TO.C,C47*%
X117609252Y-91721000D02*
X117086748Y-91721000D01*
X117609252Y-93191000D02*
X117086748Y-93191000D01*
%TO.C,R3*%
X89689000Y-140456564D02*
X89689000Y-140002436D01*
X91159000Y-140456564D02*
X91159000Y-140002436D01*
%TO.C,C58*%
X139981000Y-73921252D02*
X139981000Y-73398748D01*
X141451000Y-73921252D02*
X141451000Y-73398748D01*
%TO.C,C2*%
X129278748Y-103913000D02*
X129801252Y-103913000D01*
X129278748Y-105383000D02*
X129801252Y-105383000D01*
%TO.C,R26*%
X139473000Y-68352936D02*
X139473000Y-68807064D01*
X140943000Y-68352936D02*
X140943000Y-68807064D01*
%TO.C,C38*%
X117609252Y-105945000D02*
X117086748Y-105945000D01*
X117609252Y-107415000D02*
X117086748Y-107415000D01*
%TO.C,C52*%
X131833252Y-76989000D02*
X131310748Y-76989000D01*
X131833252Y-78459000D02*
X131310748Y-78459000D01*
%TO.C,C3*%
X129801252Y-95785000D02*
X129278748Y-95785000D01*
X129801252Y-97255000D02*
X129278748Y-97255000D01*
%TO.C,C48*%
X121150748Y-91721000D02*
X121673252Y-91721000D01*
X121150748Y-93191000D02*
X121673252Y-93191000D01*
%TO.C,C62*%
X150085248Y-90197000D02*
X150607752Y-90197000D01*
X150085248Y-91667000D02*
X150607752Y-91667000D01*
%TO.C,C12*%
X125214748Y-89689000D02*
X125737252Y-89689000D01*
X125214748Y-91159000D02*
X125737252Y-91159000D01*
%TO.C,C10*%
X117609252Y-95785000D02*
X117086748Y-95785000D01*
X117609252Y-97255000D02*
X117086748Y-97255000D01*
%TO.C,R27*%
X141505000Y-68352936D02*
X141505000Y-68807064D01*
X142975000Y-68352936D02*
X142975000Y-68807064D01*
%TO.C,C5*%
X117609252Y-93753000D02*
X117086748Y-93753000D01*
X117609252Y-95223000D02*
X117086748Y-95223000D01*
%TO.C,R9*%
X129767064Y-105945000D02*
X129312936Y-105945000D01*
X129767064Y-107415000D02*
X129312936Y-107415000D01*
%TO.C,R13*%
X113511064Y-93753000D02*
X113056936Y-93753000D01*
X113511064Y-95223000D02*
X113056936Y-95223000D01*
%TO.C,R39*%
X121439000Y-55091064D02*
X121439000Y-54636936D01*
X122909000Y-55091064D02*
X122909000Y-54636936D01*
%TO.C,R24*%
X151665000Y-68352936D02*
X151665000Y-68807064D01*
X153135000Y-68352936D02*
X153135000Y-68807064D01*
%TO.C,R14*%
X113511064Y-95785000D02*
X113056936Y-95785000D01*
X113511064Y-97255000D02*
X113056936Y-97255000D01*
%TO.C,C6*%
X121673252Y-89689000D02*
X121150748Y-89689000D01*
X121673252Y-91159000D02*
X121150748Y-91159000D01*
%TD*%
M02*
