%TF.GenerationSoftware,KiCad,Pcbnew,9.0.6-9.0.6~ubuntu24.04.1*%
%TF.CreationDate,2026-02-01T19:09:28-03:00*%
%TF.ProjectId,nuvoton_nuc980,6e75766f-746f-46e5-9f6e-75633938302e,0.0*%
%TF.SameCoordinates,Original*%
%TF.FileFunction,Soldermask,Bot*%
%TF.FilePolarity,Negative*%
%FSLAX46Y46*%
G04 Gerber Fmt 4.6, Leading zero omitted, Abs format (unit mm)*
G04 Created by KiCad (PCBNEW 9.0.6-9.0.6~ubuntu24.04.1) date 2026-02-01 19:09:28*
%MOMM*%
%LPD*%
G01*
G04 APERTURE LIST*
G04 Aperture macros list*
%AMRoundRect*
0 Rectangle with rounded corners*
0 $1 Rounding radius*
0 $2 $3 $4 $5 $6 $7 $8 $9 X,Y pos of 4 corners*
0 Add a 4 corners polygon primitive as box body*
4,1,4,$2,$3,$4,$5,$6,$7,$8,$9,$2,$3,0*
0 Add four circle primitives for the rounded corners*
1,1,$1+$1,$2,$3*
1,1,$1+$1,$4,$5*
1,1,$1+$1,$6,$7*
1,1,$1+$1,$8,$9*
0 Add four rect primitives between the rounded corners*
20,1,$1+$1,$2,$3,$4,$5,0*
20,1,$1+$1,$4,$5,$6,$7,0*
20,1,$1+$1,$6,$7,$8,$9,0*
20,1,$1+$1,$8,$9,$2,$3,0*%
G04 Aperture macros list end*
%ADD10RoundRect,0.250000X-0.475000X0.337500X-0.475000X-0.337500X0.475000X-0.337500X0.475000X0.337500X0*%
%ADD11RoundRect,0.102000X-0.790000X-0.790000X0.790000X-0.790000X0.790000X0.790000X-0.790000X0.790000X0*%
%ADD12C,1.784000*%
%ADD13R,1.700000X1.700000*%
%ADD14C,1.700000*%
%ADD15R,4.500000X1.800000*%
%ADD16O,4.000000X1.800000*%
%ADD17O,1.800000X4.000000*%
%ADD18C,2.000000*%
%ADD19C,1.000000*%
%ADD20C,0.550000*%
%ADD21C,3.251200*%
%ADD22R,1.397000X1.397000*%
%ADD23C,1.397000*%
%ADD24C,2.154000*%
%ADD25RoundRect,0.102000X0.975000X0.975000X-0.975000X0.975000X-0.975000X-0.975000X0.975000X-0.975000X0*%
%ADD26RoundRect,0.250000X0.650000X-0.412500X0.650000X0.412500X-0.650000X0.412500X-0.650000X-0.412500X0*%
%ADD27RoundRect,0.250000X0.350000X0.450000X-0.350000X0.450000X-0.350000X-0.450000X0.350000X-0.450000X0*%
%ADD28RoundRect,0.250000X-0.337500X-0.475000X0.337500X-0.475000X0.337500X0.475000X-0.337500X0.475000X0*%
%ADD29RoundRect,0.250000X0.337500X0.475000X-0.337500X0.475000X-0.337500X-0.475000X0.337500X-0.475000X0*%
%ADD30RoundRect,0.250000X0.450000X-0.350000X0.450000X0.350000X-0.450000X0.350000X-0.450000X-0.350000X0*%
%ADD31RoundRect,0.250000X-0.350000X-0.450000X0.350000X-0.450000X0.350000X0.450000X-0.350000X0.450000X0*%
%ADD32RoundRect,0.250000X-0.650000X0.412500X-0.650000X-0.412500X0.650000X-0.412500X0.650000X0.412500X0*%
%ADD33RoundRect,0.250000X-0.450000X0.350000X-0.450000X-0.350000X0.450000X-0.350000X0.450000X0.350000X0*%
%ADD34RoundRect,0.250000X0.475000X-0.337500X0.475000X0.337500X-0.475000X0.337500X-0.475000X-0.337500X0*%
G04 APERTURE END LIST*
D10*
%TO.C,C50*%
X144272000Y-92688500D03*
X144272000Y-94763500D03*
%TD*%
D11*
%TO.C,SW2*%
X80518000Y-143472500D03*
D12*
X80518000Y-135852500D03*
X83058000Y-143472500D03*
X83058000Y-135852500D03*
%TD*%
D13*
%TO.C,J8*%
X162560200Y-77470000D03*
D14*
X162560200Y-80010000D03*
X162560200Y-82550000D03*
X162560200Y-85090000D03*
X162560200Y-87630000D03*
X162560200Y-90170000D03*
%TD*%
D13*
%TO.C,J7*%
X162560000Y-100330000D03*
D14*
X162560000Y-102870000D03*
X162560000Y-105410000D03*
X162560000Y-107950000D03*
X162560000Y-110490000D03*
X162560000Y-113030000D03*
%TD*%
D13*
%TO.C,J5*%
X86360000Y-90170000D03*
D14*
X86360000Y-87630000D03*
X86360000Y-85090000D03*
X86360000Y-82550000D03*
X86360000Y-80010000D03*
X86360000Y-77470000D03*
%TD*%
D13*
%TO.C,J3*%
X88900000Y-67310000D03*
D14*
X88900000Y-64770000D03*
X88900000Y-62230000D03*
X88900000Y-59690000D03*
X88900000Y-57150000D03*
X88900000Y-54610000D03*
X86360000Y-67310000D03*
X86360000Y-64770000D03*
X86360000Y-62230000D03*
X86360000Y-59690000D03*
X86360000Y-57150000D03*
X86360000Y-54610000D03*
%TD*%
D13*
%TO.C,J13*%
X88900000Y-113030000D03*
D14*
X88900000Y-110490000D03*
X88900000Y-107950000D03*
X88900000Y-105410000D03*
X88900000Y-102870000D03*
X88900000Y-100330000D03*
X86360000Y-113030000D03*
X86360000Y-110490000D03*
X86360000Y-107950000D03*
X86360000Y-105410000D03*
X86360000Y-102870000D03*
X86360000Y-100330000D03*
%TD*%
D13*
%TO.C,J14*%
X160020000Y-123190000D03*
D14*
X160020000Y-125730000D03*
X160020000Y-128270000D03*
X160020000Y-130810000D03*
X160020000Y-133350000D03*
X160020000Y-135890000D03*
X162560000Y-123190000D03*
X162560000Y-125730000D03*
X162560000Y-128270000D03*
X162560000Y-130810000D03*
X162560000Y-133350000D03*
X162560000Y-135890000D03*
%TD*%
D13*
%TO.C,J6*%
X160020000Y-54610000D03*
D14*
X160020000Y-57150000D03*
X160020000Y-59690000D03*
X160020000Y-62230000D03*
X160020000Y-64770000D03*
X160020000Y-67310000D03*
X162560000Y-54610000D03*
X162560000Y-57150000D03*
X162560000Y-59690000D03*
X162560000Y-62230000D03*
X162560000Y-64770000D03*
X162560000Y-67310000D03*
%TD*%
D13*
%TO.C,J9*%
X130556000Y-142240000D03*
D14*
X128016000Y-142240000D03*
X125476000Y-142240000D03*
X122936000Y-142240000D03*
X120396000Y-142240000D03*
X117856000Y-142240000D03*
X115316000Y-142240000D03*
X112776000Y-142240000D03*
X110236000Y-142240000D03*
X107696000Y-142240000D03*
%TD*%
D15*
%TO.C,J1*%
X102082301Y-64773998D03*
D16*
X102082301Y-58674000D03*
D17*
X97282300Y-62174001D03*
%TD*%
D18*
%TO.C,SW1*%
X92674000Y-136979500D03*
X92674000Y-143479500D03*
X88174000Y-136979500D03*
X88174000Y-143479500D03*
%TD*%
%TO.C,SW3*%
X96810000Y-143495500D03*
X96810000Y-136995500D03*
X101310000Y-143495500D03*
X101310000Y-136995500D03*
%TD*%
D19*
%TO.C,J11*%
X140846000Y-143205200D03*
X148846000Y-143205200D03*
%TD*%
D20*
%TO.C,J2*%
X127350000Y-57215000D03*
X121570000Y-57215000D03*
%TD*%
D21*
%TO.C,J4*%
X151417100Y-56261000D03*
X138717100Y-56261000D03*
D22*
X141497099Y-58801000D03*
D23*
X142517100Y-60580999D03*
X143537100Y-58801000D03*
X144557098Y-60580999D03*
X145577099Y-58801000D03*
X146597099Y-60580999D03*
X147617100Y-58801000D03*
X148637100Y-60580999D03*
X138207100Y-65400999D03*
X140497100Y-65400999D03*
X149637099Y-65400999D03*
X151927099Y-65400999D03*
%TD*%
D24*
%TO.C,BT1*%
X111741000Y-121920000D03*
D25*
X91741000Y-121920000D03*
%TD*%
D26*
%TO.C,C68*%
X154178000Y-138722500D03*
X154178000Y-135597500D03*
%TD*%
D27*
%TO.C,R15*%
X114284000Y-104648000D03*
X112284000Y-104648000D03*
%TD*%
D28*
%TO.C,C20*%
X124438500Y-96520000D03*
X126513500Y-96520000D03*
%TD*%
D29*
%TO.C,C24*%
X122449500Y-96520000D03*
X120374500Y-96520000D03*
%TD*%
D30*
%TO.C,R11*%
X80772000Y-140662500D03*
X80772000Y-138662500D03*
%TD*%
D28*
%TO.C,C61*%
X97514500Y-83820000D03*
X99589500Y-83820000D03*
%TD*%
%TO.C,C9*%
X124438500Y-104648000D03*
X126513500Y-104648000D03*
%TD*%
D30*
%TO.C,R40*%
X126746000Y-55864000D03*
X126746000Y-53864000D03*
%TD*%
D28*
%TO.C,C25*%
X128502500Y-98552000D03*
X130577500Y-98552000D03*
%TD*%
D31*
%TO.C,R2*%
X100092000Y-67564000D03*
X102092000Y-67564000D03*
%TD*%
D28*
%TO.C,C34*%
X129010500Y-84836000D03*
X131085500Y-84836000D03*
%TD*%
D30*
%TO.C,R34*%
X144272000Y-69580000D03*
X144272000Y-67580000D03*
%TD*%
D28*
%TO.C,C29*%
X92942500Y-87884000D03*
X95017500Y-87884000D03*
%TD*%
D27*
%TO.C,R1*%
X102092000Y-69596000D03*
X100092000Y-69596000D03*
%TD*%
D29*
%TO.C,C19*%
X122449500Y-94488000D03*
X120374500Y-94488000D03*
%TD*%
%TO.C,C14*%
X118385500Y-98552000D03*
X116310500Y-98552000D03*
%TD*%
D30*
%TO.C,R23*%
X150368000Y-69580000D03*
X150368000Y-67580000D03*
%TD*%
D27*
%TO.C,R20*%
X114284000Y-106680000D03*
X112284000Y-106680000D03*
%TD*%
D29*
%TO.C,C1*%
X122449500Y-102616000D03*
X120374500Y-102616000D03*
%TD*%
D32*
%TO.C,C54*%
X147574000Y-72097500D03*
X147574000Y-75222500D03*
%TD*%
D29*
%TO.C,C16*%
X126513500Y-94488000D03*
X124438500Y-94488000D03*
%TD*%
D28*
%TO.C,C21*%
X128502500Y-100584000D03*
X130577500Y-100584000D03*
%TD*%
D10*
%TO.C,C67*%
X97028000Y-139208000D03*
X97028000Y-141283000D03*
%TD*%
D33*
%TO.C,R28*%
X148336000Y-67580000D03*
X148336000Y-69580000D03*
%TD*%
D29*
%TO.C,C15*%
X122449500Y-104648000D03*
X120374500Y-104648000D03*
%TD*%
D30*
%TO.C,R43*%
X99060000Y-141245500D03*
X99060000Y-139245500D03*
%TD*%
D33*
%TO.C,R4*%
X88392000Y-139229500D03*
X88392000Y-141229500D03*
%TD*%
%TO.C,R25*%
X138176000Y-67580000D03*
X138176000Y-69580000D03*
%TD*%
D29*
%TO.C,C26*%
X118385500Y-104648000D03*
X116310500Y-104648000D03*
%TD*%
D32*
%TO.C,C59*%
X145034000Y-72097500D03*
X145034000Y-75222500D03*
%TD*%
D28*
%TO.C,C11*%
X120374500Y-100584000D03*
X122449500Y-100584000D03*
%TD*%
D29*
%TO.C,C22*%
X126513500Y-100584000D03*
X124438500Y-100584000D03*
%TD*%
D28*
%TO.C,C65*%
X149309000Y-92964000D03*
X151384000Y-92964000D03*
%TD*%
D30*
%TO.C,R33*%
X146304000Y-69580000D03*
X146304000Y-67580000D03*
%TD*%
D26*
%TO.C,C66*%
X124460000Y-56172500D03*
X124460000Y-53047500D03*
%TD*%
D29*
%TO.C,C4*%
X130577500Y-92456000D03*
X128502500Y-92456000D03*
%TD*%
D31*
%TO.C,R36*%
X98060000Y-90932000D03*
X100060000Y-90932000D03*
%TD*%
D33*
%TO.C,R42*%
X101092000Y-139245500D03*
X101092000Y-141245500D03*
%TD*%
D28*
%TO.C,C49*%
X124438500Y-92456000D03*
X126513500Y-92456000D03*
%TD*%
%TO.C,C28*%
X98022500Y-88430000D03*
X100097500Y-88430000D03*
%TD*%
D10*
%TO.C,C31*%
X92456000Y-139192000D03*
X92456000Y-141267000D03*
%TD*%
D34*
%TO.C,C57*%
X149860000Y-74697500D03*
X149860000Y-72622500D03*
%TD*%
D10*
%TO.C,C51*%
X142240000Y-92688500D03*
X142240000Y-94763500D03*
%TD*%
D29*
%TO.C,C27*%
X118385500Y-102616000D03*
X116310500Y-102616000D03*
%TD*%
%TO.C,C33*%
X127021500Y-84836000D03*
X124946500Y-84836000D03*
%TD*%
D27*
%TO.C,R16*%
X114284000Y-102616000D03*
X112284000Y-102616000D03*
%TD*%
D29*
%TO.C,C23*%
X122449500Y-98552000D03*
X120374500Y-98552000D03*
%TD*%
D10*
%TO.C,C46*%
X126492000Y-119358500D03*
X126492000Y-121433500D03*
%TD*%
D31*
%TO.C,R10*%
X124476000Y-106680000D03*
X126476000Y-106680000D03*
%TD*%
D27*
%TO.C,R17*%
X114284000Y-98552000D03*
X112284000Y-98552000D03*
%TD*%
D29*
%TO.C,C18*%
X126513500Y-98552000D03*
X124438500Y-98552000D03*
%TD*%
D31*
%TO.C,R37*%
X97552000Y-81788000D03*
X99552000Y-81788000D03*
%TD*%
D29*
%TO.C,C41*%
X102129500Y-71628000D03*
X100054500Y-71628000D03*
%TD*%
%TO.C,C17*%
X126513500Y-102616000D03*
X124438500Y-102616000D03*
%TD*%
%TO.C,C53*%
X132588000Y-79756000D03*
X130513000Y-79756000D03*
%TD*%
D28*
%TO.C,C37*%
X120374500Y-106680000D03*
X122449500Y-106680000D03*
%TD*%
D10*
%TO.C,C44*%
X122428000Y-119358500D03*
X122428000Y-121433500D03*
%TD*%
D30*
%TO.C,R12*%
X82804000Y-140662500D03*
X82804000Y-138662500D03*
%TD*%
D33*
%TO.C,R35*%
X142748000Y-72660000D03*
X142748000Y-74660000D03*
%TD*%
D28*
%TO.C,C7*%
X128502500Y-94488000D03*
X130577500Y-94488000D03*
%TD*%
%TO.C,C8*%
X128524000Y-102616000D03*
X130599000Y-102616000D03*
%TD*%
D27*
%TO.C,R18*%
X118348000Y-90424000D03*
X116348000Y-90424000D03*
%TD*%
D29*
%TO.C,C13*%
X118385500Y-100584000D03*
X116310500Y-100584000D03*
%TD*%
%TO.C,C47*%
X118385500Y-92456000D03*
X116310500Y-92456000D03*
%TD*%
D30*
%TO.C,R3*%
X90424000Y-141229500D03*
X90424000Y-139229500D03*
%TD*%
D34*
%TO.C,C58*%
X140716000Y-74697500D03*
X140716000Y-72622500D03*
%TD*%
D28*
%TO.C,C2*%
X128502500Y-104648000D03*
X130577500Y-104648000D03*
%TD*%
D33*
%TO.C,R26*%
X140208000Y-67580000D03*
X140208000Y-69580000D03*
%TD*%
D29*
%TO.C,C38*%
X118385500Y-106680000D03*
X116310500Y-106680000D03*
%TD*%
%TO.C,C52*%
X132609500Y-77724000D03*
X130534500Y-77724000D03*
%TD*%
%TO.C,C3*%
X130577500Y-96520000D03*
X128502500Y-96520000D03*
%TD*%
D28*
%TO.C,C48*%
X120374500Y-92456000D03*
X122449500Y-92456000D03*
%TD*%
%TO.C,C62*%
X149309000Y-90932000D03*
X151384000Y-90932000D03*
%TD*%
%TO.C,C12*%
X124438500Y-90424000D03*
X126513500Y-90424000D03*
%TD*%
D29*
%TO.C,C10*%
X118385500Y-96520000D03*
X116310500Y-96520000D03*
%TD*%
D33*
%TO.C,R27*%
X142240000Y-67580000D03*
X142240000Y-69580000D03*
%TD*%
D29*
%TO.C,C5*%
X118385500Y-94488000D03*
X116310500Y-94488000D03*
%TD*%
D27*
%TO.C,R9*%
X130540000Y-106680000D03*
X128540000Y-106680000D03*
%TD*%
%TO.C,R13*%
X114284000Y-94488000D03*
X112284000Y-94488000D03*
%TD*%
D30*
%TO.C,R39*%
X122174000Y-55864000D03*
X122174000Y-53864000D03*
%TD*%
D33*
%TO.C,R24*%
X152400000Y-67580000D03*
X152400000Y-69580000D03*
%TD*%
D27*
%TO.C,R14*%
X114284000Y-96520000D03*
X112284000Y-96520000D03*
%TD*%
D29*
%TO.C,C6*%
X122449500Y-90424000D03*
X120374500Y-90424000D03*
%TD*%
M02*
