M48
; DRILL file {KiCad 9.0.6-9.0.6~ubuntu24.04.1} date 2026-02-01T19:09:32-0300
; FORMAT={-:-/ absolute / metric / decimal}
; #@! TF.CreationDate,2026-02-01T19:09:32-03:00
; #@! TF.GenerationSoftware,Kicad,Pcbnew,9.0.6-9.0.6~ubuntu24.04.1
; #@! TF.FileFunction,Plated,1,4,PTH
FMAT,2
METRIC
; #@! TA.AperFunction,Plated,PTH,ViaDrill
T1C0.300
; #@! TA.AperFunction,Plated,PTH,ComponentDrill
T2C0.800
; #@! TA.AperFunction,Plated,PTH,ComponentDrill
T3C0.889
; #@! TA.AperFunction,Plated,PTH,ComponentDrill
T4C1.000
; #@! TA.AperFunction,Plated,PTH,ComponentDrill
T5C1.100
; #@! TA.AperFunction,Plated,PTH,ComponentDrill
T6C1.300
%
G90
G05
T1
X77.47Y-93.98
X77.47Y-101.6
X77.47Y-130.81
X77.547Y-113.09
X78.435Y-125.984
X78.725Y-71.06
X78.74Y-53.34
X78.74Y-78.74
X78.74Y-83.82
X78.755Y-60.754
X78.931Y-132.804
X79.045Y-125.984
X79.096Y-87.055
X79.096Y-87.63
X79.504Y-132.76
X80.62Y-64.16
X80.62Y-64.77
X80.62Y-116.129
X80.658Y-116.703
X80.772Y-137.63
X81.229Y-84.515
X81.229Y-85.09
X81.229Y-116.637
X81.28Y-58.42
X82.24Y-66.761
X82.271Y-67.335
X82.296Y-101.397
X82.296Y-101.972
X82.804Y-137.63
X82.829Y-82.127
X82.829Y-82.702
X82.829Y-117.424
X82.829Y-117.999
X83.423Y-119.863
X83.998Y-119.863
X84.014Y-123.444
X84.15Y-97.901
X84.15Y-98.476
X84.15Y-113.03
X84.15Y-113.605
X84.414Y-59.243
X84.43Y-94.082
X84.455Y-59.817
X84.46Y-93.507
X84.557Y-122.911
X84.718Y-98.908
X84.836Y-134.874
X85.065Y-61.757
X85.065Y-62.332
X85.087Y-96.234
X85.112Y-95.66
X85.293Y-98.908
X85.344Y-138.811
X85.395Y-138.227
X85.446Y-131.064
X85.496Y-128.321
X85.785Y-93.066
X85.953Y-132.689
X86.021Y-131.064
X86.069Y-128.378
X86.335Y-135.763
X86.335Y-136.347
X86.36Y-93.066
X86.36Y-133.096
X86.614Y-128.778
X87.376Y-118.872
X87.376Y-134.112
X88.29Y-130.048
X88.3Y-94.152
X88.392Y-140.208
X88.849Y-93.98
X88.9Y-130.023
X88.951Y-95.225
X89.51Y-94.818
X89.535Y-126.746
X90.102Y-94.653
X90.119Y-126.695
X90.424Y-138.176
X90.526Y-62.179
X90.556Y-61.605
X90.611Y-94.386
X90.678Y-107.95
X90.703Y-107.366
X90.78Y-126.187
X91.11Y-125.705
X91.186Y-59.115
X91.186Y-59.69
X91.186Y-94.386
X91.491Y-99.517
X91.491Y-104.089
X91.523Y-104.663
X91.618Y-83.769
X91.669Y-91.923
X91.694Y-52.578
X91.821Y-87.325
X91.897Y-90.932
X91.923Y-82.804
X92.075Y-79.731
X92.1Y-99.187
X92.456Y-140.245
X92.623Y-125.761
X92.659Y-106.655
X92.659Y-107.23
X92.71Y-99.162
X92.964Y-89.408
X93.167Y-110.541
X93.193Y-125.679
X93.32Y-109.271
X94.082Y-103.26
X94.082Y-134.849
X94.666Y-135.204
X94.742Y-103.759
X96.091Y-87.648
X96.183Y-134.737
X96.19Y-88.214
X96.215Y-134.163
X96.469Y-81.839
X96.647Y-87.503
X96.647Y-135.128
X97.028Y-140.245
X97.333Y-89.865
X97.993Y-86.843
X98.044Y-67.564
X98.044Y-70.612
X98.679Y-71.577
X98.806Y-73.66
X99.06Y-69.596
X99.06Y-75.692
X99.06Y-79.248
X99.06Y-109.22
X99.06Y-114.3
X99.06Y-119.38
X99.06Y-135.636
X99.187Y-77.724
X99.873Y-86.106
X100.33Y-79.248
X100.686Y-83.718
X101.092Y-73.66
X101.092Y-75.692
X101.092Y-77.724
X101.092Y-140.1
X101.219Y-88.697
X101.6Y-109.22
X101.6Y-114.3
X101.6Y-119.38
X101.6Y-132.08
X102.108Y-72.695
X102.87Y-91.44
X103.137Y-67.958
X103.988Y-78.74
X104.013Y-73.152
X104.14Y-74.93
X104.14Y-76.2
X104.14Y-90.17
X104.14Y-91.44
X104.14Y-114.3
X104.14Y-119.38
X104.318Y-71.476
X104.521Y-69.723
X104.538Y-132.065
X104.648Y-143.256
X106.515Y-80.378
X106.578Y-70.358
X106.68Y-68.072
X106.68Y-109.22
X107.264Y-62.535
X107.324Y-139.09
X107.442Y-66.446
X107.696Y-78.74
X107.899Y-97.993
X107.899Y-139.09
X107.934Y-139.7
X107.943Y-97.42
X108.204Y-76.225
X108.378Y-60.786
X108.509Y-104.115
X108.509Y-139.7
X108.712Y-77.724
X108.941Y-138.405
X108.991Y-104.521
X109.22Y-71.12
X109.22Y-72.39
X109.22Y-78.74
X109.22Y-81.28
X109.22Y-83.82
X109.22Y-86.36
X109.499Y-138.557
X109.562Y-104.592
X109.966Y-138.049
X110.011Y-104.951
X110.236Y-55.88
X110.49Y-71.12
X110.49Y-72.39
X110.541Y-138.049
X110.542Y-105.174
X110.846Y-75.692
X111.078Y-60.757
X111.125Y-64.237
X111.125Y-69.85
X111.379Y-109.474
X111.499Y-110.036
X111.76Y-72.39
X111.76Y-78.74
X111.76Y-83.82
X111.76Y-86.36
X112.176Y-146.609
X112.268Y-101.6
X112.268Y-105.689
X112.284Y-97.511
X112.725Y-74.727
X112.751Y-146.609
X112.928Y-76.657
X112.988Y-100.508
X113.03Y-113.03
X113.03Y-119.38
X113.284Y-102.464
X113.563Y-100.508
X113.726Y-101.498
X113.919Y-109.347
X113.946Y-109.921
X114.3Y-72.39
X114.3Y-73.66
X114.3Y-78.74
X114.3Y-81.28
X114.3Y-83.82
X114.3Y-86.36
X114.3Y-101.448
X114.656Y-61.57
X114.792Y-146.05
X114.808Y-71.12
X114.844Y-100.489
X114.935Y-108.966
X115.108Y-117.948
X115.138Y-117.373
X115.181Y-62.484
X115.367Y-102.87
X115.367Y-146.05
X115.418Y-100.533
X115.51Y-108.966
X115.59Y-135.88
X115.824Y-55.88
X116.119Y-109.111
X116.158Y-60.833
X116.18Y-121.26
X116.18Y-121.835
X116.205Y-74.93
X116.31Y-91.44
X116.31Y-105.689
X116.54Y-129.491
X116.586Y-64.262
X116.611Y-108.814
X116.823Y-132.044
X116.84Y-52.578
X116.84Y-78.74
X116.84Y-81.28
X116.84Y-83.82
X116.84Y-86.36
X117.115Y-129.474
X117.185Y-108.849
X117.281Y-145.567
X117.475Y-56.236
X117.5Y-87.782
X117.526Y-62.789
X117.605Y-109.242
X117.856Y-145.567
X118.008Y-87.503
X118.034Y-88.214
X118.11Y-73.66
X118.11Y-74.93
X118.178Y-109.297
X118.186Y-120.193
X118.186Y-120.768
X118.35Y-89.459
X118.364Y-97.587
X118.385Y-93.472
X118.385Y-103.632
X118.644Y-109.707
X118.727Y-110.276
X118.759Y-120.713
X119.202Y-105.607
X119.253Y-110.998
X119.301Y-110.315
X119.304Y-123.359
X119.38Y-54.737
X119.38Y-56.642
X119.399Y-105.067
X119.786Y-116.637
X119.821Y-145.034
X119.888Y-123.342
X120.244Y-116.129
X120.345Y-93.37
X120.354Y-116.728
X120.371Y-95.504
X120.371Y-97.536
X120.371Y-103.657
X120.374Y-89.408
X120.396Y-145.034
X120.65Y-72.39
X120.65Y-73.66
X120.701Y-109.423
X120.701Y-110.084
X120.701Y-115.468
X120.802Y-57.506
X120.811Y-116.033
X120.879Y-88.265
X120.939Y-117.958
X121.107Y-107.848
X121.154Y-108.995
X121.171Y-108.42
X121.285Y-87.503
X121.412Y-104.962
X121.412Y-105.537
X121.417Y-88.063
X121.514Y-117.958
X121.539Y-90.043
X121.769Y-88.517
X121.92Y-62.713
X122.161Y-110.096
X122.174Y-54.864
X122.245Y-109.239
X122.293Y-63.586
X122.326Y-64.16
X122.361Y-140.716
X122.428Y-93.218
X122.428Y-99.67
X122.428Y-101.676
X122.428Y-122.885
X122.45Y-97.536
X122.453Y-103.708
X122.682Y-108.864
X122.733Y-110.033
X122.784Y-116.621
X122.784Y-117.196
X122.825Y-57.389
X122.936Y-140.716
X123.139Y-110.439
X123.19Y-72.39
X123.19Y-73.66
X123.19Y-74.93
X123.28Y-109.855
X123.292Y-105.512
X123.698Y-116.764
X123.749Y-118.364
X123.8Y-116.065
X124.003Y-111.049
X124.409Y-110.642
X124.435Y-93.37
X124.435Y-99.619
X124.435Y-101.6
X124.438Y-95.377
X124.46Y-54.356
X124.46Y-97.434
X124.498Y-116.802
X124.866Y-111.481
X124.952Y-143.688
X125.095Y-73.66
X125.222Y-54.356
X125.4Y-115.113
X125.417Y-111.646
X125.527Y-143.688
X125.615Y-111.106
X125.73Y-57.404
X125.933Y-85.014
X126.06Y-110.719
X126.092Y-110.144
X126.162Y-116.738
X126.492Y-122.784
X126.513Y-99.568
X126.517Y-95.58
X126.543Y-93.396
X126.577Y-109.835
X126.746Y-54.864
X126.848Y-117.5
X126.896Y-108.796
X126.916Y-109.371
X126.949Y-116.815
X127.0Y-80.038
X127.0Y-80.614
X127.432Y-108.534
X127.466Y-144.221
X127.502Y-105.041
X127.559Y-105.613
X127.737Y-114.402
X127.806Y-108.971
X127.813Y-116.865
X127.889Y-90.145
X128.041Y-144.221
X128.168Y-57.556
X128.188Y-109.401
X128.231Y-89.682
X128.27Y-72.579
X128.27Y-73.66
X128.27Y-135.89
X128.473Y-93.396
X128.502Y-99.568
X128.524Y-95.58
X128.524Y-97.79
X128.549Y-101.854
X128.549Y-105.613
X128.549Y-115.214
X128.549Y-116.815
X128.6Y-90.145
X128.6Y-114.3
X128.6Y-117.653
X128.619Y-113.481
X128.698Y-108.947
X128.75Y-109.519
X128.785Y-68.159
X128.829Y-68.732
X129.337Y-115.189
X129.413Y-114.503
X129.531Y-116.926
X129.54Y-54.864
X129.54Y-56.642
X129.54Y-77.724
X129.54Y-79.756
X129.54Y-94.31
X129.54Y-132.08
X129.616Y-116.357
X129.803Y-123.19
X129.896Y-108.763
X130.175Y-73.66
X130.175Y-74.93
X130.378Y-123.19
X130.413Y-125.73
X130.531Y-108.737
X130.556Y-95.428
X130.556Y-99.568
X130.581Y-101.6
X130.581Y-103.657
X130.632Y-93.396
X130.632Y-97.46
X130.895Y-128.27
X130.988Y-108.331
X130.988Y-125.73
X131.458Y-107.963
X131.47Y-128.27
X131.544Y-107.394
X131.657Y-130.556
X131.911Y-51.664
X132.105Y-84.912
X132.207Y-105.918
X132.232Y-130.556
X132.385Y-76.581
X132.486Y-51.664
X132.486Y-64.16
X132.515Y-64.735
X132.613Y-80.848
X132.613Y-81.423
X132.644Y-124.281
X132.69Y-106.299
X132.715Y-71.12
X132.715Y-73.025
X132.842Y-76.149
X133.182Y-124.485
X133.198Y-105.92
X133.299Y-93.701
X133.452Y-53.289
X133.482Y-52.715
X133.512Y-126.873
X133.604Y-97.79
X133.629Y-106.324
X133.835Y-93.492
X134.087Y-105.918
X134.087Y-126.873
X134.092Y-92.978
X134.115Y-92.403
X134.544Y-130.023
X134.611Y-92.729
X135.091Y-91.86
X135.139Y-91.287
X135.153Y-128.905
X135.153Y-130.023
X135.255Y-71.12
X135.255Y-73.025
X135.611Y-127.584
X135.621Y-91.637
X135.727Y-128.939
X136.042Y-126.314
X136.093Y-91.262
X136.186Y-127.584
X136.247Y-90.708
X136.449Y-114.808
X136.474Y-116.891
X136.627Y-126.314
X136.667Y-91.233
X136.906Y-81.534
X137.109Y-146.609
X137.16Y-74.93
X137.16Y-79.756
X137.16Y-93.904
X137.251Y-85.541
X137.592Y-93.472
X137.696Y-146.637
X137.82Y-146.075
X137.824Y-85.598
X137.922Y-81.534
X138.151Y-70.51
X138.176Y-79.74
X138.201Y-87.071
X138.252Y-93.472
X138.278Y-92.888
X138.395Y-85.662
X138.428Y-83.443
X138.43Y-59.182
X138.43Y-60.96
X138.43Y-74.93
X138.455Y-88.036
X138.455Y-91.415
X138.455Y-91.999
X138.513Y-63.282
X138.786Y-87.071
X138.875Y-87.639
X139.052Y-92.443
X139.243Y-94.361
X139.246Y-131.01
X139.37Y-87.122
X139.374Y-90.272
X139.395Y-88.036
X139.559Y-91.89
X139.575Y-90.81
X139.784Y-130.807
X139.817Y-94.395
X139.84Y-88.637
X139.979Y-80.416
X139.995Y-88.083
X140.03Y-89.179
X140.071Y-92.151
X140.274Y-70.518
X140.346Y-130.937
X140.36Y-95.606
X140.487Y-89.611
X140.49Y-91.758
X140.564Y-80.416
X140.716Y-71.78
X140.716Y-75.692
X140.91Y-130.798
X140.935Y-95.606
X140.957Y-89.943
X140.995Y-80.865
X141.003Y-89.357
X141.132Y-88.268
X141.453Y-130.988
X141.46Y-87.173
X141.503Y-96.012
X141.531Y-89.913
X141.707Y-88.24
X141.727Y-70.679
X141.757Y-86.309
X142.037Y-86.843
X142.078Y-96.012
X142.24Y-85.852
X142.494Y-97.79
X142.545Y-130.988
X142.748Y-71.78
X143.38Y-84.267
X143.423Y-83.668
X143.51Y-55.88
X143.573Y-96.406
X143.646Y-131.08
X143.804Y-84.691
X144.018Y-88.646
X144.148Y-96.42
X144.186Y-130.883
X144.371Y-84.888
X144.501Y-91.313
X144.526Y-82.042
X144.746Y-131.013
X144.78Y-88.646
X145.034Y-71.12
X145.288Y-130.823
X145.542Y-88.646
X145.796Y-80.01
X145.821Y-96.351
X145.821Y-96.926
X145.821Y-131.039
X145.847Y-93.472
X145.999Y-91.364
X146.05Y-55.88
X146.05Y-85.852
X146.207Y-83.825
X146.207Y-84.425
X146.372Y-130.873
X146.429Y-93.443
X146.573Y-91.325
X146.609Y-85.7
X146.653Y-83.423
X146.712Y-84.752
X146.736Y-93.929
X146.939Y-90.881
X146.946Y-94.811
X146.946Y-131.013
X146.951Y-86.818
X147.491Y-130.829
X147.521Y-94.791
X147.523Y-86.766
X147.65Y-88.417
X147.701Y-92.913
X147.98Y-89.916
X148.046Y-131.013
X148.057Y-95.25
X148.184Y-88.849
X148.184Y-92.487
X148.206Y-88.268
X148.209Y-70.79
X148.234Y-86.893
X148.254Y-93.071
X148.268Y-89.418
X148.631Y-95.279
X149.352Y-83.82
X149.733Y-145.567
X149.767Y-99.209
X149.86Y-71.628
X149.86Y-75.692
X149.86Y-96.52
X150.216Y-99.568
X150.241Y-145.186
X150.325Y-145.755
X150.698Y-144.755
X150.766Y-99.402
X150.825Y-99.974
X150.839Y-145.312
X151.282Y-100.355
X151.282Y-144.247
X151.282Y-144.822
X151.384Y-89.916
X151.384Y-99.771
X151.841Y-100.762
X151.841Y-140.208
X151.841Y-140.783
X151.847Y-100.187
X152.146Y-80.061
X152.4Y-59.69
X152.4Y-62.23
X152.4Y-82.804
X152.416Y-100.762
X152.552Y-84.887
X152.552Y-92.964
X152.603Y-86.868
X152.603Y-142.342
X152.705Y-134.518
X153.264Y-98.806
X153.264Y-125.12
X154.153Y-137.617
X154.94Y-96.52
X154.94Y-106.68
X154.94Y-113.03
X154.94Y-116.84
X155.068Y-108.95
X157.086Y-58.357
X157.48Y-73.66
X157.48Y-88.9
X157.48Y-96.52
X157.582Y-52.714
X157.582Y-53.289
X157.658Y-58.42
X158.667Y-99.363
X158.674Y-77.47
X158.708Y-76.896
X158.721Y-99.935
X159.165Y-84.516
X159.207Y-85.166
X159.223Y-100.765
X159.236Y-100.19
X159.533Y-105.984
X159.563Y-102.692
X159.563Y-105.41
X159.664Y-81.95
X159.664Y-82.525
X159.69Y-101.101
X159.69Y-101.676
X160.02Y-144.78
X160.138Y-102.692
X160.146Y-79.457
X160.15Y-80.032
X160.15Y-102.117
X160.325Y-103.988
X160.401Y-108.077
X160.96Y-103.988
X161.239Y-104.496
X162.56Y-71.12
X162.56Y-73.66
X163.754Y-51.689
X164.157Y-127.645
X164.186Y-128.219
X164.262Y-139.649
X164.328Y-51.719
X164.837Y-139.649
X165.1Y-132.08
X165.227Y-63.398
X165.227Y-121.285
X165.227Y-121.86
X165.261Y-62.824
X165.989Y-52.663
X165.989Y-53.238
X165.989Y-120.675
X166.319Y-140.868
X166.446Y-55.356
X166.446Y-55.931
X166.497Y-120.218
X166.589Y-120.786
X167.094Y-138.976
X167.208Y-61.655
X167.208Y-62.23
X167.669Y-138.961
X168.326Y-138.532
X168.351Y-54.635
X168.387Y-54.062
X168.894Y-138.617
X168.986Y-60.233
X168.986Y-60.808
X168.986Y-138.049
X169.561Y-138.049
X170.18Y-55.88
X170.18Y-68.58
X170.18Y-88.9
X170.18Y-101.6
X170.18Y-116.84
X170.18Y-132.08
T3
X138.207Y-65.401
X140.497Y-65.401
X141.497Y-58.801
X142.517Y-60.581
X143.537Y-58.801
X144.557Y-60.581
X145.577Y-58.801
X146.597Y-60.581
X147.617Y-58.801
X148.637Y-60.581
X149.637Y-65.401
X151.927Y-65.401
T4
X80.518Y-135.852
X80.518Y-143.472
X83.058Y-135.852
X83.058Y-143.472
X86.36Y-54.61
X86.36Y-57.15
X86.36Y-59.69
X86.36Y-62.23
X86.36Y-64.77
X86.36Y-67.31
X86.36Y-77.47
X86.36Y-80.01
X86.36Y-82.55
X86.36Y-85.09
X86.36Y-87.63
X86.36Y-90.17
X86.36Y-100.33
X86.36Y-102.87
X86.36Y-105.41
X86.36Y-107.95
X86.36Y-110.49
X86.36Y-113.03
X88.9Y-54.61
X88.9Y-57.15
X88.9Y-59.69
X88.9Y-62.23
X88.9Y-64.77
X88.9Y-67.31
X88.9Y-100.33
X88.9Y-102.87
X88.9Y-105.41
X88.9Y-107.95
X88.9Y-110.49
X88.9Y-113.03
X107.696Y-142.24
X110.236Y-142.24
X112.776Y-142.24
X115.316Y-142.24
X117.856Y-142.24
X120.396Y-142.24
X122.936Y-142.24
X125.476Y-142.24
X128.016Y-142.24
X130.556Y-142.24
X160.02Y-54.61
X160.02Y-57.15
X160.02Y-59.69
X160.02Y-62.23
X160.02Y-64.77
X160.02Y-67.31
X160.02Y-123.19
X160.02Y-125.73
X160.02Y-128.27
X160.02Y-130.81
X160.02Y-133.35
X160.02Y-135.89
X162.56Y-54.61
X162.56Y-57.15
X162.56Y-59.69
X162.56Y-62.23
X162.56Y-64.77
X162.56Y-67.31
X162.56Y-100.33
X162.56Y-102.87
X162.56Y-105.41
X162.56Y-107.95
X162.56Y-110.49
X162.56Y-113.03
X162.56Y-123.19
X162.56Y-125.73
X162.56Y-128.27
X162.56Y-130.81
X162.56Y-133.35
X162.56Y-135.89
X162.56Y-77.47
X162.56Y-80.01
X162.56Y-82.55
X162.56Y-85.09
X162.56Y-87.63
X162.56Y-90.17
T5
X88.174Y-136.98
X88.174Y-143.48
X92.674Y-136.98
X92.674Y-143.48
X96.81Y-136.995
X96.81Y-143.495
X101.31Y-136.995
X101.31Y-143.495
T6
X91.741Y-121.92
X111.741Y-121.92
T2
G00X97.282Y-61.074
M15
G01X97.282Y-63.274
M16
G05
G00X100.982Y-58.674
M15
G01X103.182Y-58.674
M16
G05
G00X100.732Y-64.774
M15
G01X103.432Y-64.774
M16
G05
M30
