%TF.GenerationSoftware,KiCad,Pcbnew,9.0.6-9.0.6~ubuntu24.04.1*%
%TF.CreationDate,2026-02-01T19:09:28-03:00*%
%TF.ProjectId,nuvoton_nuc980,6e75766f-746f-46e5-9f6e-75633938302e,0.0*%
%TF.SameCoordinates,Original*%
%TF.FileFunction,Soldermask,Top*%
%TF.FilePolarity,Negative*%
%FSLAX46Y46*%
G04 Gerber Fmt 4.6, Leading zero omitted, Abs format (unit mm)*
G04 Created by KiCad (PCBNEW 9.0.6-9.0.6~ubuntu24.04.1) date 2026-02-01 19:09:28*
%MOMM*%
%LPD*%
G01*
G04 APERTURE LIST*
G04 Aperture macros list*
%AMRoundRect*
0 Rectangle with rounded corners*
0 $1 Rounding radius*
0 $2 $3 $4 $5 $6 $7 $8 $9 X,Y pos of 4 corners*
0 Add a 4 corners polygon primitive as box body*
4,1,4,$2,$3,$4,$5,$6,$7,$8,$9,$2,$3,0*
0 Add four circle primitives for the rounded corners*
1,1,$1+$1,$2,$3*
1,1,$1+$1,$4,$5*
1,1,$1+$1,$6,$7*
1,1,$1+$1,$8,$9*
0 Add four rect primitives between the rounded corners*
20,1,$1+$1,$2,$3,$4,$5,0*
20,1,$1+$1,$4,$5,$6,$7,0*
20,1,$1+$1,$6,$7,$8,$9,0*
20,1,$1+$1,$8,$9,$2,$3,0*%
G04 Aperture macros list end*
%ADD10RoundRect,0.009100X-0.420900X-0.120900X0.420900X-0.120900X0.420900X0.120900X-0.420900X0.120900X0*%
%ADD11RoundRect,0.009100X-0.120900X-0.420900X0.120900X-0.420900X0.120900X0.420900X-0.120900X0.420900X0*%
%ADD12R,2.500000X2.500000*%
%ADD13C,0.431800*%
%ADD14C,2.000000*%
%ADD15RoundRect,0.250000X-0.350000X-0.450000X0.350000X-0.450000X0.350000X0.450000X-0.350000X0.450000X0*%
%ADD16RoundRect,0.250000X0.350000X0.450000X-0.350000X0.450000X-0.350000X-0.450000X0.350000X-0.450000X0*%
%ADD17RoundRect,0.102000X-0.790000X-0.790000X0.790000X-0.790000X0.790000X0.790000X-0.790000X0.790000X0*%
%ADD18C,1.784000*%
%ADD19RoundRect,0.150000X-0.650000X-0.150000X0.650000X-0.150000X0.650000X0.150000X-0.650000X0.150000X0*%
%ADD20R,1.700000X1.700000*%
%ADD21C,1.700000*%
%ADD22RoundRect,0.250000X0.337500X0.475000X-0.337500X0.475000X-0.337500X-0.475000X0.337500X-0.475000X0*%
%ADD23RoundRect,0.250000X-0.337500X-0.475000X0.337500X-0.475000X0.337500X0.475000X-0.337500X0.475000X0*%
%ADD24R,4.500000X1.800000*%
%ADD25O,4.000000X1.800000*%
%ADD26O,1.800000X4.000000*%
%ADD27RoundRect,0.237500X0.287500X0.237500X-0.287500X0.237500X-0.287500X-0.237500X0.287500X-0.237500X0*%
%ADD28RoundRect,0.250000X-1.500000X-0.650000X1.500000X-0.650000X1.500000X0.650000X-1.500000X0.650000X0*%
%ADD29RoundRect,0.102000X0.380000X-0.850000X0.380000X0.850000X-0.380000X0.850000X-0.380000X-0.850000X0*%
%ADD30C,1.000000*%
%ADD31RoundRect,0.102000X-0.350000X-0.800000X0.350000X-0.800000X0.350000X0.800000X-0.350000X0.800000X0*%
%ADD32RoundRect,0.102000X-0.600000X-0.900000X0.600000X-0.900000X0.600000X0.900000X-0.600000X0.900000X0*%
%ADD33RoundRect,0.102000X-0.800000X-0.750000X0.800000X-0.750000X0.800000X0.750000X-0.800000X0.750000X0*%
%ADD34RoundRect,0.102000X-0.600000X-1.100000X0.600000X-1.100000X0.600000X1.100000X-0.600000X1.100000X0*%
%ADD35RoundRect,0.150000X0.512500X0.150000X-0.512500X0.150000X-0.512500X-0.150000X0.512500X-0.150000X0*%
%ADD36RoundRect,0.162500X-0.617500X-0.162500X0.617500X-0.162500X0.617500X0.162500X-0.617500X0.162500X0*%
%ADD37C,0.550000*%
%ADD38R,0.600000X1.100000*%
%ADD39R,0.300000X1.150000*%
%ADD40R,1.500000X1.500000*%
%ADD41RoundRect,0.150000X-0.512500X-0.150000X0.512500X-0.150000X0.512500X0.150000X-0.512500X0.150000X0*%
%ADD42R,1.000000X1.800000*%
%ADD43RoundRect,0.162500X-0.837500X-0.162500X0.837500X-0.162500X0.837500X0.162500X-0.837500X0.162500X0*%
%ADD44RoundRect,0.237500X0.237500X-0.287500X0.237500X0.287500X-0.237500X0.287500X-0.237500X-0.287500X0*%
%ADD45RoundRect,0.250000X-0.750000X3.687500X-0.750000X-3.687500X0.750000X-3.687500X0.750000X3.687500X0*%
%ADD46RoundRect,0.112500X0.637500X-0.112500X0.637500X0.112500X-0.637500X0.112500X-0.637500X-0.112500X0*%
%ADD47C,3.251200*%
%ADD48R,1.397000X1.397000*%
%ADD49C,1.397000*%
%ADD50RoundRect,0.250000X0.275000X0.350000X-0.275000X0.350000X-0.275000X-0.350000X0.275000X-0.350000X0*%
%ADD51RoundRect,0.250000X-0.450000X0.350000X-0.450000X-0.350000X0.450000X-0.350000X0.450000X0.350000X0*%
%ADD52RoundRect,0.062500X-0.675000X-0.062500X0.675000X-0.062500X0.675000X0.062500X-0.675000X0.062500X0*%
%ADD53RoundRect,0.062500X-0.062500X-0.675000X0.062500X-0.675000X0.062500X0.675000X-0.062500X0.675000X0*%
%ADD54C,2.154000*%
%ADD55RoundRect,0.102000X0.975000X0.975000X-0.975000X0.975000X-0.975000X-0.975000X0.975000X-0.975000X0*%
%ADD56RoundRect,0.250000X0.750000X-3.687500X0.750000X3.687500X-0.750000X3.687500X-0.750000X-3.687500X0*%
G04 APERTURE END LIST*
D10*
%TO.C,U9*%
X142845000Y-87396000D03*
X142845000Y-87896000D03*
X142845000Y-88396000D03*
X142845000Y-88896000D03*
X142845000Y-89396000D03*
X142845000Y-89896000D03*
D11*
X143530000Y-90581000D03*
X144030000Y-90581000D03*
X144530000Y-90581000D03*
X145030000Y-90581000D03*
X145530000Y-90581000D03*
X146030000Y-90581000D03*
D10*
X146715000Y-89896000D03*
X146715000Y-89396000D03*
X146715000Y-88896000D03*
X146715000Y-88396000D03*
X146715000Y-87896000D03*
X146715000Y-87396000D03*
D11*
X146030000Y-86711000D03*
X145530000Y-86711000D03*
X145030000Y-86711000D03*
X144530000Y-86711000D03*
X144030000Y-86711000D03*
X143530000Y-86711000D03*
D12*
X144780000Y-88646000D03*
%TD*%
D13*
%TO.C,U10*%
X121717400Y-119582399D03*
X121717400Y-118782399D03*
X121717400Y-113182399D03*
X121717400Y-112382400D03*
X122517400Y-119582399D03*
X122517400Y-113182399D03*
X122517400Y-112382400D03*
X123317400Y-117982399D03*
X123317400Y-117182399D03*
X123317400Y-116382399D03*
X123317400Y-115582399D03*
X123317400Y-114782399D03*
X123317400Y-113982399D03*
X124117400Y-117982399D03*
X124117400Y-117182399D03*
X124117400Y-116382399D03*
X124117400Y-115582399D03*
X124117400Y-114782399D03*
X124117400Y-113982399D03*
X124917400Y-117982399D03*
X124917400Y-117182399D03*
X124917400Y-116382399D03*
X124917400Y-115582399D03*
X124917400Y-114782399D03*
X124917400Y-113982399D03*
X125717400Y-117982399D03*
X125717400Y-117182399D03*
X125717400Y-116382399D03*
X125717400Y-115582399D03*
X125717400Y-114782399D03*
X125717400Y-113982399D03*
X126517400Y-117982399D03*
X126517400Y-117182399D03*
X126517400Y-116382399D03*
X126517400Y-115582399D03*
X126517400Y-114782399D03*
X126517400Y-113982399D03*
X127317400Y-117982399D03*
X127317400Y-117182399D03*
X127317400Y-116382399D03*
X127317400Y-115582399D03*
X127317400Y-114782399D03*
X127317400Y-113982399D03*
X128117400Y-117982399D03*
X128117400Y-117182399D03*
X128117400Y-116382399D03*
X128117400Y-115582399D03*
X128117400Y-114782399D03*
X128117400Y-113982399D03*
X128917399Y-117982399D03*
X128917399Y-117182399D03*
X128917399Y-116382399D03*
X128917399Y-115582399D03*
X128917399Y-114782399D03*
X128917399Y-113982399D03*
X129717399Y-119582399D03*
X129717399Y-118782399D03*
X129717399Y-113182399D03*
X129717399Y-112382400D03*
X130517399Y-119582399D03*
X130517399Y-118782399D03*
X130517399Y-113182399D03*
X130517399Y-112382400D03*
%TD*%
D14*
%TO.C,TP1*%
X102362000Y-80264000D03*
%TD*%
D15*
%TO.C,R5*%
X110220000Y-56896000D03*
X108220000Y-56896000D03*
%TD*%
D16*
%TO.C,R6*%
X108220000Y-58928000D03*
X110220000Y-58928000D03*
%TD*%
D17*
%TO.C,SW2*%
X80518000Y-143472500D03*
D18*
X80518000Y-135852500D03*
X83058000Y-143472500D03*
X83058000Y-135852500D03*
%TD*%
D19*
%TO.C,U12*%
X91066000Y-132146000D03*
X91066000Y-134046000D03*
X88766000Y-134046000D03*
X88766000Y-133096000D03*
X88766000Y-132146000D03*
%TD*%
D14*
%TO.C,TP19*%
X97409000Y-133477000D03*
%TD*%
D20*
%TO.C,J8*%
X162560200Y-77470000D03*
D21*
X162560200Y-80010000D03*
X162560200Y-82550000D03*
X162560200Y-85090000D03*
X162560200Y-87630000D03*
X162560200Y-90170000D03*
%TD*%
D20*
%TO.C,J7*%
X162560000Y-100330000D03*
D21*
X162560000Y-102870000D03*
X162560000Y-105410000D03*
X162560000Y-107950000D03*
X162560000Y-110490000D03*
X162560000Y-113030000D03*
%TD*%
D20*
%TO.C,J5*%
X86360000Y-90170000D03*
D21*
X86360000Y-87630000D03*
X86360000Y-85090000D03*
X86360000Y-82550000D03*
X86360000Y-80010000D03*
X86360000Y-77470000D03*
%TD*%
D20*
%TO.C,J3*%
X88900000Y-67310000D03*
D21*
X88900000Y-64770000D03*
X88900000Y-62230000D03*
X88900000Y-59690000D03*
X88900000Y-57150000D03*
X88900000Y-54610000D03*
X86360000Y-67310000D03*
X86360000Y-64770000D03*
X86360000Y-62230000D03*
X86360000Y-59690000D03*
X86360000Y-57150000D03*
X86360000Y-54610000D03*
%TD*%
D20*
%TO.C,J13*%
X88900000Y-113030000D03*
D21*
X88900000Y-110490000D03*
X88900000Y-107950000D03*
X88900000Y-105410000D03*
X88900000Y-102870000D03*
X88900000Y-100330000D03*
X86360000Y-113030000D03*
X86360000Y-110490000D03*
X86360000Y-107950000D03*
X86360000Y-105410000D03*
X86360000Y-102870000D03*
X86360000Y-100330000D03*
%TD*%
D20*
%TO.C,J14*%
X160020000Y-123190000D03*
D21*
X160020000Y-125730000D03*
X160020000Y-128270000D03*
X160020000Y-130810000D03*
X160020000Y-133350000D03*
X160020000Y-135890000D03*
X162560000Y-123190000D03*
X162560000Y-125730000D03*
X162560000Y-128270000D03*
X162560000Y-130810000D03*
X162560000Y-133350000D03*
X162560000Y-135890000D03*
%TD*%
D20*
%TO.C,J6*%
X160020000Y-54610000D03*
D21*
X160020000Y-57150000D03*
X160020000Y-59690000D03*
X160020000Y-62230000D03*
X160020000Y-64770000D03*
X160020000Y-67310000D03*
X162560000Y-54610000D03*
X162560000Y-57150000D03*
X162560000Y-59690000D03*
X162560000Y-62230000D03*
X162560000Y-64770000D03*
X162560000Y-67310000D03*
%TD*%
D14*
%TO.C,TP14*%
X78994000Y-127685800D03*
%TD*%
D22*
%TO.C,C60*%
X95017500Y-79756000D03*
X92942500Y-79756000D03*
%TD*%
D20*
%TO.C,J9*%
X130556000Y-142240000D03*
D21*
X128016000Y-142240000D03*
X125476000Y-142240000D03*
X122936000Y-142240000D03*
X120396000Y-142240000D03*
X117856000Y-142240000D03*
X115316000Y-142240000D03*
X112776000Y-142240000D03*
X110236000Y-142240000D03*
X107696000Y-142240000D03*
%TD*%
D23*
%TO.C,C64*%
X149330500Y-88900000D03*
X151405500Y-88900000D03*
%TD*%
D24*
%TO.C,J1*%
X102082301Y-64773998D03*
D25*
X102082301Y-58674000D03*
D26*
X97282300Y-62174001D03*
%TD*%
D23*
%TO.C,C32*%
X109706500Y-76708000D03*
X111781500Y-76708000D03*
%TD*%
D22*
%TO.C,C39*%
X102129500Y-77724000D03*
X100054500Y-77724000D03*
%TD*%
D27*
%TO.C,D5*%
X166291200Y-142138400D03*
X164541200Y-142138400D03*
%TD*%
D14*
%TO.C,SW1*%
X92674000Y-136979500D03*
X92674000Y-143479500D03*
X88174000Y-136979500D03*
X88174000Y-143479500D03*
%TD*%
D28*
%TO.C,D1*%
X111800000Y-66548000D03*
X116800000Y-66548000D03*
%TD*%
D29*
%TO.C,T1*%
X140589000Y-77552000D03*
X141859000Y-77552000D03*
X143129000Y-77552000D03*
X144399000Y-77552000D03*
X145669000Y-77552000D03*
X146939000Y-77552000D03*
X148209000Y-77552000D03*
X149479000Y-77552000D03*
X149479000Y-68752000D03*
X148209000Y-68752000D03*
X146939000Y-68752000D03*
X145669000Y-68752000D03*
X144399000Y-68752000D03*
X143129000Y-68752000D03*
X141859000Y-68752000D03*
X140589000Y-68752000D03*
%TD*%
D14*
%TO.C,SW3*%
X96810000Y-143495500D03*
X96810000Y-136995500D03*
X101310000Y-143495500D03*
X101310000Y-136995500D03*
%TD*%
D30*
%TO.C,J11*%
X140846000Y-143205200D03*
X148846000Y-143205200D03*
D31*
X148046000Y-132205200D03*
X146946000Y-132205200D03*
X145846000Y-132205200D03*
X144746000Y-132205200D03*
X143646000Y-132205200D03*
X142546000Y-132205200D03*
X141446000Y-132205200D03*
X140346000Y-132205200D03*
X139246000Y-132205200D03*
D32*
X138046000Y-133505200D03*
D33*
X152646000Y-133255200D03*
D34*
X138046000Y-142805200D03*
X153546000Y-142805200D03*
%TD*%
D35*
%TO.C,U1*%
X120796900Y-63662600D03*
X120796900Y-62712600D03*
X120796900Y-61762600D03*
X118521900Y-61762600D03*
X118521900Y-62712600D03*
X118521900Y-63662600D03*
%TD*%
D36*
%TO.C,U7*%
X113458000Y-61534000D03*
X113458000Y-62484000D03*
X113458000Y-63434000D03*
X116158000Y-63434000D03*
X116158000Y-61534000D03*
%TD*%
D14*
%TO.C,TP13*%
X80899000Y-120396000D03*
%TD*%
D16*
%TO.C,R30*%
X144814800Y-79959200D03*
X142814800Y-79959200D03*
%TD*%
D37*
%TO.C,J2*%
X127350000Y-57215000D03*
X121570000Y-57215000D03*
D38*
X127660000Y-58330000D03*
X126860000Y-58330000D03*
D39*
X125710000Y-58280000D03*
X124710000Y-58280000D03*
X124210000Y-58280000D03*
X123210000Y-58280000D03*
D38*
X121260000Y-58330000D03*
X122060000Y-58330000D03*
D39*
X122710000Y-58280000D03*
X123710000Y-58280000D03*
X125210000Y-58280000D03*
X126210000Y-58280000D03*
D40*
X129580000Y-57715000D03*
X119340000Y-57715000D03*
X129580000Y-53785000D03*
X119340000Y-53785000D03*
%TD*%
D23*
%TO.C,C36*%
X109706500Y-74676000D03*
X111781500Y-74676000D03*
%TD*%
D15*
%TO.C,R29*%
X139055600Y-81940400D03*
X141055600Y-81940400D03*
%TD*%
D23*
%TO.C,C63*%
X149330500Y-86868000D03*
X151405500Y-86868000D03*
%TD*%
D19*
%TO.C,U6*%
X80130000Y-130114000D03*
X80130000Y-131064000D03*
X80130000Y-132014000D03*
X82430000Y-132014000D03*
X82430000Y-130114000D03*
%TD*%
D16*
%TO.C,R32*%
X150961600Y-80010000D03*
X148961600Y-80010000D03*
%TD*%
D15*
%TO.C,R38*%
X159477200Y-142138400D03*
X161477200Y-142138400D03*
%TD*%
D22*
%TO.C,C40*%
X102129500Y-73660000D03*
X100054500Y-73660000D03*
%TD*%
D41*
%TO.C,U13*%
X105034500Y-72202000D03*
X105034500Y-73152000D03*
X105034500Y-74102000D03*
X107309500Y-74102000D03*
X107309500Y-72202000D03*
%TD*%
D14*
%TO.C,TP15*%
X82854800Y-127685800D03*
%TD*%
%TO.C,TP2*%
X95478600Y-71551800D03*
%TD*%
D23*
%TO.C,C30*%
X84306500Y-118872000D03*
X86381500Y-118872000D03*
%TD*%
D14*
%TO.C,TP18*%
X92100400Y-128701800D03*
%TD*%
%TO.C,TP3*%
X111252000Y-80264000D03*
%TD*%
%TO.C,TP11*%
X98196400Y-85648800D03*
%TD*%
D23*
%TO.C,C43*%
X133531700Y-114808000D03*
X135606700Y-114808000D03*
%TD*%
D42*
%TO.C,Y2*%
X110510000Y-109474000D03*
X113010000Y-109474000D03*
%TD*%
D43*
%TO.C,U3*%
X104462000Y-67122000D03*
X104462000Y-68072000D03*
X104462000Y-69022000D03*
X107882000Y-69022000D03*
X107882000Y-68072000D03*
X107882000Y-67122000D03*
%TD*%
D44*
%TO.C,D2*%
X104648000Y-142115000D03*
X104648000Y-140365000D03*
%TD*%
D45*
%TO.C,Y1*%
X124968000Y-68738500D03*
X124968000Y-80613500D03*
%TD*%
D46*
%TO.C,D3*%
X86674000Y-125110000D03*
X86674000Y-123810000D03*
X84014000Y-124460000D03*
%TD*%
D14*
%TO.C,TP16*%
X133096000Y-56896000D03*
%TD*%
D41*
%TO.C,U4*%
X92842500Y-89982000D03*
X92842500Y-90932000D03*
X92842500Y-91882000D03*
X95117500Y-91882000D03*
X95117500Y-89982000D03*
%TD*%
D47*
%TO.C,J4*%
X151417100Y-56261000D03*
X138717100Y-56261000D03*
D48*
X141497099Y-58801000D03*
D49*
X142517100Y-60580999D03*
X143537100Y-58801000D03*
X144557098Y-60580999D03*
X145577099Y-58801000D03*
X146597099Y-60580999D03*
X147617100Y-58801000D03*
X148637100Y-60580999D03*
X138207100Y-65400999D03*
X140497100Y-65400999D03*
X149637099Y-65400999D03*
X151927099Y-65400999D03*
%TD*%
D50*
%TO.C,L2*%
X151518000Y-90932000D03*
X149218000Y-90932000D03*
%TD*%
D14*
%TO.C,TP9*%
X170180000Y-144780000D03*
%TD*%
%TO.C,TP12*%
X81280000Y-123952000D03*
%TD*%
%TO.C,TP17*%
X106553000Y-82169000D03*
%TD*%
%TO.C,TP6*%
X116840000Y-72644000D03*
%TD*%
D51*
%TO.C,R41*%
X104648000Y-136176000D03*
X104648000Y-138176000D03*
%TD*%
D41*
%TO.C,U11*%
X105034500Y-77790000D03*
X105034500Y-78740000D03*
X105034500Y-79690000D03*
X107309500Y-79690000D03*
X107309500Y-77790000D03*
%TD*%
D52*
%TO.C,U14*%
X116797500Y-92860000D03*
X116797500Y-93260000D03*
X116797500Y-93660000D03*
X116797500Y-94060000D03*
X116797500Y-94460000D03*
X116797500Y-94860000D03*
X116797500Y-95260000D03*
X116797500Y-95660000D03*
X116797500Y-96060000D03*
X116797500Y-96460000D03*
X116797500Y-96860000D03*
X116797500Y-97260000D03*
X116797500Y-97660000D03*
X116797500Y-98060000D03*
X116797500Y-98460000D03*
X116797500Y-98860000D03*
X116797500Y-99260000D03*
X116797500Y-99660000D03*
X116797500Y-100060000D03*
X116797500Y-100460000D03*
X116797500Y-100860000D03*
X116797500Y-101260000D03*
X116797500Y-101660000D03*
X116797500Y-102060000D03*
X116797500Y-102460000D03*
X116797500Y-102860000D03*
X116797500Y-103260000D03*
X116797500Y-103660000D03*
X116797500Y-104060000D03*
X116797500Y-104460000D03*
X116797500Y-104860000D03*
X116797500Y-105260000D03*
D53*
X118260000Y-106722500D03*
X118660000Y-106722500D03*
X119060000Y-106722500D03*
X119460000Y-106722500D03*
X119860000Y-106722500D03*
X120260000Y-106722500D03*
X120660000Y-106722500D03*
X121060000Y-106722500D03*
X121460000Y-106722500D03*
X121860000Y-106722500D03*
X122260000Y-106722500D03*
X122660000Y-106722500D03*
X123060000Y-106722500D03*
X123460000Y-106722500D03*
X123860000Y-106722500D03*
X124260000Y-106722500D03*
X124660000Y-106722500D03*
X125060000Y-106722500D03*
X125460000Y-106722500D03*
X125860000Y-106722500D03*
X126260000Y-106722500D03*
X126660000Y-106722500D03*
X127060000Y-106722500D03*
X127460000Y-106722500D03*
X127860000Y-106722500D03*
X128260000Y-106722500D03*
X128660000Y-106722500D03*
X129060000Y-106722500D03*
X129460000Y-106722500D03*
X129860000Y-106722500D03*
X130260000Y-106722500D03*
X130660000Y-106722500D03*
D52*
X132122500Y-105260000D03*
X132122500Y-104860000D03*
X132122500Y-104460000D03*
X132122500Y-104060000D03*
X132122500Y-103660000D03*
X132122500Y-103260000D03*
X132122500Y-102860000D03*
X132122500Y-102460000D03*
X132122500Y-102060000D03*
X132122500Y-101660000D03*
X132122500Y-101260000D03*
X132122500Y-100860000D03*
X132122500Y-100460000D03*
X132122500Y-100060000D03*
X132122500Y-99660000D03*
X132122500Y-99260000D03*
X132122500Y-98860000D03*
X132122500Y-98460000D03*
X132122500Y-98060000D03*
X132122500Y-97660000D03*
X132122500Y-97260000D03*
X132122500Y-96860000D03*
X132122500Y-96460000D03*
X132122500Y-96060000D03*
X132122500Y-95660000D03*
X132122500Y-95260000D03*
X132122500Y-94860000D03*
X132122500Y-94460000D03*
X132122500Y-94060000D03*
X132122500Y-93660000D03*
X132122500Y-93260000D03*
X132122500Y-92860000D03*
D53*
X130660000Y-91397500D03*
X130260000Y-91397500D03*
X129860000Y-91397500D03*
X129460000Y-91397500D03*
X129060000Y-91397500D03*
X128660000Y-91397500D03*
X128260000Y-91397500D03*
X127860000Y-91397500D03*
X127460000Y-91397500D03*
X127060000Y-91397500D03*
X126660000Y-91397500D03*
X126260000Y-91397500D03*
X125860000Y-91397500D03*
X125460000Y-91397500D03*
X125060000Y-91397500D03*
X124660000Y-91397500D03*
X124260000Y-91397500D03*
X123860000Y-91397500D03*
X123460000Y-91397500D03*
X123060000Y-91397500D03*
X122660000Y-91397500D03*
X122260000Y-91397500D03*
X121860000Y-91397500D03*
X121460000Y-91397500D03*
X121060000Y-91397500D03*
X120660000Y-91397500D03*
X120260000Y-91397500D03*
X119860000Y-91397500D03*
X119460000Y-91397500D03*
X119060000Y-91397500D03*
X118660000Y-91397500D03*
X118260000Y-91397500D03*
%TD*%
D23*
%TO.C,C56*%
X149330500Y-82804000D03*
X151405500Y-82804000D03*
%TD*%
D14*
%TO.C,TP8*%
X93218000Y-87376000D03*
%TD*%
D15*
%TO.C,R31*%
X145456400Y-81940400D03*
X147456400Y-81940400D03*
%TD*%
D41*
%TO.C,U2*%
X92842500Y-81854000D03*
X92842500Y-82804000D03*
X92842500Y-83754000D03*
X95117500Y-83754000D03*
X95117500Y-81854000D03*
%TD*%
D15*
%TO.C,R21*%
X149368000Y-92964000D03*
X151368000Y-92964000D03*
%TD*%
D54*
%TO.C,BT1*%
X111741000Y-121920000D03*
D55*
X91741000Y-121920000D03*
%TD*%
D14*
%TO.C,TP7*%
X113792000Y-54356000D03*
%TD*%
D22*
%TO.C,C42*%
X102129500Y-69596000D03*
X100054500Y-69596000D03*
%TD*%
D15*
%TO.C,R19*%
X100092000Y-67564000D03*
X102092000Y-67564000D03*
%TD*%
D50*
%TO.C,L1*%
X102242000Y-71628000D03*
X99942000Y-71628000D03*
%TD*%
D14*
%TO.C,TP10*%
X101650800Y-85801200D03*
%TD*%
D23*
%TO.C,C55*%
X149330500Y-84836000D03*
X151405500Y-84836000D03*
%TD*%
D56*
%TO.C,Y3*%
X131064000Y-80613500D03*
X131064000Y-68738500D03*
%TD*%
D14*
%TO.C,TP4*%
X108712000Y-54356000D03*
%TD*%
D22*
%TO.C,C35*%
X102129500Y-75692000D03*
X100054500Y-75692000D03*
%TD*%
D36*
%TO.C,U5*%
X108378000Y-61534000D03*
X108378000Y-62484000D03*
X108378000Y-63434000D03*
X111078000Y-63434000D03*
X111078000Y-61534000D03*
%TD*%
D23*
%TO.C,C45*%
X133582500Y-116890800D03*
X135657500Y-116890800D03*
%TD*%
D46*
%TO.C,D4*%
X86674000Y-122062000D03*
X86674000Y-120762000D03*
X84014000Y-121412000D03*
%TD*%
D14*
%TO.C,TP5*%
X112623600Y-69850000D03*
%TD*%
D15*
%TO.C,R22*%
X139309600Y-84328000D03*
X141309600Y-84328000D03*
%TD*%
D16*
%TO.C,R7*%
X115808000Y-58928000D03*
X113808000Y-58928000D03*
%TD*%
D15*
%TO.C,R8*%
X115824000Y-56896000D03*
X113824000Y-56896000D03*
%TD*%
M02*
