%TF.GenerationSoftware,KiCad,Pcbnew,9.0.6-9.0.6~ubuntu24.04.1*%
%TF.CreationDate,2026-02-01T19:09:27-03:00*%
%TF.ProjectId,nuvoton_nuc980,6e75766f-746f-46e5-9f6e-75633938302e,0.0*%
%TF.SameCoordinates,Original*%
%TF.FileFunction,Paste,Bot*%
%TF.FilePolarity,Positive*%
%FSLAX46Y46*%
G04 Gerber Fmt 4.6, Leading zero omitted, Abs format (unit mm)*
G04 Created by KiCad (PCBNEW 9.0.6-9.0.6~ubuntu24.04.1) date 2026-02-01 19:09:27*
%MOMM*%
%LPD*%
G01*
G04 APERTURE LIST*
G04 Aperture macros list*
%AMRoundRect*
0 Rectangle with rounded corners*
0 $1 Rounding radius*
0 $2 $3 $4 $5 $6 $7 $8 $9 X,Y pos of 4 corners*
0 Add a 4 corners polygon primitive as box body*
4,1,4,$2,$3,$4,$5,$6,$7,$8,$9,$2,$3,0*
0 Add four circle primitives for the rounded corners*
1,1,$1+$1,$2,$3*
1,1,$1+$1,$4,$5*
1,1,$1+$1,$6,$7*
1,1,$1+$1,$8,$9*
0 Add four rect primitives between the rounded corners*
20,1,$1+$1,$2,$3,$4,$5,0*
20,1,$1+$1,$4,$5,$6,$7,0*
20,1,$1+$1,$6,$7,$8,$9,0*
20,1,$1+$1,$8,$9,$2,$3,0*%
G04 Aperture macros list end*
%ADD10RoundRect,0.250000X-0.475000X0.337500X-0.475000X-0.337500X0.475000X-0.337500X0.475000X0.337500X0*%
%ADD11RoundRect,0.250000X0.650000X-0.412500X0.650000X0.412500X-0.650000X0.412500X-0.650000X-0.412500X0*%
%ADD12RoundRect,0.250000X0.350000X0.450000X-0.350000X0.450000X-0.350000X-0.450000X0.350000X-0.450000X0*%
%ADD13RoundRect,0.250000X-0.337500X-0.475000X0.337500X-0.475000X0.337500X0.475000X-0.337500X0.475000X0*%
%ADD14RoundRect,0.250000X0.337500X0.475000X-0.337500X0.475000X-0.337500X-0.475000X0.337500X-0.475000X0*%
%ADD15RoundRect,0.250000X0.450000X-0.350000X0.450000X0.350000X-0.450000X0.350000X-0.450000X-0.350000X0*%
%ADD16RoundRect,0.250000X-0.350000X-0.450000X0.350000X-0.450000X0.350000X0.450000X-0.350000X0.450000X0*%
%ADD17RoundRect,0.250000X-0.650000X0.412500X-0.650000X-0.412500X0.650000X-0.412500X0.650000X0.412500X0*%
%ADD18RoundRect,0.250000X-0.450000X0.350000X-0.450000X-0.350000X0.450000X-0.350000X0.450000X0.350000X0*%
%ADD19RoundRect,0.250000X0.475000X-0.337500X0.475000X0.337500X-0.475000X0.337500X-0.475000X-0.337500X0*%
G04 APERTURE END LIST*
D10*
%TO.C,C50*%
X144272000Y-92688500D03*
X144272000Y-94763500D03*
%TD*%
D11*
%TO.C,C68*%
X154178000Y-138722500D03*
X154178000Y-135597500D03*
%TD*%
D12*
%TO.C,R15*%
X114284000Y-104648000D03*
X112284000Y-104648000D03*
%TD*%
D13*
%TO.C,C20*%
X124438500Y-96520000D03*
X126513500Y-96520000D03*
%TD*%
D14*
%TO.C,C24*%
X122449500Y-96520000D03*
X120374500Y-96520000D03*
%TD*%
D15*
%TO.C,R11*%
X80772000Y-140662500D03*
X80772000Y-138662500D03*
%TD*%
D13*
%TO.C,C61*%
X97514500Y-83820000D03*
X99589500Y-83820000D03*
%TD*%
%TO.C,C9*%
X124438500Y-104648000D03*
X126513500Y-104648000D03*
%TD*%
D15*
%TO.C,R40*%
X126746000Y-55864000D03*
X126746000Y-53864000D03*
%TD*%
D13*
%TO.C,C25*%
X128502500Y-98552000D03*
X130577500Y-98552000D03*
%TD*%
D16*
%TO.C,R2*%
X100092000Y-67564000D03*
X102092000Y-67564000D03*
%TD*%
D13*
%TO.C,C34*%
X129010500Y-84836000D03*
X131085500Y-84836000D03*
%TD*%
D15*
%TO.C,R34*%
X144272000Y-69580000D03*
X144272000Y-67580000D03*
%TD*%
D13*
%TO.C,C29*%
X92942500Y-87884000D03*
X95017500Y-87884000D03*
%TD*%
D12*
%TO.C,R1*%
X102092000Y-69596000D03*
X100092000Y-69596000D03*
%TD*%
D14*
%TO.C,C19*%
X122449500Y-94488000D03*
X120374500Y-94488000D03*
%TD*%
%TO.C,C14*%
X118385500Y-98552000D03*
X116310500Y-98552000D03*
%TD*%
D15*
%TO.C,R23*%
X150368000Y-69580000D03*
X150368000Y-67580000D03*
%TD*%
D12*
%TO.C,R20*%
X114284000Y-106680000D03*
X112284000Y-106680000D03*
%TD*%
D14*
%TO.C,C1*%
X122449500Y-102616000D03*
X120374500Y-102616000D03*
%TD*%
D17*
%TO.C,C54*%
X147574000Y-72097500D03*
X147574000Y-75222500D03*
%TD*%
D14*
%TO.C,C16*%
X126513500Y-94488000D03*
X124438500Y-94488000D03*
%TD*%
D13*
%TO.C,C21*%
X128502500Y-100584000D03*
X130577500Y-100584000D03*
%TD*%
D10*
%TO.C,C67*%
X97028000Y-139208000D03*
X97028000Y-141283000D03*
%TD*%
D18*
%TO.C,R28*%
X148336000Y-67580000D03*
X148336000Y-69580000D03*
%TD*%
D14*
%TO.C,C15*%
X122449500Y-104648000D03*
X120374500Y-104648000D03*
%TD*%
D15*
%TO.C,R43*%
X99060000Y-141245500D03*
X99060000Y-139245500D03*
%TD*%
D18*
%TO.C,R4*%
X88392000Y-139229500D03*
X88392000Y-141229500D03*
%TD*%
%TO.C,R25*%
X138176000Y-67580000D03*
X138176000Y-69580000D03*
%TD*%
D14*
%TO.C,C26*%
X118385500Y-104648000D03*
X116310500Y-104648000D03*
%TD*%
D17*
%TO.C,C59*%
X145034000Y-72097500D03*
X145034000Y-75222500D03*
%TD*%
D13*
%TO.C,C11*%
X120374500Y-100584000D03*
X122449500Y-100584000D03*
%TD*%
D14*
%TO.C,C22*%
X126513500Y-100584000D03*
X124438500Y-100584000D03*
%TD*%
D13*
%TO.C,C65*%
X149309000Y-92964000D03*
X151384000Y-92964000D03*
%TD*%
D15*
%TO.C,R33*%
X146304000Y-69580000D03*
X146304000Y-67580000D03*
%TD*%
D11*
%TO.C,C66*%
X124460000Y-56172500D03*
X124460000Y-53047500D03*
%TD*%
D14*
%TO.C,C4*%
X130577500Y-92456000D03*
X128502500Y-92456000D03*
%TD*%
D16*
%TO.C,R36*%
X98060000Y-90932000D03*
X100060000Y-90932000D03*
%TD*%
D18*
%TO.C,R42*%
X101092000Y-139245500D03*
X101092000Y-141245500D03*
%TD*%
D13*
%TO.C,C49*%
X124438500Y-92456000D03*
X126513500Y-92456000D03*
%TD*%
%TO.C,C28*%
X98022500Y-88430000D03*
X100097500Y-88430000D03*
%TD*%
D10*
%TO.C,C31*%
X92456000Y-139192000D03*
X92456000Y-141267000D03*
%TD*%
D19*
%TO.C,C57*%
X149860000Y-74697500D03*
X149860000Y-72622500D03*
%TD*%
D10*
%TO.C,C51*%
X142240000Y-92688500D03*
X142240000Y-94763500D03*
%TD*%
D14*
%TO.C,C27*%
X118385500Y-102616000D03*
X116310500Y-102616000D03*
%TD*%
%TO.C,C33*%
X127021500Y-84836000D03*
X124946500Y-84836000D03*
%TD*%
D12*
%TO.C,R16*%
X114284000Y-102616000D03*
X112284000Y-102616000D03*
%TD*%
D14*
%TO.C,C23*%
X122449500Y-98552000D03*
X120374500Y-98552000D03*
%TD*%
D10*
%TO.C,C46*%
X126492000Y-119358500D03*
X126492000Y-121433500D03*
%TD*%
D16*
%TO.C,R10*%
X124476000Y-106680000D03*
X126476000Y-106680000D03*
%TD*%
D12*
%TO.C,R17*%
X114284000Y-98552000D03*
X112284000Y-98552000D03*
%TD*%
D14*
%TO.C,C18*%
X126513500Y-98552000D03*
X124438500Y-98552000D03*
%TD*%
D16*
%TO.C,R37*%
X97552000Y-81788000D03*
X99552000Y-81788000D03*
%TD*%
D14*
%TO.C,C41*%
X102129500Y-71628000D03*
X100054500Y-71628000D03*
%TD*%
%TO.C,C17*%
X126513500Y-102616000D03*
X124438500Y-102616000D03*
%TD*%
%TO.C,C53*%
X132588000Y-79756000D03*
X130513000Y-79756000D03*
%TD*%
D13*
%TO.C,C37*%
X120374500Y-106680000D03*
X122449500Y-106680000D03*
%TD*%
D10*
%TO.C,C44*%
X122428000Y-119358500D03*
X122428000Y-121433500D03*
%TD*%
D15*
%TO.C,R12*%
X82804000Y-140662500D03*
X82804000Y-138662500D03*
%TD*%
D18*
%TO.C,R35*%
X142748000Y-72660000D03*
X142748000Y-74660000D03*
%TD*%
D13*
%TO.C,C7*%
X128502500Y-94488000D03*
X130577500Y-94488000D03*
%TD*%
%TO.C,C8*%
X128524000Y-102616000D03*
X130599000Y-102616000D03*
%TD*%
D12*
%TO.C,R18*%
X118348000Y-90424000D03*
X116348000Y-90424000D03*
%TD*%
D14*
%TO.C,C13*%
X118385500Y-100584000D03*
X116310500Y-100584000D03*
%TD*%
%TO.C,C47*%
X118385500Y-92456000D03*
X116310500Y-92456000D03*
%TD*%
D15*
%TO.C,R3*%
X90424000Y-141229500D03*
X90424000Y-139229500D03*
%TD*%
D19*
%TO.C,C58*%
X140716000Y-74697500D03*
X140716000Y-72622500D03*
%TD*%
D13*
%TO.C,C2*%
X128502500Y-104648000D03*
X130577500Y-104648000D03*
%TD*%
D18*
%TO.C,R26*%
X140208000Y-67580000D03*
X140208000Y-69580000D03*
%TD*%
D14*
%TO.C,C38*%
X118385500Y-106680000D03*
X116310500Y-106680000D03*
%TD*%
%TO.C,C52*%
X132609500Y-77724000D03*
X130534500Y-77724000D03*
%TD*%
%TO.C,C3*%
X130577500Y-96520000D03*
X128502500Y-96520000D03*
%TD*%
D13*
%TO.C,C48*%
X120374500Y-92456000D03*
X122449500Y-92456000D03*
%TD*%
%TO.C,C62*%
X149309000Y-90932000D03*
X151384000Y-90932000D03*
%TD*%
%TO.C,C12*%
X124438500Y-90424000D03*
X126513500Y-90424000D03*
%TD*%
D14*
%TO.C,C10*%
X118385500Y-96520000D03*
X116310500Y-96520000D03*
%TD*%
D18*
%TO.C,R27*%
X142240000Y-67580000D03*
X142240000Y-69580000D03*
%TD*%
D14*
%TO.C,C5*%
X118385500Y-94488000D03*
X116310500Y-94488000D03*
%TD*%
D12*
%TO.C,R9*%
X130540000Y-106680000D03*
X128540000Y-106680000D03*
%TD*%
%TO.C,R13*%
X114284000Y-94488000D03*
X112284000Y-94488000D03*
%TD*%
D15*
%TO.C,R39*%
X122174000Y-55864000D03*
X122174000Y-53864000D03*
%TD*%
D18*
%TO.C,R24*%
X152400000Y-67580000D03*
X152400000Y-69580000D03*
%TD*%
D12*
%TO.C,R14*%
X114284000Y-96520000D03*
X112284000Y-96520000D03*
%TD*%
D14*
%TO.C,C6*%
X122449500Y-90424000D03*
X120374500Y-90424000D03*
%TD*%
M02*
