%TF.GenerationSoftware,KiCad,Pcbnew,9.0.6-9.0.6~ubuntu24.04.1*%
%TF.CreationDate,2026-01-17T19:07:13-03:00*%
%TF.ProjectId,cotti_leds,636f7474-695f-46c6-9564-732e6b696361,0.0*%
%TF.SameCoordinates,Original*%
%TF.FileFunction,Copper,L2,Bot*%
%TF.FilePolarity,Positive*%
%FSLAX46Y46*%
G04 Gerber Fmt 4.6, Leading zero omitted, Abs format (unit mm)*
G04 Created by KiCad (PCBNEW 9.0.6-9.0.6~ubuntu24.04.1) date 2026-01-17 19:07:13*
%MOMM*%
%LPD*%
G01*
G04 APERTURE LIST*
%TA.AperFunction,ComponentPad*%
%ADD10R,1.700000X1.700000*%
%TD*%
%TA.AperFunction,ComponentPad*%
%ADD11C,1.700000*%
%TD*%
%TA.AperFunction,ComponentPad*%
%ADD12R,1.350000X1.350000*%
%TD*%
%TA.AperFunction,ComponentPad*%
%ADD13C,1.350000*%
%TD*%
%TA.AperFunction,ComponentPad*%
%ADD14C,2.000000*%
%TD*%
%TA.AperFunction,ViaPad*%
%ADD15C,0.600000*%
%TD*%
%TA.AperFunction,Conductor*%
%ADD16C,0.200000*%
%TD*%
G04 APERTURE END LIST*
D10*
%TO.P,J1,1,IO1*%
%TO.N,/io1*%
X113030000Y-100330000D03*
D11*
%TO.P,J1,2,IO2/PWM*%
%TO.N,/io2*%
X113030000Y-102870000D03*
%TO.P,J1,3,IO3*%
%TO.N,/io3*%
X113030000Y-105410000D03*
%TO.P,J1,4,IO4*%
%TO.N,/io4*%
X113030000Y-107950000D03*
%TO.P,J1,5,GND*%
%TO.N,GND*%
X113030000Y-110490000D03*
%TO.P,J1,6,VCC*%
%TO.N,VCC*%
X113030000Y-113030000D03*
%TD*%
D10*
%TO.P,JP2,1,A*%
%TO.N,/io2_H*%
X127000000Y-100076000D03*
D11*
%TO.P,JP2,2,C*%
%TO.N,/io2*%
X127000000Y-102616000D03*
%TO.P,JP2,3,B*%
%TO.N,/io2_L*%
X127000000Y-105156000D03*
%TD*%
D12*
%TO.P,SW1,1,A*%
%TO.N,/vcc1*%
X122428000Y-110617000D03*
D13*
%TO.P,SW1,2,B*%
%TO.N,VCC*%
X124428000Y-110617000D03*
%TO.P,SW1,3,C*%
%TO.N,Net-(R1-Pad1)*%
X126428000Y-110617000D03*
%TO.P,SW1,4,A*%
%TO.N,/vcc2*%
X128428000Y-110617000D03*
%TO.P,SW1,5,B*%
%TO.N,VCC*%
X130428000Y-110617000D03*
%TO.P,SW1,6,C*%
%TO.N,Net-(R2-Pad1)*%
X132428000Y-110617000D03*
%TO.P,SW1,7,A*%
%TO.N,/vcc3*%
X122428000Y-113117000D03*
%TO.P,SW1,8,B*%
%TO.N,VCC*%
X124428000Y-113117000D03*
%TO.P,SW1,9,C*%
%TO.N,Net-(R3-Pad1)*%
X126428000Y-113117000D03*
%TO.P,SW1,10,A*%
%TO.N,/vcc4*%
X128428000Y-113117000D03*
%TO.P,SW1,11,B*%
%TO.N,VCC*%
X130428000Y-113117000D03*
%TO.P,SW1,12,C*%
%TO.N,Net-(R4-Pad1)*%
X132428000Y-113117000D03*
D14*
%TO.P,SW1,13,GND*%
%TO.N,GND*%
X120828000Y-109067000D03*
%TO.P,SW1,14,GND*%
X134028000Y-114667000D03*
%TD*%
D10*
%TO.P,JP3,1,A*%
%TO.N,/io3_H*%
X130810000Y-100076000D03*
D11*
%TO.P,JP3,2,C*%
%TO.N,/io3*%
X130810000Y-102616000D03*
%TO.P,JP3,3,B*%
%TO.N,/io3_L*%
X130810000Y-105156000D03*
%TD*%
D10*
%TO.P,JP4,1,A*%
%TO.N,/io4_H*%
X134620000Y-100076000D03*
D11*
%TO.P,JP4,2,C*%
%TO.N,/io4*%
X134620000Y-102616000D03*
%TO.P,JP4,3,B*%
%TO.N,/io4_L*%
X134620000Y-105156000D03*
%TD*%
D10*
%TO.P,JP1,1,A*%
%TO.N,/io1_H*%
X123190000Y-100076000D03*
D11*
%TO.P,JP1,2,C*%
%TO.N,/io1*%
X123190000Y-102616000D03*
%TO.P,JP1,3,B*%
%TO.N,/io1_L*%
X123190000Y-105156000D03*
%TD*%
D15*
%TO.N,GND*%
X156210000Y-114300000D03*
X134239000Y-111379000D03*
X156210000Y-109474000D03*
X144780000Y-99568000D03*
X144780000Y-114046000D03*
X144780000Y-104394000D03*
X156210000Y-104648000D03*
X144780000Y-109220000D03*
X138430000Y-107188000D03*
X156210000Y-99822000D03*
X137414000Y-102616000D03*
%TO.N,/io1_H*%
X142748000Y-98044000D03*
%TO.N,/io1_L*%
X143764000Y-97409000D03*
%TO.N,/io2_H*%
X142367000Y-102997000D03*
%TO.N,/io2_L*%
X139055083Y-102234832D03*
%TO.N,/io3_L*%
X142240000Y-107569000D03*
%TO.N,/io3_H*%
X140455000Y-107188000D03*
%TO.N,/io4_L*%
X140843000Y-111887000D03*
%TO.N,/io4_H*%
X139654997Y-107188000D03*
%TO.N,/vcc1*%
X142014000Y-100838000D03*
X148336000Y-101311000D03*
%TO.N,/vcc2*%
X148336000Y-106137000D03*
X142014000Y-105664000D03*
%TO.N,/vcc3*%
X142014000Y-110998000D03*
X148336000Y-110998000D03*
%TO.N,/vcc4*%
X142014000Y-115687108D03*
X148336000Y-115697000D03*
%TO.N,Net-(D1-K)*%
X145796000Y-100711000D03*
X153670000Y-100711000D03*
%TO.N,Net-(D2-K)*%
X153670000Y-105537000D03*
X145796000Y-105537000D03*
%TO.N,Net-(D3-K)*%
X153670000Y-110363000D03*
X145796000Y-110363000D03*
%TO.N,Net-(D4-K)*%
X145796000Y-115062000D03*
X153600000Y-115189000D03*
%TD*%
D16*
%TO.N,/io1_H*%
X123718000Y-97770000D02*
X123190000Y-98298000D01*
X123190000Y-98298000D02*
X123190000Y-100076000D01*
X142474000Y-97770000D02*
X123718000Y-97770000D01*
X142748000Y-98044000D02*
X142474000Y-97770000D01*
%TO.N,/io1_L*%
X122341000Y-97369000D02*
X143724000Y-97369000D01*
X121666000Y-104902000D02*
X121666000Y-98044000D01*
X121666000Y-98044000D02*
X122341000Y-97369000D01*
X121920000Y-105156000D02*
X121666000Y-104902000D01*
X123190000Y-105156000D02*
X121920000Y-105156000D01*
X143724000Y-97369000D02*
X143764000Y-97409000D01*
%TO.N,/io2_H*%
X127635000Y-98171000D02*
X127000000Y-98806000D01*
X140970000Y-101600000D02*
X140970000Y-98298000D01*
X140843000Y-98171000D02*
X127635000Y-98171000D01*
X127000000Y-98806000D02*
X127000000Y-100076000D01*
X140970000Y-98298000D02*
X140843000Y-98171000D01*
X142367000Y-102997000D02*
X140970000Y-101600000D01*
%TO.N,/io2_L*%
X138041000Y-101465000D02*
X138810832Y-102234832D01*
X128524000Y-103378000D02*
X128524000Y-101854000D01*
X127000000Y-105156000D02*
X127000000Y-104902000D01*
X128913000Y-101465000D02*
X138041000Y-101465000D01*
X138810832Y-102234832D02*
X139055083Y-102234832D01*
X128524000Y-101854000D02*
X128913000Y-101465000D01*
X127000000Y-104902000D02*
X128524000Y-103378000D01*
%TO.N,/io3_L*%
X136144000Y-107442000D02*
X136144000Y-104394000D01*
X135636000Y-103886000D02*
X132080000Y-103886000D01*
X141224000Y-108585000D02*
X137287000Y-108585000D01*
X136144000Y-104394000D02*
X135636000Y-103886000D01*
X137287000Y-108585000D02*
X136144000Y-107442000D01*
X142240000Y-107569000D02*
X141224000Y-108585000D01*
X132080000Y-103886000D02*
X130810000Y-105156000D01*
%TO.N,/io3_H*%
X140335000Y-107068000D02*
X140335000Y-98933000D01*
X130810000Y-98826000D02*
X130810000Y-100076000D01*
X139974000Y-98572000D02*
X131064000Y-98572000D01*
X140335000Y-98933000D02*
X139974000Y-98572000D01*
X131064000Y-98572000D02*
X130810000Y-98826000D01*
X140455000Y-107188000D02*
X140335000Y-107068000D01*
%TO.N,/io4_L*%
X137795000Y-111887000D02*
X136144000Y-111887000D01*
X140842000Y-111888000D02*
X137796000Y-111888000D01*
X134620000Y-110363000D02*
X134620000Y-105156000D01*
X137796000Y-111888000D02*
X137795000Y-111887000D01*
X140843000Y-111887000D02*
X140842000Y-111888000D01*
X136144000Y-111887000D02*
X134620000Y-110363000D01*
%TO.N,/io4_H*%
X139654997Y-107188000D02*
X139700000Y-107142997D01*
X139700000Y-107142997D02*
X139700000Y-100330000D01*
X139446000Y-100076000D02*
X134620000Y-100076000D01*
X139700000Y-100330000D02*
X139446000Y-100076000D01*
%TO.N,/vcc1*%
X142488000Y-101312000D02*
X148335000Y-101312000D01*
X142014000Y-100838000D02*
X142488000Y-101312000D01*
X148335000Y-101312000D02*
X148336000Y-101311000D01*
%TO.N,/vcc2*%
X142014000Y-105664000D02*
X142487000Y-106137000D01*
X142487000Y-106137000D02*
X148336000Y-106137000D01*
%TO.N,/vcc3*%
X123404000Y-112141000D02*
X122428000Y-113117000D01*
X142014000Y-112748000D02*
X141478000Y-113284000D01*
X142014000Y-110998000D02*
X142014000Y-112748000D01*
X141478000Y-113284000D02*
X135128000Y-113284000D01*
X135128000Y-113284000D02*
X133985000Y-112141000D01*
X142014000Y-110998000D02*
X148336000Y-110998000D01*
X133985000Y-112141000D02*
X123404000Y-112141000D01*
%TO.N,/vcc4*%
X142014000Y-115687108D02*
X142014000Y-116050000D01*
X148336000Y-115697000D02*
X142023892Y-115697000D01*
X142014000Y-116050000D02*
X141825000Y-116239000D01*
X128428000Y-115601000D02*
X128428000Y-113117000D01*
X142023892Y-115697000D02*
X142014000Y-115687108D01*
X129066000Y-116239000D02*
X128428000Y-115601000D01*
X141825000Y-116239000D02*
X129066000Y-116239000D01*
%TO.N,Net-(D1-K)*%
X145796000Y-100711000D02*
X153670000Y-100711000D01*
%TO.N,Net-(D2-K)*%
X153670000Y-105537000D02*
X145796000Y-105537000D01*
%TO.N,Net-(D3-K)*%
X153670000Y-110363000D02*
X145796000Y-110363000D01*
%TO.N,Net-(D4-K)*%
X153473000Y-115062000D02*
X145796000Y-115062000D01*
X153600000Y-115189000D02*
X153473000Y-115062000D01*
%TD*%
%TA.AperFunction,Conductor*%
%TO.N,GND*%
G36*
X121979311Y-97040462D02*
G01*
X122033849Y-97095000D01*
X122053811Y-97169500D01*
X122033849Y-97244000D01*
X122010170Y-97274859D01*
X121425540Y-97859488D01*
X121385979Y-97928011D01*
X121375251Y-97968049D01*
X121365500Y-98004438D01*
X121365500Y-104941562D01*
X121385979Y-105017989D01*
X121405924Y-105052534D01*
X121422983Y-105082082D01*
X121422983Y-105082083D01*
X121425537Y-105086507D01*
X121425540Y-105086511D01*
X121679540Y-105340511D01*
X121735489Y-105396460D01*
X121804011Y-105436021D01*
X121880438Y-105456500D01*
X122077859Y-105456500D01*
X122152359Y-105476462D01*
X122206897Y-105531000D01*
X122215517Y-105548480D01*
X122259057Y-105653595D01*
X122374022Y-105825654D01*
X122520345Y-105971977D01*
X122692403Y-106086942D01*
X122771591Y-106119742D01*
X122883580Y-106166130D01*
X123086535Y-106206500D01*
X123293465Y-106206500D01*
X123496420Y-106166130D01*
X123664402Y-106096548D01*
X123687596Y-106086942D01*
X123687596Y-106086941D01*
X123687598Y-106086941D01*
X123859655Y-105971977D01*
X124005977Y-105825655D01*
X124120941Y-105653598D01*
X124200130Y-105462420D01*
X124240500Y-105259465D01*
X124240500Y-105052535D01*
X124237310Y-105036500D01*
X124212626Y-104912402D01*
X124200130Y-104849580D01*
X124120943Y-104658406D01*
X124120942Y-104658403D01*
X124005977Y-104486345D01*
X123859654Y-104340022D01*
X123687596Y-104225057D01*
X123513911Y-104153115D01*
X123496420Y-104145870D01*
X123496418Y-104145869D01*
X123496417Y-104145869D01*
X123293465Y-104105500D01*
X123086535Y-104105500D01*
X122883582Y-104145869D01*
X122692403Y-104225057D01*
X122520345Y-104340022D01*
X122374022Y-104486345D01*
X122259058Y-104658402D01*
X122253158Y-104672648D01*
X122206204Y-104733837D01*
X122134947Y-104763352D01*
X122058479Y-104753285D01*
X121997290Y-104706331D01*
X121967775Y-104635074D01*
X121966500Y-104615627D01*
X121966500Y-103156372D01*
X121986462Y-103081872D01*
X122041000Y-103027334D01*
X122115500Y-103007372D01*
X122190000Y-103027334D01*
X122244538Y-103081872D01*
X122253155Y-103099346D01*
X122259058Y-103113596D01*
X122259059Y-103113598D01*
X122374022Y-103285654D01*
X122520345Y-103431977D01*
X122692403Y-103546942D01*
X122771591Y-103579742D01*
X122883580Y-103626130D01*
X123086535Y-103666500D01*
X123293465Y-103666500D01*
X123496420Y-103626130D01*
X123687598Y-103546941D01*
X123859655Y-103431977D01*
X124005977Y-103285655D01*
X124120941Y-103113598D01*
X124200130Y-102922420D01*
X124240500Y-102719465D01*
X124240500Y-102512535D01*
X124237715Y-102498536D01*
X124200130Y-102309582D01*
X124200130Y-102309580D01*
X124126842Y-102132648D01*
X124120942Y-102118403D01*
X124005977Y-101946345D01*
X123859654Y-101800022D01*
X123687596Y-101685057D01*
X123512426Y-101612500D01*
X123496420Y-101605870D01*
X123496418Y-101605869D01*
X123496417Y-101605869D01*
X123293465Y-101565500D01*
X123086535Y-101565500D01*
X122883582Y-101605869D01*
X122692403Y-101685057D01*
X122520345Y-101800022D01*
X122374022Y-101946345D01*
X122259058Y-102118402D01*
X122253158Y-102132648D01*
X122206204Y-102193837D01*
X122134947Y-102223352D01*
X122058479Y-102213285D01*
X121997290Y-102166331D01*
X121967775Y-102095074D01*
X121966500Y-102075627D01*
X121966500Y-101196332D01*
X121986462Y-101121832D01*
X122041000Y-101067294D01*
X122115500Y-101047332D01*
X122190000Y-101067294D01*
X122198254Y-101072427D01*
X122224554Y-101090000D01*
X122261768Y-101114867D01*
X122320252Y-101126500D01*
X124059748Y-101126500D01*
X124118231Y-101114867D01*
X124184552Y-101070552D01*
X124228867Y-101004231D01*
X124240500Y-100945748D01*
X124240500Y-99206252D01*
X124228867Y-99147769D01*
X124184552Y-99081448D01*
X124118231Y-99037133D01*
X124118230Y-99037132D01*
X124059748Y-99025500D01*
X123639500Y-99025500D01*
X123565000Y-99005538D01*
X123510462Y-98951000D01*
X123490500Y-98876500D01*
X123490500Y-98484189D01*
X123510462Y-98409689D01*
X123534141Y-98378830D01*
X123798830Y-98114141D01*
X123865625Y-98075577D01*
X123904189Y-98070500D01*
X126950811Y-98070500D01*
X127025311Y-98090462D01*
X127079849Y-98145000D01*
X127099811Y-98219500D01*
X127079849Y-98294000D01*
X127056170Y-98324859D01*
X126759540Y-98621488D01*
X126719979Y-98690011D01*
X126699500Y-98766437D01*
X126699500Y-98876500D01*
X126679538Y-98951000D01*
X126625000Y-99005538D01*
X126550500Y-99025500D01*
X126130252Y-99025500D01*
X126071769Y-99037132D01*
X126005448Y-99081448D01*
X125961132Y-99147769D01*
X125949500Y-99206251D01*
X125949500Y-100945748D01*
X125961132Y-101004230D01*
X125965990Y-101011500D01*
X126005448Y-101070552D01*
X126071769Y-101114867D01*
X126130252Y-101126500D01*
X127869748Y-101126500D01*
X127928231Y-101114867D01*
X127994552Y-101070552D01*
X128038867Y-101004231D01*
X128050500Y-100945748D01*
X128050500Y-99206252D01*
X128038867Y-99147769D01*
X127994552Y-99081448D01*
X127928231Y-99037133D01*
X127928230Y-99037132D01*
X127869748Y-99025500D01*
X127565189Y-99025500D01*
X127490689Y-99005538D01*
X127436151Y-98951000D01*
X127416189Y-98876500D01*
X127436151Y-98802000D01*
X127459830Y-98771141D01*
X127715830Y-98515141D01*
X127782625Y-98476577D01*
X127821189Y-98471500D01*
X130409608Y-98471500D01*
X130484108Y-98491462D01*
X130538646Y-98546000D01*
X130558608Y-98620500D01*
X130555940Y-98648571D01*
X130551207Y-98673242D01*
X130529979Y-98710011D01*
X130509500Y-98786438D01*
X130509500Y-98890662D01*
X130506832Y-98904571D01*
X130495978Y-98926963D01*
X130489538Y-98951000D01*
X130479428Y-98961109D01*
X130473192Y-98973976D01*
X130452596Y-98987941D01*
X130435000Y-99005538D01*
X130421188Y-99009238D01*
X130409356Y-99017262D01*
X130384538Y-99019058D01*
X130360500Y-99025500D01*
X129940252Y-99025500D01*
X129881769Y-99037132D01*
X129815448Y-99081448D01*
X129771132Y-99147769D01*
X129759500Y-99206251D01*
X129759500Y-100945749D01*
X129767592Y-100986433D01*
X129762547Y-101063396D01*
X129719696Y-101127525D01*
X129650522Y-101161637D01*
X129621455Y-101164500D01*
X128873437Y-101164500D01*
X128797009Y-101184979D01*
X128751584Y-101211206D01*
X128751583Y-101211205D01*
X128728489Y-101224539D01*
X128283540Y-101669488D01*
X128243979Y-101738011D01*
X128223500Y-101814437D01*
X128223500Y-102075627D01*
X128203538Y-102150127D01*
X128149000Y-102204665D01*
X128074500Y-102224627D01*
X128000000Y-102204665D01*
X127945462Y-102150127D01*
X127936842Y-102132648D01*
X127930941Y-102118402D01*
X127815977Y-101946345D01*
X127669654Y-101800022D01*
X127497596Y-101685057D01*
X127322426Y-101612500D01*
X127306420Y-101605870D01*
X127306418Y-101605869D01*
X127306417Y-101605869D01*
X127103465Y-101565500D01*
X126896535Y-101565500D01*
X126693582Y-101605869D01*
X126502403Y-101685057D01*
X126330345Y-101800022D01*
X126184022Y-101946345D01*
X126069057Y-102118403D01*
X125989869Y-102309582D01*
X125949500Y-102512534D01*
X125949500Y-102719465D01*
X125989869Y-102922417D01*
X126069057Y-103113596D01*
X126184022Y-103285654D01*
X126330345Y-103431977D01*
X126502403Y-103546942D01*
X126581591Y-103579742D01*
X126693580Y-103626130D01*
X126896535Y-103666500D01*
X127103465Y-103666500D01*
X127306420Y-103626130D01*
X127497598Y-103546941D01*
X127543114Y-103516528D01*
X127616144Y-103491737D01*
X127691790Y-103506783D01*
X127749779Y-103557636D01*
X127774572Y-103630671D01*
X127759526Y-103706317D01*
X127731250Y-103745777D01*
X127383368Y-104093659D01*
X127316573Y-104132223D01*
X127248941Y-104134436D01*
X127103465Y-104105500D01*
X126896535Y-104105500D01*
X126693582Y-104145869D01*
X126502403Y-104225057D01*
X126330345Y-104340022D01*
X126184022Y-104486345D01*
X126069057Y-104658403D01*
X125989869Y-104849582D01*
X125949500Y-105052534D01*
X125949500Y-105259465D01*
X125984618Y-105436020D01*
X125989870Y-105462420D01*
X126003455Y-105495219D01*
X126069057Y-105653596D01*
X126184022Y-105825654D01*
X126330345Y-105971977D01*
X126502403Y-106086942D01*
X126581591Y-106119742D01*
X126693580Y-106166130D01*
X126896535Y-106206500D01*
X127103465Y-106206500D01*
X127306420Y-106166130D01*
X127474402Y-106096548D01*
X127497596Y-106086942D01*
X127497596Y-106086941D01*
X127497598Y-106086941D01*
X127669655Y-105971977D01*
X127815977Y-105825655D01*
X127930941Y-105653598D01*
X128010130Y-105462420D01*
X128050500Y-105259465D01*
X128050500Y-105052535D01*
X128047310Y-105036500D01*
X128022626Y-104912402D01*
X128010130Y-104849580D01*
X127930941Y-104658402D01*
X127902360Y-104615627D01*
X127893785Y-104602793D01*
X127868993Y-104529758D01*
X127884040Y-104454112D01*
X127912312Y-104414657D01*
X128764460Y-103562511D01*
X128773449Y-103546942D01*
X128780295Y-103535085D01*
X128801994Y-103497500D01*
X128804021Y-103493989D01*
X128824500Y-103417562D01*
X128824500Y-102040189D01*
X128829577Y-102021241D01*
X128829577Y-102001625D01*
X128839384Y-101984637D01*
X128844462Y-101965689D01*
X128868141Y-101934830D01*
X128993830Y-101809141D01*
X129060625Y-101770577D01*
X129099189Y-101765500D01*
X129836101Y-101765500D01*
X129910601Y-101785462D01*
X129965139Y-101840000D01*
X129985101Y-101914500D01*
X129965139Y-101989000D01*
X129959995Y-101997270D01*
X129939940Y-102027285D01*
X129879057Y-102118403D01*
X129799869Y-102309582D01*
X129759500Y-102512534D01*
X129759500Y-102719465D01*
X129799869Y-102922417D01*
X129879057Y-103113596D01*
X129994022Y-103285654D01*
X130140345Y-103431977D01*
X130312403Y-103546942D01*
X130391591Y-103579742D01*
X130503580Y-103626130D01*
X130706535Y-103666500D01*
X130913465Y-103666500D01*
X131116420Y-103626130D01*
X131307598Y-103546941D01*
X131479655Y-103431977D01*
X131625977Y-103285655D01*
X131740941Y-103113598D01*
X131820130Y-102922420D01*
X131860500Y-102719465D01*
X131860500Y-102512535D01*
X131857715Y-102498536D01*
X131820130Y-102309582D01*
X131820130Y-102309580D01*
X131746842Y-102132648D01*
X131740942Y-102118403D01*
X131688681Y-102040189D01*
X131660009Y-101997278D01*
X131635218Y-101924245D01*
X131650265Y-101848599D01*
X131701119Y-101790611D01*
X131774154Y-101765819D01*
X131783899Y-101765500D01*
X133646101Y-101765500D01*
X133720601Y-101785462D01*
X133775139Y-101840000D01*
X133795101Y-101914500D01*
X133775139Y-101989000D01*
X133769995Y-101997270D01*
X133749940Y-102027285D01*
X133689057Y-102118403D01*
X133609869Y-102309582D01*
X133569500Y-102512534D01*
X133569500Y-102719465D01*
X133609869Y-102922417D01*
X133689057Y-103113596D01*
X133804022Y-103285654D01*
X133849509Y-103331141D01*
X133888073Y-103397936D01*
X133888073Y-103475064D01*
X133849509Y-103541859D01*
X133782714Y-103580423D01*
X133744150Y-103585500D01*
X132040437Y-103585500D01*
X131964011Y-103605979D01*
X131895488Y-103645540D01*
X131383916Y-104157112D01*
X131317121Y-104195676D01*
X131239993Y-104195676D01*
X131221537Y-104189411D01*
X131143560Y-104157112D01*
X131116420Y-104145870D01*
X131116418Y-104145869D01*
X131116417Y-104145869D01*
X130913465Y-104105500D01*
X130706535Y-104105500D01*
X130503582Y-104145869D01*
X130312403Y-104225057D01*
X130140345Y-104340022D01*
X129994022Y-104486345D01*
X129879057Y-104658403D01*
X129799869Y-104849582D01*
X129759500Y-105052534D01*
X129759500Y-105259465D01*
X129794618Y-105436020D01*
X129799870Y-105462420D01*
X129813455Y-105495219D01*
X129879057Y-105653596D01*
X129994022Y-105825654D01*
X130140345Y-105971977D01*
X130312403Y-106086942D01*
X130391591Y-106119742D01*
X130503580Y-106166130D01*
X130706535Y-106206500D01*
X130913465Y-106206500D01*
X131116420Y-106166130D01*
X131284402Y-106096548D01*
X131307596Y-106086942D01*
X131307596Y-106086941D01*
X131307598Y-106086941D01*
X131479655Y-105971977D01*
X131625977Y-105825655D01*
X131740941Y-105653598D01*
X131820130Y-105462420D01*
X131860500Y-105259465D01*
X131860500Y-105052535D01*
X131857310Y-105036500D01*
X131832626Y-104912402D01*
X131820130Y-104849580D01*
X131776587Y-104744460D01*
X131766521Y-104667993D01*
X131796036Y-104596736D01*
X131808878Y-104582091D01*
X132160830Y-104230141D01*
X132227625Y-104191577D01*
X132266189Y-104186500D01*
X133744150Y-104186500D01*
X133818650Y-104206462D01*
X133873188Y-104261000D01*
X133893150Y-104335500D01*
X133873188Y-104410000D01*
X133849509Y-104440859D01*
X133804026Y-104486341D01*
X133804022Y-104486345D01*
X133689057Y-104658403D01*
X133609869Y-104849582D01*
X133569500Y-105052534D01*
X133569500Y-105259465D01*
X133604618Y-105436020D01*
X133609870Y-105462420D01*
X133623455Y-105495219D01*
X133689057Y-105653596D01*
X133804022Y-105825654D01*
X133950345Y-105971977D01*
X134122405Y-106086943D01*
X134210072Y-106123255D01*
X134227301Y-106130392D01*
X134227519Y-106130482D01*
X134288709Y-106177434D01*
X134318225Y-106248691D01*
X134319500Y-106268140D01*
X134319500Y-110402562D01*
X134339979Y-110478989D01*
X134379540Y-110547511D01*
X135903540Y-112071511D01*
X135959489Y-112127460D01*
X136028011Y-112167021D01*
X136104438Y-112187500D01*
X136183562Y-112187500D01*
X137739075Y-112187500D01*
X137754338Y-112188500D01*
X137756438Y-112188500D01*
X137835562Y-112188500D01*
X140374968Y-112188500D01*
X140449468Y-112208462D01*
X140480326Y-112232140D01*
X140535686Y-112287500D01*
X140649814Y-112353392D01*
X140777108Y-112387500D01*
X140908892Y-112387500D01*
X141036186Y-112353392D01*
X141150314Y-112287500D01*
X141243500Y-112194314D01*
X141309392Y-112080186D01*
X141343500Y-111952892D01*
X141343500Y-111821108D01*
X141309392Y-111693814D01*
X141259360Y-111607157D01*
X141243502Y-111579689D01*
X141243501Y-111579688D01*
X141243500Y-111579686D01*
X141150314Y-111486500D01*
X141150311Y-111486498D01*
X141150310Y-111486497D01*
X141079514Y-111445623D01*
X141036186Y-111420608D01*
X140908892Y-111386500D01*
X140777108Y-111386500D01*
X140649814Y-111420608D01*
X140649812Y-111420608D01*
X140649812Y-111420609D01*
X140535689Y-111486497D01*
X140478326Y-111543860D01*
X140411531Y-111582423D01*
X140372968Y-111587500D01*
X137851925Y-111587500D01*
X137836662Y-111586500D01*
X137834562Y-111586500D01*
X136330189Y-111586500D01*
X136255689Y-111566538D01*
X136224830Y-111542859D01*
X134964141Y-110282170D01*
X134925577Y-110215375D01*
X134920500Y-110176811D01*
X134920500Y-106268140D01*
X134940462Y-106193640D01*
X134995000Y-106139102D01*
X135012481Y-106130482D01*
X135012699Y-106130392D01*
X135044560Y-106117194D01*
X135117594Y-106086943D01*
X135117595Y-106086942D01*
X135117598Y-106086941D01*
X135289655Y-105971977D01*
X135435977Y-105825655D01*
X135550941Y-105653598D01*
X135556842Y-105639351D01*
X135603794Y-105578163D01*
X135675050Y-105548647D01*
X135751519Y-105558713D01*
X135812709Y-105605666D01*
X135842225Y-105676922D01*
X135843500Y-105696372D01*
X135843500Y-107481562D01*
X135863979Y-107557990D01*
X135881594Y-107588500D01*
X135893177Y-107608562D01*
X135903540Y-107626511D01*
X137046540Y-108769511D01*
X137102489Y-108825460D01*
X137171011Y-108865021D01*
X137247438Y-108885500D01*
X137247443Y-108885500D01*
X141263557Y-108885500D01*
X141263562Y-108885500D01*
X141339989Y-108865021D01*
X141408511Y-108825460D01*
X141464460Y-108769511D01*
X142120829Y-108113140D01*
X142187624Y-108074577D01*
X142226188Y-108069500D01*
X142305892Y-108069500D01*
X142433186Y-108035392D01*
X142547314Y-107969500D01*
X142640500Y-107876314D01*
X142706392Y-107762186D01*
X142740500Y-107634892D01*
X142740500Y-107503108D01*
X142706392Y-107375814D01*
X142640500Y-107261686D01*
X142547314Y-107168500D01*
X142547311Y-107168498D01*
X142547310Y-107168497D01*
X142466957Y-107122106D01*
X142433186Y-107102608D01*
X142305892Y-107068500D01*
X142174108Y-107068500D01*
X142046814Y-107102608D01*
X142046812Y-107102608D01*
X142046812Y-107102609D01*
X141932689Y-107168497D01*
X141839497Y-107261689D01*
X141773609Y-107375812D01*
X141773608Y-107375814D01*
X141757778Y-107434890D01*
X141739500Y-107503106D01*
X141739500Y-107582810D01*
X141719538Y-107657310D01*
X141695859Y-107688169D01*
X141143170Y-108240859D01*
X141076375Y-108279423D01*
X141037811Y-108284500D01*
X137473189Y-108284500D01*
X137398689Y-108264538D01*
X137367830Y-108240859D01*
X136488141Y-107361170D01*
X136449577Y-107294375D01*
X136444500Y-107255811D01*
X136444500Y-104354442D01*
X136444500Y-104354438D01*
X136424021Y-104278011D01*
X136384460Y-104209489D01*
X136328511Y-104153540D01*
X135820511Y-103645540D01*
X135751989Y-103605979D01*
X135675562Y-103585500D01*
X135495850Y-103585500D01*
X135421350Y-103565538D01*
X135366812Y-103511000D01*
X135346850Y-103436500D01*
X135366812Y-103362000D01*
X135390491Y-103331141D01*
X135435977Y-103285655D01*
X135550941Y-103113598D01*
X135630130Y-102922420D01*
X135670500Y-102719465D01*
X135670500Y-102512535D01*
X135667715Y-102498536D01*
X135630130Y-102309582D01*
X135630130Y-102309580D01*
X135556842Y-102132648D01*
X135550942Y-102118403D01*
X135498681Y-102040189D01*
X135470009Y-101997278D01*
X135445218Y-101924245D01*
X135460265Y-101848599D01*
X135511119Y-101790611D01*
X135584154Y-101765819D01*
X135593899Y-101765500D01*
X137854811Y-101765500D01*
X137929311Y-101785462D01*
X137960170Y-101809141D01*
X138587994Y-102436965D01*
X138611673Y-102467824D01*
X138654580Y-102542142D01*
X138654581Y-102542143D01*
X138654583Y-102542146D01*
X138747769Y-102635332D01*
X138861897Y-102701224D01*
X138989191Y-102735332D01*
X139120975Y-102735332D01*
X139211937Y-102710959D01*
X139289063Y-102710959D01*
X139355858Y-102749523D01*
X139394423Y-102816317D01*
X139399500Y-102854882D01*
X139399500Y-106674261D01*
X139379538Y-106748761D01*
X139353010Y-106779016D01*
X139354589Y-106780595D01*
X139347685Y-106787498D01*
X139347683Y-106787500D01*
X139275494Y-106859689D01*
X139254495Y-106880688D01*
X139254494Y-106880689D01*
X139188606Y-106994812D01*
X139154497Y-107122106D01*
X139154497Y-107122108D01*
X139154497Y-107253892D01*
X139188605Y-107381186D01*
X139188606Y-107381187D01*
X139254494Y-107495310D01*
X139254495Y-107495311D01*
X139254497Y-107495314D01*
X139347683Y-107588500D01*
X139461811Y-107654392D01*
X139589105Y-107688500D01*
X139720889Y-107688500D01*
X139848183Y-107654392D01*
X139962311Y-107588500D01*
X139962317Y-107588493D01*
X139964280Y-107586988D01*
X139966582Y-107586033D01*
X139970769Y-107583617D01*
X139971086Y-107584167D01*
X140035534Y-107557465D01*
X140112003Y-107567524D01*
X140145710Y-107586984D01*
X140147684Y-107588499D01*
X140147686Y-107588500D01*
X140261814Y-107654392D01*
X140389108Y-107688500D01*
X140520892Y-107688500D01*
X140648186Y-107654392D01*
X140762314Y-107588500D01*
X140855500Y-107495314D01*
X140921392Y-107381186D01*
X140955500Y-107253892D01*
X140955500Y-107122108D01*
X140921392Y-106994814D01*
X140855500Y-106880686D01*
X140762314Y-106787500D01*
X140762311Y-106787498D01*
X140762310Y-106787497D01*
X140710000Y-106757296D01*
X140655462Y-106702758D01*
X140635500Y-106628258D01*
X140635500Y-105598106D01*
X141513500Y-105598106D01*
X141513500Y-105598108D01*
X141513500Y-105729892D01*
X141547608Y-105857186D01*
X141572623Y-105900514D01*
X141613497Y-105971310D01*
X141613498Y-105971311D01*
X141613500Y-105971314D01*
X141706686Y-106064500D01*
X141820814Y-106130392D01*
X141948108Y-106164500D01*
X142027811Y-106164500D01*
X142102311Y-106184462D01*
X142133170Y-106208141D01*
X142246540Y-106321511D01*
X142302489Y-106377460D01*
X142371011Y-106417021D01*
X142447438Y-106437500D01*
X147866968Y-106437500D01*
X147941468Y-106457462D01*
X147972326Y-106481140D01*
X148028686Y-106537500D01*
X148142814Y-106603392D01*
X148270108Y-106637500D01*
X148401892Y-106637500D01*
X148529186Y-106603392D01*
X148643314Y-106537500D01*
X148736500Y-106444314D01*
X148802392Y-106330186D01*
X148836500Y-106202892D01*
X148836500Y-106071108D01*
X148834730Y-106064502D01*
X148824163Y-106025064D01*
X148824163Y-105947936D01*
X148862727Y-105881141D01*
X148929522Y-105842577D01*
X148968086Y-105837500D01*
X153200968Y-105837500D01*
X153275468Y-105857462D01*
X153306326Y-105881140D01*
X153362686Y-105937500D01*
X153362688Y-105937501D01*
X153362689Y-105937502D01*
X153390157Y-105953360D01*
X153476814Y-106003392D01*
X153604108Y-106037500D01*
X153735892Y-106037500D01*
X153863186Y-106003392D01*
X153977314Y-105937500D01*
X154070500Y-105844314D01*
X154136392Y-105730186D01*
X154170500Y-105602892D01*
X154170500Y-105471108D01*
X154136392Y-105343814D01*
X154070500Y-105229686D01*
X153977314Y-105136500D01*
X153977311Y-105136498D01*
X153977310Y-105136497D01*
X153906514Y-105095623D01*
X153863186Y-105070608D01*
X153735892Y-105036500D01*
X153604108Y-105036500D01*
X153476814Y-105070608D01*
X153476812Y-105070608D01*
X153476812Y-105070609D01*
X153362689Y-105136497D01*
X153306326Y-105192860D01*
X153239531Y-105231423D01*
X153200968Y-105236500D01*
X146265032Y-105236500D01*
X146190532Y-105216538D01*
X146159674Y-105192860D01*
X146103314Y-105136500D01*
X146103311Y-105136498D01*
X146103310Y-105136497D01*
X146032514Y-105095623D01*
X145989186Y-105070608D01*
X145861892Y-105036500D01*
X145730108Y-105036500D01*
X145602814Y-105070608D01*
X145602812Y-105070608D01*
X145602812Y-105070609D01*
X145488689Y-105136497D01*
X145395497Y-105229689D01*
X145351131Y-105306535D01*
X145329608Y-105343814D01*
X145315502Y-105396459D01*
X145295500Y-105471106D01*
X145295500Y-105602895D01*
X145307837Y-105648936D01*
X145307837Y-105726064D01*
X145269273Y-105792859D01*
X145202478Y-105831423D01*
X145163914Y-105836500D01*
X142673189Y-105836500D01*
X142654241Y-105831423D01*
X142634625Y-105831423D01*
X142617637Y-105821615D01*
X142598689Y-105816538D01*
X142567830Y-105792859D01*
X142558141Y-105783170D01*
X142519577Y-105716375D01*
X142514500Y-105677811D01*
X142514500Y-105598108D01*
X142514499Y-105598106D01*
X142480392Y-105470814D01*
X142414500Y-105356686D01*
X142321314Y-105263500D01*
X142321311Y-105263498D01*
X142321310Y-105263497D01*
X142250514Y-105222623D01*
X142207186Y-105197608D01*
X142079892Y-105163500D01*
X141948108Y-105163500D01*
X141820814Y-105197608D01*
X141820812Y-105197608D01*
X141820812Y-105197609D01*
X141706689Y-105263497D01*
X141613497Y-105356689D01*
X141555872Y-105456500D01*
X141547608Y-105470814D01*
X141546095Y-105476462D01*
X141513500Y-105598106D01*
X140635500Y-105598106D01*
X140635500Y-102050189D01*
X140655462Y-101975689D01*
X140710000Y-101921151D01*
X140784500Y-101901189D01*
X140859000Y-101921151D01*
X140889859Y-101944830D01*
X141822859Y-102877830D01*
X141861423Y-102944625D01*
X141866500Y-102983189D01*
X141866500Y-103062892D01*
X141900608Y-103190186D01*
X141900609Y-103190187D01*
X141966497Y-103304310D01*
X141966498Y-103304311D01*
X141966500Y-103304314D01*
X142059686Y-103397500D01*
X142173814Y-103463392D01*
X142301108Y-103497500D01*
X142432892Y-103497500D01*
X142560186Y-103463392D01*
X142674314Y-103397500D01*
X142767500Y-103304314D01*
X142833392Y-103190186D01*
X142867500Y-103062892D01*
X142867500Y-102931108D01*
X142833392Y-102803814D01*
X142779782Y-102710959D01*
X142767502Y-102689689D01*
X142767501Y-102689688D01*
X142767500Y-102689686D01*
X142674314Y-102596500D01*
X142674311Y-102596498D01*
X142674310Y-102596497D01*
X142580163Y-102542142D01*
X142560186Y-102530608D01*
X142432892Y-102496500D01*
X142353189Y-102496500D01*
X142278689Y-102476538D01*
X142247830Y-102452859D01*
X141314141Y-101519170D01*
X141275577Y-101452375D01*
X141270500Y-101413811D01*
X141270500Y-101107296D01*
X141290462Y-101032796D01*
X141345000Y-100978258D01*
X141419500Y-100958296D01*
X141494000Y-100978258D01*
X141548536Y-101032794D01*
X141570336Y-101070552D01*
X141613497Y-101145310D01*
X141613498Y-101145311D01*
X141613500Y-101145314D01*
X141706686Y-101238500D01*
X141820814Y-101304392D01*
X141948108Y-101338500D01*
X142027811Y-101338500D01*
X142102311Y-101358462D01*
X142133170Y-101382141D01*
X142247540Y-101496511D01*
X142303489Y-101552460D01*
X142372011Y-101592021D01*
X142448438Y-101612500D01*
X142527562Y-101612500D01*
X147867968Y-101612500D01*
X147942468Y-101632462D01*
X147973326Y-101656140D01*
X148028686Y-101711500D01*
X148142814Y-101777392D01*
X148270108Y-101811500D01*
X148401892Y-101811500D01*
X148529186Y-101777392D01*
X148643314Y-101711500D01*
X148736500Y-101618314D01*
X148802392Y-101504186D01*
X148836500Y-101376892D01*
X148836500Y-101245108D01*
X148834730Y-101238502D01*
X148824163Y-101199064D01*
X148824163Y-101121936D01*
X148862727Y-101055141D01*
X148929522Y-101016577D01*
X148968086Y-101011500D01*
X153200968Y-101011500D01*
X153275468Y-101031462D01*
X153306326Y-101055140D01*
X153362686Y-101111500D01*
X153362688Y-101111501D01*
X153362689Y-101111502D01*
X153388667Y-101126500D01*
X153476814Y-101177392D01*
X153604108Y-101211500D01*
X153735892Y-101211500D01*
X153863186Y-101177392D01*
X153977314Y-101111500D01*
X154070500Y-101018314D01*
X154136392Y-100904186D01*
X154170500Y-100776892D01*
X154170500Y-100645108D01*
X154136392Y-100517814D01*
X154070500Y-100403686D01*
X153977314Y-100310500D01*
X153977311Y-100310498D01*
X153977310Y-100310497D01*
X153906514Y-100269623D01*
X153863186Y-100244608D01*
X153735892Y-100210500D01*
X153604108Y-100210500D01*
X153476814Y-100244608D01*
X153476812Y-100244608D01*
X153476812Y-100244609D01*
X153362689Y-100310497D01*
X153306326Y-100366860D01*
X153239531Y-100405423D01*
X153200968Y-100410500D01*
X146265032Y-100410500D01*
X146190532Y-100390538D01*
X146159674Y-100366860D01*
X146103314Y-100310500D01*
X146103311Y-100310498D01*
X146103310Y-100310497D01*
X146032514Y-100269623D01*
X145989186Y-100244608D01*
X145861892Y-100210500D01*
X145730108Y-100210500D01*
X145602814Y-100244608D01*
X145602812Y-100244608D01*
X145602812Y-100244609D01*
X145488689Y-100310497D01*
X145395497Y-100403689D01*
X145329609Y-100517812D01*
X145329608Y-100517814D01*
X145313778Y-100576890D01*
X145295500Y-100645106D01*
X145295500Y-100776895D01*
X145308105Y-100823936D01*
X145308105Y-100901064D01*
X145269541Y-100967859D01*
X145202746Y-101006423D01*
X145164182Y-101011500D01*
X142674189Y-101011500D01*
X142655241Y-101006423D01*
X142635625Y-101006423D01*
X142618637Y-100996615D01*
X142599689Y-100991538D01*
X142568830Y-100967859D01*
X142558141Y-100957170D01*
X142519577Y-100890375D01*
X142514500Y-100851811D01*
X142514500Y-100772108D01*
X142514499Y-100772106D01*
X142480392Y-100644814D01*
X142414500Y-100530686D01*
X142321314Y-100437500D01*
X142321311Y-100437498D01*
X142321310Y-100437497D01*
X142250234Y-100396462D01*
X142207186Y-100371608D01*
X142079892Y-100337500D01*
X141948108Y-100337500D01*
X141820814Y-100371608D01*
X141820812Y-100371608D01*
X141820812Y-100371609D01*
X141706689Y-100437497D01*
X141613497Y-100530689D01*
X141548538Y-100643203D01*
X141494000Y-100697741D01*
X141419500Y-100717703D01*
X141345000Y-100697741D01*
X141290462Y-100643203D01*
X141270500Y-100568703D01*
X141270500Y-98258442D01*
X141270500Y-98258438D01*
X141270399Y-98258064D01*
X141270399Y-98257683D01*
X141269225Y-98248760D01*
X141270399Y-98248605D01*
X141270398Y-98180939D01*
X141308961Y-98114143D01*
X141375755Y-98075578D01*
X141414322Y-98070500D01*
X142122613Y-98070500D01*
X142197113Y-98090462D01*
X142251651Y-98145000D01*
X142266535Y-98180933D01*
X142281608Y-98237186D01*
X142293878Y-98258438D01*
X142347497Y-98351310D01*
X142347498Y-98351311D01*
X142347500Y-98351314D01*
X142440686Y-98444500D01*
X142554814Y-98510392D01*
X142682108Y-98544500D01*
X142813892Y-98544500D01*
X142941186Y-98510392D01*
X143055314Y-98444500D01*
X143148500Y-98351314D01*
X143214392Y-98237186D01*
X143248500Y-98109892D01*
X143248500Y-97978108D01*
X143247225Y-97968422D01*
X143250055Y-97968049D01*
X143250054Y-97906785D01*
X143288617Y-97839989D01*
X143355411Y-97801424D01*
X143432539Y-97801422D01*
X143468477Y-97816307D01*
X143570814Y-97875392D01*
X143698108Y-97909500D01*
X143829892Y-97909500D01*
X143957186Y-97875392D01*
X144071314Y-97809500D01*
X144164500Y-97716314D01*
X144230392Y-97602186D01*
X144264500Y-97474892D01*
X144264500Y-97343108D01*
X144230392Y-97215814D01*
X144230390Y-97215811D01*
X144228315Y-97208065D01*
X144228315Y-97188447D01*
X144223238Y-97169500D01*
X144228315Y-97150552D01*
X144228315Y-97130936D01*
X144238122Y-97113948D01*
X144243200Y-97095000D01*
X144257071Y-97081128D01*
X144266879Y-97064141D01*
X144283867Y-97054332D01*
X144297738Y-97040462D01*
X144316684Y-97035385D01*
X144333673Y-97025577D01*
X144372238Y-97020500D01*
X144600929Y-97020500D01*
X156569095Y-97027907D01*
X156643580Y-97047915D01*
X156698084Y-97102487D01*
X156718000Y-97176907D01*
X156718000Y-116182907D01*
X156698038Y-116257407D01*
X156643500Y-116311945D01*
X156569000Y-116331907D01*
X156568908Y-116331907D01*
X148773356Y-116327082D01*
X148698868Y-116307074D01*
X148644364Y-116252502D01*
X148624448Y-116177990D01*
X148644456Y-116103502D01*
X148668083Y-116072730D01*
X148736500Y-116004314D01*
X148802392Y-115890186D01*
X148836500Y-115762892D01*
X148836500Y-115631108D01*
X148814784Y-115550062D01*
X148814784Y-115472937D01*
X148853347Y-115406142D01*
X148920142Y-115367577D01*
X148958707Y-115362500D01*
X153036217Y-115362500D01*
X153110717Y-115382462D01*
X153165255Y-115437000D01*
X153199497Y-115496310D01*
X153199498Y-115496311D01*
X153199500Y-115496314D01*
X153292686Y-115589500D01*
X153406814Y-115655392D01*
X153534108Y-115689500D01*
X153665892Y-115689500D01*
X153793186Y-115655392D01*
X153907314Y-115589500D01*
X154000500Y-115496314D01*
X154066392Y-115382186D01*
X154100500Y-115254892D01*
X154100500Y-115123108D01*
X154066392Y-114995814D01*
X154000500Y-114881686D01*
X153907314Y-114788500D01*
X153907311Y-114788498D01*
X153907310Y-114788497D01*
X153836514Y-114747623D01*
X153793186Y-114722608D01*
X153665892Y-114688500D01*
X153534108Y-114688500D01*
X153406810Y-114722609D01*
X153374025Y-114741538D01*
X153299526Y-114761500D01*
X146265032Y-114761500D01*
X146190532Y-114741538D01*
X146159674Y-114717860D01*
X146103314Y-114661500D01*
X146103311Y-114661498D01*
X146103310Y-114661497D01*
X146032514Y-114620623D01*
X145989186Y-114595608D01*
X145861892Y-114561500D01*
X145730108Y-114561500D01*
X145602814Y-114595608D01*
X145602812Y-114595608D01*
X145602812Y-114595609D01*
X145488689Y-114661497D01*
X145395497Y-114754689D01*
X145329609Y-114868812D01*
X145329608Y-114868814D01*
X145325066Y-114885767D01*
X145295500Y-114996106D01*
X145295500Y-114996108D01*
X145295500Y-115127892D01*
X145317216Y-115208937D01*
X145317216Y-115286063D01*
X145278653Y-115352858D01*
X145211858Y-115391423D01*
X145173293Y-115396500D01*
X142492924Y-115396500D01*
X142418424Y-115376538D01*
X142387566Y-115352860D01*
X142366347Y-115331641D01*
X142321314Y-115286608D01*
X142321311Y-115286606D01*
X142321310Y-115286605D01*
X142250514Y-115245731D01*
X142207186Y-115220716D01*
X142079892Y-115186608D01*
X141948108Y-115186608D01*
X141820814Y-115220716D01*
X141820812Y-115220716D01*
X141820812Y-115220717D01*
X141706689Y-115286605D01*
X141613497Y-115379797D01*
X141557650Y-115476529D01*
X141547608Y-115493922D01*
X141540575Y-115520170D01*
X141513500Y-115621214D01*
X141513500Y-115752999D01*
X141514775Y-115762686D01*
X141512945Y-115762926D01*
X141512949Y-115828055D01*
X141474389Y-115894852D01*
X141407597Y-115933421D01*
X141369024Y-115938500D01*
X134778068Y-115938500D01*
X134703568Y-115918538D01*
X134649030Y-115864000D01*
X134629068Y-115789500D01*
X134649030Y-115715000D01*
X134690488Y-115668957D01*
X134764239Y-115615373D01*
X134764239Y-115615371D01*
X134441555Y-115292687D01*
X134506097Y-115249563D01*
X134610563Y-115145097D01*
X134653687Y-115080555D01*
X134976371Y-115403239D01*
X134976373Y-115403239D01*
X135054325Y-115295947D01*
X135054330Y-115295938D01*
X135140083Y-115127642D01*
X135198450Y-114948006D01*
X135198451Y-114948006D01*
X135228000Y-114761438D01*
X135228000Y-114572561D01*
X135198451Y-114385993D01*
X135140083Y-114206357D01*
X135054330Y-114038061D01*
X134976372Y-113930759D01*
X134976371Y-113930759D01*
X134653687Y-114253443D01*
X134610563Y-114188903D01*
X134506097Y-114084437D01*
X134441554Y-114041311D01*
X134764239Y-113718626D01*
X134761918Y-113689131D01*
X134773359Y-113627402D01*
X134746095Y-113643143D01*
X134668967Y-113643143D01*
X134639886Y-113631980D01*
X134488642Y-113554916D01*
X134309006Y-113496549D01*
X134309006Y-113496548D01*
X134122438Y-113467000D01*
X133933562Y-113467000D01*
X133746993Y-113496548D01*
X133746993Y-113496549D01*
X133567357Y-113554916D01*
X133454292Y-113612527D01*
X133378849Y-113628563D01*
X133305496Y-113604729D01*
X133253887Y-113547412D01*
X133237851Y-113471969D01*
X133248987Y-113422752D01*
X133269855Y-113372374D01*
X133303500Y-113203229D01*
X133303500Y-113030771D01*
X133295622Y-112991168D01*
X133292285Y-112974389D01*
X133269855Y-112861626D01*
X133203858Y-112702295D01*
X133184470Y-112673279D01*
X133159679Y-112600246D01*
X133174726Y-112524600D01*
X133225579Y-112466611D01*
X133298614Y-112441819D01*
X133308360Y-112441500D01*
X133798811Y-112441500D01*
X133873311Y-112461462D01*
X133904170Y-112485141D01*
X134812890Y-113393861D01*
X134851454Y-113460656D01*
X134851454Y-113537784D01*
X134845742Y-113547676D01*
X134898768Y-113528899D01*
X134974605Y-113542955D01*
X134984956Y-113548401D01*
X135012011Y-113564021D01*
X135088438Y-113584500D01*
X135088443Y-113584500D01*
X141517557Y-113584500D01*
X141517562Y-113584500D01*
X141593989Y-113564021D01*
X141662511Y-113524460D01*
X141718460Y-113468511D01*
X142254460Y-112932511D01*
X142257910Y-112926535D01*
X142294021Y-112863989D01*
X142314500Y-112787562D01*
X142314500Y-111467031D01*
X142319577Y-111448084D01*
X142319577Y-111428468D01*
X142329384Y-111411480D01*
X142334462Y-111392532D01*
X142358141Y-111361673D01*
X142377673Y-111342141D01*
X142444468Y-111303577D01*
X142483032Y-111298500D01*
X147866968Y-111298500D01*
X147941468Y-111318462D01*
X147972326Y-111342140D01*
X148028686Y-111398500D01*
X148142814Y-111464392D01*
X148270108Y-111498500D01*
X148401892Y-111498500D01*
X148529186Y-111464392D01*
X148643314Y-111398500D01*
X148736500Y-111305314D01*
X148802392Y-111191186D01*
X148836500Y-111063892D01*
X148836500Y-110932108D01*
X148814784Y-110851062D01*
X148814784Y-110773937D01*
X148853347Y-110707142D01*
X148920142Y-110668577D01*
X148958707Y-110663500D01*
X153200968Y-110663500D01*
X153275468Y-110683462D01*
X153306326Y-110707140D01*
X153362686Y-110763500D01*
X153476814Y-110829392D01*
X153604108Y-110863500D01*
X153735892Y-110863500D01*
X153863186Y-110829392D01*
X153977314Y-110763500D01*
X154070500Y-110670314D01*
X154136392Y-110556186D01*
X154170500Y-110428892D01*
X154170500Y-110297108D01*
X154136392Y-110169814D01*
X154070500Y-110055686D01*
X153977314Y-109962500D01*
X153977311Y-109962498D01*
X153977310Y-109962497D01*
X153906514Y-109921623D01*
X153863186Y-109896608D01*
X153735892Y-109862500D01*
X153604108Y-109862500D01*
X153476814Y-109896608D01*
X153476812Y-109896608D01*
X153476812Y-109896609D01*
X153362689Y-109962497D01*
X153306326Y-110018860D01*
X153239531Y-110057423D01*
X153200968Y-110062500D01*
X146265032Y-110062500D01*
X146190532Y-110042538D01*
X146159674Y-110018860D01*
X146133446Y-109992632D01*
X146103314Y-109962500D01*
X146103311Y-109962498D01*
X146103310Y-109962497D01*
X146032514Y-109921623D01*
X145989186Y-109896608D01*
X145861892Y-109862500D01*
X145730108Y-109862500D01*
X145602814Y-109896608D01*
X145602812Y-109896608D01*
X145602812Y-109896609D01*
X145488689Y-109962497D01*
X145395497Y-110055689D01*
X145347404Y-110138990D01*
X145329608Y-110169814D01*
X145325880Y-110183728D01*
X145295500Y-110297106D01*
X145295500Y-110297108D01*
X145295500Y-110428892D01*
X145317216Y-110509937D01*
X145317216Y-110587063D01*
X145278653Y-110653858D01*
X145211858Y-110692423D01*
X145173293Y-110697500D01*
X142483032Y-110697500D01*
X142408532Y-110677538D01*
X142377674Y-110653860D01*
X142377672Y-110653858D01*
X142321314Y-110597500D01*
X142321311Y-110597498D01*
X142321310Y-110597497D01*
X142249133Y-110555826D01*
X142207186Y-110531608D01*
X142079892Y-110497500D01*
X141948108Y-110497500D01*
X141820814Y-110531608D01*
X141820812Y-110531608D01*
X141820812Y-110531609D01*
X141706689Y-110597497D01*
X141613497Y-110690689D01*
X141556114Y-110790081D01*
X141547608Y-110804814D01*
X141535215Y-110851065D01*
X141513500Y-110932106D01*
X141513500Y-110932107D01*
X141513500Y-110932108D01*
X141513500Y-111063892D01*
X141547608Y-111191186D01*
X141547609Y-111191187D01*
X141613497Y-111305310D01*
X141613498Y-111305311D01*
X141613500Y-111305314D01*
X141669860Y-111361674D01*
X141708423Y-111428467D01*
X141713500Y-111467031D01*
X141713500Y-112561811D01*
X141693538Y-112636311D01*
X141669859Y-112667170D01*
X141397170Y-112939859D01*
X141330375Y-112978423D01*
X141291811Y-112983500D01*
X135314189Y-112983500D01*
X135239689Y-112963538D01*
X135208830Y-112939859D01*
X134169511Y-111900540D01*
X134100989Y-111860979D01*
X134024562Y-111840500D01*
X123364438Y-111840500D01*
X123364437Y-111840500D01*
X123288011Y-111860979D01*
X123219488Y-111900540D01*
X122867976Y-112252051D01*
X122801181Y-112290615D01*
X122724053Y-112290615D01*
X122705599Y-112284351D01*
X122683374Y-112275145D01*
X122683370Y-112275144D01*
X122683371Y-112275144D01*
X122514229Y-112241500D01*
X122341771Y-112241500D01*
X122172628Y-112275144D01*
X122172624Y-112275145D01*
X122013302Y-112341138D01*
X122013295Y-112341142D01*
X121943916Y-112387500D01*
X121869897Y-112436958D01*
X121747958Y-112558897D01*
X121652142Y-112702295D01*
X121652138Y-112702302D01*
X121586145Y-112861624D01*
X121586144Y-112861628D01*
X121552500Y-113030770D01*
X121552500Y-113203229D01*
X121586144Y-113372371D01*
X121586145Y-113372375D01*
X121652138Y-113531697D01*
X121652140Y-113531701D01*
X121652142Y-113531705D01*
X121747955Y-113675099D01*
X121869901Y-113797045D01*
X122013295Y-113892858D01*
X122172626Y-113958855D01*
X122341771Y-113992500D01*
X122514229Y-113992500D01*
X122683374Y-113958855D01*
X122842705Y-113892858D01*
X122986099Y-113797045D01*
X123108045Y-113675099D01*
X123203858Y-113531705D01*
X123269855Y-113372374D01*
X123281863Y-113312006D01*
X123315976Y-113242832D01*
X123380105Y-113199982D01*
X123457068Y-113194937D01*
X123526242Y-113229050D01*
X123569092Y-113293179D01*
X123574137Y-113312006D01*
X123586144Y-113372371D01*
X123586145Y-113372375D01*
X123652138Y-113531697D01*
X123652140Y-113531701D01*
X123652142Y-113531705D01*
X123747955Y-113675099D01*
X123869901Y-113797045D01*
X124013295Y-113892858D01*
X124172626Y-113958855D01*
X124341771Y-113992500D01*
X124514229Y-113992500D01*
X124683374Y-113958855D01*
X124842705Y-113892858D01*
X124986099Y-113797045D01*
X125108045Y-113675099D01*
X125203858Y-113531705D01*
X125269855Y-113372374D01*
X125281863Y-113312006D01*
X125315976Y-113242832D01*
X125380105Y-113199982D01*
X125457068Y-113194937D01*
X125526242Y-113229050D01*
X125569092Y-113293179D01*
X125574137Y-113312006D01*
X125586144Y-113372371D01*
X125586145Y-113372375D01*
X125652138Y-113531697D01*
X125652140Y-113531701D01*
X125652142Y-113531705D01*
X125747955Y-113675099D01*
X125869901Y-113797045D01*
X126013295Y-113892858D01*
X126172626Y-113958855D01*
X126341771Y-113992500D01*
X126514229Y-113992500D01*
X126683374Y-113958855D01*
X126842705Y-113892858D01*
X126986099Y-113797045D01*
X127108045Y-113675099D01*
X127203858Y-113531705D01*
X127269855Y-113372374D01*
X127281863Y-113312006D01*
X127315976Y-113242832D01*
X127380105Y-113199982D01*
X127457068Y-113194937D01*
X127526242Y-113229050D01*
X127569092Y-113293179D01*
X127574137Y-113312006D01*
X127586144Y-113372371D01*
X127586145Y-113372375D01*
X127652138Y-113531697D01*
X127652140Y-113531701D01*
X127652142Y-113531705D01*
X127747955Y-113675099D01*
X127869901Y-113797045D01*
X128013295Y-113892858D01*
X128035518Y-113902063D01*
X128096707Y-113949013D01*
X128126225Y-114020269D01*
X128127500Y-114039721D01*
X128127500Y-115640562D01*
X128147979Y-115716991D01*
X128168767Y-115752996D01*
X128168768Y-115752997D01*
X128168770Y-115753000D01*
X128187539Y-115785510D01*
X128462115Y-116060086D01*
X128500679Y-116126881D01*
X128500679Y-116204009D01*
X128462115Y-116270804D01*
X128395320Y-116309368D01*
X128356664Y-116314445D01*
X109876908Y-116303007D01*
X109802420Y-116282999D01*
X109747916Y-116228427D01*
X109728000Y-116154007D01*
X109728000Y-112926534D01*
X111979500Y-112926534D01*
X111979500Y-113133465D01*
X112019869Y-113336417D01*
X112099057Y-113527596D01*
X112214022Y-113699654D01*
X112360345Y-113845977D01*
X112532403Y-113960942D01*
X112608592Y-113992500D01*
X112723580Y-114040130D01*
X112926535Y-114080500D01*
X113133465Y-114080500D01*
X113336420Y-114040130D01*
X113527598Y-113960941D01*
X113699655Y-113845977D01*
X113845977Y-113699655D01*
X113960941Y-113527598D01*
X114040130Y-113336420D01*
X114080500Y-113133465D01*
X114080500Y-112926535D01*
X114040130Y-112723580D01*
X113973123Y-112561811D01*
X113960942Y-112532403D01*
X113845977Y-112360345D01*
X113699654Y-112214022D01*
X113527596Y-112099057D01*
X113369219Y-112033455D01*
X113336420Y-112019870D01*
X113336418Y-112019869D01*
X113336417Y-112019869D01*
X113133465Y-111979500D01*
X112926535Y-111979500D01*
X112723582Y-112019869D01*
X112532403Y-112099057D01*
X112360345Y-112214022D01*
X112214022Y-112360345D01*
X112099057Y-112532403D01*
X112019869Y-112723582D01*
X111979500Y-112926534D01*
X109728000Y-112926534D01*
X109728000Y-110386583D01*
X111980000Y-110386583D01*
X111980000Y-110593416D01*
X112020349Y-110796271D01*
X112020350Y-110796273D01*
X112099500Y-110987359D01*
X112188023Y-111119843D01*
X112586328Y-110721537D01*
X112629901Y-110797007D01*
X112722993Y-110890099D01*
X112798460Y-110933670D01*
X112400155Y-111331975D01*
X112400155Y-111331976D01*
X112532632Y-111420495D01*
X112532642Y-111420500D01*
X112723726Y-111499649D01*
X112723728Y-111499650D01*
X112926584Y-111540000D01*
X113133416Y-111540000D01*
X113336271Y-111499650D01*
X113336273Y-111499649D01*
X113527357Y-111420500D01*
X113527367Y-111420495D01*
X113659843Y-111331976D01*
X113659843Y-111331975D01*
X113261538Y-110933670D01*
X113337007Y-110890099D01*
X113430099Y-110797007D01*
X113473670Y-110721538D01*
X113871975Y-111119843D01*
X113871976Y-111119843D01*
X113960495Y-110987367D01*
X113960500Y-110987357D01*
X114039649Y-110796273D01*
X114039650Y-110796271D01*
X114080000Y-110593416D01*
X114080000Y-110386583D01*
X114039650Y-110183728D01*
X114039649Y-110183726D01*
X113970011Y-110015604D01*
X113970010Y-110015602D01*
X113960501Y-109992645D01*
X113960495Y-109992632D01*
X113871976Y-109860155D01*
X113871975Y-109860155D01*
X113473670Y-110258460D01*
X113430099Y-110182993D01*
X113337007Y-110089901D01*
X113261537Y-110046328D01*
X113659843Y-109648023D01*
X113659843Y-109648022D01*
X113527359Y-109559500D01*
X113336273Y-109480350D01*
X113336271Y-109480349D01*
X113133416Y-109440000D01*
X112926584Y-109440000D01*
X112723728Y-109480349D01*
X112723726Y-109480350D01*
X112532641Y-109559500D01*
X112400155Y-109648022D01*
X112400155Y-109648023D01*
X112798461Y-110046329D01*
X112722993Y-110089901D01*
X112629901Y-110182993D01*
X112586329Y-110258461D01*
X112188023Y-109860155D01*
X112188022Y-109860155D01*
X112099500Y-109992641D01*
X112020350Y-110183726D01*
X112020349Y-110183728D01*
X111980000Y-110386583D01*
X109728000Y-110386583D01*
X109728000Y-107846534D01*
X111979500Y-107846534D01*
X111979500Y-108053465D01*
X112019869Y-108256417D01*
X112099057Y-108447596D01*
X112214022Y-108619654D01*
X112360345Y-108765977D01*
X112532403Y-108880942D01*
X112611591Y-108913742D01*
X112723580Y-108960130D01*
X112926535Y-109000500D01*
X113133465Y-109000500D01*
X113273925Y-108972561D01*
X119628000Y-108972561D01*
X119628000Y-109161438D01*
X119657548Y-109348006D01*
X119715916Y-109527642D01*
X119801669Y-109695938D01*
X119879626Y-109803239D01*
X120202311Y-109480554D01*
X120245437Y-109545097D01*
X120349903Y-109649563D01*
X120414443Y-109692687D01*
X120091759Y-110015371D01*
X120091759Y-110015372D01*
X120199061Y-110093330D01*
X120367357Y-110179083D01*
X120546993Y-110237450D01*
X120546993Y-110237451D01*
X120733562Y-110267000D01*
X120922438Y-110267000D01*
X121109006Y-110237451D01*
X121109006Y-110237450D01*
X121288641Y-110179083D01*
X121335853Y-110155027D01*
X121411296Y-110138990D01*
X121484649Y-110162823D01*
X121536259Y-110220139D01*
X121552500Y-110287786D01*
X121552500Y-111311748D01*
X121564132Y-111370230D01*
X121564133Y-111370231D01*
X121608448Y-111436552D01*
X121674769Y-111480867D01*
X121733252Y-111492500D01*
X123122748Y-111492500D01*
X123181231Y-111480867D01*
X123247552Y-111436552D01*
X123291867Y-111370231D01*
X123303500Y-111311748D01*
X123303500Y-110939081D01*
X123323462Y-110864581D01*
X123378000Y-110810043D01*
X123452500Y-110790081D01*
X123527000Y-110810043D01*
X123581538Y-110864581D01*
X123590158Y-110882062D01*
X123652138Y-111031697D01*
X123652140Y-111031701D01*
X123652142Y-111031705D01*
X123747955Y-111175099D01*
X123869901Y-111297045D01*
X124013295Y-111392858D01*
X124013301Y-111392860D01*
X124013302Y-111392861D01*
X124072156Y-111417239D01*
X124172626Y-111458855D01*
X124341771Y-111492500D01*
X124514229Y-111492500D01*
X124683374Y-111458855D01*
X124842705Y-111392858D01*
X124986099Y-111297045D01*
X125108045Y-111175099D01*
X125203858Y-111031705D01*
X125269855Y-110872374D01*
X125281863Y-110812006D01*
X125315976Y-110742832D01*
X125380105Y-110699982D01*
X125457068Y-110694937D01*
X125526242Y-110729050D01*
X125569092Y-110793179D01*
X125574137Y-110812006D01*
X125586144Y-110872371D01*
X125586145Y-110872375D01*
X125652138Y-111031697D01*
X125652140Y-111031701D01*
X125652142Y-111031705D01*
X125747955Y-111175099D01*
X125869901Y-111297045D01*
X126013295Y-111392858D01*
X126013301Y-111392860D01*
X126013302Y-111392861D01*
X126072156Y-111417239D01*
X126172626Y-111458855D01*
X126341771Y-111492500D01*
X126514229Y-111492500D01*
X126683374Y-111458855D01*
X126842705Y-111392858D01*
X126986099Y-111297045D01*
X127108045Y-111175099D01*
X127203858Y-111031705D01*
X127269855Y-110872374D01*
X127281863Y-110812006D01*
X127315976Y-110742832D01*
X127380105Y-110699982D01*
X127457068Y-110694937D01*
X127526242Y-110729050D01*
X127569092Y-110793179D01*
X127574137Y-110812006D01*
X127586144Y-110872371D01*
X127586145Y-110872375D01*
X127652138Y-111031697D01*
X127652140Y-111031701D01*
X127652142Y-111031705D01*
X127747955Y-111175099D01*
X127869901Y-111297045D01*
X128013295Y-111392858D01*
X128013301Y-111392860D01*
X128013302Y-111392861D01*
X128072156Y-111417239D01*
X128172626Y-111458855D01*
X128341771Y-111492500D01*
X128514229Y-111492500D01*
X128683374Y-111458855D01*
X128842705Y-111392858D01*
X128986099Y-111297045D01*
X129108045Y-111175099D01*
X129203858Y-111031705D01*
X129269855Y-110872374D01*
X129281863Y-110812006D01*
X129315976Y-110742832D01*
X129380105Y-110699982D01*
X129457068Y-110694937D01*
X129526242Y-110729050D01*
X129569092Y-110793179D01*
X129574137Y-110812006D01*
X129586144Y-110872371D01*
X129586145Y-110872375D01*
X129652138Y-111031697D01*
X129652140Y-111031701D01*
X129652142Y-111031705D01*
X129747955Y-111175099D01*
X129869901Y-111297045D01*
X130013295Y-111392858D01*
X130013301Y-111392860D01*
X130013302Y-111392861D01*
X130072156Y-111417239D01*
X130172626Y-111458855D01*
X130341771Y-111492500D01*
X130514229Y-111492500D01*
X130683374Y-111458855D01*
X130842705Y-111392858D01*
X130986099Y-111297045D01*
X131108045Y-111175099D01*
X131203858Y-111031705D01*
X131269855Y-110872374D01*
X131281863Y-110812006D01*
X131315976Y-110742832D01*
X131380105Y-110699982D01*
X131457068Y-110694937D01*
X131526242Y-110729050D01*
X131569092Y-110793179D01*
X131574137Y-110812006D01*
X131586144Y-110872371D01*
X131586145Y-110872375D01*
X131652138Y-111031697D01*
X131652140Y-111031701D01*
X131652142Y-111031705D01*
X131747955Y-111175099D01*
X131869901Y-111297045D01*
X132013295Y-111392858D01*
X132013301Y-111392860D01*
X132013302Y-111392861D01*
X132072156Y-111417239D01*
X132172626Y-111458855D01*
X132341771Y-111492500D01*
X132514229Y-111492500D01*
X132683374Y-111458855D01*
X132842705Y-111392858D01*
X132986099Y-111297045D01*
X133108045Y-111175099D01*
X133203858Y-111031705D01*
X133269855Y-110872374D01*
X133303500Y-110703229D01*
X133303500Y-110530771D01*
X133299355Y-110509935D01*
X133283235Y-110428891D01*
X133269855Y-110361626D01*
X133203858Y-110202295D01*
X133108045Y-110058901D01*
X132986099Y-109936955D01*
X132842705Y-109841142D01*
X132842701Y-109841140D01*
X132842697Y-109841138D01*
X132683375Y-109775145D01*
X132683371Y-109775144D01*
X132514229Y-109741500D01*
X132341771Y-109741500D01*
X132172628Y-109775144D01*
X132172624Y-109775145D01*
X132013302Y-109841138D01*
X132013295Y-109841142D01*
X131930285Y-109896608D01*
X131869897Y-109936958D01*
X131747958Y-110058897D01*
X131747955Y-110058900D01*
X131747955Y-110058901D01*
X131673845Y-110169814D01*
X131652142Y-110202295D01*
X131652138Y-110202302D01*
X131586145Y-110361624D01*
X131586144Y-110361626D01*
X131574137Y-110421994D01*
X131540024Y-110491168D01*
X131475894Y-110534018D01*
X131398931Y-110539062D01*
X131329757Y-110504949D01*
X131286907Y-110440819D01*
X131281863Y-110421994D01*
X131269855Y-110361626D01*
X131269854Y-110361624D01*
X131203861Y-110202302D01*
X131203860Y-110202301D01*
X131203858Y-110202295D01*
X131108045Y-110058901D01*
X130986099Y-109936955D01*
X130842705Y-109841142D01*
X130842701Y-109841140D01*
X130842697Y-109841138D01*
X130683375Y-109775145D01*
X130683371Y-109775144D01*
X130514229Y-109741500D01*
X130341771Y-109741500D01*
X130172628Y-109775144D01*
X130172624Y-109775145D01*
X130013302Y-109841138D01*
X130013295Y-109841142D01*
X129930285Y-109896608D01*
X129869897Y-109936958D01*
X129747958Y-110058897D01*
X129747955Y-110058900D01*
X129747955Y-110058901D01*
X129673845Y-110169814D01*
X129652142Y-110202295D01*
X129652138Y-110202302D01*
X129586145Y-110361624D01*
X129586144Y-110361626D01*
X129574137Y-110421994D01*
X129540024Y-110491168D01*
X129475894Y-110534018D01*
X129398931Y-110539062D01*
X129329757Y-110504949D01*
X129286907Y-110440819D01*
X129281863Y-110421994D01*
X129269855Y-110361626D01*
X129269854Y-110361624D01*
X129203861Y-110202302D01*
X129203860Y-110202301D01*
X129203858Y-110202295D01*
X129108045Y-110058901D01*
X128986099Y-109936955D01*
X128842705Y-109841142D01*
X128842701Y-109841140D01*
X128842697Y-109841138D01*
X128683375Y-109775145D01*
X128683371Y-109775144D01*
X128514229Y-109741500D01*
X128341771Y-109741500D01*
X128172628Y-109775144D01*
X128172624Y-109775145D01*
X128013302Y-109841138D01*
X128013295Y-109841142D01*
X127930285Y-109896608D01*
X127869897Y-109936958D01*
X127747958Y-110058897D01*
X127747955Y-110058900D01*
X127747955Y-110058901D01*
X127673845Y-110169814D01*
X127652142Y-110202295D01*
X127652138Y-110202302D01*
X127586145Y-110361624D01*
X127586144Y-110361626D01*
X127574137Y-110421994D01*
X127540024Y-110491168D01*
X127475894Y-110534018D01*
X127398931Y-110539062D01*
X127329757Y-110504949D01*
X127286907Y-110440819D01*
X127281863Y-110421994D01*
X127269855Y-110361626D01*
X127269854Y-110361624D01*
X127203861Y-110202302D01*
X127203860Y-110202301D01*
X127203858Y-110202295D01*
X127108045Y-110058901D01*
X126986099Y-109936955D01*
X126842705Y-109841142D01*
X126842701Y-109841140D01*
X126842697Y-109841138D01*
X126683375Y-109775145D01*
X126683371Y-109775144D01*
X126514229Y-109741500D01*
X126341771Y-109741500D01*
X126172628Y-109775144D01*
X126172624Y-109775145D01*
X126013302Y-109841138D01*
X126013295Y-109841142D01*
X125930285Y-109896608D01*
X125869897Y-109936958D01*
X125747958Y-110058897D01*
X125747955Y-110058900D01*
X125747955Y-110058901D01*
X125673845Y-110169814D01*
X125652142Y-110202295D01*
X125652138Y-110202302D01*
X125586145Y-110361624D01*
X125586144Y-110361626D01*
X125574137Y-110421994D01*
X125540024Y-110491168D01*
X125475894Y-110534018D01*
X125398931Y-110539062D01*
X125329757Y-110504949D01*
X125286907Y-110440819D01*
X125281863Y-110421994D01*
X125269855Y-110361626D01*
X125269854Y-110361624D01*
X125203861Y-110202302D01*
X125203860Y-110202301D01*
X125203858Y-110202295D01*
X125108045Y-110058901D01*
X124986099Y-109936955D01*
X124842705Y-109841142D01*
X124842701Y-109841140D01*
X124842697Y-109841138D01*
X124683375Y-109775145D01*
X124683371Y-109775144D01*
X124514229Y-109741500D01*
X124341771Y-109741500D01*
X124172628Y-109775144D01*
X124172624Y-109775145D01*
X124013302Y-109841138D01*
X124013295Y-109841142D01*
X123930285Y-109896608D01*
X123869897Y-109936958D01*
X123747958Y-110058897D01*
X123747955Y-110058900D01*
X123747955Y-110058901D01*
X123673845Y-110169814D01*
X123652142Y-110202295D01*
X123652138Y-110202302D01*
X123590158Y-110351937D01*
X123543206Y-110413127D01*
X123471949Y-110442643D01*
X123395481Y-110432576D01*
X123334291Y-110385624D01*
X123304775Y-110314367D01*
X123303500Y-110294918D01*
X123303500Y-109922251D01*
X123291867Y-109863769D01*
X123251421Y-109803239D01*
X123247552Y-109797448D01*
X123181231Y-109753133D01*
X123181230Y-109753132D01*
X123122748Y-109741500D01*
X122074263Y-109741500D01*
X121999763Y-109721538D01*
X121945225Y-109667000D01*
X121925263Y-109592500D01*
X121939383Y-109533699D01*
X121937840Y-109533060D01*
X121940081Y-109527647D01*
X121998450Y-109348006D01*
X121998451Y-109348006D01*
X122028000Y-109161438D01*
X122028000Y-108972561D01*
X121998451Y-108785993D01*
X121940083Y-108606357D01*
X121854330Y-108438061D01*
X121776372Y-108330759D01*
X121776371Y-108330759D01*
X121453687Y-108653443D01*
X121410563Y-108588903D01*
X121306097Y-108484437D01*
X121241554Y-108441311D01*
X121564239Y-108118626D01*
X121456938Y-108040669D01*
X121288642Y-107954916D01*
X121109006Y-107896549D01*
X121109006Y-107896548D01*
X120922438Y-107867000D01*
X120733562Y-107867000D01*
X120546993Y-107896548D01*
X120546993Y-107896549D01*
X120367357Y-107954916D01*
X120199062Y-108040668D01*
X120091759Y-108118626D01*
X120414444Y-108441311D01*
X120349903Y-108484437D01*
X120245437Y-108588903D01*
X120202311Y-108653444D01*
X119879626Y-108330759D01*
X119801668Y-108438062D01*
X119715916Y-108606357D01*
X119657549Y-108785993D01*
X119657548Y-108785993D01*
X119628000Y-108972561D01*
X113273925Y-108972561D01*
X113336420Y-108960130D01*
X113527598Y-108880941D01*
X113699655Y-108765977D01*
X113845977Y-108619655D01*
X113960941Y-108447598D01*
X114040130Y-108256420D01*
X114080500Y-108053465D01*
X114080500Y-107846535D01*
X114040130Y-107643580D01*
X113981944Y-107503108D01*
X113960942Y-107452403D01*
X113845977Y-107280345D01*
X113699654Y-107134022D01*
X113527596Y-107019057D01*
X113369219Y-106953455D01*
X113336420Y-106939870D01*
X113336418Y-106939869D01*
X113336417Y-106939869D01*
X113133465Y-106899500D01*
X112926535Y-106899500D01*
X112723582Y-106939869D01*
X112532403Y-107019057D01*
X112360345Y-107134022D01*
X112214022Y-107280345D01*
X112099057Y-107452403D01*
X112019869Y-107643582D01*
X111979500Y-107846534D01*
X109728000Y-107846534D01*
X109728000Y-105306534D01*
X111979500Y-105306534D01*
X111979500Y-105513465D01*
X112019869Y-105716417D01*
X112099057Y-105907596D01*
X112214022Y-106079654D01*
X112360345Y-106225977D01*
X112532403Y-106340942D01*
X112611591Y-106373742D01*
X112723580Y-106420130D01*
X112926535Y-106460500D01*
X113133465Y-106460500D01*
X113336420Y-106420130D01*
X113527598Y-106340941D01*
X113699655Y-106225977D01*
X113845977Y-106079655D01*
X113960941Y-105907598D01*
X114040130Y-105716420D01*
X114080500Y-105513465D01*
X114080500Y-105306535D01*
X114040130Y-105103580D01*
X113973020Y-104941562D01*
X113960942Y-104912403D01*
X113845977Y-104740345D01*
X113699654Y-104594022D01*
X113527596Y-104479057D01*
X113360876Y-104410000D01*
X113336420Y-104399870D01*
X113336418Y-104399869D01*
X113336417Y-104399869D01*
X113133465Y-104359500D01*
X112926535Y-104359500D01*
X112723582Y-104399869D01*
X112532403Y-104479057D01*
X112360345Y-104594022D01*
X112214022Y-104740345D01*
X112099057Y-104912403D01*
X112019869Y-105103582D01*
X111979500Y-105306534D01*
X109728000Y-105306534D01*
X109728000Y-102766534D01*
X111979500Y-102766534D01*
X111979500Y-102973465D01*
X112019869Y-103176417D01*
X112099057Y-103367596D01*
X112214022Y-103539654D01*
X112360345Y-103685977D01*
X112532403Y-103800942D01*
X112611591Y-103833742D01*
X112723580Y-103880130D01*
X112926535Y-103920500D01*
X113133465Y-103920500D01*
X113336420Y-103880130D01*
X113527598Y-103800941D01*
X113699655Y-103685977D01*
X113845977Y-103539655D01*
X113960941Y-103367598D01*
X114040130Y-103176420D01*
X114080500Y-102973465D01*
X114080500Y-102766535D01*
X114040130Y-102563580D01*
X113980385Y-102419343D01*
X113960942Y-102372403D01*
X113845977Y-102200345D01*
X113699654Y-102054022D01*
X113527596Y-101939057D01*
X113364340Y-101871435D01*
X113336420Y-101859870D01*
X113336418Y-101859869D01*
X113336417Y-101859869D01*
X113133465Y-101819500D01*
X112926535Y-101819500D01*
X112723582Y-101859869D01*
X112532403Y-101939057D01*
X112360345Y-102054022D01*
X112214022Y-102200345D01*
X112099057Y-102372403D01*
X112019869Y-102563582D01*
X111979500Y-102766534D01*
X109728000Y-102766534D01*
X109728000Y-99460251D01*
X111979500Y-99460251D01*
X111979500Y-101199748D01*
X111991132Y-101258230D01*
X111991133Y-101258231D01*
X112035448Y-101324552D01*
X112101769Y-101368867D01*
X112160252Y-101380500D01*
X113899748Y-101380500D01*
X113958231Y-101368867D01*
X114024552Y-101324552D01*
X114068867Y-101258231D01*
X114080500Y-101199748D01*
X114080500Y-99460252D01*
X114068867Y-99401769D01*
X114024552Y-99335448D01*
X113958231Y-99291133D01*
X113958230Y-99291132D01*
X113899748Y-99279500D01*
X112160252Y-99279500D01*
X112101769Y-99291132D01*
X112035448Y-99335448D01*
X111991132Y-99401769D01*
X111979500Y-99460251D01*
X109728000Y-99460251D01*
X109728000Y-97169500D01*
X109747962Y-97095000D01*
X109802500Y-97040462D01*
X109877000Y-97020500D01*
X121904811Y-97020500D01*
X121979311Y-97040462D01*
G37*
%TD.AperFunction*%
%TA.AperFunction,Conductor*%
G36*
X131526242Y-113229050D02*
G01*
X131569092Y-113293179D01*
X131574137Y-113312006D01*
X131586144Y-113372371D01*
X131586145Y-113372375D01*
X131652138Y-113531697D01*
X131652140Y-113531701D01*
X131652142Y-113531705D01*
X131747955Y-113675099D01*
X131869901Y-113797045D01*
X132013295Y-113892858D01*
X132172626Y-113958855D01*
X132341771Y-113992500D01*
X132514229Y-113992500D01*
X132683374Y-113958855D01*
X132764833Y-113925113D01*
X132841298Y-113915047D01*
X132912555Y-113944562D01*
X132959508Y-114005752D01*
X132969575Y-114082220D01*
X132954610Y-114130416D01*
X132915917Y-114206354D01*
X132857549Y-114385993D01*
X132857548Y-114385993D01*
X132828000Y-114572561D01*
X132828000Y-114761438D01*
X132857548Y-114948006D01*
X132915916Y-115127642D01*
X133001669Y-115295938D01*
X133079626Y-115403239D01*
X133402311Y-115080554D01*
X133445437Y-115145097D01*
X133549903Y-115249563D01*
X133614443Y-115292687D01*
X133291759Y-115615371D01*
X133291759Y-115615372D01*
X133365512Y-115668956D01*
X133414051Y-115728895D01*
X133426117Y-115805074D01*
X133398477Y-115877079D01*
X133338538Y-115925618D01*
X133277933Y-115938500D01*
X129252189Y-115938500D01*
X129177689Y-115918538D01*
X129146830Y-115894859D01*
X128772141Y-115520170D01*
X128733577Y-115453375D01*
X128728500Y-115414811D01*
X128728500Y-114039721D01*
X128748462Y-113965221D01*
X128803000Y-113910683D01*
X128820475Y-113902065D01*
X128842705Y-113892858D01*
X128986099Y-113797045D01*
X129108045Y-113675099D01*
X129203858Y-113531705D01*
X129269855Y-113372374D01*
X129281863Y-113312006D01*
X129315976Y-113242832D01*
X129380105Y-113199982D01*
X129457068Y-113194937D01*
X129526242Y-113229050D01*
X129569092Y-113293179D01*
X129574137Y-113312006D01*
X129586144Y-113372371D01*
X129586145Y-113372375D01*
X129652138Y-113531697D01*
X129652140Y-113531701D01*
X129652142Y-113531705D01*
X129747955Y-113675099D01*
X129869901Y-113797045D01*
X130013295Y-113892858D01*
X130172626Y-113958855D01*
X130341771Y-113992500D01*
X130514229Y-113992500D01*
X130683374Y-113958855D01*
X130842705Y-113892858D01*
X130986099Y-113797045D01*
X131108045Y-113675099D01*
X131203858Y-113531705D01*
X131269855Y-113372374D01*
X131281863Y-113312006D01*
X131315976Y-113242832D01*
X131380105Y-113199982D01*
X131457068Y-113194937D01*
X131526242Y-113229050D01*
G37*
%TD.AperFunction*%
%TD*%
M02*
