%TF.GenerationSoftware,KiCad,Pcbnew,9.0.6-9.0.6~ubuntu24.04.1*%
%TF.CreationDate,2026-01-17T19:07:13-03:00*%
%TF.ProjectId,cotti_leds,636f7474-695f-46c6-9564-732e6b696361,0.0*%
%TF.SameCoordinates,Original*%
%TF.FileFunction,Copper,L1,Top*%
%TF.FilePolarity,Positive*%
%FSLAX46Y46*%
G04 Gerber Fmt 4.6, Leading zero omitted, Abs format (unit mm)*
G04 Created by KiCad (PCBNEW 9.0.6-9.0.6~ubuntu24.04.1) date 2026-01-17 19:07:13*
%MOMM*%
%LPD*%
G01*
G04 APERTURE LIST*
G04 Aperture macros list*
%AMRoundRect*
0 Rectangle with rounded corners*
0 $1 Rounding radius*
0 $2 $3 $4 $5 $6 $7 $8 $9 X,Y pos of 4 corners*
0 Add a 4 corners polygon primitive as box body*
4,1,4,$2,$3,$4,$5,$6,$7,$8,$9,$2,$3,0*
0 Add four circle primitives for the rounded corners*
1,1,$1+$1,$2,$3*
1,1,$1+$1,$4,$5*
1,1,$1+$1,$6,$7*
1,1,$1+$1,$8,$9*
0 Add four rect primitives between the rounded corners*
20,1,$1+$1,$2,$3,$4,$5,0*
20,1,$1+$1,$4,$5,$6,$7,0*
20,1,$1+$1,$6,$7,$8,$9,0*
20,1,$1+$1,$8,$9,$2,$3,0*%
G04 Aperture macros list end*
%TA.AperFunction,SMDPad,CuDef*%
%ADD10RoundRect,0.250000X0.350000X0.450000X-0.350000X0.450000X-0.350000X-0.450000X0.350000X-0.450000X0*%
%TD*%
%TA.AperFunction,SMDPad,CuDef*%
%ADD11RoundRect,0.250000X0.450000X-0.350000X0.450000X0.350000X-0.450000X0.350000X-0.450000X-0.350000X0*%
%TD*%
%TA.AperFunction,SMDPad,CuDef*%
%ADD12RoundRect,0.250000X-0.350000X-0.450000X0.350000X-0.450000X0.350000X0.450000X-0.350000X0.450000X0*%
%TD*%
%TA.AperFunction,ComponentPad*%
%ADD13R,1.700000X1.700000*%
%TD*%
%TA.AperFunction,ComponentPad*%
%ADD14C,1.700000*%
%TD*%
%TA.AperFunction,SMDPad,CuDef*%
%ADD15RoundRect,0.237500X0.237500X-0.287500X0.237500X0.287500X-0.237500X0.287500X-0.237500X-0.287500X0*%
%TD*%
%TA.AperFunction,SMDPad,CuDef*%
%ADD16RoundRect,0.150000X0.150000X-0.512500X0.150000X0.512500X-0.150000X0.512500X-0.150000X-0.512500X0*%
%TD*%
%TA.AperFunction,SMDPad,CuDef*%
%ADD17RoundRect,0.125000X-0.125000X0.175000X-0.125000X-0.175000X0.125000X-0.175000X0.125000X0.175000X0*%
%TD*%
%TA.AperFunction,ComponentPad*%
%ADD18R,1.350000X1.350000*%
%TD*%
%TA.AperFunction,ComponentPad*%
%ADD19C,1.350000*%
%TD*%
%TA.AperFunction,ComponentPad*%
%ADD20C,2.000000*%
%TD*%
%TA.AperFunction,ViaPad*%
%ADD21C,0.600000*%
%TD*%
%TA.AperFunction,Conductor*%
%ADD22C,0.300000*%
%TD*%
%TA.AperFunction,Conductor*%
%ADD23C,0.200000*%
%TD*%
G04 APERTURE END LIST*
D10*
%TO.P,R8,1*%
%TO.N,/io2_H*%
X140954000Y-103632000D03*
%TO.P,R8,2*%
%TO.N,GND*%
X138954000Y-103632000D03*
%TD*%
D11*
%TO.P,R10,1*%
%TO.N,/vcc2*%
X152400000Y-105648000D03*
%TO.P,R10,2*%
%TO.N,Net-(D2-A)*%
X152400000Y-103648000D03*
%TD*%
D12*
%TO.P,R3,1*%
%TO.N,Net-(R3-Pad1)*%
X138954000Y-110490000D03*
%TO.P,R3,2*%
%TO.N,/vcc3*%
X140954000Y-110490000D03*
%TD*%
%TO.P,R1,1*%
%TO.N,Net-(R1-Pad1)*%
X138954000Y-100838000D03*
%TO.P,R1,2*%
%TO.N,/vcc1*%
X140954000Y-100838000D03*
%TD*%
D11*
%TO.P,R15,1*%
%TO.N,/vcc4*%
X149606000Y-115300000D03*
%TO.P,R15,2*%
%TO.N,/io4_L*%
X149606000Y-113300000D03*
%TD*%
D10*
%TO.P,R5,1*%
%TO.N,/io1_H*%
X140954000Y-98806000D03*
%TO.P,R5,2*%
%TO.N,GND*%
X138954000Y-98806000D03*
%TD*%
D11*
%TO.P,R7,1*%
%TO.N,/vcc1*%
X152400000Y-100822000D03*
%TO.P,R7,2*%
%TO.N,Net-(D1-A)*%
X152400000Y-98822000D03*
%TD*%
%TO.P,R13,1*%
%TO.N,/vcc3*%
X152400000Y-110474000D03*
%TO.P,R13,2*%
%TO.N,Net-(D3-A)*%
X152400000Y-108474000D03*
%TD*%
D13*
%TO.P,J1,1,IO1*%
%TO.N,/io1*%
X113030000Y-100330000D03*
D14*
%TO.P,J1,2,IO2/PWM*%
%TO.N,/io2*%
X113030000Y-102870000D03*
%TO.P,J1,3,IO3*%
%TO.N,/io3*%
X113030000Y-105410000D03*
%TO.P,J1,4,IO4*%
%TO.N,/io4*%
X113030000Y-107950000D03*
%TO.P,J1,5,GND*%
%TO.N,GND*%
X113030000Y-110490000D03*
%TO.P,J1,6,VCC*%
%TO.N,VCC*%
X113030000Y-113030000D03*
%TD*%
D15*
%TO.P,D1,1,K*%
%TO.N,Net-(D1-K)*%
X154940000Y-100697000D03*
%TO.P,D1,2,A*%
%TO.N,Net-(D1-A)*%
X154940000Y-98947000D03*
%TD*%
D12*
%TO.P,R4,1*%
%TO.N,Net-(R4-Pad1)*%
X138954000Y-115316000D03*
%TO.P,R4,2*%
%TO.N,/vcc4*%
X140954000Y-115316000D03*
%TD*%
D13*
%TO.P,JP2,1,A*%
%TO.N,/io2_H*%
X127000000Y-100076000D03*
D14*
%TO.P,JP2,2,C*%
%TO.N,/io2*%
X127000000Y-102616000D03*
%TO.P,JP2,3,B*%
%TO.N,/io2_L*%
X127000000Y-105156000D03*
%TD*%
D16*
%TO.P,Q3,1,G*%
%TO.N,/io2_H*%
X142814000Y-105785500D03*
%TO.P,Q3,2,S*%
%TO.N,GND*%
X144714000Y-105785500D03*
%TO.P,Q3,3,D*%
%TO.N,/io2_L*%
X143764000Y-103510500D03*
%TD*%
%TO.P,Q5,1,G*%
%TO.N,/io3_H*%
X142814000Y-110611500D03*
%TO.P,Q5,2,S*%
%TO.N,GND*%
X144714000Y-110611500D03*
%TO.P,Q5,3,D*%
%TO.N,/io3_L*%
X143764000Y-108336500D03*
%TD*%
D17*
%TO.P,Q2,1,G*%
%TO.N,/io1_L*%
X147312000Y-99426000D03*
%TO.P,Q2,2,S*%
%TO.N,Net-(D1-K)*%
X146312000Y-99426000D03*
%TO.P,Q2,3,D*%
%TO.N,GND*%
X146812000Y-100726000D03*
%TD*%
D18*
%TO.P,SW1,1,A*%
%TO.N,/vcc1*%
X122428000Y-110617000D03*
D19*
%TO.P,SW1,2,B*%
%TO.N,VCC*%
X124428000Y-110617000D03*
%TO.P,SW1,3,C*%
%TO.N,Net-(R1-Pad1)*%
X126428000Y-110617000D03*
%TO.P,SW1,4,A*%
%TO.N,/vcc2*%
X128428000Y-110617000D03*
%TO.P,SW1,5,B*%
%TO.N,VCC*%
X130428000Y-110617000D03*
%TO.P,SW1,6,C*%
%TO.N,Net-(R2-Pad1)*%
X132428000Y-110617000D03*
%TO.P,SW1,7,A*%
%TO.N,/vcc3*%
X122428000Y-113117000D03*
%TO.P,SW1,8,B*%
%TO.N,VCC*%
X124428000Y-113117000D03*
%TO.P,SW1,9,C*%
%TO.N,Net-(R3-Pad1)*%
X126428000Y-113117000D03*
%TO.P,SW1,10,A*%
%TO.N,/vcc4*%
X128428000Y-113117000D03*
%TO.P,SW1,11,B*%
%TO.N,VCC*%
X130428000Y-113117000D03*
%TO.P,SW1,12,C*%
%TO.N,Net-(R4-Pad1)*%
X132428000Y-113117000D03*
D20*
%TO.P,SW1,13,GND*%
%TO.N,GND*%
X120828000Y-109067000D03*
%TO.P,SW1,14,GND*%
X134028000Y-114667000D03*
%TD*%
D10*
%TO.P,R14,1*%
%TO.N,/io4_H*%
X140954000Y-113284000D03*
%TO.P,R14,2*%
%TO.N,GND*%
X138954000Y-113284000D03*
%TD*%
D15*
%TO.P,D2,1,K*%
%TO.N,Net-(D2-K)*%
X154940000Y-105523000D03*
%TO.P,D2,2,A*%
%TO.N,Net-(D2-A)*%
X154940000Y-103773000D03*
%TD*%
D17*
%TO.P,Q8,1,G*%
%TO.N,/io4_L*%
X147312000Y-113904000D03*
%TO.P,Q8,2,S*%
%TO.N,Net-(D4-K)*%
X146312000Y-113904000D03*
%TO.P,Q8,3,D*%
%TO.N,GND*%
X146812000Y-115204000D03*
%TD*%
%TO.P,Q4,1,G*%
%TO.N,/io2_L*%
X147312000Y-104252000D03*
%TO.P,Q4,2,S*%
%TO.N,Net-(D2-K)*%
X146312000Y-104252000D03*
%TO.P,Q4,3,D*%
%TO.N,GND*%
X146812000Y-105552000D03*
%TD*%
D13*
%TO.P,JP3,1,A*%
%TO.N,/io3_H*%
X130810000Y-100076000D03*
D14*
%TO.P,JP3,2,C*%
%TO.N,/io3*%
X130810000Y-102616000D03*
%TO.P,JP3,3,B*%
%TO.N,/io3_L*%
X130810000Y-105156000D03*
%TD*%
D11*
%TO.P,R16,1*%
%TO.N,/vcc4*%
X152400000Y-115300000D03*
%TO.P,R16,2*%
%TO.N,Net-(D4-A)*%
X152400000Y-113300000D03*
%TD*%
%TO.P,R6,1*%
%TO.N,/vcc1*%
X149606000Y-100822000D03*
%TO.P,R6,2*%
%TO.N,/io1_L*%
X149606000Y-98822000D03*
%TD*%
D15*
%TO.P,D3,1,K*%
%TO.N,Net-(D3-K)*%
X154940000Y-110349000D03*
%TO.P,D3,2,A*%
%TO.N,Net-(D3-A)*%
X154940000Y-108599000D03*
%TD*%
D16*
%TO.P,Q1,1,G*%
%TO.N,/io1_H*%
X142814000Y-100959500D03*
%TO.P,Q1,2,S*%
%TO.N,GND*%
X144714000Y-100959500D03*
%TO.P,Q1,3,D*%
%TO.N,/io1_L*%
X143764000Y-98684500D03*
%TD*%
D15*
%TO.P,D4,1,K*%
%TO.N,Net-(D4-K)*%
X154940000Y-115175000D03*
%TO.P,D4,2,A*%
%TO.N,Net-(D4-A)*%
X154940000Y-113425000D03*
%TD*%
D10*
%TO.P,R11,1*%
%TO.N,/io3_H*%
X140954000Y-108458000D03*
%TO.P,R11,2*%
%TO.N,GND*%
X138954000Y-108458000D03*
%TD*%
D12*
%TO.P,R2,1*%
%TO.N,Net-(R2-Pad1)*%
X138954000Y-105664000D03*
%TO.P,R2,2*%
%TO.N,/vcc2*%
X140954000Y-105664000D03*
%TD*%
D17*
%TO.P,Q6,1,G*%
%TO.N,/io3_L*%
X147312000Y-109078000D03*
%TO.P,Q6,2,S*%
%TO.N,Net-(D3-K)*%
X146312000Y-109078000D03*
%TO.P,Q6,3,D*%
%TO.N,GND*%
X146812000Y-110378000D03*
%TD*%
D16*
%TO.P,Q7,1,G*%
%TO.N,/io4_H*%
X142814000Y-115437500D03*
%TO.P,Q7,2,S*%
%TO.N,GND*%
X144714000Y-115437500D03*
%TO.P,Q7,3,D*%
%TO.N,/io4_L*%
X143764000Y-113162500D03*
%TD*%
D11*
%TO.P,R9,1*%
%TO.N,/vcc2*%
X149606000Y-105648000D03*
%TO.P,R9,2*%
%TO.N,/io2_L*%
X149606000Y-103648000D03*
%TD*%
D13*
%TO.P,JP4,1,A*%
%TO.N,/io4_H*%
X134620000Y-100076000D03*
D14*
%TO.P,JP4,2,C*%
%TO.N,/io4*%
X134620000Y-102616000D03*
%TO.P,JP4,3,B*%
%TO.N,/io4_L*%
X134620000Y-105156000D03*
%TD*%
D11*
%TO.P,R12,1*%
%TO.N,/vcc3*%
X149606000Y-110474000D03*
%TO.P,R12,2*%
%TO.N,/io3_L*%
X149606000Y-108474000D03*
%TD*%
D13*
%TO.P,JP1,1,A*%
%TO.N,/io1_H*%
X123190000Y-100076000D03*
D14*
%TO.P,JP1,2,C*%
%TO.N,/io1*%
X123190000Y-102616000D03*
%TO.P,JP1,3,B*%
%TO.N,/io1_L*%
X123190000Y-105156000D03*
%TD*%
D21*
%TO.N,GND*%
X156210000Y-114300000D03*
X134239000Y-111379000D03*
X156210000Y-109474000D03*
X144780000Y-99568000D03*
X144780000Y-114046000D03*
X144780000Y-104394000D03*
X156210000Y-104648000D03*
X144780000Y-109220000D03*
X138430000Y-107188000D03*
X156210000Y-99822000D03*
X137414000Y-102616000D03*
%TO.N,/io1_H*%
X142748000Y-98044000D03*
%TO.N,/io1_L*%
X143764000Y-97409000D03*
%TO.N,/io2_H*%
X142367000Y-102997000D03*
%TO.N,/io2_L*%
X139055083Y-102234832D03*
%TO.N,/io3_L*%
X142240000Y-107569000D03*
%TO.N,/io3_H*%
X140455000Y-107188000D03*
%TO.N,/io4_L*%
X140843000Y-111887000D03*
%TO.N,/io4_H*%
X139654997Y-107188000D03*
%TO.N,/vcc1*%
X142014000Y-100838000D03*
X148336000Y-101311000D03*
%TO.N,/vcc2*%
X148336000Y-106137000D03*
X142014000Y-105664000D03*
%TO.N,/vcc3*%
X142014000Y-110998000D03*
X148336000Y-110998000D03*
%TO.N,/vcc4*%
X142014000Y-115687108D03*
X148336000Y-115697000D03*
%TO.N,Net-(D1-K)*%
X145796000Y-100711000D03*
X153670000Y-100711000D03*
%TO.N,Net-(D2-K)*%
X153670000Y-105537000D03*
X145796000Y-105537000D03*
%TO.N,Net-(D3-K)*%
X153670000Y-110363000D03*
X145796000Y-110363000D03*
%TO.N,Net-(D4-K)*%
X145796000Y-115062000D03*
X153600000Y-115189000D03*
%TD*%
D22*
%TO.N,VCC*%
X124428000Y-111760000D02*
X130428000Y-111760000D01*
X124428000Y-111760000D02*
X124428000Y-110617000D01*
X124428000Y-112014000D02*
X124428000Y-111760000D01*
X121920000Y-111760000D02*
X120650000Y-113030000D01*
X124428000Y-113117000D02*
X124428000Y-112014000D01*
X130428000Y-113117000D02*
X130428000Y-111760000D01*
X120650000Y-113030000D02*
X113030000Y-113030000D01*
X130428000Y-111760000D02*
X130428000Y-110617000D01*
X124428000Y-111760000D02*
X121920000Y-111760000D01*
D23*
%TO.N,Net-(R1-Pad1)*%
X128358400Y-108686600D02*
X136398000Y-108686600D01*
X136398000Y-108686600D02*
X136398000Y-101346000D01*
X126428000Y-110617000D02*
X128358400Y-108686600D01*
X136906000Y-100838000D02*
X138954000Y-100838000D01*
X136398000Y-101346000D02*
X136906000Y-100838000D01*
%TO.N,Net-(R2-Pad1)*%
X137414000Y-106172000D02*
X137922000Y-105664000D01*
X135763000Y-110617000D02*
X137414000Y-108966000D01*
X137414000Y-108966000D02*
X137414000Y-106172000D01*
X132428000Y-110617000D02*
X135763000Y-110617000D01*
X137922000Y-105664000D02*
X138954000Y-105664000D01*
%TO.N,/io1_H*%
X142748000Y-98171000D02*
X142814000Y-98237000D01*
X142814000Y-98237000D02*
X142814000Y-98806000D01*
X142814000Y-98806000D02*
X140954000Y-98806000D01*
X142748000Y-98044000D02*
X142748000Y-98171000D01*
X142814000Y-100959500D02*
X142814000Y-98806000D01*
%TO.N,/io1_L*%
X143764000Y-97409000D02*
X143764000Y-98684500D01*
X149606000Y-98822000D02*
X147320000Y-98822000D01*
X143901500Y-98822000D02*
X143764000Y-98684500D01*
X147312000Y-99426000D02*
X147312000Y-98830000D01*
X147312000Y-98830000D02*
X147320000Y-98822000D01*
X147320000Y-98822000D02*
X143901500Y-98822000D01*
%TO.N,/io1*%
X113030000Y-100330000D02*
X115316000Y-102616000D01*
X115316000Y-102616000D02*
X123190000Y-102616000D01*
X122682000Y-102108000D02*
X123190000Y-102616000D01*
%TO.N,/io2_H*%
X142494000Y-103632000D02*
X142814000Y-103952000D01*
X142367000Y-102997000D02*
X142367000Y-103632000D01*
X142367000Y-103632000D02*
X140954000Y-103632000D01*
X142367000Y-103632000D02*
X142494000Y-103632000D01*
X142814000Y-103952000D02*
X142814000Y-105785500D01*
%TO.N,/io2_L*%
X127000000Y-105918000D02*
X127000000Y-105156000D01*
X147312000Y-104252000D02*
X147312000Y-103518500D01*
X147320000Y-103510500D02*
X149468500Y-103510500D01*
X147312000Y-103518500D02*
X147320000Y-103510500D01*
X139055083Y-102234832D02*
X143509832Y-102234832D01*
X143509832Y-102234832D02*
X143764000Y-102489000D01*
X143764000Y-103510500D02*
X147320000Y-103510500D01*
X149468500Y-103510500D02*
X149606000Y-103648000D01*
X143764000Y-102489000D02*
X143764000Y-103510500D01*
%TO.N,/io2*%
X125730000Y-102616000D02*
X127000000Y-102616000D01*
X113030000Y-102870000D02*
X113927000Y-103767000D01*
X113927000Y-103767000D02*
X124579000Y-103767000D01*
X124579000Y-103767000D02*
X125730000Y-102616000D01*
%TO.N,/io3*%
X130810000Y-102973760D02*
X127464760Y-106319000D01*
X130810000Y-102616000D02*
X130810000Y-102973760D01*
X113939000Y-106319000D02*
X113030000Y-105410000D01*
X127464760Y-106319000D02*
X113939000Y-106319000D01*
%TO.N,/io3_L*%
X147320000Y-108336500D02*
X149468500Y-108336500D01*
X142240000Y-107569000D02*
X142621000Y-107188000D01*
X142621000Y-107188000D02*
X143637000Y-107188000D01*
X143637000Y-107188000D02*
X143764000Y-107315000D01*
X149468500Y-108336500D02*
X149606000Y-108474000D01*
X143764000Y-108336500D02*
X147320000Y-108336500D01*
X143764000Y-107315000D02*
X143764000Y-108336500D01*
X147312000Y-108344500D02*
X147320000Y-108336500D01*
X147312000Y-109078000D02*
X147312000Y-108344500D01*
%TO.N,/io3_H*%
X142494000Y-108458000D02*
X140954000Y-108458000D01*
X142814000Y-110611500D02*
X142814000Y-108778000D01*
X140954000Y-107687000D02*
X140954000Y-108458000D01*
X140455000Y-107188000D02*
X140954000Y-107687000D01*
X142814000Y-108778000D02*
X142494000Y-108458000D01*
%TO.N,/io4_L*%
X143764000Y-112014000D02*
X143764000Y-113162500D01*
X143901500Y-113300000D02*
X143764000Y-113162500D01*
X149606000Y-113300000D02*
X147320000Y-113300000D01*
X143637000Y-111887000D02*
X143764000Y-112014000D01*
X147320000Y-113300000D02*
X143901500Y-113300000D01*
X147320000Y-113300000D02*
X147312000Y-113308000D01*
X140843000Y-111887000D02*
X143637000Y-111887000D01*
X147312000Y-113308000D02*
X147312000Y-113904000D01*
%TO.N,/io4*%
X113214000Y-107766000D02*
X129978000Y-107766000D01*
X113030000Y-107950000D02*
X113214000Y-107766000D01*
X129978000Y-107766000D02*
X134620000Y-103124000D01*
X134620000Y-103124000D02*
X134620000Y-102616000D01*
%TO.N,/io4_H*%
X140954000Y-113284000D02*
X140081000Y-113284000D01*
X142367000Y-113284000D02*
X142814000Y-113731000D01*
X140081000Y-113284000D02*
X139855000Y-113058000D01*
X139855000Y-113058000D02*
X139855000Y-107388003D01*
X139855000Y-107388003D02*
X139654997Y-107188000D01*
X140954000Y-113284000D02*
X142367000Y-113284000D01*
X142814000Y-113731000D02*
X142814000Y-115437500D01*
%TO.N,Net-(R3-Pad1)*%
X131452000Y-112712727D02*
X132023727Y-112141000D01*
X131017000Y-114093000D02*
X131452000Y-113658000D01*
X136017000Y-112141000D02*
X137668000Y-110490000D01*
X132023727Y-112141000D02*
X136017000Y-112141000D01*
X126428000Y-113117000D02*
X126428000Y-113093000D01*
X137668000Y-110490000D02*
X138954000Y-110490000D01*
X131452000Y-113658000D02*
X131452000Y-112712727D01*
X126428000Y-113117000D02*
X127404000Y-114093000D01*
X127404000Y-114093000D02*
X131017000Y-114093000D01*
%TO.N,/vcc1*%
X148809000Y-100838000D02*
X149590000Y-100838000D01*
X140954000Y-100060000D02*
X140954000Y-100838000D01*
X140731000Y-99837000D02*
X140954000Y-100060000D01*
X149590000Y-100838000D02*
X149606000Y-100822000D01*
X136764000Y-99837000D02*
X140731000Y-99837000D01*
X135997000Y-100604000D02*
X136764000Y-99837000D01*
X124841000Y-108204000D02*
X135997000Y-108204000D01*
X135997000Y-108204000D02*
X135997000Y-100604000D01*
X140954000Y-100838000D02*
X142014000Y-100838000D01*
X152400000Y-100822000D02*
X149606000Y-100822000D01*
X148336000Y-101311000D02*
X148809000Y-100838000D01*
X122428000Y-110617000D02*
X124841000Y-108204000D01*
%TO.N,/vcc2*%
X148336000Y-106137000D02*
X148336000Y-106045000D01*
X152400000Y-105648000D02*
X149606000Y-105648000D01*
X136171900Y-109641000D02*
X137013000Y-108799900D01*
X129404000Y-109641000D02*
X136171900Y-109641000D01*
X140731000Y-104663000D02*
X140954000Y-104886000D01*
X140954000Y-105664000D02*
X142014000Y-105664000D01*
X128428000Y-110617000D02*
X129404000Y-109641000D01*
X138355900Y-104663000D02*
X140731000Y-104663000D01*
X148336000Y-106045000D02*
X148733000Y-105648000D01*
X137013000Y-106005900D02*
X138355900Y-104663000D01*
X137013000Y-108799900D02*
X137013000Y-106005900D01*
X140954000Y-104886000D02*
X140954000Y-105664000D01*
X148733000Y-105648000D02*
X149606000Y-105648000D01*
%TO.N,Net-(R4-Pad1)*%
X132428000Y-114906892D02*
X133489108Y-115968000D01*
X137397000Y-115968000D02*
X138049000Y-115316000D01*
X138049000Y-115316000D02*
X138954000Y-115316000D01*
X133489108Y-115968000D02*
X137397000Y-115968000D01*
X132428000Y-113117000D02*
X132428000Y-113063000D01*
X132428000Y-113117000D02*
X132428000Y-114906892D01*
%TO.N,Net-(D1-A)*%
X154940000Y-98947000D02*
X152525000Y-98947000D01*
X152525000Y-98947000D02*
X152400000Y-98822000D01*
%TO.N,/vcc3*%
X141732000Y-110490000D02*
X142014000Y-110772000D01*
X152400000Y-110474000D02*
X149606000Y-110474000D01*
X148336000Y-110871000D02*
X148733000Y-110474000D01*
X148733000Y-110474000D02*
X149606000Y-110474000D01*
X142014000Y-110772000D02*
X142014000Y-110998000D01*
X148336000Y-110998000D02*
X148336000Y-110871000D01*
X140954000Y-110490000D02*
X141732000Y-110490000D01*
%TO.N,/vcc4*%
X148336000Y-115697000D02*
X148717000Y-115316000D01*
X142014000Y-115471000D02*
X142014000Y-115687108D01*
X140954000Y-115316000D02*
X141859000Y-115316000D01*
X149590000Y-115316000D02*
X149606000Y-115300000D01*
X148717000Y-115316000D02*
X149590000Y-115316000D01*
X149606000Y-115300000D02*
X152400000Y-115300000D01*
X141859000Y-115316000D02*
X142014000Y-115471000D01*
X128428000Y-112934000D02*
X128428000Y-113117000D01*
%TO.N,Net-(D1-K)*%
X153684000Y-100697000D02*
X153670000Y-100711000D01*
X145938000Y-99426000D02*
X146312000Y-99426000D01*
X145796000Y-100711000D02*
X145796000Y-99568000D01*
X154940000Y-100697000D02*
X153684000Y-100697000D01*
X145796000Y-99568000D02*
X145938000Y-99426000D01*
%TO.N,Net-(D2-K)*%
X154940000Y-105523000D02*
X153684000Y-105523000D01*
X145796000Y-104394000D02*
X145938000Y-104252000D01*
X145938000Y-104252000D02*
X146312000Y-104252000D01*
X145796000Y-105537000D02*
X145796000Y-104394000D01*
X153684000Y-105523000D02*
X153670000Y-105537000D01*
%TO.N,Net-(D2-A)*%
X152525000Y-103773000D02*
X152400000Y-103648000D01*
X154940000Y-103773000D02*
X152525000Y-103773000D01*
%TO.N,Net-(D3-K)*%
X145796000Y-109220000D02*
X145938000Y-109078000D01*
X153684000Y-110349000D02*
X153670000Y-110363000D01*
X154940000Y-110349000D02*
X153684000Y-110349000D01*
X145938000Y-109078000D02*
X146312000Y-109078000D01*
X145796000Y-110363000D02*
X145796000Y-109220000D01*
%TO.N,Net-(D3-A)*%
X154940000Y-108599000D02*
X152525000Y-108599000D01*
X152525000Y-108599000D02*
X152400000Y-108474000D01*
%TO.N,Net-(D4-K)*%
X153614000Y-115175000D02*
X153600000Y-115189000D01*
X145796000Y-115062000D02*
X145796000Y-114046000D01*
X145938000Y-113904000D02*
X146312000Y-113904000D01*
X145796000Y-114046000D02*
X145938000Y-113904000D01*
X154940000Y-115175000D02*
X153614000Y-115175000D01*
%TO.N,Net-(D4-A)*%
X154815000Y-113300000D02*
X154940000Y-113425000D01*
X152400000Y-113300000D02*
X154815000Y-113300000D01*
%TD*%
%TA.AperFunction,Conductor*%
%TO.N,GND*%
G36*
X156569095Y-97027907D02*
G01*
X156643580Y-97047915D01*
X156698084Y-97102487D01*
X156718000Y-97176907D01*
X156718000Y-116182907D01*
X156698038Y-116257407D01*
X156643500Y-116311945D01*
X156569000Y-116331907D01*
X156568908Y-116331907D01*
X153139492Y-116329785D01*
X153065004Y-116309777D01*
X153010500Y-116255205D01*
X152990584Y-116180693D01*
X153010592Y-116106205D01*
X153055397Y-116061455D01*
X153053898Y-116059424D01*
X153128569Y-116004314D01*
X153172150Y-115972150D01*
X153252793Y-115862882D01*
X153286714Y-115765938D01*
X153330162Y-115702214D01*
X153399651Y-115668749D01*
X153465914Y-115671227D01*
X153534108Y-115689500D01*
X153665892Y-115689500D01*
X153793186Y-115655392D01*
X153907314Y-115589500D01*
X153977674Y-115519139D01*
X153994659Y-115509333D01*
X154008531Y-115495462D01*
X154027479Y-115490384D01*
X154044467Y-115480577D01*
X154083031Y-115475500D01*
X154137288Y-115475500D01*
X154211788Y-115495462D01*
X154266326Y-115550000D01*
X154277925Y-115575284D01*
X154291497Y-115614071D01*
X154310884Y-115669476D01*
X154389287Y-115775709D01*
X154389290Y-115775712D01*
X154495522Y-115854115D01*
X154495525Y-115854116D01*
X154620151Y-115897725D01*
X154649744Y-115900500D01*
X154649752Y-115900500D01*
X155230248Y-115900500D01*
X155230256Y-115900500D01*
X155259849Y-115897725D01*
X155384475Y-115854116D01*
X155384475Y-115854115D01*
X155384477Y-115854115D01*
X155438934Y-115813924D01*
X155490711Y-115775711D01*
X155543439Y-115704266D01*
X155569115Y-115669477D01*
X155569807Y-115667500D01*
X155612725Y-115544849D01*
X155615500Y-115515256D01*
X155615500Y-114834744D01*
X155612725Y-114805151D01*
X155569116Y-114680525D01*
X155569115Y-114680523D01*
X155569115Y-114680522D01*
X155490712Y-114574290D01*
X155490709Y-114574287D01*
X155384477Y-114495884D01*
X155324299Y-114474827D01*
X155259849Y-114452275D01*
X155259846Y-114452274D01*
X155259844Y-114452274D01*
X155230264Y-114449500D01*
X155230256Y-114449500D01*
X154649744Y-114449500D01*
X154649735Y-114449500D01*
X154620155Y-114452274D01*
X154620152Y-114452274D01*
X154620151Y-114452275D01*
X154585787Y-114464299D01*
X154495522Y-114495884D01*
X154389290Y-114574287D01*
X154389287Y-114574290D01*
X154310884Y-114680523D01*
X154296158Y-114722608D01*
X154289769Y-114740869D01*
X154277927Y-114774711D01*
X154269978Y-114786369D01*
X154266326Y-114800000D01*
X154248600Y-114817725D01*
X154234479Y-114838438D01*
X154221765Y-114844560D01*
X154211788Y-114854538D01*
X154187573Y-114861026D01*
X154164989Y-114871902D01*
X154137288Y-114874500D01*
X154055032Y-114874500D01*
X153980532Y-114854538D01*
X153949674Y-114830860D01*
X153929677Y-114810863D01*
X153907314Y-114788500D01*
X153907311Y-114788498D01*
X153907310Y-114788497D01*
X153818318Y-114737118D01*
X153793186Y-114722608D01*
X153665892Y-114688500D01*
X153534108Y-114688500D01*
X153406809Y-114722609D01*
X153406610Y-114722725D01*
X153406387Y-114722784D01*
X153397789Y-114726346D01*
X153397319Y-114725213D01*
X153332109Y-114742682D01*
X153257610Y-114722715D01*
X153212234Y-114682161D01*
X153172151Y-114627851D01*
X153172148Y-114627848D01*
X153062883Y-114547207D01*
X152991899Y-114522369D01*
X152934699Y-114502354D01*
X152934697Y-114502353D01*
X152934695Y-114502353D01*
X152904275Y-114499500D01*
X152904266Y-114499500D01*
X151895734Y-114499500D01*
X151895724Y-114499500D01*
X151865304Y-114502353D01*
X151737116Y-114547207D01*
X151627851Y-114627848D01*
X151627848Y-114627851D01*
X151547207Y-114737116D01*
X151502353Y-114865304D01*
X151500418Y-114874162D01*
X151498938Y-114873838D01*
X151475608Y-114936720D01*
X151416217Y-114985929D01*
X151354088Y-114999500D01*
X150651912Y-114999500D01*
X150577412Y-114979538D01*
X150522874Y-114925000D01*
X150506600Y-114873939D01*
X150505582Y-114874162D01*
X150503646Y-114865304D01*
X150503646Y-114865301D01*
X150458793Y-114737118D01*
X150456862Y-114734502D01*
X150378151Y-114627851D01*
X150378148Y-114627848D01*
X150268883Y-114547207D01*
X150197899Y-114522369D01*
X150140699Y-114502354D01*
X150140697Y-114502353D01*
X150140695Y-114502353D01*
X150110275Y-114499500D01*
X150110266Y-114499500D01*
X149101734Y-114499500D01*
X149101724Y-114499500D01*
X149071304Y-114502353D01*
X148943116Y-114547207D01*
X148833851Y-114627848D01*
X148833848Y-114627851D01*
X148753207Y-114737116D01*
X148708353Y-114865304D01*
X148705500Y-114895724D01*
X148705337Y-114899221D01*
X148704023Y-114899159D01*
X148685538Y-114968149D01*
X148645468Y-115013172D01*
X148622599Y-115030194D01*
X148601011Y-115035979D01*
X148560202Y-115059540D01*
X148532489Y-115075540D01*
X148447487Y-115160540D01*
X148438779Y-115167023D01*
X148412687Y-115177386D01*
X148388375Y-115191423D01*
X148371880Y-115193594D01*
X148367098Y-115195494D01*
X148362533Y-115194825D01*
X148349811Y-115196500D01*
X148270108Y-115196500D01*
X148142814Y-115230608D01*
X148142812Y-115230608D01*
X148142812Y-115230609D01*
X148028689Y-115296497D01*
X147935497Y-115389689D01*
X147886073Y-115475295D01*
X147869608Y-115503814D01*
X147858614Y-115544844D01*
X147835500Y-115631106D01*
X147835500Y-115762893D01*
X147838934Y-115775709D01*
X147869608Y-115890186D01*
X147894623Y-115933514D01*
X147935497Y-116004310D01*
X147935498Y-116004311D01*
X147935500Y-116004314D01*
X148003369Y-116072183D01*
X148041932Y-116138976D01*
X148041932Y-116216104D01*
X148003368Y-116282899D01*
X147936573Y-116321463D01*
X147897917Y-116326540D01*
X145308891Y-116324938D01*
X145234403Y-116304930D01*
X145179899Y-116250358D01*
X145159983Y-116175846D01*
X145175123Y-116110498D01*
X145204087Y-116051250D01*
X145204088Y-116051246D01*
X145213999Y-115983227D01*
X145214000Y-115983217D01*
X145214000Y-115605344D01*
X145197698Y-115587500D01*
X144214001Y-115587500D01*
X144214001Y-115983214D01*
X144214002Y-115983230D01*
X144223912Y-116051250D01*
X144252516Y-116109761D01*
X144267303Y-116185458D01*
X144242259Y-116258407D01*
X144184096Y-116309061D01*
X144118564Y-116324201D01*
X143410021Y-116323762D01*
X143335533Y-116303754D01*
X143281029Y-116249182D01*
X143261113Y-116174670D01*
X143276251Y-116109325D01*
X143304573Y-116051393D01*
X143314500Y-115983260D01*
X143314500Y-114891772D01*
X144214000Y-114891772D01*
X144214000Y-115287500D01*
X144564000Y-115287500D01*
X144564000Y-114574999D01*
X144563999Y-114574999D01*
X144530778Y-114575000D01*
X144462749Y-114584912D01*
X144357812Y-114636212D01*
X144275212Y-114718812D01*
X144223912Y-114823749D01*
X144223911Y-114823753D01*
X144214000Y-114891772D01*
X143314500Y-114891772D01*
X143314500Y-114891740D01*
X143311906Y-114873939D01*
X143304573Y-114823606D01*
X143304573Y-114823605D01*
X143253199Y-114718518D01*
X143161753Y-114627072D01*
X143164051Y-114624773D01*
X143127886Y-114580859D01*
X143114500Y-114519134D01*
X143114500Y-114030899D01*
X143134462Y-113956399D01*
X143189000Y-113901861D01*
X143263500Y-113881899D01*
X143338000Y-113901861D01*
X143368859Y-113925540D01*
X143407518Y-113964199D01*
X143512605Y-114015573D01*
X143580731Y-114025499D01*
X143580737Y-114025499D01*
X143580740Y-114025500D01*
X143580741Y-114025500D01*
X143947259Y-114025500D01*
X143947260Y-114025500D01*
X143947263Y-114025499D01*
X143947268Y-114025499D01*
X144015393Y-114015573D01*
X144015394Y-114015573D01*
X144120481Y-113964199D01*
X144120481Y-113964198D01*
X144120483Y-113964198D01*
X144203198Y-113881483D01*
X144212291Y-113862883D01*
X144254573Y-113776394D01*
X144254573Y-113776393D01*
X144261622Y-113728017D01*
X144292117Y-113657173D01*
X144353949Y-113611069D01*
X144409065Y-113600500D01*
X145456811Y-113600500D01*
X145531311Y-113620462D01*
X145585849Y-113675000D01*
X145605811Y-113749500D01*
X145585849Y-113824000D01*
X145562170Y-113854859D01*
X145555540Y-113861488D01*
X145515979Y-113930011D01*
X145495500Y-114006437D01*
X145495500Y-114592968D01*
X145490423Y-114611915D01*
X145490423Y-114631532D01*
X145480615Y-114648519D01*
X145475538Y-114667468D01*
X145451860Y-114698326D01*
X145391825Y-114758361D01*
X145325030Y-114796925D01*
X145247902Y-114796925D01*
X145181107Y-114758361D01*
X145160015Y-114728820D01*
X145159961Y-114728860D01*
X145152786Y-114718811D01*
X145070187Y-114636212D01*
X144965250Y-114584912D01*
X144965246Y-114584911D01*
X144897227Y-114575000D01*
X144864000Y-114575000D01*
X144864000Y-115287500D01*
X145262239Y-115287500D01*
X145293113Y-115295772D01*
X145308414Y-115296464D01*
X145317594Y-115302332D01*
X145336739Y-115307462D01*
X145356442Y-115327163D01*
X145373400Y-115338003D01*
X145384330Y-115349967D01*
X145395500Y-115369314D01*
X145488686Y-115462500D01*
X145488688Y-115462501D01*
X145488689Y-115462502D01*
X145511203Y-115475500D01*
X145602814Y-115528392D01*
X145730108Y-115562500D01*
X145861892Y-115562500D01*
X145989186Y-115528392D01*
X146103314Y-115462500D01*
X146132907Y-115432906D01*
X146199699Y-115394343D01*
X146276827Y-115394342D01*
X146343622Y-115432905D01*
X146373305Y-115475295D01*
X146416666Y-115568285D01*
X146416670Y-115568290D01*
X146497709Y-115649329D01*
X146497714Y-115649333D01*
X146601583Y-115697767D01*
X146601587Y-115697768D01*
X146648912Y-115703999D01*
X146962000Y-115703999D01*
X146975081Y-115703999D01*
X146975082Y-115703998D01*
X147022414Y-115697768D01*
X147126285Y-115649333D01*
X147126290Y-115649329D01*
X147207329Y-115568290D01*
X147207333Y-115568285D01*
X147255767Y-115464416D01*
X147255769Y-115464412D01*
X147261999Y-115417087D01*
X147262000Y-115417085D01*
X147262000Y-115354000D01*
X146962000Y-115354000D01*
X146962000Y-115703999D01*
X146648912Y-115703999D01*
X146661999Y-115703998D01*
X146662000Y-115703998D01*
X146662000Y-115054000D01*
X146962000Y-115054000D01*
X147261999Y-115054000D01*
X147261999Y-114990918D01*
X147261998Y-114990917D01*
X147255768Y-114943585D01*
X147207333Y-114839714D01*
X147207329Y-114839709D01*
X147126290Y-114758670D01*
X147126285Y-114758666D01*
X147022416Y-114710232D01*
X147022412Y-114710230D01*
X146975087Y-114704000D01*
X146962000Y-114704000D01*
X146962000Y-115054000D01*
X146662000Y-115054000D01*
X146662000Y-114704000D01*
X146661999Y-114703999D01*
X146648923Y-114704000D01*
X146648914Y-114704001D01*
X146601585Y-114710231D01*
X146497714Y-114758666D01*
X146497709Y-114758670D01*
X146445514Y-114810865D01*
X146378719Y-114849428D01*
X146301591Y-114849428D01*
X146234796Y-114810863D01*
X146226128Y-114801415D01*
X146217680Y-114791371D01*
X146196500Y-114754686D01*
X146135601Y-114693787D01*
X146131472Y-114688878D01*
X146117756Y-114659556D01*
X146101577Y-114631531D01*
X146100373Y-114622392D01*
X146098794Y-114619015D01*
X146099243Y-114613806D01*
X146096500Y-114592968D01*
X146096500Y-114553499D01*
X146116462Y-114478999D01*
X146171000Y-114424461D01*
X146245497Y-114404499D01*
X146475138Y-114404499D01*
X146522545Y-114398259D01*
X146626579Y-114349747D01*
X146706641Y-114269685D01*
X146773436Y-114231121D01*
X146850564Y-114231121D01*
X146917359Y-114269685D01*
X146997421Y-114349747D01*
X147101452Y-114398258D01*
X147101453Y-114398258D01*
X147101455Y-114398259D01*
X147148861Y-114404500D01*
X147475138Y-114404499D01*
X147522545Y-114398259D01*
X147626579Y-114349747D01*
X147707747Y-114268579D01*
X147756259Y-114164545D01*
X147762500Y-114117139D01*
X147762499Y-113749499D01*
X147782461Y-113675000D01*
X147836999Y-113620462D01*
X147911499Y-113600500D01*
X148560088Y-113600500D01*
X148634588Y-113620462D01*
X148689126Y-113675000D01*
X148705399Y-113726060D01*
X148706418Y-113725838D01*
X148708353Y-113734695D01*
X148708353Y-113734697D01*
X148708354Y-113734699D01*
X148722102Y-113773989D01*
X148753207Y-113862883D01*
X148833848Y-113972148D01*
X148833851Y-113972151D01*
X148943116Y-114052792D01*
X148943117Y-114052792D01*
X148943118Y-114052793D01*
X149071301Y-114097646D01*
X149101734Y-114100500D01*
X149101741Y-114100500D01*
X150110259Y-114100500D01*
X150110266Y-114100500D01*
X150140699Y-114097646D01*
X150268882Y-114052793D01*
X150378150Y-113972150D01*
X150458793Y-113862882D01*
X150503646Y-113734699D01*
X150506500Y-113704266D01*
X150506500Y-112895734D01*
X150506499Y-112895724D01*
X151499500Y-112895724D01*
X151499500Y-113704275D01*
X151502353Y-113734695D01*
X151502353Y-113734697D01*
X151502354Y-113734699D01*
X151516102Y-113773989D01*
X151547207Y-113862883D01*
X151627848Y-113972148D01*
X151627851Y-113972151D01*
X151737116Y-114052792D01*
X151737117Y-114052792D01*
X151737118Y-114052793D01*
X151865301Y-114097646D01*
X151895734Y-114100500D01*
X151895741Y-114100500D01*
X152904259Y-114100500D01*
X152904266Y-114100500D01*
X152934699Y-114097646D01*
X153062882Y-114052793D01*
X153172150Y-113972150D01*
X153252793Y-113862882D01*
X153297646Y-113734699D01*
X153297646Y-113734691D01*
X153299582Y-113725838D01*
X153301061Y-113726161D01*
X153324392Y-113663280D01*
X153383783Y-113614071D01*
X153445912Y-113600500D01*
X154115500Y-113600500D01*
X154190000Y-113620462D01*
X154244538Y-113675000D01*
X154264500Y-113749500D01*
X154264500Y-113765264D01*
X154267274Y-113794844D01*
X154267274Y-113794846D01*
X154267275Y-113794849D01*
X154282041Y-113837047D01*
X154310884Y-113919477D01*
X154389287Y-114025709D01*
X154389290Y-114025712D01*
X154495522Y-114104115D01*
X154495525Y-114104116D01*
X154620151Y-114147725D01*
X154649744Y-114150500D01*
X154649752Y-114150500D01*
X155230248Y-114150500D01*
X155230256Y-114150500D01*
X155259849Y-114147725D01*
X155384475Y-114104116D01*
X155384475Y-114104115D01*
X155384477Y-114104115D01*
X155454017Y-114052792D01*
X155490711Y-114025711D01*
X155532717Y-113968794D01*
X155569115Y-113919477D01*
X155575279Y-113901861D01*
X155612725Y-113794849D01*
X155615500Y-113765256D01*
X155615500Y-113084744D01*
X155612725Y-113055151D01*
X155569116Y-112930525D01*
X155569115Y-112930522D01*
X155490712Y-112824290D01*
X155490709Y-112824287D01*
X155384477Y-112745884D01*
X155320740Y-112723582D01*
X155259849Y-112702275D01*
X155259846Y-112702274D01*
X155259844Y-112702274D01*
X155230264Y-112699500D01*
X155230256Y-112699500D01*
X154649744Y-112699500D01*
X154649735Y-112699500D01*
X154620155Y-112702274D01*
X154620152Y-112702274D01*
X154620151Y-112702275D01*
X154585787Y-112714299D01*
X154495522Y-112745884D01*
X154389290Y-112824287D01*
X154389287Y-112824290D01*
X154304644Y-112938979D01*
X154244343Y-112987068D01*
X154184759Y-112999500D01*
X153445912Y-112999500D01*
X153371412Y-112979538D01*
X153316874Y-112925000D01*
X153300600Y-112873939D01*
X153299582Y-112874162D01*
X153297646Y-112865304D01*
X153297646Y-112865301D01*
X153252793Y-112737118D01*
X153227077Y-112702274D01*
X153172151Y-112627851D01*
X153172148Y-112627848D01*
X153062883Y-112547207D01*
X152995102Y-112523490D01*
X152934699Y-112502354D01*
X152934697Y-112502353D01*
X152934695Y-112502353D01*
X152904275Y-112499500D01*
X152904266Y-112499500D01*
X151895734Y-112499500D01*
X151895724Y-112499500D01*
X151865304Y-112502353D01*
X151737116Y-112547207D01*
X151627851Y-112627848D01*
X151627848Y-112627851D01*
X151547207Y-112737116D01*
X151502353Y-112865304D01*
X151499500Y-112895724D01*
X150506499Y-112895724D01*
X150503646Y-112865301D01*
X150458793Y-112737118D01*
X150433077Y-112702274D01*
X150378151Y-112627851D01*
X150378148Y-112627848D01*
X150268883Y-112547207D01*
X150201102Y-112523490D01*
X150140699Y-112502354D01*
X150140697Y-112502353D01*
X150140695Y-112502353D01*
X150110275Y-112499500D01*
X150110266Y-112499500D01*
X149101734Y-112499500D01*
X149101724Y-112499500D01*
X149071304Y-112502353D01*
X148943116Y-112547207D01*
X148833851Y-112627848D01*
X148833848Y-112627851D01*
X148753207Y-112737116D01*
X148708353Y-112865304D01*
X148706418Y-112874162D01*
X148704938Y-112873838D01*
X148681608Y-112936720D01*
X148622217Y-112985929D01*
X148560088Y-112999500D01*
X144413500Y-112999500D01*
X144339000Y-112979538D01*
X144284462Y-112925000D01*
X144264500Y-112850500D01*
X144264500Y-112616741D01*
X144264499Y-112616731D01*
X144254573Y-112548606D01*
X144254573Y-112548605D01*
X144203199Y-112443518D01*
X144111753Y-112352072D01*
X144114051Y-112349773D01*
X144077886Y-112305859D01*
X144064500Y-112244134D01*
X144064500Y-111974442D01*
X144064500Y-111974438D01*
X144044021Y-111898011D01*
X144004460Y-111829489D01*
X143948511Y-111773540D01*
X143821511Y-111646540D01*
X143812066Y-111641087D01*
X143812064Y-111641085D01*
X143752990Y-111606979D01*
X143676562Y-111586500D01*
X143356899Y-111586500D01*
X143282399Y-111566538D01*
X143227861Y-111512000D01*
X143207899Y-111437500D01*
X143227861Y-111363000D01*
X143251540Y-111332141D01*
X143251706Y-111331975D01*
X143253198Y-111330483D01*
X143269547Y-111297041D01*
X143304573Y-111225394D01*
X143304573Y-111225393D01*
X143314499Y-111157268D01*
X143314500Y-111157258D01*
X143314500Y-111157214D01*
X144214001Y-111157214D01*
X144214002Y-111157230D01*
X144223912Y-111225250D01*
X144275212Y-111330187D01*
X144357812Y-111412787D01*
X144462749Y-111464087D01*
X144462753Y-111464088D01*
X144530777Y-111473999D01*
X144564000Y-111473998D01*
X144564000Y-110761500D01*
X144214001Y-110761500D01*
X144214001Y-111157214D01*
X143314500Y-111157214D01*
X143314500Y-110065772D01*
X144214000Y-110065772D01*
X144214000Y-110461500D01*
X144564000Y-110461500D01*
X144564000Y-109748999D01*
X144563999Y-109748999D01*
X144530778Y-109749000D01*
X144462749Y-109758912D01*
X144357812Y-109810212D01*
X144275212Y-109892812D01*
X144223912Y-109997749D01*
X144223911Y-109997753D01*
X144214000Y-110065772D01*
X143314500Y-110065772D01*
X143314500Y-110065741D01*
X143314499Y-110065731D01*
X143304573Y-109997606D01*
X143304573Y-109997605D01*
X143253199Y-109892518D01*
X143161753Y-109801072D01*
X143164051Y-109798773D01*
X143127886Y-109754859D01*
X143114500Y-109693134D01*
X143114500Y-109204899D01*
X143134462Y-109130399D01*
X143189000Y-109075861D01*
X143263500Y-109055899D01*
X143338000Y-109075861D01*
X143368859Y-109099540D01*
X143407518Y-109138199D01*
X143512605Y-109189573D01*
X143580731Y-109199499D01*
X143580737Y-109199499D01*
X143580740Y-109199500D01*
X143580741Y-109199500D01*
X143947259Y-109199500D01*
X143947260Y-109199500D01*
X143947263Y-109199499D01*
X143947268Y-109199499D01*
X144015393Y-109189573D01*
X144015394Y-109189573D01*
X144120481Y-109138199D01*
X144120481Y-109138198D01*
X144120483Y-109138198D01*
X144203198Y-109055483D01*
X144212291Y-109036883D01*
X144254573Y-108950394D01*
X144254573Y-108950393D01*
X144264499Y-108882268D01*
X144264500Y-108882258D01*
X144264500Y-108786000D01*
X144284462Y-108711500D01*
X144339000Y-108656962D01*
X144413500Y-108637000D01*
X145594311Y-108637000D01*
X145668811Y-108656962D01*
X145723349Y-108711500D01*
X145743311Y-108786000D01*
X145723349Y-108860500D01*
X145699670Y-108891359D01*
X145555540Y-109035488D01*
X145515979Y-109104011D01*
X145495500Y-109180437D01*
X145495500Y-109893968D01*
X145490422Y-109912917D01*
X145490422Y-109932536D01*
X145480614Y-109949521D01*
X145475538Y-109968468D01*
X145451858Y-109999327D01*
X145451856Y-109999330D01*
X145433522Y-110017663D01*
X145366726Y-110056225D01*
X145289598Y-110056223D01*
X145222804Y-110017657D01*
X145194306Y-109977741D01*
X145152787Y-109892812D01*
X145070187Y-109810212D01*
X144965250Y-109758912D01*
X144965246Y-109758911D01*
X144897227Y-109749000D01*
X144864000Y-109749000D01*
X144864000Y-111473999D01*
X144897214Y-111473999D01*
X144897230Y-111473997D01*
X144965250Y-111464087D01*
X145070187Y-111412787D01*
X145152787Y-111330187D01*
X145204087Y-111225250D01*
X145204088Y-111225246D01*
X145213999Y-111157227D01*
X145213999Y-110932106D01*
X147835500Y-110932106D01*
X147835500Y-110932108D01*
X147835500Y-111063892D01*
X147869608Y-111191186D01*
X147889358Y-111225394D01*
X147935497Y-111305310D01*
X147935498Y-111305311D01*
X147935500Y-111305314D01*
X148028686Y-111398500D01*
X148028688Y-111398501D01*
X148028689Y-111398502D01*
X148053432Y-111412787D01*
X148142814Y-111464392D01*
X148270108Y-111498500D01*
X148401892Y-111498500D01*
X148529186Y-111464392D01*
X148643314Y-111398500D01*
X148736500Y-111305314D01*
X148747776Y-111285782D01*
X148802313Y-111231244D01*
X148876813Y-111211281D01*
X148931932Y-111224950D01*
X148932578Y-111223105D01*
X148943118Y-111226793D01*
X149071301Y-111271646D01*
X149101734Y-111274500D01*
X149101741Y-111274500D01*
X150110259Y-111274500D01*
X150110266Y-111274500D01*
X150140699Y-111271646D01*
X150268882Y-111226793D01*
X150378150Y-111146150D01*
X150458793Y-111036882D01*
X150503646Y-110908699D01*
X150503646Y-110908691D01*
X150505582Y-110899838D01*
X150507061Y-110900161D01*
X150530392Y-110837280D01*
X150589783Y-110788071D01*
X150651912Y-110774500D01*
X151354088Y-110774500D01*
X151428588Y-110794462D01*
X151483126Y-110849000D01*
X151499399Y-110900060D01*
X151500418Y-110899838D01*
X151502353Y-110908695D01*
X151502353Y-110908697D01*
X151502354Y-110908699D01*
X151516704Y-110949709D01*
X151547207Y-111036883D01*
X151627848Y-111146148D01*
X151627851Y-111146151D01*
X151737116Y-111226792D01*
X151737117Y-111226792D01*
X151737118Y-111226793D01*
X151865301Y-111271646D01*
X151895734Y-111274500D01*
X151895741Y-111274500D01*
X152904259Y-111274500D01*
X152904266Y-111274500D01*
X152934699Y-111271646D01*
X153062882Y-111226793D01*
X153172150Y-111146150D01*
X153252793Y-111036882D01*
X153292715Y-110922789D01*
X153336161Y-110859065D01*
X153405651Y-110825600D01*
X153471918Y-110828079D01*
X153476810Y-110829389D01*
X153476814Y-110829392D01*
X153604108Y-110863500D01*
X153735892Y-110863500D01*
X153863186Y-110829392D01*
X153977314Y-110763500D01*
X154036012Y-110704801D01*
X154102803Y-110666239D01*
X154179931Y-110666239D01*
X154246726Y-110704802D01*
X154282006Y-110760950D01*
X154310882Y-110843473D01*
X154310883Y-110843475D01*
X154389287Y-110949709D01*
X154389290Y-110949712D01*
X154495522Y-111028115D01*
X154495525Y-111028116D01*
X154620151Y-111071725D01*
X154649744Y-111074500D01*
X154649752Y-111074500D01*
X155230248Y-111074500D01*
X155230256Y-111074500D01*
X155259849Y-111071725D01*
X155384475Y-111028116D01*
X155384475Y-111028115D01*
X155384477Y-111028115D01*
X155482291Y-110955925D01*
X155490711Y-110949711D01*
X155543439Y-110878266D01*
X155569115Y-110843477D01*
X155569116Y-110843475D01*
X155612725Y-110718849D01*
X155615500Y-110689256D01*
X155615500Y-110008744D01*
X155612725Y-109979151D01*
X155569116Y-109854525D01*
X155569115Y-109854523D01*
X155569115Y-109854522D01*
X155490712Y-109748290D01*
X155490709Y-109748287D01*
X155384477Y-109669884D01*
X155324299Y-109648827D01*
X155259849Y-109626275D01*
X155259846Y-109626274D01*
X155259844Y-109626274D01*
X155230264Y-109623500D01*
X155230256Y-109623500D01*
X154649744Y-109623500D01*
X154649735Y-109623500D01*
X154620155Y-109626274D01*
X154620152Y-109626274D01*
X154620151Y-109626275D01*
X154585787Y-109638299D01*
X154495522Y-109669884D01*
X154389290Y-109748287D01*
X154389287Y-109748290D01*
X154310884Y-109854523D01*
X154297082Y-109893968D01*
X154280339Y-109941819D01*
X154277927Y-109948711D01*
X154269978Y-109960369D01*
X154266326Y-109974000D01*
X154248600Y-109991725D01*
X154234479Y-110012438D01*
X154221765Y-110018560D01*
X154211788Y-110028538D01*
X154187573Y-110035026D01*
X154164989Y-110045902D01*
X154137288Y-110048500D01*
X154125032Y-110048500D01*
X154050532Y-110028538D01*
X154019674Y-110004860D01*
X154000538Y-109985724D01*
X153977314Y-109962500D01*
X153977311Y-109962498D01*
X153977310Y-109962497D01*
X153888318Y-109911118D01*
X153863186Y-109896608D01*
X153735892Y-109862500D01*
X153604108Y-109862500D01*
X153476814Y-109896608D01*
X153476813Y-109896608D01*
X153476811Y-109896609D01*
X153427532Y-109925060D01*
X153353032Y-109945021D01*
X153278532Y-109925058D01*
X153233149Y-109884500D01*
X153172151Y-109801851D01*
X153172148Y-109801848D01*
X153062883Y-109721207D01*
X152990667Y-109695938D01*
X152934699Y-109676354D01*
X152934697Y-109676353D01*
X152934695Y-109676353D01*
X152904275Y-109673500D01*
X152904266Y-109673500D01*
X151895734Y-109673500D01*
X151895724Y-109673500D01*
X151865304Y-109676353D01*
X151737116Y-109721207D01*
X151627851Y-109801848D01*
X151627848Y-109801851D01*
X151547207Y-109911116D01*
X151502353Y-110039304D01*
X151500418Y-110048162D01*
X151498938Y-110047838D01*
X151475608Y-110110720D01*
X151416217Y-110159929D01*
X151354088Y-110173500D01*
X150651912Y-110173500D01*
X150577412Y-110153538D01*
X150522874Y-110099000D01*
X150506600Y-110047939D01*
X150505582Y-110048162D01*
X150503646Y-110039304D01*
X150503646Y-110039303D01*
X150503646Y-110039301D01*
X150458793Y-109911118D01*
X150448084Y-109896608D01*
X150378151Y-109801851D01*
X150378148Y-109801848D01*
X150268883Y-109721207D01*
X150196667Y-109695938D01*
X150140699Y-109676354D01*
X150140697Y-109676353D01*
X150140695Y-109676353D01*
X150110275Y-109673500D01*
X150110266Y-109673500D01*
X149101734Y-109673500D01*
X149101724Y-109673500D01*
X149071304Y-109676353D01*
X148943116Y-109721207D01*
X148833851Y-109801848D01*
X148833848Y-109801851D01*
X148753207Y-109911116D01*
X148708353Y-110039303D01*
X148705336Y-110071476D01*
X148678505Y-110143787D01*
X148624935Y-110188170D01*
X148625469Y-110189095D01*
X148620026Y-110192237D01*
X148619113Y-110192994D01*
X148617486Y-110193703D01*
X148548492Y-110233537D01*
X148548486Y-110233542D01*
X148318037Y-110463990D01*
X148251244Y-110502554D01*
X148142812Y-110531608D01*
X148028689Y-110597497D01*
X147935497Y-110690689D01*
X147874941Y-110795577D01*
X147869608Y-110804814D01*
X147857769Y-110849000D01*
X147835500Y-110932106D01*
X145213999Y-110932106D01*
X145213999Y-110848530D01*
X145233961Y-110774030D01*
X145288499Y-110719492D01*
X145362999Y-110699530D01*
X145437499Y-110719492D01*
X145468353Y-110743167D01*
X145488686Y-110763500D01*
X145488688Y-110763501D01*
X145488689Y-110763502D01*
X145516157Y-110779360D01*
X145602814Y-110829392D01*
X145730108Y-110863500D01*
X145861892Y-110863500D01*
X145989186Y-110829392D01*
X146103314Y-110763500D01*
X146173297Y-110693516D01*
X146240088Y-110654954D01*
X146317216Y-110654954D01*
X146384011Y-110693517D01*
X146413694Y-110735910D01*
X146416666Y-110742284D01*
X146416670Y-110742290D01*
X146497709Y-110823329D01*
X146497714Y-110823333D01*
X146601583Y-110871767D01*
X146601587Y-110871768D01*
X146648912Y-110877999D01*
X146962000Y-110877999D01*
X146975081Y-110877999D01*
X146975082Y-110877998D01*
X147022414Y-110871768D01*
X147126285Y-110823333D01*
X147126290Y-110823329D01*
X147132637Y-110816983D01*
X147207329Y-110742290D01*
X147207333Y-110742285D01*
X147255767Y-110638416D01*
X147255769Y-110638412D01*
X147261999Y-110591087D01*
X147262000Y-110591085D01*
X147262000Y-110528000D01*
X146962000Y-110528000D01*
X146962000Y-110877999D01*
X146648912Y-110877999D01*
X146661999Y-110877998D01*
X146662000Y-110877998D01*
X146662000Y-110228000D01*
X146962000Y-110228000D01*
X147261999Y-110228000D01*
X147261999Y-110164918D01*
X147261998Y-110164917D01*
X147255768Y-110117585D01*
X147207333Y-110013714D01*
X147207329Y-110013709D01*
X147126290Y-109932670D01*
X147126285Y-109932666D01*
X147022416Y-109884232D01*
X147022412Y-109884230D01*
X146975087Y-109878000D01*
X146962000Y-109878000D01*
X146962000Y-110228000D01*
X146662000Y-110228000D01*
X146662000Y-109878000D01*
X146661999Y-109877999D01*
X146648923Y-109878000D01*
X146648914Y-109878001D01*
X146601585Y-109884231D01*
X146497714Y-109932666D01*
X146497709Y-109932670D01*
X146416665Y-110013714D01*
X146410557Y-110022438D01*
X146400457Y-110030912D01*
X146393864Y-110042332D01*
X146371367Y-110055320D01*
X146351472Y-110072014D01*
X146338488Y-110074303D01*
X146327069Y-110080896D01*
X146301096Y-110080896D01*
X146275516Y-110085406D01*
X146263126Y-110080896D01*
X146249941Y-110080896D01*
X146227446Y-110067908D01*
X146203040Y-110059025D01*
X146183146Y-110042332D01*
X146140141Y-109999327D01*
X146101577Y-109932532D01*
X146096500Y-109893968D01*
X146096500Y-109727499D01*
X146116462Y-109652999D01*
X146171000Y-109598461D01*
X146245497Y-109578499D01*
X146475138Y-109578499D01*
X146522545Y-109572259D01*
X146626579Y-109523747D01*
X146706641Y-109443685D01*
X146773436Y-109405121D01*
X146850564Y-109405121D01*
X146917359Y-109443685D01*
X146997421Y-109523747D01*
X147101452Y-109572258D01*
X147101453Y-109572258D01*
X147101455Y-109572259D01*
X147148861Y-109578500D01*
X147475138Y-109578499D01*
X147522545Y-109572259D01*
X147626579Y-109523747D01*
X147707747Y-109442579D01*
X147756259Y-109338545D01*
X147762500Y-109291139D01*
X147762499Y-108864862D01*
X147756259Y-108817455D01*
X147756258Y-108817454D01*
X147754771Y-108806151D01*
X147758760Y-108805625D01*
X147757564Y-108750571D01*
X147794668Y-108682954D01*
X147860610Y-108642949D01*
X147902291Y-108637000D01*
X148556500Y-108637000D01*
X148631000Y-108656962D01*
X148685538Y-108711500D01*
X148705500Y-108786000D01*
X148705500Y-108878275D01*
X148708353Y-108908695D01*
X148708353Y-108908697D01*
X148708354Y-108908699D01*
X148727081Y-108962219D01*
X148753207Y-109036883D01*
X148833848Y-109146148D01*
X148833851Y-109146151D01*
X148943116Y-109226792D01*
X148943117Y-109226792D01*
X148943118Y-109226793D01*
X149071301Y-109271646D01*
X149101734Y-109274500D01*
X149101741Y-109274500D01*
X150110259Y-109274500D01*
X150110266Y-109274500D01*
X150140699Y-109271646D01*
X150268882Y-109226793D01*
X150378150Y-109146150D01*
X150458793Y-109036882D01*
X150503646Y-108908699D01*
X150506500Y-108878266D01*
X150506500Y-108069734D01*
X150506499Y-108069724D01*
X151499500Y-108069724D01*
X151499500Y-108878275D01*
X151502353Y-108908695D01*
X151502353Y-108908697D01*
X151502354Y-108908699D01*
X151521081Y-108962219D01*
X151547207Y-109036883D01*
X151627848Y-109146148D01*
X151627851Y-109146151D01*
X151737116Y-109226792D01*
X151737117Y-109226792D01*
X151737118Y-109226793D01*
X151865301Y-109271646D01*
X151895734Y-109274500D01*
X151895741Y-109274500D01*
X152904259Y-109274500D01*
X152904266Y-109274500D01*
X152934699Y-109271646D01*
X153062882Y-109226793D01*
X153172150Y-109146150D01*
X153252793Y-109036882D01*
X153265947Y-108999290D01*
X153309394Y-108935563D01*
X153378884Y-108902098D01*
X153406586Y-108899500D01*
X154137288Y-108899500D01*
X154211788Y-108919462D01*
X154266326Y-108974000D01*
X154277925Y-108999284D01*
X154296766Y-109053128D01*
X154310884Y-109093476D01*
X154389287Y-109199709D01*
X154389290Y-109199712D01*
X154495522Y-109278115D01*
X154495525Y-109278116D01*
X154620151Y-109321725D01*
X154649744Y-109324500D01*
X154649752Y-109324500D01*
X155230248Y-109324500D01*
X155230256Y-109324500D01*
X155259849Y-109321725D01*
X155384475Y-109278116D01*
X155384475Y-109278115D01*
X155384477Y-109278115D01*
X155454017Y-109226792D01*
X155490711Y-109199711D01*
X155534138Y-109140869D01*
X155569115Y-109093477D01*
X155569116Y-109093475D01*
X155612725Y-108968849D01*
X155615500Y-108939256D01*
X155615500Y-108258744D01*
X155612725Y-108229151D01*
X155569116Y-108104525D01*
X155569115Y-108104523D01*
X155569115Y-108104522D01*
X155490712Y-107998290D01*
X155490709Y-107998287D01*
X155384477Y-107919884D01*
X155324299Y-107898827D01*
X155259849Y-107876275D01*
X155259846Y-107876274D01*
X155259844Y-107876274D01*
X155230264Y-107873500D01*
X155230256Y-107873500D01*
X154649744Y-107873500D01*
X154649735Y-107873500D01*
X154620155Y-107876274D01*
X154620152Y-107876274D01*
X154620151Y-107876275D01*
X154599395Y-107883538D01*
X154495522Y-107919884D01*
X154389290Y-107998287D01*
X154389287Y-107998290D01*
X154310884Y-108104523D01*
X154277927Y-108198711D01*
X154234479Y-108262438D01*
X154164989Y-108295902D01*
X154137288Y-108298500D01*
X153449500Y-108298500D01*
X153375000Y-108278538D01*
X153320462Y-108224000D01*
X153300500Y-108149500D01*
X153300500Y-108069741D01*
X153300499Y-108069724D01*
X153297646Y-108039304D01*
X153297646Y-108039301D01*
X153252793Y-107911118D01*
X153234993Y-107887000D01*
X153172151Y-107801851D01*
X153172148Y-107801848D01*
X153062883Y-107721207D01*
X152962860Y-107686208D01*
X152934699Y-107676354D01*
X152934697Y-107676353D01*
X152934695Y-107676353D01*
X152904275Y-107673500D01*
X152904266Y-107673500D01*
X151895734Y-107673500D01*
X151895724Y-107673500D01*
X151865304Y-107676353D01*
X151737116Y-107721207D01*
X151627851Y-107801848D01*
X151627848Y-107801851D01*
X151547207Y-107911116D01*
X151502353Y-108039304D01*
X151499500Y-108069724D01*
X150506499Y-108069724D01*
X150503646Y-108039301D01*
X150458793Y-107911118D01*
X150440993Y-107887000D01*
X150378151Y-107801851D01*
X150378148Y-107801848D01*
X150268883Y-107721207D01*
X150168860Y-107686208D01*
X150140699Y-107676354D01*
X150140697Y-107676353D01*
X150140695Y-107676353D01*
X150110275Y-107673500D01*
X150110266Y-107673500D01*
X149101734Y-107673500D01*
X149101724Y-107673500D01*
X149071304Y-107676353D01*
X148943116Y-107721207D01*
X148833851Y-107801848D01*
X148833848Y-107801851D01*
X148753206Y-107911117D01*
X148744427Y-107936210D01*
X148700980Y-107999937D01*
X148631491Y-108033402D01*
X148603788Y-108036000D01*
X144413500Y-108036000D01*
X144339000Y-108016038D01*
X144284462Y-107961500D01*
X144264500Y-107887000D01*
X144264500Y-107790741D01*
X144264499Y-107790731D01*
X144254573Y-107722606D01*
X144254573Y-107722605D01*
X144203199Y-107617518D01*
X144111753Y-107526072D01*
X144114051Y-107523773D01*
X144077886Y-107479859D01*
X144064500Y-107418134D01*
X144064500Y-107275442D01*
X144064500Y-107275438D01*
X144044021Y-107199011D01*
X144004460Y-107130489D01*
X143948511Y-107074540D01*
X143821511Y-106947540D01*
X143808226Y-106939870D01*
X143752989Y-106907979D01*
X143676562Y-106887500D01*
X143200246Y-106887500D01*
X143125746Y-106867538D01*
X143071208Y-106813000D01*
X143051246Y-106738500D01*
X143071208Y-106664000D01*
X143125746Y-106609462D01*
X143134806Y-106604640D01*
X143170481Y-106587199D01*
X143170481Y-106587198D01*
X143170483Y-106587198D01*
X143253198Y-106504483D01*
X143253673Y-106503511D01*
X143304573Y-106399394D01*
X143304573Y-106399393D01*
X143314499Y-106331268D01*
X143314500Y-106331258D01*
X143314500Y-106331214D01*
X144214001Y-106331214D01*
X144214002Y-106331230D01*
X144223912Y-106399250D01*
X144275212Y-106504187D01*
X144357812Y-106586787D01*
X144462749Y-106638087D01*
X144462753Y-106638088D01*
X144530777Y-106647999D01*
X144564000Y-106647998D01*
X144564000Y-105935500D01*
X144214001Y-105935500D01*
X144214001Y-106331214D01*
X143314500Y-106331214D01*
X143314500Y-105239772D01*
X144214000Y-105239772D01*
X144214000Y-105635500D01*
X144564000Y-105635500D01*
X144564000Y-104922999D01*
X144563999Y-104922999D01*
X144530778Y-104923000D01*
X144462749Y-104932912D01*
X144357812Y-104984212D01*
X144275212Y-105066812D01*
X144223912Y-105171749D01*
X144223911Y-105171753D01*
X144214000Y-105239772D01*
X143314500Y-105239772D01*
X143314500Y-105239741D01*
X143314499Y-105239731D01*
X143304573Y-105171606D01*
X143304573Y-105171605D01*
X143253199Y-105066518D01*
X143161753Y-104975072D01*
X143164051Y-104972773D01*
X143127886Y-104928859D01*
X143114500Y-104867134D01*
X143114500Y-104378899D01*
X143134462Y-104304399D01*
X143189000Y-104249861D01*
X143263500Y-104229899D01*
X143338000Y-104249861D01*
X143368859Y-104273540D01*
X143407518Y-104312199D01*
X143512605Y-104363573D01*
X143580731Y-104373499D01*
X143580737Y-104373499D01*
X143580740Y-104373500D01*
X143580741Y-104373500D01*
X143947259Y-104373500D01*
X143947260Y-104373500D01*
X143947263Y-104373499D01*
X143947268Y-104373499D01*
X144015393Y-104363573D01*
X144015394Y-104363573D01*
X144120481Y-104312199D01*
X144120481Y-104312198D01*
X144120483Y-104312198D01*
X144203198Y-104229483D01*
X144212291Y-104210883D01*
X144254573Y-104124394D01*
X144254573Y-104124393D01*
X144264499Y-104056268D01*
X144264500Y-104056258D01*
X144264500Y-103960000D01*
X144284462Y-103885500D01*
X144339000Y-103830962D01*
X144413500Y-103811000D01*
X145594311Y-103811000D01*
X145668811Y-103830962D01*
X145723349Y-103885500D01*
X145743311Y-103960000D01*
X145723349Y-104034500D01*
X145699670Y-104065359D01*
X145555540Y-104209488D01*
X145515979Y-104278011D01*
X145495500Y-104354437D01*
X145495500Y-105067968D01*
X145490422Y-105086917D01*
X145490422Y-105106536D01*
X145480614Y-105123521D01*
X145475538Y-105142468D01*
X145451858Y-105173327D01*
X145451856Y-105173330D01*
X145433522Y-105191663D01*
X145366726Y-105230225D01*
X145289598Y-105230223D01*
X145222804Y-105191657D01*
X145194306Y-105151741D01*
X145152787Y-105066812D01*
X145070187Y-104984212D01*
X144965250Y-104932912D01*
X144965246Y-104932911D01*
X144897227Y-104923000D01*
X144864000Y-104923000D01*
X144864000Y-106647999D01*
X144897214Y-106647999D01*
X144897230Y-106647997D01*
X144965250Y-106638087D01*
X145070187Y-106586787D01*
X145152787Y-106504187D01*
X145204087Y-106399250D01*
X145204088Y-106399246D01*
X145213999Y-106331227D01*
X145213999Y-106071106D01*
X147835500Y-106071106D01*
X147835500Y-106202893D01*
X147844639Y-106237001D01*
X147869608Y-106330186D01*
X147875818Y-106340942D01*
X147935497Y-106444310D01*
X147935498Y-106444311D01*
X147935500Y-106444314D01*
X148028686Y-106537500D01*
X148142814Y-106603392D01*
X148270108Y-106637500D01*
X148401892Y-106637500D01*
X148529186Y-106603392D01*
X148643314Y-106537500D01*
X148736500Y-106444314D01*
X148736503Y-106444307D01*
X148742450Y-106436560D01*
X148745142Y-106438626D01*
X148786938Y-106396774D01*
X148861424Y-106376761D01*
X148933071Y-106395906D01*
X148933246Y-106395576D01*
X148934687Y-106396337D01*
X148935938Y-106396672D01*
X148938535Y-106398371D01*
X148943115Y-106400792D01*
X148943118Y-106400793D01*
X149071301Y-106445646D01*
X149101734Y-106448500D01*
X149101741Y-106448500D01*
X150110259Y-106448500D01*
X150110266Y-106448500D01*
X150140699Y-106445646D01*
X150268882Y-106400793D01*
X150378150Y-106320150D01*
X150458793Y-106210882D01*
X150503646Y-106082699D01*
X150503646Y-106082691D01*
X150505582Y-106073838D01*
X150507061Y-106074161D01*
X150530392Y-106011280D01*
X150589783Y-105962071D01*
X150651912Y-105948500D01*
X151354088Y-105948500D01*
X151428588Y-105968462D01*
X151483126Y-106023000D01*
X151499399Y-106074060D01*
X151500418Y-106073838D01*
X151502353Y-106082695D01*
X151502353Y-106082697D01*
X151502354Y-106082699D01*
X151522522Y-106140335D01*
X151547207Y-106210883D01*
X151627848Y-106320148D01*
X151627851Y-106320151D01*
X151737116Y-106400792D01*
X151737117Y-106400792D01*
X151737118Y-106400793D01*
X151865301Y-106445646D01*
X151895734Y-106448500D01*
X151895741Y-106448500D01*
X152904259Y-106448500D01*
X152904266Y-106448500D01*
X152934699Y-106445646D01*
X153062882Y-106400793D01*
X153172150Y-106320150D01*
X153252793Y-106210882D01*
X153292715Y-106096789D01*
X153336161Y-106033065D01*
X153405651Y-105999600D01*
X153471918Y-106002079D01*
X153476810Y-106003389D01*
X153476814Y-106003392D01*
X153604108Y-106037500D01*
X153735892Y-106037500D01*
X153863186Y-106003392D01*
X153977314Y-105937500D01*
X154036012Y-105878801D01*
X154102803Y-105840239D01*
X154179931Y-105840239D01*
X154246726Y-105878802D01*
X154282006Y-105934950D01*
X154310882Y-106017473D01*
X154310883Y-106017475D01*
X154389287Y-106123709D01*
X154389290Y-106123712D01*
X154495522Y-106202115D01*
X154499800Y-106203612D01*
X154620151Y-106245725D01*
X154649744Y-106248500D01*
X154649752Y-106248500D01*
X155230248Y-106248500D01*
X155230256Y-106248500D01*
X155259849Y-106245725D01*
X155384475Y-106202116D01*
X155384475Y-106202115D01*
X155384477Y-106202115D01*
X155448200Y-106155085D01*
X155490711Y-106123711D01*
X155543439Y-106052266D01*
X155569115Y-106017477D01*
X155569116Y-106017475D01*
X155612725Y-105892849D01*
X155615500Y-105863256D01*
X155615500Y-105182744D01*
X155612725Y-105153151D01*
X155569116Y-105028525D01*
X155569115Y-105028523D01*
X155569115Y-105028522D01*
X155490712Y-104922290D01*
X155490709Y-104922287D01*
X155384477Y-104843884D01*
X155324299Y-104822827D01*
X155259849Y-104800275D01*
X155259846Y-104800274D01*
X155259844Y-104800274D01*
X155230264Y-104797500D01*
X155230256Y-104797500D01*
X154649744Y-104797500D01*
X154649735Y-104797500D01*
X154620155Y-104800274D01*
X154620152Y-104800274D01*
X154620151Y-104800275D01*
X154585787Y-104812299D01*
X154495522Y-104843884D01*
X154389290Y-104922287D01*
X154389287Y-104922290D01*
X154310884Y-105028523D01*
X154297082Y-105067968D01*
X154279092Y-105119382D01*
X154277927Y-105122711D01*
X154269978Y-105134369D01*
X154266326Y-105148000D01*
X154248600Y-105165725D01*
X154234479Y-105186438D01*
X154221765Y-105192560D01*
X154211788Y-105202538D01*
X154187573Y-105209026D01*
X154164989Y-105219902D01*
X154137288Y-105222500D01*
X154125032Y-105222500D01*
X154050532Y-105202538D01*
X154019674Y-105178860D01*
X154000548Y-105159734D01*
X153977314Y-105136500D01*
X153977311Y-105136498D01*
X153977310Y-105136497D01*
X153888318Y-105085118D01*
X153863186Y-105070608D01*
X153735892Y-105036500D01*
X153604108Y-105036500D01*
X153476814Y-105070608D01*
X153476813Y-105070608D01*
X153476811Y-105070609D01*
X153427532Y-105099060D01*
X153353032Y-105119021D01*
X153278532Y-105099058D01*
X153233149Y-105058500D01*
X153172151Y-104975851D01*
X153172148Y-104975848D01*
X153062883Y-104895207D01*
X153003042Y-104874268D01*
X152934699Y-104850354D01*
X152934697Y-104850353D01*
X152934695Y-104850353D01*
X152904275Y-104847500D01*
X152904266Y-104847500D01*
X151895734Y-104847500D01*
X151895724Y-104847500D01*
X151865304Y-104850353D01*
X151737116Y-104895207D01*
X151627851Y-104975848D01*
X151627848Y-104975851D01*
X151547207Y-105085116D01*
X151502353Y-105213304D01*
X151500418Y-105222162D01*
X151498938Y-105221838D01*
X151475608Y-105284720D01*
X151416217Y-105333929D01*
X151354088Y-105347500D01*
X150651912Y-105347500D01*
X150577412Y-105327538D01*
X150522874Y-105273000D01*
X150506600Y-105221939D01*
X150505582Y-105222162D01*
X150503646Y-105213304D01*
X150503646Y-105213303D01*
X150503646Y-105213301D01*
X150458793Y-105085118D01*
X150456308Y-105081751D01*
X150378151Y-104975851D01*
X150378148Y-104975848D01*
X150268883Y-104895207D01*
X150209042Y-104874268D01*
X150140699Y-104850354D01*
X150140697Y-104850353D01*
X150140695Y-104850353D01*
X150110275Y-104847500D01*
X150110266Y-104847500D01*
X149101734Y-104847500D01*
X149101724Y-104847500D01*
X149071304Y-104850353D01*
X148943116Y-104895207D01*
X148833851Y-104975848D01*
X148833848Y-104975851D01*
X148753207Y-105085116D01*
X148708353Y-105213303D01*
X148705336Y-105245476D01*
X148678505Y-105317787D01*
X148624935Y-105362170D01*
X148625469Y-105363095D01*
X148620026Y-105366237D01*
X148619113Y-105366994D01*
X148617486Y-105367703D01*
X148548492Y-105407537D01*
X148548486Y-105407542D01*
X148362785Y-105593242D01*
X148295990Y-105631806D01*
X148276878Y-105635608D01*
X148270111Y-105636498D01*
X148178396Y-105661073D01*
X148142814Y-105670608D01*
X148142812Y-105670608D01*
X148142812Y-105670609D01*
X148028689Y-105736497D01*
X147935497Y-105829689D01*
X147874465Y-105935401D01*
X147869608Y-105943814D01*
X147863573Y-105966338D01*
X147835500Y-106071106D01*
X145213999Y-106071106D01*
X145213999Y-106022530D01*
X145233961Y-105948030D01*
X145288499Y-105893492D01*
X145362999Y-105873530D01*
X145437499Y-105893492D01*
X145468353Y-105917167D01*
X145488686Y-105937500D01*
X145488688Y-105937501D01*
X145488689Y-105937502D01*
X145516157Y-105953360D01*
X145602814Y-106003392D01*
X145730108Y-106037500D01*
X145861892Y-106037500D01*
X145989186Y-106003392D01*
X146103314Y-105937500D01*
X146173297Y-105867516D01*
X146240088Y-105828954D01*
X146317216Y-105828954D01*
X146384011Y-105867517D01*
X146413694Y-105909910D01*
X146416666Y-105916284D01*
X146416670Y-105916290D01*
X146497709Y-105997329D01*
X146497714Y-105997333D01*
X146601583Y-106045767D01*
X146601587Y-106045768D01*
X146648912Y-106051999D01*
X146962000Y-106051999D01*
X146975081Y-106051999D01*
X146975082Y-106051998D01*
X147022414Y-106045768D01*
X147126285Y-105997333D01*
X147126290Y-105997329D01*
X147167637Y-105955983D01*
X147207329Y-105916290D01*
X147207333Y-105916285D01*
X147255767Y-105812416D01*
X147255769Y-105812412D01*
X147261999Y-105765087D01*
X147262000Y-105765085D01*
X147262000Y-105702000D01*
X146962000Y-105702000D01*
X146962000Y-106051999D01*
X146648912Y-106051999D01*
X146661999Y-106051998D01*
X146662000Y-106051998D01*
X146662000Y-105402000D01*
X146962000Y-105402000D01*
X147261999Y-105402000D01*
X147261999Y-105338918D01*
X147261998Y-105338917D01*
X147255768Y-105291585D01*
X147207333Y-105187714D01*
X147207329Y-105187709D01*
X147126290Y-105106670D01*
X147126285Y-105106666D01*
X147022416Y-105058232D01*
X147022412Y-105058230D01*
X146975087Y-105052000D01*
X146962000Y-105052000D01*
X146962000Y-105402000D01*
X146662000Y-105402000D01*
X146662000Y-105052000D01*
X146661999Y-105051999D01*
X146648923Y-105052000D01*
X146648914Y-105052001D01*
X146601585Y-105058231D01*
X146497714Y-105106666D01*
X146497709Y-105106670D01*
X146416665Y-105187714D01*
X146410557Y-105196438D01*
X146400457Y-105204912D01*
X146393864Y-105216332D01*
X146371367Y-105229320D01*
X146351472Y-105246014D01*
X146338488Y-105248303D01*
X146327069Y-105254896D01*
X146301096Y-105254896D01*
X146275516Y-105259406D01*
X146263126Y-105254896D01*
X146249941Y-105254896D01*
X146227446Y-105241908D01*
X146203040Y-105233025D01*
X146183146Y-105216332D01*
X146140141Y-105173327D01*
X146101577Y-105106532D01*
X146096500Y-105067968D01*
X146096500Y-104901499D01*
X146116462Y-104826999D01*
X146171000Y-104772461D01*
X146245497Y-104752499D01*
X146475138Y-104752499D01*
X146522545Y-104746259D01*
X146626579Y-104697747D01*
X146706641Y-104617685D01*
X146773436Y-104579121D01*
X146850564Y-104579121D01*
X146917359Y-104617685D01*
X146997421Y-104697747D01*
X147101452Y-104746258D01*
X147101453Y-104746258D01*
X147101455Y-104746259D01*
X147148861Y-104752500D01*
X147475138Y-104752499D01*
X147522545Y-104746259D01*
X147626579Y-104697747D01*
X147707747Y-104616579D01*
X147756259Y-104512545D01*
X147762500Y-104465139D01*
X147762499Y-104038862D01*
X147756259Y-103991455D01*
X147756258Y-103991454D01*
X147754771Y-103980151D01*
X147758760Y-103979625D01*
X147757564Y-103924571D01*
X147794668Y-103856954D01*
X147860610Y-103816949D01*
X147902291Y-103811000D01*
X148556500Y-103811000D01*
X148631000Y-103830962D01*
X148685538Y-103885500D01*
X148705500Y-103960000D01*
X148705500Y-104052275D01*
X148708353Y-104082695D01*
X148708353Y-104082697D01*
X148708354Y-104082699D01*
X148720515Y-104117453D01*
X148753207Y-104210883D01*
X148833848Y-104320148D01*
X148833851Y-104320151D01*
X148943116Y-104400792D01*
X148943117Y-104400792D01*
X148943118Y-104400793D01*
X149071301Y-104445646D01*
X149101734Y-104448500D01*
X149101741Y-104448500D01*
X150110259Y-104448500D01*
X150110266Y-104448500D01*
X150140699Y-104445646D01*
X150268882Y-104400793D01*
X150378150Y-104320150D01*
X150458793Y-104210882D01*
X150503646Y-104082699D01*
X150506500Y-104052266D01*
X150506500Y-103243734D01*
X150506499Y-103243724D01*
X151499500Y-103243724D01*
X151499500Y-104052275D01*
X151502353Y-104082695D01*
X151502353Y-104082697D01*
X151502354Y-104082699D01*
X151514515Y-104117453D01*
X151547207Y-104210883D01*
X151627848Y-104320148D01*
X151627851Y-104320151D01*
X151737116Y-104400792D01*
X151737117Y-104400792D01*
X151737118Y-104400793D01*
X151865301Y-104445646D01*
X151895734Y-104448500D01*
X151895741Y-104448500D01*
X152904259Y-104448500D01*
X152904266Y-104448500D01*
X152934699Y-104445646D01*
X153062882Y-104400793D01*
X153172150Y-104320150D01*
X153252793Y-104210882D01*
X153265947Y-104173290D01*
X153309394Y-104109563D01*
X153378884Y-104076098D01*
X153406586Y-104073500D01*
X154137288Y-104073500D01*
X154211788Y-104093462D01*
X154266326Y-104148000D01*
X154277925Y-104173284D01*
X154291997Y-104213500D01*
X154310884Y-104267476D01*
X154389287Y-104373709D01*
X154389290Y-104373712D01*
X154495522Y-104452115D01*
X154495525Y-104452116D01*
X154620151Y-104495725D01*
X154649744Y-104498500D01*
X154649752Y-104498500D01*
X155230248Y-104498500D01*
X155230256Y-104498500D01*
X155259849Y-104495725D01*
X155384475Y-104452116D01*
X155384475Y-104452115D01*
X155384477Y-104452115D01*
X155483681Y-104378899D01*
X155490711Y-104373711D01*
X155530242Y-104320148D01*
X155569115Y-104267477D01*
X155578310Y-104241199D01*
X155612725Y-104142849D01*
X155615500Y-104113256D01*
X155615500Y-103432744D01*
X155612725Y-103403151D01*
X155569116Y-103278525D01*
X155569115Y-103278523D01*
X155569115Y-103278522D01*
X155490712Y-103172290D01*
X155490709Y-103172287D01*
X155384477Y-103093884D01*
X155324299Y-103072827D01*
X155259849Y-103050275D01*
X155259846Y-103050274D01*
X155259844Y-103050274D01*
X155230264Y-103047500D01*
X155230256Y-103047500D01*
X154649744Y-103047500D01*
X154649735Y-103047500D01*
X154620155Y-103050274D01*
X154620152Y-103050274D01*
X154620151Y-103050275D01*
X154589501Y-103061000D01*
X154495522Y-103093884D01*
X154389290Y-103172287D01*
X154389287Y-103172290D01*
X154310884Y-103278523D01*
X154305129Y-103294971D01*
X154279717Y-103367596D01*
X154277927Y-103372711D01*
X154234479Y-103436438D01*
X154164989Y-103469902D01*
X154137288Y-103472500D01*
X153449500Y-103472500D01*
X153375000Y-103452538D01*
X153320462Y-103398000D01*
X153300500Y-103323500D01*
X153300500Y-103243741D01*
X153300499Y-103243724D01*
X153297646Y-103213304D01*
X153297646Y-103213301D01*
X153252793Y-103085118D01*
X153236390Y-103062893D01*
X153172151Y-102975851D01*
X153172148Y-102975848D01*
X153062883Y-102895207D01*
X152962860Y-102860208D01*
X152934699Y-102850354D01*
X152934697Y-102850353D01*
X152934695Y-102850353D01*
X152904275Y-102847500D01*
X152904266Y-102847500D01*
X151895734Y-102847500D01*
X151895724Y-102847500D01*
X151865304Y-102850353D01*
X151737116Y-102895207D01*
X151627851Y-102975848D01*
X151627848Y-102975851D01*
X151547207Y-103085116D01*
X151502353Y-103213304D01*
X151499500Y-103243724D01*
X150506499Y-103243724D01*
X150503646Y-103213301D01*
X150458793Y-103085118D01*
X150442390Y-103062893D01*
X150378151Y-102975851D01*
X150378148Y-102975848D01*
X150268883Y-102895207D01*
X150168860Y-102860208D01*
X150140699Y-102850354D01*
X150140697Y-102850353D01*
X150140695Y-102850353D01*
X150110275Y-102847500D01*
X150110266Y-102847500D01*
X149101734Y-102847500D01*
X149101724Y-102847500D01*
X149071304Y-102850353D01*
X148943116Y-102895207D01*
X148833851Y-102975848D01*
X148833848Y-102975851D01*
X148753206Y-103085117D01*
X148744427Y-103110210D01*
X148700980Y-103173937D01*
X148631491Y-103207402D01*
X148603788Y-103210000D01*
X144413500Y-103210000D01*
X144339000Y-103190038D01*
X144284462Y-103135500D01*
X144264500Y-103061000D01*
X144264500Y-102964741D01*
X144264499Y-102964731D01*
X144254573Y-102896606D01*
X144254573Y-102896605D01*
X144203199Y-102791518D01*
X144111753Y-102700072D01*
X144114051Y-102697773D01*
X144077886Y-102653859D01*
X144064500Y-102592134D01*
X144064500Y-102449442D01*
X144064500Y-102449438D01*
X144044021Y-102373011D01*
X144004460Y-102304489D01*
X143948511Y-102248540D01*
X143694343Y-101994372D01*
X143684898Y-101988919D01*
X143684896Y-101988917D01*
X143625822Y-101954811D01*
X143549394Y-101934332D01*
X143357067Y-101934332D01*
X143282567Y-101914370D01*
X143228029Y-101859832D01*
X143208067Y-101785332D01*
X143228029Y-101710832D01*
X143251708Y-101679973D01*
X143253198Y-101678483D01*
X143280567Y-101622499D01*
X143304573Y-101573394D01*
X143304573Y-101573393D01*
X143314499Y-101505268D01*
X143314500Y-101505258D01*
X143314500Y-101505214D01*
X144214001Y-101505214D01*
X144214002Y-101505230D01*
X144223912Y-101573250D01*
X144275212Y-101678187D01*
X144357812Y-101760787D01*
X144462749Y-101812087D01*
X144462753Y-101812088D01*
X144530777Y-101821999D01*
X144564000Y-101821998D01*
X144564000Y-101109500D01*
X144214001Y-101109500D01*
X144214001Y-101505214D01*
X143314500Y-101505214D01*
X143314500Y-100413772D01*
X144214000Y-100413772D01*
X144214000Y-100809500D01*
X144564000Y-100809500D01*
X144564000Y-100096999D01*
X144563999Y-100096999D01*
X144530778Y-100097000D01*
X144462749Y-100106912D01*
X144357812Y-100158212D01*
X144275212Y-100240812D01*
X144223912Y-100345749D01*
X144223911Y-100345753D01*
X144214000Y-100413772D01*
X143314500Y-100413772D01*
X143314500Y-100413741D01*
X143314499Y-100413731D01*
X143304573Y-100345606D01*
X143304573Y-100345605D01*
X143253199Y-100240518D01*
X143161753Y-100149072D01*
X143164051Y-100146773D01*
X143127886Y-100102859D01*
X143114500Y-100041134D01*
X143114500Y-99552899D01*
X143134462Y-99478399D01*
X143189000Y-99423861D01*
X143263500Y-99403899D01*
X143338000Y-99423861D01*
X143368859Y-99447540D01*
X143407518Y-99486199D01*
X143512605Y-99537573D01*
X143580731Y-99547499D01*
X143580737Y-99547499D01*
X143580740Y-99547500D01*
X143580741Y-99547500D01*
X143947259Y-99547500D01*
X143947260Y-99547500D01*
X143947263Y-99547499D01*
X143947268Y-99547499D01*
X144015393Y-99537573D01*
X144015394Y-99537573D01*
X144120481Y-99486199D01*
X144120481Y-99486198D01*
X144120483Y-99486198D01*
X144203198Y-99403483D01*
X144212291Y-99384883D01*
X144254573Y-99298394D01*
X144254573Y-99298393D01*
X144261622Y-99250017D01*
X144292117Y-99179173D01*
X144353949Y-99133069D01*
X144409065Y-99122500D01*
X145456811Y-99122500D01*
X145531311Y-99142462D01*
X145585849Y-99197000D01*
X145605811Y-99271500D01*
X145585849Y-99346000D01*
X145562170Y-99376859D01*
X145555540Y-99383488D01*
X145515979Y-99452011D01*
X145495500Y-99528437D01*
X145495500Y-100241968D01*
X145490422Y-100260917D01*
X145490422Y-100280536D01*
X145480614Y-100297521D01*
X145475538Y-100316468D01*
X145451858Y-100347327D01*
X145451856Y-100347330D01*
X145433522Y-100365663D01*
X145366726Y-100404225D01*
X145289598Y-100404223D01*
X145222804Y-100365657D01*
X145194306Y-100325741D01*
X145152787Y-100240812D01*
X145070187Y-100158212D01*
X144965250Y-100106912D01*
X144965246Y-100106911D01*
X144897227Y-100097000D01*
X144864000Y-100097000D01*
X144864000Y-101821999D01*
X144897214Y-101821999D01*
X144897230Y-101821997D01*
X144965250Y-101812087D01*
X145070187Y-101760787D01*
X145152787Y-101678187D01*
X145204087Y-101573250D01*
X145204088Y-101573246D01*
X145213999Y-101505227D01*
X145213999Y-101245106D01*
X147835500Y-101245106D01*
X147835500Y-101376893D01*
X147844639Y-101411001D01*
X147869608Y-101504186D01*
X147869609Y-101504187D01*
X147935497Y-101618310D01*
X147935498Y-101618311D01*
X147935500Y-101618314D01*
X148028686Y-101711500D01*
X148142814Y-101777392D01*
X148270108Y-101811500D01*
X148401892Y-101811500D01*
X148529186Y-101777392D01*
X148643314Y-101711500D01*
X148736500Y-101618314D01*
X148736503Y-101618307D01*
X148742450Y-101610560D01*
X148745142Y-101612626D01*
X148786938Y-101570774D01*
X148861424Y-101550761D01*
X148933071Y-101569906D01*
X148933246Y-101569576D01*
X148934687Y-101570337D01*
X148935938Y-101570672D01*
X148938535Y-101572371D01*
X148943115Y-101574792D01*
X148943118Y-101574793D01*
X149071301Y-101619646D01*
X149101734Y-101622500D01*
X149101741Y-101622500D01*
X150110259Y-101622500D01*
X150110266Y-101622500D01*
X150140699Y-101619646D01*
X150268882Y-101574793D01*
X150378150Y-101494150D01*
X150458793Y-101384882D01*
X150503646Y-101256699D01*
X150503646Y-101256691D01*
X150505582Y-101247838D01*
X150507061Y-101248161D01*
X150530392Y-101185280D01*
X150589783Y-101136071D01*
X150651912Y-101122500D01*
X151354088Y-101122500D01*
X151428588Y-101142462D01*
X151483126Y-101197000D01*
X151499399Y-101248060D01*
X151500418Y-101247838D01*
X151502353Y-101256695D01*
X151502353Y-101256697D01*
X151502354Y-101256699D01*
X151524886Y-101321093D01*
X151547207Y-101384883D01*
X151627848Y-101494148D01*
X151627851Y-101494151D01*
X151737116Y-101574792D01*
X151737117Y-101574792D01*
X151737118Y-101574793D01*
X151865301Y-101619646D01*
X151895734Y-101622500D01*
X151895741Y-101622500D01*
X152904259Y-101622500D01*
X152904266Y-101622500D01*
X152934699Y-101619646D01*
X153062882Y-101574793D01*
X153172150Y-101494150D01*
X153252793Y-101384882D01*
X153292715Y-101270789D01*
X153336161Y-101207065D01*
X153405651Y-101173600D01*
X153471918Y-101176079D01*
X153476810Y-101177389D01*
X153476814Y-101177392D01*
X153604108Y-101211500D01*
X153735892Y-101211500D01*
X153863186Y-101177392D01*
X153977314Y-101111500D01*
X154036012Y-101052801D01*
X154102803Y-101014239D01*
X154179931Y-101014239D01*
X154246726Y-101052802D01*
X154282006Y-101108950D01*
X154310882Y-101191473D01*
X154310883Y-101191475D01*
X154389287Y-101297709D01*
X154389290Y-101297712D01*
X154495522Y-101376115D01*
X154499800Y-101377612D01*
X154620151Y-101419725D01*
X154649744Y-101422500D01*
X154649752Y-101422500D01*
X155230248Y-101422500D01*
X155230256Y-101422500D01*
X155259849Y-101419725D01*
X155384475Y-101376116D01*
X155384475Y-101376115D01*
X155384477Y-101376115D01*
X155439373Y-101335600D01*
X155490711Y-101297711D01*
X155543439Y-101226266D01*
X155569115Y-101191477D01*
X155569116Y-101191475D01*
X155612725Y-101066849D01*
X155615500Y-101037256D01*
X155615500Y-100356744D01*
X155612725Y-100327151D01*
X155569116Y-100202525D01*
X155569115Y-100202523D01*
X155569115Y-100202522D01*
X155490712Y-100096290D01*
X155490709Y-100096287D01*
X155384477Y-100017884D01*
X155324299Y-99996827D01*
X155259849Y-99974275D01*
X155259846Y-99974274D01*
X155259844Y-99974274D01*
X155230264Y-99971500D01*
X155230256Y-99971500D01*
X154649744Y-99971500D01*
X154649735Y-99971500D01*
X154620155Y-99974274D01*
X154620152Y-99974274D01*
X154620151Y-99974275D01*
X154585787Y-99986299D01*
X154495522Y-100017884D01*
X154389290Y-100096287D01*
X154389287Y-100096290D01*
X154310884Y-100202523D01*
X154297082Y-100241968D01*
X154279092Y-100293382D01*
X154277927Y-100296711D01*
X154269978Y-100308369D01*
X154266326Y-100322000D01*
X154248600Y-100339725D01*
X154234479Y-100360438D01*
X154221765Y-100366560D01*
X154211788Y-100376538D01*
X154187573Y-100383026D01*
X154164989Y-100393902D01*
X154137288Y-100396500D01*
X154125032Y-100396500D01*
X154050532Y-100376538D01*
X154019674Y-100352860D01*
X153999577Y-100332763D01*
X153977314Y-100310500D01*
X153977311Y-100310498D01*
X153977310Y-100310497D01*
X153888318Y-100259118D01*
X153863186Y-100244608D01*
X153735892Y-100210500D01*
X153604108Y-100210500D01*
X153476814Y-100244608D01*
X153476813Y-100244608D01*
X153476811Y-100244609D01*
X153427532Y-100273060D01*
X153353032Y-100293021D01*
X153278532Y-100273058D01*
X153233149Y-100232500D01*
X153172151Y-100149851D01*
X153172148Y-100149848D01*
X153062883Y-100069207D01*
X153003042Y-100048268D01*
X152934699Y-100024354D01*
X152934697Y-100024353D01*
X152934695Y-100024353D01*
X152904275Y-100021500D01*
X152904266Y-100021500D01*
X151895734Y-100021500D01*
X151895724Y-100021500D01*
X151865304Y-100024353D01*
X151737116Y-100069207D01*
X151627851Y-100149848D01*
X151627848Y-100149851D01*
X151547207Y-100259116D01*
X151502353Y-100387304D01*
X151500418Y-100396162D01*
X151498938Y-100395838D01*
X151475608Y-100458720D01*
X151416217Y-100507929D01*
X151354088Y-100521500D01*
X150651912Y-100521500D01*
X150577412Y-100501538D01*
X150522874Y-100447000D01*
X150506600Y-100395939D01*
X150505582Y-100396162D01*
X150503646Y-100387304D01*
X150503646Y-100387301D01*
X150458793Y-100259118D01*
X150456308Y-100255751D01*
X150378151Y-100149851D01*
X150378148Y-100149848D01*
X150268883Y-100069207D01*
X150209042Y-100048268D01*
X150140699Y-100024354D01*
X150140697Y-100024353D01*
X150140695Y-100024353D01*
X150110275Y-100021500D01*
X150110266Y-100021500D01*
X149101734Y-100021500D01*
X149101724Y-100021500D01*
X149071304Y-100024353D01*
X148943116Y-100069207D01*
X148833851Y-100149848D01*
X148833848Y-100149851D01*
X148753207Y-100259116D01*
X148708353Y-100387304D01*
X148705500Y-100417724D01*
X148705500Y-100464743D01*
X148685538Y-100539243D01*
X148659234Y-100572663D01*
X148646374Y-100584904D01*
X148624489Y-100597540D01*
X148453880Y-100768148D01*
X148452544Y-100769420D01*
X148420234Y-100787028D01*
X148388374Y-100805423D01*
X148385879Y-100805751D01*
X148384820Y-100806329D01*
X148382016Y-100806259D01*
X148349810Y-100810500D01*
X148270108Y-100810500D01*
X148142814Y-100844608D01*
X148142812Y-100844608D01*
X148142812Y-100844609D01*
X148028689Y-100910497D01*
X147935497Y-101003689D01*
X147874408Y-101109500D01*
X147869608Y-101117814D01*
X147863004Y-101142462D01*
X147835500Y-101245106D01*
X145213999Y-101245106D01*
X145213999Y-101196530D01*
X145233961Y-101122030D01*
X145288499Y-101067492D01*
X145362999Y-101047530D01*
X145437499Y-101067492D01*
X145468353Y-101091167D01*
X145488686Y-101111500D01*
X145488688Y-101111501D01*
X145488689Y-101111502D01*
X145513520Y-101125838D01*
X145602814Y-101177392D01*
X145730108Y-101211500D01*
X145861892Y-101211500D01*
X145989186Y-101177392D01*
X146103314Y-101111500D01*
X146173297Y-101041516D01*
X146240088Y-101002954D01*
X146317216Y-101002954D01*
X146384011Y-101041517D01*
X146413694Y-101083910D01*
X146416666Y-101090284D01*
X146416670Y-101090290D01*
X146497709Y-101171329D01*
X146497714Y-101171333D01*
X146601583Y-101219767D01*
X146601587Y-101219768D01*
X146648912Y-101225999D01*
X146962000Y-101225999D01*
X146975081Y-101225999D01*
X146975082Y-101225998D01*
X147022414Y-101219768D01*
X147126285Y-101171333D01*
X147126290Y-101171329D01*
X147167637Y-101129983D01*
X147207329Y-101090290D01*
X147207333Y-101090285D01*
X147255767Y-100986416D01*
X147255769Y-100986412D01*
X147261999Y-100939087D01*
X147262000Y-100939085D01*
X147262000Y-100876000D01*
X146962000Y-100876000D01*
X146962000Y-101225999D01*
X146648912Y-101225999D01*
X146661999Y-101225998D01*
X146662000Y-101225998D01*
X146662000Y-100576000D01*
X146962000Y-100576000D01*
X147261999Y-100576000D01*
X147261999Y-100512918D01*
X147261998Y-100512917D01*
X147255768Y-100465585D01*
X147207333Y-100361714D01*
X147207329Y-100361709D01*
X147126290Y-100280670D01*
X147126285Y-100280666D01*
X147022416Y-100232232D01*
X147022412Y-100232230D01*
X146975087Y-100226000D01*
X146962000Y-100226000D01*
X146962000Y-100576000D01*
X146662000Y-100576000D01*
X146662000Y-100226000D01*
X146661999Y-100225999D01*
X146648923Y-100226000D01*
X146648914Y-100226001D01*
X146601585Y-100232231D01*
X146497714Y-100280666D01*
X146497709Y-100280670D01*
X146416665Y-100361714D01*
X146410557Y-100370438D01*
X146400457Y-100378912D01*
X146393864Y-100390332D01*
X146371367Y-100403320D01*
X146351472Y-100420014D01*
X146338488Y-100422303D01*
X146327069Y-100428896D01*
X146301096Y-100428896D01*
X146275516Y-100433406D01*
X146263126Y-100428896D01*
X146249941Y-100428896D01*
X146227446Y-100415908D01*
X146203040Y-100407025D01*
X146183146Y-100390332D01*
X146140141Y-100347327D01*
X146101577Y-100280532D01*
X146096500Y-100241968D01*
X146096500Y-100075499D01*
X146116462Y-100000999D01*
X146171000Y-99946461D01*
X146245497Y-99926499D01*
X146475138Y-99926499D01*
X146522545Y-99920259D01*
X146626579Y-99871747D01*
X146706641Y-99791685D01*
X146773436Y-99753121D01*
X146850564Y-99753121D01*
X146917359Y-99791685D01*
X146997421Y-99871747D01*
X147101452Y-99920258D01*
X147101453Y-99920258D01*
X147101455Y-99920259D01*
X147148861Y-99926500D01*
X147475138Y-99926499D01*
X147522545Y-99920259D01*
X147626579Y-99871747D01*
X147707747Y-99790579D01*
X147756259Y-99686545D01*
X147762500Y-99639139D01*
X147762499Y-99271499D01*
X147782461Y-99197000D01*
X147836999Y-99142462D01*
X147911499Y-99122500D01*
X148560088Y-99122500D01*
X148634588Y-99142462D01*
X148689126Y-99197000D01*
X148705399Y-99248060D01*
X148706418Y-99247838D01*
X148708353Y-99256695D01*
X148708353Y-99256697D01*
X148708354Y-99256699D01*
X148719049Y-99287264D01*
X148753207Y-99384883D01*
X148833848Y-99494148D01*
X148833851Y-99494151D01*
X148943116Y-99574792D01*
X148943117Y-99574792D01*
X148943118Y-99574793D01*
X149071301Y-99619646D01*
X149101734Y-99622500D01*
X149101741Y-99622500D01*
X150110259Y-99622500D01*
X150110266Y-99622500D01*
X150140699Y-99619646D01*
X150268882Y-99574793D01*
X150378150Y-99494150D01*
X150458793Y-99384882D01*
X150503646Y-99256699D01*
X150506500Y-99226266D01*
X150506500Y-98417734D01*
X150506499Y-98417724D01*
X151499500Y-98417724D01*
X151499500Y-99226275D01*
X151502353Y-99256695D01*
X151502353Y-99256697D01*
X151502354Y-99256699D01*
X151513049Y-99287264D01*
X151547207Y-99384883D01*
X151627848Y-99494148D01*
X151627851Y-99494151D01*
X151737116Y-99574792D01*
X151737117Y-99574792D01*
X151737118Y-99574793D01*
X151865301Y-99619646D01*
X151895734Y-99622500D01*
X151895741Y-99622500D01*
X152904259Y-99622500D01*
X152904266Y-99622500D01*
X152934699Y-99619646D01*
X153062882Y-99574793D01*
X153172150Y-99494150D01*
X153252793Y-99384882D01*
X153265947Y-99347290D01*
X153309394Y-99283563D01*
X153378884Y-99250098D01*
X153406586Y-99247500D01*
X154137288Y-99247500D01*
X154211788Y-99267462D01*
X154266326Y-99322000D01*
X154277925Y-99347284D01*
X154291997Y-99387500D01*
X154310884Y-99441476D01*
X154389287Y-99547709D01*
X154389290Y-99547712D01*
X154495522Y-99626115D01*
X154495525Y-99626116D01*
X154620151Y-99669725D01*
X154649744Y-99672500D01*
X154649752Y-99672500D01*
X155230248Y-99672500D01*
X155230256Y-99672500D01*
X155259849Y-99669725D01*
X155384475Y-99626116D01*
X155384475Y-99626115D01*
X155384477Y-99626115D01*
X155483681Y-99552899D01*
X155490711Y-99547711D01*
X155530242Y-99494148D01*
X155569115Y-99441477D01*
X155575279Y-99423861D01*
X155612725Y-99316849D01*
X155615500Y-99287256D01*
X155615500Y-98606744D01*
X155612725Y-98577151D01*
X155569116Y-98452525D01*
X155569115Y-98452523D01*
X155569115Y-98452522D01*
X155490712Y-98346290D01*
X155490709Y-98346287D01*
X155384477Y-98267884D01*
X155324299Y-98246827D01*
X155259849Y-98224275D01*
X155259846Y-98224274D01*
X155259844Y-98224274D01*
X155230264Y-98221500D01*
X155230256Y-98221500D01*
X154649744Y-98221500D01*
X154649735Y-98221500D01*
X154620155Y-98224274D01*
X154620152Y-98224274D01*
X154620151Y-98224275D01*
X154585787Y-98236299D01*
X154495522Y-98267884D01*
X154389290Y-98346287D01*
X154389287Y-98346290D01*
X154310884Y-98452523D01*
X154277927Y-98546711D01*
X154234479Y-98610438D01*
X154164989Y-98643902D01*
X154137288Y-98646500D01*
X153449500Y-98646500D01*
X153375000Y-98626538D01*
X153320462Y-98572000D01*
X153300500Y-98497500D01*
X153300500Y-98417741D01*
X153300499Y-98417724D01*
X153298477Y-98396162D01*
X153297646Y-98387301D01*
X153252793Y-98259118D01*
X153227077Y-98224274D01*
X153172151Y-98149851D01*
X153172148Y-98149848D01*
X153062883Y-98069207D01*
X152962860Y-98034208D01*
X152934699Y-98024354D01*
X152934697Y-98024353D01*
X152934695Y-98024353D01*
X152904275Y-98021500D01*
X152904266Y-98021500D01*
X151895734Y-98021500D01*
X151895724Y-98021500D01*
X151865304Y-98024353D01*
X151737116Y-98069207D01*
X151627851Y-98149848D01*
X151627848Y-98149851D01*
X151547207Y-98259116D01*
X151502353Y-98387304D01*
X151499500Y-98417724D01*
X150506499Y-98417724D01*
X150503646Y-98387301D01*
X150458793Y-98259118D01*
X150433077Y-98224274D01*
X150378151Y-98149851D01*
X150378148Y-98149848D01*
X150268883Y-98069207D01*
X150168860Y-98034208D01*
X150140699Y-98024354D01*
X150140697Y-98024353D01*
X150140695Y-98024353D01*
X150110275Y-98021500D01*
X150110266Y-98021500D01*
X149101734Y-98021500D01*
X149101724Y-98021500D01*
X149071304Y-98024353D01*
X148943116Y-98069207D01*
X148833851Y-98149848D01*
X148833848Y-98149851D01*
X148753207Y-98259116D01*
X148708353Y-98387304D01*
X148706418Y-98396162D01*
X148704938Y-98395838D01*
X148681608Y-98458720D01*
X148622217Y-98507929D01*
X148560088Y-98521500D01*
X144413500Y-98521500D01*
X144339000Y-98501538D01*
X144284462Y-98447000D01*
X144264500Y-98372500D01*
X144264500Y-98138741D01*
X144264499Y-98138731D01*
X144254573Y-98070606D01*
X144254573Y-98070605D01*
X144203199Y-97965518D01*
X144164606Y-97926925D01*
X144126042Y-97860130D01*
X144126042Y-97783002D01*
X144159609Y-97724861D01*
X144158559Y-97724055D01*
X144164495Y-97716318D01*
X144164500Y-97716314D01*
X144230392Y-97602186D01*
X144264500Y-97474892D01*
X144264500Y-97343108D01*
X144230392Y-97215814D01*
X144230390Y-97215811D01*
X144228315Y-97208065D01*
X144228315Y-97188447D01*
X144223238Y-97169500D01*
X144228315Y-97150552D01*
X144228315Y-97130936D01*
X144238122Y-97113948D01*
X144243200Y-97095000D01*
X144257071Y-97081128D01*
X144266879Y-97064141D01*
X144283867Y-97054332D01*
X144297738Y-97040462D01*
X144316684Y-97035385D01*
X144333673Y-97025577D01*
X144372238Y-97020500D01*
X144600929Y-97020500D01*
X156569095Y-97027907D01*
G37*
%TD.AperFunction*%
%TA.AperFunction,Conductor*%
G36*
X143230262Y-97040462D02*
G01*
X143284800Y-97095000D01*
X143304762Y-97169500D01*
X143299685Y-97208065D01*
X143297609Y-97215812D01*
X143297608Y-97215814D01*
X143279429Y-97283659D01*
X143263500Y-97343106D01*
X143263500Y-97474891D01*
X143264775Y-97484578D01*
X143261947Y-97484950D01*
X143261937Y-97546241D01*
X143223362Y-97613030D01*
X143156561Y-97651582D01*
X143079433Y-97651569D01*
X143043521Y-97636691D01*
X142983756Y-97602186D01*
X142941186Y-97577608D01*
X142813892Y-97543500D01*
X142682108Y-97543500D01*
X142554814Y-97577608D01*
X142554812Y-97577608D01*
X142554812Y-97577609D01*
X142440689Y-97643497D01*
X142347497Y-97736689D01*
X142303189Y-97813434D01*
X142281608Y-97850814D01*
X142279112Y-97860130D01*
X142247500Y-97978106D01*
X142247500Y-98109893D01*
X142281609Y-98237189D01*
X142307479Y-98281998D01*
X142307481Y-98282000D01*
X142326823Y-98354185D01*
X142327443Y-98356501D01*
X142323156Y-98372500D01*
X142307481Y-98431000D01*
X142252943Y-98485538D01*
X142178443Y-98505500D01*
X141903500Y-98505500D01*
X141829000Y-98485538D01*
X141774462Y-98431000D01*
X141754500Y-98356500D01*
X141754500Y-98301741D01*
X141754499Y-98301724D01*
X141751646Y-98271304D01*
X141751646Y-98271301D01*
X141706793Y-98143118D01*
X141703555Y-98138731D01*
X141626151Y-98033851D01*
X141626148Y-98033848D01*
X141516883Y-97953207D01*
X141441772Y-97926925D01*
X141388699Y-97908354D01*
X141388697Y-97908353D01*
X141388695Y-97908353D01*
X141358275Y-97905500D01*
X141358266Y-97905500D01*
X140549734Y-97905500D01*
X140549724Y-97905500D01*
X140519304Y-97908353D01*
X140391116Y-97953207D01*
X140281851Y-98033848D01*
X140281848Y-98033851D01*
X140201207Y-98143116D01*
X140156353Y-98271304D01*
X140153500Y-98301724D01*
X140153500Y-99310275D01*
X140156353Y-99340695D01*
X140158288Y-99349553D01*
X140156385Y-99349968D01*
X140157383Y-99363285D01*
X140163872Y-99387500D01*
X140160220Y-99401128D01*
X140161275Y-99415199D01*
X140150398Y-99437785D01*
X140143910Y-99462000D01*
X140133933Y-99471976D01*
X140127811Y-99484690D01*
X140107098Y-99498811D01*
X140089372Y-99516538D01*
X140075742Y-99520189D01*
X140064085Y-99528138D01*
X140014872Y-99536500D01*
X139892598Y-99536500D01*
X139818098Y-99516538D01*
X139763560Y-99462000D01*
X139743598Y-99387500D01*
X139750031Y-99349638D01*
X139749215Y-99349460D01*
X139751149Y-99340603D01*
X139753999Y-99310212D01*
X139754000Y-99310194D01*
X139754000Y-98956000D01*
X138154001Y-98956000D01*
X138154001Y-99310219D01*
X138156850Y-99340606D01*
X138158786Y-99349468D01*
X138156909Y-99349877D01*
X138161801Y-99415212D01*
X138128332Y-99484699D01*
X138064602Y-99528142D01*
X138015401Y-99536500D01*
X136724437Y-99536500D01*
X136648011Y-99556979D01*
X136579488Y-99596540D01*
X135924859Y-100251170D01*
X135858064Y-100289734D01*
X135780936Y-100289734D01*
X135714141Y-100251170D01*
X135675577Y-100184375D01*
X135670500Y-100145811D01*
X135670500Y-99206251D01*
X135658867Y-99147769D01*
X135655321Y-99142462D01*
X135614552Y-99081448D01*
X135548231Y-99037133D01*
X135548230Y-99037132D01*
X135489748Y-99025500D01*
X133750252Y-99025500D01*
X133691769Y-99037132D01*
X133625448Y-99081448D01*
X133581132Y-99147769D01*
X133569500Y-99206251D01*
X133569500Y-100945748D01*
X133581132Y-101004230D01*
X133581133Y-101004231D01*
X133625448Y-101070552D01*
X133691769Y-101114867D01*
X133750252Y-101126500D01*
X135489746Y-101126500D01*
X135489748Y-101126500D01*
X135518432Y-101120794D01*
X135595393Y-101125838D01*
X135659523Y-101168687D01*
X135693637Y-101237861D01*
X135696500Y-101266931D01*
X135696500Y-101847365D01*
X135676538Y-101921865D01*
X135622000Y-101976403D01*
X135547500Y-101996365D01*
X135473000Y-101976403D01*
X135442304Y-101950369D01*
X135441153Y-101951521D01*
X135289654Y-101800022D01*
X135117596Y-101685057D01*
X134942730Y-101612626D01*
X134926420Y-101605870D01*
X134926418Y-101605869D01*
X134926417Y-101605869D01*
X134723465Y-101565500D01*
X134516535Y-101565500D01*
X134313582Y-101605869D01*
X134122403Y-101685057D01*
X133950345Y-101800022D01*
X133804022Y-101946345D01*
X133689057Y-102118403D01*
X133609869Y-102309582D01*
X133569500Y-102512534D01*
X133569500Y-102719465D01*
X133608699Y-102916536D01*
X133609870Y-102922420D01*
X133616178Y-102937649D01*
X133689057Y-103113596D01*
X133804022Y-103285654D01*
X133813339Y-103294971D01*
X133851903Y-103361766D01*
X133851903Y-103438894D01*
X133813339Y-103505689D01*
X132114859Y-105204169D01*
X132048064Y-105242733D01*
X131970936Y-105242733D01*
X131904141Y-105204169D01*
X131865577Y-105137374D01*
X131860500Y-105098810D01*
X131860500Y-105052534D01*
X131845247Y-104975851D01*
X131820130Y-104849580D01*
X131773742Y-104737591D01*
X131740942Y-104658403D01*
X131625977Y-104486345D01*
X131479654Y-104340022D01*
X131307596Y-104225057D01*
X131121562Y-104148000D01*
X131116420Y-104145870D01*
X131116418Y-104145869D01*
X131116417Y-104145869D01*
X130913465Y-104105500D01*
X130706535Y-104105500D01*
X130503584Y-104145868D01*
X130485063Y-104153540D01*
X130453527Y-104166603D01*
X130443276Y-104170849D01*
X130366807Y-104180915D01*
X130295551Y-104151399D01*
X130248598Y-104090209D01*
X130238532Y-104013740D01*
X130268048Y-103942484D01*
X130280890Y-103927839D01*
X130513176Y-103695553D01*
X130579969Y-103656991D01*
X130647599Y-103654777D01*
X130706535Y-103666500D01*
X130706536Y-103666500D01*
X130913465Y-103666500D01*
X131116420Y-103626130D01*
X131307598Y-103546941D01*
X131479655Y-103431977D01*
X131625977Y-103285655D01*
X131740941Y-103113598D01*
X131742345Y-103110210D01*
X131761944Y-103062892D01*
X131820130Y-102922420D01*
X131860500Y-102719465D01*
X131860500Y-102512535D01*
X131820130Y-102309580D01*
X131740942Y-102118404D01*
X131740942Y-102118403D01*
X131625977Y-101946345D01*
X131479654Y-101800022D01*
X131307596Y-101685057D01*
X131132730Y-101612626D01*
X131116420Y-101605870D01*
X131116418Y-101605869D01*
X131116417Y-101605869D01*
X130913465Y-101565500D01*
X130706535Y-101565500D01*
X130503582Y-101605869D01*
X130312403Y-101685057D01*
X130140345Y-101800022D01*
X129994022Y-101946345D01*
X129879057Y-102118403D01*
X129799869Y-102309582D01*
X129759500Y-102512534D01*
X129759500Y-102719465D01*
X129798699Y-102916536D01*
X129799870Y-102922420D01*
X129806178Y-102937649D01*
X129879057Y-103113596D01*
X129957774Y-103231404D01*
X129982566Y-103304439D01*
X129967519Y-103380086D01*
X129939244Y-103419543D01*
X128290044Y-105068743D01*
X128223249Y-105107307D01*
X128146121Y-105107307D01*
X128079326Y-105068743D01*
X128040762Y-105001948D01*
X128038552Y-104992469D01*
X128010130Y-104849580D01*
X127963742Y-104737591D01*
X127930942Y-104658403D01*
X127815977Y-104486345D01*
X127669654Y-104340022D01*
X127497596Y-104225057D01*
X127311562Y-104148000D01*
X127306420Y-104145870D01*
X127306418Y-104145869D01*
X127306417Y-104145869D01*
X127103465Y-104105500D01*
X126896535Y-104105500D01*
X126693582Y-104145869D01*
X126502403Y-104225057D01*
X126330345Y-104340022D01*
X126184022Y-104486345D01*
X126069057Y-104658403D01*
X125989869Y-104849582D01*
X125949500Y-105052534D01*
X125949500Y-105259465D01*
X125989869Y-105462417D01*
X126069057Y-105653596D01*
X126101400Y-105702000D01*
X126156983Y-105785187D01*
X126158008Y-105786720D01*
X126182800Y-105859755D01*
X126167753Y-105935401D01*
X126116899Y-105993389D01*
X126043864Y-106018181D01*
X126034119Y-106018500D01*
X124155881Y-106018500D01*
X124081381Y-105998538D01*
X124026843Y-105944000D01*
X124006881Y-105869500D01*
X124026843Y-105795000D01*
X124031992Y-105786720D01*
X124033017Y-105785187D01*
X124120941Y-105653598D01*
X124128438Y-105635500D01*
X124145941Y-105593242D01*
X124200130Y-105462420D01*
X124240500Y-105259465D01*
X124240500Y-105052535D01*
X124240393Y-105051999D01*
X124225247Y-104975851D01*
X124200130Y-104849580D01*
X124153742Y-104737591D01*
X124120942Y-104658403D01*
X124005977Y-104486345D01*
X123859658Y-104340026D01*
X123859655Y-104340023D01*
X123859651Y-104340020D01*
X123854000Y-104335383D01*
X123854876Y-104334315D01*
X123809348Y-104282402D01*
X123794301Y-104206756D01*
X123819093Y-104133721D01*
X123877080Y-104082866D01*
X123942982Y-104067500D01*
X124618557Y-104067500D01*
X124618562Y-104067500D01*
X124694989Y-104047021D01*
X124763511Y-104007460D01*
X124819460Y-103951511D01*
X125790799Y-102980171D01*
X125857592Y-102941609D01*
X125934720Y-102941609D01*
X126001515Y-102980173D01*
X126033814Y-103028511D01*
X126069058Y-103113597D01*
X126184022Y-103285654D01*
X126330345Y-103431977D01*
X126502403Y-103546942D01*
X126581591Y-103579742D01*
X126693580Y-103626130D01*
X126896535Y-103666500D01*
X127103465Y-103666500D01*
X127306420Y-103626130D01*
X127497598Y-103546941D01*
X127669655Y-103431977D01*
X127815977Y-103285655D01*
X127930941Y-103113598D01*
X127932345Y-103110210D01*
X127951944Y-103062892D01*
X128010130Y-102922420D01*
X128050500Y-102719465D01*
X128050500Y-102512535D01*
X128010130Y-102309580D01*
X127930942Y-102118404D01*
X127930942Y-102118403D01*
X127815977Y-101946345D01*
X127669654Y-101800022D01*
X127497596Y-101685057D01*
X127322730Y-101612626D01*
X127306420Y-101605870D01*
X127306418Y-101605869D01*
X127306417Y-101605869D01*
X127103465Y-101565500D01*
X126896535Y-101565500D01*
X126693582Y-101605869D01*
X126502403Y-101685057D01*
X126330345Y-101800022D01*
X126184022Y-101946345D01*
X126069057Y-102118404D01*
X126025517Y-102223520D01*
X125978564Y-102284710D01*
X125907307Y-102314225D01*
X125887859Y-102315500D01*
X125690437Y-102315500D01*
X125614013Y-102335978D01*
X125614011Y-102335979D01*
X125588306Y-102350820D01*
X125545489Y-102375539D01*
X124498170Y-103422859D01*
X124481182Y-103432666D01*
X124467311Y-103446538D01*
X124448362Y-103451615D01*
X124431375Y-103461423D01*
X124392811Y-103466500D01*
X124163899Y-103466500D01*
X124089399Y-103446538D01*
X124034861Y-103392000D01*
X124014899Y-103317500D01*
X124034861Y-103243000D01*
X124040010Y-103234720D01*
X124056528Y-103210000D01*
X124120941Y-103113598D01*
X124122345Y-103110210D01*
X124141944Y-103062892D01*
X124200130Y-102922420D01*
X124240500Y-102719465D01*
X124240500Y-102512535D01*
X124200130Y-102309580D01*
X124120942Y-102118404D01*
X124120942Y-102118403D01*
X124005977Y-101946345D01*
X123859654Y-101800022D01*
X123687596Y-101685057D01*
X123512730Y-101612626D01*
X123496420Y-101605870D01*
X123496418Y-101605869D01*
X123496417Y-101605869D01*
X123293465Y-101565500D01*
X123086535Y-101565500D01*
X122883582Y-101605869D01*
X122692403Y-101685057D01*
X122520345Y-101800022D01*
X122374022Y-101946345D01*
X122259057Y-102118404D01*
X122215517Y-102223520D01*
X122168564Y-102284710D01*
X122097307Y-102314225D01*
X122077859Y-102315500D01*
X115502189Y-102315500D01*
X115427689Y-102295538D01*
X115396830Y-102271859D01*
X114124141Y-100999170D01*
X114085577Y-100932375D01*
X114080500Y-100893811D01*
X114080500Y-99460251D01*
X114068867Y-99401769D01*
X114068439Y-99401128D01*
X114024552Y-99335448D01*
X113958231Y-99291133D01*
X113958230Y-99291132D01*
X113899748Y-99279500D01*
X112160252Y-99279500D01*
X112101769Y-99291132D01*
X112035448Y-99335448D01*
X111991132Y-99401769D01*
X111979500Y-99460251D01*
X111979500Y-101199748D01*
X111991132Y-101258230D01*
X111991133Y-101258231D01*
X112035448Y-101324552D01*
X112101769Y-101368867D01*
X112160252Y-101380500D01*
X113593811Y-101380500D01*
X113668311Y-101400462D01*
X113699170Y-101424141D01*
X115075540Y-102800511D01*
X115131489Y-102856460D01*
X115200011Y-102896021D01*
X115276438Y-102916500D01*
X122077859Y-102916500D01*
X122079482Y-102916935D01*
X122081114Y-102916536D01*
X122116622Y-102926886D01*
X122152359Y-102936462D01*
X122153546Y-102937649D01*
X122155160Y-102938120D01*
X122162056Y-102946159D01*
X122206897Y-102991000D01*
X122208493Y-102993837D01*
X122212408Y-103000974D01*
X122259059Y-103113598D01*
X122343603Y-103240128D01*
X122346735Y-103245837D01*
X122354404Y-103277184D01*
X122364782Y-103307755D01*
X122363482Y-103314287D01*
X122365065Y-103320755D01*
X122356032Y-103351742D01*
X122349735Y-103383401D01*
X122345344Y-103388407D01*
X122343481Y-103394801D01*
X122320164Y-103417120D01*
X122298881Y-103441389D01*
X122292573Y-103443530D01*
X122287764Y-103448134D01*
X122256416Y-103455803D01*
X122225846Y-103466181D01*
X122216101Y-103466500D01*
X114142969Y-103466500D01*
X114068469Y-103446538D01*
X114013931Y-103392000D01*
X113993969Y-103317500D01*
X114005311Y-103260480D01*
X114011376Y-103245837D01*
X114040130Y-103176420D01*
X114080500Y-102973465D01*
X114080500Y-102766535D01*
X114073951Y-102733613D01*
X114046678Y-102596500D01*
X114040130Y-102563580D01*
X113962241Y-102375540D01*
X113960942Y-102372403D01*
X113845977Y-102200345D01*
X113699654Y-102054022D01*
X113527596Y-101939057D01*
X113369219Y-101873455D01*
X113336420Y-101859870D01*
X113336418Y-101859869D01*
X113336417Y-101859869D01*
X113133465Y-101819500D01*
X112926535Y-101819500D01*
X112723582Y-101859869D01*
X112532403Y-101939057D01*
X112360345Y-102054022D01*
X112214022Y-102200345D01*
X112099057Y-102372403D01*
X112019869Y-102563582D01*
X111979500Y-102766534D01*
X111979500Y-102973465D01*
X112019869Y-103176417D01*
X112099057Y-103367596D01*
X112214022Y-103539654D01*
X112360345Y-103685977D01*
X112532403Y-103800942D01*
X112571048Y-103816949D01*
X112723580Y-103880130D01*
X112926535Y-103920500D01*
X113133465Y-103920500D01*
X113336415Y-103880131D01*
X113336415Y-103880130D01*
X113336420Y-103880130D01*
X113441540Y-103836587D01*
X113518005Y-103826521D01*
X113589262Y-103856036D01*
X113603916Y-103868887D01*
X113742490Y-104007461D01*
X113742492Y-104007462D01*
X113753366Y-104013740D01*
X113811012Y-104047022D01*
X113887438Y-104067500D01*
X113887440Y-104067500D01*
X122437018Y-104067500D01*
X122511518Y-104087462D01*
X122566056Y-104142000D01*
X122586018Y-104216500D01*
X122566056Y-104291000D01*
X122525292Y-104334521D01*
X122526000Y-104335383D01*
X122520341Y-104340026D01*
X122374022Y-104486345D01*
X122259057Y-104658403D01*
X122179869Y-104849582D01*
X122139500Y-105052534D01*
X122139500Y-105259465D01*
X122179869Y-105462417D01*
X122259057Y-105653596D01*
X122291400Y-105702000D01*
X122346983Y-105785187D01*
X122348008Y-105786720D01*
X122372800Y-105859755D01*
X122357753Y-105935401D01*
X122306899Y-105993389D01*
X122233864Y-106018181D01*
X122224119Y-106018500D01*
X114137998Y-106018500D01*
X114063498Y-105998538D01*
X114008960Y-105944000D01*
X113988998Y-105869500D01*
X114000340Y-105812480D01*
X114000367Y-105812416D01*
X114040130Y-105716420D01*
X114080500Y-105513465D01*
X114080500Y-105306535D01*
X114040130Y-105103580D01*
X113981117Y-104961110D01*
X113960942Y-104912403D01*
X113845977Y-104740345D01*
X113699654Y-104594022D01*
X113527596Y-104479057D01*
X113346755Y-104404151D01*
X113336420Y-104399870D01*
X113336418Y-104399869D01*
X113336417Y-104399869D01*
X113133465Y-104359500D01*
X112926535Y-104359500D01*
X112723582Y-104399869D01*
X112532403Y-104479057D01*
X112360345Y-104594022D01*
X112214022Y-104740345D01*
X112099057Y-104912403D01*
X112019869Y-105103582D01*
X111979500Y-105306534D01*
X111979500Y-105513465D01*
X112017001Y-105702000D01*
X112019870Y-105716420D01*
X112033455Y-105749219D01*
X112099057Y-105907596D01*
X112214022Y-106079654D01*
X112360345Y-106225977D01*
X112532403Y-106340942D01*
X112594157Y-106366521D01*
X112723580Y-106420130D01*
X112926535Y-106460500D01*
X113133465Y-106460500D01*
X113336415Y-106420131D01*
X113336415Y-106420130D01*
X113336420Y-106420130D01*
X113441540Y-106376587D01*
X113518005Y-106366521D01*
X113589262Y-106396036D01*
X113603916Y-106408887D01*
X113698540Y-106503511D01*
X113754489Y-106559460D01*
X113823011Y-106599021D01*
X113899438Y-106619500D01*
X113899443Y-106619500D01*
X127504317Y-106619500D01*
X127504322Y-106619500D01*
X127580749Y-106599021D01*
X127649271Y-106559460D01*
X127705220Y-106503511D01*
X129581831Y-104626898D01*
X129648626Y-104588335D01*
X129725754Y-104588335D01*
X129792549Y-104626899D01*
X129831113Y-104693694D01*
X129831113Y-104770822D01*
X129824848Y-104789277D01*
X129799870Y-104849578D01*
X129799869Y-104849582D01*
X129759500Y-105052534D01*
X129759500Y-105259465D01*
X129799869Y-105462417D01*
X129879057Y-105653596D01*
X129994022Y-105825654D01*
X130140345Y-105971977D01*
X130312403Y-106086942D01*
X130363805Y-106108233D01*
X130503580Y-106166130D01*
X130706535Y-106206500D01*
X130752810Y-106206500D01*
X130827310Y-106226462D01*
X130881848Y-106281000D01*
X130901810Y-106355500D01*
X130881848Y-106430000D01*
X130858169Y-106460859D01*
X129897170Y-107421859D01*
X129830375Y-107460423D01*
X129791811Y-107465500D01*
X114049335Y-107465500D01*
X113974835Y-107445538D01*
X113925446Y-107399280D01*
X113909765Y-107375812D01*
X113845977Y-107280345D01*
X113699655Y-107134023D01*
X113694366Y-107130489D01*
X113527596Y-107019057D01*
X113369219Y-106953455D01*
X113336420Y-106939870D01*
X113336418Y-106939869D01*
X113336417Y-106939869D01*
X113133465Y-106899500D01*
X112926535Y-106899500D01*
X112723582Y-106939869D01*
X112532403Y-107019057D01*
X112360345Y-107134022D01*
X112214022Y-107280345D01*
X112099057Y-107452403D01*
X112019869Y-107643582D01*
X111979500Y-107846534D01*
X111979500Y-108053465D01*
X112019869Y-108256417D01*
X112099057Y-108447596D01*
X112214022Y-108619654D01*
X112360345Y-108765977D01*
X112532403Y-108880942D01*
X112599415Y-108908699D01*
X112723580Y-108960130D01*
X112926535Y-109000500D01*
X113133465Y-109000500D01*
X113336420Y-108960130D01*
X113504402Y-108890548D01*
X113527596Y-108880942D01*
X113527596Y-108880941D01*
X113527598Y-108880941D01*
X113699655Y-108765977D01*
X113845977Y-108619655D01*
X113960941Y-108447598D01*
X114040130Y-108256420D01*
X114054051Y-108186432D01*
X114088163Y-108117258D01*
X114152292Y-108074408D01*
X114200188Y-108066500D01*
X119977914Y-108066500D01*
X120052414Y-108086462D01*
X120083273Y-108110141D01*
X120414444Y-108441312D01*
X120349903Y-108484437D01*
X120245437Y-108588903D01*
X120202311Y-108653444D01*
X119913367Y-108364500D01*
X119855114Y-108364500D01*
X119801667Y-108438065D01*
X119715916Y-108606357D01*
X119657549Y-108785993D01*
X119657548Y-108785993D01*
X119628000Y-108972561D01*
X119628000Y-109161438D01*
X119657548Y-109348006D01*
X119715916Y-109527642D01*
X119801669Y-109695938D01*
X119879626Y-109803239D01*
X120202311Y-109480554D01*
X120245437Y-109545097D01*
X120349903Y-109649563D01*
X120414443Y-109692687D01*
X120091759Y-110015371D01*
X120091759Y-110015372D01*
X120199061Y-110093330D01*
X120367357Y-110179083D01*
X120546993Y-110237450D01*
X120546993Y-110237451D01*
X120733562Y-110267000D01*
X120922438Y-110267000D01*
X121109006Y-110237451D01*
X121109006Y-110237450D01*
X121288641Y-110179083D01*
X121335853Y-110155027D01*
X121411296Y-110138990D01*
X121484649Y-110162823D01*
X121536259Y-110220139D01*
X121552500Y-110287786D01*
X121552500Y-111311748D01*
X121564133Y-111370232D01*
X121596313Y-111418392D01*
X121621106Y-111491427D01*
X121606060Y-111567073D01*
X121577784Y-111606532D01*
X120548459Y-112635859D01*
X120481664Y-112674423D01*
X120443100Y-112679500D01*
X114121430Y-112679500D01*
X114046930Y-112659538D01*
X113992392Y-112605000D01*
X113983772Y-112587521D01*
X113971917Y-112558901D01*
X113960941Y-112532402D01*
X113845977Y-112360345D01*
X113699655Y-112214023D01*
X113689836Y-112207462D01*
X113527596Y-112099057D01*
X113369219Y-112033455D01*
X113336420Y-112019870D01*
X113336418Y-112019869D01*
X113336417Y-112019869D01*
X113133465Y-111979500D01*
X112926535Y-111979500D01*
X112723582Y-112019869D01*
X112532403Y-112099057D01*
X112360345Y-112214022D01*
X112214022Y-112360345D01*
X112099057Y-112532403D01*
X112019869Y-112723582D01*
X111979500Y-112926534D01*
X111979500Y-113133465D01*
X112019869Y-113336417D01*
X112099057Y-113527596D01*
X112214022Y-113699654D01*
X112360345Y-113845977D01*
X112532403Y-113960942D01*
X112583117Y-113981948D01*
X112723580Y-114040130D01*
X112926535Y-114080500D01*
X113133465Y-114080500D01*
X113336420Y-114040130D01*
X113527598Y-113960941D01*
X113699655Y-113845977D01*
X113845977Y-113699655D01*
X113960941Y-113527598D01*
X113983772Y-113472478D01*
X114030725Y-113411290D01*
X114101983Y-113381775D01*
X114121430Y-113380500D01*
X120696144Y-113380500D01*
X120785288Y-113356614D01*
X120865212Y-113310470D01*
X121306385Y-112869296D01*
X121373178Y-112830734D01*
X121450306Y-112830734D01*
X121517101Y-112869298D01*
X121555665Y-112936093D01*
X121557880Y-113003722D01*
X121552500Y-113030772D01*
X121552500Y-113203229D01*
X121586144Y-113372371D01*
X121586145Y-113372375D01*
X121652138Y-113531697D01*
X121652140Y-113531701D01*
X121652142Y-113531705D01*
X121747955Y-113675099D01*
X121869901Y-113797045D01*
X122013295Y-113892858D01*
X122172626Y-113958855D01*
X122341771Y-113992500D01*
X122514229Y-113992500D01*
X122683374Y-113958855D01*
X122842705Y-113892858D01*
X122986099Y-113797045D01*
X123108045Y-113675099D01*
X123203858Y-113531705D01*
X123269855Y-113372374D01*
X123281863Y-113312006D01*
X123315976Y-113242832D01*
X123380105Y-113199982D01*
X123457068Y-113194937D01*
X123526242Y-113229050D01*
X123569092Y-113293179D01*
X123574137Y-113312006D01*
X123586144Y-113372371D01*
X123586145Y-113372375D01*
X123652138Y-113531697D01*
X123652140Y-113531701D01*
X123652142Y-113531705D01*
X123747955Y-113675099D01*
X123869901Y-113797045D01*
X124013295Y-113892858D01*
X124172626Y-113958855D01*
X124341771Y-113992500D01*
X124514229Y-113992500D01*
X124683374Y-113958855D01*
X124842705Y-113892858D01*
X124986099Y-113797045D01*
X125108045Y-113675099D01*
X125203858Y-113531705D01*
X125269855Y-113372374D01*
X125281863Y-113312006D01*
X125315976Y-113242832D01*
X125380105Y-113199982D01*
X125457068Y-113194937D01*
X125526242Y-113229050D01*
X125569092Y-113293179D01*
X125574137Y-113312006D01*
X125586144Y-113372371D01*
X125586145Y-113372375D01*
X125652138Y-113531697D01*
X125652140Y-113531701D01*
X125652142Y-113531705D01*
X125747955Y-113675099D01*
X125869901Y-113797045D01*
X126013295Y-113892858D01*
X126172626Y-113958855D01*
X126341771Y-113992500D01*
X126514229Y-113992500D01*
X126683374Y-113958855D01*
X126705596Y-113949649D01*
X126782064Y-113939581D01*
X126853321Y-113969096D01*
X126867977Y-113981948D01*
X127163540Y-114277511D01*
X127219489Y-114333460D01*
X127288011Y-114373021D01*
X127364438Y-114393500D01*
X127364443Y-114393500D01*
X131056557Y-114393500D01*
X131056562Y-114393500D01*
X131132989Y-114373021D01*
X131201511Y-114333460D01*
X131257460Y-114277511D01*
X131692460Y-113842511D01*
X131692460Y-113842510D01*
X131699366Y-113835605D01*
X131700808Y-113837047D01*
X131715384Y-113825859D01*
X131737991Y-113804462D01*
X131745641Y-113802635D01*
X131751879Y-113797848D01*
X131782734Y-113793781D01*
X131813012Y-113786554D01*
X131820201Y-113788843D01*
X131828346Y-113787770D01*
X131886935Y-113808556D01*
X131889346Y-113810037D01*
X132013295Y-113892858D01*
X132046446Y-113906589D01*
X132056517Y-113912779D01*
X132075175Y-113932492D01*
X132096707Y-113949013D01*
X132101294Y-113960086D01*
X132109536Y-113968794D01*
X132115838Y-113995195D01*
X132126225Y-114020269D01*
X132127500Y-114039721D01*
X132127500Y-114946454D01*
X132145659Y-115014225D01*
X132147979Y-115022881D01*
X132165946Y-115054000D01*
X132168837Y-115059007D01*
X132168838Y-115059011D01*
X132168839Y-115059011D01*
X132187539Y-115091402D01*
X133159130Y-116062993D01*
X133197694Y-116129788D01*
X133197694Y-116206916D01*
X133159130Y-116273711D01*
X133092335Y-116312275D01*
X133053679Y-116317352D01*
X109876908Y-116303007D01*
X109802420Y-116282999D01*
X109747916Y-116228427D01*
X109728000Y-116154007D01*
X109728000Y-110386583D01*
X111980000Y-110386583D01*
X111980000Y-110593416D01*
X112020349Y-110796271D01*
X112020350Y-110796273D01*
X112099500Y-110987359D01*
X112188023Y-111119843D01*
X112586328Y-110721537D01*
X112629901Y-110797007D01*
X112722993Y-110890099D01*
X112798460Y-110933670D01*
X112400155Y-111331975D01*
X112400155Y-111331976D01*
X112532632Y-111420495D01*
X112532642Y-111420500D01*
X112723726Y-111499649D01*
X112723728Y-111499650D01*
X112926584Y-111540000D01*
X113133416Y-111540000D01*
X113336271Y-111499650D01*
X113336273Y-111499649D01*
X113527357Y-111420500D01*
X113527367Y-111420495D01*
X113659843Y-111331976D01*
X113659843Y-111331975D01*
X113261538Y-110933670D01*
X113337007Y-110890099D01*
X113430099Y-110797007D01*
X113473670Y-110721538D01*
X113871975Y-111119843D01*
X113871976Y-111119843D01*
X113960495Y-110987367D01*
X113960500Y-110987357D01*
X114039649Y-110796273D01*
X114039650Y-110796271D01*
X114080000Y-110593416D01*
X114080000Y-110386583D01*
X114039650Y-110183728D01*
X114039649Y-110183726D01*
X113960500Y-109992642D01*
X113960495Y-109992632D01*
X113871976Y-109860155D01*
X113871975Y-109860155D01*
X113473670Y-110258460D01*
X113430099Y-110182993D01*
X113337007Y-110089901D01*
X113261537Y-110046328D01*
X113659843Y-109648023D01*
X113659843Y-109648022D01*
X113527359Y-109559500D01*
X113336273Y-109480350D01*
X113336271Y-109480349D01*
X113133416Y-109440000D01*
X112926584Y-109440000D01*
X112723728Y-109480349D01*
X112723726Y-109480350D01*
X112532641Y-109559500D01*
X112400155Y-109648022D01*
X112400155Y-109648023D01*
X112798461Y-110046329D01*
X112722993Y-110089901D01*
X112629901Y-110182993D01*
X112586329Y-110258461D01*
X112188023Y-109860155D01*
X112188022Y-109860155D01*
X112099500Y-109992641D01*
X112020350Y-110183726D01*
X112020349Y-110183728D01*
X111980000Y-110386583D01*
X109728000Y-110386583D01*
X109728000Y-99206251D01*
X122139500Y-99206251D01*
X122139500Y-100945748D01*
X122151132Y-101004230D01*
X122151133Y-101004231D01*
X122195448Y-101070552D01*
X122261769Y-101114867D01*
X122320252Y-101126500D01*
X124059748Y-101126500D01*
X124118231Y-101114867D01*
X124184552Y-101070552D01*
X124228867Y-101004231D01*
X124240500Y-100945748D01*
X124240500Y-99206252D01*
X124240500Y-99206251D01*
X125949500Y-99206251D01*
X125949500Y-100945748D01*
X125961132Y-101004230D01*
X125961133Y-101004231D01*
X126005448Y-101070552D01*
X126071769Y-101114867D01*
X126130252Y-101126500D01*
X127869748Y-101126500D01*
X127928231Y-101114867D01*
X127994552Y-101070552D01*
X128038867Y-101004231D01*
X128050500Y-100945748D01*
X128050500Y-99206252D01*
X128050500Y-99206251D01*
X129759500Y-99206251D01*
X129759500Y-100945748D01*
X129771132Y-101004230D01*
X129771133Y-101004231D01*
X129815448Y-101070552D01*
X129881769Y-101114867D01*
X129940252Y-101126500D01*
X131679748Y-101126500D01*
X131738231Y-101114867D01*
X131804552Y-101070552D01*
X131848867Y-101004231D01*
X131860500Y-100945748D01*
X131860500Y-99206252D01*
X131848867Y-99147769D01*
X131804552Y-99081448D01*
X131738231Y-99037133D01*
X131738230Y-99037132D01*
X131679748Y-99025500D01*
X129940252Y-99025500D01*
X129881769Y-99037132D01*
X129815448Y-99081448D01*
X129771132Y-99147769D01*
X129759500Y-99206251D01*
X128050500Y-99206251D01*
X128038867Y-99147769D01*
X127994552Y-99081448D01*
X127928231Y-99037133D01*
X127928230Y-99037132D01*
X127869748Y-99025500D01*
X126130252Y-99025500D01*
X126071769Y-99037132D01*
X126005448Y-99081448D01*
X125961132Y-99147769D01*
X125949500Y-99206251D01*
X124240500Y-99206251D01*
X124228867Y-99147769D01*
X124184552Y-99081448D01*
X124118231Y-99037133D01*
X124118230Y-99037132D01*
X124059748Y-99025500D01*
X122320252Y-99025500D01*
X122261769Y-99037132D01*
X122195448Y-99081448D01*
X122151132Y-99147769D01*
X122139500Y-99206251D01*
X109728000Y-99206251D01*
X109728000Y-98301787D01*
X138154000Y-98301787D01*
X138154000Y-98656000D01*
X138804000Y-98656000D01*
X139104000Y-98656000D01*
X139753999Y-98656000D01*
X139753999Y-98301801D01*
X139753998Y-98301780D01*
X139751149Y-98271395D01*
X139706346Y-98143354D01*
X139625791Y-98034208D01*
X139516645Y-97953653D01*
X139388602Y-97908850D01*
X139358212Y-97906000D01*
X139104000Y-97906000D01*
X139104000Y-98656000D01*
X138804000Y-98656000D01*
X138804000Y-97906000D01*
X138549801Y-97906000D01*
X138549780Y-97906002D01*
X138519395Y-97908850D01*
X138391354Y-97953653D01*
X138282208Y-98034208D01*
X138201653Y-98143354D01*
X138156850Y-98271397D01*
X138154000Y-98301787D01*
X109728000Y-98301787D01*
X109728000Y-97169500D01*
X109747962Y-97095000D01*
X109802500Y-97040462D01*
X109877000Y-97020500D01*
X143155762Y-97020500D01*
X143230262Y-97040462D01*
G37*
%TD.AperFunction*%
%TA.AperFunction,Conductor*%
G36*
X138079000Y-110810462D02*
G01*
X138133538Y-110865000D01*
X138153500Y-110939500D01*
X138153500Y-110994275D01*
X138156353Y-111024695D01*
X138156353Y-111024697D01*
X138156354Y-111024699D01*
X138170068Y-111063892D01*
X138201207Y-111152883D01*
X138281848Y-111262148D01*
X138281851Y-111262151D01*
X138391116Y-111342792D01*
X138391117Y-111342792D01*
X138391118Y-111342793D01*
X138519301Y-111387646D01*
X138549734Y-111390500D01*
X138549741Y-111390500D01*
X139358259Y-111390500D01*
X139358266Y-111390500D01*
X139388699Y-111387646D01*
X139388699Y-111387645D01*
X139391588Y-111387375D01*
X139467627Y-111400294D01*
X139527018Y-111449502D01*
X139553849Y-111521812D01*
X139554500Y-111535724D01*
X139554500Y-112238781D01*
X139534538Y-112313281D01*
X139480000Y-112367819D01*
X139405500Y-112387781D01*
X139391592Y-112387131D01*
X139358194Y-112384000D01*
X139104000Y-112384000D01*
X139104000Y-113135000D01*
X139084038Y-113209500D01*
X139029500Y-113264038D01*
X138955000Y-113284000D01*
X138954000Y-113284000D01*
X138954000Y-113285000D01*
X138934038Y-113359500D01*
X138879500Y-113414038D01*
X138805000Y-113434000D01*
X138154001Y-113434000D01*
X138154001Y-113788219D01*
X138156850Y-113818604D01*
X138201653Y-113946645D01*
X138282208Y-114055791D01*
X138391354Y-114136346D01*
X138456371Y-114159096D01*
X138520097Y-114202543D01*
X138553562Y-114272033D01*
X138547799Y-114348946D01*
X138504352Y-114412672D01*
X138456371Y-114440374D01*
X138391116Y-114463207D01*
X138281851Y-114543848D01*
X138281848Y-114543851D01*
X138201207Y-114653116D01*
X138156353Y-114781304D01*
X138153500Y-114811724D01*
X138153500Y-114866500D01*
X138133538Y-114941000D01*
X138079000Y-114995538D01*
X138018788Y-115011671D01*
X138019125Y-115014225D01*
X138009437Y-115015500D01*
X137933009Y-115035979D01*
X137892202Y-115059538D01*
X137892203Y-115059539D01*
X137864489Y-115075539D01*
X137316170Y-115623859D01*
X137249375Y-115662423D01*
X137210811Y-115667500D01*
X135076805Y-115667500D01*
X135002305Y-115647538D01*
X134981424Y-115626657D01*
X134969285Y-115633666D01*
X134955414Y-115647538D01*
X134936465Y-115652615D01*
X134919478Y-115662423D01*
X134880914Y-115667500D01*
X134878086Y-115667500D01*
X134803586Y-115647538D01*
X134772727Y-115623859D01*
X134441555Y-115292687D01*
X134506097Y-115249563D01*
X134610563Y-115145097D01*
X134653687Y-115080555D01*
X134976372Y-115403240D01*
X135054325Y-115295947D01*
X135054330Y-115295938D01*
X135140083Y-115127642D01*
X135198450Y-114948006D01*
X135198451Y-114948006D01*
X135228000Y-114761438D01*
X135228000Y-114572561D01*
X135198451Y-114385993D01*
X135140083Y-114206357D01*
X135054330Y-114038061D01*
X134976372Y-113930759D01*
X134976371Y-113930759D01*
X134653687Y-114253442D01*
X134610563Y-114188903D01*
X134506097Y-114084437D01*
X134441554Y-114041311D01*
X134764239Y-113718626D01*
X134656938Y-113640669D01*
X134488642Y-113554916D01*
X134309006Y-113496549D01*
X134309006Y-113496548D01*
X134122438Y-113467000D01*
X133933562Y-113467000D01*
X133746993Y-113496548D01*
X133746993Y-113496549D01*
X133567357Y-113554916D01*
X133454292Y-113612527D01*
X133378849Y-113628563D01*
X133305496Y-113604729D01*
X133253887Y-113547412D01*
X133237851Y-113471969D01*
X133248987Y-113422752D01*
X133269855Y-113372374D01*
X133303500Y-113203229D01*
X133303500Y-113030771D01*
X133302041Y-113023438D01*
X133292285Y-112974389D01*
X133269855Y-112861626D01*
X133235956Y-112779787D01*
X138154000Y-112779787D01*
X138154000Y-113134000D01*
X138804000Y-113134000D01*
X138804000Y-112384000D01*
X138549801Y-112384000D01*
X138549780Y-112384002D01*
X138519395Y-112386850D01*
X138391354Y-112431653D01*
X138282208Y-112512208D01*
X138201653Y-112621354D01*
X138156850Y-112749397D01*
X138154000Y-112779787D01*
X133235956Y-112779787D01*
X133203858Y-112702295D01*
X133184470Y-112673279D01*
X133159679Y-112600246D01*
X133174726Y-112524600D01*
X133225579Y-112466611D01*
X133298614Y-112441819D01*
X133308360Y-112441500D01*
X136056557Y-112441500D01*
X136056562Y-112441500D01*
X136132989Y-112421021D01*
X136201511Y-112381460D01*
X136257460Y-112325511D01*
X137748830Y-110834141D01*
X137815625Y-110795577D01*
X137854189Y-110790500D01*
X138004500Y-110790500D01*
X138079000Y-110810462D01*
G37*
%TD.AperFunction*%
%TA.AperFunction,Conductor*%
G36*
X138113455Y-106108233D02*
G01*
X138152019Y-106175027D01*
X138155879Y-106196528D01*
X138156353Y-106198695D01*
X138156353Y-106198697D01*
X138156354Y-106198699D01*
X138164362Y-106221585D01*
X138201207Y-106326883D01*
X138281848Y-106436148D01*
X138281851Y-106436151D01*
X138391116Y-106516792D01*
X138391117Y-106516792D01*
X138391118Y-106516793D01*
X138519301Y-106561646D01*
X138549734Y-106564500D01*
X138549741Y-106564500D01*
X139210966Y-106564500D01*
X139285466Y-106584462D01*
X139340004Y-106639000D01*
X139359966Y-106713500D01*
X139340004Y-106788000D01*
X139316328Y-106818854D01*
X139267645Y-106867538D01*
X139254495Y-106880688D01*
X139254494Y-106880689D01*
X139188606Y-106994812D01*
X139154497Y-107122106D01*
X139154497Y-107253895D01*
X139185826Y-107370814D01*
X139185826Y-107447942D01*
X139147263Y-107514736D01*
X139104000Y-107557999D01*
X139104000Y-108309000D01*
X139084038Y-108383500D01*
X139029500Y-108438038D01*
X138955000Y-108458000D01*
X138954000Y-108458000D01*
X138954000Y-108459000D01*
X138934038Y-108533500D01*
X138879500Y-108588038D01*
X138805000Y-108608000D01*
X138154001Y-108608000D01*
X138154001Y-108962219D01*
X138156850Y-108992604D01*
X138201653Y-109120645D01*
X138282208Y-109229791D01*
X138391354Y-109310346D01*
X138456371Y-109333096D01*
X138520097Y-109376543D01*
X138553562Y-109446033D01*
X138547799Y-109522946D01*
X138504352Y-109586672D01*
X138456371Y-109614374D01*
X138391116Y-109637207D01*
X138281851Y-109717848D01*
X138281848Y-109717851D01*
X138201207Y-109827116D01*
X138156353Y-109955304D01*
X138153500Y-109985724D01*
X138153500Y-110040500D01*
X138133538Y-110115000D01*
X138079000Y-110169538D01*
X138004500Y-110189500D01*
X137628435Y-110189500D01*
X137573005Y-110204353D01*
X137552012Y-110209978D01*
X137552011Y-110209978D01*
X137552009Y-110209979D01*
X137483492Y-110249537D01*
X135936170Y-111796859D01*
X135869375Y-111835423D01*
X135830811Y-111840500D01*
X131984164Y-111840500D01*
X131907735Y-111860979D01*
X131848316Y-111895286D01*
X131848313Y-111895288D01*
X131839216Y-111900539D01*
X131839215Y-111900540D01*
X131249809Y-112489947D01*
X131224665Y-112504463D01*
X131201662Y-112522166D01*
X131191710Y-112523490D01*
X131183014Y-112528511D01*
X131153982Y-112528511D01*
X131125208Y-112532340D01*
X131117430Y-112528511D01*
X131105886Y-112528511D01*
X131053910Y-112502924D01*
X131046068Y-112496924D01*
X130986099Y-112436955D01*
X130842705Y-112341142D01*
X130842170Y-112340920D01*
X130836960Y-112336934D01*
X130816256Y-112310030D01*
X130793865Y-112284498D01*
X130792672Y-112279384D01*
X130789922Y-112275810D01*
X130787372Y-112256652D01*
X130778500Y-112218598D01*
X130778500Y-111515401D01*
X130798462Y-111440901D01*
X130844719Y-111391512D01*
X130846235Y-111390499D01*
X130986099Y-111297045D01*
X131108045Y-111175099D01*
X131203858Y-111031705D01*
X131269855Y-110872374D01*
X131281863Y-110812006D01*
X131315976Y-110742832D01*
X131380105Y-110699982D01*
X131457068Y-110694937D01*
X131526242Y-110729050D01*
X131569092Y-110793179D01*
X131574137Y-110812006D01*
X131586144Y-110872371D01*
X131586145Y-110872375D01*
X131652138Y-111031697D01*
X131652140Y-111031701D01*
X131652142Y-111031705D01*
X131747955Y-111175099D01*
X131869901Y-111297045D01*
X132013295Y-111392858D01*
X132172626Y-111458855D01*
X132341771Y-111492500D01*
X132514229Y-111492500D01*
X132683374Y-111458855D01*
X132842705Y-111392858D01*
X132986099Y-111297045D01*
X133108045Y-111175099D01*
X133203858Y-111031705D01*
X133213064Y-111009478D01*
X133260017Y-110948290D01*
X133331274Y-110918775D01*
X133350722Y-110917500D01*
X135802557Y-110917500D01*
X135802562Y-110917500D01*
X135878989Y-110897021D01*
X135947511Y-110857460D01*
X136003460Y-110801511D01*
X137654460Y-109150511D01*
X137694022Y-109081988D01*
X137714500Y-109005562D01*
X137714500Y-108926438D01*
X137714500Y-107953787D01*
X138154000Y-107953787D01*
X138154000Y-108308000D01*
X138804000Y-108308000D01*
X138804000Y-107558000D01*
X138549801Y-107558000D01*
X138549780Y-107558002D01*
X138519395Y-107560850D01*
X138391354Y-107605653D01*
X138282208Y-107686208D01*
X138201653Y-107795354D01*
X138156850Y-107923397D01*
X138154000Y-107953787D01*
X137714500Y-107953787D01*
X137714500Y-106358189D01*
X137719577Y-106339241D01*
X137719577Y-106319625D01*
X137729384Y-106302637D01*
X137734462Y-106283689D01*
X137758141Y-106252830D01*
X137830055Y-106180916D01*
X137902739Y-106108231D01*
X137969531Y-106069669D01*
X138046660Y-106069669D01*
X138113455Y-106108233D01*
G37*
%TD.AperFunction*%
%TA.AperFunction,Conductor*%
G36*
X121755413Y-108086462D02*
G01*
X121777897Y-108108946D01*
X121789227Y-108094956D01*
X121861232Y-108067316D01*
X121876806Y-108066500D01*
X124193811Y-108066500D01*
X124268311Y-108086462D01*
X124322849Y-108141000D01*
X124342811Y-108215500D01*
X124322849Y-108290000D01*
X124299170Y-108320859D01*
X122922170Y-109697859D01*
X122855375Y-109736423D01*
X122816811Y-109741500D01*
X122074263Y-109741500D01*
X121999763Y-109721538D01*
X121945225Y-109667000D01*
X121925263Y-109592500D01*
X121939383Y-109533699D01*
X121937840Y-109533060D01*
X121940081Y-109527647D01*
X121998450Y-109348006D01*
X121998451Y-109348006D01*
X122028000Y-109161438D01*
X122028000Y-108972561D01*
X121998451Y-108785993D01*
X121940083Y-108606357D01*
X121854330Y-108438061D01*
X121776372Y-108330758D01*
X121453687Y-108653443D01*
X121410563Y-108588903D01*
X121306097Y-108484437D01*
X121241554Y-108441311D01*
X121572725Y-108110141D01*
X121589712Y-108100333D01*
X121603584Y-108086462D01*
X121622532Y-108081384D01*
X121639520Y-108071577D01*
X121678084Y-108066500D01*
X121680913Y-108066500D01*
X121755413Y-108086462D01*
G37*
%TD.AperFunction*%
%TA.AperFunction,Conductor*%
G36*
X138079000Y-101158462D02*
G01*
X138133538Y-101213000D01*
X138153500Y-101287500D01*
X138153500Y-101342275D01*
X138156353Y-101372695D01*
X138156353Y-101372697D01*
X138156354Y-101372699D01*
X138163909Y-101394289D01*
X138201207Y-101500883D01*
X138281848Y-101610148D01*
X138281851Y-101610151D01*
X138391116Y-101690792D01*
X138391117Y-101690792D01*
X138391118Y-101690793D01*
X138519301Y-101735646D01*
X138521449Y-101735847D01*
X138523206Y-101736499D01*
X138528162Y-101737582D01*
X138528009Y-101738281D01*
X138593760Y-101762675D01*
X138642970Y-101822064D01*
X138655893Y-101898102D01*
X138636581Y-101958696D01*
X138588692Y-102041642D01*
X138554583Y-102168938D01*
X138554583Y-102300725D01*
X138588692Y-102428021D01*
X138637042Y-102511766D01*
X138657004Y-102586266D01*
X138637041Y-102660766D01*
X138582503Y-102715303D01*
X138528183Y-102732617D01*
X138528249Y-102732917D01*
X138525060Y-102733613D01*
X138521921Y-102734614D01*
X138519394Y-102734851D01*
X138391354Y-102779653D01*
X138282208Y-102860208D01*
X138201653Y-102969354D01*
X138156850Y-103097397D01*
X138154000Y-103127787D01*
X138154000Y-103482000D01*
X139753999Y-103482000D01*
X139753999Y-103127801D01*
X139753998Y-103127780D01*
X139751149Y-103097395D01*
X139706346Y-102969354D01*
X139625791Y-102860208D01*
X139549927Y-102804217D01*
X139501839Y-102743915D01*
X139490344Y-102667649D01*
X139518522Y-102595852D01*
X139578824Y-102547764D01*
X139638407Y-102535332D01*
X140268751Y-102535332D01*
X140343251Y-102555294D01*
X140397789Y-102609832D01*
X140417751Y-102684332D01*
X140397789Y-102758832D01*
X140357230Y-102804217D01*
X140281851Y-102859848D01*
X140281848Y-102859851D01*
X140201207Y-102969116D01*
X140156353Y-103097304D01*
X140153500Y-103127724D01*
X140153500Y-104136275D01*
X140156353Y-104166695D01*
X140158288Y-104175553D01*
X140156385Y-104175968D01*
X140157383Y-104189285D01*
X140163872Y-104213500D01*
X140160220Y-104227128D01*
X140161275Y-104241199D01*
X140150398Y-104263785D01*
X140143910Y-104288000D01*
X140133933Y-104297976D01*
X140127811Y-104310690D01*
X140107098Y-104324811D01*
X140089372Y-104342538D01*
X140075742Y-104346189D01*
X140064085Y-104354138D01*
X140014872Y-104362500D01*
X139892598Y-104362500D01*
X139818098Y-104342538D01*
X139763560Y-104288000D01*
X139743598Y-104213500D01*
X139750031Y-104175638D01*
X139749215Y-104175460D01*
X139751149Y-104166603D01*
X139753999Y-104136212D01*
X139754000Y-104136194D01*
X139754000Y-103782000D01*
X138154001Y-103782000D01*
X138154001Y-104136219D01*
X138156850Y-104166604D01*
X138196039Y-104278599D01*
X138201802Y-104355511D01*
X138168338Y-104425001D01*
X138160759Y-104433169D01*
X136952859Y-105641070D01*
X136886064Y-105679634D01*
X136808936Y-105679634D01*
X136742141Y-105641070D01*
X136703577Y-105574275D01*
X136698500Y-105535711D01*
X136698500Y-101532189D01*
X136718462Y-101457689D01*
X136742141Y-101426830D01*
X136986830Y-101182141D01*
X137053625Y-101143577D01*
X137092189Y-101138500D01*
X138004500Y-101138500D01*
X138079000Y-101158462D01*
G37*
%TD.AperFunction*%
%TD*%
M02*
