M48
; DRILL file {KiCad 9.0.6-9.0.6~ubuntu24.04.1} date 2026-01-17T19:07:37-0300
; FORMAT={-:-/ absolute / metric / decimal}
; #@! TF.CreationDate,2026-01-17T19:07:37-03:00
; #@! TF.GenerationSoftware,Kicad,Pcbnew,9.0.6-9.0.6~ubuntu24.04.1
; #@! TF.FileFunction,Plated,1,2,PTH
FMAT,2
METRIC
; #@! TA.AperFunction,Plated,PTH,ViaDrill
T1C0.300
; #@! TA.AperFunction,Plated,PTH,ComponentDrill
T2C0.750
; #@! TA.AperFunction,Plated,PTH,ComponentDrill
T3C1.000
; #@! TA.AperFunction,Plated,PTH,ComponentDrill
T4C1.500
%
G90
G05
T1
X134.239Y-111.379
X137.414Y-102.616
X138.43Y-107.188
X139.055Y-102.235
X139.655Y-107.188
X140.455Y-107.188
X140.843Y-111.887
X142.014Y-100.838
X142.014Y-105.664
X142.014Y-110.998
X142.014Y-115.687
X142.24Y-107.569
X142.367Y-102.997
X142.748Y-98.044
X143.764Y-97.409
X144.78Y-99.568
X144.78Y-104.394
X144.78Y-109.22
X144.78Y-114.046
X145.796Y-100.711
X145.796Y-105.537
X145.796Y-110.363
X145.796Y-115.062
X148.336Y-101.311
X148.336Y-106.137
X148.336Y-110.998
X148.336Y-115.697
X153.6Y-115.189
X153.67Y-100.711
X153.67Y-105.537
X153.67Y-110.363
X156.21Y-99.822
X156.21Y-104.648
X156.21Y-109.474
X156.21Y-114.3
T2
X122.428Y-110.617
X122.428Y-113.117
X124.428Y-110.617
X124.428Y-113.117
X126.428Y-110.617
X126.428Y-113.117
X128.428Y-110.617
X128.428Y-113.117
X130.428Y-110.617
X130.428Y-113.117
X132.428Y-110.617
X132.428Y-113.117
T3
X113.03Y-100.33
X113.03Y-102.87
X113.03Y-105.41
X113.03Y-107.95
X113.03Y-110.49
X113.03Y-113.03
X123.19Y-100.076
X123.19Y-102.616
X123.19Y-105.156
X127.0Y-100.076
X127.0Y-102.616
X127.0Y-105.156
X130.81Y-100.076
X130.81Y-102.616
X130.81Y-105.156
X134.62Y-100.076
X134.62Y-102.616
X134.62Y-105.156
T4
X120.828Y-109.067
X134.028Y-114.667
M30
