%TF.GenerationSoftware,KiCad,Pcbnew,9.0.6-9.0.6~ubuntu24.04.1*%
%TF.CreationDate,2026-01-17T19:07:13-03:00*%
%TF.ProjectId,cotti_leds,636f7474-695f-46c6-9564-732e6b696361,0.0*%
%TF.SameCoordinates,Original*%
%TF.FileFunction,Legend,Bot*%
%TF.FilePolarity,Positive*%
%FSLAX46Y46*%
G04 Gerber Fmt 4.6, Leading zero omitted, Abs format (unit mm)*
G04 Created by KiCad (PCBNEW 9.0.6-9.0.6~ubuntu24.04.1) date 2026-01-17 19:07:13*
%MOMM*%
%LPD*%
G01*
G04 APERTURE LIST*
%ADD10C,0.150000*%
%ADD11C,0.000000*%
G04 APERTURE END LIST*
D10*
X150856792Y-104644819D02*
X151190125Y-104168628D01*
X151428220Y-104644819D02*
X151428220Y-103644819D01*
X151428220Y-103644819D02*
X151047268Y-103644819D01*
X151047268Y-103644819D02*
X150952030Y-103692438D01*
X150952030Y-103692438D02*
X150904411Y-103740057D01*
X150904411Y-103740057D02*
X150856792Y-103835295D01*
X150856792Y-103835295D02*
X150856792Y-103978152D01*
X150856792Y-103978152D02*
X150904411Y-104073390D01*
X150904411Y-104073390D02*
X150952030Y-104121009D01*
X150952030Y-104121009D02*
X151047268Y-104168628D01*
X151047268Y-104168628D02*
X151428220Y-104168628D01*
X150047268Y-104597200D02*
X150142506Y-104644819D01*
X150142506Y-104644819D02*
X150332982Y-104644819D01*
X150332982Y-104644819D02*
X150428220Y-104597200D01*
X150428220Y-104597200D02*
X150475839Y-104501961D01*
X150475839Y-104501961D02*
X150475839Y-104121009D01*
X150475839Y-104121009D02*
X150428220Y-104025771D01*
X150428220Y-104025771D02*
X150332982Y-103978152D01*
X150332982Y-103978152D02*
X150142506Y-103978152D01*
X150142506Y-103978152D02*
X150047268Y-104025771D01*
X150047268Y-104025771D02*
X149999649Y-104121009D01*
X149999649Y-104121009D02*
X149999649Y-104216247D01*
X149999649Y-104216247D02*
X150475839Y-104311485D01*
X149666315Y-103978152D02*
X149428220Y-104644819D01*
X149428220Y-104644819D02*
X149190125Y-103978152D01*
X147856791Y-103644819D02*
X147761553Y-103644819D01*
X147761553Y-103644819D02*
X147666315Y-103692438D01*
X147666315Y-103692438D02*
X147618696Y-103740057D01*
X147618696Y-103740057D02*
X147571077Y-103835295D01*
X147571077Y-103835295D02*
X147523458Y-104025771D01*
X147523458Y-104025771D02*
X147523458Y-104263866D01*
X147523458Y-104263866D02*
X147571077Y-104454342D01*
X147571077Y-104454342D02*
X147618696Y-104549580D01*
X147618696Y-104549580D02*
X147666315Y-104597200D01*
X147666315Y-104597200D02*
X147761553Y-104644819D01*
X147761553Y-104644819D02*
X147856791Y-104644819D01*
X147856791Y-104644819D02*
X147952029Y-104597200D01*
X147952029Y-104597200D02*
X147999648Y-104549580D01*
X147999648Y-104549580D02*
X148047267Y-104454342D01*
X148047267Y-104454342D02*
X148094886Y-104263866D01*
X148094886Y-104263866D02*
X148094886Y-104025771D01*
X148094886Y-104025771D02*
X148047267Y-103835295D01*
X148047267Y-103835295D02*
X147999648Y-103740057D01*
X147999648Y-103740057D02*
X147952029Y-103692438D01*
X147952029Y-103692438D02*
X147856791Y-103644819D01*
X147094886Y-104549580D02*
X147047267Y-104597200D01*
X147047267Y-104597200D02*
X147094886Y-104644819D01*
X147094886Y-104644819D02*
X147142505Y-104597200D01*
X147142505Y-104597200D02*
X147094886Y-104549580D01*
X147094886Y-104549580D02*
X147094886Y-104644819D01*
X146428220Y-103644819D02*
X146332982Y-103644819D01*
X146332982Y-103644819D02*
X146237744Y-103692438D01*
X146237744Y-103692438D02*
X146190125Y-103740057D01*
X146190125Y-103740057D02*
X146142506Y-103835295D01*
X146142506Y-103835295D02*
X146094887Y-104025771D01*
X146094887Y-104025771D02*
X146094887Y-104263866D01*
X146094887Y-104263866D02*
X146142506Y-104454342D01*
X146142506Y-104454342D02*
X146190125Y-104549580D01*
X146190125Y-104549580D02*
X146237744Y-104597200D01*
X146237744Y-104597200D02*
X146332982Y-104644819D01*
X146332982Y-104644819D02*
X146428220Y-104644819D01*
X146428220Y-104644819D02*
X146523458Y-104597200D01*
X146523458Y-104597200D02*
X146571077Y-104549580D01*
X146571077Y-104549580D02*
X146618696Y-104454342D01*
X146618696Y-104454342D02*
X146666315Y-104263866D01*
X146666315Y-104263866D02*
X146666315Y-104025771D01*
X146666315Y-104025771D02*
X146618696Y-103835295D01*
X146618696Y-103835295D02*
X146571077Y-103740057D01*
X146571077Y-103740057D02*
X146523458Y-103692438D01*
X146523458Y-103692438D02*
X146428220Y-103644819D01*
G36*
X144796001Y-102176672D02*
G01*
X144824522Y-102233714D01*
X144824522Y-102314999D01*
X144498332Y-102249761D01*
X144498332Y-102233714D01*
X144526852Y-102176672D01*
X144583894Y-102148152D01*
X144738960Y-102148152D01*
X144796001Y-102176672D01*
G37*
G36*
X147093191Y-102182410D02*
G01*
X147123598Y-102212817D01*
X147157856Y-102281333D01*
X147157856Y-102531637D01*
X147123597Y-102600153D01*
X147093190Y-102630561D01*
X147024675Y-102664819D01*
X146869609Y-102664819D01*
X146831666Y-102645847D01*
X146831666Y-102167123D01*
X146869609Y-102148152D01*
X147024675Y-102148152D01*
X147093191Y-102182410D01*
G37*
G36*
X147997953Y-102182410D02*
G01*
X148028360Y-102212817D01*
X148062618Y-102281333D01*
X148062618Y-102531637D01*
X148028359Y-102600153D01*
X147997952Y-102630561D01*
X147929437Y-102664819D01*
X147821990Y-102664819D01*
X147753474Y-102630561D01*
X147723067Y-102600153D01*
X147688809Y-102531637D01*
X147688809Y-102281333D01*
X147723067Y-102212817D01*
X147753474Y-102182410D01*
X147821990Y-102148152D01*
X147929437Y-102148152D01*
X147997953Y-102182410D01*
G37*
G36*
X150919761Y-102664819D02*
G01*
X150768836Y-102664819D01*
X150654323Y-102626648D01*
X150580210Y-102552534D01*
X150541716Y-102475547D01*
X150498333Y-102302013D01*
X150498333Y-102177624D01*
X150541716Y-102004090D01*
X150580210Y-101927103D01*
X150654323Y-101852990D01*
X150768836Y-101814819D01*
X150919761Y-101814819D01*
X150919761Y-102664819D01*
G37*
G36*
X152895158Y-102925930D02*
G01*
X144237221Y-102925930D01*
X144237221Y-102216009D01*
X144348332Y-102216009D01*
X144348332Y-102311247D01*
X144349773Y-102325879D01*
X144352584Y-102332667D01*
X144354011Y-102339876D01*
X144358130Y-102346055D01*
X144360972Y-102352915D01*
X144366167Y-102358110D01*
X144370243Y-102364224D01*
X144376413Y-102368356D01*
X144381664Y-102373607D01*
X144388452Y-102376418D01*
X144394558Y-102380508D01*
X144408623Y-102384791D01*
X144824522Y-102467969D01*
X144824522Y-102579256D01*
X144796001Y-102636298D01*
X144738960Y-102664819D01*
X144583894Y-102664819D01*
X144504492Y-102625118D01*
X144490760Y-102619863D01*
X144461570Y-102617789D01*
X144433809Y-102627043D01*
X144411701Y-102646216D01*
X144398614Y-102672391D01*
X144396540Y-102701581D01*
X144405794Y-102729342D01*
X144424967Y-102751450D01*
X144437410Y-102759282D01*
X144532648Y-102806901D01*
X144546379Y-102812156D01*
X144549068Y-102812347D01*
X144551557Y-102813378D01*
X144566189Y-102814819D01*
X144756665Y-102814819D01*
X144771297Y-102813378D01*
X144773786Y-102812346D01*
X144776474Y-102812156D01*
X144790206Y-102806901D01*
X144885444Y-102759282D01*
X144887891Y-102757741D01*
X144889045Y-102757357D01*
X144890481Y-102756111D01*
X144897887Y-102751450D01*
X144904048Y-102744345D01*
X144911153Y-102738184D01*
X144915814Y-102730778D01*
X144916109Y-102730438D01*
X145158445Y-102730438D01*
X145160519Y-102759628D01*
X145173606Y-102785803D01*
X145195714Y-102804976D01*
X145223475Y-102814230D01*
X145252665Y-102812156D01*
X145266397Y-102806901D01*
X145361635Y-102759282D01*
X145364082Y-102757741D01*
X145365236Y-102757357D01*
X145366672Y-102756111D01*
X145374078Y-102751450D01*
X145380239Y-102744345D01*
X145387344Y-102738184D01*
X145392005Y-102730778D01*
X145393251Y-102729342D01*
X145393635Y-102728188D01*
X145395176Y-102725741D01*
X145442795Y-102630502D01*
X145448050Y-102616770D01*
X145448240Y-102614082D01*
X145449272Y-102611593D01*
X145450713Y-102596961D01*
X145450713Y-102073152D01*
X145776904Y-102073152D01*
X145776904Y-102739819D01*
X145778345Y-102754451D01*
X145789544Y-102781487D01*
X145810236Y-102802179D01*
X145837272Y-102813378D01*
X145866536Y-102813378D01*
X145893572Y-102802179D01*
X145912973Y-102782777D01*
X145961220Y-102806901D01*
X145974951Y-102812156D01*
X145977640Y-102812347D01*
X145980129Y-102813378D01*
X145994761Y-102814819D01*
X146137618Y-102814819D01*
X146152250Y-102813378D01*
X146154739Y-102812346D01*
X146157427Y-102812156D01*
X146171159Y-102806901D01*
X146266397Y-102759282D01*
X146268844Y-102757741D01*
X146269998Y-102757357D01*
X146271434Y-102756111D01*
X146278840Y-102751450D01*
X146285001Y-102744345D01*
X146292106Y-102738184D01*
X146296767Y-102730778D01*
X146298013Y-102729342D01*
X146298397Y-102728188D01*
X146299938Y-102725741D01*
X146347557Y-102630502D01*
X146352812Y-102616770D01*
X146353002Y-102614082D01*
X146354034Y-102611593D01*
X146355475Y-102596961D01*
X146355475Y-102073152D01*
X146354034Y-102058520D01*
X146342835Y-102031484D01*
X146322143Y-102010792D01*
X146295107Y-101999593D01*
X146265843Y-101999593D01*
X146238807Y-102010792D01*
X146218115Y-102031484D01*
X146206916Y-102058520D01*
X146205475Y-102073152D01*
X146205475Y-102579256D01*
X146176954Y-102636298D01*
X146119913Y-102664819D01*
X146012466Y-102664819D01*
X145943950Y-102630561D01*
X145926904Y-102613514D01*
X145926904Y-102073152D01*
X145925463Y-102058520D01*
X145914264Y-102031484D01*
X145893572Y-102010792D01*
X145866536Y-101999593D01*
X145837272Y-101999593D01*
X145810236Y-102010792D01*
X145789544Y-102031484D01*
X145778345Y-102058520D01*
X145776904Y-102073152D01*
X145450713Y-102073152D01*
X145450713Y-101739819D01*
X146681666Y-101739819D01*
X146681666Y-102739819D01*
X146683107Y-102754451D01*
X146694306Y-102781487D01*
X146714998Y-102802179D01*
X146742034Y-102813378D01*
X146771298Y-102813378D01*
X146798334Y-102802179D01*
X146801862Y-102798650D01*
X146818363Y-102806901D01*
X146832094Y-102812156D01*
X146834783Y-102812347D01*
X146837272Y-102813378D01*
X146851904Y-102814819D01*
X147042380Y-102814819D01*
X147057012Y-102813378D01*
X147059501Y-102812346D01*
X147062189Y-102812156D01*
X147075921Y-102806901D01*
X147171159Y-102759282D01*
X147177458Y-102755317D01*
X147179286Y-102754560D01*
X147181342Y-102752872D01*
X147183602Y-102751450D01*
X147184902Y-102749950D01*
X147190652Y-102745232D01*
X147238270Y-102697613D01*
X147242988Y-102691863D01*
X147244487Y-102690564D01*
X147245908Y-102688305D01*
X147247598Y-102686247D01*
X147248355Y-102684417D01*
X147252319Y-102678121D01*
X147299938Y-102582883D01*
X147305193Y-102569152D01*
X147305384Y-102566462D01*
X147306415Y-102563974D01*
X147307856Y-102549342D01*
X147307856Y-102263628D01*
X147538809Y-102263628D01*
X147538809Y-102549342D01*
X147540250Y-102563974D01*
X147541281Y-102566463D01*
X147541472Y-102569151D01*
X147546727Y-102582883D01*
X147594346Y-102678121D01*
X147598309Y-102684417D01*
X147599067Y-102686247D01*
X147600756Y-102688305D01*
X147602178Y-102690564D01*
X147603676Y-102691863D01*
X147608394Y-102697612D01*
X147656013Y-102745232D01*
X147661762Y-102749950D01*
X147663063Y-102751450D01*
X147665322Y-102752872D01*
X147667379Y-102754560D01*
X147669206Y-102755317D01*
X147675506Y-102759282D01*
X147770744Y-102806901D01*
X147784475Y-102812156D01*
X147787164Y-102812347D01*
X147789653Y-102813378D01*
X147804285Y-102814819D01*
X147947142Y-102814819D01*
X147961774Y-102813378D01*
X147964263Y-102812346D01*
X147966951Y-102812156D01*
X147980683Y-102806901D01*
X148075921Y-102759282D01*
X148082220Y-102755317D01*
X148084048Y-102754560D01*
X148086104Y-102752872D01*
X148088364Y-102751450D01*
X148089664Y-102749950D01*
X148095414Y-102745232D01*
X148143032Y-102697613D01*
X148147750Y-102691863D01*
X148149249Y-102690564D01*
X148150670Y-102688305D01*
X148152360Y-102686247D01*
X148153117Y-102684417D01*
X148157081Y-102678121D01*
X148204700Y-102582883D01*
X148209955Y-102569152D01*
X148210146Y-102566462D01*
X148211177Y-102563974D01*
X148212618Y-102549342D01*
X148212618Y-102263628D01*
X148211177Y-102248996D01*
X148210146Y-102246507D01*
X148209955Y-102243818D01*
X148204700Y-102230087D01*
X148157081Y-102134849D01*
X148153116Y-102128549D01*
X148152359Y-102126722D01*
X148150670Y-102124665D01*
X148149249Y-102122406D01*
X148147750Y-102121106D01*
X148143032Y-102115357D01*
X148095413Y-102067738D01*
X148089663Y-102063019D01*
X148088364Y-102061521D01*
X148086104Y-102060099D01*
X148084048Y-102058411D01*
X148082220Y-102057653D01*
X148075921Y-102053689D01*
X147980683Y-102006070D01*
X147966951Y-102000815D01*
X147964263Y-102000624D01*
X147961774Y-101999593D01*
X147947142Y-101998152D01*
X147804285Y-101998152D01*
X147789653Y-101999593D01*
X147787164Y-102000623D01*
X147784475Y-102000815D01*
X147770744Y-102006070D01*
X147675506Y-102053689D01*
X147669206Y-102057653D01*
X147667379Y-102058411D01*
X147665322Y-102060099D01*
X147663063Y-102061521D01*
X147661763Y-102063019D01*
X147656014Y-102067738D01*
X147608395Y-102115357D01*
X147603676Y-102121106D01*
X147602178Y-102122406D01*
X147600756Y-102124665D01*
X147599068Y-102126722D01*
X147598310Y-102128549D01*
X147594346Y-102134849D01*
X147546727Y-102230087D01*
X147541472Y-102243819D01*
X147541281Y-102246506D01*
X147540250Y-102248996D01*
X147538809Y-102263628D01*
X147307856Y-102263628D01*
X147306415Y-102248996D01*
X147305384Y-102246507D01*
X147305193Y-102243818D01*
X147299938Y-102230087D01*
X147252319Y-102134849D01*
X147248354Y-102128549D01*
X147247597Y-102126722D01*
X147245908Y-102124665D01*
X147244487Y-102122406D01*
X147242988Y-102121106D01*
X147238270Y-102115357D01*
X147190651Y-102067738D01*
X147184901Y-102063019D01*
X147183602Y-102061521D01*
X147181342Y-102060099D01*
X147179286Y-102058411D01*
X147177458Y-102057653D01*
X147171159Y-102053689D01*
X147075921Y-102006070D01*
X147062189Y-102000815D01*
X147059501Y-102000624D01*
X147057012Y-101999593D01*
X147042380Y-101998152D01*
X146851904Y-101998152D01*
X146837272Y-101999593D01*
X146834783Y-102000623D01*
X146832094Y-102000815D01*
X146831666Y-102000978D01*
X146831666Y-101739819D01*
X148491190Y-101739819D01*
X148491190Y-102739819D01*
X148492631Y-102754451D01*
X148503830Y-102781487D01*
X148524522Y-102802179D01*
X148551558Y-102813378D01*
X148580822Y-102813378D01*
X148607858Y-102802179D01*
X148628550Y-102781487D01*
X148639749Y-102754451D01*
X148641190Y-102739819D01*
X148641190Y-102077886D01*
X148831559Y-102485821D01*
X148834733Y-102491180D01*
X148835393Y-102492993D01*
X148836567Y-102494275D01*
X148839053Y-102498471D01*
X148847462Y-102506171D01*
X148855157Y-102514574D01*
X148858175Y-102515982D01*
X148860634Y-102518234D01*
X148871346Y-102522129D01*
X148881675Y-102526950D01*
X148885003Y-102527096D01*
X148888135Y-102528235D01*
X148899529Y-102527734D01*
X148910911Y-102528234D01*
X148914039Y-102527096D01*
X148917371Y-102526950D01*
X148927706Y-102522126D01*
X148938412Y-102518234D01*
X148940867Y-102515984D01*
X148943889Y-102514575D01*
X148951590Y-102506164D01*
X148959993Y-102498470D01*
X148962476Y-102494277D01*
X148963653Y-102492993D01*
X148964313Y-102491177D01*
X148967487Y-102485820D01*
X149157856Y-102077886D01*
X149157856Y-102739819D01*
X149159297Y-102754451D01*
X149170496Y-102781487D01*
X149191188Y-102802179D01*
X149218224Y-102813378D01*
X149247488Y-102813378D01*
X149274524Y-102802179D01*
X149295216Y-102781487D01*
X149306415Y-102754451D01*
X149307856Y-102739819D01*
X149307856Y-102168390D01*
X150348333Y-102168390D01*
X150348333Y-102311247D01*
X150348584Y-102313800D01*
X150348422Y-102314893D01*
X150349231Y-102320366D01*
X150349774Y-102325879D01*
X150350196Y-102326900D01*
X150350572Y-102329437D01*
X150398191Y-102519913D01*
X150398576Y-102520992D01*
X150398615Y-102521532D01*
X150400942Y-102527613D01*
X150403138Y-102533759D01*
X150403460Y-102534194D01*
X150403870Y-102535264D01*
X150451489Y-102630502D01*
X150455452Y-102636798D01*
X150456210Y-102638628D01*
X150457899Y-102640686D01*
X150459321Y-102642945D01*
X150460819Y-102644244D01*
X150465538Y-102649994D01*
X150560776Y-102745233D01*
X150572141Y-102754561D01*
X150574631Y-102755592D01*
X150576666Y-102757357D01*
X150590092Y-102763351D01*
X150732948Y-102810970D01*
X150740203Y-102812619D01*
X150742034Y-102813378D01*
X150744687Y-102813639D01*
X150747285Y-102814230D01*
X150749259Y-102814089D01*
X150756666Y-102814819D01*
X150994761Y-102814819D01*
X151009393Y-102813378D01*
X151036429Y-102802179D01*
X151057121Y-102781487D01*
X151068320Y-102754451D01*
X151069761Y-102739819D01*
X151069761Y-101739819D01*
X151068320Y-101725187D01*
X151349774Y-101725187D01*
X151349774Y-101754451D01*
X151360973Y-101781487D01*
X151381665Y-101802179D01*
X151408701Y-101813378D01*
X151423333Y-101814819D01*
X151824523Y-101814819D01*
X151824523Y-102141009D01*
X151566190Y-102141009D01*
X151551558Y-102142450D01*
X151524522Y-102153649D01*
X151503830Y-102174341D01*
X151492631Y-102201377D01*
X151492631Y-102230641D01*
X151503830Y-102257677D01*
X151524522Y-102278369D01*
X151551558Y-102289568D01*
X151566190Y-102291009D01*
X151824523Y-102291009D01*
X151824523Y-102664819D01*
X151423333Y-102664819D01*
X151408701Y-102666260D01*
X151381665Y-102677459D01*
X151360973Y-102698151D01*
X151349774Y-102725187D01*
X151349774Y-102754451D01*
X151360973Y-102781487D01*
X151381665Y-102802179D01*
X151408701Y-102813378D01*
X151423333Y-102814819D01*
X151899523Y-102814819D01*
X151914155Y-102813378D01*
X151941191Y-102802179D01*
X151961883Y-102781487D01*
X151973082Y-102754451D01*
X151974523Y-102739819D01*
X151974523Y-102725187D01*
X152159298Y-102725187D01*
X152159298Y-102754451D01*
X152170497Y-102781487D01*
X152191189Y-102802179D01*
X152218225Y-102813378D01*
X152232857Y-102814819D01*
X152709047Y-102814819D01*
X152723679Y-102813378D01*
X152750715Y-102802179D01*
X152771407Y-102781487D01*
X152782606Y-102754451D01*
X152784047Y-102739819D01*
X152784047Y-101739819D01*
X152782606Y-101725187D01*
X152771407Y-101698151D01*
X152750715Y-101677459D01*
X152723679Y-101666260D01*
X152694415Y-101666260D01*
X152667379Y-101677459D01*
X152646687Y-101698151D01*
X152635488Y-101725187D01*
X152634047Y-101739819D01*
X152634047Y-102664819D01*
X152232857Y-102664819D01*
X152218225Y-102666260D01*
X152191189Y-102677459D01*
X152170497Y-102698151D01*
X152159298Y-102725187D01*
X151974523Y-102725187D01*
X151974523Y-101739819D01*
X151973082Y-101725187D01*
X151961883Y-101698151D01*
X151941191Y-101677459D01*
X151914155Y-101666260D01*
X151899523Y-101664819D01*
X151423333Y-101664819D01*
X151408701Y-101666260D01*
X151381665Y-101677459D01*
X151360973Y-101698151D01*
X151349774Y-101725187D01*
X151068320Y-101725187D01*
X151057121Y-101698151D01*
X151036429Y-101677459D01*
X151009393Y-101666260D01*
X150994761Y-101664819D01*
X150756666Y-101664819D01*
X150749259Y-101665548D01*
X150747285Y-101665408D01*
X150744687Y-101665998D01*
X150742034Y-101666260D01*
X150740203Y-101667018D01*
X150732948Y-101668668D01*
X150590092Y-101716287D01*
X150576666Y-101722281D01*
X150574631Y-101724045D01*
X150572141Y-101725077D01*
X150560776Y-101734405D01*
X150465538Y-101829643D01*
X150460819Y-101835392D01*
X150459321Y-101836692D01*
X150457899Y-101838951D01*
X150456211Y-101841008D01*
X150455453Y-101842835D01*
X150451489Y-101849135D01*
X150403870Y-101944373D01*
X150403460Y-101945442D01*
X150403138Y-101945878D01*
X150400942Y-101952023D01*
X150398615Y-101958105D01*
X150398576Y-101958644D01*
X150398191Y-101959724D01*
X150350572Y-102150200D01*
X150350196Y-102152736D01*
X150349774Y-102153758D01*
X150349231Y-102159270D01*
X150348422Y-102164744D01*
X150348584Y-102165836D01*
X150348333Y-102168390D01*
X149307856Y-102168390D01*
X149307856Y-101739819D01*
X149306908Y-101730197D01*
X149306986Y-101728431D01*
X149306641Y-101727482D01*
X149306415Y-101725187D01*
X149301433Y-101713160D01*
X149296986Y-101700930D01*
X149295856Y-101699696D01*
X149295216Y-101698151D01*
X149286016Y-101688951D01*
X149277222Y-101679348D01*
X149275705Y-101678640D01*
X149274524Y-101677459D01*
X149262511Y-101672482D01*
X149250704Y-101666973D01*
X149249031Y-101666899D01*
X149247488Y-101666260D01*
X149234482Y-101666260D01*
X149221468Y-101665688D01*
X149219895Y-101666260D01*
X149218224Y-101666260D01*
X149206205Y-101671238D01*
X149193967Y-101675689D01*
X149192733Y-101676819D01*
X149191188Y-101677459D01*
X149181989Y-101686657D01*
X149172386Y-101695452D01*
X149171210Y-101697436D01*
X149170496Y-101698151D01*
X149169819Y-101699784D01*
X149164892Y-101708102D01*
X148899522Y-102276750D01*
X148634154Y-101708103D01*
X148629228Y-101699787D01*
X148628550Y-101698151D01*
X148627834Y-101697435D01*
X148626660Y-101695453D01*
X148617063Y-101686664D01*
X148607858Y-101677459D01*
X148606312Y-101676818D01*
X148605079Y-101675689D01*
X148592848Y-101671241D01*
X148580822Y-101666260D01*
X148579148Y-101666260D01*
X148577578Y-101665689D01*
X148564577Y-101666260D01*
X148551558Y-101666260D01*
X148550013Y-101666899D01*
X148548342Y-101666973D01*
X148536543Y-101672479D01*
X148524522Y-101677459D01*
X148523339Y-101678641D01*
X148521824Y-101679349D01*
X148513035Y-101688945D01*
X148503830Y-101698151D01*
X148503189Y-101699696D01*
X148502060Y-101700930D01*
X148497612Y-101713160D01*
X148492631Y-101725187D01*
X148492404Y-101727482D01*
X148492060Y-101728431D01*
X148492137Y-101730197D01*
X148491190Y-101739819D01*
X146831666Y-101739819D01*
X146830225Y-101725187D01*
X146819026Y-101698151D01*
X146798334Y-101677459D01*
X146771298Y-101666260D01*
X146742034Y-101666260D01*
X146714998Y-101677459D01*
X146694306Y-101698151D01*
X146683107Y-101725187D01*
X146681666Y-101739819D01*
X145450713Y-101739819D01*
X145449272Y-101725187D01*
X145438073Y-101698151D01*
X145417381Y-101677459D01*
X145390345Y-101666260D01*
X145361081Y-101666260D01*
X145334045Y-101677459D01*
X145313353Y-101698151D01*
X145302154Y-101725187D01*
X145300713Y-101739819D01*
X145300713Y-102579256D01*
X145272192Y-102636298D01*
X145199315Y-102672737D01*
X145186872Y-102680569D01*
X145167699Y-102702677D01*
X145158445Y-102730438D01*
X144916109Y-102730438D01*
X144917060Y-102729342D01*
X144917444Y-102728188D01*
X144918985Y-102725741D01*
X144966604Y-102630502D01*
X144971859Y-102616770D01*
X144972049Y-102614082D01*
X144973081Y-102611593D01*
X144974522Y-102596961D01*
X144974522Y-102216009D01*
X144973081Y-102201377D01*
X144972050Y-102198888D01*
X144971859Y-102196199D01*
X144966604Y-102182468D01*
X144918985Y-102087230D01*
X144917444Y-102084782D01*
X144917060Y-102083629D01*
X144915814Y-102082192D01*
X144911153Y-102074787D01*
X144904048Y-102068625D01*
X144897887Y-102061521D01*
X144890481Y-102056859D01*
X144889045Y-102055614D01*
X144887891Y-102055229D01*
X144885444Y-102053689D01*
X144790206Y-102006070D01*
X144776474Y-102000815D01*
X144773786Y-102000624D01*
X144771297Y-101999593D01*
X144756665Y-101998152D01*
X144566189Y-101998152D01*
X144551557Y-101999593D01*
X144549068Y-102000623D01*
X144546379Y-102000815D01*
X144532648Y-102006070D01*
X144437410Y-102053689D01*
X144434962Y-102055229D01*
X144433809Y-102055614D01*
X144432372Y-102056859D01*
X144424967Y-102061521D01*
X144418805Y-102068625D01*
X144411701Y-102074787D01*
X144407039Y-102082192D01*
X144405794Y-102083629D01*
X144405409Y-102084782D01*
X144403869Y-102087230D01*
X144356250Y-102182468D01*
X144350995Y-102196200D01*
X144350804Y-102198887D01*
X144349773Y-102201377D01*
X144348332Y-102216009D01*
X144237221Y-102216009D01*
X144237221Y-101553708D01*
X152895158Y-101553708D01*
X152895158Y-102925930D01*
G37*
D11*
%TO.C,REF\u002A\u002A*%
G36*
X139360749Y-114542500D02*
G01*
X138494723Y-114542500D01*
X141309306Y-109667500D01*
X142175331Y-109667500D01*
X139360749Y-114542500D01*
G37*
G36*
X154625277Y-109542500D02*
G01*
X151738525Y-114542500D01*
X149863525Y-114542500D01*
X150296538Y-113792500D01*
X151305513Y-113792500D01*
X153875277Y-109341538D01*
X153875277Y-107792500D01*
X152317264Y-107792500D01*
X152750277Y-107042500D01*
X154625277Y-107042500D01*
X154625277Y-109542500D01*
G37*
G36*
X143690876Y-107042500D02*
G01*
X148681901Y-107042500D01*
X148248888Y-107792500D01*
X147239914Y-107792500D01*
X143342799Y-114542500D01*
X142476774Y-114542500D01*
X146373888Y-107792500D01*
X145248888Y-107792500D01*
X141351774Y-114542500D01*
X140485749Y-114542500D01*
X144382863Y-107792500D01*
X142391837Y-107792500D01*
X143907382Y-105167500D01*
X144773407Y-105167500D01*
X143690876Y-107042500D01*
G37*
G36*
X151306901Y-109542500D02*
G01*
X148420150Y-114542500D01*
X146545150Y-114542500D01*
X146545150Y-112243462D01*
X147295150Y-112243462D01*
X147295150Y-113792500D01*
X147987137Y-113792500D01*
X150556901Y-109341538D01*
X150556901Y-107792500D01*
X149864914Y-107792500D01*
X147295150Y-112243462D01*
X146545150Y-112243462D01*
X146545150Y-112042500D01*
X149431901Y-107042500D01*
X151306901Y-107042500D01*
X151306901Y-109542500D01*
G37*
%TD*%
M02*
