%TF.GenerationSoftware,KiCad,Pcbnew,9.0.6-9.0.6~ubuntu24.04.1*%
%TF.CreationDate,2026-01-17T19:07:13-03:00*%
%TF.ProjectId,cotti_leds,636f7474-695f-46c6-9564-732e6b696361,0.0*%
%TF.SameCoordinates,Original*%
%TF.FileFunction,Legend,Top*%
%TF.FilePolarity,Positive*%
%FSLAX46Y46*%
G04 Gerber Fmt 4.6, Leading zero omitted, Abs format (unit mm)*
G04 Created by KiCad (PCBNEW 9.0.6-9.0.6~ubuntu24.04.1) date 2026-01-17 19:07:13*
%MOMM*%
%LPD*%
G01*
G04 APERTURE LIST*
%ADD10C,0.150000*%
%ADD11C,0.120000*%
%ADD12C,0.100000*%
G04 APERTURE END LIST*
D10*
X114636779Y-108581819D02*
X114636779Y-107581819D01*
X114636779Y-107581819D02*
X114874874Y-107581819D01*
X114874874Y-107581819D02*
X115017731Y-107629438D01*
X115017731Y-107629438D02*
X115112969Y-107724676D01*
X115112969Y-107724676D02*
X115160588Y-107819914D01*
X115160588Y-107819914D02*
X115208207Y-108010390D01*
X115208207Y-108010390D02*
X115208207Y-108153247D01*
X115208207Y-108153247D02*
X115160588Y-108343723D01*
X115160588Y-108343723D02*
X115112969Y-108438961D01*
X115112969Y-108438961D02*
X115017731Y-108534200D01*
X115017731Y-108534200D02*
X114874874Y-108581819D01*
X114874874Y-108581819D02*
X114636779Y-108581819D01*
X116065350Y-107915152D02*
X116065350Y-108581819D01*
X115827255Y-107534200D02*
X115589160Y-108248485D01*
X115589160Y-108248485D02*
X116208207Y-108248485D01*
X117380000Y-104146160D02*
X117856190Y-104146160D01*
X117284762Y-104431875D02*
X117618095Y-103431875D01*
X117618095Y-103431875D02*
X117951428Y-104431875D01*
X118713333Y-104384256D02*
X118618095Y-104431875D01*
X118618095Y-104431875D02*
X118427619Y-104431875D01*
X118427619Y-104431875D02*
X118332381Y-104384256D01*
X118332381Y-104384256D02*
X118284762Y-104336636D01*
X118284762Y-104336636D02*
X118237143Y-104241398D01*
X118237143Y-104241398D02*
X118237143Y-103955684D01*
X118237143Y-103955684D02*
X118284762Y-103860446D01*
X118284762Y-103860446D02*
X118332381Y-103812827D01*
X118332381Y-103812827D02*
X118427619Y-103765208D01*
X118427619Y-103765208D02*
X118618095Y-103765208D01*
X118618095Y-103765208D02*
X118713333Y-103812827D01*
X118999048Y-103765208D02*
X119380000Y-103765208D01*
X119141905Y-103431875D02*
X119141905Y-104289017D01*
X119141905Y-104289017D02*
X119189524Y-104384256D01*
X119189524Y-104384256D02*
X119284762Y-104431875D01*
X119284762Y-104431875D02*
X119380000Y-104431875D01*
X119713334Y-104431875D02*
X119713334Y-103765208D01*
X119713334Y-103431875D02*
X119665715Y-103479494D01*
X119665715Y-103479494D02*
X119713334Y-103527113D01*
X119713334Y-103527113D02*
X119760953Y-103479494D01*
X119760953Y-103479494D02*
X119713334Y-103431875D01*
X119713334Y-103431875D02*
X119713334Y-103527113D01*
X120094286Y-103765208D02*
X120332381Y-104431875D01*
X120332381Y-104431875D02*
X120570476Y-103765208D01*
X121332381Y-104384256D02*
X121237143Y-104431875D01*
X121237143Y-104431875D02*
X121046667Y-104431875D01*
X121046667Y-104431875D02*
X120951429Y-104384256D01*
X120951429Y-104384256D02*
X120903810Y-104289017D01*
X120903810Y-104289017D02*
X120903810Y-103908065D01*
X120903810Y-103908065D02*
X120951429Y-103812827D01*
X120951429Y-103812827D02*
X121046667Y-103765208D01*
X121046667Y-103765208D02*
X121237143Y-103765208D01*
X121237143Y-103765208D02*
X121332381Y-103812827D01*
X121332381Y-103812827D02*
X121380000Y-103908065D01*
X121380000Y-103908065D02*
X121380000Y-104003303D01*
X121380000Y-104003303D02*
X120903810Y-104098541D01*
X118713333Y-106041819D02*
X118237143Y-106041819D01*
X118237143Y-106041819D02*
X118237143Y-105041819D01*
X119189524Y-106041819D02*
X119094286Y-105994200D01*
X119094286Y-105994200D02*
X119046667Y-105946580D01*
X119046667Y-105946580D02*
X118999048Y-105851342D01*
X118999048Y-105851342D02*
X118999048Y-105565628D01*
X118999048Y-105565628D02*
X119046667Y-105470390D01*
X119046667Y-105470390D02*
X119094286Y-105422771D01*
X119094286Y-105422771D02*
X119189524Y-105375152D01*
X119189524Y-105375152D02*
X119332381Y-105375152D01*
X119332381Y-105375152D02*
X119427619Y-105422771D01*
X119427619Y-105422771D02*
X119475238Y-105470390D01*
X119475238Y-105470390D02*
X119522857Y-105565628D01*
X119522857Y-105565628D02*
X119522857Y-105851342D01*
X119522857Y-105851342D02*
X119475238Y-105946580D01*
X119475238Y-105946580D02*
X119427619Y-105994200D01*
X119427619Y-105994200D02*
X119332381Y-106041819D01*
X119332381Y-106041819D02*
X119189524Y-106041819D01*
X119856191Y-105375152D02*
X120046667Y-106041819D01*
X120046667Y-106041819D02*
X120237143Y-105565628D01*
X120237143Y-105565628D02*
X120427619Y-106041819D01*
X120427619Y-106041819D02*
X120618095Y-105375152D01*
X114636779Y-106041819D02*
X114636779Y-105041819D01*
X114636779Y-105041819D02*
X114874874Y-105041819D01*
X114874874Y-105041819D02*
X115017731Y-105089438D01*
X115017731Y-105089438D02*
X115112969Y-105184676D01*
X115112969Y-105184676D02*
X115160588Y-105279914D01*
X115160588Y-105279914D02*
X115208207Y-105470390D01*
X115208207Y-105470390D02*
X115208207Y-105613247D01*
X115208207Y-105613247D02*
X115160588Y-105803723D01*
X115160588Y-105803723D02*
X115112969Y-105898961D01*
X115112969Y-105898961D02*
X115017731Y-105994200D01*
X115017731Y-105994200D02*
X114874874Y-106041819D01*
X114874874Y-106041819D02*
X114636779Y-106041819D01*
X115541541Y-105041819D02*
X116160588Y-105041819D01*
X116160588Y-105041819D02*
X115827255Y-105422771D01*
X115827255Y-105422771D02*
X115970112Y-105422771D01*
X115970112Y-105422771D02*
X116065350Y-105470390D01*
X116065350Y-105470390D02*
X116112969Y-105518009D01*
X116112969Y-105518009D02*
X116160588Y-105613247D01*
X116160588Y-105613247D02*
X116160588Y-105851342D01*
X116160588Y-105851342D02*
X116112969Y-105946580D01*
X116112969Y-105946580D02*
X116065350Y-105994200D01*
X116065350Y-105994200D02*
X115970112Y-106041819D01*
X115970112Y-106041819D02*
X115684398Y-106041819D01*
X115684398Y-106041819D02*
X115589160Y-105994200D01*
X115589160Y-105994200D02*
X115541541Y-105946580D01*
X117380000Y-99574160D02*
X117856190Y-99574160D01*
X117284762Y-99859875D02*
X117618095Y-98859875D01*
X117618095Y-98859875D02*
X117951428Y-99859875D01*
X118713333Y-99812256D02*
X118618095Y-99859875D01*
X118618095Y-99859875D02*
X118427619Y-99859875D01*
X118427619Y-99859875D02*
X118332381Y-99812256D01*
X118332381Y-99812256D02*
X118284762Y-99764636D01*
X118284762Y-99764636D02*
X118237143Y-99669398D01*
X118237143Y-99669398D02*
X118237143Y-99383684D01*
X118237143Y-99383684D02*
X118284762Y-99288446D01*
X118284762Y-99288446D02*
X118332381Y-99240827D01*
X118332381Y-99240827D02*
X118427619Y-99193208D01*
X118427619Y-99193208D02*
X118618095Y-99193208D01*
X118618095Y-99193208D02*
X118713333Y-99240827D01*
X118999048Y-99193208D02*
X119380000Y-99193208D01*
X119141905Y-98859875D02*
X119141905Y-99717017D01*
X119141905Y-99717017D02*
X119189524Y-99812256D01*
X119189524Y-99812256D02*
X119284762Y-99859875D01*
X119284762Y-99859875D02*
X119380000Y-99859875D01*
X119713334Y-99859875D02*
X119713334Y-99193208D01*
X119713334Y-98859875D02*
X119665715Y-98907494D01*
X119665715Y-98907494D02*
X119713334Y-98955113D01*
X119713334Y-98955113D02*
X119760953Y-98907494D01*
X119760953Y-98907494D02*
X119713334Y-98859875D01*
X119713334Y-98859875D02*
X119713334Y-98955113D01*
X120094286Y-99193208D02*
X120332381Y-99859875D01*
X120332381Y-99859875D02*
X120570476Y-99193208D01*
X121332381Y-99812256D02*
X121237143Y-99859875D01*
X121237143Y-99859875D02*
X121046667Y-99859875D01*
X121046667Y-99859875D02*
X120951429Y-99812256D01*
X120951429Y-99812256D02*
X120903810Y-99717017D01*
X120903810Y-99717017D02*
X120903810Y-99336065D01*
X120903810Y-99336065D02*
X120951429Y-99240827D01*
X120951429Y-99240827D02*
X121046667Y-99193208D01*
X121046667Y-99193208D02*
X121237143Y-99193208D01*
X121237143Y-99193208D02*
X121332381Y-99240827D01*
X121332381Y-99240827D02*
X121380000Y-99336065D01*
X121380000Y-99336065D02*
X121380000Y-99431303D01*
X121380000Y-99431303D02*
X120903810Y-99526541D01*
X117951429Y-101469819D02*
X117951429Y-100469819D01*
X117951429Y-100946009D02*
X118522857Y-100946009D01*
X118522857Y-101469819D02*
X118522857Y-100469819D01*
X118999048Y-101469819D02*
X118999048Y-100803152D01*
X118999048Y-100469819D02*
X118951429Y-100517438D01*
X118951429Y-100517438D02*
X118999048Y-100565057D01*
X118999048Y-100565057D02*
X119046667Y-100517438D01*
X119046667Y-100517438D02*
X118999048Y-100469819D01*
X118999048Y-100469819D02*
X118999048Y-100565057D01*
X119903809Y-100803152D02*
X119903809Y-101612676D01*
X119903809Y-101612676D02*
X119856190Y-101707914D01*
X119856190Y-101707914D02*
X119808571Y-101755533D01*
X119808571Y-101755533D02*
X119713333Y-101803152D01*
X119713333Y-101803152D02*
X119570476Y-101803152D01*
X119570476Y-101803152D02*
X119475238Y-101755533D01*
X119903809Y-101422200D02*
X119808571Y-101469819D01*
X119808571Y-101469819D02*
X119618095Y-101469819D01*
X119618095Y-101469819D02*
X119522857Y-101422200D01*
X119522857Y-101422200D02*
X119475238Y-101374580D01*
X119475238Y-101374580D02*
X119427619Y-101279342D01*
X119427619Y-101279342D02*
X119427619Y-100993628D01*
X119427619Y-100993628D02*
X119475238Y-100898390D01*
X119475238Y-100898390D02*
X119522857Y-100850771D01*
X119522857Y-100850771D02*
X119618095Y-100803152D01*
X119618095Y-100803152D02*
X119808571Y-100803152D01*
X119808571Y-100803152D02*
X119903809Y-100850771D01*
X120380000Y-101469819D02*
X120380000Y-100469819D01*
X120808571Y-101469819D02*
X120808571Y-100946009D01*
X120808571Y-100946009D02*
X120760952Y-100850771D01*
X120760952Y-100850771D02*
X120665714Y-100803152D01*
X120665714Y-100803152D02*
X120522857Y-100803152D01*
X120522857Y-100803152D02*
X120427619Y-100850771D01*
X120427619Y-100850771D02*
X120380000Y-100898390D01*
X114493922Y-112661819D02*
X114827255Y-113661819D01*
X114827255Y-113661819D02*
X115160588Y-112661819D01*
X116065350Y-113566580D02*
X116017731Y-113614200D01*
X116017731Y-113614200D02*
X115874874Y-113661819D01*
X115874874Y-113661819D02*
X115779636Y-113661819D01*
X115779636Y-113661819D02*
X115636779Y-113614200D01*
X115636779Y-113614200D02*
X115541541Y-113518961D01*
X115541541Y-113518961D02*
X115493922Y-113423723D01*
X115493922Y-113423723D02*
X115446303Y-113233247D01*
X115446303Y-113233247D02*
X115446303Y-113090390D01*
X115446303Y-113090390D02*
X115493922Y-112899914D01*
X115493922Y-112899914D02*
X115541541Y-112804676D01*
X115541541Y-112804676D02*
X115636779Y-112709438D01*
X115636779Y-112709438D02*
X115779636Y-112661819D01*
X115779636Y-112661819D02*
X115874874Y-112661819D01*
X115874874Y-112661819D02*
X116017731Y-112709438D01*
X116017731Y-112709438D02*
X116065350Y-112757057D01*
X117065350Y-113566580D02*
X117017731Y-113614200D01*
X117017731Y-113614200D02*
X116874874Y-113661819D01*
X116874874Y-113661819D02*
X116779636Y-113661819D01*
X116779636Y-113661819D02*
X116636779Y-113614200D01*
X116636779Y-113614200D02*
X116541541Y-113518961D01*
X116541541Y-113518961D02*
X116493922Y-113423723D01*
X116493922Y-113423723D02*
X116446303Y-113233247D01*
X116446303Y-113233247D02*
X116446303Y-113090390D01*
X116446303Y-113090390D02*
X116493922Y-112899914D01*
X116493922Y-112899914D02*
X116541541Y-112804676D01*
X116541541Y-112804676D02*
X116636779Y-112709438D01*
X116636779Y-112709438D02*
X116779636Y-112661819D01*
X116779636Y-112661819D02*
X116874874Y-112661819D01*
X116874874Y-112661819D02*
X117017731Y-112709438D01*
X117017731Y-112709438D02*
X117065350Y-112757057D01*
X115160588Y-110169438D02*
X115065350Y-110121819D01*
X115065350Y-110121819D02*
X114922493Y-110121819D01*
X114922493Y-110121819D02*
X114779636Y-110169438D01*
X114779636Y-110169438D02*
X114684398Y-110264676D01*
X114684398Y-110264676D02*
X114636779Y-110359914D01*
X114636779Y-110359914D02*
X114589160Y-110550390D01*
X114589160Y-110550390D02*
X114589160Y-110693247D01*
X114589160Y-110693247D02*
X114636779Y-110883723D01*
X114636779Y-110883723D02*
X114684398Y-110978961D01*
X114684398Y-110978961D02*
X114779636Y-111074200D01*
X114779636Y-111074200D02*
X114922493Y-111121819D01*
X114922493Y-111121819D02*
X115017731Y-111121819D01*
X115017731Y-111121819D02*
X115160588Y-111074200D01*
X115160588Y-111074200D02*
X115208207Y-111026580D01*
X115208207Y-111026580D02*
X115208207Y-110693247D01*
X115208207Y-110693247D02*
X115017731Y-110693247D01*
X115636779Y-111121819D02*
X115636779Y-110121819D01*
X115636779Y-110121819D02*
X116208207Y-111121819D01*
X116208207Y-111121819D02*
X116208207Y-110121819D01*
X116684398Y-111121819D02*
X116684398Y-110121819D01*
X116684398Y-110121819D02*
X116922493Y-110121819D01*
X116922493Y-110121819D02*
X117065350Y-110169438D01*
X117065350Y-110169438D02*
X117160588Y-110264676D01*
X117160588Y-110264676D02*
X117208207Y-110359914D01*
X117208207Y-110359914D02*
X117255826Y-110550390D01*
X117255826Y-110550390D02*
X117255826Y-110693247D01*
X117255826Y-110693247D02*
X117208207Y-110883723D01*
X117208207Y-110883723D02*
X117160588Y-110978961D01*
X117160588Y-110978961D02*
X117065350Y-111074200D01*
X117065350Y-111074200D02*
X116922493Y-111121819D01*
X116922493Y-111121819D02*
X116684398Y-111121819D01*
X123494969Y-115455819D02*
X123018779Y-115455819D01*
X123018779Y-115455819D02*
X122971160Y-115932009D01*
X122971160Y-115932009D02*
X123018779Y-115884390D01*
X123018779Y-115884390D02*
X123114017Y-115836771D01*
X123114017Y-115836771D02*
X123352112Y-115836771D01*
X123352112Y-115836771D02*
X123447350Y-115884390D01*
X123447350Y-115884390D02*
X123494969Y-115932009D01*
X123494969Y-115932009D02*
X123542588Y-116027247D01*
X123542588Y-116027247D02*
X123542588Y-116265342D01*
X123542588Y-116265342D02*
X123494969Y-116360580D01*
X123494969Y-116360580D02*
X123447350Y-116408200D01*
X123447350Y-116408200D02*
X123352112Y-116455819D01*
X123352112Y-116455819D02*
X123114017Y-116455819D01*
X123114017Y-116455819D02*
X123018779Y-116408200D01*
X123018779Y-116408200D02*
X122971160Y-116360580D01*
X123828303Y-115455819D02*
X124161636Y-116455819D01*
X124161636Y-116455819D02*
X124494969Y-115455819D01*
X114636779Y-100961819D02*
X114636779Y-99961819D01*
X114636779Y-99961819D02*
X114874874Y-99961819D01*
X114874874Y-99961819D02*
X115017731Y-100009438D01*
X115017731Y-100009438D02*
X115112969Y-100104676D01*
X115112969Y-100104676D02*
X115160588Y-100199914D01*
X115160588Y-100199914D02*
X115208207Y-100390390D01*
X115208207Y-100390390D02*
X115208207Y-100533247D01*
X115208207Y-100533247D02*
X115160588Y-100723723D01*
X115160588Y-100723723D02*
X115112969Y-100818961D01*
X115112969Y-100818961D02*
X115017731Y-100914200D01*
X115017731Y-100914200D02*
X114874874Y-100961819D01*
X114874874Y-100961819D02*
X114636779Y-100961819D01*
X116160588Y-100961819D02*
X115589160Y-100961819D01*
X115874874Y-100961819D02*
X115874874Y-99961819D01*
X115874874Y-99961819D02*
X115779636Y-100104676D01*
X115779636Y-100104676D02*
X115684398Y-100199914D01*
X115684398Y-100199914D02*
X115589160Y-100247533D01*
X130289541Y-115455819D02*
X130908588Y-115455819D01*
X130908588Y-115455819D02*
X130575255Y-115836771D01*
X130575255Y-115836771D02*
X130718112Y-115836771D01*
X130718112Y-115836771D02*
X130813350Y-115884390D01*
X130813350Y-115884390D02*
X130860969Y-115932009D01*
X130860969Y-115932009D02*
X130908588Y-116027247D01*
X130908588Y-116027247D02*
X130908588Y-116265342D01*
X130908588Y-116265342D02*
X130860969Y-116360580D01*
X130860969Y-116360580D02*
X130813350Y-116408200D01*
X130813350Y-116408200D02*
X130718112Y-116455819D01*
X130718112Y-116455819D02*
X130432398Y-116455819D01*
X130432398Y-116455819D02*
X130337160Y-116408200D01*
X130337160Y-116408200D02*
X130289541Y-116360580D01*
X131337160Y-116360580D02*
X131384779Y-116408200D01*
X131384779Y-116408200D02*
X131337160Y-116455819D01*
X131337160Y-116455819D02*
X131289541Y-116408200D01*
X131289541Y-116408200D02*
X131337160Y-116360580D01*
X131337160Y-116360580D02*
X131337160Y-116455819D01*
X131718112Y-115455819D02*
X132337159Y-115455819D01*
X132337159Y-115455819D02*
X132003826Y-115836771D01*
X132003826Y-115836771D02*
X132146683Y-115836771D01*
X132146683Y-115836771D02*
X132241921Y-115884390D01*
X132241921Y-115884390D02*
X132289540Y-115932009D01*
X132289540Y-115932009D02*
X132337159Y-116027247D01*
X132337159Y-116027247D02*
X132337159Y-116265342D01*
X132337159Y-116265342D02*
X132289540Y-116360580D01*
X132289540Y-116360580D02*
X132241921Y-116408200D01*
X132241921Y-116408200D02*
X132146683Y-116455819D01*
X132146683Y-116455819D02*
X131860969Y-116455819D01*
X131860969Y-116455819D02*
X131765731Y-116408200D01*
X131765731Y-116408200D02*
X131718112Y-116360580D01*
X132622874Y-115455819D02*
X132956207Y-116455819D01*
X132956207Y-116455819D02*
X133289540Y-115455819D01*
X114636779Y-103501819D02*
X114636779Y-102501819D01*
X114636779Y-102501819D02*
X114874874Y-102501819D01*
X114874874Y-102501819D02*
X115017731Y-102549438D01*
X115017731Y-102549438D02*
X115112969Y-102644676D01*
X115112969Y-102644676D02*
X115160588Y-102739914D01*
X115160588Y-102739914D02*
X115208207Y-102930390D01*
X115208207Y-102930390D02*
X115208207Y-103073247D01*
X115208207Y-103073247D02*
X115160588Y-103263723D01*
X115160588Y-103263723D02*
X115112969Y-103358961D01*
X115112969Y-103358961D02*
X115017731Y-103454200D01*
X115017731Y-103454200D02*
X114874874Y-103501819D01*
X114874874Y-103501819D02*
X114636779Y-103501819D01*
X115589160Y-102597057D02*
X115636779Y-102549438D01*
X115636779Y-102549438D02*
X115732017Y-102501819D01*
X115732017Y-102501819D02*
X115970112Y-102501819D01*
X115970112Y-102501819D02*
X116065350Y-102549438D01*
X116065350Y-102549438D02*
X116112969Y-102597057D01*
X116112969Y-102597057D02*
X116160588Y-102692295D01*
X116160588Y-102692295D02*
X116160588Y-102787533D01*
X116160588Y-102787533D02*
X116112969Y-102930390D01*
X116112969Y-102930390D02*
X115541541Y-103501819D01*
X115541541Y-103501819D02*
X116160588Y-103501819D01*
X136993333Y-104086819D02*
X136660000Y-103610628D01*
X136421905Y-104086819D02*
X136421905Y-103086819D01*
X136421905Y-103086819D02*
X136802857Y-103086819D01*
X136802857Y-103086819D02*
X136898095Y-103134438D01*
X136898095Y-103134438D02*
X136945714Y-103182057D01*
X136945714Y-103182057D02*
X136993333Y-103277295D01*
X136993333Y-103277295D02*
X136993333Y-103420152D01*
X136993333Y-103420152D02*
X136945714Y-103515390D01*
X136945714Y-103515390D02*
X136898095Y-103563009D01*
X136898095Y-103563009D02*
X136802857Y-103610628D01*
X136802857Y-103610628D02*
X136421905Y-103610628D01*
X137564762Y-103515390D02*
X137469524Y-103467771D01*
X137469524Y-103467771D02*
X137421905Y-103420152D01*
X137421905Y-103420152D02*
X137374286Y-103324914D01*
X137374286Y-103324914D02*
X137374286Y-103277295D01*
X137374286Y-103277295D02*
X137421905Y-103182057D01*
X137421905Y-103182057D02*
X137469524Y-103134438D01*
X137469524Y-103134438D02*
X137564762Y-103086819D01*
X137564762Y-103086819D02*
X137755238Y-103086819D01*
X137755238Y-103086819D02*
X137850476Y-103134438D01*
X137850476Y-103134438D02*
X137898095Y-103182057D01*
X137898095Y-103182057D02*
X137945714Y-103277295D01*
X137945714Y-103277295D02*
X137945714Y-103324914D01*
X137945714Y-103324914D02*
X137898095Y-103420152D01*
X137898095Y-103420152D02*
X137850476Y-103467771D01*
X137850476Y-103467771D02*
X137755238Y-103515390D01*
X137755238Y-103515390D02*
X137564762Y-103515390D01*
X137564762Y-103515390D02*
X137469524Y-103563009D01*
X137469524Y-103563009D02*
X137421905Y-103610628D01*
X137421905Y-103610628D02*
X137374286Y-103705866D01*
X137374286Y-103705866D02*
X137374286Y-103896342D01*
X137374286Y-103896342D02*
X137421905Y-103991580D01*
X137421905Y-103991580D02*
X137469524Y-104039200D01*
X137469524Y-104039200D02*
X137564762Y-104086819D01*
X137564762Y-104086819D02*
X137755238Y-104086819D01*
X137755238Y-104086819D02*
X137850476Y-104039200D01*
X137850476Y-104039200D02*
X137898095Y-103991580D01*
X137898095Y-103991580D02*
X137945714Y-103896342D01*
X137945714Y-103896342D02*
X137945714Y-103705866D01*
X137945714Y-103705866D02*
X137898095Y-103610628D01*
X137898095Y-103610628D02*
X137850476Y-103563009D01*
X137850476Y-103563009D02*
X137755238Y-103515390D01*
X151757142Y-102816819D02*
X151423809Y-102340628D01*
X151185714Y-102816819D02*
X151185714Y-101816819D01*
X151185714Y-101816819D02*
X151566666Y-101816819D01*
X151566666Y-101816819D02*
X151661904Y-101864438D01*
X151661904Y-101864438D02*
X151709523Y-101912057D01*
X151709523Y-101912057D02*
X151757142Y-102007295D01*
X151757142Y-102007295D02*
X151757142Y-102150152D01*
X151757142Y-102150152D02*
X151709523Y-102245390D01*
X151709523Y-102245390D02*
X151661904Y-102293009D01*
X151661904Y-102293009D02*
X151566666Y-102340628D01*
X151566666Y-102340628D02*
X151185714Y-102340628D01*
X152709523Y-102816819D02*
X152138095Y-102816819D01*
X152423809Y-102816819D02*
X152423809Y-101816819D01*
X152423809Y-101816819D02*
X152328571Y-101959676D01*
X152328571Y-101959676D02*
X152233333Y-102054914D01*
X152233333Y-102054914D02*
X152138095Y-102102533D01*
X153328571Y-101816819D02*
X153423809Y-101816819D01*
X153423809Y-101816819D02*
X153519047Y-101864438D01*
X153519047Y-101864438D02*
X153566666Y-101912057D01*
X153566666Y-101912057D02*
X153614285Y-102007295D01*
X153614285Y-102007295D02*
X153661904Y-102197771D01*
X153661904Y-102197771D02*
X153661904Y-102435866D01*
X153661904Y-102435866D02*
X153614285Y-102626342D01*
X153614285Y-102626342D02*
X153566666Y-102721580D01*
X153566666Y-102721580D02*
X153519047Y-102769200D01*
X153519047Y-102769200D02*
X153423809Y-102816819D01*
X153423809Y-102816819D02*
X153328571Y-102816819D01*
X153328571Y-102816819D02*
X153233333Y-102769200D01*
X153233333Y-102769200D02*
X153185714Y-102721580D01*
X153185714Y-102721580D02*
X153138095Y-102626342D01*
X153138095Y-102626342D02*
X153090476Y-102435866D01*
X153090476Y-102435866D02*
X153090476Y-102197771D01*
X153090476Y-102197771D02*
X153138095Y-102007295D01*
X153138095Y-102007295D02*
X153185714Y-101912057D01*
X153185714Y-101912057D02*
X153233333Y-101864438D01*
X153233333Y-101864438D02*
X153328571Y-101816819D01*
X136993333Y-110944819D02*
X136660000Y-110468628D01*
X136421905Y-110944819D02*
X136421905Y-109944819D01*
X136421905Y-109944819D02*
X136802857Y-109944819D01*
X136802857Y-109944819D02*
X136898095Y-109992438D01*
X136898095Y-109992438D02*
X136945714Y-110040057D01*
X136945714Y-110040057D02*
X136993333Y-110135295D01*
X136993333Y-110135295D02*
X136993333Y-110278152D01*
X136993333Y-110278152D02*
X136945714Y-110373390D01*
X136945714Y-110373390D02*
X136898095Y-110421009D01*
X136898095Y-110421009D02*
X136802857Y-110468628D01*
X136802857Y-110468628D02*
X136421905Y-110468628D01*
X137326667Y-109944819D02*
X137945714Y-109944819D01*
X137945714Y-109944819D02*
X137612381Y-110325771D01*
X137612381Y-110325771D02*
X137755238Y-110325771D01*
X137755238Y-110325771D02*
X137850476Y-110373390D01*
X137850476Y-110373390D02*
X137898095Y-110421009D01*
X137898095Y-110421009D02*
X137945714Y-110516247D01*
X137945714Y-110516247D02*
X137945714Y-110754342D01*
X137945714Y-110754342D02*
X137898095Y-110849580D01*
X137898095Y-110849580D02*
X137850476Y-110897200D01*
X137850476Y-110897200D02*
X137755238Y-110944819D01*
X137755238Y-110944819D02*
X137469524Y-110944819D01*
X137469524Y-110944819D02*
X137374286Y-110897200D01*
X137374286Y-110897200D02*
X137326667Y-110849580D01*
X136993333Y-101292819D02*
X136660000Y-100816628D01*
X136421905Y-101292819D02*
X136421905Y-100292819D01*
X136421905Y-100292819D02*
X136802857Y-100292819D01*
X136802857Y-100292819D02*
X136898095Y-100340438D01*
X136898095Y-100340438D02*
X136945714Y-100388057D01*
X136945714Y-100388057D02*
X136993333Y-100483295D01*
X136993333Y-100483295D02*
X136993333Y-100626152D01*
X136993333Y-100626152D02*
X136945714Y-100721390D01*
X136945714Y-100721390D02*
X136898095Y-100769009D01*
X136898095Y-100769009D02*
X136802857Y-100816628D01*
X136802857Y-100816628D02*
X136421905Y-100816628D01*
X137945714Y-101292819D02*
X137374286Y-101292819D01*
X137660000Y-101292819D02*
X137660000Y-100292819D01*
X137660000Y-100292819D02*
X137564762Y-100435676D01*
X137564762Y-100435676D02*
X137469524Y-100530914D01*
X137469524Y-100530914D02*
X137374286Y-100578533D01*
X148963142Y-112468819D02*
X148629809Y-111992628D01*
X148391714Y-112468819D02*
X148391714Y-111468819D01*
X148391714Y-111468819D02*
X148772666Y-111468819D01*
X148772666Y-111468819D02*
X148867904Y-111516438D01*
X148867904Y-111516438D02*
X148915523Y-111564057D01*
X148915523Y-111564057D02*
X148963142Y-111659295D01*
X148963142Y-111659295D02*
X148963142Y-111802152D01*
X148963142Y-111802152D02*
X148915523Y-111897390D01*
X148915523Y-111897390D02*
X148867904Y-111945009D01*
X148867904Y-111945009D02*
X148772666Y-111992628D01*
X148772666Y-111992628D02*
X148391714Y-111992628D01*
X149915523Y-112468819D02*
X149344095Y-112468819D01*
X149629809Y-112468819D02*
X149629809Y-111468819D01*
X149629809Y-111468819D02*
X149534571Y-111611676D01*
X149534571Y-111611676D02*
X149439333Y-111706914D01*
X149439333Y-111706914D02*
X149344095Y-111754533D01*
X150820285Y-111468819D02*
X150344095Y-111468819D01*
X150344095Y-111468819D02*
X150296476Y-111945009D01*
X150296476Y-111945009D02*
X150344095Y-111897390D01*
X150344095Y-111897390D02*
X150439333Y-111849771D01*
X150439333Y-111849771D02*
X150677428Y-111849771D01*
X150677428Y-111849771D02*
X150772666Y-111897390D01*
X150772666Y-111897390D02*
X150820285Y-111945009D01*
X150820285Y-111945009D02*
X150867904Y-112040247D01*
X150867904Y-112040247D02*
X150867904Y-112278342D01*
X150867904Y-112278342D02*
X150820285Y-112373580D01*
X150820285Y-112373580D02*
X150772666Y-112421200D01*
X150772666Y-112421200D02*
X150677428Y-112468819D01*
X150677428Y-112468819D02*
X150439333Y-112468819D01*
X150439333Y-112468819D02*
X150344095Y-112421200D01*
X150344095Y-112421200D02*
X150296476Y-112373580D01*
X136993333Y-99260819D02*
X136660000Y-98784628D01*
X136421905Y-99260819D02*
X136421905Y-98260819D01*
X136421905Y-98260819D02*
X136802857Y-98260819D01*
X136802857Y-98260819D02*
X136898095Y-98308438D01*
X136898095Y-98308438D02*
X136945714Y-98356057D01*
X136945714Y-98356057D02*
X136993333Y-98451295D01*
X136993333Y-98451295D02*
X136993333Y-98594152D01*
X136993333Y-98594152D02*
X136945714Y-98689390D01*
X136945714Y-98689390D02*
X136898095Y-98737009D01*
X136898095Y-98737009D02*
X136802857Y-98784628D01*
X136802857Y-98784628D02*
X136421905Y-98784628D01*
X137898095Y-98260819D02*
X137421905Y-98260819D01*
X137421905Y-98260819D02*
X137374286Y-98737009D01*
X137374286Y-98737009D02*
X137421905Y-98689390D01*
X137421905Y-98689390D02*
X137517143Y-98641771D01*
X137517143Y-98641771D02*
X137755238Y-98641771D01*
X137755238Y-98641771D02*
X137850476Y-98689390D01*
X137850476Y-98689390D02*
X137898095Y-98737009D01*
X137898095Y-98737009D02*
X137945714Y-98832247D01*
X137945714Y-98832247D02*
X137945714Y-99070342D01*
X137945714Y-99070342D02*
X137898095Y-99165580D01*
X137898095Y-99165580D02*
X137850476Y-99213200D01*
X137850476Y-99213200D02*
X137755238Y-99260819D01*
X137755238Y-99260819D02*
X137517143Y-99260819D01*
X137517143Y-99260819D02*
X137421905Y-99213200D01*
X137421905Y-99213200D02*
X137374286Y-99165580D01*
X152233333Y-97990819D02*
X151900000Y-97514628D01*
X151661905Y-97990819D02*
X151661905Y-96990819D01*
X151661905Y-96990819D02*
X152042857Y-96990819D01*
X152042857Y-96990819D02*
X152138095Y-97038438D01*
X152138095Y-97038438D02*
X152185714Y-97086057D01*
X152185714Y-97086057D02*
X152233333Y-97181295D01*
X152233333Y-97181295D02*
X152233333Y-97324152D01*
X152233333Y-97324152D02*
X152185714Y-97419390D01*
X152185714Y-97419390D02*
X152138095Y-97467009D01*
X152138095Y-97467009D02*
X152042857Y-97514628D01*
X152042857Y-97514628D02*
X151661905Y-97514628D01*
X152566667Y-96990819D02*
X153233333Y-96990819D01*
X153233333Y-96990819D02*
X152804762Y-97990819D01*
X151757142Y-107642819D02*
X151423809Y-107166628D01*
X151185714Y-107642819D02*
X151185714Y-106642819D01*
X151185714Y-106642819D02*
X151566666Y-106642819D01*
X151566666Y-106642819D02*
X151661904Y-106690438D01*
X151661904Y-106690438D02*
X151709523Y-106738057D01*
X151709523Y-106738057D02*
X151757142Y-106833295D01*
X151757142Y-106833295D02*
X151757142Y-106976152D01*
X151757142Y-106976152D02*
X151709523Y-107071390D01*
X151709523Y-107071390D02*
X151661904Y-107119009D01*
X151661904Y-107119009D02*
X151566666Y-107166628D01*
X151566666Y-107166628D02*
X151185714Y-107166628D01*
X152709523Y-107642819D02*
X152138095Y-107642819D01*
X152423809Y-107642819D02*
X152423809Y-106642819D01*
X152423809Y-106642819D02*
X152328571Y-106785676D01*
X152328571Y-106785676D02*
X152233333Y-106880914D01*
X152233333Y-106880914D02*
X152138095Y-106928533D01*
X153042857Y-106642819D02*
X153661904Y-106642819D01*
X153661904Y-106642819D02*
X153328571Y-107023771D01*
X153328571Y-107023771D02*
X153471428Y-107023771D01*
X153471428Y-107023771D02*
X153566666Y-107071390D01*
X153566666Y-107071390D02*
X153614285Y-107119009D01*
X153614285Y-107119009D02*
X153661904Y-107214247D01*
X153661904Y-107214247D02*
X153661904Y-107452342D01*
X153661904Y-107452342D02*
X153614285Y-107547580D01*
X153614285Y-107547580D02*
X153566666Y-107595200D01*
X153566666Y-107595200D02*
X153471428Y-107642819D01*
X153471428Y-107642819D02*
X153185714Y-107642819D01*
X153185714Y-107642819D02*
X153090476Y-107595200D01*
X153090476Y-107595200D02*
X153042857Y-107547580D01*
X112696666Y-115024819D02*
X112696666Y-115739104D01*
X112696666Y-115739104D02*
X112649047Y-115881961D01*
X112649047Y-115881961D02*
X112553809Y-115977200D01*
X112553809Y-115977200D02*
X112410952Y-116024819D01*
X112410952Y-116024819D02*
X112315714Y-116024819D01*
X113696666Y-116024819D02*
X113125238Y-116024819D01*
X113410952Y-116024819D02*
X113410952Y-115024819D01*
X113410952Y-115024819D02*
X113315714Y-115167676D01*
X113315714Y-115167676D02*
X113220476Y-115262914D01*
X113220476Y-115262914D02*
X113125238Y-115310533D01*
X154201905Y-97990819D02*
X154201905Y-96990819D01*
X154201905Y-96990819D02*
X154440000Y-96990819D01*
X154440000Y-96990819D02*
X154582857Y-97038438D01*
X154582857Y-97038438D02*
X154678095Y-97133676D01*
X154678095Y-97133676D02*
X154725714Y-97228914D01*
X154725714Y-97228914D02*
X154773333Y-97419390D01*
X154773333Y-97419390D02*
X154773333Y-97562247D01*
X154773333Y-97562247D02*
X154725714Y-97752723D01*
X154725714Y-97752723D02*
X154678095Y-97847961D01*
X154678095Y-97847961D02*
X154582857Y-97943200D01*
X154582857Y-97943200D02*
X154440000Y-97990819D01*
X154440000Y-97990819D02*
X154201905Y-97990819D01*
X155725714Y-97990819D02*
X155154286Y-97990819D01*
X155440000Y-97990819D02*
X155440000Y-96990819D01*
X155440000Y-96990819D02*
X155344762Y-97133676D01*
X155344762Y-97133676D02*
X155249524Y-97228914D01*
X155249524Y-97228914D02*
X155154286Y-97276533D01*
X136993333Y-115770819D02*
X136660000Y-115294628D01*
X136421905Y-115770819D02*
X136421905Y-114770819D01*
X136421905Y-114770819D02*
X136802857Y-114770819D01*
X136802857Y-114770819D02*
X136898095Y-114818438D01*
X136898095Y-114818438D02*
X136945714Y-114866057D01*
X136945714Y-114866057D02*
X136993333Y-114961295D01*
X136993333Y-114961295D02*
X136993333Y-115104152D01*
X136993333Y-115104152D02*
X136945714Y-115199390D01*
X136945714Y-115199390D02*
X136898095Y-115247009D01*
X136898095Y-115247009D02*
X136802857Y-115294628D01*
X136802857Y-115294628D02*
X136421905Y-115294628D01*
X137850476Y-115104152D02*
X137850476Y-115770819D01*
X137612381Y-114723200D02*
X137374286Y-115437485D01*
X137374286Y-115437485D02*
X137993333Y-115437485D01*
X126166666Y-97150819D02*
X126166666Y-97865104D01*
X126166666Y-97865104D02*
X126119047Y-98007961D01*
X126119047Y-98007961D02*
X126023809Y-98103200D01*
X126023809Y-98103200D02*
X125880952Y-98150819D01*
X125880952Y-98150819D02*
X125785714Y-98150819D01*
X126642857Y-98150819D02*
X126642857Y-97150819D01*
X126642857Y-97150819D02*
X127023809Y-97150819D01*
X127023809Y-97150819D02*
X127119047Y-97198438D01*
X127119047Y-97198438D02*
X127166666Y-97246057D01*
X127166666Y-97246057D02*
X127214285Y-97341295D01*
X127214285Y-97341295D02*
X127214285Y-97484152D01*
X127214285Y-97484152D02*
X127166666Y-97579390D01*
X127166666Y-97579390D02*
X127119047Y-97627009D01*
X127119047Y-97627009D02*
X127023809Y-97674628D01*
X127023809Y-97674628D02*
X126642857Y-97674628D01*
X127595238Y-97246057D02*
X127642857Y-97198438D01*
X127642857Y-97198438D02*
X127738095Y-97150819D01*
X127738095Y-97150819D02*
X127976190Y-97150819D01*
X127976190Y-97150819D02*
X128071428Y-97198438D01*
X128071428Y-97198438D02*
X128119047Y-97246057D01*
X128119047Y-97246057D02*
X128166666Y-97341295D01*
X128166666Y-97341295D02*
X128166666Y-97436533D01*
X128166666Y-97436533D02*
X128119047Y-97579390D01*
X128119047Y-97579390D02*
X127547619Y-98150819D01*
X127547619Y-98150819D02*
X128166666Y-98150819D01*
X145065761Y-103420057D02*
X144970523Y-103372438D01*
X144970523Y-103372438D02*
X144875285Y-103277200D01*
X144875285Y-103277200D02*
X144732428Y-103134342D01*
X144732428Y-103134342D02*
X144637190Y-103086723D01*
X144637190Y-103086723D02*
X144541952Y-103086723D01*
X144589571Y-103324819D02*
X144494333Y-103277200D01*
X144494333Y-103277200D02*
X144399095Y-103181961D01*
X144399095Y-103181961D02*
X144351476Y-102991485D01*
X144351476Y-102991485D02*
X144351476Y-102658152D01*
X144351476Y-102658152D02*
X144399095Y-102467676D01*
X144399095Y-102467676D02*
X144494333Y-102372438D01*
X144494333Y-102372438D02*
X144589571Y-102324819D01*
X144589571Y-102324819D02*
X144780047Y-102324819D01*
X144780047Y-102324819D02*
X144875285Y-102372438D01*
X144875285Y-102372438D02*
X144970523Y-102467676D01*
X144970523Y-102467676D02*
X145018142Y-102658152D01*
X145018142Y-102658152D02*
X145018142Y-102991485D01*
X145018142Y-102991485D02*
X144970523Y-103181961D01*
X144970523Y-103181961D02*
X144875285Y-103277200D01*
X144875285Y-103277200D02*
X144780047Y-103324819D01*
X144780047Y-103324819D02*
X144589571Y-103324819D01*
X145351476Y-102324819D02*
X145970523Y-102324819D01*
X145970523Y-102324819D02*
X145637190Y-102705771D01*
X145637190Y-102705771D02*
X145780047Y-102705771D01*
X145780047Y-102705771D02*
X145875285Y-102753390D01*
X145875285Y-102753390D02*
X145922904Y-102801009D01*
X145922904Y-102801009D02*
X145970523Y-102896247D01*
X145970523Y-102896247D02*
X145970523Y-103134342D01*
X145970523Y-103134342D02*
X145922904Y-103229580D01*
X145922904Y-103229580D02*
X145875285Y-103277200D01*
X145875285Y-103277200D02*
X145780047Y-103324819D01*
X145780047Y-103324819D02*
X145494333Y-103324819D01*
X145494333Y-103324819D02*
X145399095Y-103277200D01*
X145399095Y-103277200D02*
X145351476Y-103229580D01*
X145065761Y-108246057D02*
X144970523Y-108198438D01*
X144970523Y-108198438D02*
X144875285Y-108103200D01*
X144875285Y-108103200D02*
X144732428Y-107960342D01*
X144732428Y-107960342D02*
X144637190Y-107912723D01*
X144637190Y-107912723D02*
X144541952Y-107912723D01*
X144589571Y-108150819D02*
X144494333Y-108103200D01*
X144494333Y-108103200D02*
X144399095Y-108007961D01*
X144399095Y-108007961D02*
X144351476Y-107817485D01*
X144351476Y-107817485D02*
X144351476Y-107484152D01*
X144351476Y-107484152D02*
X144399095Y-107293676D01*
X144399095Y-107293676D02*
X144494333Y-107198438D01*
X144494333Y-107198438D02*
X144589571Y-107150819D01*
X144589571Y-107150819D02*
X144780047Y-107150819D01*
X144780047Y-107150819D02*
X144875285Y-107198438D01*
X144875285Y-107198438D02*
X144970523Y-107293676D01*
X144970523Y-107293676D02*
X145018142Y-107484152D01*
X145018142Y-107484152D02*
X145018142Y-107817485D01*
X145018142Y-107817485D02*
X144970523Y-108007961D01*
X144970523Y-108007961D02*
X144875285Y-108103200D01*
X144875285Y-108103200D02*
X144780047Y-108150819D01*
X144780047Y-108150819D02*
X144589571Y-108150819D01*
X145922904Y-107150819D02*
X145446714Y-107150819D01*
X145446714Y-107150819D02*
X145399095Y-107627009D01*
X145399095Y-107627009D02*
X145446714Y-107579390D01*
X145446714Y-107579390D02*
X145541952Y-107531771D01*
X145541952Y-107531771D02*
X145780047Y-107531771D01*
X145780047Y-107531771D02*
X145875285Y-107579390D01*
X145875285Y-107579390D02*
X145922904Y-107627009D01*
X145922904Y-107627009D02*
X145970523Y-107722247D01*
X145970523Y-107722247D02*
X145970523Y-107960342D01*
X145970523Y-107960342D02*
X145922904Y-108055580D01*
X145922904Y-108055580D02*
X145875285Y-108103200D01*
X145875285Y-108103200D02*
X145780047Y-108150819D01*
X145780047Y-108150819D02*
X145541952Y-108150819D01*
X145541952Y-108150819D02*
X145446714Y-108103200D01*
X145446714Y-108103200D02*
X145399095Y-108055580D01*
X147351761Y-98467057D02*
X147256523Y-98419438D01*
X147256523Y-98419438D02*
X147161285Y-98324200D01*
X147161285Y-98324200D02*
X147018428Y-98181342D01*
X147018428Y-98181342D02*
X146923190Y-98133723D01*
X146923190Y-98133723D02*
X146827952Y-98133723D01*
X146875571Y-98371819D02*
X146780333Y-98324200D01*
X146780333Y-98324200D02*
X146685095Y-98228961D01*
X146685095Y-98228961D02*
X146637476Y-98038485D01*
X146637476Y-98038485D02*
X146637476Y-97705152D01*
X146637476Y-97705152D02*
X146685095Y-97514676D01*
X146685095Y-97514676D02*
X146780333Y-97419438D01*
X146780333Y-97419438D02*
X146875571Y-97371819D01*
X146875571Y-97371819D02*
X147066047Y-97371819D01*
X147066047Y-97371819D02*
X147161285Y-97419438D01*
X147161285Y-97419438D02*
X147256523Y-97514676D01*
X147256523Y-97514676D02*
X147304142Y-97705152D01*
X147304142Y-97705152D02*
X147304142Y-98038485D01*
X147304142Y-98038485D02*
X147256523Y-98228961D01*
X147256523Y-98228961D02*
X147161285Y-98324200D01*
X147161285Y-98324200D02*
X147066047Y-98371819D01*
X147066047Y-98371819D02*
X146875571Y-98371819D01*
X147685095Y-97467057D02*
X147732714Y-97419438D01*
X147732714Y-97419438D02*
X147827952Y-97371819D01*
X147827952Y-97371819D02*
X148066047Y-97371819D01*
X148066047Y-97371819D02*
X148161285Y-97419438D01*
X148161285Y-97419438D02*
X148208904Y-97467057D01*
X148208904Y-97467057D02*
X148256523Y-97562295D01*
X148256523Y-97562295D02*
X148256523Y-97657533D01*
X148256523Y-97657533D02*
X148208904Y-97800390D01*
X148208904Y-97800390D02*
X147637476Y-98371819D01*
X147637476Y-98371819D02*
X148256523Y-98371819D01*
X131381667Y-108357200D02*
X131524524Y-108404819D01*
X131524524Y-108404819D02*
X131762619Y-108404819D01*
X131762619Y-108404819D02*
X131857857Y-108357200D01*
X131857857Y-108357200D02*
X131905476Y-108309580D01*
X131905476Y-108309580D02*
X131953095Y-108214342D01*
X131953095Y-108214342D02*
X131953095Y-108119104D01*
X131953095Y-108119104D02*
X131905476Y-108023866D01*
X131905476Y-108023866D02*
X131857857Y-107976247D01*
X131857857Y-107976247D02*
X131762619Y-107928628D01*
X131762619Y-107928628D02*
X131572143Y-107881009D01*
X131572143Y-107881009D02*
X131476905Y-107833390D01*
X131476905Y-107833390D02*
X131429286Y-107785771D01*
X131429286Y-107785771D02*
X131381667Y-107690533D01*
X131381667Y-107690533D02*
X131381667Y-107595295D01*
X131381667Y-107595295D02*
X131429286Y-107500057D01*
X131429286Y-107500057D02*
X131476905Y-107452438D01*
X131476905Y-107452438D02*
X131572143Y-107404819D01*
X131572143Y-107404819D02*
X131810238Y-107404819D01*
X131810238Y-107404819D02*
X131953095Y-107452438D01*
X132286429Y-107404819D02*
X132524524Y-108404819D01*
X132524524Y-108404819D02*
X132715000Y-107690533D01*
X132715000Y-107690533D02*
X132905476Y-108404819D01*
X132905476Y-108404819D02*
X133143572Y-107404819D01*
X134048333Y-108404819D02*
X133476905Y-108404819D01*
X133762619Y-108404819D02*
X133762619Y-107404819D01*
X133762619Y-107404819D02*
X133667381Y-107547676D01*
X133667381Y-107547676D02*
X133572143Y-107642914D01*
X133572143Y-107642914D02*
X133476905Y-107690533D01*
X136009142Y-113738819D02*
X135675809Y-113262628D01*
X135437714Y-113738819D02*
X135437714Y-112738819D01*
X135437714Y-112738819D02*
X135818666Y-112738819D01*
X135818666Y-112738819D02*
X135913904Y-112786438D01*
X135913904Y-112786438D02*
X135961523Y-112834057D01*
X135961523Y-112834057D02*
X136009142Y-112929295D01*
X136009142Y-112929295D02*
X136009142Y-113072152D01*
X136009142Y-113072152D02*
X135961523Y-113167390D01*
X135961523Y-113167390D02*
X135913904Y-113215009D01*
X135913904Y-113215009D02*
X135818666Y-113262628D01*
X135818666Y-113262628D02*
X135437714Y-113262628D01*
X136961523Y-113738819D02*
X136390095Y-113738819D01*
X136675809Y-113738819D02*
X136675809Y-112738819D01*
X136675809Y-112738819D02*
X136580571Y-112881676D01*
X136580571Y-112881676D02*
X136485333Y-112976914D01*
X136485333Y-112976914D02*
X136390095Y-113024533D01*
X137818666Y-113072152D02*
X137818666Y-113738819D01*
X137580571Y-112691200D02*
X137342476Y-113405485D01*
X137342476Y-113405485D02*
X137961523Y-113405485D01*
X154201905Y-102816819D02*
X154201905Y-101816819D01*
X154201905Y-101816819D02*
X154440000Y-101816819D01*
X154440000Y-101816819D02*
X154582857Y-101864438D01*
X154582857Y-101864438D02*
X154678095Y-101959676D01*
X154678095Y-101959676D02*
X154725714Y-102054914D01*
X154725714Y-102054914D02*
X154773333Y-102245390D01*
X154773333Y-102245390D02*
X154773333Y-102388247D01*
X154773333Y-102388247D02*
X154725714Y-102578723D01*
X154725714Y-102578723D02*
X154678095Y-102673961D01*
X154678095Y-102673961D02*
X154582857Y-102769200D01*
X154582857Y-102769200D02*
X154440000Y-102816819D01*
X154440000Y-102816819D02*
X154201905Y-102816819D01*
X155154286Y-101912057D02*
X155201905Y-101864438D01*
X155201905Y-101864438D02*
X155297143Y-101816819D01*
X155297143Y-101816819D02*
X155535238Y-101816819D01*
X155535238Y-101816819D02*
X155630476Y-101864438D01*
X155630476Y-101864438D02*
X155678095Y-101912057D01*
X155678095Y-101912057D02*
X155725714Y-102007295D01*
X155725714Y-102007295D02*
X155725714Y-102102533D01*
X155725714Y-102102533D02*
X155678095Y-102245390D01*
X155678095Y-102245390D02*
X155106667Y-102816819D01*
X155106667Y-102816819D02*
X155725714Y-102816819D01*
X147224761Y-112945057D02*
X147129523Y-112897438D01*
X147129523Y-112897438D02*
X147034285Y-112802200D01*
X147034285Y-112802200D02*
X146891428Y-112659342D01*
X146891428Y-112659342D02*
X146796190Y-112611723D01*
X146796190Y-112611723D02*
X146700952Y-112611723D01*
X146748571Y-112849819D02*
X146653333Y-112802200D01*
X146653333Y-112802200D02*
X146558095Y-112706961D01*
X146558095Y-112706961D02*
X146510476Y-112516485D01*
X146510476Y-112516485D02*
X146510476Y-112183152D01*
X146510476Y-112183152D02*
X146558095Y-111992676D01*
X146558095Y-111992676D02*
X146653333Y-111897438D01*
X146653333Y-111897438D02*
X146748571Y-111849819D01*
X146748571Y-111849819D02*
X146939047Y-111849819D01*
X146939047Y-111849819D02*
X147034285Y-111897438D01*
X147034285Y-111897438D02*
X147129523Y-111992676D01*
X147129523Y-111992676D02*
X147177142Y-112183152D01*
X147177142Y-112183152D02*
X147177142Y-112516485D01*
X147177142Y-112516485D02*
X147129523Y-112706961D01*
X147129523Y-112706961D02*
X147034285Y-112802200D01*
X147034285Y-112802200D02*
X146939047Y-112849819D01*
X146939047Y-112849819D02*
X146748571Y-112849819D01*
X147748571Y-112278390D02*
X147653333Y-112230771D01*
X147653333Y-112230771D02*
X147605714Y-112183152D01*
X147605714Y-112183152D02*
X147558095Y-112087914D01*
X147558095Y-112087914D02*
X147558095Y-112040295D01*
X147558095Y-112040295D02*
X147605714Y-111945057D01*
X147605714Y-111945057D02*
X147653333Y-111897438D01*
X147653333Y-111897438D02*
X147748571Y-111849819D01*
X147748571Y-111849819D02*
X147939047Y-111849819D01*
X147939047Y-111849819D02*
X148034285Y-111897438D01*
X148034285Y-111897438D02*
X148081904Y-111945057D01*
X148081904Y-111945057D02*
X148129523Y-112040295D01*
X148129523Y-112040295D02*
X148129523Y-112087914D01*
X148129523Y-112087914D02*
X148081904Y-112183152D01*
X148081904Y-112183152D02*
X148034285Y-112230771D01*
X148034285Y-112230771D02*
X147939047Y-112278390D01*
X147939047Y-112278390D02*
X147748571Y-112278390D01*
X147748571Y-112278390D02*
X147653333Y-112326009D01*
X147653333Y-112326009D02*
X147605714Y-112373628D01*
X147605714Y-112373628D02*
X147558095Y-112468866D01*
X147558095Y-112468866D02*
X147558095Y-112659342D01*
X147558095Y-112659342D02*
X147605714Y-112754580D01*
X147605714Y-112754580D02*
X147653333Y-112802200D01*
X147653333Y-112802200D02*
X147748571Y-112849819D01*
X147748571Y-112849819D02*
X147939047Y-112849819D01*
X147939047Y-112849819D02*
X148034285Y-112802200D01*
X148034285Y-112802200D02*
X148081904Y-112754580D01*
X148081904Y-112754580D02*
X148129523Y-112659342D01*
X148129523Y-112659342D02*
X148129523Y-112468866D01*
X148129523Y-112468866D02*
X148081904Y-112373628D01*
X148081904Y-112373628D02*
X148034285Y-112326009D01*
X148034285Y-112326009D02*
X147939047Y-112278390D01*
X147224761Y-103166057D02*
X147129523Y-103118438D01*
X147129523Y-103118438D02*
X147034285Y-103023200D01*
X147034285Y-103023200D02*
X146891428Y-102880342D01*
X146891428Y-102880342D02*
X146796190Y-102832723D01*
X146796190Y-102832723D02*
X146700952Y-102832723D01*
X146748571Y-103070819D02*
X146653333Y-103023200D01*
X146653333Y-103023200D02*
X146558095Y-102927961D01*
X146558095Y-102927961D02*
X146510476Y-102737485D01*
X146510476Y-102737485D02*
X146510476Y-102404152D01*
X146510476Y-102404152D02*
X146558095Y-102213676D01*
X146558095Y-102213676D02*
X146653333Y-102118438D01*
X146653333Y-102118438D02*
X146748571Y-102070819D01*
X146748571Y-102070819D02*
X146939047Y-102070819D01*
X146939047Y-102070819D02*
X147034285Y-102118438D01*
X147034285Y-102118438D02*
X147129523Y-102213676D01*
X147129523Y-102213676D02*
X147177142Y-102404152D01*
X147177142Y-102404152D02*
X147177142Y-102737485D01*
X147177142Y-102737485D02*
X147129523Y-102927961D01*
X147129523Y-102927961D02*
X147034285Y-103023200D01*
X147034285Y-103023200D02*
X146939047Y-103070819D01*
X146939047Y-103070819D02*
X146748571Y-103070819D01*
X148034285Y-102404152D02*
X148034285Y-103070819D01*
X147796190Y-102023200D02*
X147558095Y-102737485D01*
X147558095Y-102737485D02*
X148177142Y-102737485D01*
X129976666Y-97150819D02*
X129976666Y-97865104D01*
X129976666Y-97865104D02*
X129929047Y-98007961D01*
X129929047Y-98007961D02*
X129833809Y-98103200D01*
X129833809Y-98103200D02*
X129690952Y-98150819D01*
X129690952Y-98150819D02*
X129595714Y-98150819D01*
X130452857Y-98150819D02*
X130452857Y-97150819D01*
X130452857Y-97150819D02*
X130833809Y-97150819D01*
X130833809Y-97150819D02*
X130929047Y-97198438D01*
X130929047Y-97198438D02*
X130976666Y-97246057D01*
X130976666Y-97246057D02*
X131024285Y-97341295D01*
X131024285Y-97341295D02*
X131024285Y-97484152D01*
X131024285Y-97484152D02*
X130976666Y-97579390D01*
X130976666Y-97579390D02*
X130929047Y-97627009D01*
X130929047Y-97627009D02*
X130833809Y-97674628D01*
X130833809Y-97674628D02*
X130452857Y-97674628D01*
X131357619Y-97150819D02*
X131976666Y-97150819D01*
X131976666Y-97150819D02*
X131643333Y-97531771D01*
X131643333Y-97531771D02*
X131786190Y-97531771D01*
X131786190Y-97531771D02*
X131881428Y-97579390D01*
X131881428Y-97579390D02*
X131929047Y-97627009D01*
X131929047Y-97627009D02*
X131976666Y-97722247D01*
X131976666Y-97722247D02*
X131976666Y-97960342D01*
X131976666Y-97960342D02*
X131929047Y-98055580D01*
X131929047Y-98055580D02*
X131881428Y-98103200D01*
X131881428Y-98103200D02*
X131786190Y-98150819D01*
X131786190Y-98150819D02*
X131500476Y-98150819D01*
X131500476Y-98150819D02*
X131405238Y-98103200D01*
X131405238Y-98103200D02*
X131357619Y-98055580D01*
X151757142Y-112468819D02*
X151423809Y-111992628D01*
X151185714Y-112468819D02*
X151185714Y-111468819D01*
X151185714Y-111468819D02*
X151566666Y-111468819D01*
X151566666Y-111468819D02*
X151661904Y-111516438D01*
X151661904Y-111516438D02*
X151709523Y-111564057D01*
X151709523Y-111564057D02*
X151757142Y-111659295D01*
X151757142Y-111659295D02*
X151757142Y-111802152D01*
X151757142Y-111802152D02*
X151709523Y-111897390D01*
X151709523Y-111897390D02*
X151661904Y-111945009D01*
X151661904Y-111945009D02*
X151566666Y-111992628D01*
X151566666Y-111992628D02*
X151185714Y-111992628D01*
X152709523Y-112468819D02*
X152138095Y-112468819D01*
X152423809Y-112468819D02*
X152423809Y-111468819D01*
X152423809Y-111468819D02*
X152328571Y-111611676D01*
X152328571Y-111611676D02*
X152233333Y-111706914D01*
X152233333Y-111706914D02*
X152138095Y-111754533D01*
X153566666Y-111468819D02*
X153376190Y-111468819D01*
X153376190Y-111468819D02*
X153280952Y-111516438D01*
X153280952Y-111516438D02*
X153233333Y-111564057D01*
X153233333Y-111564057D02*
X153138095Y-111706914D01*
X153138095Y-111706914D02*
X153090476Y-111897390D01*
X153090476Y-111897390D02*
X153090476Y-112278342D01*
X153090476Y-112278342D02*
X153138095Y-112373580D01*
X153138095Y-112373580D02*
X153185714Y-112421200D01*
X153185714Y-112421200D02*
X153280952Y-112468819D01*
X153280952Y-112468819D02*
X153471428Y-112468819D01*
X153471428Y-112468819D02*
X153566666Y-112421200D01*
X153566666Y-112421200D02*
X153614285Y-112373580D01*
X153614285Y-112373580D02*
X153661904Y-112278342D01*
X153661904Y-112278342D02*
X153661904Y-112040247D01*
X153661904Y-112040247D02*
X153614285Y-111945009D01*
X153614285Y-111945009D02*
X153566666Y-111897390D01*
X153566666Y-111897390D02*
X153471428Y-111849771D01*
X153471428Y-111849771D02*
X153280952Y-111849771D01*
X153280952Y-111849771D02*
X153185714Y-111897390D01*
X153185714Y-111897390D02*
X153138095Y-111945009D01*
X153138095Y-111945009D02*
X153090476Y-112040247D01*
X149439333Y-97990819D02*
X149106000Y-97514628D01*
X148867905Y-97990819D02*
X148867905Y-96990819D01*
X148867905Y-96990819D02*
X149248857Y-96990819D01*
X149248857Y-96990819D02*
X149344095Y-97038438D01*
X149344095Y-97038438D02*
X149391714Y-97086057D01*
X149391714Y-97086057D02*
X149439333Y-97181295D01*
X149439333Y-97181295D02*
X149439333Y-97324152D01*
X149439333Y-97324152D02*
X149391714Y-97419390D01*
X149391714Y-97419390D02*
X149344095Y-97467009D01*
X149344095Y-97467009D02*
X149248857Y-97514628D01*
X149248857Y-97514628D02*
X148867905Y-97514628D01*
X150296476Y-96990819D02*
X150106000Y-96990819D01*
X150106000Y-96990819D02*
X150010762Y-97038438D01*
X150010762Y-97038438D02*
X149963143Y-97086057D01*
X149963143Y-97086057D02*
X149867905Y-97228914D01*
X149867905Y-97228914D02*
X149820286Y-97419390D01*
X149820286Y-97419390D02*
X149820286Y-97800342D01*
X149820286Y-97800342D02*
X149867905Y-97895580D01*
X149867905Y-97895580D02*
X149915524Y-97943200D01*
X149915524Y-97943200D02*
X150010762Y-97990819D01*
X150010762Y-97990819D02*
X150201238Y-97990819D01*
X150201238Y-97990819D02*
X150296476Y-97943200D01*
X150296476Y-97943200D02*
X150344095Y-97895580D01*
X150344095Y-97895580D02*
X150391714Y-97800342D01*
X150391714Y-97800342D02*
X150391714Y-97562247D01*
X150391714Y-97562247D02*
X150344095Y-97467009D01*
X150344095Y-97467009D02*
X150296476Y-97419390D01*
X150296476Y-97419390D02*
X150201238Y-97371771D01*
X150201238Y-97371771D02*
X150010762Y-97371771D01*
X150010762Y-97371771D02*
X149915524Y-97419390D01*
X149915524Y-97419390D02*
X149867905Y-97467009D01*
X149867905Y-97467009D02*
X149820286Y-97562247D01*
X154201905Y-107642819D02*
X154201905Y-106642819D01*
X154201905Y-106642819D02*
X154440000Y-106642819D01*
X154440000Y-106642819D02*
X154582857Y-106690438D01*
X154582857Y-106690438D02*
X154678095Y-106785676D01*
X154678095Y-106785676D02*
X154725714Y-106880914D01*
X154725714Y-106880914D02*
X154773333Y-107071390D01*
X154773333Y-107071390D02*
X154773333Y-107214247D01*
X154773333Y-107214247D02*
X154725714Y-107404723D01*
X154725714Y-107404723D02*
X154678095Y-107499961D01*
X154678095Y-107499961D02*
X154582857Y-107595200D01*
X154582857Y-107595200D02*
X154440000Y-107642819D01*
X154440000Y-107642819D02*
X154201905Y-107642819D01*
X155106667Y-106642819D02*
X155725714Y-106642819D01*
X155725714Y-106642819D02*
X155392381Y-107023771D01*
X155392381Y-107023771D02*
X155535238Y-107023771D01*
X155535238Y-107023771D02*
X155630476Y-107071390D01*
X155630476Y-107071390D02*
X155678095Y-107119009D01*
X155678095Y-107119009D02*
X155725714Y-107214247D01*
X155725714Y-107214247D02*
X155725714Y-107452342D01*
X155725714Y-107452342D02*
X155678095Y-107547580D01*
X155678095Y-107547580D02*
X155630476Y-107595200D01*
X155630476Y-107595200D02*
X155535238Y-107642819D01*
X155535238Y-107642819D02*
X155249524Y-107642819D01*
X155249524Y-107642819D02*
X155154286Y-107595200D01*
X155154286Y-107595200D02*
X155106667Y-107547580D01*
X145192761Y-98594057D02*
X145097523Y-98546438D01*
X145097523Y-98546438D02*
X145002285Y-98451200D01*
X145002285Y-98451200D02*
X144859428Y-98308342D01*
X144859428Y-98308342D02*
X144764190Y-98260723D01*
X144764190Y-98260723D02*
X144668952Y-98260723D01*
X144716571Y-98498819D02*
X144621333Y-98451200D01*
X144621333Y-98451200D02*
X144526095Y-98355961D01*
X144526095Y-98355961D02*
X144478476Y-98165485D01*
X144478476Y-98165485D02*
X144478476Y-97832152D01*
X144478476Y-97832152D02*
X144526095Y-97641676D01*
X144526095Y-97641676D02*
X144621333Y-97546438D01*
X144621333Y-97546438D02*
X144716571Y-97498819D01*
X144716571Y-97498819D02*
X144907047Y-97498819D01*
X144907047Y-97498819D02*
X145002285Y-97546438D01*
X145002285Y-97546438D02*
X145097523Y-97641676D01*
X145097523Y-97641676D02*
X145145142Y-97832152D01*
X145145142Y-97832152D02*
X145145142Y-98165485D01*
X145145142Y-98165485D02*
X145097523Y-98355961D01*
X145097523Y-98355961D02*
X145002285Y-98451200D01*
X145002285Y-98451200D02*
X144907047Y-98498819D01*
X144907047Y-98498819D02*
X144716571Y-98498819D01*
X146097523Y-98498819D02*
X145526095Y-98498819D01*
X145811809Y-98498819D02*
X145811809Y-97498819D01*
X145811809Y-97498819D02*
X145716571Y-97641676D01*
X145716571Y-97641676D02*
X145621333Y-97736914D01*
X145621333Y-97736914D02*
X145526095Y-97784533D01*
X154201905Y-112468819D02*
X154201905Y-111468819D01*
X154201905Y-111468819D02*
X154440000Y-111468819D01*
X154440000Y-111468819D02*
X154582857Y-111516438D01*
X154582857Y-111516438D02*
X154678095Y-111611676D01*
X154678095Y-111611676D02*
X154725714Y-111706914D01*
X154725714Y-111706914D02*
X154773333Y-111897390D01*
X154773333Y-111897390D02*
X154773333Y-112040247D01*
X154773333Y-112040247D02*
X154725714Y-112230723D01*
X154725714Y-112230723D02*
X154678095Y-112325961D01*
X154678095Y-112325961D02*
X154582857Y-112421200D01*
X154582857Y-112421200D02*
X154440000Y-112468819D01*
X154440000Y-112468819D02*
X154201905Y-112468819D01*
X155630476Y-111802152D02*
X155630476Y-112468819D01*
X155392381Y-111421200D02*
X155154286Y-112135485D01*
X155154286Y-112135485D02*
X155773333Y-112135485D01*
X136009142Y-108912819D02*
X135675809Y-108436628D01*
X135437714Y-108912819D02*
X135437714Y-107912819D01*
X135437714Y-107912819D02*
X135818666Y-107912819D01*
X135818666Y-107912819D02*
X135913904Y-107960438D01*
X135913904Y-107960438D02*
X135961523Y-108008057D01*
X135961523Y-108008057D02*
X136009142Y-108103295D01*
X136009142Y-108103295D02*
X136009142Y-108246152D01*
X136009142Y-108246152D02*
X135961523Y-108341390D01*
X135961523Y-108341390D02*
X135913904Y-108389009D01*
X135913904Y-108389009D02*
X135818666Y-108436628D01*
X135818666Y-108436628D02*
X135437714Y-108436628D01*
X136961523Y-108912819D02*
X136390095Y-108912819D01*
X136675809Y-108912819D02*
X136675809Y-107912819D01*
X136675809Y-107912819D02*
X136580571Y-108055676D01*
X136580571Y-108055676D02*
X136485333Y-108150914D01*
X136485333Y-108150914D02*
X136390095Y-108198533D01*
X137913904Y-108912819D02*
X137342476Y-108912819D01*
X137628190Y-108912819D02*
X137628190Y-107912819D01*
X137628190Y-107912819D02*
X137532952Y-108055676D01*
X137532952Y-108055676D02*
X137437714Y-108150914D01*
X137437714Y-108150914D02*
X137342476Y-108198533D01*
X136993333Y-106118819D02*
X136660000Y-105642628D01*
X136421905Y-106118819D02*
X136421905Y-105118819D01*
X136421905Y-105118819D02*
X136802857Y-105118819D01*
X136802857Y-105118819D02*
X136898095Y-105166438D01*
X136898095Y-105166438D02*
X136945714Y-105214057D01*
X136945714Y-105214057D02*
X136993333Y-105309295D01*
X136993333Y-105309295D02*
X136993333Y-105452152D01*
X136993333Y-105452152D02*
X136945714Y-105547390D01*
X136945714Y-105547390D02*
X136898095Y-105595009D01*
X136898095Y-105595009D02*
X136802857Y-105642628D01*
X136802857Y-105642628D02*
X136421905Y-105642628D01*
X137374286Y-105214057D02*
X137421905Y-105166438D01*
X137421905Y-105166438D02*
X137517143Y-105118819D01*
X137517143Y-105118819D02*
X137755238Y-105118819D01*
X137755238Y-105118819D02*
X137850476Y-105166438D01*
X137850476Y-105166438D02*
X137898095Y-105214057D01*
X137898095Y-105214057D02*
X137945714Y-105309295D01*
X137945714Y-105309295D02*
X137945714Y-105404533D01*
X137945714Y-105404533D02*
X137898095Y-105547390D01*
X137898095Y-105547390D02*
X137326667Y-106118819D01*
X137326667Y-106118819D02*
X137945714Y-106118819D01*
X147224761Y-107992057D02*
X147129523Y-107944438D01*
X147129523Y-107944438D02*
X147034285Y-107849200D01*
X147034285Y-107849200D02*
X146891428Y-107706342D01*
X146891428Y-107706342D02*
X146796190Y-107658723D01*
X146796190Y-107658723D02*
X146700952Y-107658723D01*
X146748571Y-107896819D02*
X146653333Y-107849200D01*
X146653333Y-107849200D02*
X146558095Y-107753961D01*
X146558095Y-107753961D02*
X146510476Y-107563485D01*
X146510476Y-107563485D02*
X146510476Y-107230152D01*
X146510476Y-107230152D02*
X146558095Y-107039676D01*
X146558095Y-107039676D02*
X146653333Y-106944438D01*
X146653333Y-106944438D02*
X146748571Y-106896819D01*
X146748571Y-106896819D02*
X146939047Y-106896819D01*
X146939047Y-106896819D02*
X147034285Y-106944438D01*
X147034285Y-106944438D02*
X147129523Y-107039676D01*
X147129523Y-107039676D02*
X147177142Y-107230152D01*
X147177142Y-107230152D02*
X147177142Y-107563485D01*
X147177142Y-107563485D02*
X147129523Y-107753961D01*
X147129523Y-107753961D02*
X147034285Y-107849200D01*
X147034285Y-107849200D02*
X146939047Y-107896819D01*
X146939047Y-107896819D02*
X146748571Y-107896819D01*
X148034285Y-106896819D02*
X147843809Y-106896819D01*
X147843809Y-106896819D02*
X147748571Y-106944438D01*
X147748571Y-106944438D02*
X147700952Y-106992057D01*
X147700952Y-106992057D02*
X147605714Y-107134914D01*
X147605714Y-107134914D02*
X147558095Y-107325390D01*
X147558095Y-107325390D02*
X147558095Y-107706342D01*
X147558095Y-107706342D02*
X147605714Y-107801580D01*
X147605714Y-107801580D02*
X147653333Y-107849200D01*
X147653333Y-107849200D02*
X147748571Y-107896819D01*
X147748571Y-107896819D02*
X147939047Y-107896819D01*
X147939047Y-107896819D02*
X148034285Y-107849200D01*
X148034285Y-107849200D02*
X148081904Y-107801580D01*
X148081904Y-107801580D02*
X148129523Y-107706342D01*
X148129523Y-107706342D02*
X148129523Y-107468247D01*
X148129523Y-107468247D02*
X148081904Y-107373009D01*
X148081904Y-107373009D02*
X148034285Y-107325390D01*
X148034285Y-107325390D02*
X147939047Y-107277771D01*
X147939047Y-107277771D02*
X147748571Y-107277771D01*
X147748571Y-107277771D02*
X147653333Y-107325390D01*
X147653333Y-107325390D02*
X147605714Y-107373009D01*
X147605714Y-107373009D02*
X147558095Y-107468247D01*
X145192761Y-113072057D02*
X145097523Y-113024438D01*
X145097523Y-113024438D02*
X145002285Y-112929200D01*
X145002285Y-112929200D02*
X144859428Y-112786342D01*
X144859428Y-112786342D02*
X144764190Y-112738723D01*
X144764190Y-112738723D02*
X144668952Y-112738723D01*
X144716571Y-112976819D02*
X144621333Y-112929200D01*
X144621333Y-112929200D02*
X144526095Y-112833961D01*
X144526095Y-112833961D02*
X144478476Y-112643485D01*
X144478476Y-112643485D02*
X144478476Y-112310152D01*
X144478476Y-112310152D02*
X144526095Y-112119676D01*
X144526095Y-112119676D02*
X144621333Y-112024438D01*
X144621333Y-112024438D02*
X144716571Y-111976819D01*
X144716571Y-111976819D02*
X144907047Y-111976819D01*
X144907047Y-111976819D02*
X145002285Y-112024438D01*
X145002285Y-112024438D02*
X145097523Y-112119676D01*
X145097523Y-112119676D02*
X145145142Y-112310152D01*
X145145142Y-112310152D02*
X145145142Y-112643485D01*
X145145142Y-112643485D02*
X145097523Y-112833961D01*
X145097523Y-112833961D02*
X145002285Y-112929200D01*
X145002285Y-112929200D02*
X144907047Y-112976819D01*
X144907047Y-112976819D02*
X144716571Y-112976819D01*
X145478476Y-111976819D02*
X146145142Y-111976819D01*
X146145142Y-111976819D02*
X145716571Y-112976819D01*
X149439333Y-102816819D02*
X149106000Y-102340628D01*
X148867905Y-102816819D02*
X148867905Y-101816819D01*
X148867905Y-101816819D02*
X149248857Y-101816819D01*
X149248857Y-101816819D02*
X149344095Y-101864438D01*
X149344095Y-101864438D02*
X149391714Y-101912057D01*
X149391714Y-101912057D02*
X149439333Y-102007295D01*
X149439333Y-102007295D02*
X149439333Y-102150152D01*
X149439333Y-102150152D02*
X149391714Y-102245390D01*
X149391714Y-102245390D02*
X149344095Y-102293009D01*
X149344095Y-102293009D02*
X149248857Y-102340628D01*
X149248857Y-102340628D02*
X148867905Y-102340628D01*
X149915524Y-102816819D02*
X150106000Y-102816819D01*
X150106000Y-102816819D02*
X150201238Y-102769200D01*
X150201238Y-102769200D02*
X150248857Y-102721580D01*
X150248857Y-102721580D02*
X150344095Y-102578723D01*
X150344095Y-102578723D02*
X150391714Y-102388247D01*
X150391714Y-102388247D02*
X150391714Y-102007295D01*
X150391714Y-102007295D02*
X150344095Y-101912057D01*
X150344095Y-101912057D02*
X150296476Y-101864438D01*
X150296476Y-101864438D02*
X150201238Y-101816819D01*
X150201238Y-101816819D02*
X150010762Y-101816819D01*
X150010762Y-101816819D02*
X149915524Y-101864438D01*
X149915524Y-101864438D02*
X149867905Y-101912057D01*
X149867905Y-101912057D02*
X149820286Y-102007295D01*
X149820286Y-102007295D02*
X149820286Y-102245390D01*
X149820286Y-102245390D02*
X149867905Y-102340628D01*
X149867905Y-102340628D02*
X149915524Y-102388247D01*
X149915524Y-102388247D02*
X150010762Y-102435866D01*
X150010762Y-102435866D02*
X150201238Y-102435866D01*
X150201238Y-102435866D02*
X150296476Y-102388247D01*
X150296476Y-102388247D02*
X150344095Y-102340628D01*
X150344095Y-102340628D02*
X150391714Y-102245390D01*
X133786666Y-97150819D02*
X133786666Y-97865104D01*
X133786666Y-97865104D02*
X133739047Y-98007961D01*
X133739047Y-98007961D02*
X133643809Y-98103200D01*
X133643809Y-98103200D02*
X133500952Y-98150819D01*
X133500952Y-98150819D02*
X133405714Y-98150819D01*
X134262857Y-98150819D02*
X134262857Y-97150819D01*
X134262857Y-97150819D02*
X134643809Y-97150819D01*
X134643809Y-97150819D02*
X134739047Y-97198438D01*
X134739047Y-97198438D02*
X134786666Y-97246057D01*
X134786666Y-97246057D02*
X134834285Y-97341295D01*
X134834285Y-97341295D02*
X134834285Y-97484152D01*
X134834285Y-97484152D02*
X134786666Y-97579390D01*
X134786666Y-97579390D02*
X134739047Y-97627009D01*
X134739047Y-97627009D02*
X134643809Y-97674628D01*
X134643809Y-97674628D02*
X134262857Y-97674628D01*
X135691428Y-97484152D02*
X135691428Y-98150819D01*
X135453333Y-97103200D02*
X135215238Y-97817485D01*
X135215238Y-97817485D02*
X135834285Y-97817485D01*
X148963142Y-107642819D02*
X148629809Y-107166628D01*
X148391714Y-107642819D02*
X148391714Y-106642819D01*
X148391714Y-106642819D02*
X148772666Y-106642819D01*
X148772666Y-106642819D02*
X148867904Y-106690438D01*
X148867904Y-106690438D02*
X148915523Y-106738057D01*
X148915523Y-106738057D02*
X148963142Y-106833295D01*
X148963142Y-106833295D02*
X148963142Y-106976152D01*
X148963142Y-106976152D02*
X148915523Y-107071390D01*
X148915523Y-107071390D02*
X148867904Y-107119009D01*
X148867904Y-107119009D02*
X148772666Y-107166628D01*
X148772666Y-107166628D02*
X148391714Y-107166628D01*
X149915523Y-107642819D02*
X149344095Y-107642819D01*
X149629809Y-107642819D02*
X149629809Y-106642819D01*
X149629809Y-106642819D02*
X149534571Y-106785676D01*
X149534571Y-106785676D02*
X149439333Y-106880914D01*
X149439333Y-106880914D02*
X149344095Y-106928533D01*
X150296476Y-106738057D02*
X150344095Y-106690438D01*
X150344095Y-106690438D02*
X150439333Y-106642819D01*
X150439333Y-106642819D02*
X150677428Y-106642819D01*
X150677428Y-106642819D02*
X150772666Y-106690438D01*
X150772666Y-106690438D02*
X150820285Y-106738057D01*
X150820285Y-106738057D02*
X150867904Y-106833295D01*
X150867904Y-106833295D02*
X150867904Y-106928533D01*
X150867904Y-106928533D02*
X150820285Y-107071390D01*
X150820285Y-107071390D02*
X150248857Y-107642819D01*
X150248857Y-107642819D02*
X150867904Y-107642819D01*
X122356666Y-97150819D02*
X122356666Y-97865104D01*
X122356666Y-97865104D02*
X122309047Y-98007961D01*
X122309047Y-98007961D02*
X122213809Y-98103200D01*
X122213809Y-98103200D02*
X122070952Y-98150819D01*
X122070952Y-98150819D02*
X121975714Y-98150819D01*
X122832857Y-98150819D02*
X122832857Y-97150819D01*
X122832857Y-97150819D02*
X123213809Y-97150819D01*
X123213809Y-97150819D02*
X123309047Y-97198438D01*
X123309047Y-97198438D02*
X123356666Y-97246057D01*
X123356666Y-97246057D02*
X123404285Y-97341295D01*
X123404285Y-97341295D02*
X123404285Y-97484152D01*
X123404285Y-97484152D02*
X123356666Y-97579390D01*
X123356666Y-97579390D02*
X123309047Y-97627009D01*
X123309047Y-97627009D02*
X123213809Y-97674628D01*
X123213809Y-97674628D02*
X122832857Y-97674628D01*
X124356666Y-98150819D02*
X123785238Y-98150819D01*
X124070952Y-98150819D02*
X124070952Y-97150819D01*
X124070952Y-97150819D02*
X123975714Y-97293676D01*
X123975714Y-97293676D02*
X123880476Y-97388914D01*
X123880476Y-97388914D02*
X123785238Y-97436533D01*
D11*
%TO.C,R8*%
X140181064Y-102897000D02*
X139726936Y-102897000D01*
X140181064Y-104367000D02*
X139726936Y-104367000D01*
%TO.C,R10*%
X151665000Y-104875064D02*
X151665000Y-104420936D01*
X153135000Y-104875064D02*
X153135000Y-104420936D01*
%TO.C,R3*%
X139726936Y-109755000D02*
X140181064Y-109755000D01*
X139726936Y-111225000D02*
X140181064Y-111225000D01*
%TO.C,R1*%
X139726936Y-100103000D02*
X140181064Y-100103000D01*
X139726936Y-101573000D02*
X140181064Y-101573000D01*
%TO.C,R15*%
X148871000Y-114527064D02*
X148871000Y-114072936D01*
X150341000Y-114527064D02*
X150341000Y-114072936D01*
%TO.C,R5*%
X140181064Y-98071000D02*
X139726936Y-98071000D01*
X140181064Y-99541000D02*
X139726936Y-99541000D01*
%TO.C,R7*%
X151665000Y-100049064D02*
X151665000Y-99594936D01*
X153135000Y-100049064D02*
X153135000Y-99594936D01*
%TO.C,R13*%
X151665000Y-109701064D02*
X151665000Y-109246936D01*
X153135000Y-109701064D02*
X153135000Y-109246936D01*
D12*
%TO.C,J1*%
X111760000Y-99568000D02*
X112268000Y-99060000D01*
X111760000Y-101092000D02*
X111760000Y-99568000D01*
X111760000Y-102108000D02*
X112268000Y-101600000D01*
X111760000Y-103632000D02*
X111760000Y-102108000D01*
X111760000Y-104648000D02*
X112268000Y-104140000D01*
X111760000Y-106172000D02*
X111760000Y-104648000D01*
X111760000Y-107188000D02*
X112268000Y-106680000D01*
X111760000Y-108712000D02*
X111760000Y-107188000D01*
X111760000Y-109728000D02*
X112268000Y-109220000D01*
X111760000Y-111252000D02*
X111760000Y-109728000D01*
X111760000Y-112268000D02*
X112268000Y-111760000D01*
X111760000Y-113792000D02*
X111760000Y-112268000D01*
X112268000Y-99060000D02*
X113030000Y-99060000D01*
X112268000Y-101600000D02*
X111760000Y-101092000D01*
X112268000Y-104140000D02*
X111760000Y-103632000D01*
X112268000Y-106680000D02*
X111760000Y-106172000D01*
X112268000Y-109220000D02*
X111760000Y-108712000D01*
X112268000Y-111760000D02*
X111760000Y-111252000D01*
X112268000Y-114300000D02*
X111760000Y-113792000D01*
X113030000Y-99060000D02*
X113792000Y-99060000D01*
X113792000Y-99060000D02*
X114300000Y-99568000D01*
X113792000Y-101600000D02*
X114300000Y-102108000D01*
X113792000Y-104140000D02*
X114300000Y-104648000D01*
X113792000Y-106680000D02*
X114300000Y-107188000D01*
X113792000Y-109220000D02*
X114300000Y-109728000D01*
X113792000Y-111760000D02*
X114300000Y-112268000D01*
X113792000Y-114300000D02*
X112268000Y-114300000D01*
X114300000Y-99568000D02*
X114300000Y-101092000D01*
X114300000Y-101092000D02*
X113792000Y-101600000D01*
X114300000Y-102108000D02*
X114300000Y-103632000D01*
X114300000Y-103632000D02*
X113792000Y-104140000D01*
X114300000Y-104648000D02*
X114300000Y-106172000D01*
X114300000Y-106172000D02*
X113792000Y-106680000D01*
X114300000Y-107188000D02*
X114300000Y-108712000D01*
X114300000Y-108712000D02*
X113792000Y-109220000D01*
X114300000Y-109728000D02*
X114300000Y-111252000D01*
X114300000Y-111252000D02*
X113792000Y-111760000D01*
X114300000Y-112268000D02*
X114300000Y-113792000D01*
X114300000Y-113792000D02*
X113792000Y-114300000D01*
X113030000Y-98830000D02*
X112530000Y-98068000D01*
X113530000Y-98068000D01*
X113030000Y-98830000D01*
G36*
X113030000Y-98830000D02*
G01*
X112530000Y-98068000D01*
X113530000Y-98068000D01*
X113030000Y-98830000D01*
G37*
D11*
%TO.C,D1*%
X154205000Y-99022000D02*
X154205000Y-101482000D01*
X154205000Y-101482000D02*
X155675000Y-101482000D01*
X155675000Y-101482000D02*
X155675000Y-99022000D01*
%TO.C,R4*%
X139726936Y-114581000D02*
X140181064Y-114581000D01*
X139726936Y-116051000D02*
X140181064Y-116051000D01*
%TO.C,JP2*%
X125620000Y-98696000D02*
X127000000Y-98696000D01*
X125620000Y-100076000D02*
X125620000Y-98696000D01*
X125620000Y-101346000D02*
X125620000Y-106536000D01*
X125620000Y-101346000D02*
X128380000Y-101346000D01*
X125620000Y-106536000D02*
X128380000Y-106536000D01*
X128380000Y-101346000D02*
X128380000Y-106536000D01*
%TO.C,Q3*%
X142204000Y-103738000D02*
X143204000Y-103738000D01*
X142204000Y-105558000D02*
X142204000Y-103738000D01*
X142254000Y-105558000D02*
X142204000Y-105558000D01*
X144154000Y-105558000D02*
X143374000Y-105558000D01*
X144324000Y-103738000D02*
X145324000Y-103738000D01*
X145324000Y-103738000D02*
X145324000Y-105558000D01*
X145324000Y-105558000D02*
X145274000Y-105558000D01*
X143714000Y-106338000D02*
X143384000Y-106098000D01*
X143714000Y-105858000D01*
X143714000Y-106338000D01*
G36*
X143714000Y-106338000D02*
G01*
X143384000Y-106098000D01*
X143714000Y-105858000D01*
X143714000Y-106338000D01*
G37*
%TO.C,Q5*%
X142204000Y-108564000D02*
X143204000Y-108564000D01*
X142204000Y-110384000D02*
X142204000Y-108564000D01*
X142254000Y-110384000D02*
X142204000Y-110384000D01*
X144154000Y-110384000D02*
X143374000Y-110384000D01*
X144324000Y-108564000D02*
X145324000Y-108564000D01*
X145324000Y-108564000D02*
X145324000Y-110384000D01*
X145324000Y-110384000D02*
X145274000Y-110384000D01*
X143714000Y-111164000D02*
X143384000Y-110924000D01*
X143714000Y-110684000D01*
X143714000Y-111164000D01*
G36*
X143714000Y-111164000D02*
G01*
X143384000Y-110924000D01*
X143714000Y-110684000D01*
X143714000Y-111164000D01*
G37*
%TO.C,Q2*%
X145852000Y-100586000D02*
X145852000Y-99426000D01*
X145852000Y-100586000D02*
X146162000Y-100586000D01*
X147772000Y-100586000D02*
X147462000Y-100586000D01*
X147772000Y-100586000D02*
X147772000Y-99426000D01*
D10*
X147387000Y-98776000D02*
G75*
G02*
X147237000Y-98776000I-75000J0D01*
G01*
X147237000Y-98776000D02*
G75*
G02*
X147387000Y-98776000I75000J0D01*
G01*
D12*
%TO.C,SW1*%
X119928000Y-110617000D02*
X119928000Y-114817000D01*
X119928000Y-114817000D02*
X132428000Y-114817000D01*
X122428000Y-108817000D02*
X134928000Y-108817000D01*
X134928000Y-108817000D02*
X134928000Y-113117000D01*
D11*
%TO.C,R14*%
X140181064Y-112549000D02*
X139726936Y-112549000D01*
X140181064Y-114019000D02*
X139726936Y-114019000D01*
%TO.C,D2*%
X154205000Y-103848000D02*
X154205000Y-106308000D01*
X154205000Y-106308000D02*
X155675000Y-106308000D01*
X155675000Y-106308000D02*
X155675000Y-103848000D01*
%TO.C,Q8*%
X145852000Y-115064000D02*
X145852000Y-113904000D01*
X145852000Y-115064000D02*
X146162000Y-115064000D01*
X147772000Y-115064000D02*
X147462000Y-115064000D01*
X147772000Y-115064000D02*
X147772000Y-113904000D01*
D10*
X147387000Y-113254000D02*
G75*
G02*
X147237000Y-113254000I-75000J0D01*
G01*
X147237000Y-113254000D02*
G75*
G02*
X147387000Y-113254000I75000J0D01*
G01*
D11*
%TO.C,Q4*%
X145852000Y-105412000D02*
X145852000Y-104252000D01*
X145852000Y-105412000D02*
X146162000Y-105412000D01*
X147772000Y-105412000D02*
X147462000Y-105412000D01*
X147772000Y-105412000D02*
X147772000Y-104252000D01*
D10*
X147387000Y-103602000D02*
G75*
G02*
X147237000Y-103602000I-75000J0D01*
G01*
X147237000Y-103602000D02*
G75*
G02*
X147387000Y-103602000I75000J0D01*
G01*
D11*
%TO.C,JP3*%
X129430000Y-98696000D02*
X130810000Y-98696000D01*
X129430000Y-100076000D02*
X129430000Y-98696000D01*
X129430000Y-101346000D02*
X129430000Y-106536000D01*
X129430000Y-101346000D02*
X132190000Y-101346000D01*
X129430000Y-106536000D02*
X132190000Y-106536000D01*
X132190000Y-101346000D02*
X132190000Y-106536000D01*
%TO.C,R16*%
X151665000Y-114527064D02*
X151665000Y-114072936D01*
X153135000Y-114527064D02*
X153135000Y-114072936D01*
%TO.C,R6*%
X148871000Y-100049064D02*
X148871000Y-99594936D01*
X150341000Y-100049064D02*
X150341000Y-99594936D01*
%TO.C,D3*%
X154205000Y-108674000D02*
X154205000Y-111134000D01*
X154205000Y-111134000D02*
X155675000Y-111134000D01*
X155675000Y-111134000D02*
X155675000Y-108674000D01*
%TO.C,Q1*%
X142204000Y-98912000D02*
X143204000Y-98912000D01*
X142204000Y-100732000D02*
X142204000Y-98912000D01*
X142254000Y-100732000D02*
X142204000Y-100732000D01*
X144154000Y-100732000D02*
X143374000Y-100732000D01*
X144324000Y-98912000D02*
X145324000Y-98912000D01*
X145324000Y-98912000D02*
X145324000Y-100732000D01*
X145324000Y-100732000D02*
X145274000Y-100732000D01*
X143714000Y-101512000D02*
X143384000Y-101272000D01*
X143714000Y-101032000D01*
X143714000Y-101512000D01*
G36*
X143714000Y-101512000D02*
G01*
X143384000Y-101272000D01*
X143714000Y-101032000D01*
X143714000Y-101512000D01*
G37*
%TO.C,D4*%
X154205000Y-113500000D02*
X154205000Y-115960000D01*
X154205000Y-115960000D02*
X155675000Y-115960000D01*
X155675000Y-115960000D02*
X155675000Y-113500000D01*
%TO.C,R11*%
X140181064Y-107723000D02*
X139726936Y-107723000D01*
X140181064Y-109193000D02*
X139726936Y-109193000D01*
%TO.C,R2*%
X139726936Y-104929000D02*
X140181064Y-104929000D01*
X139726936Y-106399000D02*
X140181064Y-106399000D01*
%TO.C,Q6*%
X145852000Y-110238000D02*
X145852000Y-109078000D01*
X145852000Y-110238000D02*
X146162000Y-110238000D01*
X147772000Y-110238000D02*
X147462000Y-110238000D01*
X147772000Y-110238000D02*
X147772000Y-109078000D01*
D10*
X147387000Y-108428000D02*
G75*
G02*
X147237000Y-108428000I-75000J0D01*
G01*
X147237000Y-108428000D02*
G75*
G02*
X147387000Y-108428000I75000J0D01*
G01*
D11*
%TO.C,Q7*%
X142204000Y-113390000D02*
X143204000Y-113390000D01*
X142204000Y-115210000D02*
X142204000Y-113390000D01*
X142254000Y-115210000D02*
X142204000Y-115210000D01*
X144154000Y-115210000D02*
X143374000Y-115210000D01*
X144324000Y-113390000D02*
X145324000Y-113390000D01*
X145324000Y-113390000D02*
X145324000Y-115210000D01*
X145324000Y-115210000D02*
X145274000Y-115210000D01*
X143714000Y-115990000D02*
X143384000Y-115750000D01*
X143714000Y-115510000D01*
X143714000Y-115990000D01*
G36*
X143714000Y-115990000D02*
G01*
X143384000Y-115750000D01*
X143714000Y-115510000D01*
X143714000Y-115990000D01*
G37*
%TO.C,R9*%
X148871000Y-104875064D02*
X148871000Y-104420936D01*
X150341000Y-104875064D02*
X150341000Y-104420936D01*
%TO.C,JP4*%
X133240000Y-98696000D02*
X134620000Y-98696000D01*
X133240000Y-100076000D02*
X133240000Y-98696000D01*
X133240000Y-101346000D02*
X133240000Y-106536000D01*
X133240000Y-101346000D02*
X136000000Y-101346000D01*
X133240000Y-106536000D02*
X136000000Y-106536000D01*
X136000000Y-101346000D02*
X136000000Y-106536000D01*
%TO.C,R12*%
X148871000Y-109701064D02*
X148871000Y-109246936D01*
X150341000Y-109701064D02*
X150341000Y-109246936D01*
%TO.C,JP1*%
X121810000Y-98696000D02*
X123190000Y-98696000D01*
X121810000Y-100076000D02*
X121810000Y-98696000D01*
X121810000Y-101346000D02*
X121810000Y-106536000D01*
X121810000Y-101346000D02*
X124570000Y-101346000D01*
X121810000Y-106536000D02*
X124570000Y-106536000D01*
X124570000Y-101346000D02*
X124570000Y-106536000D01*
%TD*%
M02*
