%TF.GenerationSoftware,KiCad,Pcbnew,9.0.6-9.0.6~ubuntu24.04.1*%
%TF.CreationDate,2026-01-17T19:07:13-03:00*%
%TF.ProjectId,cotti_leds,636f7474-695f-46c6-9564-732e6b696361,0.0*%
%TF.SameCoordinates,Original*%
%TF.FileFunction,Paste,Top*%
%TF.FilePolarity,Positive*%
%FSLAX46Y46*%
G04 Gerber Fmt 4.6, Leading zero omitted, Abs format (unit mm)*
G04 Created by KiCad (PCBNEW 9.0.6-9.0.6~ubuntu24.04.1) date 2026-01-17 19:07:13*
%MOMM*%
%LPD*%
G01*
G04 APERTURE LIST*
G04 Aperture macros list*
%AMRoundRect*
0 Rectangle with rounded corners*
0 $1 Rounding radius*
0 $2 $3 $4 $5 $6 $7 $8 $9 X,Y pos of 4 corners*
0 Add a 4 corners polygon primitive as box body*
4,1,4,$2,$3,$4,$5,$6,$7,$8,$9,$2,$3,0*
0 Add four circle primitives for the rounded corners*
1,1,$1+$1,$2,$3*
1,1,$1+$1,$4,$5*
1,1,$1+$1,$6,$7*
1,1,$1+$1,$8,$9*
0 Add four rect primitives between the rounded corners*
20,1,$1+$1,$2,$3,$4,$5,0*
20,1,$1+$1,$4,$5,$6,$7,0*
20,1,$1+$1,$6,$7,$8,$9,0*
20,1,$1+$1,$8,$9,$2,$3,0*%
G04 Aperture macros list end*
%ADD10RoundRect,0.250000X0.350000X0.450000X-0.350000X0.450000X-0.350000X-0.450000X0.350000X-0.450000X0*%
%ADD11RoundRect,0.250000X0.450000X-0.350000X0.450000X0.350000X-0.450000X0.350000X-0.450000X-0.350000X0*%
%ADD12RoundRect,0.250000X-0.350000X-0.450000X0.350000X-0.450000X0.350000X0.450000X-0.350000X0.450000X0*%
%ADD13RoundRect,0.237500X0.237500X-0.287500X0.237500X0.287500X-0.237500X0.287500X-0.237500X-0.287500X0*%
%ADD14RoundRect,0.150000X0.150000X-0.512500X0.150000X0.512500X-0.150000X0.512500X-0.150000X-0.512500X0*%
%ADD15RoundRect,0.125000X-0.125000X0.175000X-0.125000X-0.175000X0.125000X-0.175000X0.125000X0.175000X0*%
G04 APERTURE END LIST*
D10*
%TO.C,R8*%
X140954000Y-103632000D03*
X138954000Y-103632000D03*
%TD*%
D11*
%TO.C,R10*%
X152400000Y-105648000D03*
X152400000Y-103648000D03*
%TD*%
D12*
%TO.C,R3*%
X138954000Y-110490000D03*
X140954000Y-110490000D03*
%TD*%
%TO.C,R1*%
X138954000Y-100838000D03*
X140954000Y-100838000D03*
%TD*%
D11*
%TO.C,R15*%
X149606000Y-115300000D03*
X149606000Y-113300000D03*
%TD*%
D10*
%TO.C,R5*%
X140954000Y-98806000D03*
X138954000Y-98806000D03*
%TD*%
D11*
%TO.C,R7*%
X152400000Y-100822000D03*
X152400000Y-98822000D03*
%TD*%
%TO.C,R13*%
X152400000Y-110474000D03*
X152400000Y-108474000D03*
%TD*%
D13*
%TO.C,D1*%
X154940000Y-100697000D03*
X154940000Y-98947000D03*
%TD*%
D12*
%TO.C,R4*%
X138954000Y-115316000D03*
X140954000Y-115316000D03*
%TD*%
D14*
%TO.C,Q3*%
X142814000Y-105785500D03*
X144714000Y-105785500D03*
X143764000Y-103510500D03*
%TD*%
%TO.C,Q5*%
X142814000Y-110611500D03*
X144714000Y-110611500D03*
X143764000Y-108336500D03*
%TD*%
D15*
%TO.C,Q2*%
X147312000Y-99426000D03*
X146312000Y-99426000D03*
X146812000Y-100726000D03*
%TD*%
D10*
%TO.C,R14*%
X140954000Y-113284000D03*
X138954000Y-113284000D03*
%TD*%
D13*
%TO.C,D2*%
X154940000Y-105523000D03*
X154940000Y-103773000D03*
%TD*%
D15*
%TO.C,Q8*%
X147312000Y-113904000D03*
X146312000Y-113904000D03*
X146812000Y-115204000D03*
%TD*%
%TO.C,Q4*%
X147312000Y-104252000D03*
X146312000Y-104252000D03*
X146812000Y-105552000D03*
%TD*%
D11*
%TO.C,R16*%
X152400000Y-115300000D03*
X152400000Y-113300000D03*
%TD*%
%TO.C,R6*%
X149606000Y-100822000D03*
X149606000Y-98822000D03*
%TD*%
D13*
%TO.C,D3*%
X154940000Y-110349000D03*
X154940000Y-108599000D03*
%TD*%
D14*
%TO.C,Q1*%
X142814000Y-100959500D03*
X144714000Y-100959500D03*
X143764000Y-98684500D03*
%TD*%
D13*
%TO.C,D4*%
X154940000Y-115175000D03*
X154940000Y-113425000D03*
%TD*%
D10*
%TO.C,R11*%
X140954000Y-108458000D03*
X138954000Y-108458000D03*
%TD*%
D12*
%TO.C,R2*%
X138954000Y-105664000D03*
X140954000Y-105664000D03*
%TD*%
D15*
%TO.C,Q6*%
X147312000Y-109078000D03*
X146312000Y-109078000D03*
X146812000Y-110378000D03*
%TD*%
D14*
%TO.C,Q7*%
X142814000Y-115437500D03*
X144714000Y-115437500D03*
X143764000Y-113162500D03*
%TD*%
D11*
%TO.C,R9*%
X149606000Y-105648000D03*
X149606000Y-103648000D03*
%TD*%
%TO.C,R12*%
X149606000Y-110474000D03*
X149606000Y-108474000D03*
%TD*%
M02*
