M48
; DRILL file {KiCad 9.0.6-9.0.6~ubuntu24.04.1} date 2026-01-17T19:10:03-0300
; FORMAT={-:-/ absolute / metric / decimal}
; #@! TF.CreationDate,2026-01-17T19:10:03-03:00
; #@! TF.GenerationSoftware,Kicad,Pcbnew,9.0.6-9.0.6~ubuntu24.04.1
; #@! TF.FileFunction,Plated,1,2,PTH
FMAT,2
METRIC
; #@! TA.AperFunction,Plated,PTH,ViaDrill
T1C0.300
; #@! TA.AperFunction,Plated,PTH,ComponentDrill
T2C1.000
; #@! TA.AperFunction,Plated,PTH,ComponentDrill
T3C1.100
%
G90
G05
T1
X139.649Y-111.252
X139.7Y-106.324
X139.7Y-120.853
X139.802Y-116.078
X145.745Y-113.081
X145.745Y-118.008
X145.796Y-103.53
X145.796Y-108.356
X156.108Y-120.904
X156.159Y-106.324
X156.159Y-111.303
X156.159Y-116.078
T2
X130.81Y-105.41
X130.81Y-107.95
X130.81Y-110.49
X130.81Y-113.03
X130.81Y-115.57
X130.81Y-118.11
T3
X159.056Y-105.7
X159.056Y-110.2
X159.056Y-113.32
X159.056Y-117.82
X165.556Y-105.7
X165.556Y-110.2
X165.556Y-113.32
X165.556Y-117.82
X168.962Y-105.7
X168.962Y-110.2
X168.962Y-113.32
X168.962Y-117.82
X175.462Y-105.7
X175.462Y-110.2
X175.462Y-113.32
X175.462Y-117.82
M30
