%TF.GenerationSoftware,KiCad,Pcbnew,9.0.6-9.0.6~ubuntu24.04.1*%
%TF.CreationDate,2026-01-17T19:09:58-03:00*%
%TF.ProjectId,cotti_buttons,636f7474-695f-4627-9574-746f6e732e6b,0.0*%
%TF.SameCoordinates,Original*%
%TF.FileFunction,Legend,Top*%
%TF.FilePolarity,Positive*%
%FSLAX46Y46*%
G04 Gerber Fmt 4.6, Leading zero omitted, Abs format (unit mm)*
G04 Created by KiCad (PCBNEW 9.0.6-9.0.6~ubuntu24.04.1) date 2026-01-17 19:09:58*
%MOMM*%
%LPD*%
G01*
G04 APERTURE LIST*
%ADD10C,0.150000*%
%ADD11C,0.120000*%
%ADD12C,0.100000*%
G04 APERTURE END LIST*
D10*
X132369160Y-113487200D02*
X132512017Y-113534819D01*
X132512017Y-113534819D02*
X132750112Y-113534819D01*
X132750112Y-113534819D02*
X132845350Y-113487200D01*
X132845350Y-113487200D02*
X132892969Y-113439580D01*
X132892969Y-113439580D02*
X132940588Y-113344342D01*
X132940588Y-113344342D02*
X132940588Y-113249104D01*
X132940588Y-113249104D02*
X132892969Y-113153866D01*
X132892969Y-113153866D02*
X132845350Y-113106247D01*
X132845350Y-113106247D02*
X132750112Y-113058628D01*
X132750112Y-113058628D02*
X132559636Y-113011009D01*
X132559636Y-113011009D02*
X132464398Y-112963390D01*
X132464398Y-112963390D02*
X132416779Y-112915771D01*
X132416779Y-112915771D02*
X132369160Y-112820533D01*
X132369160Y-112820533D02*
X132369160Y-112725295D01*
X132369160Y-112725295D02*
X132416779Y-112630057D01*
X132416779Y-112630057D02*
X132464398Y-112582438D01*
X132464398Y-112582438D02*
X132559636Y-112534819D01*
X132559636Y-112534819D02*
X132797731Y-112534819D01*
X132797731Y-112534819D02*
X132940588Y-112582438D01*
X133273922Y-112534819D02*
X133512017Y-113534819D01*
X133512017Y-113534819D02*
X133702493Y-112820533D01*
X133702493Y-112820533D02*
X133892969Y-113534819D01*
X133892969Y-113534819D02*
X134131065Y-112534819D01*
X134940588Y-112868152D02*
X134940588Y-113534819D01*
X134702493Y-112487200D02*
X134464398Y-113201485D01*
X134464398Y-113201485D02*
X135083445Y-113201485D01*
X132369160Y-110947200D02*
X132512017Y-110994819D01*
X132512017Y-110994819D02*
X132750112Y-110994819D01*
X132750112Y-110994819D02*
X132845350Y-110947200D01*
X132845350Y-110947200D02*
X132892969Y-110899580D01*
X132892969Y-110899580D02*
X132940588Y-110804342D01*
X132940588Y-110804342D02*
X132940588Y-110709104D01*
X132940588Y-110709104D02*
X132892969Y-110613866D01*
X132892969Y-110613866D02*
X132845350Y-110566247D01*
X132845350Y-110566247D02*
X132750112Y-110518628D01*
X132750112Y-110518628D02*
X132559636Y-110471009D01*
X132559636Y-110471009D02*
X132464398Y-110423390D01*
X132464398Y-110423390D02*
X132416779Y-110375771D01*
X132416779Y-110375771D02*
X132369160Y-110280533D01*
X132369160Y-110280533D02*
X132369160Y-110185295D01*
X132369160Y-110185295D02*
X132416779Y-110090057D01*
X132416779Y-110090057D02*
X132464398Y-110042438D01*
X132464398Y-110042438D02*
X132559636Y-109994819D01*
X132559636Y-109994819D02*
X132797731Y-109994819D01*
X132797731Y-109994819D02*
X132940588Y-110042438D01*
X133273922Y-109994819D02*
X133512017Y-110994819D01*
X133512017Y-110994819D02*
X133702493Y-110280533D01*
X133702493Y-110280533D02*
X133892969Y-110994819D01*
X133892969Y-110994819D02*
X134131065Y-109994819D01*
X134416779Y-109994819D02*
X135035826Y-109994819D01*
X135035826Y-109994819D02*
X134702493Y-110375771D01*
X134702493Y-110375771D02*
X134845350Y-110375771D01*
X134845350Y-110375771D02*
X134940588Y-110423390D01*
X134940588Y-110423390D02*
X134988207Y-110471009D01*
X134988207Y-110471009D02*
X135035826Y-110566247D01*
X135035826Y-110566247D02*
X135035826Y-110804342D01*
X135035826Y-110804342D02*
X134988207Y-110899580D01*
X134988207Y-110899580D02*
X134940588Y-110947200D01*
X134940588Y-110947200D02*
X134845350Y-110994819D01*
X134845350Y-110994819D02*
X134559636Y-110994819D01*
X134559636Y-110994819D02*
X134464398Y-110947200D01*
X134464398Y-110947200D02*
X134416779Y-110899580D01*
X132940588Y-115122438D02*
X132845350Y-115074819D01*
X132845350Y-115074819D02*
X132702493Y-115074819D01*
X132702493Y-115074819D02*
X132559636Y-115122438D01*
X132559636Y-115122438D02*
X132464398Y-115217676D01*
X132464398Y-115217676D02*
X132416779Y-115312914D01*
X132416779Y-115312914D02*
X132369160Y-115503390D01*
X132369160Y-115503390D02*
X132369160Y-115646247D01*
X132369160Y-115646247D02*
X132416779Y-115836723D01*
X132416779Y-115836723D02*
X132464398Y-115931961D01*
X132464398Y-115931961D02*
X132559636Y-116027200D01*
X132559636Y-116027200D02*
X132702493Y-116074819D01*
X132702493Y-116074819D02*
X132797731Y-116074819D01*
X132797731Y-116074819D02*
X132940588Y-116027200D01*
X132940588Y-116027200D02*
X132988207Y-115979580D01*
X132988207Y-115979580D02*
X132988207Y-115646247D01*
X132988207Y-115646247D02*
X132797731Y-115646247D01*
X133416779Y-116074819D02*
X133416779Y-115074819D01*
X133416779Y-115074819D02*
X133988207Y-116074819D01*
X133988207Y-116074819D02*
X133988207Y-115074819D01*
X134464398Y-116074819D02*
X134464398Y-115074819D01*
X134464398Y-115074819D02*
X134702493Y-115074819D01*
X134702493Y-115074819D02*
X134845350Y-115122438D01*
X134845350Y-115122438D02*
X134940588Y-115217676D01*
X134940588Y-115217676D02*
X134988207Y-115312914D01*
X134988207Y-115312914D02*
X135035826Y-115503390D01*
X135035826Y-115503390D02*
X135035826Y-115646247D01*
X135035826Y-115646247D02*
X134988207Y-115836723D01*
X134988207Y-115836723D02*
X134940588Y-115931961D01*
X134940588Y-115931961D02*
X134845350Y-116027200D01*
X134845350Y-116027200D02*
X134702493Y-116074819D01*
X134702493Y-116074819D02*
X134464398Y-116074819D01*
X132273922Y-117614819D02*
X132607255Y-118614819D01*
X132607255Y-118614819D02*
X132940588Y-117614819D01*
X133845350Y-118519580D02*
X133797731Y-118567200D01*
X133797731Y-118567200D02*
X133654874Y-118614819D01*
X133654874Y-118614819D02*
X133559636Y-118614819D01*
X133559636Y-118614819D02*
X133416779Y-118567200D01*
X133416779Y-118567200D02*
X133321541Y-118471961D01*
X133321541Y-118471961D02*
X133273922Y-118376723D01*
X133273922Y-118376723D02*
X133226303Y-118186247D01*
X133226303Y-118186247D02*
X133226303Y-118043390D01*
X133226303Y-118043390D02*
X133273922Y-117852914D01*
X133273922Y-117852914D02*
X133321541Y-117757676D01*
X133321541Y-117757676D02*
X133416779Y-117662438D01*
X133416779Y-117662438D02*
X133559636Y-117614819D01*
X133559636Y-117614819D02*
X133654874Y-117614819D01*
X133654874Y-117614819D02*
X133797731Y-117662438D01*
X133797731Y-117662438D02*
X133845350Y-117710057D01*
X134845350Y-118519580D02*
X134797731Y-118567200D01*
X134797731Y-118567200D02*
X134654874Y-118614819D01*
X134654874Y-118614819D02*
X134559636Y-118614819D01*
X134559636Y-118614819D02*
X134416779Y-118567200D01*
X134416779Y-118567200D02*
X134321541Y-118471961D01*
X134321541Y-118471961D02*
X134273922Y-118376723D01*
X134273922Y-118376723D02*
X134226303Y-118186247D01*
X134226303Y-118186247D02*
X134226303Y-118043390D01*
X134226303Y-118043390D02*
X134273922Y-117852914D01*
X134273922Y-117852914D02*
X134321541Y-117757676D01*
X134321541Y-117757676D02*
X134416779Y-117662438D01*
X134416779Y-117662438D02*
X134559636Y-117614819D01*
X134559636Y-117614819D02*
X134654874Y-117614819D01*
X134654874Y-117614819D02*
X134797731Y-117662438D01*
X134797731Y-117662438D02*
X134845350Y-117710057D01*
X132369160Y-105867200D02*
X132512017Y-105914819D01*
X132512017Y-105914819D02*
X132750112Y-105914819D01*
X132750112Y-105914819D02*
X132845350Y-105867200D01*
X132845350Y-105867200D02*
X132892969Y-105819580D01*
X132892969Y-105819580D02*
X132940588Y-105724342D01*
X132940588Y-105724342D02*
X132940588Y-105629104D01*
X132940588Y-105629104D02*
X132892969Y-105533866D01*
X132892969Y-105533866D02*
X132845350Y-105486247D01*
X132845350Y-105486247D02*
X132750112Y-105438628D01*
X132750112Y-105438628D02*
X132559636Y-105391009D01*
X132559636Y-105391009D02*
X132464398Y-105343390D01*
X132464398Y-105343390D02*
X132416779Y-105295771D01*
X132416779Y-105295771D02*
X132369160Y-105200533D01*
X132369160Y-105200533D02*
X132369160Y-105105295D01*
X132369160Y-105105295D02*
X132416779Y-105010057D01*
X132416779Y-105010057D02*
X132464398Y-104962438D01*
X132464398Y-104962438D02*
X132559636Y-104914819D01*
X132559636Y-104914819D02*
X132797731Y-104914819D01*
X132797731Y-104914819D02*
X132940588Y-104962438D01*
X133273922Y-104914819D02*
X133512017Y-105914819D01*
X133512017Y-105914819D02*
X133702493Y-105200533D01*
X133702493Y-105200533D02*
X133892969Y-105914819D01*
X133892969Y-105914819D02*
X134131065Y-104914819D01*
X135035826Y-105914819D02*
X134464398Y-105914819D01*
X134750112Y-105914819D02*
X134750112Y-104914819D01*
X134750112Y-104914819D02*
X134654874Y-105057676D01*
X134654874Y-105057676D02*
X134559636Y-105152914D01*
X134559636Y-105152914D02*
X134464398Y-105200533D01*
X132369160Y-108407200D02*
X132512017Y-108454819D01*
X132512017Y-108454819D02*
X132750112Y-108454819D01*
X132750112Y-108454819D02*
X132845350Y-108407200D01*
X132845350Y-108407200D02*
X132892969Y-108359580D01*
X132892969Y-108359580D02*
X132940588Y-108264342D01*
X132940588Y-108264342D02*
X132940588Y-108169104D01*
X132940588Y-108169104D02*
X132892969Y-108073866D01*
X132892969Y-108073866D02*
X132845350Y-108026247D01*
X132845350Y-108026247D02*
X132750112Y-107978628D01*
X132750112Y-107978628D02*
X132559636Y-107931009D01*
X132559636Y-107931009D02*
X132464398Y-107883390D01*
X132464398Y-107883390D02*
X132416779Y-107835771D01*
X132416779Y-107835771D02*
X132369160Y-107740533D01*
X132369160Y-107740533D02*
X132369160Y-107645295D01*
X132369160Y-107645295D02*
X132416779Y-107550057D01*
X132416779Y-107550057D02*
X132464398Y-107502438D01*
X132464398Y-107502438D02*
X132559636Y-107454819D01*
X132559636Y-107454819D02*
X132797731Y-107454819D01*
X132797731Y-107454819D02*
X132940588Y-107502438D01*
X133273922Y-107454819D02*
X133512017Y-108454819D01*
X133512017Y-108454819D02*
X133702493Y-107740533D01*
X133702493Y-107740533D02*
X133892969Y-108454819D01*
X133892969Y-108454819D02*
X134131065Y-107454819D01*
X134464398Y-107550057D02*
X134512017Y-107502438D01*
X134512017Y-107502438D02*
X134607255Y-107454819D01*
X134607255Y-107454819D02*
X134845350Y-107454819D01*
X134845350Y-107454819D02*
X134940588Y-107502438D01*
X134940588Y-107502438D02*
X134988207Y-107550057D01*
X134988207Y-107550057D02*
X135035826Y-107645295D01*
X135035826Y-107645295D02*
X135035826Y-107740533D01*
X135035826Y-107740533D02*
X134988207Y-107883390D01*
X134988207Y-107883390D02*
X134416779Y-108454819D01*
X134416779Y-108454819D02*
X135035826Y-108454819D01*
X160972667Y-104107200D02*
X161115524Y-104154819D01*
X161115524Y-104154819D02*
X161353619Y-104154819D01*
X161353619Y-104154819D02*
X161448857Y-104107200D01*
X161448857Y-104107200D02*
X161496476Y-104059580D01*
X161496476Y-104059580D02*
X161544095Y-103964342D01*
X161544095Y-103964342D02*
X161544095Y-103869104D01*
X161544095Y-103869104D02*
X161496476Y-103773866D01*
X161496476Y-103773866D02*
X161448857Y-103726247D01*
X161448857Y-103726247D02*
X161353619Y-103678628D01*
X161353619Y-103678628D02*
X161163143Y-103631009D01*
X161163143Y-103631009D02*
X161067905Y-103583390D01*
X161067905Y-103583390D02*
X161020286Y-103535771D01*
X161020286Y-103535771D02*
X160972667Y-103440533D01*
X160972667Y-103440533D02*
X160972667Y-103345295D01*
X160972667Y-103345295D02*
X161020286Y-103250057D01*
X161020286Y-103250057D02*
X161067905Y-103202438D01*
X161067905Y-103202438D02*
X161163143Y-103154819D01*
X161163143Y-103154819D02*
X161401238Y-103154819D01*
X161401238Y-103154819D02*
X161544095Y-103202438D01*
X161877429Y-103154819D02*
X162115524Y-104154819D01*
X162115524Y-104154819D02*
X162306000Y-103440533D01*
X162306000Y-103440533D02*
X162496476Y-104154819D01*
X162496476Y-104154819D02*
X162734572Y-103154819D01*
X163639333Y-104154819D02*
X163067905Y-104154819D01*
X163353619Y-104154819D02*
X163353619Y-103154819D01*
X163353619Y-103154819D02*
X163258381Y-103297676D01*
X163258381Y-103297676D02*
X163163143Y-103392914D01*
X163163143Y-103392914D02*
X163067905Y-103440533D01*
X138009333Y-103706819D02*
X137676000Y-103230628D01*
X137437905Y-103706819D02*
X137437905Y-102706819D01*
X137437905Y-102706819D02*
X137818857Y-102706819D01*
X137818857Y-102706819D02*
X137914095Y-102754438D01*
X137914095Y-102754438D02*
X137961714Y-102802057D01*
X137961714Y-102802057D02*
X138009333Y-102897295D01*
X138009333Y-102897295D02*
X138009333Y-103040152D01*
X138009333Y-103040152D02*
X137961714Y-103135390D01*
X137961714Y-103135390D02*
X137914095Y-103183009D01*
X137914095Y-103183009D02*
X137818857Y-103230628D01*
X137818857Y-103230628D02*
X137437905Y-103230628D01*
X138961714Y-103706819D02*
X138390286Y-103706819D01*
X138676000Y-103706819D02*
X138676000Y-102706819D01*
X138676000Y-102706819D02*
X138580762Y-102849676D01*
X138580762Y-102849676D02*
X138485524Y-102944914D01*
X138485524Y-102944914D02*
X138390286Y-102992533D01*
X138009333Y-108532819D02*
X137676000Y-108056628D01*
X137437905Y-108532819D02*
X137437905Y-107532819D01*
X137437905Y-107532819D02*
X137818857Y-107532819D01*
X137818857Y-107532819D02*
X137914095Y-107580438D01*
X137914095Y-107580438D02*
X137961714Y-107628057D01*
X137961714Y-107628057D02*
X138009333Y-107723295D01*
X138009333Y-107723295D02*
X138009333Y-107866152D01*
X138009333Y-107866152D02*
X137961714Y-107961390D01*
X137961714Y-107961390D02*
X137914095Y-108009009D01*
X137914095Y-108009009D02*
X137818857Y-108056628D01*
X137818857Y-108056628D02*
X137437905Y-108056628D01*
X138390286Y-107628057D02*
X138437905Y-107580438D01*
X138437905Y-107580438D02*
X138533143Y-107532819D01*
X138533143Y-107532819D02*
X138771238Y-107532819D01*
X138771238Y-107532819D02*
X138866476Y-107580438D01*
X138866476Y-107580438D02*
X138914095Y-107628057D01*
X138914095Y-107628057D02*
X138961714Y-107723295D01*
X138961714Y-107723295D02*
X138961714Y-107818533D01*
X138961714Y-107818533D02*
X138914095Y-107961390D01*
X138914095Y-107961390D02*
X138342667Y-108532819D01*
X138342667Y-108532819D02*
X138961714Y-108532819D01*
X160972667Y-120295200D02*
X161115524Y-120342819D01*
X161115524Y-120342819D02*
X161353619Y-120342819D01*
X161353619Y-120342819D02*
X161448857Y-120295200D01*
X161448857Y-120295200D02*
X161496476Y-120247580D01*
X161496476Y-120247580D02*
X161544095Y-120152342D01*
X161544095Y-120152342D02*
X161544095Y-120057104D01*
X161544095Y-120057104D02*
X161496476Y-119961866D01*
X161496476Y-119961866D02*
X161448857Y-119914247D01*
X161448857Y-119914247D02*
X161353619Y-119866628D01*
X161353619Y-119866628D02*
X161163143Y-119819009D01*
X161163143Y-119819009D02*
X161067905Y-119771390D01*
X161067905Y-119771390D02*
X161020286Y-119723771D01*
X161020286Y-119723771D02*
X160972667Y-119628533D01*
X160972667Y-119628533D02*
X160972667Y-119533295D01*
X160972667Y-119533295D02*
X161020286Y-119438057D01*
X161020286Y-119438057D02*
X161067905Y-119390438D01*
X161067905Y-119390438D02*
X161163143Y-119342819D01*
X161163143Y-119342819D02*
X161401238Y-119342819D01*
X161401238Y-119342819D02*
X161544095Y-119390438D01*
X161877429Y-119342819D02*
X162115524Y-120342819D01*
X162115524Y-120342819D02*
X162306000Y-119628533D01*
X162306000Y-119628533D02*
X162496476Y-120342819D01*
X162496476Y-120342819D02*
X162734572Y-119342819D01*
X163020286Y-119342819D02*
X163639333Y-119342819D01*
X163639333Y-119342819D02*
X163306000Y-119723771D01*
X163306000Y-119723771D02*
X163448857Y-119723771D01*
X163448857Y-119723771D02*
X163544095Y-119771390D01*
X163544095Y-119771390D02*
X163591714Y-119819009D01*
X163591714Y-119819009D02*
X163639333Y-119914247D01*
X163639333Y-119914247D02*
X163639333Y-120152342D01*
X163639333Y-120152342D02*
X163591714Y-120247580D01*
X163591714Y-120247580D02*
X163544095Y-120295200D01*
X163544095Y-120295200D02*
X163448857Y-120342819D01*
X163448857Y-120342819D02*
X163163143Y-120342819D01*
X163163143Y-120342819D02*
X163067905Y-120295200D01*
X163067905Y-120295200D02*
X163020286Y-120247580D01*
X141732095Y-111722819D02*
X141732095Y-112532342D01*
X141732095Y-112532342D02*
X141779714Y-112627580D01*
X141779714Y-112627580D02*
X141827333Y-112675200D01*
X141827333Y-112675200D02*
X141922571Y-112722819D01*
X141922571Y-112722819D02*
X142113047Y-112722819D01*
X142113047Y-112722819D02*
X142208285Y-112675200D01*
X142208285Y-112675200D02*
X142255904Y-112627580D01*
X142255904Y-112627580D02*
X142303523Y-112532342D01*
X142303523Y-112532342D02*
X142303523Y-111722819D01*
X142684476Y-111722819D02*
X143303523Y-111722819D01*
X143303523Y-111722819D02*
X142970190Y-112103771D01*
X142970190Y-112103771D02*
X143113047Y-112103771D01*
X143113047Y-112103771D02*
X143208285Y-112151390D01*
X143208285Y-112151390D02*
X143255904Y-112199009D01*
X143255904Y-112199009D02*
X143303523Y-112294247D01*
X143303523Y-112294247D02*
X143303523Y-112532342D01*
X143303523Y-112532342D02*
X143255904Y-112627580D01*
X143255904Y-112627580D02*
X143208285Y-112675200D01*
X143208285Y-112675200D02*
X143113047Y-112722819D01*
X143113047Y-112722819D02*
X142827333Y-112722819D01*
X142827333Y-112722819D02*
X142732095Y-112675200D01*
X142732095Y-112675200D02*
X142684476Y-112627580D01*
X141732095Y-102070819D02*
X141732095Y-102880342D01*
X141732095Y-102880342D02*
X141779714Y-102975580D01*
X141779714Y-102975580D02*
X141827333Y-103023200D01*
X141827333Y-103023200D02*
X141922571Y-103070819D01*
X141922571Y-103070819D02*
X142113047Y-103070819D01*
X142113047Y-103070819D02*
X142208285Y-103023200D01*
X142208285Y-103023200D02*
X142255904Y-102975580D01*
X142255904Y-102975580D02*
X142303523Y-102880342D01*
X142303523Y-102880342D02*
X142303523Y-102070819D01*
X143303523Y-103070819D02*
X142732095Y-103070819D01*
X143017809Y-103070819D02*
X143017809Y-102070819D01*
X143017809Y-102070819D02*
X142922571Y-102213676D01*
X142922571Y-102213676D02*
X142827333Y-102308914D01*
X142827333Y-102308914D02*
X142732095Y-102356533D01*
X150436342Y-118260019D02*
X150103009Y-117783828D01*
X149864914Y-118260019D02*
X149864914Y-117260019D01*
X149864914Y-117260019D02*
X150245866Y-117260019D01*
X150245866Y-117260019D02*
X150341104Y-117307638D01*
X150341104Y-117307638D02*
X150388723Y-117355257D01*
X150388723Y-117355257D02*
X150436342Y-117450495D01*
X150436342Y-117450495D02*
X150436342Y-117593352D01*
X150436342Y-117593352D02*
X150388723Y-117688590D01*
X150388723Y-117688590D02*
X150341104Y-117736209D01*
X150341104Y-117736209D02*
X150245866Y-117783828D01*
X150245866Y-117783828D02*
X149864914Y-117783828D01*
X151388723Y-118260019D02*
X150817295Y-118260019D01*
X151103009Y-118260019D02*
X151103009Y-117260019D01*
X151103009Y-117260019D02*
X151007771Y-117402876D01*
X151007771Y-117402876D02*
X150912533Y-117498114D01*
X150912533Y-117498114D02*
X150817295Y-117545733D01*
X151769676Y-117355257D02*
X151817295Y-117307638D01*
X151817295Y-117307638D02*
X151912533Y-117260019D01*
X151912533Y-117260019D02*
X152150628Y-117260019D01*
X152150628Y-117260019D02*
X152245866Y-117307638D01*
X152245866Y-117307638D02*
X152293485Y-117355257D01*
X152293485Y-117355257D02*
X152341104Y-117450495D01*
X152341104Y-117450495D02*
X152341104Y-117545733D01*
X152341104Y-117545733D02*
X152293485Y-117688590D01*
X152293485Y-117688590D02*
X151722057Y-118260019D01*
X151722057Y-118260019D02*
X152341104Y-118260019D01*
X138009333Y-113358819D02*
X137676000Y-112882628D01*
X137437905Y-113358819D02*
X137437905Y-112358819D01*
X137437905Y-112358819D02*
X137818857Y-112358819D01*
X137818857Y-112358819D02*
X137914095Y-112406438D01*
X137914095Y-112406438D02*
X137961714Y-112454057D01*
X137961714Y-112454057D02*
X138009333Y-112549295D01*
X138009333Y-112549295D02*
X138009333Y-112692152D01*
X138009333Y-112692152D02*
X137961714Y-112787390D01*
X137961714Y-112787390D02*
X137914095Y-112835009D01*
X137914095Y-112835009D02*
X137818857Y-112882628D01*
X137818857Y-112882628D02*
X137437905Y-112882628D01*
X138342667Y-112358819D02*
X138961714Y-112358819D01*
X138961714Y-112358819D02*
X138628381Y-112739771D01*
X138628381Y-112739771D02*
X138771238Y-112739771D01*
X138771238Y-112739771D02*
X138866476Y-112787390D01*
X138866476Y-112787390D02*
X138914095Y-112835009D01*
X138914095Y-112835009D02*
X138961714Y-112930247D01*
X138961714Y-112930247D02*
X138961714Y-113168342D01*
X138961714Y-113168342D02*
X138914095Y-113263580D01*
X138914095Y-113263580D02*
X138866476Y-113311200D01*
X138866476Y-113311200D02*
X138771238Y-113358819D01*
X138771238Y-113358819D02*
X138485524Y-113358819D01*
X138485524Y-113358819D02*
X138390286Y-113311200D01*
X138390286Y-113311200D02*
X138342667Y-113263580D01*
X154975333Y-103705819D02*
X154642000Y-103229628D01*
X154403905Y-103705819D02*
X154403905Y-102705819D01*
X154403905Y-102705819D02*
X154784857Y-102705819D01*
X154784857Y-102705819D02*
X154880095Y-102753438D01*
X154880095Y-102753438D02*
X154927714Y-102801057D01*
X154927714Y-102801057D02*
X154975333Y-102896295D01*
X154975333Y-102896295D02*
X154975333Y-103039152D01*
X154975333Y-103039152D02*
X154927714Y-103134390D01*
X154927714Y-103134390D02*
X154880095Y-103182009D01*
X154880095Y-103182009D02*
X154784857Y-103229628D01*
X154784857Y-103229628D02*
X154403905Y-103229628D01*
X155880095Y-102705819D02*
X155403905Y-102705819D01*
X155403905Y-102705819D02*
X155356286Y-103182009D01*
X155356286Y-103182009D02*
X155403905Y-103134390D01*
X155403905Y-103134390D02*
X155499143Y-103086771D01*
X155499143Y-103086771D02*
X155737238Y-103086771D01*
X155737238Y-103086771D02*
X155832476Y-103134390D01*
X155832476Y-103134390D02*
X155880095Y-103182009D01*
X155880095Y-103182009D02*
X155927714Y-103277247D01*
X155927714Y-103277247D02*
X155927714Y-103515342D01*
X155927714Y-103515342D02*
X155880095Y-103610580D01*
X155880095Y-103610580D02*
X155832476Y-103658200D01*
X155832476Y-103658200D02*
X155737238Y-103705819D01*
X155737238Y-103705819D02*
X155499143Y-103705819D01*
X155499143Y-103705819D02*
X155403905Y-103658200D01*
X155403905Y-103658200D02*
X155356286Y-103610580D01*
X150911333Y-103832819D02*
X150578000Y-103356628D01*
X150339905Y-103832819D02*
X150339905Y-102832819D01*
X150339905Y-102832819D02*
X150720857Y-102832819D01*
X150720857Y-102832819D02*
X150816095Y-102880438D01*
X150816095Y-102880438D02*
X150863714Y-102928057D01*
X150863714Y-102928057D02*
X150911333Y-103023295D01*
X150911333Y-103023295D02*
X150911333Y-103166152D01*
X150911333Y-103166152D02*
X150863714Y-103261390D01*
X150863714Y-103261390D02*
X150816095Y-103309009D01*
X150816095Y-103309009D02*
X150720857Y-103356628D01*
X150720857Y-103356628D02*
X150339905Y-103356628D01*
X151768476Y-102832819D02*
X151578000Y-102832819D01*
X151578000Y-102832819D02*
X151482762Y-102880438D01*
X151482762Y-102880438D02*
X151435143Y-102928057D01*
X151435143Y-102928057D02*
X151339905Y-103070914D01*
X151339905Y-103070914D02*
X151292286Y-103261390D01*
X151292286Y-103261390D02*
X151292286Y-103642342D01*
X151292286Y-103642342D02*
X151339905Y-103737580D01*
X151339905Y-103737580D02*
X151387524Y-103785200D01*
X151387524Y-103785200D02*
X151482762Y-103832819D01*
X151482762Y-103832819D02*
X151673238Y-103832819D01*
X151673238Y-103832819D02*
X151768476Y-103785200D01*
X151768476Y-103785200D02*
X151816095Y-103737580D01*
X151816095Y-103737580D02*
X151863714Y-103642342D01*
X151863714Y-103642342D02*
X151863714Y-103404247D01*
X151863714Y-103404247D02*
X151816095Y-103309009D01*
X151816095Y-103309009D02*
X151768476Y-103261390D01*
X151768476Y-103261390D02*
X151673238Y-103213771D01*
X151673238Y-103213771D02*
X151482762Y-103213771D01*
X151482762Y-103213771D02*
X151387524Y-103261390D01*
X151387524Y-103261390D02*
X151339905Y-103309009D01*
X151339905Y-103309009D02*
X151292286Y-103404247D01*
X170878667Y-104107200D02*
X171021524Y-104154819D01*
X171021524Y-104154819D02*
X171259619Y-104154819D01*
X171259619Y-104154819D02*
X171354857Y-104107200D01*
X171354857Y-104107200D02*
X171402476Y-104059580D01*
X171402476Y-104059580D02*
X171450095Y-103964342D01*
X171450095Y-103964342D02*
X171450095Y-103869104D01*
X171450095Y-103869104D02*
X171402476Y-103773866D01*
X171402476Y-103773866D02*
X171354857Y-103726247D01*
X171354857Y-103726247D02*
X171259619Y-103678628D01*
X171259619Y-103678628D02*
X171069143Y-103631009D01*
X171069143Y-103631009D02*
X170973905Y-103583390D01*
X170973905Y-103583390D02*
X170926286Y-103535771D01*
X170926286Y-103535771D02*
X170878667Y-103440533D01*
X170878667Y-103440533D02*
X170878667Y-103345295D01*
X170878667Y-103345295D02*
X170926286Y-103250057D01*
X170926286Y-103250057D02*
X170973905Y-103202438D01*
X170973905Y-103202438D02*
X171069143Y-103154819D01*
X171069143Y-103154819D02*
X171307238Y-103154819D01*
X171307238Y-103154819D02*
X171450095Y-103202438D01*
X171783429Y-103154819D02*
X172021524Y-104154819D01*
X172021524Y-104154819D02*
X172212000Y-103440533D01*
X172212000Y-103440533D02*
X172402476Y-104154819D01*
X172402476Y-104154819D02*
X172640572Y-103154819D01*
X172973905Y-103250057D02*
X173021524Y-103202438D01*
X173021524Y-103202438D02*
X173116762Y-103154819D01*
X173116762Y-103154819D02*
X173354857Y-103154819D01*
X173354857Y-103154819D02*
X173450095Y-103202438D01*
X173450095Y-103202438D02*
X173497714Y-103250057D01*
X173497714Y-103250057D02*
X173545333Y-103345295D01*
X173545333Y-103345295D02*
X173545333Y-103440533D01*
X173545333Y-103440533D02*
X173497714Y-103583390D01*
X173497714Y-103583390D02*
X172926286Y-104154819D01*
X172926286Y-104154819D02*
X173545333Y-104154819D01*
X138009333Y-118184819D02*
X137676000Y-117708628D01*
X137437905Y-118184819D02*
X137437905Y-117184819D01*
X137437905Y-117184819D02*
X137818857Y-117184819D01*
X137818857Y-117184819D02*
X137914095Y-117232438D01*
X137914095Y-117232438D02*
X137961714Y-117280057D01*
X137961714Y-117280057D02*
X138009333Y-117375295D01*
X138009333Y-117375295D02*
X138009333Y-117518152D01*
X138009333Y-117518152D02*
X137961714Y-117613390D01*
X137961714Y-117613390D02*
X137914095Y-117661009D01*
X137914095Y-117661009D02*
X137818857Y-117708628D01*
X137818857Y-117708628D02*
X137437905Y-117708628D01*
X138866476Y-117518152D02*
X138866476Y-118184819D01*
X138628381Y-117137200D02*
X138390286Y-117851485D01*
X138390286Y-117851485D02*
X139009333Y-117851485D01*
X146847333Y-118215580D02*
X146799714Y-118263200D01*
X146799714Y-118263200D02*
X146656857Y-118310819D01*
X146656857Y-118310819D02*
X146561619Y-118310819D01*
X146561619Y-118310819D02*
X146418762Y-118263200D01*
X146418762Y-118263200D02*
X146323524Y-118167961D01*
X146323524Y-118167961D02*
X146275905Y-118072723D01*
X146275905Y-118072723D02*
X146228286Y-117882247D01*
X146228286Y-117882247D02*
X146228286Y-117739390D01*
X146228286Y-117739390D02*
X146275905Y-117548914D01*
X146275905Y-117548914D02*
X146323524Y-117453676D01*
X146323524Y-117453676D02*
X146418762Y-117358438D01*
X146418762Y-117358438D02*
X146561619Y-117310819D01*
X146561619Y-117310819D02*
X146656857Y-117310819D01*
X146656857Y-117310819D02*
X146799714Y-117358438D01*
X146799714Y-117358438D02*
X146847333Y-117406057D01*
X147704476Y-117644152D02*
X147704476Y-118310819D01*
X147466381Y-117263200D02*
X147228286Y-117977485D01*
X147228286Y-117977485D02*
X147847333Y-117977485D01*
X150911333Y-108658819D02*
X150578000Y-108182628D01*
X150339905Y-108658819D02*
X150339905Y-107658819D01*
X150339905Y-107658819D02*
X150720857Y-107658819D01*
X150720857Y-107658819D02*
X150816095Y-107706438D01*
X150816095Y-107706438D02*
X150863714Y-107754057D01*
X150863714Y-107754057D02*
X150911333Y-107849295D01*
X150911333Y-107849295D02*
X150911333Y-107992152D01*
X150911333Y-107992152D02*
X150863714Y-108087390D01*
X150863714Y-108087390D02*
X150816095Y-108135009D01*
X150816095Y-108135009D02*
X150720857Y-108182628D01*
X150720857Y-108182628D02*
X150339905Y-108182628D01*
X151482762Y-108087390D02*
X151387524Y-108039771D01*
X151387524Y-108039771D02*
X151339905Y-107992152D01*
X151339905Y-107992152D02*
X151292286Y-107896914D01*
X151292286Y-107896914D02*
X151292286Y-107849295D01*
X151292286Y-107849295D02*
X151339905Y-107754057D01*
X151339905Y-107754057D02*
X151387524Y-107706438D01*
X151387524Y-107706438D02*
X151482762Y-107658819D01*
X151482762Y-107658819D02*
X151673238Y-107658819D01*
X151673238Y-107658819D02*
X151768476Y-107706438D01*
X151768476Y-107706438D02*
X151816095Y-107754057D01*
X151816095Y-107754057D02*
X151863714Y-107849295D01*
X151863714Y-107849295D02*
X151863714Y-107896914D01*
X151863714Y-107896914D02*
X151816095Y-107992152D01*
X151816095Y-107992152D02*
X151768476Y-108039771D01*
X151768476Y-108039771D02*
X151673238Y-108087390D01*
X151673238Y-108087390D02*
X151482762Y-108087390D01*
X151482762Y-108087390D02*
X151387524Y-108135009D01*
X151387524Y-108135009D02*
X151339905Y-108182628D01*
X151339905Y-108182628D02*
X151292286Y-108277866D01*
X151292286Y-108277866D02*
X151292286Y-108468342D01*
X151292286Y-108468342D02*
X151339905Y-108563580D01*
X151339905Y-108563580D02*
X151387524Y-108611200D01*
X151387524Y-108611200D02*
X151482762Y-108658819D01*
X151482762Y-108658819D02*
X151673238Y-108658819D01*
X151673238Y-108658819D02*
X151768476Y-108611200D01*
X151768476Y-108611200D02*
X151816095Y-108563580D01*
X151816095Y-108563580D02*
X151863714Y-108468342D01*
X151863714Y-108468342D02*
X151863714Y-108277866D01*
X151863714Y-108277866D02*
X151816095Y-108182628D01*
X151816095Y-108182628D02*
X151768476Y-108135009D01*
X151768476Y-108135009D02*
X151673238Y-108087390D01*
X130476666Y-120104819D02*
X130476666Y-120819104D01*
X130476666Y-120819104D02*
X130429047Y-120961961D01*
X130429047Y-120961961D02*
X130333809Y-121057200D01*
X130333809Y-121057200D02*
X130190952Y-121104819D01*
X130190952Y-121104819D02*
X130095714Y-121104819D01*
X131476666Y-121104819D02*
X130905238Y-121104819D01*
X131190952Y-121104819D02*
X131190952Y-120104819D01*
X131190952Y-120104819D02*
X131095714Y-120247676D01*
X131095714Y-120247676D02*
X131000476Y-120342914D01*
X131000476Y-120342914D02*
X130905238Y-120390533D01*
X146847333Y-103737580D02*
X146799714Y-103785200D01*
X146799714Y-103785200D02*
X146656857Y-103832819D01*
X146656857Y-103832819D02*
X146561619Y-103832819D01*
X146561619Y-103832819D02*
X146418762Y-103785200D01*
X146418762Y-103785200D02*
X146323524Y-103689961D01*
X146323524Y-103689961D02*
X146275905Y-103594723D01*
X146275905Y-103594723D02*
X146228286Y-103404247D01*
X146228286Y-103404247D02*
X146228286Y-103261390D01*
X146228286Y-103261390D02*
X146275905Y-103070914D01*
X146275905Y-103070914D02*
X146323524Y-102975676D01*
X146323524Y-102975676D02*
X146418762Y-102880438D01*
X146418762Y-102880438D02*
X146561619Y-102832819D01*
X146561619Y-102832819D02*
X146656857Y-102832819D01*
X146656857Y-102832819D02*
X146799714Y-102880438D01*
X146799714Y-102880438D02*
X146847333Y-102928057D01*
X147799714Y-103832819D02*
X147228286Y-103832819D01*
X147514000Y-103832819D02*
X147514000Y-102832819D01*
X147514000Y-102832819D02*
X147418762Y-102975676D01*
X147418762Y-102975676D02*
X147323524Y-103070914D01*
X147323524Y-103070914D02*
X147228286Y-103118533D01*
X146847333Y-113323580D02*
X146799714Y-113371200D01*
X146799714Y-113371200D02*
X146656857Y-113418819D01*
X146656857Y-113418819D02*
X146561619Y-113418819D01*
X146561619Y-113418819D02*
X146418762Y-113371200D01*
X146418762Y-113371200D02*
X146323524Y-113275961D01*
X146323524Y-113275961D02*
X146275905Y-113180723D01*
X146275905Y-113180723D02*
X146228286Y-112990247D01*
X146228286Y-112990247D02*
X146228286Y-112847390D01*
X146228286Y-112847390D02*
X146275905Y-112656914D01*
X146275905Y-112656914D02*
X146323524Y-112561676D01*
X146323524Y-112561676D02*
X146418762Y-112466438D01*
X146418762Y-112466438D02*
X146561619Y-112418819D01*
X146561619Y-112418819D02*
X146656857Y-112418819D01*
X146656857Y-112418819D02*
X146799714Y-112466438D01*
X146799714Y-112466438D02*
X146847333Y-112514057D01*
X147180667Y-112418819D02*
X147799714Y-112418819D01*
X147799714Y-112418819D02*
X147466381Y-112799771D01*
X147466381Y-112799771D02*
X147609238Y-112799771D01*
X147609238Y-112799771D02*
X147704476Y-112847390D01*
X147704476Y-112847390D02*
X147752095Y-112895009D01*
X147752095Y-112895009D02*
X147799714Y-112990247D01*
X147799714Y-112990247D02*
X147799714Y-113228342D01*
X147799714Y-113228342D02*
X147752095Y-113323580D01*
X147752095Y-113323580D02*
X147704476Y-113371200D01*
X147704476Y-113371200D02*
X147609238Y-113418819D01*
X147609238Y-113418819D02*
X147323524Y-113418819D01*
X147323524Y-113418819D02*
X147228286Y-113371200D01*
X147228286Y-113371200D02*
X147180667Y-113323580D01*
X154499142Y-118310819D02*
X154165809Y-117834628D01*
X153927714Y-118310819D02*
X153927714Y-117310819D01*
X153927714Y-117310819D02*
X154308666Y-117310819D01*
X154308666Y-117310819D02*
X154403904Y-117358438D01*
X154403904Y-117358438D02*
X154451523Y-117406057D01*
X154451523Y-117406057D02*
X154499142Y-117501295D01*
X154499142Y-117501295D02*
X154499142Y-117644152D01*
X154499142Y-117644152D02*
X154451523Y-117739390D01*
X154451523Y-117739390D02*
X154403904Y-117787009D01*
X154403904Y-117787009D02*
X154308666Y-117834628D01*
X154308666Y-117834628D02*
X153927714Y-117834628D01*
X155451523Y-118310819D02*
X154880095Y-118310819D01*
X155165809Y-118310819D02*
X155165809Y-117310819D01*
X155165809Y-117310819D02*
X155070571Y-117453676D01*
X155070571Y-117453676D02*
X154975333Y-117548914D01*
X154975333Y-117548914D02*
X154880095Y-117596533D01*
X156403904Y-118310819D02*
X155832476Y-118310819D01*
X156118190Y-118310819D02*
X156118190Y-117310819D01*
X156118190Y-117310819D02*
X156022952Y-117453676D01*
X156022952Y-117453676D02*
X155927714Y-117548914D01*
X155927714Y-117548914D02*
X155832476Y-117596533D01*
X141732095Y-106896819D02*
X141732095Y-107706342D01*
X141732095Y-107706342D02*
X141779714Y-107801580D01*
X141779714Y-107801580D02*
X141827333Y-107849200D01*
X141827333Y-107849200D02*
X141922571Y-107896819D01*
X141922571Y-107896819D02*
X142113047Y-107896819D01*
X142113047Y-107896819D02*
X142208285Y-107849200D01*
X142208285Y-107849200D02*
X142255904Y-107801580D01*
X142255904Y-107801580D02*
X142303523Y-107706342D01*
X142303523Y-107706342D02*
X142303523Y-106896819D01*
X142732095Y-106992057D02*
X142779714Y-106944438D01*
X142779714Y-106944438D02*
X142874952Y-106896819D01*
X142874952Y-106896819D02*
X143113047Y-106896819D01*
X143113047Y-106896819D02*
X143208285Y-106944438D01*
X143208285Y-106944438D02*
X143255904Y-106992057D01*
X143255904Y-106992057D02*
X143303523Y-107087295D01*
X143303523Y-107087295D02*
X143303523Y-107182533D01*
X143303523Y-107182533D02*
X143255904Y-107325390D01*
X143255904Y-107325390D02*
X142684476Y-107896819D01*
X142684476Y-107896819D02*
X143303523Y-107896819D01*
X141732095Y-116548819D02*
X141732095Y-117358342D01*
X141732095Y-117358342D02*
X141779714Y-117453580D01*
X141779714Y-117453580D02*
X141827333Y-117501200D01*
X141827333Y-117501200D02*
X141922571Y-117548819D01*
X141922571Y-117548819D02*
X142113047Y-117548819D01*
X142113047Y-117548819D02*
X142208285Y-117501200D01*
X142208285Y-117501200D02*
X142255904Y-117453580D01*
X142255904Y-117453580D02*
X142303523Y-117358342D01*
X142303523Y-117358342D02*
X142303523Y-116548819D01*
X143208285Y-116882152D02*
X143208285Y-117548819D01*
X142970190Y-116501200D02*
X142732095Y-117215485D01*
X142732095Y-117215485D02*
X143351142Y-117215485D01*
X154975333Y-108658819D02*
X154642000Y-108182628D01*
X154403905Y-108658819D02*
X154403905Y-107658819D01*
X154403905Y-107658819D02*
X154784857Y-107658819D01*
X154784857Y-107658819D02*
X154880095Y-107706438D01*
X154880095Y-107706438D02*
X154927714Y-107754057D01*
X154927714Y-107754057D02*
X154975333Y-107849295D01*
X154975333Y-107849295D02*
X154975333Y-107992152D01*
X154975333Y-107992152D02*
X154927714Y-108087390D01*
X154927714Y-108087390D02*
X154880095Y-108135009D01*
X154880095Y-108135009D02*
X154784857Y-108182628D01*
X154784857Y-108182628D02*
X154403905Y-108182628D01*
X155308667Y-107658819D02*
X155975333Y-107658819D01*
X155975333Y-107658819D02*
X155546762Y-108658819D01*
X170878667Y-120295200D02*
X171021524Y-120342819D01*
X171021524Y-120342819D02*
X171259619Y-120342819D01*
X171259619Y-120342819D02*
X171354857Y-120295200D01*
X171354857Y-120295200D02*
X171402476Y-120247580D01*
X171402476Y-120247580D02*
X171450095Y-120152342D01*
X171450095Y-120152342D02*
X171450095Y-120057104D01*
X171450095Y-120057104D02*
X171402476Y-119961866D01*
X171402476Y-119961866D02*
X171354857Y-119914247D01*
X171354857Y-119914247D02*
X171259619Y-119866628D01*
X171259619Y-119866628D02*
X171069143Y-119819009D01*
X171069143Y-119819009D02*
X170973905Y-119771390D01*
X170973905Y-119771390D02*
X170926286Y-119723771D01*
X170926286Y-119723771D02*
X170878667Y-119628533D01*
X170878667Y-119628533D02*
X170878667Y-119533295D01*
X170878667Y-119533295D02*
X170926286Y-119438057D01*
X170926286Y-119438057D02*
X170973905Y-119390438D01*
X170973905Y-119390438D02*
X171069143Y-119342819D01*
X171069143Y-119342819D02*
X171307238Y-119342819D01*
X171307238Y-119342819D02*
X171450095Y-119390438D01*
X171783429Y-119342819D02*
X172021524Y-120342819D01*
X172021524Y-120342819D02*
X172212000Y-119628533D01*
X172212000Y-119628533D02*
X172402476Y-120342819D01*
X172402476Y-120342819D02*
X172640572Y-119342819D01*
X173450095Y-119676152D02*
X173450095Y-120342819D01*
X173212000Y-119295200D02*
X172973905Y-120009485D01*
X172973905Y-120009485D02*
X173592952Y-120009485D01*
X154975333Y-113418819D02*
X154642000Y-112942628D01*
X154403905Y-113418819D02*
X154403905Y-112418819D01*
X154403905Y-112418819D02*
X154784857Y-112418819D01*
X154784857Y-112418819D02*
X154880095Y-112466438D01*
X154880095Y-112466438D02*
X154927714Y-112514057D01*
X154927714Y-112514057D02*
X154975333Y-112609295D01*
X154975333Y-112609295D02*
X154975333Y-112752152D01*
X154975333Y-112752152D02*
X154927714Y-112847390D01*
X154927714Y-112847390D02*
X154880095Y-112895009D01*
X154880095Y-112895009D02*
X154784857Y-112942628D01*
X154784857Y-112942628D02*
X154403905Y-112942628D01*
X155451524Y-113418819D02*
X155642000Y-113418819D01*
X155642000Y-113418819D02*
X155737238Y-113371200D01*
X155737238Y-113371200D02*
X155784857Y-113323580D01*
X155784857Y-113323580D02*
X155880095Y-113180723D01*
X155880095Y-113180723D02*
X155927714Y-112990247D01*
X155927714Y-112990247D02*
X155927714Y-112609295D01*
X155927714Y-112609295D02*
X155880095Y-112514057D01*
X155880095Y-112514057D02*
X155832476Y-112466438D01*
X155832476Y-112466438D02*
X155737238Y-112418819D01*
X155737238Y-112418819D02*
X155546762Y-112418819D01*
X155546762Y-112418819D02*
X155451524Y-112466438D01*
X155451524Y-112466438D02*
X155403905Y-112514057D01*
X155403905Y-112514057D02*
X155356286Y-112609295D01*
X155356286Y-112609295D02*
X155356286Y-112847390D01*
X155356286Y-112847390D02*
X155403905Y-112942628D01*
X155403905Y-112942628D02*
X155451524Y-112990247D01*
X155451524Y-112990247D02*
X155546762Y-113037866D01*
X155546762Y-113037866D02*
X155737238Y-113037866D01*
X155737238Y-113037866D02*
X155832476Y-112990247D01*
X155832476Y-112990247D02*
X155880095Y-112942628D01*
X155880095Y-112942628D02*
X155927714Y-112847390D01*
X150435142Y-113418819D02*
X150101809Y-112942628D01*
X149863714Y-113418819D02*
X149863714Y-112418819D01*
X149863714Y-112418819D02*
X150244666Y-112418819D01*
X150244666Y-112418819D02*
X150339904Y-112466438D01*
X150339904Y-112466438D02*
X150387523Y-112514057D01*
X150387523Y-112514057D02*
X150435142Y-112609295D01*
X150435142Y-112609295D02*
X150435142Y-112752152D01*
X150435142Y-112752152D02*
X150387523Y-112847390D01*
X150387523Y-112847390D02*
X150339904Y-112895009D01*
X150339904Y-112895009D02*
X150244666Y-112942628D01*
X150244666Y-112942628D02*
X149863714Y-112942628D01*
X151387523Y-113418819D02*
X150816095Y-113418819D01*
X151101809Y-113418819D02*
X151101809Y-112418819D01*
X151101809Y-112418819D02*
X151006571Y-112561676D01*
X151006571Y-112561676D02*
X150911333Y-112656914D01*
X150911333Y-112656914D02*
X150816095Y-112704533D01*
X152006571Y-112418819D02*
X152101809Y-112418819D01*
X152101809Y-112418819D02*
X152197047Y-112466438D01*
X152197047Y-112466438D02*
X152244666Y-112514057D01*
X152244666Y-112514057D02*
X152292285Y-112609295D01*
X152292285Y-112609295D02*
X152339904Y-112799771D01*
X152339904Y-112799771D02*
X152339904Y-113037866D01*
X152339904Y-113037866D02*
X152292285Y-113228342D01*
X152292285Y-113228342D02*
X152244666Y-113323580D01*
X152244666Y-113323580D02*
X152197047Y-113371200D01*
X152197047Y-113371200D02*
X152101809Y-113418819D01*
X152101809Y-113418819D02*
X152006571Y-113418819D01*
X152006571Y-113418819D02*
X151911333Y-113371200D01*
X151911333Y-113371200D02*
X151863714Y-113323580D01*
X151863714Y-113323580D02*
X151816095Y-113228342D01*
X151816095Y-113228342D02*
X151768476Y-113037866D01*
X151768476Y-113037866D02*
X151768476Y-112799771D01*
X151768476Y-112799771D02*
X151816095Y-112609295D01*
X151816095Y-112609295D02*
X151863714Y-112514057D01*
X151863714Y-112514057D02*
X151911333Y-112466438D01*
X151911333Y-112466438D02*
X152006571Y-112418819D01*
X146847333Y-108563580D02*
X146799714Y-108611200D01*
X146799714Y-108611200D02*
X146656857Y-108658819D01*
X146656857Y-108658819D02*
X146561619Y-108658819D01*
X146561619Y-108658819D02*
X146418762Y-108611200D01*
X146418762Y-108611200D02*
X146323524Y-108515961D01*
X146323524Y-108515961D02*
X146275905Y-108420723D01*
X146275905Y-108420723D02*
X146228286Y-108230247D01*
X146228286Y-108230247D02*
X146228286Y-108087390D01*
X146228286Y-108087390D02*
X146275905Y-107896914D01*
X146275905Y-107896914D02*
X146323524Y-107801676D01*
X146323524Y-107801676D02*
X146418762Y-107706438D01*
X146418762Y-107706438D02*
X146561619Y-107658819D01*
X146561619Y-107658819D02*
X146656857Y-107658819D01*
X146656857Y-107658819D02*
X146799714Y-107706438D01*
X146799714Y-107706438D02*
X146847333Y-107754057D01*
X147228286Y-107754057D02*
X147275905Y-107706438D01*
X147275905Y-107706438D02*
X147371143Y-107658819D01*
X147371143Y-107658819D02*
X147609238Y-107658819D01*
X147609238Y-107658819D02*
X147704476Y-107706438D01*
X147704476Y-107706438D02*
X147752095Y-107754057D01*
X147752095Y-107754057D02*
X147799714Y-107849295D01*
X147799714Y-107849295D02*
X147799714Y-107944533D01*
X147799714Y-107944533D02*
X147752095Y-108087390D01*
X147752095Y-108087390D02*
X147180667Y-108658819D01*
X147180667Y-108658819D02*
X147799714Y-108658819D01*
D11*
%TO.C,SW1*%
X158806000Y-107200000D02*
X158806000Y-108700000D01*
X160056000Y-111200000D02*
X164556000Y-111200000D01*
X164556000Y-104700000D02*
X160056000Y-104700000D01*
X165806000Y-108700000D02*
X165806000Y-107200000D01*
%TO.C,R1*%
X137948936Y-104167000D02*
X138403064Y-104167000D01*
X137948936Y-105637000D02*
X138403064Y-105637000D01*
%TO.C,R2*%
X137948936Y-108993000D02*
X138403064Y-108993000D01*
X137948936Y-110463000D02*
X138403064Y-110463000D01*
%TO.C,SW3*%
X158806000Y-114820000D02*
X158806000Y-116320000D01*
X160056000Y-118820000D02*
X164556000Y-118820000D01*
X164556000Y-112320000D02*
X160056000Y-112320000D01*
X165806000Y-116320000D02*
X165806000Y-114820000D01*
%TO.C,U3*%
X141609000Y-112994000D02*
X143379000Y-112994000D01*
X141609000Y-113044000D02*
X141609000Y-112994000D01*
X141609000Y-114944000D02*
X141609000Y-114164000D01*
X141609000Y-116114000D02*
X141609000Y-116064000D01*
X143379000Y-112994000D02*
X143379000Y-113044000D01*
X143379000Y-116064000D02*
X143379000Y-116114000D01*
X143379000Y-116114000D02*
X141609000Y-116114000D01*
X144164000Y-116394000D02*
X143684000Y-116394000D01*
X143924000Y-116064000D01*
X144164000Y-116394000D01*
G36*
X144164000Y-116394000D02*
G01*
X143684000Y-116394000D01*
X143924000Y-116064000D01*
X144164000Y-116394000D01*
G37*
%TO.C,U1*%
X141609000Y-103342000D02*
X143379000Y-103342000D01*
X141609000Y-103392000D02*
X141609000Y-103342000D01*
X141609000Y-105292000D02*
X141609000Y-104512000D01*
X141609000Y-106462000D02*
X141609000Y-106412000D01*
X143379000Y-103342000D02*
X143379000Y-103392000D01*
X143379000Y-106412000D02*
X143379000Y-106462000D01*
X143379000Y-106462000D02*
X141609000Y-106462000D01*
X144164000Y-106742000D02*
X143684000Y-106742000D01*
X143924000Y-106412000D01*
X144164000Y-106742000D01*
G36*
X144164000Y-106742000D02*
G01*
X143684000Y-106742000D01*
X143924000Y-106412000D01*
X144164000Y-106742000D01*
G37*
%TO.C,R12*%
X151305064Y-118645000D02*
X150850936Y-118645000D01*
X151305064Y-120115000D02*
X150850936Y-120115000D01*
%TO.C,R3*%
X137948936Y-113819000D02*
X138403064Y-113819000D01*
X137948936Y-115289000D02*
X138403064Y-115289000D01*
%TO.C,R5*%
X155369064Y-104167000D02*
X154914936Y-104167000D01*
X155369064Y-105637000D02*
X154914936Y-105637000D01*
%TO.C,R6*%
X151305064Y-104167000D02*
X150850936Y-104167000D01*
X151305064Y-105637000D02*
X150850936Y-105637000D01*
%TO.C,SW2*%
X168712000Y-107200000D02*
X168712000Y-108700000D01*
X169962000Y-111200000D02*
X174462000Y-111200000D01*
X174462000Y-104700000D02*
X169962000Y-104700000D01*
X175712000Y-108700000D02*
X175712000Y-107200000D01*
%TO.C,R4*%
X137948936Y-118645000D02*
X138403064Y-118645000D01*
X137948936Y-120115000D02*
X138403064Y-120115000D01*
%TO.C,C4*%
X147275252Y-118645000D02*
X146752748Y-118645000D01*
X147275252Y-120115000D02*
X146752748Y-120115000D01*
%TO.C,R8*%
X151305064Y-108993000D02*
X150850936Y-108993000D01*
X151305064Y-110463000D02*
X150850936Y-110463000D01*
D12*
%TO.C,J1*%
X129540000Y-104648000D02*
X130048000Y-104140000D01*
X129540000Y-106172000D02*
X129540000Y-104648000D01*
X129540000Y-107188000D02*
X130048000Y-106680000D01*
X129540000Y-108712000D02*
X129540000Y-107188000D01*
X129540000Y-109728000D02*
X130048000Y-109220000D01*
X129540000Y-111252000D02*
X129540000Y-109728000D01*
X129540000Y-112268000D02*
X130048000Y-111760000D01*
X129540000Y-113792000D02*
X129540000Y-112268000D01*
X129540000Y-114808000D02*
X130048000Y-114300000D01*
X129540000Y-116332000D02*
X129540000Y-114808000D01*
X129540000Y-117348000D02*
X130048000Y-116840000D01*
X129540000Y-118872000D02*
X129540000Y-117348000D01*
X130048000Y-104140000D02*
X130810000Y-104140000D01*
X130048000Y-106680000D02*
X129540000Y-106172000D01*
X130048000Y-109220000D02*
X129540000Y-108712000D01*
X130048000Y-111760000D02*
X129540000Y-111252000D01*
X130048000Y-114300000D02*
X129540000Y-113792000D01*
X130048000Y-116840000D02*
X129540000Y-116332000D01*
X130048000Y-119380000D02*
X129540000Y-118872000D01*
X130810000Y-104140000D02*
X131572000Y-104140000D01*
X131572000Y-104140000D02*
X132080000Y-104648000D01*
X131572000Y-106680000D02*
X132080000Y-107188000D01*
X131572000Y-109220000D02*
X132080000Y-109728000D01*
X131572000Y-111760000D02*
X132080000Y-112268000D01*
X131572000Y-114300000D02*
X132080000Y-114808000D01*
X131572000Y-116840000D02*
X132080000Y-117348000D01*
X131572000Y-119380000D02*
X130048000Y-119380000D01*
X132080000Y-104648000D02*
X132080000Y-106172000D01*
X132080000Y-106172000D02*
X131572000Y-106680000D01*
X132080000Y-107188000D02*
X132080000Y-108712000D01*
X132080000Y-108712000D02*
X131572000Y-109220000D01*
X132080000Y-109728000D02*
X132080000Y-111252000D01*
X132080000Y-111252000D02*
X131572000Y-111760000D01*
X132080000Y-112268000D02*
X132080000Y-113792000D01*
X132080000Y-113792000D02*
X131572000Y-114300000D01*
X132080000Y-114808000D02*
X132080000Y-116332000D01*
X132080000Y-116332000D02*
X131572000Y-116840000D01*
X132080000Y-117348000D02*
X132080000Y-118872000D01*
X132080000Y-118872000D02*
X131572000Y-119380000D01*
X130810000Y-103910000D02*
X130310000Y-103148000D01*
X131310000Y-103148000D01*
X130810000Y-103910000D01*
G36*
X130810000Y-103910000D02*
G01*
X130310000Y-103148000D01*
X131310000Y-103148000D01*
X130810000Y-103910000D01*
G37*
D11*
%TO.C,C1*%
X147275252Y-104167000D02*
X146752748Y-104167000D01*
X147275252Y-105637000D02*
X146752748Y-105637000D01*
%TO.C,C3*%
X147275252Y-113753000D02*
X146752748Y-113753000D01*
X147275252Y-115223000D02*
X146752748Y-115223000D01*
%TO.C,R11*%
X155369064Y-118645000D02*
X154914936Y-118645000D01*
X155369064Y-120115000D02*
X154914936Y-120115000D01*
%TO.C,U2*%
X141609000Y-108168000D02*
X143379000Y-108168000D01*
X141609000Y-108218000D02*
X141609000Y-108168000D01*
X141609000Y-110118000D02*
X141609000Y-109338000D01*
X141609000Y-111288000D02*
X141609000Y-111238000D01*
X143379000Y-108168000D02*
X143379000Y-108218000D01*
X143379000Y-111238000D02*
X143379000Y-111288000D01*
X143379000Y-111288000D02*
X141609000Y-111288000D01*
X144164000Y-111568000D02*
X143684000Y-111568000D01*
X143924000Y-111238000D01*
X144164000Y-111568000D01*
G36*
X144164000Y-111568000D02*
G01*
X143684000Y-111568000D01*
X143924000Y-111238000D01*
X144164000Y-111568000D01*
G37*
%TO.C,U4*%
X141609000Y-117820000D02*
X143379000Y-117820000D01*
X141609000Y-117870000D02*
X141609000Y-117820000D01*
X141609000Y-119770000D02*
X141609000Y-118990000D01*
X141609000Y-120940000D02*
X141609000Y-120890000D01*
X143379000Y-117820000D02*
X143379000Y-117870000D01*
X143379000Y-120890000D02*
X143379000Y-120940000D01*
X143379000Y-120940000D02*
X141609000Y-120940000D01*
X144164000Y-121220000D02*
X143684000Y-121220000D01*
X143924000Y-120890000D01*
X144164000Y-121220000D01*
G36*
X144164000Y-121220000D02*
G01*
X143684000Y-121220000D01*
X143924000Y-120890000D01*
X144164000Y-121220000D01*
G37*
%TO.C,R7*%
X155369064Y-108993000D02*
X154914936Y-108993000D01*
X155369064Y-110463000D02*
X154914936Y-110463000D01*
%TO.C,SW4*%
X168712000Y-114820000D02*
X168712000Y-116320000D01*
X169962000Y-118820000D02*
X174462000Y-118820000D01*
X174462000Y-112320000D02*
X169962000Y-112320000D01*
X175712000Y-116320000D02*
X175712000Y-114820000D01*
%TO.C,R9*%
X155369064Y-113753000D02*
X154914936Y-113753000D01*
X155369064Y-115223000D02*
X154914936Y-115223000D01*
%TO.C,R10*%
X151305064Y-113753000D02*
X150850936Y-113753000D01*
X151305064Y-115223000D02*
X150850936Y-115223000D01*
%TO.C,C2*%
X147275252Y-108993000D02*
X146752748Y-108993000D01*
X147275252Y-110463000D02*
X146752748Y-110463000D01*
%TD*%
M02*
