%TF.GenerationSoftware,KiCad,Pcbnew,9.0.6-9.0.6~ubuntu24.04.1*%
%TF.CreationDate,2026-01-17T19:09:57-03:00*%
%TF.ProjectId,cotti_buttons,636f7474-695f-4627-9574-746f6e732e6b,0.0*%
%TF.SameCoordinates,Original*%
%TF.FileFunction,Copper,L1,Top*%
%TF.FilePolarity,Positive*%
%FSLAX46Y46*%
G04 Gerber Fmt 4.6, Leading zero omitted, Abs format (unit mm)*
G04 Created by KiCad (PCBNEW 9.0.6-9.0.6~ubuntu24.04.1) date 2026-01-17 19:09:57*
%MOMM*%
%LPD*%
G01*
G04 APERTURE LIST*
G04 Aperture macros list*
%AMRoundRect*
0 Rectangle with rounded corners*
0 $1 Rounding radius*
0 $2 $3 $4 $5 $6 $7 $8 $9 X,Y pos of 4 corners*
0 Add a 4 corners polygon primitive as box body*
4,1,4,$2,$3,$4,$5,$6,$7,$8,$9,$2,$3,0*
0 Add four circle primitives for the rounded corners*
1,1,$1+$1,$2,$3*
1,1,$1+$1,$4,$5*
1,1,$1+$1,$6,$7*
1,1,$1+$1,$8,$9*
0 Add four rect primitives between the rounded corners*
20,1,$1+$1,$2,$3,$4,$5,0*
20,1,$1+$1,$4,$5,$6,$7,0*
20,1,$1+$1,$6,$7,$8,$9,0*
20,1,$1+$1,$8,$9,$2,$3,0*%
G04 Aperture macros list end*
%TA.AperFunction,ComponentPad*%
%ADD10C,2.000000*%
%TD*%
%TA.AperFunction,SMDPad,CuDef*%
%ADD11RoundRect,0.250000X-0.350000X-0.450000X0.350000X-0.450000X0.350000X0.450000X-0.350000X0.450000X0*%
%TD*%
%TA.AperFunction,SMDPad,CuDef*%
%ADD12RoundRect,0.150000X0.650000X0.150000X-0.650000X0.150000X-0.650000X-0.150000X0.650000X-0.150000X0*%
%TD*%
%TA.AperFunction,SMDPad,CuDef*%
%ADD13RoundRect,0.250000X0.350000X0.450000X-0.350000X0.450000X-0.350000X-0.450000X0.350000X-0.450000X0*%
%TD*%
%TA.AperFunction,SMDPad,CuDef*%
%ADD14RoundRect,0.250000X0.337500X0.475000X-0.337500X0.475000X-0.337500X-0.475000X0.337500X-0.475000X0*%
%TD*%
%TA.AperFunction,ComponentPad*%
%ADD15R,1.700000X1.700000*%
%TD*%
%TA.AperFunction,ComponentPad*%
%ADD16C,1.700000*%
%TD*%
%TA.AperFunction,ViaPad*%
%ADD17C,0.600000*%
%TD*%
%TA.AperFunction,Conductor*%
%ADD18C,0.200000*%
%TD*%
%TA.AperFunction,Conductor*%
%ADD19C,0.300000*%
%TD*%
G04 APERTURE END LIST*
D10*
%TO.P,SW1,1,1*%
%TO.N,GND*%
X159056000Y-105700000D03*
X165556000Y-105700000D03*
%TO.P,SW1,2,2*%
%TO.N,Net-(R5-Pad2)*%
X159056000Y-110200000D03*
X165556000Y-110200000D03*
%TD*%
D11*
%TO.P,R1,1*%
%TO.N,Net-(J1-IO1)*%
X137176000Y-104902000D03*
%TO.P,R1,2*%
%TO.N,/io1*%
X139176000Y-104902000D03*
%TD*%
%TO.P,R2,1*%
%TO.N,Net-(J1-IO2{slash}PWM)*%
X137176000Y-109728000D03*
%TO.P,R2,2*%
%TO.N,/io2*%
X139176000Y-109728000D03*
%TD*%
D10*
%TO.P,SW3,1,1*%
%TO.N,GND*%
X159056000Y-113320000D03*
X165556000Y-113320000D03*
%TO.P,SW3,2,2*%
%TO.N,Net-(R10-Pad1)*%
X159056000Y-117820000D03*
X165556000Y-117820000D03*
%TD*%
D12*
%TO.P,U3,1,NC*%
%TO.N,unconnected-(U3-NC-Pad1)*%
X143644000Y-115504000D03*
%TO.P,U3,2*%
%TO.N,Net-(C3-Pad1)*%
X143644000Y-114554000D03*
%TO.P,U3,3,GND*%
%TO.N,GND*%
X143644000Y-113604000D03*
%TO.P,U3,4*%
%TO.N,/io3*%
X141344000Y-113604000D03*
%TO.P,U3,5,VCC*%
%TO.N,VCC*%
X141344000Y-115504000D03*
%TD*%
%TO.P,U1,1,NC*%
%TO.N,unconnected-(U1-NC-Pad1)*%
X143644000Y-105852000D03*
%TO.P,U1,2*%
%TO.N,Net-(C1-Pad1)*%
X143644000Y-104902000D03*
%TO.P,U1,3,GND*%
%TO.N,GND*%
X143644000Y-103952000D03*
%TO.P,U1,4*%
%TO.N,/io1*%
X141344000Y-103952000D03*
%TO.P,U1,5,VCC*%
%TO.N,VCC*%
X141344000Y-105852000D03*
%TD*%
D13*
%TO.P,R12,1*%
%TO.N,Net-(R11-Pad2)*%
X152078000Y-119380000D03*
%TO.P,R12,2*%
%TO.N,Net-(C4-Pad1)*%
X150078000Y-119380000D03*
%TD*%
D11*
%TO.P,R3,1*%
%TO.N,Net-(J1-IO3)*%
X137176000Y-114554000D03*
%TO.P,R3,2*%
%TO.N,/io3*%
X139176000Y-114554000D03*
%TD*%
D13*
%TO.P,R5,1*%
%TO.N,VCC*%
X156142000Y-104902000D03*
%TO.P,R5,2*%
%TO.N,Net-(R5-Pad2)*%
X154142000Y-104902000D03*
%TD*%
%TO.P,R6,1*%
%TO.N,Net-(R5-Pad2)*%
X152078000Y-104902000D03*
%TO.P,R6,2*%
%TO.N,Net-(C1-Pad1)*%
X150078000Y-104902000D03*
%TD*%
D10*
%TO.P,SW2,1,1*%
%TO.N,GND*%
X168962000Y-105700000D03*
X175462000Y-105700000D03*
%TO.P,SW2,2,2*%
%TO.N,Net-(R7-Pad2)*%
X168962000Y-110200000D03*
X175462000Y-110200000D03*
%TD*%
D11*
%TO.P,R4,1*%
%TO.N,Net-(J1-IO4)*%
X137176000Y-119380000D03*
%TO.P,R4,2*%
%TO.N,/io4*%
X139176000Y-119380000D03*
%TD*%
D14*
%TO.P,C4,1*%
%TO.N,Net-(C4-Pad1)*%
X148051500Y-119380000D03*
%TO.P,C4,2*%
%TO.N,GND*%
X145976500Y-119380000D03*
%TD*%
D13*
%TO.P,R8,1*%
%TO.N,Net-(R7-Pad2)*%
X152078000Y-109728000D03*
%TO.P,R8,2*%
%TO.N,Net-(C2-Pad1)*%
X150078000Y-109728000D03*
%TD*%
D15*
%TO.P,J1,1,IO1*%
%TO.N,Net-(J1-IO1)*%
X130810000Y-105410000D03*
D16*
%TO.P,J1,2,IO2/PWM*%
%TO.N,Net-(J1-IO2{slash}PWM)*%
X130810000Y-107950000D03*
%TO.P,J1,3,IO3*%
%TO.N,Net-(J1-IO3)*%
X130810000Y-110490000D03*
%TO.P,J1,4,IO4*%
%TO.N,Net-(J1-IO4)*%
X130810000Y-113030000D03*
%TO.P,J1,5,GND*%
%TO.N,GND*%
X130810000Y-115570000D03*
%TO.P,J1,6,VCC*%
%TO.N,VCC*%
X130810000Y-118110000D03*
%TD*%
D14*
%TO.P,C1,1*%
%TO.N,Net-(C1-Pad1)*%
X148051500Y-104902000D03*
%TO.P,C1,2*%
%TO.N,GND*%
X145976500Y-104902000D03*
%TD*%
%TO.P,C3,1*%
%TO.N,Net-(C3-Pad1)*%
X148051500Y-114488000D03*
%TO.P,C3,2*%
%TO.N,GND*%
X145976500Y-114488000D03*
%TD*%
D13*
%TO.P,R11,1*%
%TO.N,VCC*%
X156142000Y-119380000D03*
%TO.P,R11,2*%
%TO.N,Net-(R11-Pad2)*%
X154142000Y-119380000D03*
%TD*%
D12*
%TO.P,U2,1,NC*%
%TO.N,unconnected-(U2-NC-Pad1)*%
X143644000Y-110678000D03*
%TO.P,U2,2*%
%TO.N,Net-(C2-Pad1)*%
X143644000Y-109728000D03*
%TO.P,U2,3,GND*%
%TO.N,GND*%
X143644000Y-108778000D03*
%TO.P,U2,4*%
%TO.N,/io2*%
X141344000Y-108778000D03*
%TO.P,U2,5,VCC*%
%TO.N,VCC*%
X141344000Y-110678000D03*
%TD*%
%TO.P,U4,1,NC*%
%TO.N,unconnected-(U4-NC-Pad1)*%
X143644000Y-120330000D03*
%TO.P,U4,2*%
%TO.N,Net-(C4-Pad1)*%
X143644000Y-119380000D03*
%TO.P,U4,3,GND*%
%TO.N,GND*%
X143644000Y-118430000D03*
%TO.P,U4,4*%
%TO.N,/io4*%
X141344000Y-118430000D03*
%TO.P,U4,5,VCC*%
%TO.N,VCC*%
X141344000Y-120330000D03*
%TD*%
D13*
%TO.P,R7,1*%
%TO.N,VCC*%
X156142000Y-109728000D03*
%TO.P,R7,2*%
%TO.N,Net-(R7-Pad2)*%
X154142000Y-109728000D03*
%TD*%
D10*
%TO.P,SW4,1,1*%
%TO.N,GND*%
X168962000Y-113320000D03*
X175462000Y-113320000D03*
%TO.P,SW4,2,2*%
%TO.N,Net-(R11-Pad2)*%
X168962000Y-117820000D03*
X175462000Y-117820000D03*
%TD*%
D13*
%TO.P,R9,1*%
%TO.N,VCC*%
X156142000Y-114488000D03*
%TO.P,R9,2*%
%TO.N,Net-(R10-Pad1)*%
X154142000Y-114488000D03*
%TD*%
%TO.P,R10,1*%
%TO.N,Net-(R10-Pad1)*%
X152078000Y-114488000D03*
%TO.P,R10,2*%
%TO.N,Net-(C3-Pad1)*%
X150078000Y-114488000D03*
%TD*%
D14*
%TO.P,C2,1*%
%TO.N,Net-(C2-Pad1)*%
X148051500Y-109728000D03*
%TO.P,C2,2*%
%TO.N,GND*%
X145976500Y-109728000D03*
%TD*%
D17*
%TO.N,GND*%
X145796000Y-103530400D03*
X145745200Y-118008400D03*
X145745200Y-113080800D03*
X145796000Y-108356400D03*
%TO.N,VCC*%
X156159200Y-111302800D03*
X156108400Y-120904000D03*
X139700000Y-106324400D03*
X139801600Y-116078000D03*
X139649200Y-111252000D03*
X156159200Y-116078000D03*
X156159200Y-106324400D03*
X139700000Y-120853200D03*
%TD*%
D18*
%TO.N,Net-(C1-Pad1)*%
X147624800Y-106324400D02*
X148051500Y-105897700D01*
X145338800Y-106324400D02*
X147624800Y-106324400D01*
X144907000Y-105029000D02*
X144907000Y-105892600D01*
X143592000Y-104902000D02*
X144780000Y-104902000D01*
X144780000Y-104902000D02*
X144907000Y-105029000D01*
X144907000Y-105892600D02*
X145338800Y-106324400D01*
X148051500Y-104902000D02*
X150078000Y-104902000D01*
X148051500Y-105897700D02*
X148051500Y-104902000D01*
%TO.N,Net-(C2-Pad1)*%
X144526000Y-109728000D02*
X144907000Y-110109000D01*
X147675600Y-110947200D02*
X148051500Y-110571300D01*
X144907000Y-110109000D02*
X144907000Y-110820200D01*
X144907000Y-110820200D02*
X145034000Y-110947200D01*
X148051500Y-109728000D02*
X150078000Y-109728000D01*
X145034000Y-110947200D02*
X147675600Y-110947200D01*
X143592000Y-109728000D02*
X144526000Y-109728000D01*
X148051500Y-110571300D02*
X148051500Y-109728000D01*
%TO.N,Net-(C3-Pad1)*%
X148051500Y-114488000D02*
X150078000Y-114488000D01*
X144875080Y-114852280D02*
X144875080Y-115665080D01*
X147828000Y-115824000D02*
X148051500Y-115600500D01*
X145034000Y-115824000D02*
X147828000Y-115824000D01*
X148051500Y-115600500D02*
X148051500Y-114488000D01*
X144576800Y-114554000D02*
X144875080Y-114852280D01*
X144875080Y-115665080D02*
X145034000Y-115824000D01*
X143592000Y-114554000D02*
X144576800Y-114554000D01*
%TO.N,Net-(C4-Pad1)*%
X143592000Y-119380000D02*
X144729200Y-119380000D01*
X147675600Y-120650000D02*
X148051500Y-120274100D01*
X144729200Y-119380000D02*
X144932400Y-119583200D01*
X148051500Y-120274100D02*
X148051500Y-119380000D01*
X145237200Y-120650000D02*
X147675600Y-120650000D01*
X144932400Y-119583200D02*
X144932400Y-120345200D01*
X144932400Y-120345200D02*
X145237200Y-120650000D01*
X150078000Y-119380000D02*
X148051500Y-119380000D01*
%TO.N,Net-(J1-IO4)*%
X130810000Y-113030000D02*
X135382000Y-117602000D01*
X135890000Y-119380000D02*
X137176000Y-119380000D01*
X135382000Y-117602000D02*
X135382000Y-118872000D01*
X135382000Y-118872000D02*
X135890000Y-119380000D01*
%TO.N,Net-(J1-IO3)*%
X134874000Y-114554000D02*
X137176000Y-114554000D01*
X130810000Y-110490000D02*
X134874000Y-114554000D01*
%TO.N,Net-(J1-IO2{slash}PWM)*%
X130810000Y-107950000D02*
X132588000Y-109728000D01*
X132588000Y-109728000D02*
X137176000Y-109728000D01*
%TO.N,Net-(J1-IO1)*%
X136017000Y-104902000D02*
X137176000Y-104902000D01*
X135509000Y-105410000D02*
X136017000Y-104902000D01*
X130810000Y-105410000D02*
X135509000Y-105410000D01*
D19*
%TO.N,VCC*%
X156108400Y-120904000D02*
X156108400Y-119413600D01*
X156159200Y-106324400D02*
X156159200Y-104919200D01*
X139801600Y-116078000D02*
X140718000Y-116078000D01*
X156159200Y-104919200D02*
X156142000Y-104902000D01*
X139700000Y-106324400D02*
X140819600Y-106324400D01*
X156159200Y-116078000D02*
X156159200Y-114505200D01*
X139649200Y-111252000D02*
X140718000Y-111252000D01*
X140718000Y-111252000D02*
X141292000Y-110678000D01*
X156159200Y-109745200D02*
X156142000Y-109728000D01*
X156159200Y-114505200D02*
X156142000Y-114488000D01*
X140768800Y-120853200D02*
X141292000Y-120330000D01*
X156108400Y-119413600D02*
X156142000Y-119380000D01*
X140819600Y-106324400D02*
X141292000Y-105852000D01*
X140718000Y-116078000D02*
X141292000Y-115504000D01*
X139700000Y-120853200D02*
X140768800Y-120853200D01*
X156159200Y-111302800D02*
X156159200Y-109745200D01*
D18*
%TO.N,Net-(R5-Pad2)*%
X154142000Y-104902000D02*
X154142000Y-105338000D01*
X152078000Y-104902000D02*
X154142000Y-104902000D01*
X154142000Y-105338000D02*
X159004000Y-110200000D01*
%TO.N,Net-(R7-Pad2)*%
X155910257Y-111903800D02*
X167206200Y-111903800D01*
X154142000Y-109728000D02*
X154142000Y-110135543D01*
X152078000Y-109728000D02*
X154142000Y-109728000D01*
X167206200Y-111903800D02*
X168910000Y-110200000D01*
X154142000Y-110135543D02*
X155910257Y-111903800D01*
%TO.N,Net-(R10-Pad1)*%
X157051257Y-117820000D02*
X159004000Y-117820000D01*
X152078000Y-114488000D02*
X154142000Y-114488000D01*
X154142000Y-114488000D02*
X154142000Y-114910743D01*
X154142000Y-114910743D02*
X157051257Y-117820000D01*
%TO.N,Net-(R11-Pad2)*%
X167609000Y-119121000D02*
X168910000Y-117820000D01*
X158465108Y-119121000D02*
X167609000Y-119121000D01*
X154142000Y-119380000D02*
X155163108Y-118358892D01*
X152078000Y-119380000D02*
X154142000Y-119380000D01*
X157703000Y-118358892D02*
X158465108Y-119121000D01*
X155163108Y-118358892D02*
X157703000Y-118358892D01*
%TO.N,/io4*%
X139176000Y-118659400D02*
X139405400Y-118430000D01*
X139176000Y-119380000D02*
X139176000Y-118659400D01*
X139405400Y-118430000D02*
X141292000Y-118430000D01*
%TO.N,/io3*%
X139380000Y-113604000D02*
X141292000Y-113604000D01*
X139176000Y-113808000D02*
X139380000Y-113604000D01*
X139176000Y-114554000D02*
X139176000Y-113808000D01*
%TO.N,/io2*%
X139557800Y-108778000D02*
X141292000Y-108778000D01*
X139176000Y-109159800D02*
X139557800Y-108778000D01*
X139176000Y-109728000D02*
X139176000Y-109159800D01*
%TO.N,/io1*%
X139176000Y-104902000D02*
X139176000Y-104257600D01*
X139176000Y-104257600D02*
X139481600Y-103952000D01*
X139481600Y-103952000D02*
X141292000Y-103952000D01*
%TD*%
%TA.AperFunction,Conductor*%
%TO.N,GND*%
G36*
X177235039Y-102127685D02*
G01*
X177280794Y-102180489D01*
X177292000Y-102232000D01*
X177292000Y-121288000D01*
X177272315Y-121355039D01*
X177219511Y-121400794D01*
X177168000Y-121412000D01*
X156723278Y-121412000D01*
X156656239Y-121392315D01*
X156610484Y-121339511D01*
X156600540Y-121270353D01*
X156615891Y-121226000D01*
X156630718Y-121200319D01*
X156667977Y-121135784D01*
X156708900Y-120983057D01*
X156708900Y-120824943D01*
X156667977Y-120672216D01*
X156589483Y-120536260D01*
X156573011Y-120468360D01*
X156595864Y-120402334D01*
X156650785Y-120359143D01*
X156651027Y-120359046D01*
X156764342Y-120314361D01*
X156884922Y-120222922D01*
X156976361Y-120102342D01*
X157031877Y-119961564D01*
X157042500Y-119873102D01*
X157042500Y-118886898D01*
X157042500Y-118883392D01*
X157062185Y-118816353D01*
X157114989Y-118770598D01*
X157166500Y-118759392D01*
X157485745Y-118759392D01*
X157552784Y-118779077D01*
X157573426Y-118795711D01*
X158144627Y-119366912D01*
X158144628Y-119366913D01*
X158219195Y-119441480D01*
X158310521Y-119494207D01*
X158412381Y-119521500D01*
X158412383Y-119521500D01*
X167661725Y-119521500D01*
X167661727Y-119521500D01*
X167763588Y-119494207D01*
X167854913Y-119441480D01*
X168272145Y-119024246D01*
X168333466Y-118990763D01*
X168403157Y-118995747D01*
X168416120Y-119001445D01*
X168462774Y-119025217D01*
X168462777Y-119025217D01*
X168462781Y-119025220D01*
X168568346Y-119059520D01*
X168657465Y-119088477D01*
X168758557Y-119104488D01*
X168859648Y-119120500D01*
X168859649Y-119120500D01*
X169064351Y-119120500D01*
X169064352Y-119120500D01*
X169266534Y-119088477D01*
X169461219Y-119025220D01*
X169643610Y-118932287D01*
X169756615Y-118850185D01*
X169809213Y-118811971D01*
X169809215Y-118811968D01*
X169809219Y-118811966D01*
X169953966Y-118667219D01*
X169953968Y-118667215D01*
X169953971Y-118667213D01*
X170018167Y-118578853D01*
X170074287Y-118501610D01*
X170167220Y-118319219D01*
X170230477Y-118124534D01*
X170262500Y-117922352D01*
X170262500Y-117717648D01*
X174161500Y-117717648D01*
X174161500Y-117922351D01*
X174193522Y-118124534D01*
X174256781Y-118319223D01*
X174349715Y-118501613D01*
X174470028Y-118667213D01*
X174614786Y-118811971D01*
X174750398Y-118910497D01*
X174780390Y-118932287D01*
X174888865Y-118987558D01*
X174962776Y-119025218D01*
X174962778Y-119025218D01*
X174962781Y-119025220D01*
X175026403Y-119045892D01*
X175157465Y-119088477D01*
X175258557Y-119104488D01*
X175359648Y-119120500D01*
X175359649Y-119120500D01*
X175564351Y-119120500D01*
X175564352Y-119120500D01*
X175766534Y-119088477D01*
X175961219Y-119025220D01*
X176143610Y-118932287D01*
X176256615Y-118850185D01*
X176309213Y-118811971D01*
X176309215Y-118811968D01*
X176309219Y-118811966D01*
X176453966Y-118667219D01*
X176453968Y-118667215D01*
X176453971Y-118667213D01*
X176518167Y-118578853D01*
X176574287Y-118501610D01*
X176667220Y-118319219D01*
X176730477Y-118124534D01*
X176762500Y-117922352D01*
X176762500Y-117717648D01*
X176730477Y-117515466D01*
X176667220Y-117320781D01*
X176667218Y-117320778D01*
X176667218Y-117320776D01*
X176633503Y-117254607D01*
X176574287Y-117138390D01*
X176565288Y-117126004D01*
X176453971Y-116972786D01*
X176309213Y-116828028D01*
X176143613Y-116707715D01*
X176143612Y-116707714D01*
X176143610Y-116707713D01*
X176071068Y-116670751D01*
X175961223Y-116614781D01*
X175766534Y-116551522D01*
X175591995Y-116523878D01*
X175564352Y-116519500D01*
X175359648Y-116519500D01*
X175335329Y-116523351D01*
X175157465Y-116551522D01*
X174962776Y-116614781D01*
X174780386Y-116707715D01*
X174614786Y-116828028D01*
X174470028Y-116972786D01*
X174349715Y-117138386D01*
X174256781Y-117320776D01*
X174193522Y-117515465D01*
X174161500Y-117717648D01*
X170262500Y-117717648D01*
X170230477Y-117515466D01*
X170167220Y-117320781D01*
X170167218Y-117320778D01*
X170167218Y-117320776D01*
X170133503Y-117254607D01*
X170074287Y-117138390D01*
X170065288Y-117126004D01*
X169953971Y-116972786D01*
X169809213Y-116828028D01*
X169643613Y-116707715D01*
X169643612Y-116707714D01*
X169643610Y-116707713D01*
X169571068Y-116670751D01*
X169461223Y-116614781D01*
X169266534Y-116551522D01*
X169091995Y-116523878D01*
X169064352Y-116519500D01*
X168859648Y-116519500D01*
X168835329Y-116523351D01*
X168657465Y-116551522D01*
X168462776Y-116614781D01*
X168280386Y-116707715D01*
X168114786Y-116828028D01*
X167970028Y-116972786D01*
X167849715Y-117138386D01*
X167756781Y-117320776D01*
X167693522Y-117515465D01*
X167669306Y-117668361D01*
X167661500Y-117717648D01*
X167661500Y-117922352D01*
X167667123Y-117957851D01*
X167693523Y-118124535D01*
X167693523Y-118124538D01*
X167754783Y-118313073D01*
X167756778Y-118382914D01*
X167724533Y-118439072D01*
X167479424Y-118684182D01*
X167418104Y-118717666D01*
X167391745Y-118720500D01*
X166752618Y-118720500D01*
X166685579Y-118700815D01*
X166639824Y-118648011D01*
X166629880Y-118578853D01*
X166652300Y-118523614D01*
X166660422Y-118512435D01*
X166668287Y-118501610D01*
X166761220Y-118319219D01*
X166824477Y-118124534D01*
X166856500Y-117922352D01*
X166856500Y-117717648D01*
X166824477Y-117515466D01*
X166761220Y-117320781D01*
X166761218Y-117320778D01*
X166761218Y-117320776D01*
X166727503Y-117254607D01*
X166668287Y-117138390D01*
X166659288Y-117126004D01*
X166547971Y-116972786D01*
X166403213Y-116828028D01*
X166237613Y-116707715D01*
X166237612Y-116707714D01*
X166237610Y-116707713D01*
X166165068Y-116670751D01*
X166055223Y-116614781D01*
X165860534Y-116551522D01*
X165685995Y-116523878D01*
X165658352Y-116519500D01*
X165453648Y-116519500D01*
X165429329Y-116523351D01*
X165251465Y-116551522D01*
X165056776Y-116614781D01*
X164874386Y-116707715D01*
X164708786Y-116828028D01*
X164564028Y-116972786D01*
X164443715Y-117138386D01*
X164350781Y-117320776D01*
X164287522Y-117515465D01*
X164255500Y-117717648D01*
X164255500Y-117922351D01*
X164287522Y-118124534D01*
X164350781Y-118319223D01*
X164411848Y-118439072D01*
X164443713Y-118501610D01*
X164451318Y-118512078D01*
X164459700Y-118523614D01*
X164483180Y-118589421D01*
X164467355Y-118657475D01*
X164417249Y-118706169D01*
X164359382Y-118720500D01*
X160252618Y-118720500D01*
X160185579Y-118700815D01*
X160139824Y-118648011D01*
X160129880Y-118578853D01*
X160152300Y-118523614D01*
X160160422Y-118512435D01*
X160168287Y-118501610D01*
X160261220Y-118319219D01*
X160324477Y-118124534D01*
X160356500Y-117922352D01*
X160356500Y-117717648D01*
X160324477Y-117515466D01*
X160261220Y-117320781D01*
X160261218Y-117320778D01*
X160261218Y-117320776D01*
X160227503Y-117254607D01*
X160168287Y-117138390D01*
X160159288Y-117126004D01*
X160047971Y-116972786D01*
X159903213Y-116828028D01*
X159737613Y-116707715D01*
X159737612Y-116707714D01*
X159737610Y-116707713D01*
X159665068Y-116670751D01*
X159555223Y-116614781D01*
X159360534Y-116551522D01*
X159185995Y-116523878D01*
X159158352Y-116519500D01*
X158953648Y-116519500D01*
X158929329Y-116523351D01*
X158751465Y-116551522D01*
X158556776Y-116614781D01*
X158374386Y-116707715D01*
X158208786Y-116828028D01*
X158064028Y-116972786D01*
X157943715Y-117138386D01*
X157850779Y-117320780D01*
X157846543Y-117333820D01*
X157807105Y-117391495D01*
X157742746Y-117418692D01*
X157728613Y-117419500D01*
X157268511Y-117419500D01*
X157201472Y-117399815D01*
X157180830Y-117383181D01*
X156529723Y-116732074D01*
X156496238Y-116670751D01*
X156501222Y-116601059D01*
X156529719Y-116556716D01*
X156639720Y-116446716D01*
X156718777Y-116309784D01*
X156759700Y-116157057D01*
X156759700Y-115998943D01*
X156718777Y-115846216D01*
X156708320Y-115828104D01*
X156639724Y-115709290D01*
X156639721Y-115709287D01*
X156639720Y-115709284D01*
X156639717Y-115709281D01*
X156635325Y-115703557D01*
X156627081Y-115682234D01*
X156614723Y-115663004D01*
X156611807Y-115642727D01*
X156610130Y-115638388D01*
X156609700Y-115628069D01*
X156609700Y-115567738D01*
X156629385Y-115500699D01*
X156682189Y-115454944D01*
X156688199Y-115452388D01*
X156764342Y-115422361D01*
X156884922Y-115330922D01*
X156976361Y-115210342D01*
X157031877Y-115069564D01*
X157042500Y-114981102D01*
X157042500Y-113994898D01*
X157031877Y-113906436D01*
X156976361Y-113765658D01*
X156976360Y-113765657D01*
X156976360Y-113765656D01*
X156884922Y-113645077D01*
X156764343Y-113553639D01*
X156654138Y-113510180D01*
X156623564Y-113498123D01*
X156623563Y-113498122D01*
X156623561Y-113498122D01*
X156577926Y-113492642D01*
X156535102Y-113487500D01*
X155748898Y-113487500D01*
X155709853Y-113492188D01*
X155660438Y-113498122D01*
X155519656Y-113553639D01*
X155399077Y-113645077D01*
X155307639Y-113765656D01*
X155281612Y-113831658D01*
X155257353Y-113893171D01*
X155214449Y-113948314D01*
X155148541Y-113971507D01*
X155080556Y-113955386D01*
X155032080Y-113905070D01*
X155026648Y-113893178D01*
X154976361Y-113765658D01*
X154976360Y-113765657D01*
X154976360Y-113765656D01*
X154884922Y-113645077D01*
X154764343Y-113553639D01*
X154654138Y-113510180D01*
X154623564Y-113498123D01*
X154623563Y-113498122D01*
X154623561Y-113498122D01*
X154577926Y-113492642D01*
X154535102Y-113487500D01*
X153748898Y-113487500D01*
X153709853Y-113492188D01*
X153660438Y-113498122D01*
X153519656Y-113553639D01*
X153399077Y-113645077D01*
X153307639Y-113765656D01*
X153252122Y-113906438D01*
X153247865Y-113941888D01*
X153243494Y-113978285D01*
X153242904Y-113979662D01*
X153243118Y-113981147D01*
X153229181Y-114011663D01*
X153215959Y-114042498D01*
X153214716Y-114043338D01*
X153214093Y-114044703D01*
X153185869Y-114062841D01*
X153158077Y-114081631D01*
X153156169Y-114081928D01*
X153155315Y-114082477D01*
X153120380Y-114087500D01*
X153099620Y-114087500D01*
X153032581Y-114067815D01*
X152986826Y-114015011D01*
X152976505Y-113978287D01*
X152967877Y-113906436D01*
X152912361Y-113765658D01*
X152912360Y-113765657D01*
X152912360Y-113765656D01*
X152820922Y-113645077D01*
X152700343Y-113553639D01*
X152590138Y-113510180D01*
X152559564Y-113498123D01*
X152559563Y-113498122D01*
X152559561Y-113498122D01*
X152513926Y-113492642D01*
X152471102Y-113487500D01*
X151684898Y-113487500D01*
X151645853Y-113492188D01*
X151596438Y-113498122D01*
X151455656Y-113553639D01*
X151335077Y-113645077D01*
X151243639Y-113765656D01*
X151217612Y-113831658D01*
X151193353Y-113893171D01*
X151150449Y-113948314D01*
X151084541Y-113971507D01*
X151016556Y-113955386D01*
X150968080Y-113905070D01*
X150962648Y-113893178D01*
X150912361Y-113765658D01*
X150912360Y-113765657D01*
X150912360Y-113765656D01*
X150820922Y-113645077D01*
X150700343Y-113553639D01*
X150590138Y-113510180D01*
X150559564Y-113498123D01*
X150559563Y-113498122D01*
X150559561Y-113498122D01*
X150513926Y-113492642D01*
X150471102Y-113487500D01*
X149684898Y-113487500D01*
X149645853Y-113492188D01*
X149596438Y-113498122D01*
X149455656Y-113553639D01*
X149335077Y-113645077D01*
X149243639Y-113765656D01*
X149188121Y-113906441D01*
X149183115Y-113948128D01*
X149155577Y-114012342D01*
X149097694Y-114051474D01*
X149027843Y-114053100D01*
X148968202Y-114016704D01*
X148937706Y-113953840D01*
X148936891Y-113948177D01*
X148928877Y-113881436D01*
X148873361Y-113740658D01*
X148873360Y-113740657D01*
X148873360Y-113740656D01*
X148781922Y-113620077D01*
X148661343Y-113528639D01*
X148557021Y-113487500D01*
X148520564Y-113473123D01*
X148520563Y-113473122D01*
X148520561Y-113473122D01*
X148474926Y-113467642D01*
X148432102Y-113462500D01*
X147670898Y-113462500D01*
X147631853Y-113467188D01*
X147582438Y-113473122D01*
X147441656Y-113528639D01*
X147321077Y-113620077D01*
X147229639Y-113740656D01*
X147174122Y-113881438D01*
X147170986Y-113907558D01*
X147163500Y-113969898D01*
X147163500Y-115006102D01*
X147166115Y-115027875D01*
X147174122Y-115094561D01*
X147174122Y-115094563D01*
X147174123Y-115094564D01*
X147222187Y-115216446D01*
X147229640Y-115235344D01*
X147231540Y-115238723D01*
X147232339Y-115242189D01*
X147232751Y-115243233D01*
X147232594Y-115243294D01*
X147232743Y-115243942D01*
X147236250Y-115247989D01*
X147240511Y-115277623D01*
X147247241Y-115306806D01*
X147245431Y-115311846D01*
X147246194Y-115317147D01*
X147233753Y-115344386D01*
X147223640Y-115372569D01*
X147219394Y-115375830D01*
X147217169Y-115380703D01*
X147191973Y-115396895D01*
X147168232Y-115415133D01*
X147161693Y-115416354D01*
X147158391Y-115418477D01*
X147123456Y-115423500D01*
X146903965Y-115423500D01*
X146836926Y-115403815D01*
X146791171Y-115351011D01*
X146781227Y-115281853D01*
X146795879Y-115238727D01*
X146797918Y-115235099D01*
X146853386Y-115094443D01*
X146864000Y-115006053D01*
X146864000Y-114738000D01*
X146100500Y-114738000D01*
X146033461Y-114718315D01*
X145987706Y-114665511D01*
X145976500Y-114614000D01*
X145976500Y-114488000D01*
X145850500Y-114488000D01*
X145783461Y-114468315D01*
X145737706Y-114415511D01*
X145726500Y-114364000D01*
X145726500Y-114238000D01*
X146226500Y-114238000D01*
X146864000Y-114238000D01*
X146864000Y-113969946D01*
X146853386Y-113881556D01*
X146797920Y-113740904D01*
X146706564Y-113620435D01*
X146586095Y-113529079D01*
X146445443Y-113473613D01*
X146357054Y-113463000D01*
X146226500Y-113463000D01*
X146226500Y-114238000D01*
X145726500Y-114238000D01*
X145726500Y-113463000D01*
X145595946Y-113463000D01*
X145507556Y-113473613D01*
X145366904Y-113529079D01*
X145246435Y-113620435D01*
X145155079Y-113740904D01*
X145099613Y-113881556D01*
X145089000Y-113969946D01*
X145089000Y-114200445D01*
X145069315Y-114267484D01*
X145016511Y-114313239D01*
X144947353Y-114323183D01*
X144892638Y-114301142D01*
X144884453Y-114295260D01*
X144822713Y-114233520D01*
X144731388Y-114180793D01*
X144721462Y-114178133D01*
X144705040Y-114166332D01*
X144692023Y-114149631D01*
X144675542Y-114136349D01*
X144670976Y-114122630D01*
X144662087Y-114111225D01*
X144660165Y-114090140D01*
X144653481Y-114070054D01*
X144657057Y-114056044D01*
X144655745Y-114041643D01*
X144665527Y-114022867D01*
X144670764Y-114002355D01*
X144677633Y-113992000D01*
X144696346Y-113966645D01*
X144735762Y-113854000D01*
X143768000Y-113854000D01*
X143700961Y-113834315D01*
X143655206Y-113781511D01*
X143644000Y-113730000D01*
X143644000Y-113604000D01*
X143518000Y-113604000D01*
X143450961Y-113584315D01*
X143405206Y-113531511D01*
X143394000Y-113480000D01*
X143394000Y-113354000D01*
X143894000Y-113354000D01*
X144735761Y-113354000D01*
X144696346Y-113241354D01*
X144615792Y-113132207D01*
X144506645Y-113051653D01*
X144378602Y-113006850D01*
X144348207Y-113004000D01*
X143894000Y-113004000D01*
X143894000Y-113354000D01*
X143394000Y-113354000D01*
X143394000Y-113004000D01*
X142939803Y-113004000D01*
X142909393Y-113006851D01*
X142781354Y-113051653D01*
X142672207Y-113132207D01*
X142594080Y-113238066D01*
X142538432Y-113280317D01*
X142468776Y-113285775D01*
X142407227Y-113252707D01*
X142394540Y-113238065D01*
X142316151Y-113131851D01*
X142300833Y-113120546D01*
X142206882Y-113051207D01*
X142206880Y-113051206D01*
X142078700Y-113006353D01*
X142048270Y-113003500D01*
X142048266Y-113003500D01*
X140639734Y-113003500D01*
X140639730Y-113003500D01*
X140609300Y-113006353D01*
X140609298Y-113006353D01*
X140481119Y-113051206D01*
X140481117Y-113051207D01*
X140371850Y-113131850D01*
X140356142Y-113153134D01*
X140300494Y-113195385D01*
X140256372Y-113203500D01*
X139440339Y-113203500D01*
X139440323Y-113203499D01*
X139432727Y-113203499D01*
X139327273Y-113203499D01*
X139274343Y-113217682D01*
X139225412Y-113230793D01*
X139172685Y-113261235D01*
X139134087Y-113283520D01*
X139066589Y-113351018D01*
X139066588Y-113351017D01*
X139066586Y-113351019D01*
X139066587Y-113351020D01*
X139059520Y-113358087D01*
X139059518Y-113358088D01*
X138900424Y-113517182D01*
X138839103Y-113550666D01*
X138812745Y-113553500D01*
X138782898Y-113553500D01*
X138743853Y-113558188D01*
X138694438Y-113564122D01*
X138553656Y-113619639D01*
X138433077Y-113711077D01*
X138341639Y-113831656D01*
X138317382Y-113893170D01*
X138291353Y-113959171D01*
X138248449Y-114014314D01*
X138182541Y-114037507D01*
X138114556Y-114021386D01*
X138066080Y-113971070D01*
X138060648Y-113959178D01*
X138010361Y-113831658D01*
X138010360Y-113831657D01*
X138010360Y-113831656D01*
X137918922Y-113711077D01*
X137798343Y-113619639D01*
X137702192Y-113581722D01*
X137657564Y-113564123D01*
X137657563Y-113564122D01*
X137657561Y-113564122D01*
X137611926Y-113558642D01*
X137569102Y-113553500D01*
X136782898Y-113553500D01*
X136743853Y-113558188D01*
X136694438Y-113564122D01*
X136553656Y-113619639D01*
X136433077Y-113711077D01*
X136341639Y-113831656D01*
X136286122Y-113972438D01*
X136283425Y-113994903D01*
X136277494Y-114044285D01*
X136249959Y-114108498D01*
X136192077Y-114147631D01*
X136154380Y-114153500D01*
X135091255Y-114153500D01*
X135024216Y-114133815D01*
X135003574Y-114117181D01*
X131915674Y-111029281D01*
X131882189Y-110967958D01*
X131885423Y-110903284D01*
X131932171Y-110759409D01*
X131935134Y-110740699D01*
X131960500Y-110580551D01*
X131960500Y-110399448D01*
X131938754Y-110262154D01*
X131932171Y-110220591D01*
X131901179Y-110125206D01*
X131876212Y-110048363D01*
X131876211Y-110048360D01*
X131840360Y-109978000D01*
X131793996Y-109887006D01*
X131770016Y-109854000D01*
X131698635Y-109755751D01*
X131698631Y-109755747D01*
X131687553Y-109740499D01*
X131559501Y-109612447D01*
X131544252Y-109601368D01*
X131544249Y-109601365D01*
X131412993Y-109506003D01*
X131251639Y-109423788D01*
X131251636Y-109423787D01*
X131079410Y-109367829D01*
X130919321Y-109342473D01*
X130856186Y-109312544D01*
X130819255Y-109253232D01*
X130820253Y-109183370D01*
X130858863Y-109125137D01*
X130919321Y-109097527D01*
X131079409Y-109072171D01*
X131130182Y-109055674D01*
X131223284Y-109025423D01*
X131293123Y-109023429D01*
X131349281Y-109055674D01*
X131785892Y-109492284D01*
X132263179Y-109969571D01*
X132263189Y-109969582D01*
X132342088Y-110048481D01*
X132355585Y-110056273D01*
X132401559Y-110082816D01*
X132401560Y-110082817D01*
X132433407Y-110101204D01*
X132433410Y-110101206D01*
X132433412Y-110101206D01*
X132433413Y-110101207D01*
X132535273Y-110128501D01*
X132535275Y-110128501D01*
X132648323Y-110128501D01*
X132648339Y-110128500D01*
X136154380Y-110128500D01*
X136221419Y-110148185D01*
X136267174Y-110200989D01*
X136277494Y-110237712D01*
X136281094Y-110267685D01*
X136286122Y-110309561D01*
X136341639Y-110450343D01*
X136433077Y-110570922D01*
X136553656Y-110662360D01*
X136553657Y-110662360D01*
X136553658Y-110662361D01*
X136694436Y-110717877D01*
X136782898Y-110728500D01*
X136782903Y-110728500D01*
X137569097Y-110728500D01*
X137569102Y-110728500D01*
X137657564Y-110717877D01*
X137798342Y-110662361D01*
X137918922Y-110570922D01*
X138010361Y-110450342D01*
X138060646Y-110322826D01*
X138103551Y-110267685D01*
X138169459Y-110244492D01*
X138237443Y-110260612D01*
X138285920Y-110310929D01*
X138291348Y-110322814D01*
X138321569Y-110399448D01*
X138341639Y-110450343D01*
X138433077Y-110570922D01*
X138553656Y-110662360D01*
X138553657Y-110662360D01*
X138553658Y-110662361D01*
X138694436Y-110717877D01*
X138782898Y-110728500D01*
X139043270Y-110728500D01*
X139110309Y-110748185D01*
X139156064Y-110800989D01*
X139166008Y-110870147D01*
X139150658Y-110914499D01*
X139089623Y-111020215D01*
X139089623Y-111020216D01*
X139048700Y-111172943D01*
X139048700Y-111331057D01*
X139087001Y-111473996D01*
X139089623Y-111483783D01*
X139089626Y-111483790D01*
X139168675Y-111620709D01*
X139168679Y-111620714D01*
X139168680Y-111620716D01*
X139280484Y-111732520D01*
X139280486Y-111732521D01*
X139280490Y-111732524D01*
X139417409Y-111811573D01*
X139417416Y-111811577D01*
X139570143Y-111852500D01*
X139570145Y-111852500D01*
X139728255Y-111852500D01*
X139728257Y-111852500D01*
X139880984Y-111811577D01*
X140017916Y-111732520D01*
X140017921Y-111732514D01*
X140023643Y-111728125D01*
X140088812Y-111702930D01*
X140099131Y-111702500D01*
X140777308Y-111702500D01*
X140777309Y-111702500D01*
X140867673Y-111678286D01*
X140891887Y-111671799D01*
X140994614Y-111612489D01*
X141292285Y-111314819D01*
X141353608Y-111281334D01*
X141379966Y-111278500D01*
X142048270Y-111278500D01*
X142078699Y-111275646D01*
X142078701Y-111275646D01*
X142142790Y-111253219D01*
X142206882Y-111230793D01*
X142316150Y-111150150D01*
X142394230Y-111044355D01*
X142449877Y-111002104D01*
X142519533Y-110996645D01*
X142581083Y-111029712D01*
X142593770Y-111044355D01*
X142671848Y-111150148D01*
X142671849Y-111150148D01*
X142671850Y-111150150D01*
X142781118Y-111230793D01*
X142823845Y-111245744D01*
X142909299Y-111275646D01*
X142939730Y-111278500D01*
X142939734Y-111278500D01*
X144348270Y-111278500D01*
X144378699Y-111275646D01*
X144378701Y-111275646D01*
X144442790Y-111253219D01*
X144506882Y-111230793D01*
X144561596Y-111190412D01*
X144627223Y-111166442D01*
X144695393Y-111181757D01*
X144722909Y-111202502D01*
X144788087Y-111267680D01*
X144879412Y-111320407D01*
X144981273Y-111347700D01*
X144981275Y-111347700D01*
X147728325Y-111347700D01*
X147728327Y-111347700D01*
X147830188Y-111320407D01*
X147921513Y-111267680D01*
X148371980Y-110817213D01*
X148376011Y-110810231D01*
X148426574Y-110762016D01*
X148468609Y-110749115D01*
X148520564Y-110742877D01*
X148661342Y-110687361D01*
X148781922Y-110595922D01*
X148873361Y-110475342D01*
X148928877Y-110334564D01*
X148936885Y-110267870D01*
X148964420Y-110203660D01*
X149022302Y-110164526D01*
X149092153Y-110162898D01*
X149151795Y-110199292D01*
X149182293Y-110262154D01*
X149183115Y-110267871D01*
X149188121Y-110309558D01*
X149188122Y-110309562D01*
X149188123Y-110309564D01*
X149207757Y-110359353D01*
X149243639Y-110450343D01*
X149335077Y-110570922D01*
X149455656Y-110662360D01*
X149455657Y-110662360D01*
X149455658Y-110662361D01*
X149596436Y-110717877D01*
X149684898Y-110728500D01*
X149684903Y-110728500D01*
X150471097Y-110728500D01*
X150471102Y-110728500D01*
X150559564Y-110717877D01*
X150700342Y-110662361D01*
X150820922Y-110570922D01*
X150912361Y-110450342D01*
X150962646Y-110322826D01*
X151005551Y-110267685D01*
X151071459Y-110244492D01*
X151139443Y-110260612D01*
X151187920Y-110310929D01*
X151193348Y-110322814D01*
X151223569Y-110399448D01*
X151243639Y-110450343D01*
X151335077Y-110570922D01*
X151455656Y-110662360D01*
X151455657Y-110662360D01*
X151455658Y-110662361D01*
X151596436Y-110717877D01*
X151684898Y-110728500D01*
X151684903Y-110728500D01*
X152471097Y-110728500D01*
X152471102Y-110728500D01*
X152559564Y-110717877D01*
X152700342Y-110662361D01*
X152820922Y-110570922D01*
X152912361Y-110450342D01*
X152967877Y-110309564D01*
X152976505Y-110237714D01*
X152977095Y-110236337D01*
X152976882Y-110234853D01*
X152990818Y-110204336D01*
X153004041Y-110173502D01*
X153005283Y-110172661D01*
X153005907Y-110171297D01*
X153034130Y-110153158D01*
X153061923Y-110134369D01*
X153063830Y-110134071D01*
X153064685Y-110133523D01*
X153099620Y-110128500D01*
X153120380Y-110128500D01*
X153187419Y-110148185D01*
X153233174Y-110200989D01*
X153243494Y-110237712D01*
X153247094Y-110267685D01*
X153252122Y-110309561D01*
X153307639Y-110450343D01*
X153399077Y-110570922D01*
X153519656Y-110662360D01*
X153519657Y-110662360D01*
X153519658Y-110662361D01*
X153660436Y-110717877D01*
X153748898Y-110728500D01*
X154117202Y-110728500D01*
X154184241Y-110748185D01*
X154204883Y-110764819D01*
X155664344Y-112224280D01*
X155755669Y-112277007D01*
X155857530Y-112304300D01*
X155857532Y-112304300D01*
X157943697Y-112304300D01*
X158010736Y-112323985D01*
X158056491Y-112376789D01*
X158066435Y-112445947D01*
X158044015Y-112501186D01*
X157944140Y-112638650D01*
X157851244Y-112820968D01*
X157788009Y-113015582D01*
X157756000Y-113217682D01*
X157756000Y-113422317D01*
X157788009Y-113624417D01*
X157851244Y-113819031D01*
X157944141Y-114001350D01*
X157944147Y-114001359D01*
X157976523Y-114045921D01*
X157976524Y-114045922D01*
X158532212Y-113490233D01*
X158543482Y-113532292D01*
X158615890Y-113657708D01*
X158718292Y-113760110D01*
X158843708Y-113832518D01*
X158885765Y-113843787D01*
X158330076Y-114399474D01*
X158374650Y-114431859D01*
X158556968Y-114524755D01*
X158751582Y-114587990D01*
X158953683Y-114620000D01*
X159158317Y-114620000D01*
X159360417Y-114587990D01*
X159555031Y-114524755D01*
X159737349Y-114431859D01*
X159781921Y-114399474D01*
X159226234Y-113843787D01*
X159268292Y-113832518D01*
X159393708Y-113760110D01*
X159496110Y-113657708D01*
X159568518Y-113532292D01*
X159579787Y-113490234D01*
X160135474Y-114045921D01*
X160167859Y-114001349D01*
X160260755Y-113819031D01*
X160323990Y-113624417D01*
X160356000Y-113422317D01*
X160356000Y-113217682D01*
X160323990Y-113015582D01*
X160260755Y-112820968D01*
X160167859Y-112638650D01*
X160067985Y-112501186D01*
X160044505Y-112435379D01*
X160060330Y-112367326D01*
X160110436Y-112318631D01*
X160168303Y-112304300D01*
X164443697Y-112304300D01*
X164510736Y-112323985D01*
X164556491Y-112376789D01*
X164566435Y-112445947D01*
X164544015Y-112501186D01*
X164444140Y-112638650D01*
X164351244Y-112820968D01*
X164288009Y-113015582D01*
X164256000Y-113217682D01*
X164256000Y-113422317D01*
X164288009Y-113624417D01*
X164351244Y-113819031D01*
X164444141Y-114001350D01*
X164444147Y-114001359D01*
X164476523Y-114045921D01*
X164476524Y-114045922D01*
X165032212Y-113490233D01*
X165043482Y-113532292D01*
X165115890Y-113657708D01*
X165218292Y-113760110D01*
X165343708Y-113832518D01*
X165385765Y-113843787D01*
X164830076Y-114399474D01*
X164874650Y-114431859D01*
X165056968Y-114524755D01*
X165251582Y-114587990D01*
X165453683Y-114620000D01*
X165658317Y-114620000D01*
X165860417Y-114587990D01*
X166055031Y-114524755D01*
X166237349Y-114431859D01*
X166281922Y-114399474D01*
X165726234Y-113843787D01*
X165768292Y-113832518D01*
X165893708Y-113760110D01*
X165996110Y-113657708D01*
X166068518Y-113532292D01*
X166079787Y-113490234D01*
X166635474Y-114045921D01*
X166667859Y-114001349D01*
X166760755Y-113819031D01*
X166823990Y-113624417D01*
X166856000Y-113422317D01*
X166856000Y-113217682D01*
X167662000Y-113217682D01*
X167662000Y-113422317D01*
X167694009Y-113624417D01*
X167757244Y-113819031D01*
X167850141Y-114001350D01*
X167850147Y-114001359D01*
X167882523Y-114045921D01*
X167882524Y-114045922D01*
X168438212Y-113490234D01*
X168449482Y-113532292D01*
X168521890Y-113657708D01*
X168624292Y-113760110D01*
X168749708Y-113832518D01*
X168791765Y-113843787D01*
X168236076Y-114399474D01*
X168280650Y-114431859D01*
X168462968Y-114524755D01*
X168657582Y-114587990D01*
X168859683Y-114620000D01*
X169064317Y-114620000D01*
X169266417Y-114587990D01*
X169461031Y-114524755D01*
X169643349Y-114431859D01*
X169687921Y-114399474D01*
X169132234Y-113843787D01*
X169174292Y-113832518D01*
X169299708Y-113760110D01*
X169402110Y-113657708D01*
X169474518Y-113532292D01*
X169485787Y-113490235D01*
X170041474Y-114045922D01*
X170041474Y-114045921D01*
X170073859Y-114001349D01*
X170166755Y-113819031D01*
X170229990Y-113624417D01*
X170262000Y-113422317D01*
X170262000Y-113217682D01*
X174162000Y-113217682D01*
X174162000Y-113422317D01*
X174194009Y-113624417D01*
X174257244Y-113819031D01*
X174350141Y-114001350D01*
X174350147Y-114001359D01*
X174382523Y-114045921D01*
X174382524Y-114045922D01*
X174938212Y-113490234D01*
X174949482Y-113532292D01*
X175021890Y-113657708D01*
X175124292Y-113760110D01*
X175249708Y-113832518D01*
X175291765Y-113843787D01*
X174736076Y-114399474D01*
X174780650Y-114431859D01*
X174962968Y-114524755D01*
X175157582Y-114587990D01*
X175359683Y-114620000D01*
X175564317Y-114620000D01*
X175766417Y-114587990D01*
X175961031Y-114524755D01*
X176143349Y-114431859D01*
X176187922Y-114399474D01*
X175632234Y-113843787D01*
X175674292Y-113832518D01*
X175799708Y-113760110D01*
X175902110Y-113657708D01*
X175974518Y-113532292D01*
X175985787Y-113490235D01*
X176541474Y-114045922D01*
X176541474Y-114045921D01*
X176573859Y-114001349D01*
X176666755Y-113819031D01*
X176729990Y-113624417D01*
X176762000Y-113422317D01*
X176762000Y-113217682D01*
X176729990Y-113015582D01*
X176666755Y-112820968D01*
X176573859Y-112638650D01*
X176541474Y-112594077D01*
X176541474Y-112594076D01*
X175985787Y-113149764D01*
X175974518Y-113107708D01*
X175902110Y-112982292D01*
X175799708Y-112879890D01*
X175674292Y-112807482D01*
X175632233Y-112796212D01*
X176187922Y-112240524D01*
X176187921Y-112240523D01*
X176143359Y-112208147D01*
X176143350Y-112208141D01*
X175961031Y-112115244D01*
X175766417Y-112052009D01*
X175564317Y-112020000D01*
X175359683Y-112020000D01*
X175157582Y-112052009D01*
X174962968Y-112115244D01*
X174780644Y-112208143D01*
X174736077Y-112240523D01*
X174736077Y-112240524D01*
X175291766Y-112796212D01*
X175249708Y-112807482D01*
X175124292Y-112879890D01*
X175021890Y-112982292D01*
X174949482Y-113107708D01*
X174938212Y-113149765D01*
X174382524Y-112594077D01*
X174382523Y-112594077D01*
X174350143Y-112638644D01*
X174257244Y-112820968D01*
X174194009Y-113015582D01*
X174162000Y-113217682D01*
X170262000Y-113217682D01*
X170229990Y-113015582D01*
X170166755Y-112820968D01*
X170073859Y-112638650D01*
X170041474Y-112594077D01*
X170041474Y-112594076D01*
X169485787Y-113149764D01*
X169474518Y-113107708D01*
X169402110Y-112982292D01*
X169299708Y-112879890D01*
X169174292Y-112807482D01*
X169132233Y-112796212D01*
X169687922Y-112240524D01*
X169687921Y-112240523D01*
X169643359Y-112208147D01*
X169643350Y-112208141D01*
X169461031Y-112115244D01*
X169266417Y-112052009D01*
X169064317Y-112020000D01*
X168859683Y-112020000D01*
X168657582Y-112052009D01*
X168462968Y-112115244D01*
X168280644Y-112208143D01*
X168236077Y-112240523D01*
X168236077Y-112240524D01*
X168791766Y-112796212D01*
X168749708Y-112807482D01*
X168624292Y-112879890D01*
X168521890Y-112982292D01*
X168449482Y-113107708D01*
X168438212Y-113149765D01*
X167882524Y-112594077D01*
X167882523Y-112594077D01*
X167850143Y-112638644D01*
X167757244Y-112820968D01*
X167694009Y-113015582D01*
X167662000Y-113217682D01*
X166856000Y-113217682D01*
X166823990Y-113015582D01*
X166760755Y-112820968D01*
X166667859Y-112638650D01*
X166567985Y-112501186D01*
X166544505Y-112435379D01*
X166560330Y-112367326D01*
X166610436Y-112318631D01*
X166668303Y-112304300D01*
X167258925Y-112304300D01*
X167258927Y-112304300D01*
X167360788Y-112277007D01*
X167452113Y-112224280D01*
X168272145Y-111404246D01*
X168333466Y-111370763D01*
X168403157Y-111375747D01*
X168416120Y-111381445D01*
X168462774Y-111405217D01*
X168462777Y-111405217D01*
X168462781Y-111405220D01*
X168597245Y-111448910D01*
X168657465Y-111468477D01*
X168753042Y-111483615D01*
X168859648Y-111500500D01*
X168859649Y-111500500D01*
X169064351Y-111500500D01*
X169064352Y-111500500D01*
X169266534Y-111468477D01*
X169461219Y-111405220D01*
X169643610Y-111312287D01*
X169765479Y-111223745D01*
X169809213Y-111191971D01*
X169809215Y-111191968D01*
X169809219Y-111191966D01*
X169953966Y-111047219D01*
X169953968Y-111047215D01*
X169953971Y-111047213D01*
X170036158Y-110934090D01*
X170074287Y-110881610D01*
X170167220Y-110699219D01*
X170230477Y-110504534D01*
X170262500Y-110302352D01*
X170262500Y-110097648D01*
X174161500Y-110097648D01*
X174161500Y-110302352D01*
X174162972Y-110311644D01*
X174193522Y-110504534D01*
X174256781Y-110699223D01*
X174316901Y-110817213D01*
X174343872Y-110870147D01*
X174349715Y-110881613D01*
X174470028Y-111047213D01*
X174614786Y-111191971D01*
X174760859Y-111298097D01*
X174780390Y-111312287D01*
X174888865Y-111367558D01*
X174962776Y-111405218D01*
X174962778Y-111405218D01*
X174962781Y-111405220D01*
X175041542Y-111430811D01*
X175157465Y-111468477D01*
X175253042Y-111483615D01*
X175359648Y-111500500D01*
X175359649Y-111500500D01*
X175564351Y-111500500D01*
X175564352Y-111500500D01*
X175766534Y-111468477D01*
X175961219Y-111405220D01*
X176143610Y-111312287D01*
X176265479Y-111223745D01*
X176309213Y-111191971D01*
X176309215Y-111191968D01*
X176309219Y-111191966D01*
X176453966Y-111047219D01*
X176453968Y-111047215D01*
X176453971Y-111047213D01*
X176536158Y-110934090D01*
X176574287Y-110881610D01*
X176667220Y-110699219D01*
X176730477Y-110504534D01*
X176762500Y-110302352D01*
X176762500Y-110097648D01*
X176741126Y-109962699D01*
X176730477Y-109895465D01*
X176667218Y-109700776D01*
X176633503Y-109634607D01*
X176574287Y-109518390D01*
X176544942Y-109478000D01*
X176453971Y-109352786D01*
X176309213Y-109208028D01*
X176143613Y-109087715D01*
X176143612Y-109087714D01*
X176143610Y-109087713D01*
X176070574Y-109050499D01*
X175961223Y-108994781D01*
X175766534Y-108931522D01*
X175591995Y-108903878D01*
X175564352Y-108899500D01*
X175359648Y-108899500D01*
X175335329Y-108903351D01*
X175157465Y-108931522D01*
X174962776Y-108994781D01*
X174780386Y-109087715D01*
X174614786Y-109208028D01*
X174470028Y-109352786D01*
X174349715Y-109518386D01*
X174256781Y-109700776D01*
X174193522Y-109895465D01*
X174169287Y-110048481D01*
X174161500Y-110097648D01*
X170262500Y-110097648D01*
X170241126Y-109962699D01*
X170230477Y-109895465D01*
X170167218Y-109700776D01*
X170133503Y-109634607D01*
X170074287Y-109518390D01*
X170044942Y-109478000D01*
X169953971Y-109352786D01*
X169809213Y-109208028D01*
X169643613Y-109087715D01*
X169643612Y-109087714D01*
X169643610Y-109087713D01*
X169570574Y-109050499D01*
X169461223Y-108994781D01*
X169266534Y-108931522D01*
X169091995Y-108903878D01*
X169064352Y-108899500D01*
X168859648Y-108899500D01*
X168835329Y-108903351D01*
X168657465Y-108931522D01*
X168462776Y-108994781D01*
X168280386Y-109087715D01*
X168114786Y-109208028D01*
X167970028Y-109352786D01*
X167849715Y-109518386D01*
X167756781Y-109700776D01*
X167693522Y-109895465D01*
X167669287Y-110048481D01*
X167661500Y-110097648D01*
X167661500Y-110302352D01*
X167669195Y-110350935D01*
X167693523Y-110504535D01*
X167693523Y-110504538D01*
X167754783Y-110693073D01*
X167756778Y-110762914D01*
X167724533Y-110819072D01*
X167076626Y-111466981D01*
X167015303Y-111500466D01*
X166988945Y-111503300D01*
X166356337Y-111503300D01*
X166289298Y-111483615D01*
X166243543Y-111430811D01*
X166233599Y-111361653D01*
X166262624Y-111298097D01*
X166283452Y-111278982D01*
X166403213Y-111191971D01*
X166403215Y-111191968D01*
X166403219Y-111191966D01*
X166547966Y-111047219D01*
X166547968Y-111047215D01*
X166547971Y-111047213D01*
X166630158Y-110934090D01*
X166668287Y-110881610D01*
X166761220Y-110699219D01*
X166824477Y-110504534D01*
X166856500Y-110302352D01*
X166856500Y-110097648D01*
X166835126Y-109962699D01*
X166824477Y-109895465D01*
X166761218Y-109700776D01*
X166727503Y-109634607D01*
X166668287Y-109518390D01*
X166638942Y-109478000D01*
X166547971Y-109352786D01*
X166403213Y-109208028D01*
X166237613Y-109087715D01*
X166237612Y-109087714D01*
X166237610Y-109087713D01*
X166164574Y-109050499D01*
X166055223Y-108994781D01*
X165860534Y-108931522D01*
X165685995Y-108903878D01*
X165658352Y-108899500D01*
X165453648Y-108899500D01*
X165429329Y-108903351D01*
X165251465Y-108931522D01*
X165056776Y-108994781D01*
X164874386Y-109087715D01*
X164708786Y-109208028D01*
X164564028Y-109352786D01*
X164443715Y-109518386D01*
X164350781Y-109700776D01*
X164287522Y-109895465D01*
X164263287Y-110048481D01*
X164255500Y-110097648D01*
X164255500Y-110302352D01*
X164256972Y-110311644D01*
X164287522Y-110504534D01*
X164350781Y-110699223D01*
X164410901Y-110817213D01*
X164437872Y-110870147D01*
X164443715Y-110881613D01*
X164564028Y-111047213D01*
X164708786Y-111191971D01*
X164828548Y-111278982D01*
X164871214Y-111334311D01*
X164877193Y-111403925D01*
X164844588Y-111465720D01*
X164783749Y-111500077D01*
X164755663Y-111503300D01*
X159856337Y-111503300D01*
X159789298Y-111483615D01*
X159743543Y-111430811D01*
X159733599Y-111361653D01*
X159762624Y-111298097D01*
X159783452Y-111278982D01*
X159903213Y-111191971D01*
X159903215Y-111191968D01*
X159903219Y-111191966D01*
X160047966Y-111047219D01*
X160047968Y-111047215D01*
X160047971Y-111047213D01*
X160130158Y-110934090D01*
X160168287Y-110881610D01*
X160261220Y-110699219D01*
X160324477Y-110504534D01*
X160356500Y-110302352D01*
X160356500Y-110097648D01*
X160335126Y-109962699D01*
X160324477Y-109895465D01*
X160261218Y-109700776D01*
X160227503Y-109634607D01*
X160168287Y-109518390D01*
X160138942Y-109478000D01*
X160047971Y-109352786D01*
X159903213Y-109208028D01*
X159737613Y-109087715D01*
X159737612Y-109087714D01*
X159737610Y-109087713D01*
X159664574Y-109050499D01*
X159555223Y-108994781D01*
X159360534Y-108931522D01*
X159185995Y-108903878D01*
X159158352Y-108899500D01*
X158953648Y-108899500D01*
X158925237Y-108904000D01*
X158751464Y-108931523D01*
X158751461Y-108931523D01*
X158556783Y-108994778D01*
X158510117Y-109018555D01*
X158441447Y-109031450D01*
X158376707Y-109005172D01*
X158366143Y-108995750D01*
X156418642Y-107048249D01*
X156385157Y-106986926D01*
X156390141Y-106917234D01*
X156432013Y-106861301D01*
X156444314Y-106853186D01*
X156527916Y-106804920D01*
X156639720Y-106693116D01*
X156718777Y-106556184D01*
X156759700Y-106403457D01*
X156759700Y-106245343D01*
X156718777Y-106092616D01*
X156678643Y-106023101D01*
X156662170Y-105955200D01*
X156685023Y-105889173D01*
X156739944Y-105845983D01*
X156740209Y-105845877D01*
X156764342Y-105836361D01*
X156884922Y-105744922D01*
X156976361Y-105624342D01*
X156986874Y-105597682D01*
X157756000Y-105597682D01*
X157756000Y-105802317D01*
X157788009Y-106004417D01*
X157851244Y-106199031D01*
X157944141Y-106381350D01*
X157944147Y-106381359D01*
X157976523Y-106425921D01*
X157976524Y-106425922D01*
X158532212Y-105870234D01*
X158543482Y-105912292D01*
X158615890Y-106037708D01*
X158718292Y-106140110D01*
X158843708Y-106212518D01*
X158885765Y-106223787D01*
X158330076Y-106779474D01*
X158374650Y-106811859D01*
X158556968Y-106904755D01*
X158751582Y-106967990D01*
X158953683Y-107000000D01*
X159158317Y-107000000D01*
X159360417Y-106967990D01*
X159555031Y-106904755D01*
X159737349Y-106811859D01*
X159781921Y-106779474D01*
X159226234Y-106223787D01*
X159268292Y-106212518D01*
X159393708Y-106140110D01*
X159496110Y-106037708D01*
X159568518Y-105912292D01*
X159579787Y-105870234D01*
X160135474Y-106425921D01*
X160167859Y-106381349D01*
X160260755Y-106199031D01*
X160323990Y-106004417D01*
X160356000Y-105802317D01*
X160356000Y-105597682D01*
X164256000Y-105597682D01*
X164256000Y-105802317D01*
X164288009Y-106004417D01*
X164351244Y-106199031D01*
X164444141Y-106381350D01*
X164444147Y-106381359D01*
X164476523Y-106425921D01*
X164476524Y-106425922D01*
X165032212Y-105870234D01*
X165043482Y-105912292D01*
X165115890Y-106037708D01*
X165218292Y-106140110D01*
X165343708Y-106212518D01*
X165385765Y-106223787D01*
X164830076Y-106779474D01*
X164874650Y-106811859D01*
X165056968Y-106904755D01*
X165251582Y-106967990D01*
X165453683Y-107000000D01*
X165658317Y-107000000D01*
X165860417Y-106967990D01*
X166055031Y-106904755D01*
X166237349Y-106811859D01*
X166281922Y-106779474D01*
X165726234Y-106223787D01*
X165768292Y-106212518D01*
X165893708Y-106140110D01*
X165996110Y-106037708D01*
X166068518Y-105912292D01*
X166079787Y-105870234D01*
X166635474Y-106425921D01*
X166667859Y-106381349D01*
X166760755Y-106199031D01*
X166823990Y-106004417D01*
X166856000Y-105802317D01*
X166856000Y-105597682D01*
X167662000Y-105597682D01*
X167662000Y-105802317D01*
X167694009Y-106004417D01*
X167757244Y-106199031D01*
X167850141Y-106381350D01*
X167850147Y-106381359D01*
X167882523Y-106425921D01*
X167882524Y-106425922D01*
X168438212Y-105870234D01*
X168449482Y-105912292D01*
X168521890Y-106037708D01*
X168624292Y-106140110D01*
X168749708Y-106212518D01*
X168791765Y-106223787D01*
X168236076Y-106779474D01*
X168280650Y-106811859D01*
X168462968Y-106904755D01*
X168657582Y-106967990D01*
X168859683Y-107000000D01*
X169064317Y-107000000D01*
X169266417Y-106967990D01*
X169461031Y-106904755D01*
X169643349Y-106811859D01*
X169687921Y-106779474D01*
X169132234Y-106223787D01*
X169174292Y-106212518D01*
X169299708Y-106140110D01*
X169402110Y-106037708D01*
X169474518Y-105912292D01*
X169485787Y-105870235D01*
X170041474Y-106425922D01*
X170041474Y-106425921D01*
X170073859Y-106381349D01*
X170166755Y-106199031D01*
X170229990Y-106004417D01*
X170262000Y-105802317D01*
X170262000Y-105597682D01*
X174162000Y-105597682D01*
X174162000Y-105802317D01*
X174194009Y-106004417D01*
X174257244Y-106199031D01*
X174350141Y-106381350D01*
X174350147Y-106381359D01*
X174382523Y-106425921D01*
X174382524Y-106425922D01*
X174938212Y-105870234D01*
X174949482Y-105912292D01*
X175021890Y-106037708D01*
X175124292Y-106140110D01*
X175249708Y-106212518D01*
X175291765Y-106223787D01*
X174736076Y-106779474D01*
X174780650Y-106811859D01*
X174962968Y-106904755D01*
X175157582Y-106967990D01*
X175359683Y-107000000D01*
X175564317Y-107000000D01*
X175766417Y-106967990D01*
X175961031Y-106904755D01*
X176143349Y-106811859D01*
X176187921Y-106779474D01*
X175632234Y-106223787D01*
X175674292Y-106212518D01*
X175799708Y-106140110D01*
X175902110Y-106037708D01*
X175974518Y-105912292D01*
X175985787Y-105870235D01*
X176541474Y-106425922D01*
X176541474Y-106425921D01*
X176573859Y-106381349D01*
X176666755Y-106199031D01*
X176729990Y-106004417D01*
X176762000Y-105802317D01*
X176762000Y-105597682D01*
X176729990Y-105395582D01*
X176666755Y-105200968D01*
X176573859Y-105018650D01*
X176541474Y-104974077D01*
X176541474Y-104974076D01*
X175985787Y-105529764D01*
X175974518Y-105487708D01*
X175902110Y-105362292D01*
X175799708Y-105259890D01*
X175674292Y-105187482D01*
X175632233Y-105176212D01*
X176187922Y-104620524D01*
X176187921Y-104620523D01*
X176143359Y-104588147D01*
X176143350Y-104588141D01*
X175961031Y-104495244D01*
X175766417Y-104432009D01*
X175564317Y-104400000D01*
X175359683Y-104400000D01*
X175157582Y-104432009D01*
X174962968Y-104495244D01*
X174780644Y-104588143D01*
X174736077Y-104620523D01*
X174736077Y-104620524D01*
X175291766Y-105176212D01*
X175249708Y-105187482D01*
X175124292Y-105259890D01*
X175021890Y-105362292D01*
X174949482Y-105487708D01*
X174938212Y-105529765D01*
X174382524Y-104974077D01*
X174382523Y-104974077D01*
X174350143Y-105018644D01*
X174257244Y-105200968D01*
X174194009Y-105395582D01*
X174162000Y-105597682D01*
X170262000Y-105597682D01*
X170229990Y-105395582D01*
X170166755Y-105200968D01*
X170073859Y-105018650D01*
X170041474Y-104974077D01*
X170041474Y-104974076D01*
X169485787Y-105529764D01*
X169474518Y-105487708D01*
X169402110Y-105362292D01*
X169299708Y-105259890D01*
X169174292Y-105187482D01*
X169132233Y-105176212D01*
X169687922Y-104620524D01*
X169687921Y-104620523D01*
X169643359Y-104588147D01*
X169643350Y-104588141D01*
X169461031Y-104495244D01*
X169266417Y-104432009D01*
X169064317Y-104400000D01*
X168859683Y-104400000D01*
X168657582Y-104432009D01*
X168462968Y-104495244D01*
X168280644Y-104588143D01*
X168236077Y-104620523D01*
X168236077Y-104620524D01*
X168791766Y-105176212D01*
X168749708Y-105187482D01*
X168624292Y-105259890D01*
X168521890Y-105362292D01*
X168449482Y-105487708D01*
X168438212Y-105529765D01*
X167882524Y-104974077D01*
X167882523Y-104974077D01*
X167850143Y-105018644D01*
X167757244Y-105200968D01*
X167694009Y-105395582D01*
X167662000Y-105597682D01*
X166856000Y-105597682D01*
X166823990Y-105395582D01*
X166760755Y-105200968D01*
X166667859Y-105018650D01*
X166635474Y-104974077D01*
X166635474Y-104974076D01*
X166079787Y-105529764D01*
X166068518Y-105487708D01*
X165996110Y-105362292D01*
X165893708Y-105259890D01*
X165768292Y-105187482D01*
X165726233Y-105176212D01*
X166281922Y-104620524D01*
X166281921Y-104620523D01*
X166237359Y-104588147D01*
X166237350Y-104588141D01*
X166055031Y-104495244D01*
X165860417Y-104432009D01*
X165658317Y-104400000D01*
X165453683Y-104400000D01*
X165251582Y-104432009D01*
X165056968Y-104495244D01*
X164874644Y-104588143D01*
X164830077Y-104620523D01*
X164830077Y-104620524D01*
X165385766Y-105176212D01*
X165343708Y-105187482D01*
X165218292Y-105259890D01*
X165115890Y-105362292D01*
X165043482Y-105487708D01*
X165032212Y-105529765D01*
X164476524Y-104974077D01*
X164476523Y-104974077D01*
X164444143Y-105018644D01*
X164351244Y-105200968D01*
X164288009Y-105395582D01*
X164256000Y-105597682D01*
X160356000Y-105597682D01*
X160323990Y-105395582D01*
X160260755Y-105200968D01*
X160167859Y-105018650D01*
X160135474Y-104974077D01*
X160135474Y-104974076D01*
X159579787Y-105529764D01*
X159568518Y-105487708D01*
X159496110Y-105362292D01*
X159393708Y-105259890D01*
X159268292Y-105187482D01*
X159226233Y-105176212D01*
X159781922Y-104620524D01*
X159781921Y-104620523D01*
X159737359Y-104588147D01*
X159737350Y-104588141D01*
X159555031Y-104495244D01*
X159360417Y-104432009D01*
X159158317Y-104400000D01*
X158953683Y-104400000D01*
X158751582Y-104432009D01*
X158556968Y-104495244D01*
X158374644Y-104588143D01*
X158330077Y-104620523D01*
X158330077Y-104620524D01*
X158885766Y-105176212D01*
X158843708Y-105187482D01*
X158718292Y-105259890D01*
X158615890Y-105362292D01*
X158543482Y-105487708D01*
X158532212Y-105529765D01*
X157976524Y-104974077D01*
X157976523Y-104974077D01*
X157944143Y-105018644D01*
X157851244Y-105200968D01*
X157788009Y-105395582D01*
X157756000Y-105597682D01*
X156986874Y-105597682D01*
X157031877Y-105483564D01*
X157042500Y-105395102D01*
X157042500Y-104408898D01*
X157031877Y-104320436D01*
X156976361Y-104179658D01*
X156976360Y-104179657D01*
X156976360Y-104179656D01*
X156884922Y-104059077D01*
X156764343Y-103967639D01*
X156623561Y-103912122D01*
X156577926Y-103906642D01*
X156535102Y-103901500D01*
X155748898Y-103901500D01*
X155709853Y-103906188D01*
X155660438Y-103912122D01*
X155519656Y-103967639D01*
X155399077Y-104059077D01*
X155307639Y-104179656D01*
X155304862Y-104186699D01*
X155257353Y-104307171D01*
X155214449Y-104362314D01*
X155148541Y-104385507D01*
X155080556Y-104369386D01*
X155032080Y-104319070D01*
X155026648Y-104307178D01*
X154976361Y-104179658D01*
X154976360Y-104179657D01*
X154976360Y-104179656D01*
X154884922Y-104059077D01*
X154764343Y-103967639D01*
X154623561Y-103912122D01*
X154577926Y-103906642D01*
X154535102Y-103901500D01*
X153748898Y-103901500D01*
X153709853Y-103906188D01*
X153660438Y-103912122D01*
X153519656Y-103967639D01*
X153399077Y-104059077D01*
X153307639Y-104179656D01*
X153252122Y-104320438D01*
X153249315Y-104343816D01*
X153243494Y-104392285D01*
X153242904Y-104393662D01*
X153243118Y-104395147D01*
X153229181Y-104425663D01*
X153215959Y-104456498D01*
X153214716Y-104457338D01*
X153214093Y-104458703D01*
X153185869Y-104476841D01*
X153158077Y-104495631D01*
X153156169Y-104495928D01*
X153155315Y-104496477D01*
X153120380Y-104501500D01*
X153099620Y-104501500D01*
X153032581Y-104481815D01*
X152986826Y-104429011D01*
X152976505Y-104392287D01*
X152967877Y-104320436D01*
X152912361Y-104179658D01*
X152912360Y-104179657D01*
X152912360Y-104179656D01*
X152820922Y-104059077D01*
X152700343Y-103967639D01*
X152559561Y-103912122D01*
X152513926Y-103906642D01*
X152471102Y-103901500D01*
X151684898Y-103901500D01*
X151645853Y-103906188D01*
X151596438Y-103912122D01*
X151455656Y-103967639D01*
X151335077Y-104059077D01*
X151243639Y-104179656D01*
X151240862Y-104186699D01*
X151193353Y-104307171D01*
X151150449Y-104362314D01*
X151084541Y-104385507D01*
X151016556Y-104369386D01*
X150968080Y-104319070D01*
X150962648Y-104307178D01*
X150912361Y-104179658D01*
X150912360Y-104179657D01*
X150912360Y-104179656D01*
X150820922Y-104059077D01*
X150700343Y-103967639D01*
X150559561Y-103912122D01*
X150513926Y-103906642D01*
X150471102Y-103901500D01*
X149684898Y-103901500D01*
X149645853Y-103906188D01*
X149596438Y-103912122D01*
X149455656Y-103967639D01*
X149335077Y-104059077D01*
X149243639Y-104179656D01*
X149188121Y-104320441D01*
X149183115Y-104362128D01*
X149155577Y-104426342D01*
X149097694Y-104465474D01*
X149027843Y-104467100D01*
X148968202Y-104430704D01*
X148937706Y-104367840D01*
X148936891Y-104362177D01*
X148928877Y-104295436D01*
X148873361Y-104154658D01*
X148873360Y-104154657D01*
X148873360Y-104154656D01*
X148781922Y-104034077D01*
X148661343Y-103942639D01*
X148549835Y-103898666D01*
X148520564Y-103887123D01*
X148520563Y-103887122D01*
X148520561Y-103887122D01*
X148474926Y-103881642D01*
X148432102Y-103876500D01*
X147670898Y-103876500D01*
X147631853Y-103881188D01*
X147582438Y-103887122D01*
X147441656Y-103942639D01*
X147321077Y-104034077D01*
X147229639Y-104154656D01*
X147174122Y-104295438D01*
X147171120Y-104320441D01*
X147163500Y-104383898D01*
X147163500Y-105420102D01*
X147166115Y-105441875D01*
X147174122Y-105508561D01*
X147229639Y-105649343D01*
X147286993Y-105724975D01*
X147311816Y-105790286D01*
X147297388Y-105858650D01*
X147248290Y-105908361D01*
X147188189Y-105923900D01*
X146839183Y-105923900D01*
X146772144Y-105904215D01*
X146726389Y-105851411D01*
X146716445Y-105782253D01*
X146740380Y-105724974D01*
X146797919Y-105649098D01*
X146797919Y-105649097D01*
X146853386Y-105508443D01*
X146864000Y-105420053D01*
X146864000Y-105152000D01*
X146100500Y-105152000D01*
X146033461Y-105132315D01*
X145987706Y-105079511D01*
X145976500Y-105028000D01*
X145976500Y-104902000D01*
X145850500Y-104902000D01*
X145783461Y-104882315D01*
X145737706Y-104829511D01*
X145726500Y-104778000D01*
X145726500Y-104652000D01*
X146226500Y-104652000D01*
X146864000Y-104652000D01*
X146864000Y-104383946D01*
X146853386Y-104295556D01*
X146797920Y-104154904D01*
X146706564Y-104034435D01*
X146586095Y-103943079D01*
X146445443Y-103887613D01*
X146357054Y-103877000D01*
X146226500Y-103877000D01*
X146226500Y-104652000D01*
X145726500Y-104652000D01*
X145726500Y-103877000D01*
X145595946Y-103877000D01*
X145507556Y-103887613D01*
X145366904Y-103943079D01*
X145246435Y-104034435D01*
X145155079Y-104154904D01*
X145099613Y-104295556D01*
X145089000Y-104383946D01*
X145089000Y-104408567D01*
X145083173Y-104428408D01*
X145082200Y-104449066D01*
X145073528Y-104461255D01*
X145069315Y-104475606D01*
X145053689Y-104489145D01*
X145041700Y-104506000D01*
X145027813Y-104511567D01*
X145016511Y-104521361D01*
X144996044Y-104524303D01*
X144976848Y-104532000D01*
X144955107Y-104530190D01*
X144947353Y-104531305D01*
X144941593Y-104530338D01*
X144935103Y-104529090D01*
X144934588Y-104528793D01*
X144832727Y-104501500D01*
X144791569Y-104501500D01*
X144779973Y-104499271D01*
X144758985Y-104488464D01*
X144736341Y-104481815D01*
X144728501Y-104472767D01*
X144717854Y-104467285D01*
X144706040Y-104446846D01*
X144690586Y-104429011D01*
X144688882Y-104417160D01*
X144682890Y-104406794D01*
X144684001Y-104383216D01*
X144680642Y-104359853D01*
X144685858Y-104343816D01*
X144686180Y-104337001D01*
X144689673Y-104332090D01*
X144693750Y-104319558D01*
X144696345Y-104314646D01*
X144735762Y-104202000D01*
X143768000Y-104202000D01*
X143700961Y-104182315D01*
X143655206Y-104129511D01*
X143644000Y-104078000D01*
X143644000Y-103952000D01*
X143518000Y-103952000D01*
X143450961Y-103932315D01*
X143405206Y-103879511D01*
X143394000Y-103828000D01*
X143394000Y-103702000D01*
X143894000Y-103702000D01*
X144735761Y-103702000D01*
X144696346Y-103589354D01*
X144615792Y-103480207D01*
X144506645Y-103399653D01*
X144378602Y-103354850D01*
X144348207Y-103352000D01*
X143894000Y-103352000D01*
X143894000Y-103702000D01*
X143394000Y-103702000D01*
X143394000Y-103352000D01*
X142939803Y-103352000D01*
X142909393Y-103354851D01*
X142781354Y-103399653D01*
X142672207Y-103480207D01*
X142594080Y-103586066D01*
X142538432Y-103628317D01*
X142468776Y-103633775D01*
X142407227Y-103600707D01*
X142394540Y-103586065D01*
X142316151Y-103479851D01*
X142206882Y-103399207D01*
X142206880Y-103399206D01*
X142078700Y-103354353D01*
X142048270Y-103351500D01*
X142048266Y-103351500D01*
X140639734Y-103351500D01*
X140639730Y-103351500D01*
X140609300Y-103354353D01*
X140609298Y-103354353D01*
X140481119Y-103399206D01*
X140481117Y-103399207D01*
X140371850Y-103479850D01*
X140356142Y-103501134D01*
X140300494Y-103543385D01*
X140256372Y-103551500D01*
X139541939Y-103551500D01*
X139541923Y-103551499D01*
X139534327Y-103551499D01*
X139428873Y-103551499D01*
X139360966Y-103569695D01*
X139327012Y-103578793D01*
X139274285Y-103609235D01*
X139235687Y-103631520D01*
X139168189Y-103699018D01*
X139168188Y-103699017D01*
X139168186Y-103699019D01*
X139168187Y-103699020D01*
X139161120Y-103706087D01*
X139161118Y-103706088D01*
X139002024Y-103865182D01*
X138940703Y-103898666D01*
X138914345Y-103901500D01*
X138782898Y-103901500D01*
X138743853Y-103906188D01*
X138694438Y-103912122D01*
X138553656Y-103967639D01*
X138433077Y-104059077D01*
X138341639Y-104179656D01*
X138338862Y-104186699D01*
X138291353Y-104307171D01*
X138248449Y-104362314D01*
X138182541Y-104385507D01*
X138114556Y-104369386D01*
X138066080Y-104319070D01*
X138060648Y-104307178D01*
X138010361Y-104179658D01*
X138010360Y-104179657D01*
X138010360Y-104179656D01*
X137918922Y-104059077D01*
X137798343Y-103967639D01*
X137657561Y-103912122D01*
X137611926Y-103906642D01*
X137569102Y-103901500D01*
X136782898Y-103901500D01*
X136743853Y-103906188D01*
X136694438Y-103912122D01*
X136553656Y-103967639D01*
X136433077Y-104059077D01*
X136341639Y-104179656D01*
X136286122Y-104320438D01*
X136283315Y-104343816D01*
X136277494Y-104392285D01*
X136249959Y-104456498D01*
X136192077Y-104495631D01*
X136154380Y-104501500D01*
X135964273Y-104501500D01*
X135862413Y-104528793D01*
X135862412Y-104528793D01*
X135777043Y-104578081D01*
X135777042Y-104578080D01*
X135771085Y-104581520D01*
X135771084Y-104581521D01*
X135379426Y-104973181D01*
X135318103Y-105006666D01*
X135291745Y-105009500D01*
X132084499Y-105009500D01*
X132017460Y-104989815D01*
X131971705Y-104937011D01*
X131960499Y-104885500D01*
X131960499Y-104515143D01*
X131960499Y-104515136D01*
X131960085Y-104511567D01*
X131957586Y-104490012D01*
X131957585Y-104490010D01*
X131957585Y-104490009D01*
X131912206Y-104387235D01*
X131832765Y-104307794D01*
X131822567Y-104303291D01*
X131729992Y-104262415D01*
X131704865Y-104259500D01*
X129915143Y-104259500D01*
X129915117Y-104259502D01*
X129890012Y-104262413D01*
X129890008Y-104262415D01*
X129787235Y-104307793D01*
X129707794Y-104387234D01*
X129662415Y-104490006D01*
X129662415Y-104490008D01*
X129659500Y-104515131D01*
X129659500Y-106304856D01*
X129659502Y-106304882D01*
X129662413Y-106329987D01*
X129662415Y-106329991D01*
X129707793Y-106432764D01*
X129707794Y-106432765D01*
X129787235Y-106512206D01*
X129890009Y-106557585D01*
X129915135Y-106560500D01*
X130652873Y-106560499D01*
X130719910Y-106580183D01*
X130765665Y-106632987D01*
X130775609Y-106702146D01*
X130746584Y-106765702D01*
X130687806Y-106803476D01*
X130672270Y-106806972D01*
X130540589Y-106827829D01*
X130368363Y-106883787D01*
X130368360Y-106883788D01*
X130207002Y-106966006D01*
X130060505Y-107072441D01*
X130060500Y-107072445D01*
X129932445Y-107200500D01*
X129932441Y-107200505D01*
X129826006Y-107347002D01*
X129743788Y-107508360D01*
X129743787Y-107508363D01*
X129687829Y-107680589D01*
X129659500Y-107859448D01*
X129659500Y-108040551D01*
X129687829Y-108219410D01*
X129743787Y-108391636D01*
X129743788Y-108391639D01*
X129778506Y-108459775D01*
X129821065Y-108543301D01*
X129826006Y-108552997D01*
X129932441Y-108699494D01*
X129932445Y-108699499D01*
X130060500Y-108827554D01*
X130060505Y-108827558D01*
X130159526Y-108899500D01*
X130207006Y-108933996D01*
X130298581Y-108980656D01*
X130368360Y-109016211D01*
X130368363Y-109016212D01*
X130454476Y-109044191D01*
X130540591Y-109072171D01*
X130613639Y-109083740D01*
X130700678Y-109097527D01*
X130763813Y-109127456D01*
X130800744Y-109186768D01*
X130799746Y-109256631D01*
X130761136Y-109314863D01*
X130700678Y-109342473D01*
X130540589Y-109367829D01*
X130368363Y-109423787D01*
X130368360Y-109423788D01*
X130207002Y-109506006D01*
X130060505Y-109612441D01*
X130060500Y-109612445D01*
X129932445Y-109740500D01*
X129932441Y-109740505D01*
X129826006Y-109887002D01*
X129743788Y-110048360D01*
X129743787Y-110048363D01*
X129687829Y-110220589D01*
X129659500Y-110399448D01*
X129659500Y-110580551D01*
X129687829Y-110759410D01*
X129743787Y-110931636D01*
X129743788Y-110931639D01*
X129826006Y-111092997D01*
X129932441Y-111239494D01*
X129932445Y-111239499D01*
X130060500Y-111367554D01*
X130060505Y-111367558D01*
X130188287Y-111460396D01*
X130207006Y-111473996D01*
X130312484Y-111527740D01*
X130368360Y-111556211D01*
X130368363Y-111556212D01*
X130454476Y-111584191D01*
X130540591Y-111612171D01*
X130613639Y-111623740D01*
X130700678Y-111637527D01*
X130763813Y-111667456D01*
X130800744Y-111726768D01*
X130799746Y-111796631D01*
X130761136Y-111854863D01*
X130700678Y-111882473D01*
X130540589Y-111907829D01*
X130368363Y-111963787D01*
X130368360Y-111963788D01*
X130207002Y-112046006D01*
X130060505Y-112152441D01*
X130060500Y-112152445D01*
X129932445Y-112280500D01*
X129932441Y-112280505D01*
X129826006Y-112427002D01*
X129743788Y-112588360D01*
X129743787Y-112588363D01*
X129687829Y-112760589D01*
X129659500Y-112939448D01*
X129659500Y-113120551D01*
X129687829Y-113299410D01*
X129743787Y-113471636D01*
X129743788Y-113471639D01*
X129785570Y-113553639D01*
X129819422Y-113620077D01*
X129826006Y-113632997D01*
X129932441Y-113779494D01*
X129932445Y-113779499D01*
X130060500Y-113907554D01*
X130060505Y-113907558D01*
X130149803Y-113972436D01*
X130207006Y-114013996D01*
X130299056Y-114060898D01*
X130368360Y-114096211D01*
X130368363Y-114096212D01*
X130406177Y-114108498D01*
X130540591Y-114152171D01*
X130660038Y-114171089D01*
X130702279Y-114177780D01*
X130765414Y-114207709D01*
X130802345Y-114267021D01*
X130801347Y-114336883D01*
X130762737Y-114395116D01*
X130702279Y-114422726D01*
X130540706Y-114448317D01*
X130368555Y-114504251D01*
X130368547Y-114504254D01*
X130207269Y-114586432D01*
X130191466Y-114597912D01*
X130191466Y-114597913D01*
X130680591Y-115087037D01*
X130617007Y-115104075D01*
X130502993Y-115169901D01*
X130409901Y-115262993D01*
X130344075Y-115377007D01*
X130327037Y-115440590D01*
X129837913Y-114951466D01*
X129837912Y-114951466D01*
X129826432Y-114967269D01*
X129744254Y-115128547D01*
X129744251Y-115128555D01*
X129688317Y-115300706D01*
X129660000Y-115479493D01*
X129660000Y-115660506D01*
X129688317Y-115839293D01*
X129744251Y-116011444D01*
X129744252Y-116011447D01*
X129826431Y-116172730D01*
X129837913Y-116188532D01*
X129837913Y-116188533D01*
X130327037Y-115699409D01*
X130344075Y-115762993D01*
X130409901Y-115877007D01*
X130502993Y-115970099D01*
X130617007Y-116035925D01*
X130680590Y-116052962D01*
X130191466Y-116542085D01*
X130191466Y-116542086D01*
X130207267Y-116553566D01*
X130207275Y-116553571D01*
X130368552Y-116635747D01*
X130368555Y-116635748D01*
X130540706Y-116691682D01*
X130702279Y-116717273D01*
X130765413Y-116747202D01*
X130802345Y-116806513D01*
X130801347Y-116876376D01*
X130762738Y-116934609D01*
X130702280Y-116962219D01*
X130540589Y-116987829D01*
X130368363Y-117043787D01*
X130368360Y-117043788D01*
X130207002Y-117126006D01*
X130060505Y-117232441D01*
X130060500Y-117232445D01*
X129932445Y-117360500D01*
X129932441Y-117360505D01*
X129826006Y-117507002D01*
X129743788Y-117668360D01*
X129743787Y-117668363D01*
X129687829Y-117840589D01*
X129659500Y-118019448D01*
X129659500Y-118200551D01*
X129687829Y-118379410D01*
X129743787Y-118551636D01*
X129743788Y-118551639D01*
X129785196Y-118632904D01*
X129822526Y-118706169D01*
X129826006Y-118712997D01*
X129932441Y-118859494D01*
X129932445Y-118859499D01*
X130060500Y-118987554D01*
X130060505Y-118987558D01*
X130188287Y-119080396D01*
X130207006Y-119093996D01*
X130307691Y-119145298D01*
X130368360Y-119176211D01*
X130368363Y-119176212D01*
X130454476Y-119204191D01*
X130540591Y-119232171D01*
X130623429Y-119245291D01*
X130719449Y-119260500D01*
X130719454Y-119260500D01*
X130900551Y-119260500D01*
X130987259Y-119246765D01*
X131079409Y-119232171D01*
X131251639Y-119176211D01*
X131412994Y-119093996D01*
X131559501Y-118987553D01*
X131687553Y-118859501D01*
X131793996Y-118712994D01*
X131876211Y-118551639D01*
X131932171Y-118379409D01*
X131956511Y-118225734D01*
X131960500Y-118200551D01*
X131960500Y-118019448D01*
X131944019Y-117915397D01*
X131932171Y-117840591D01*
X131876211Y-117668361D01*
X131876211Y-117668360D01*
X131815532Y-117549273D01*
X131793996Y-117507006D01*
X131780396Y-117488287D01*
X131687558Y-117360505D01*
X131687554Y-117360500D01*
X131559499Y-117232445D01*
X131559494Y-117232441D01*
X131412997Y-117126006D01*
X131412996Y-117126005D01*
X131412994Y-117126004D01*
X131361300Y-117099664D01*
X131251639Y-117043788D01*
X131251636Y-117043787D01*
X131079410Y-116987828D01*
X130917720Y-116962219D01*
X130854585Y-116932289D01*
X130817654Y-116872978D01*
X130818652Y-116803115D01*
X130857262Y-116744883D01*
X130917721Y-116717273D01*
X131079292Y-116691683D01*
X131251444Y-116635748D01*
X131251452Y-116635745D01*
X131412730Y-116553568D01*
X131428532Y-116542085D01*
X131428533Y-116542085D01*
X130939410Y-116052962D01*
X131002993Y-116035925D01*
X131117007Y-115970099D01*
X131210099Y-115877007D01*
X131275925Y-115762993D01*
X131292962Y-115699409D01*
X131782085Y-116188532D01*
X131793568Y-116172730D01*
X131875745Y-116011452D01*
X131875748Y-116011444D01*
X131931682Y-115839293D01*
X131960000Y-115660506D01*
X131960000Y-115479493D01*
X131931682Y-115300706D01*
X131875748Y-115128555D01*
X131875747Y-115128552D01*
X131793571Y-114967275D01*
X131793566Y-114967267D01*
X131782085Y-114951466D01*
X131292962Y-115440589D01*
X131275925Y-115377007D01*
X131210099Y-115262993D01*
X131117007Y-115169901D01*
X131002993Y-115104075D01*
X130939409Y-115087037D01*
X131428533Y-114597913D01*
X131412730Y-114586431D01*
X131251447Y-114504252D01*
X131251444Y-114504251D01*
X131079293Y-114448317D01*
X130917720Y-114422726D01*
X130854585Y-114392797D01*
X130817654Y-114333485D01*
X130818652Y-114263623D01*
X130857262Y-114205390D01*
X130917720Y-114177780D01*
X130932270Y-114175475D01*
X131079409Y-114152171D01*
X131223284Y-114105423D01*
X131293123Y-114103429D01*
X131349281Y-114135674D01*
X134945181Y-117731574D01*
X134978666Y-117792897D01*
X134981500Y-117819255D01*
X134981500Y-118819273D01*
X134981500Y-118924727D01*
X134989569Y-118954841D01*
X135008793Y-119026589D01*
X135019938Y-119045892D01*
X135061520Y-119117913D01*
X135569519Y-119625912D01*
X135569520Y-119625913D01*
X135644087Y-119700480D01*
X135735413Y-119753207D01*
X135837273Y-119780500D01*
X135942726Y-119780500D01*
X136154380Y-119780500D01*
X136221419Y-119800185D01*
X136267174Y-119852989D01*
X136277494Y-119889712D01*
X136281094Y-119919685D01*
X136286122Y-119961561D01*
X136341639Y-120102343D01*
X136433077Y-120222922D01*
X136553656Y-120314360D01*
X136553657Y-120314360D01*
X136553658Y-120314361D01*
X136694436Y-120369877D01*
X136782898Y-120380500D01*
X136782903Y-120380500D01*
X137569097Y-120380500D01*
X137569102Y-120380500D01*
X137657564Y-120369877D01*
X137798342Y-120314361D01*
X137918922Y-120222922D01*
X138010361Y-120102342D01*
X138060646Y-119974826D01*
X138103551Y-119919685D01*
X138169459Y-119896492D01*
X138237443Y-119912612D01*
X138285920Y-119962929D01*
X138291348Y-119974814D01*
X138326652Y-120064339D01*
X138341639Y-120102343D01*
X138433077Y-120222922D01*
X138553656Y-120314360D01*
X138553657Y-120314360D01*
X138553658Y-120314361D01*
X138694436Y-120369877D01*
X138782898Y-120380500D01*
X139064741Y-120380500D01*
X139131780Y-120400185D01*
X139177535Y-120452989D01*
X139187479Y-120522147D01*
X139172129Y-120566499D01*
X139140423Y-120621415D01*
X139140423Y-120621416D01*
X139099500Y-120774143D01*
X139099500Y-120932257D01*
X139113112Y-120983055D01*
X139140423Y-121084983D01*
X139140424Y-121084986D01*
X139221838Y-121226000D01*
X139238311Y-121293901D01*
X139215458Y-121359927D01*
X139160537Y-121403118D01*
X139114451Y-121412000D01*
X127632000Y-121412000D01*
X127564961Y-121392315D01*
X127519206Y-121339511D01*
X127508000Y-121288000D01*
X127508000Y-102232000D01*
X127527685Y-102164961D01*
X127580489Y-102119206D01*
X127632000Y-102108000D01*
X177168000Y-102108000D01*
X177235039Y-102127685D01*
G37*
%TD.AperFunction*%
%TA.AperFunction,Conductor*%
G36*
X131349281Y-111595674D02*
G01*
X134628087Y-114874480D01*
X134719412Y-114927207D01*
X134821273Y-114954500D01*
X134926727Y-114954500D01*
X136154380Y-114954500D01*
X136221419Y-114974185D01*
X136267174Y-115026989D01*
X136277494Y-115063712D01*
X136282169Y-115102635D01*
X136286122Y-115135561D01*
X136341639Y-115276343D01*
X136433077Y-115396922D01*
X136553656Y-115488360D01*
X136553657Y-115488360D01*
X136553658Y-115488361D01*
X136694436Y-115543877D01*
X136782898Y-115554500D01*
X136782903Y-115554500D01*
X137569097Y-115554500D01*
X137569102Y-115554500D01*
X137657564Y-115543877D01*
X137798342Y-115488361D01*
X137918922Y-115396922D01*
X138010361Y-115276342D01*
X138060646Y-115148826D01*
X138103551Y-115093685D01*
X138169459Y-115070492D01*
X138237443Y-115086612D01*
X138285920Y-115136929D01*
X138291348Y-115148814D01*
X138306666Y-115187657D01*
X138341639Y-115276343D01*
X138433077Y-115396922D01*
X138553656Y-115488360D01*
X138553657Y-115488360D01*
X138553658Y-115488361D01*
X138694436Y-115543877D01*
X138782898Y-115554500D01*
X139195670Y-115554500D01*
X139262709Y-115574185D01*
X139308464Y-115626989D01*
X139318408Y-115696147D01*
X139303058Y-115740499D01*
X139242023Y-115846215D01*
X139242023Y-115846216D01*
X139201100Y-115998943D01*
X139201100Y-116157057D01*
X139219172Y-116224500D01*
X139242023Y-116309783D01*
X139242026Y-116309790D01*
X139321075Y-116446709D01*
X139321079Y-116446714D01*
X139321080Y-116446716D01*
X139432884Y-116558520D01*
X139432886Y-116558521D01*
X139432890Y-116558524D01*
X139541767Y-116621383D01*
X139569816Y-116637577D01*
X139722543Y-116678500D01*
X139722545Y-116678500D01*
X139880655Y-116678500D01*
X139880657Y-116678500D01*
X140033384Y-116637577D01*
X140170316Y-116558520D01*
X140170321Y-116558514D01*
X140176043Y-116554125D01*
X140241212Y-116528930D01*
X140251531Y-116528500D01*
X140777308Y-116528500D01*
X140777309Y-116528500D01*
X140867673Y-116504286D01*
X140891887Y-116497799D01*
X140994614Y-116438489D01*
X141292285Y-116140819D01*
X141353608Y-116107334D01*
X141379966Y-116104500D01*
X142048270Y-116104500D01*
X142078699Y-116101646D01*
X142078701Y-116101646D01*
X142169138Y-116070000D01*
X142206882Y-116056793D01*
X142316150Y-115976150D01*
X142373136Y-115898935D01*
X142394230Y-115870355D01*
X142449877Y-115828104D01*
X142519533Y-115822645D01*
X142581083Y-115855712D01*
X142593770Y-115870355D01*
X142671848Y-115976148D01*
X142671849Y-115976148D01*
X142671850Y-115976150D01*
X142781118Y-116056793D01*
X142818862Y-116070000D01*
X142909299Y-116101646D01*
X142939730Y-116104500D01*
X142939734Y-116104500D01*
X144348270Y-116104500D01*
X144378699Y-116101646D01*
X144378701Y-116101646D01*
X144469138Y-116070000D01*
X144506882Y-116056793D01*
X144532366Y-116037984D01*
X144597991Y-116014013D01*
X144666162Y-116029327D01*
X144693680Y-116050073D01*
X144788087Y-116144480D01*
X144879412Y-116197207D01*
X144981273Y-116224500D01*
X144981275Y-116224500D01*
X147880725Y-116224500D01*
X147880727Y-116224500D01*
X147982588Y-116197207D01*
X148073913Y-116144480D01*
X148297411Y-115920981D01*
X148297413Y-115920980D01*
X148371980Y-115846413D01*
X148424707Y-115755087D01*
X148434696Y-115717807D01*
X148452001Y-115653227D01*
X148452001Y-115604521D01*
X148453535Y-115594861D01*
X148464489Y-115571776D01*
X148471686Y-115547269D01*
X148479216Y-115540744D01*
X148483490Y-115531738D01*
X148505186Y-115518240D01*
X148524490Y-115501514D01*
X148530479Y-115498966D01*
X148661342Y-115447361D01*
X148781922Y-115355922D01*
X148873361Y-115235342D01*
X148928877Y-115094564D01*
X148936885Y-115027870D01*
X148964420Y-114963660D01*
X149022302Y-114924526D01*
X149092153Y-114922898D01*
X149151795Y-114959292D01*
X149182293Y-115022154D01*
X149183115Y-115027871D01*
X149188121Y-115069558D01*
X149188122Y-115069562D01*
X149188123Y-115069564D01*
X149211383Y-115128547D01*
X149243639Y-115210343D01*
X149335077Y-115330922D01*
X149455656Y-115422360D01*
X149455657Y-115422360D01*
X149455658Y-115422361D01*
X149596436Y-115477877D01*
X149684898Y-115488500D01*
X149684903Y-115488500D01*
X150471097Y-115488500D01*
X150471102Y-115488500D01*
X150559564Y-115477877D01*
X150700342Y-115422361D01*
X150820922Y-115330922D01*
X150912361Y-115210342D01*
X150962646Y-115082826D01*
X151005551Y-115027685D01*
X151071459Y-115004492D01*
X151139443Y-115020612D01*
X151187920Y-115070929D01*
X151193348Y-115082814D01*
X151220744Y-115152285D01*
X151243639Y-115210343D01*
X151335077Y-115330922D01*
X151455656Y-115422360D01*
X151455657Y-115422360D01*
X151455658Y-115422361D01*
X151596436Y-115477877D01*
X151684898Y-115488500D01*
X151684903Y-115488500D01*
X152471097Y-115488500D01*
X152471102Y-115488500D01*
X152559564Y-115477877D01*
X152700342Y-115422361D01*
X152820922Y-115330922D01*
X152912361Y-115210342D01*
X152967877Y-115069564D01*
X152976505Y-114997714D01*
X152977095Y-114996337D01*
X152976882Y-114994853D01*
X152990818Y-114964336D01*
X153004041Y-114933502D01*
X153005283Y-114932661D01*
X153005907Y-114931297D01*
X153034130Y-114913158D01*
X153061923Y-114894369D01*
X153063830Y-114894071D01*
X153064685Y-114893523D01*
X153099620Y-114888500D01*
X153120380Y-114888500D01*
X153187419Y-114908185D01*
X153233174Y-114960989D01*
X153243494Y-114997712D01*
X153247094Y-115027685D01*
X153252122Y-115069561D01*
X153252122Y-115069563D01*
X153252123Y-115069564D01*
X153269722Y-115114192D01*
X153307639Y-115210343D01*
X153399077Y-115330922D01*
X153519656Y-115422360D01*
X153519657Y-115422360D01*
X153519658Y-115422361D01*
X153660436Y-115477877D01*
X153748898Y-115488500D01*
X154102002Y-115488500D01*
X154169041Y-115508185D01*
X154189683Y-115524819D01*
X155382137Y-116717273D01*
X156411576Y-117746711D01*
X156445061Y-117808034D01*
X156440077Y-117877726D01*
X156398205Y-117933659D01*
X156332741Y-117958076D01*
X156323895Y-117958392D01*
X155110381Y-117958392D01*
X155008520Y-117985685D01*
X155008517Y-117985686D01*
X154962858Y-118012047D01*
X154962858Y-118012048D01*
X154932633Y-118029499D01*
X154917195Y-118038412D01*
X154917192Y-118038414D01*
X154612426Y-118343181D01*
X154551103Y-118376666D01*
X154524745Y-118379500D01*
X153748898Y-118379500D01*
X153712291Y-118383896D01*
X153660438Y-118390122D01*
X153519656Y-118445639D01*
X153399077Y-118537077D01*
X153307639Y-118657656D01*
X153252122Y-118798438D01*
X153249100Y-118823610D01*
X153243494Y-118870285D01*
X153242904Y-118871662D01*
X153243118Y-118873147D01*
X153229181Y-118903663D01*
X153215959Y-118934498D01*
X153214716Y-118935338D01*
X153214093Y-118936703D01*
X153185869Y-118954841D01*
X153158077Y-118973631D01*
X153156169Y-118973928D01*
X153155315Y-118974477D01*
X153120380Y-118979500D01*
X153099620Y-118979500D01*
X153032581Y-118959815D01*
X152986826Y-118907011D01*
X152976505Y-118870287D01*
X152967877Y-118798436D01*
X152912361Y-118657658D01*
X152912360Y-118657657D01*
X152912360Y-118657656D01*
X152820922Y-118537077D01*
X152700343Y-118445639D01*
X152559561Y-118390122D01*
X152507709Y-118383896D01*
X152471102Y-118379500D01*
X151684898Y-118379500D01*
X151648291Y-118383896D01*
X151596438Y-118390122D01*
X151455656Y-118445639D01*
X151335077Y-118537077D01*
X151243639Y-118657656D01*
X151221817Y-118712994D01*
X151193353Y-118785171D01*
X151150449Y-118840314D01*
X151084541Y-118863507D01*
X151016556Y-118847386D01*
X150968080Y-118797070D01*
X150962648Y-118785178D01*
X150912361Y-118657658D01*
X150912360Y-118657657D01*
X150912360Y-118657656D01*
X150820922Y-118537077D01*
X150700343Y-118445639D01*
X150559561Y-118390122D01*
X150507709Y-118383896D01*
X150471102Y-118379500D01*
X149684898Y-118379500D01*
X149648291Y-118383896D01*
X149596438Y-118390122D01*
X149455656Y-118445639D01*
X149335077Y-118537077D01*
X149243639Y-118657656D01*
X149188121Y-118798441D01*
X149183115Y-118840128D01*
X149155577Y-118904342D01*
X149097694Y-118943474D01*
X149027843Y-118945100D01*
X148968202Y-118908704D01*
X148937706Y-118845840D01*
X148936891Y-118840177D01*
X148928877Y-118773436D01*
X148873361Y-118632658D01*
X148873360Y-118632657D01*
X148873360Y-118632656D01*
X148781922Y-118512077D01*
X148661343Y-118420639D01*
X148556793Y-118379410D01*
X148520564Y-118365123D01*
X148520563Y-118365122D01*
X148520561Y-118365122D01*
X148474926Y-118359642D01*
X148432102Y-118354500D01*
X147670898Y-118354500D01*
X147631853Y-118359188D01*
X147582438Y-118365122D01*
X147441656Y-118420639D01*
X147321077Y-118512077D01*
X147229639Y-118632656D01*
X147174122Y-118773438D01*
X147168969Y-118816353D01*
X147163500Y-118861898D01*
X147163500Y-119898102D01*
X147166115Y-119919875D01*
X147174123Y-119986565D01*
X147210973Y-120080010D01*
X147213831Y-120111671D01*
X147218357Y-120143147D01*
X147216950Y-120146226D01*
X147217255Y-120149597D01*
X147202541Y-120177778D01*
X147189332Y-120206703D01*
X147186484Y-120208533D01*
X147184918Y-120211533D01*
X147157305Y-120227284D01*
X147130554Y-120244477D01*
X147126027Y-120245127D01*
X147124229Y-120246154D01*
X147095619Y-120249500D01*
X146931843Y-120249500D01*
X146864804Y-120229815D01*
X146819049Y-120177011D01*
X146809105Y-120107853D01*
X146816489Y-120080010D01*
X146853385Y-119986446D01*
X146864000Y-119898053D01*
X146864000Y-119630000D01*
X146100500Y-119630000D01*
X146033461Y-119610315D01*
X145987706Y-119557511D01*
X145976500Y-119506000D01*
X145976500Y-119380000D01*
X145850500Y-119380000D01*
X145783461Y-119360315D01*
X145737706Y-119307511D01*
X145726500Y-119256000D01*
X145726500Y-119130000D01*
X146226500Y-119130000D01*
X146864000Y-119130000D01*
X146864000Y-118861946D01*
X146853386Y-118773556D01*
X146797920Y-118632904D01*
X146706564Y-118512435D01*
X146586095Y-118421079D01*
X146445443Y-118365613D01*
X146357054Y-118355000D01*
X146226500Y-118355000D01*
X146226500Y-119130000D01*
X145726500Y-119130000D01*
X145726500Y-118355000D01*
X145595946Y-118355000D01*
X145507556Y-118365613D01*
X145366904Y-118421079D01*
X145246435Y-118512435D01*
X145155079Y-118632904D01*
X145099613Y-118773556D01*
X145089000Y-118861946D01*
X145089000Y-118910497D01*
X145069315Y-118977536D01*
X145016511Y-119023291D01*
X144947353Y-119033235D01*
X144926314Y-119028308D01*
X144914113Y-119024301D01*
X144883788Y-119006793D01*
X144781927Y-118979500D01*
X144777679Y-118979500D01*
X144763826Y-118974951D01*
X144744204Y-118961443D01*
X144722420Y-118951804D01*
X144715951Y-118941994D01*
X144706274Y-118935333D01*
X144697070Y-118913363D01*
X144683955Y-118893475D01*
X144683816Y-118881725D01*
X144679277Y-118870890D01*
X144683411Y-118847431D01*
X144683131Y-118823610D01*
X144691148Y-118803539D01*
X144691406Y-118802081D01*
X144691979Y-118801459D01*
X144692886Y-118799191D01*
X144696346Y-118792644D01*
X144735762Y-118680000D01*
X143768000Y-118680000D01*
X143700961Y-118660315D01*
X143655206Y-118607511D01*
X143644000Y-118556000D01*
X143644000Y-118430000D01*
X143518000Y-118430000D01*
X143450961Y-118410315D01*
X143405206Y-118357511D01*
X143394000Y-118306000D01*
X143394000Y-118180000D01*
X143894000Y-118180000D01*
X144735761Y-118180000D01*
X144696346Y-118067354D01*
X144615792Y-117958207D01*
X144506645Y-117877653D01*
X144378602Y-117832850D01*
X144348207Y-117830000D01*
X143894000Y-117830000D01*
X143894000Y-118180000D01*
X143394000Y-118180000D01*
X143394000Y-117830000D01*
X142939803Y-117830000D01*
X142909393Y-117832851D01*
X142781354Y-117877653D01*
X142672207Y-117958207D01*
X142594080Y-118064066D01*
X142538432Y-118106317D01*
X142468776Y-118111775D01*
X142407227Y-118078707D01*
X142394540Y-118064065D01*
X142316151Y-117957851D01*
X142268051Y-117922352D01*
X142206882Y-117877207D01*
X142206880Y-117877206D01*
X142078700Y-117832353D01*
X142048270Y-117829500D01*
X142048266Y-117829500D01*
X140639734Y-117829500D01*
X140639730Y-117829500D01*
X140609300Y-117832353D01*
X140609298Y-117832353D01*
X140481119Y-117877206D01*
X140481117Y-117877207D01*
X140371850Y-117957850D01*
X140356142Y-117979134D01*
X140300494Y-118021385D01*
X140256372Y-118029500D01*
X139465739Y-118029500D01*
X139465723Y-118029499D01*
X139458127Y-118029499D01*
X139352673Y-118029499D01*
X139284766Y-118047695D01*
X139250812Y-118056793D01*
X139198085Y-118087235D01*
X139159487Y-118109520D01*
X139091989Y-118177018D01*
X139091988Y-118177017D01*
X139091986Y-118177019D01*
X139091987Y-118177020D01*
X139084920Y-118184087D01*
X139084918Y-118184088D01*
X138925824Y-118343182D01*
X138864503Y-118376666D01*
X138838145Y-118379500D01*
X138782898Y-118379500D01*
X138746291Y-118383896D01*
X138694438Y-118390122D01*
X138553656Y-118445639D01*
X138433077Y-118537077D01*
X138341639Y-118657656D01*
X138319817Y-118712994D01*
X138291353Y-118785171D01*
X138248449Y-118840314D01*
X138182541Y-118863507D01*
X138114556Y-118847386D01*
X138066080Y-118797070D01*
X138060648Y-118785178D01*
X138010361Y-118657658D01*
X138010360Y-118657657D01*
X138010360Y-118657656D01*
X137918922Y-118537077D01*
X137798343Y-118445639D01*
X137657561Y-118390122D01*
X137605709Y-118383896D01*
X137569102Y-118379500D01*
X136782898Y-118379500D01*
X136746291Y-118383896D01*
X136694438Y-118390122D01*
X136553656Y-118445639D01*
X136433077Y-118537077D01*
X136341639Y-118657656D01*
X136286122Y-118798438D01*
X136283100Y-118823610D01*
X136277494Y-118870285D01*
X136276904Y-118871662D01*
X136277118Y-118873147D01*
X136263181Y-118903663D01*
X136249959Y-118934498D01*
X136248716Y-118935338D01*
X136248093Y-118936703D01*
X136219869Y-118954841D01*
X136192077Y-118973631D01*
X136190169Y-118973928D01*
X136189315Y-118974477D01*
X136154380Y-118979500D01*
X136107255Y-118979500D01*
X136040216Y-118959815D01*
X136019574Y-118943181D01*
X135818819Y-118742426D01*
X135785334Y-118681103D01*
X135782500Y-118654745D01*
X135782500Y-117549275D01*
X135782500Y-117549273D01*
X135755207Y-117447413D01*
X135702480Y-117356087D01*
X135627913Y-117281520D01*
X131915674Y-113569281D01*
X131882189Y-113507958D01*
X131885423Y-113443284D01*
X131932171Y-113299409D01*
X131941366Y-113241354D01*
X131960500Y-113120551D01*
X131960500Y-112939448D01*
X131933661Y-112770000D01*
X131932171Y-112760591D01*
X131892549Y-112638644D01*
X131876212Y-112588363D01*
X131876211Y-112588360D01*
X131831793Y-112501186D01*
X131793996Y-112427006D01*
X131785219Y-112414926D01*
X131698638Y-112295755D01*
X131698634Y-112295751D01*
X131687553Y-112280499D01*
X131559501Y-112152447D01*
X131544248Y-112141365D01*
X131544244Y-112141361D01*
X131412997Y-112046006D01*
X131412996Y-112046005D01*
X131412994Y-112046004D01*
X131361300Y-112019664D01*
X131251639Y-111963788D01*
X131251636Y-111963787D01*
X131079410Y-111907829D01*
X130919321Y-111882473D01*
X130856186Y-111852544D01*
X130819255Y-111793232D01*
X130820253Y-111723370D01*
X130858863Y-111665137D01*
X130919321Y-111637527D01*
X131079409Y-111612171D01*
X131130182Y-111595674D01*
X131223284Y-111565423D01*
X131293123Y-111563429D01*
X131349281Y-111595674D01*
G37*
%TD.AperFunction*%
%TA.AperFunction,Conductor*%
G36*
X153187419Y-105322185D02*
G01*
X153233174Y-105374989D01*
X153243494Y-105411712D01*
X153247094Y-105441685D01*
X153252122Y-105483561D01*
X153307639Y-105624343D01*
X153399077Y-105744922D01*
X153519656Y-105836360D01*
X153519657Y-105836360D01*
X153519658Y-105836361D01*
X153660436Y-105891877D01*
X153748898Y-105902500D01*
X154088745Y-105902500D01*
X154155784Y-105922185D01*
X154176426Y-105938819D01*
X156783086Y-108545479D01*
X156816571Y-108606802D01*
X156811587Y-108676494D01*
X156769715Y-108732427D01*
X156704251Y-108756844D01*
X156649916Y-108748515D01*
X156623564Y-108738123D01*
X156623563Y-108738122D01*
X156623561Y-108738122D01*
X156576131Y-108732427D01*
X156535102Y-108727500D01*
X155748898Y-108727500D01*
X155709853Y-108732188D01*
X155660438Y-108738122D01*
X155519656Y-108793639D01*
X155399077Y-108885077D01*
X155307639Y-109005656D01*
X155277665Y-109081663D01*
X155257353Y-109133171D01*
X155214449Y-109188314D01*
X155148541Y-109211507D01*
X155080556Y-109195386D01*
X155032080Y-109145070D01*
X155026648Y-109133178D01*
X154976361Y-109005658D01*
X154976360Y-109005657D01*
X154976360Y-109005656D01*
X154884922Y-108885077D01*
X154764343Y-108793639D01*
X154623561Y-108738122D01*
X154576131Y-108732427D01*
X154535102Y-108727500D01*
X153748898Y-108727500D01*
X153709853Y-108732188D01*
X153660438Y-108738122D01*
X153519656Y-108793639D01*
X153399077Y-108885077D01*
X153307639Y-109005656D01*
X153252122Y-109146438D01*
X153248219Y-109178943D01*
X153243494Y-109218285D01*
X153242904Y-109219662D01*
X153243118Y-109221147D01*
X153229181Y-109251663D01*
X153215959Y-109282498D01*
X153214716Y-109283338D01*
X153214093Y-109284703D01*
X153185869Y-109302841D01*
X153158077Y-109321631D01*
X153156169Y-109321928D01*
X153155315Y-109322477D01*
X153120380Y-109327500D01*
X153099620Y-109327500D01*
X153032581Y-109307815D01*
X152986826Y-109255011D01*
X152976505Y-109218287D01*
X152967877Y-109146436D01*
X152912361Y-109005658D01*
X152912360Y-109005657D01*
X152912360Y-109005656D01*
X152820922Y-108885077D01*
X152700343Y-108793639D01*
X152559561Y-108738122D01*
X152512131Y-108732427D01*
X152471102Y-108727500D01*
X151684898Y-108727500D01*
X151645853Y-108732188D01*
X151596438Y-108738122D01*
X151455656Y-108793639D01*
X151335077Y-108885077D01*
X151243639Y-109005656D01*
X151213665Y-109081663D01*
X151193353Y-109133171D01*
X151150449Y-109188314D01*
X151084541Y-109211507D01*
X151016556Y-109195386D01*
X150968080Y-109145070D01*
X150962648Y-109133178D01*
X150912361Y-109005658D01*
X150912360Y-109005657D01*
X150912360Y-109005656D01*
X150820922Y-108885077D01*
X150700343Y-108793639D01*
X150559561Y-108738122D01*
X150512131Y-108732427D01*
X150471102Y-108727500D01*
X149684898Y-108727500D01*
X149645853Y-108732188D01*
X149596438Y-108738122D01*
X149455656Y-108793639D01*
X149335077Y-108885077D01*
X149243639Y-109005656D01*
X149188121Y-109146441D01*
X149183115Y-109188128D01*
X149155577Y-109252342D01*
X149097694Y-109291474D01*
X149027843Y-109293100D01*
X148968202Y-109256704D01*
X148937706Y-109193840D01*
X148936891Y-109188177D01*
X148928877Y-109121436D01*
X148873361Y-108980658D01*
X148873360Y-108980657D01*
X148873360Y-108980656D01*
X148781922Y-108860077D01*
X148661343Y-108768639D01*
X148549835Y-108724666D01*
X148520564Y-108713123D01*
X148520563Y-108713122D01*
X148520561Y-108713122D01*
X148474926Y-108707642D01*
X148432102Y-108702500D01*
X147670898Y-108702500D01*
X147631853Y-108707188D01*
X147582438Y-108713122D01*
X147441656Y-108768639D01*
X147321077Y-108860077D01*
X147229639Y-108980656D01*
X147174122Y-109121438D01*
X147171120Y-109146441D01*
X147163500Y-109209898D01*
X147163500Y-110246102D01*
X147166115Y-110267875D01*
X147174122Y-110334561D01*
X147190941Y-110377210D01*
X147193799Y-110408881D01*
X147198324Y-110440347D01*
X147196917Y-110443426D01*
X147197222Y-110446797D01*
X147182508Y-110474978D01*
X147169299Y-110503903D01*
X147166451Y-110505733D01*
X147164885Y-110508733D01*
X147137272Y-110524484D01*
X147110521Y-110541677D01*
X147105994Y-110542327D01*
X147104196Y-110543354D01*
X147075586Y-110546700D01*
X146951876Y-110546700D01*
X146884837Y-110527015D01*
X146839082Y-110474211D01*
X146829138Y-110405053D01*
X146836522Y-110377210D01*
X146853385Y-110334446D01*
X146864000Y-110246053D01*
X146864000Y-109978000D01*
X146100500Y-109978000D01*
X146033461Y-109958315D01*
X145987706Y-109905511D01*
X145976500Y-109854000D01*
X145976500Y-109728000D01*
X145850500Y-109728000D01*
X145783461Y-109708315D01*
X145737706Y-109655511D01*
X145726500Y-109604000D01*
X145726500Y-109478000D01*
X146226500Y-109478000D01*
X146864000Y-109478000D01*
X146864000Y-109209946D01*
X146853386Y-109121556D01*
X146797920Y-108980904D01*
X146706564Y-108860435D01*
X146586095Y-108769079D01*
X146445443Y-108713613D01*
X146357054Y-108703000D01*
X146226500Y-108703000D01*
X146226500Y-109478000D01*
X145726500Y-109478000D01*
X145726500Y-108703000D01*
X145595946Y-108703000D01*
X145507556Y-108713613D01*
X145366904Y-108769079D01*
X145246435Y-108860435D01*
X145155079Y-108980904D01*
X145099613Y-109121556D01*
X145089000Y-109209946D01*
X145089000Y-109425245D01*
X145084194Y-109441608D01*
X145084412Y-109458663D01*
X145074554Y-109474438D01*
X145069315Y-109492284D01*
X145056427Y-109503450D01*
X145047389Y-109517917D01*
X145030566Y-109525859D01*
X145016511Y-109538039D01*
X144999629Y-109540466D01*
X144984207Y-109547748D01*
X144965764Y-109545335D01*
X144947353Y-109547983D01*
X144931465Y-109540849D01*
X144914928Y-109538686D01*
X144892624Y-109523409D01*
X144884996Y-109519984D01*
X144881016Y-109516623D01*
X144771913Y-109407520D01*
X144708384Y-109370841D01*
X144699948Y-109363717D01*
X144694394Y-109355312D01*
X144680180Y-109342609D01*
X144668077Y-109326209D01*
X144644107Y-109260579D01*
X144659425Y-109192409D01*
X144668080Y-109178942D01*
X144696346Y-109140643D01*
X144735762Y-109028000D01*
X143768000Y-109028000D01*
X143700961Y-109008315D01*
X143655206Y-108955511D01*
X143644000Y-108904000D01*
X143644000Y-108778000D01*
X143518000Y-108778000D01*
X143450961Y-108758315D01*
X143405206Y-108705511D01*
X143394000Y-108654000D01*
X143394000Y-108528000D01*
X143894000Y-108528000D01*
X144735761Y-108528000D01*
X144696346Y-108415354D01*
X144615792Y-108306207D01*
X144506645Y-108225653D01*
X144378602Y-108180850D01*
X144348207Y-108178000D01*
X143894000Y-108178000D01*
X143894000Y-108528000D01*
X143394000Y-108528000D01*
X143394000Y-108178000D01*
X142939803Y-108178000D01*
X142909393Y-108180851D01*
X142781354Y-108225653D01*
X142672207Y-108306207D01*
X142594080Y-108412066D01*
X142538432Y-108454317D01*
X142468776Y-108459775D01*
X142407227Y-108426707D01*
X142394540Y-108412065D01*
X142316151Y-108305851D01*
X142206882Y-108225207D01*
X142206880Y-108225206D01*
X142078700Y-108180353D01*
X142048270Y-108177500D01*
X142048266Y-108177500D01*
X140639734Y-108177500D01*
X140639730Y-108177500D01*
X140609300Y-108180353D01*
X140609298Y-108180353D01*
X140481119Y-108225206D01*
X140481117Y-108225207D01*
X140371850Y-108305850D01*
X140356142Y-108327134D01*
X140300494Y-108369385D01*
X140256372Y-108377500D01*
X139618139Y-108377500D01*
X139618123Y-108377499D01*
X139610527Y-108377499D01*
X139505073Y-108377499D01*
X139437166Y-108395695D01*
X139403212Y-108404793D01*
X139363090Y-108427958D01*
X139311887Y-108457520D01*
X139244389Y-108525018D01*
X139244388Y-108525017D01*
X139244386Y-108525019D01*
X139244387Y-108525020D01*
X139237320Y-108532087D01*
X139237318Y-108532088D01*
X139078224Y-108691182D01*
X139016903Y-108724666D01*
X138990545Y-108727500D01*
X138782898Y-108727500D01*
X138743853Y-108732188D01*
X138694438Y-108738122D01*
X138553656Y-108793639D01*
X138433077Y-108885077D01*
X138341639Y-109005656D01*
X138311665Y-109081663D01*
X138291353Y-109133171D01*
X138248449Y-109188314D01*
X138182541Y-109211507D01*
X138114556Y-109195386D01*
X138066080Y-109145070D01*
X138060648Y-109133178D01*
X138010361Y-109005658D01*
X138010360Y-109005657D01*
X138010360Y-109005656D01*
X137918922Y-108885077D01*
X137798343Y-108793639D01*
X137657561Y-108738122D01*
X137610131Y-108732427D01*
X137569102Y-108727500D01*
X136782898Y-108727500D01*
X136743853Y-108732188D01*
X136694438Y-108738122D01*
X136553656Y-108793639D01*
X136433077Y-108885077D01*
X136341639Y-109005656D01*
X136286122Y-109146438D01*
X136282219Y-109178943D01*
X136277494Y-109218285D01*
X136249959Y-109282498D01*
X136192077Y-109321631D01*
X136154380Y-109327500D01*
X132805254Y-109327500D01*
X132738215Y-109307815D01*
X132717573Y-109291181D01*
X131915674Y-108489281D01*
X131882189Y-108427958D01*
X131885423Y-108363284D01*
X131932171Y-108219409D01*
X131938809Y-108177500D01*
X131960500Y-108040551D01*
X131960500Y-107859448D01*
X131944019Y-107755397D01*
X131932171Y-107680591D01*
X131876211Y-107508361D01*
X131876211Y-107508360D01*
X131847740Y-107452484D01*
X131793996Y-107347006D01*
X131780396Y-107328287D01*
X131687558Y-107200505D01*
X131687554Y-107200500D01*
X131559499Y-107072445D01*
X131559494Y-107072441D01*
X131412997Y-106966006D01*
X131412996Y-106966005D01*
X131412994Y-106966004D01*
X131361300Y-106939664D01*
X131251639Y-106883788D01*
X131251636Y-106883787D01*
X131079410Y-106827829D01*
X130947728Y-106806972D01*
X130884594Y-106777042D01*
X130847663Y-106717731D01*
X130848661Y-106647868D01*
X130887271Y-106589636D01*
X130951235Y-106561522D01*
X130967120Y-106560499D01*
X131704864Y-106560499D01*
X131704879Y-106560497D01*
X131704882Y-106560497D01*
X131729987Y-106557586D01*
X131729988Y-106557585D01*
X131729991Y-106557585D01*
X131832765Y-106512206D01*
X131912206Y-106432765D01*
X131957585Y-106329991D01*
X131960500Y-106304865D01*
X131960500Y-105934500D01*
X131980185Y-105867461D01*
X132032989Y-105821706D01*
X132084500Y-105810500D01*
X135561725Y-105810500D01*
X135561727Y-105810500D01*
X135663588Y-105783207D01*
X135754913Y-105730480D01*
X136075263Y-105410129D01*
X136136584Y-105376646D01*
X136206275Y-105381630D01*
X136262209Y-105423501D01*
X136283275Y-105476078D01*
X136284173Y-105475852D01*
X136285862Y-105482534D01*
X136286056Y-105483018D01*
X136286120Y-105483556D01*
X136341639Y-105624343D01*
X136433077Y-105744922D01*
X136553656Y-105836360D01*
X136553657Y-105836360D01*
X136553658Y-105836361D01*
X136694436Y-105891877D01*
X136782898Y-105902500D01*
X136782903Y-105902500D01*
X137569097Y-105902500D01*
X137569102Y-105902500D01*
X137657564Y-105891877D01*
X137798342Y-105836361D01*
X137918922Y-105744922D01*
X138010361Y-105624342D01*
X138060646Y-105496826D01*
X138103551Y-105441685D01*
X138169459Y-105418492D01*
X138237443Y-105434612D01*
X138285920Y-105484929D01*
X138291348Y-105496814D01*
X138311268Y-105547326D01*
X138341639Y-105624343D01*
X138433077Y-105744922D01*
X138553656Y-105836360D01*
X138553657Y-105836360D01*
X138553658Y-105836361D01*
X138694436Y-105891877D01*
X138782898Y-105902500D01*
X139035412Y-105902500D01*
X139102451Y-105922185D01*
X139148206Y-105974989D01*
X139158150Y-106044147D01*
X139142801Y-106088495D01*
X139140423Y-106092616D01*
X139099500Y-106245343D01*
X139099500Y-106403457D01*
X139113401Y-106455334D01*
X139140423Y-106556183D01*
X139140426Y-106556190D01*
X139219475Y-106693109D01*
X139219479Y-106693114D01*
X139219480Y-106693116D01*
X139331284Y-106804920D01*
X139331286Y-106804921D01*
X139331290Y-106804924D01*
X139467887Y-106883787D01*
X139468216Y-106883977D01*
X139620943Y-106924900D01*
X139620945Y-106924900D01*
X139779055Y-106924900D01*
X139779057Y-106924900D01*
X139931784Y-106883977D01*
X140068716Y-106804920D01*
X140068721Y-106804914D01*
X140074443Y-106800525D01*
X140139612Y-106775330D01*
X140149931Y-106774900D01*
X140878908Y-106774900D01*
X140878909Y-106774900D01*
X140969273Y-106750686D01*
X140993487Y-106744199D01*
X141096214Y-106684889D01*
X141292284Y-106488819D01*
X141353607Y-106455334D01*
X141379965Y-106452500D01*
X142048270Y-106452500D01*
X142078699Y-106449646D01*
X142078701Y-106449646D01*
X142142790Y-106427219D01*
X142206882Y-106404793D01*
X142316150Y-106324150D01*
X142394230Y-106218355D01*
X142449877Y-106176104D01*
X142519533Y-106170645D01*
X142581083Y-106203712D01*
X142593770Y-106218355D01*
X142671848Y-106324148D01*
X142671849Y-106324148D01*
X142671850Y-106324150D01*
X142781118Y-106404793D01*
X142823845Y-106419744D01*
X142909299Y-106449646D01*
X142939730Y-106452500D01*
X142939734Y-106452500D01*
X144348270Y-106452500D01*
X144378699Y-106449646D01*
X144378701Y-106449646D01*
X144442790Y-106427219D01*
X144506882Y-106404793D01*
X144616150Y-106324150D01*
X144616151Y-106324147D01*
X144620051Y-106321270D01*
X144685680Y-106297299D01*
X144753850Y-106312614D01*
X144781366Y-106333359D01*
X145018319Y-106570312D01*
X145018320Y-106570313D01*
X145092887Y-106644880D01*
X145184213Y-106697607D01*
X145286073Y-106724900D01*
X145286075Y-106724900D01*
X147677525Y-106724900D01*
X147677527Y-106724900D01*
X147779388Y-106697607D01*
X147870713Y-106644880D01*
X148371980Y-106143613D01*
X148424707Y-106052288D01*
X148437828Y-106003317D01*
X148474189Y-105943662D01*
X148514134Y-105922243D01*
X148513168Y-105919793D01*
X148520561Y-105916877D01*
X148520564Y-105916877D01*
X148661342Y-105861361D01*
X148781922Y-105769922D01*
X148873361Y-105649342D01*
X148928877Y-105508564D01*
X148936885Y-105441870D01*
X148964420Y-105377660D01*
X149022302Y-105338526D01*
X149092153Y-105336898D01*
X149151795Y-105373292D01*
X149182293Y-105436154D01*
X149183115Y-105441871D01*
X149188121Y-105483558D01*
X149188122Y-105483562D01*
X149188123Y-105483564D01*
X149207757Y-105533353D01*
X149243639Y-105624343D01*
X149335077Y-105744922D01*
X149455656Y-105836360D01*
X149455657Y-105836360D01*
X149455658Y-105836361D01*
X149596436Y-105891877D01*
X149684898Y-105902500D01*
X149684903Y-105902500D01*
X150471097Y-105902500D01*
X150471102Y-105902500D01*
X150559564Y-105891877D01*
X150700342Y-105836361D01*
X150820922Y-105744922D01*
X150912361Y-105624342D01*
X150962646Y-105496826D01*
X151005551Y-105441685D01*
X151071459Y-105418492D01*
X151139443Y-105434612D01*
X151187920Y-105484929D01*
X151193348Y-105496814D01*
X151213268Y-105547326D01*
X151243639Y-105624343D01*
X151335077Y-105744922D01*
X151455656Y-105836360D01*
X151455657Y-105836360D01*
X151455658Y-105836361D01*
X151596436Y-105891877D01*
X151684898Y-105902500D01*
X151684903Y-105902500D01*
X152471097Y-105902500D01*
X152471102Y-105902500D01*
X152559564Y-105891877D01*
X152700342Y-105836361D01*
X152820922Y-105744922D01*
X152912361Y-105624342D01*
X152967877Y-105483564D01*
X152976505Y-105411714D01*
X152977095Y-105410337D01*
X152976882Y-105408853D01*
X152990818Y-105378336D01*
X153004041Y-105347502D01*
X153005283Y-105346661D01*
X153005907Y-105345297D01*
X153034130Y-105327158D01*
X153061923Y-105308369D01*
X153063830Y-105308071D01*
X153064685Y-105307523D01*
X153099620Y-105302500D01*
X153120380Y-105302500D01*
X153187419Y-105322185D01*
G37*
%TD.AperFunction*%
%TD*%
M02*
