%TF.GenerationSoftware,KiCad,Pcbnew,9.0.6-9.0.6~ubuntu24.04.1*%
%TF.CreationDate,2026-01-17T19:09:57-03:00*%
%TF.ProjectId,cotti_buttons,636f7474-695f-4627-9574-746f6e732e6b,0.0*%
%TF.SameCoordinates,Original*%
%TF.FileFunction,Copper,L2,Bot*%
%TF.FilePolarity,Positive*%
%FSLAX46Y46*%
G04 Gerber Fmt 4.6, Leading zero omitted, Abs format (unit mm)*
G04 Created by KiCad (PCBNEW 9.0.6-9.0.6~ubuntu24.04.1) date 2026-01-17 19:09:57*
%MOMM*%
%LPD*%
G01*
G04 APERTURE LIST*
%TA.AperFunction,ComponentPad*%
%ADD10C,2.000000*%
%TD*%
%TA.AperFunction,ComponentPad*%
%ADD11R,1.700000X1.700000*%
%TD*%
%TA.AperFunction,ComponentPad*%
%ADD12C,1.700000*%
%TD*%
%TA.AperFunction,ViaPad*%
%ADD13C,0.600000*%
%TD*%
%TA.AperFunction,Conductor*%
%ADD14C,0.300000*%
%TD*%
%TA.AperFunction,Conductor*%
%ADD15C,0.200000*%
%TD*%
G04 APERTURE END LIST*
D10*
%TO.P,SW1,1,1*%
%TO.N,GND*%
X159056000Y-105700000D03*
X165556000Y-105700000D03*
%TO.P,SW1,2,2*%
%TO.N,Net-(R5-Pad2)*%
X159056000Y-110200000D03*
X165556000Y-110200000D03*
%TD*%
%TO.P,SW3,1,1*%
%TO.N,GND*%
X159056000Y-113320000D03*
X165556000Y-113320000D03*
%TO.P,SW3,2,2*%
%TO.N,Net-(R10-Pad1)*%
X159056000Y-117820000D03*
X165556000Y-117820000D03*
%TD*%
%TO.P,SW2,1,1*%
%TO.N,GND*%
X168962000Y-105700000D03*
X175462000Y-105700000D03*
%TO.P,SW2,2,2*%
%TO.N,Net-(R7-Pad2)*%
X168962000Y-110200000D03*
X175462000Y-110200000D03*
%TD*%
D11*
%TO.P,J1,1,IO1*%
%TO.N,Net-(J1-IO1)*%
X130810000Y-105410000D03*
D12*
%TO.P,J1,2,IO2/PWM*%
%TO.N,Net-(J1-IO2{slash}PWM)*%
X130810000Y-107950000D03*
%TO.P,J1,3,IO3*%
%TO.N,Net-(J1-IO3)*%
X130810000Y-110490000D03*
%TO.P,J1,4,IO4*%
%TO.N,Net-(J1-IO4)*%
X130810000Y-113030000D03*
%TO.P,J1,5,GND*%
%TO.N,GND*%
X130810000Y-115570000D03*
%TO.P,J1,6,VCC*%
%TO.N,VCC*%
X130810000Y-118110000D03*
%TD*%
D10*
%TO.P,SW4,1,1*%
%TO.N,GND*%
X168962000Y-113320000D03*
X175462000Y-113320000D03*
%TO.P,SW4,2,2*%
%TO.N,Net-(R11-Pad2)*%
X168962000Y-117820000D03*
X175462000Y-117820000D03*
%TD*%
D13*
%TO.N,GND*%
X145796000Y-103530400D03*
X145745200Y-118008400D03*
X145745200Y-113080800D03*
X145796000Y-108356400D03*
%TO.N,VCC*%
X156159200Y-111302800D03*
X156108400Y-120904000D03*
X139700000Y-106324400D03*
X139801600Y-116078000D03*
X139649200Y-111252000D03*
X156159200Y-116078000D03*
X156159200Y-106324400D03*
X139700000Y-120853200D03*
%TD*%
D14*
%TO.N,VCC*%
X156108400Y-111252000D02*
X156159200Y-111302800D01*
X132842000Y-116078000D02*
X139801600Y-116078000D01*
X130810000Y-120396000D02*
X131267200Y-120853200D01*
X130810000Y-118110000D02*
X137668000Y-111252000D01*
X139801600Y-116078000D02*
X156159200Y-116078000D01*
X139700000Y-120853200D02*
X156057600Y-120853200D01*
X137668000Y-111252000D02*
X139649200Y-111252000D01*
X139700000Y-106324400D02*
X156159200Y-106324400D01*
X131267200Y-120853200D02*
X139700000Y-120853200D01*
X135839200Y-113080800D02*
X137668000Y-111252000D01*
X139649200Y-111252000D02*
X156108400Y-111252000D01*
X137668000Y-111252000D02*
X137668000Y-106680000D01*
X137668000Y-106680000D02*
X138049000Y-106299000D01*
D15*
X130810000Y-118110000D02*
X135839200Y-113080800D01*
X130810000Y-118110000D02*
X132842000Y-116078000D01*
D14*
X139674600Y-106299000D02*
X139700000Y-106324400D01*
X138049000Y-106299000D02*
X139674600Y-106299000D01*
X156057600Y-120853200D02*
X156108400Y-120904000D01*
X130810000Y-118110000D02*
X130810000Y-120396000D01*
D15*
%TO.N,Net-(R5-Pad2)*%
X165504000Y-110200000D02*
X159004000Y-110200000D01*
%TO.N,Net-(R7-Pad2)*%
X175410000Y-110200000D02*
X168910000Y-110200000D01*
%TO.N,Net-(R10-Pad1)*%
X165504000Y-117820000D02*
X159004000Y-117820000D01*
%TO.N,Net-(R11-Pad2)*%
X175410000Y-117820000D02*
X168910000Y-117820000D01*
%TD*%
%TA.AperFunction,Conductor*%
%TO.N,GND*%
G36*
X177235039Y-102127685D02*
G01*
X177280794Y-102180489D01*
X177292000Y-102232000D01*
X177292000Y-121288000D01*
X177272315Y-121355039D01*
X177219511Y-121400794D01*
X177168000Y-121412000D01*
X156723278Y-121412000D01*
X156656239Y-121392315D01*
X156610484Y-121339511D01*
X156600540Y-121270353D01*
X156615891Y-121226000D01*
X156630718Y-121200319D01*
X156667977Y-121135784D01*
X156708900Y-120983057D01*
X156708900Y-120824943D01*
X156667977Y-120672216D01*
X156667973Y-120672209D01*
X156588924Y-120535290D01*
X156588918Y-120535282D01*
X156477117Y-120423481D01*
X156477109Y-120423475D01*
X156340190Y-120344426D01*
X156340186Y-120344424D01*
X156340184Y-120344423D01*
X156187457Y-120303500D01*
X156029343Y-120303500D01*
X155876616Y-120344423D01*
X155876613Y-120344424D01*
X155838583Y-120366381D01*
X155804449Y-120386087D01*
X155742452Y-120402700D01*
X140149931Y-120402700D01*
X140082892Y-120383015D01*
X140074443Y-120377075D01*
X140068709Y-120372675D01*
X139931790Y-120293626D01*
X139931786Y-120293624D01*
X139931784Y-120293623D01*
X139779057Y-120252700D01*
X139620943Y-120252700D01*
X139468216Y-120293623D01*
X139468209Y-120293626D01*
X139331290Y-120372675D01*
X139325557Y-120377075D01*
X139260388Y-120402270D01*
X139250069Y-120402700D01*
X131505165Y-120402700D01*
X131475724Y-120394055D01*
X131445738Y-120387532D01*
X131440722Y-120383777D01*
X131438126Y-120383015D01*
X131417484Y-120366381D01*
X131296819Y-120245716D01*
X131263334Y-120184393D01*
X131260500Y-120158035D01*
X131260500Y-119247683D01*
X131280185Y-119180644D01*
X131328204Y-119137198D01*
X131412994Y-119093996D01*
X131559501Y-118987553D01*
X131687553Y-118859501D01*
X131793996Y-118712994D01*
X131876211Y-118551639D01*
X131932171Y-118379409D01*
X131957340Y-118220500D01*
X131960500Y-118200551D01*
X131960500Y-118019448D01*
X131932170Y-117840587D01*
X131903093Y-117751093D01*
X131903093Y-117751092D01*
X131902782Y-117750137D01*
X131901840Y-117717648D01*
X157755500Y-117717648D01*
X157755500Y-117922351D01*
X157787522Y-118124534D01*
X157850781Y-118319223D01*
X157943715Y-118501613D01*
X158064028Y-118667213D01*
X158208786Y-118811971D01*
X158363749Y-118924556D01*
X158374390Y-118932287D01*
X158482865Y-118987558D01*
X158556776Y-119025218D01*
X158556778Y-119025218D01*
X158556781Y-119025220D01*
X158661137Y-119059127D01*
X158751465Y-119088477D01*
X158852557Y-119104488D01*
X158953648Y-119120500D01*
X158953649Y-119120500D01*
X159158351Y-119120500D01*
X159158352Y-119120500D01*
X159360534Y-119088477D01*
X159555219Y-119025220D01*
X159737610Y-118932287D01*
X159837802Y-118859494D01*
X159903213Y-118811971D01*
X159903215Y-118811968D01*
X159903219Y-118811966D01*
X160047966Y-118667219D01*
X160047968Y-118667215D01*
X160047971Y-118667213D01*
X160131941Y-118551636D01*
X160168287Y-118501610D01*
X160261220Y-118319219D01*
X160265457Y-118306180D01*
X160304895Y-118248505D01*
X160369254Y-118221308D01*
X160383387Y-118220500D01*
X164228613Y-118220500D01*
X164295652Y-118240185D01*
X164341407Y-118292989D01*
X164346543Y-118306180D01*
X164350779Y-118319219D01*
X164443715Y-118501613D01*
X164564028Y-118667213D01*
X164708786Y-118811971D01*
X164863749Y-118924556D01*
X164874390Y-118932287D01*
X164982865Y-118987558D01*
X165056776Y-119025218D01*
X165056778Y-119025218D01*
X165056781Y-119025220D01*
X165161137Y-119059127D01*
X165251465Y-119088477D01*
X165352557Y-119104488D01*
X165453648Y-119120500D01*
X165453649Y-119120500D01*
X165658351Y-119120500D01*
X165658352Y-119120500D01*
X165860534Y-119088477D01*
X166055219Y-119025220D01*
X166237610Y-118932287D01*
X166337802Y-118859494D01*
X166403213Y-118811971D01*
X166403215Y-118811968D01*
X166403219Y-118811966D01*
X166547966Y-118667219D01*
X166547968Y-118667215D01*
X166547971Y-118667213D01*
X166631941Y-118551636D01*
X166668287Y-118501610D01*
X166761220Y-118319219D01*
X166824477Y-118124534D01*
X166856500Y-117922352D01*
X166856500Y-117717648D01*
X167661500Y-117717648D01*
X167661500Y-117922351D01*
X167693522Y-118124534D01*
X167756781Y-118319223D01*
X167849715Y-118501613D01*
X167970028Y-118667213D01*
X168114786Y-118811971D01*
X168269749Y-118924556D01*
X168280390Y-118932287D01*
X168388865Y-118987558D01*
X168462776Y-119025218D01*
X168462778Y-119025218D01*
X168462781Y-119025220D01*
X168567137Y-119059127D01*
X168657465Y-119088477D01*
X168758557Y-119104488D01*
X168859648Y-119120500D01*
X168859649Y-119120500D01*
X169064351Y-119120500D01*
X169064352Y-119120500D01*
X169266534Y-119088477D01*
X169461219Y-119025220D01*
X169643610Y-118932287D01*
X169743802Y-118859494D01*
X169809213Y-118811971D01*
X169809215Y-118811968D01*
X169809219Y-118811966D01*
X169953966Y-118667219D01*
X169953968Y-118667215D01*
X169953971Y-118667213D01*
X170037941Y-118551636D01*
X170074287Y-118501610D01*
X170167220Y-118319219D01*
X170171457Y-118306180D01*
X170210895Y-118248505D01*
X170275254Y-118221308D01*
X170289387Y-118220500D01*
X174134613Y-118220500D01*
X174201652Y-118240185D01*
X174247407Y-118292989D01*
X174252543Y-118306180D01*
X174256779Y-118319219D01*
X174349715Y-118501613D01*
X174470028Y-118667213D01*
X174614786Y-118811971D01*
X174769749Y-118924556D01*
X174780390Y-118932287D01*
X174888865Y-118987558D01*
X174962776Y-119025218D01*
X174962778Y-119025218D01*
X174962781Y-119025220D01*
X175067137Y-119059127D01*
X175157465Y-119088477D01*
X175258557Y-119104488D01*
X175359648Y-119120500D01*
X175359649Y-119120500D01*
X175564351Y-119120500D01*
X175564352Y-119120500D01*
X175766534Y-119088477D01*
X175961219Y-119025220D01*
X176143610Y-118932287D01*
X176243802Y-118859494D01*
X176309213Y-118811971D01*
X176309215Y-118811968D01*
X176309219Y-118811966D01*
X176453966Y-118667219D01*
X176453968Y-118667215D01*
X176453971Y-118667213D01*
X176537941Y-118551636D01*
X176574287Y-118501610D01*
X176667220Y-118319219D01*
X176730477Y-118124534D01*
X176762500Y-117922352D01*
X176762500Y-117717648D01*
X176730477Y-117515466D01*
X176667220Y-117320781D01*
X176667218Y-117320778D01*
X176667218Y-117320776D01*
X176633503Y-117254607D01*
X176574287Y-117138390D01*
X176565288Y-117126004D01*
X176453971Y-116972786D01*
X176309213Y-116828028D01*
X176143613Y-116707715D01*
X176143612Y-116707714D01*
X176143610Y-116707713D01*
X176086274Y-116678499D01*
X175961223Y-116614781D01*
X175766534Y-116551522D01*
X175591995Y-116523878D01*
X175564352Y-116519500D01*
X175359648Y-116519500D01*
X175335329Y-116523351D01*
X175157465Y-116551522D01*
X174962776Y-116614781D01*
X174780386Y-116707715D01*
X174614786Y-116828028D01*
X174470028Y-116972786D01*
X174349715Y-117138386D01*
X174256779Y-117320780D01*
X174252543Y-117333820D01*
X174213105Y-117391495D01*
X174148746Y-117418692D01*
X174134613Y-117419500D01*
X170289387Y-117419500D01*
X170222348Y-117399815D01*
X170176593Y-117347011D01*
X170171457Y-117333820D01*
X170167220Y-117320780D01*
X170135037Y-117257620D01*
X170074287Y-117138390D01*
X170065288Y-117126004D01*
X169953971Y-116972786D01*
X169809213Y-116828028D01*
X169643613Y-116707715D01*
X169643612Y-116707714D01*
X169643610Y-116707713D01*
X169586274Y-116678499D01*
X169461223Y-116614781D01*
X169266534Y-116551522D01*
X169091995Y-116523878D01*
X169064352Y-116519500D01*
X168859648Y-116519500D01*
X168835329Y-116523351D01*
X168657465Y-116551522D01*
X168462776Y-116614781D01*
X168280386Y-116707715D01*
X168114786Y-116828028D01*
X167970028Y-116972786D01*
X167849715Y-117138386D01*
X167756781Y-117320776D01*
X167693522Y-117515465D01*
X167661500Y-117717648D01*
X166856500Y-117717648D01*
X166824477Y-117515466D01*
X166761220Y-117320781D01*
X166761218Y-117320778D01*
X166761218Y-117320776D01*
X166727503Y-117254607D01*
X166668287Y-117138390D01*
X166659288Y-117126004D01*
X166547971Y-116972786D01*
X166403213Y-116828028D01*
X166237613Y-116707715D01*
X166237612Y-116707714D01*
X166237610Y-116707713D01*
X166180274Y-116678499D01*
X166055223Y-116614781D01*
X165860534Y-116551522D01*
X165685995Y-116523878D01*
X165658352Y-116519500D01*
X165453648Y-116519500D01*
X165429329Y-116523351D01*
X165251465Y-116551522D01*
X165056776Y-116614781D01*
X164874386Y-116707715D01*
X164708786Y-116828028D01*
X164564028Y-116972786D01*
X164443715Y-117138386D01*
X164350779Y-117320780D01*
X164346543Y-117333820D01*
X164307105Y-117391495D01*
X164242746Y-117418692D01*
X164228613Y-117419500D01*
X160383387Y-117419500D01*
X160316348Y-117399815D01*
X160270593Y-117347011D01*
X160265457Y-117333820D01*
X160261220Y-117320780D01*
X160229037Y-117257620D01*
X160168287Y-117138390D01*
X160159288Y-117126004D01*
X160047971Y-116972786D01*
X159903213Y-116828028D01*
X159737613Y-116707715D01*
X159737612Y-116707714D01*
X159737610Y-116707713D01*
X159680274Y-116678499D01*
X159555223Y-116614781D01*
X159360534Y-116551522D01*
X159185995Y-116523878D01*
X159158352Y-116519500D01*
X158953648Y-116519500D01*
X158929329Y-116523351D01*
X158751465Y-116551522D01*
X158556776Y-116614781D01*
X158374386Y-116707715D01*
X158208786Y-116828028D01*
X158064028Y-116972786D01*
X157943715Y-117138386D01*
X157850781Y-117320776D01*
X157787522Y-117515465D01*
X157755500Y-117717648D01*
X131901840Y-117717648D01*
X131900756Y-117680297D01*
X131933013Y-117624089D01*
X132992284Y-116564819D01*
X133053607Y-116531334D01*
X133079965Y-116528500D01*
X139351669Y-116528500D01*
X139418708Y-116548185D01*
X139427157Y-116554125D01*
X139432881Y-116558517D01*
X139432884Y-116558520D01*
X139432887Y-116558521D01*
X139432890Y-116558524D01*
X139566643Y-116635745D01*
X139569816Y-116637577D01*
X139722543Y-116678500D01*
X139722545Y-116678500D01*
X139880655Y-116678500D01*
X139880657Y-116678500D01*
X140033384Y-116637577D01*
X140170316Y-116558520D01*
X140170321Y-116558514D01*
X140176043Y-116554125D01*
X140241212Y-116528930D01*
X140251531Y-116528500D01*
X155709269Y-116528500D01*
X155776308Y-116548185D01*
X155784757Y-116554125D01*
X155790481Y-116558517D01*
X155790484Y-116558520D01*
X155790487Y-116558521D01*
X155790490Y-116558524D01*
X155924243Y-116635745D01*
X155927416Y-116637577D01*
X156080143Y-116678500D01*
X156080145Y-116678500D01*
X156238255Y-116678500D01*
X156238257Y-116678500D01*
X156390984Y-116637577D01*
X156527916Y-116558520D01*
X156639720Y-116446716D01*
X156718777Y-116309784D01*
X156759700Y-116157057D01*
X156759700Y-115998943D01*
X156718777Y-115846216D01*
X156670729Y-115762993D01*
X156639724Y-115709290D01*
X156639718Y-115709282D01*
X156527917Y-115597481D01*
X156527909Y-115597475D01*
X156390990Y-115518426D01*
X156390986Y-115518424D01*
X156390984Y-115518423D01*
X156238257Y-115477500D01*
X156080143Y-115477500D01*
X155927416Y-115518423D01*
X155927409Y-115518426D01*
X155790490Y-115597475D01*
X155784757Y-115601875D01*
X155719588Y-115627070D01*
X155709269Y-115627500D01*
X140251531Y-115627500D01*
X140184492Y-115607815D01*
X140176043Y-115601875D01*
X140170309Y-115597475D01*
X140033390Y-115518426D01*
X140033386Y-115518424D01*
X140033384Y-115518423D01*
X139880657Y-115477500D01*
X139722543Y-115477500D01*
X139569816Y-115518423D01*
X139569809Y-115518426D01*
X139432890Y-115597475D01*
X139427157Y-115601875D01*
X139361988Y-115627070D01*
X139351669Y-115627500D01*
X134228965Y-115627500D01*
X134161926Y-115607815D01*
X134116171Y-115555011D01*
X134106227Y-115485853D01*
X134135252Y-115422297D01*
X134141284Y-115415819D01*
X135292570Y-114264534D01*
X136339422Y-113217682D01*
X157756000Y-113217682D01*
X157756000Y-113422317D01*
X157788009Y-113624417D01*
X157851244Y-113819031D01*
X157944141Y-114001350D01*
X157944147Y-114001359D01*
X157976523Y-114045921D01*
X157976524Y-114045922D01*
X158532212Y-113490234D01*
X158543482Y-113532292D01*
X158615890Y-113657708D01*
X158718292Y-113760110D01*
X158843708Y-113832518D01*
X158885765Y-113843787D01*
X158330076Y-114399474D01*
X158374650Y-114431859D01*
X158556968Y-114524755D01*
X158751582Y-114587990D01*
X158953683Y-114620000D01*
X159158317Y-114620000D01*
X159360417Y-114587990D01*
X159555031Y-114524755D01*
X159737349Y-114431859D01*
X159781921Y-114399474D01*
X159226234Y-113843787D01*
X159268292Y-113832518D01*
X159393708Y-113760110D01*
X159496110Y-113657708D01*
X159568518Y-113532292D01*
X159579787Y-113490234D01*
X160135474Y-114045921D01*
X160167859Y-114001349D01*
X160260755Y-113819031D01*
X160323990Y-113624417D01*
X160356000Y-113422317D01*
X160356000Y-113217682D01*
X164256000Y-113217682D01*
X164256000Y-113422317D01*
X164288009Y-113624417D01*
X164351244Y-113819031D01*
X164444141Y-114001350D01*
X164444147Y-114001359D01*
X164476523Y-114045921D01*
X164476524Y-114045922D01*
X165032212Y-113490234D01*
X165043482Y-113532292D01*
X165115890Y-113657708D01*
X165218292Y-113760110D01*
X165343708Y-113832518D01*
X165385765Y-113843787D01*
X164830076Y-114399474D01*
X164874650Y-114431859D01*
X165056968Y-114524755D01*
X165251582Y-114587990D01*
X165453683Y-114620000D01*
X165658317Y-114620000D01*
X165860417Y-114587990D01*
X166055031Y-114524755D01*
X166237349Y-114431859D01*
X166281922Y-114399474D01*
X165726234Y-113843787D01*
X165768292Y-113832518D01*
X165893708Y-113760110D01*
X165996110Y-113657708D01*
X166068518Y-113532292D01*
X166079787Y-113490234D01*
X166635474Y-114045921D01*
X166667859Y-114001349D01*
X166760755Y-113819031D01*
X166823990Y-113624417D01*
X166856000Y-113422317D01*
X166856000Y-113217682D01*
X167662000Y-113217682D01*
X167662000Y-113422317D01*
X167694009Y-113624417D01*
X167757244Y-113819031D01*
X167850141Y-114001350D01*
X167850147Y-114001359D01*
X167882523Y-114045921D01*
X167882524Y-114045922D01*
X168438212Y-113490234D01*
X168449482Y-113532292D01*
X168521890Y-113657708D01*
X168624292Y-113760110D01*
X168749708Y-113832518D01*
X168791765Y-113843787D01*
X168236076Y-114399474D01*
X168280650Y-114431859D01*
X168462968Y-114524755D01*
X168657582Y-114587990D01*
X168859683Y-114620000D01*
X169064317Y-114620000D01*
X169266417Y-114587990D01*
X169461031Y-114524755D01*
X169643349Y-114431859D01*
X169687922Y-114399474D01*
X169132234Y-113843787D01*
X169174292Y-113832518D01*
X169299708Y-113760110D01*
X169402110Y-113657708D01*
X169474518Y-113532292D01*
X169485787Y-113490235D01*
X170041474Y-114045922D01*
X170041474Y-114045921D01*
X170073859Y-114001349D01*
X170166755Y-113819031D01*
X170229990Y-113624417D01*
X170262000Y-113422317D01*
X170262000Y-113217682D01*
X174162000Y-113217682D01*
X174162000Y-113422317D01*
X174194009Y-113624417D01*
X174257244Y-113819031D01*
X174350141Y-114001350D01*
X174350147Y-114001359D01*
X174382523Y-114045921D01*
X174382524Y-114045922D01*
X174938212Y-113490234D01*
X174949482Y-113532292D01*
X175021890Y-113657708D01*
X175124292Y-113760110D01*
X175249708Y-113832518D01*
X175291765Y-113843787D01*
X174736076Y-114399474D01*
X174780650Y-114431859D01*
X174962968Y-114524755D01*
X175157582Y-114587990D01*
X175359683Y-114620000D01*
X175564317Y-114620000D01*
X175766417Y-114587990D01*
X175961031Y-114524755D01*
X176143349Y-114431859D01*
X176187921Y-114399474D01*
X175632234Y-113843787D01*
X175674292Y-113832518D01*
X175799708Y-113760110D01*
X175902110Y-113657708D01*
X175974518Y-113532292D01*
X175985787Y-113490235D01*
X176541474Y-114045922D01*
X176541474Y-114045921D01*
X176573859Y-114001349D01*
X176666755Y-113819031D01*
X176729990Y-113624417D01*
X176762000Y-113422317D01*
X176762000Y-113217682D01*
X176729990Y-113015582D01*
X176666755Y-112820968D01*
X176573859Y-112638650D01*
X176541474Y-112594077D01*
X176541474Y-112594076D01*
X175985787Y-113149764D01*
X175974518Y-113107708D01*
X175902110Y-112982292D01*
X175799708Y-112879890D01*
X175674292Y-112807482D01*
X175632233Y-112796212D01*
X176187922Y-112240524D01*
X176187921Y-112240523D01*
X176143359Y-112208147D01*
X176143350Y-112208141D01*
X175961031Y-112115244D01*
X175766417Y-112052009D01*
X175564317Y-112020000D01*
X175359683Y-112020000D01*
X175157582Y-112052009D01*
X174962968Y-112115244D01*
X174780644Y-112208143D01*
X174736077Y-112240523D01*
X174736077Y-112240524D01*
X175291766Y-112796212D01*
X175249708Y-112807482D01*
X175124292Y-112879890D01*
X175021890Y-112982292D01*
X174949482Y-113107708D01*
X174938212Y-113149765D01*
X174382524Y-112594077D01*
X174382523Y-112594077D01*
X174350143Y-112638644D01*
X174257244Y-112820968D01*
X174194009Y-113015582D01*
X174162000Y-113217682D01*
X170262000Y-113217682D01*
X170229990Y-113015582D01*
X170166755Y-112820968D01*
X170073859Y-112638650D01*
X170041474Y-112594077D01*
X170041474Y-112594076D01*
X169485787Y-113149764D01*
X169474518Y-113107708D01*
X169402110Y-112982292D01*
X169299708Y-112879890D01*
X169174292Y-112807482D01*
X169132233Y-112796212D01*
X169687922Y-112240524D01*
X169687921Y-112240523D01*
X169643359Y-112208147D01*
X169643350Y-112208141D01*
X169461031Y-112115244D01*
X169266417Y-112052009D01*
X169064317Y-112020000D01*
X168859683Y-112020000D01*
X168657582Y-112052009D01*
X168462968Y-112115244D01*
X168280644Y-112208143D01*
X168236077Y-112240523D01*
X168236077Y-112240524D01*
X168791766Y-112796212D01*
X168749708Y-112807482D01*
X168624292Y-112879890D01*
X168521890Y-112982292D01*
X168449482Y-113107708D01*
X168438212Y-113149765D01*
X167882524Y-112594077D01*
X167882523Y-112594077D01*
X167850143Y-112638644D01*
X167757244Y-112820968D01*
X167694009Y-113015582D01*
X167662000Y-113217682D01*
X166856000Y-113217682D01*
X166823990Y-113015582D01*
X166760755Y-112820968D01*
X166667859Y-112638650D01*
X166635474Y-112594077D01*
X166635474Y-112594076D01*
X166079787Y-113149764D01*
X166068518Y-113107708D01*
X165996110Y-112982292D01*
X165893708Y-112879890D01*
X165768292Y-112807482D01*
X165726233Y-112796212D01*
X166281922Y-112240524D01*
X166281921Y-112240523D01*
X166237359Y-112208147D01*
X166237350Y-112208141D01*
X166055031Y-112115244D01*
X165860417Y-112052009D01*
X165658317Y-112020000D01*
X165453683Y-112020000D01*
X165251582Y-112052009D01*
X165056968Y-112115244D01*
X164874644Y-112208143D01*
X164830077Y-112240523D01*
X164830077Y-112240524D01*
X165385766Y-112796212D01*
X165343708Y-112807482D01*
X165218292Y-112879890D01*
X165115890Y-112982292D01*
X165043482Y-113107708D01*
X165032212Y-113149765D01*
X164476524Y-112594077D01*
X164476523Y-112594077D01*
X164444143Y-112638644D01*
X164351244Y-112820968D01*
X164288009Y-113015582D01*
X164256000Y-113217682D01*
X160356000Y-113217682D01*
X160323990Y-113015582D01*
X160260755Y-112820968D01*
X160167859Y-112638650D01*
X160135474Y-112594077D01*
X160135474Y-112594076D01*
X159579787Y-113149764D01*
X159568518Y-113107708D01*
X159496110Y-112982292D01*
X159393708Y-112879890D01*
X159268292Y-112807482D01*
X159226233Y-112796212D01*
X159781922Y-112240524D01*
X159781921Y-112240523D01*
X159737359Y-112208147D01*
X159737350Y-112208141D01*
X159555031Y-112115244D01*
X159360417Y-112052009D01*
X159158317Y-112020000D01*
X158953683Y-112020000D01*
X158751582Y-112052009D01*
X158556968Y-112115244D01*
X158374644Y-112208143D01*
X158330077Y-112240523D01*
X158330077Y-112240524D01*
X158885766Y-112796212D01*
X158843708Y-112807482D01*
X158718292Y-112879890D01*
X158615890Y-112982292D01*
X158543482Y-113107708D01*
X158532212Y-113149765D01*
X157976524Y-112594077D01*
X157976523Y-112594077D01*
X157944143Y-112638644D01*
X157851244Y-112820968D01*
X157788009Y-113015582D01*
X157756000Y-113217682D01*
X136339422Y-113217682D01*
X137818285Y-111738819D01*
X137879608Y-111705334D01*
X137905966Y-111702500D01*
X139199269Y-111702500D01*
X139266308Y-111722185D01*
X139274757Y-111728125D01*
X139280481Y-111732517D01*
X139280484Y-111732520D01*
X139280487Y-111732521D01*
X139280490Y-111732524D01*
X139417409Y-111811573D01*
X139417416Y-111811577D01*
X139570143Y-111852500D01*
X139570145Y-111852500D01*
X139728255Y-111852500D01*
X139728257Y-111852500D01*
X139880984Y-111811577D01*
X140017916Y-111732520D01*
X140017921Y-111732514D01*
X140023643Y-111728125D01*
X140088812Y-111702930D01*
X140099131Y-111702500D01*
X155658302Y-111702500D01*
X155725341Y-111722185D01*
X155745983Y-111738819D01*
X155790484Y-111783320D01*
X155790486Y-111783321D01*
X155790490Y-111783324D01*
X155914401Y-111854863D01*
X155927416Y-111862377D01*
X156080143Y-111903300D01*
X156080145Y-111903300D01*
X156238255Y-111903300D01*
X156238257Y-111903300D01*
X156390984Y-111862377D01*
X156527916Y-111783320D01*
X156639720Y-111671516D01*
X156718777Y-111534584D01*
X156759700Y-111381857D01*
X156759700Y-111223743D01*
X156718777Y-111071016D01*
X156705038Y-111047219D01*
X156639724Y-110934090D01*
X156639718Y-110934082D01*
X156527917Y-110822281D01*
X156527909Y-110822275D01*
X156390990Y-110743226D01*
X156390986Y-110743224D01*
X156390984Y-110743223D01*
X156238257Y-110702300D01*
X156080143Y-110702300D01*
X155927416Y-110743223D01*
X155927413Y-110743224D01*
X155899379Y-110759410D01*
X155855249Y-110784887D01*
X155793252Y-110801500D01*
X140099131Y-110801500D01*
X140032092Y-110781815D01*
X140023643Y-110775875D01*
X140017909Y-110771475D01*
X139880990Y-110692426D01*
X139880986Y-110692424D01*
X139880984Y-110692423D01*
X139728257Y-110651500D01*
X139570143Y-110651500D01*
X139417416Y-110692423D01*
X139417409Y-110692426D01*
X139280490Y-110771475D01*
X139274757Y-110775875D01*
X139209588Y-110801070D01*
X139199269Y-110801500D01*
X138242500Y-110801500D01*
X138175461Y-110781815D01*
X138129706Y-110729011D01*
X138118500Y-110677500D01*
X138118500Y-110097648D01*
X157755500Y-110097648D01*
X157755500Y-110302351D01*
X157787522Y-110504534D01*
X157850781Y-110699223D01*
X157943715Y-110881613D01*
X158064028Y-111047213D01*
X158208786Y-111191971D01*
X158363749Y-111304556D01*
X158374390Y-111312287D01*
X158482865Y-111367558D01*
X158556776Y-111405218D01*
X158556778Y-111405218D01*
X158556781Y-111405220D01*
X158661137Y-111439127D01*
X158751465Y-111468477D01*
X158852557Y-111484488D01*
X158953648Y-111500500D01*
X158953649Y-111500500D01*
X159158351Y-111500500D01*
X159158352Y-111500500D01*
X159360534Y-111468477D01*
X159555219Y-111405220D01*
X159737610Y-111312287D01*
X159859479Y-111223745D01*
X159903213Y-111191971D01*
X159903215Y-111191968D01*
X159903219Y-111191966D01*
X160047966Y-111047219D01*
X160047968Y-111047215D01*
X160047971Y-111047213D01*
X160130158Y-110934090D01*
X160168287Y-110881610D01*
X160261220Y-110699219D01*
X160265457Y-110686180D01*
X160304895Y-110628505D01*
X160369254Y-110601308D01*
X160383387Y-110600500D01*
X164228613Y-110600500D01*
X164295652Y-110620185D01*
X164341407Y-110672989D01*
X164346543Y-110686180D01*
X164350779Y-110699219D01*
X164443715Y-110881613D01*
X164564028Y-111047213D01*
X164708786Y-111191971D01*
X164863749Y-111304556D01*
X164874390Y-111312287D01*
X164982865Y-111367558D01*
X165056776Y-111405218D01*
X165056778Y-111405218D01*
X165056781Y-111405220D01*
X165161137Y-111439127D01*
X165251465Y-111468477D01*
X165352557Y-111484488D01*
X165453648Y-111500500D01*
X165453649Y-111500500D01*
X165658351Y-111500500D01*
X165658352Y-111500500D01*
X165860534Y-111468477D01*
X166055219Y-111405220D01*
X166237610Y-111312287D01*
X166359479Y-111223745D01*
X166403213Y-111191971D01*
X166403215Y-111191968D01*
X166403219Y-111191966D01*
X166547966Y-111047219D01*
X166547968Y-111047215D01*
X166547971Y-111047213D01*
X166630158Y-110934090D01*
X166668287Y-110881610D01*
X166761220Y-110699219D01*
X166824477Y-110504534D01*
X166856500Y-110302352D01*
X166856500Y-110097648D01*
X167661500Y-110097648D01*
X167661500Y-110302351D01*
X167693522Y-110504534D01*
X167756781Y-110699223D01*
X167849715Y-110881613D01*
X167970028Y-111047213D01*
X168114786Y-111191971D01*
X168269749Y-111304556D01*
X168280390Y-111312287D01*
X168388865Y-111367558D01*
X168462776Y-111405218D01*
X168462778Y-111405218D01*
X168462781Y-111405220D01*
X168567137Y-111439127D01*
X168657465Y-111468477D01*
X168758557Y-111484488D01*
X168859648Y-111500500D01*
X168859649Y-111500500D01*
X169064351Y-111500500D01*
X169064352Y-111500500D01*
X169266534Y-111468477D01*
X169461219Y-111405220D01*
X169643610Y-111312287D01*
X169765479Y-111223745D01*
X169809213Y-111191971D01*
X169809215Y-111191968D01*
X169809219Y-111191966D01*
X169953966Y-111047219D01*
X169953968Y-111047215D01*
X169953971Y-111047213D01*
X170036158Y-110934090D01*
X170074287Y-110881610D01*
X170167220Y-110699219D01*
X170171457Y-110686180D01*
X170210895Y-110628505D01*
X170275254Y-110601308D01*
X170289387Y-110600500D01*
X174134613Y-110600500D01*
X174201652Y-110620185D01*
X174247407Y-110672989D01*
X174252543Y-110686180D01*
X174256779Y-110699219D01*
X174349715Y-110881613D01*
X174470028Y-111047213D01*
X174614786Y-111191971D01*
X174769749Y-111304556D01*
X174780390Y-111312287D01*
X174888865Y-111367558D01*
X174962776Y-111405218D01*
X174962778Y-111405218D01*
X174962781Y-111405220D01*
X175067137Y-111439127D01*
X175157465Y-111468477D01*
X175258557Y-111484488D01*
X175359648Y-111500500D01*
X175359649Y-111500500D01*
X175564351Y-111500500D01*
X175564352Y-111500500D01*
X175766534Y-111468477D01*
X175961219Y-111405220D01*
X176143610Y-111312287D01*
X176265479Y-111223745D01*
X176309213Y-111191971D01*
X176309215Y-111191968D01*
X176309219Y-111191966D01*
X176453966Y-111047219D01*
X176453968Y-111047215D01*
X176453971Y-111047213D01*
X176536158Y-110934090D01*
X176574287Y-110881610D01*
X176667220Y-110699219D01*
X176730477Y-110504534D01*
X176762500Y-110302352D01*
X176762500Y-110097648D01*
X176730477Y-109895466D01*
X176667220Y-109700781D01*
X176667218Y-109700778D01*
X176667218Y-109700776D01*
X176633503Y-109634607D01*
X176574287Y-109518390D01*
X176565288Y-109506004D01*
X176453971Y-109352786D01*
X176309213Y-109208028D01*
X176143613Y-109087715D01*
X176143612Y-109087714D01*
X176143610Y-109087713D01*
X176086653Y-109058691D01*
X175961223Y-108994781D01*
X175766534Y-108931522D01*
X175591995Y-108903878D01*
X175564352Y-108899500D01*
X175359648Y-108899500D01*
X175335329Y-108903351D01*
X175157465Y-108931522D01*
X174962776Y-108994781D01*
X174780386Y-109087715D01*
X174614786Y-109208028D01*
X174470028Y-109352786D01*
X174349715Y-109518386D01*
X174256779Y-109700780D01*
X174252543Y-109713820D01*
X174213105Y-109771495D01*
X174148746Y-109798692D01*
X174134613Y-109799500D01*
X170289387Y-109799500D01*
X170222348Y-109779815D01*
X170176593Y-109727011D01*
X170171457Y-109713820D01*
X170167220Y-109700780D01*
X170135037Y-109637620D01*
X170074287Y-109518390D01*
X170065288Y-109506004D01*
X169953971Y-109352786D01*
X169809213Y-109208028D01*
X169643613Y-109087715D01*
X169643612Y-109087714D01*
X169643610Y-109087713D01*
X169586653Y-109058691D01*
X169461223Y-108994781D01*
X169266534Y-108931522D01*
X169091995Y-108903878D01*
X169064352Y-108899500D01*
X168859648Y-108899500D01*
X168835329Y-108903351D01*
X168657465Y-108931522D01*
X168462776Y-108994781D01*
X168280386Y-109087715D01*
X168114786Y-109208028D01*
X167970028Y-109352786D01*
X167849715Y-109518386D01*
X167756781Y-109700776D01*
X167693522Y-109895465D01*
X167661500Y-110097648D01*
X166856500Y-110097648D01*
X166824477Y-109895466D01*
X166761220Y-109700781D01*
X166761218Y-109700778D01*
X166761218Y-109700776D01*
X166727503Y-109634607D01*
X166668287Y-109518390D01*
X166659288Y-109506004D01*
X166547971Y-109352786D01*
X166403213Y-109208028D01*
X166237613Y-109087715D01*
X166237612Y-109087714D01*
X166237610Y-109087713D01*
X166180653Y-109058691D01*
X166055223Y-108994781D01*
X165860534Y-108931522D01*
X165685995Y-108903878D01*
X165658352Y-108899500D01*
X165453648Y-108899500D01*
X165429329Y-108903351D01*
X165251465Y-108931522D01*
X165056776Y-108994781D01*
X164874386Y-109087715D01*
X164708786Y-109208028D01*
X164564028Y-109352786D01*
X164443715Y-109518386D01*
X164350779Y-109700780D01*
X164346543Y-109713820D01*
X164307105Y-109771495D01*
X164242746Y-109798692D01*
X164228613Y-109799500D01*
X160383387Y-109799500D01*
X160316348Y-109779815D01*
X160270593Y-109727011D01*
X160265457Y-109713820D01*
X160261220Y-109700780D01*
X160229037Y-109637620D01*
X160168287Y-109518390D01*
X160159288Y-109506004D01*
X160047971Y-109352786D01*
X159903213Y-109208028D01*
X159737613Y-109087715D01*
X159737612Y-109087714D01*
X159737610Y-109087713D01*
X159680653Y-109058691D01*
X159555223Y-108994781D01*
X159360534Y-108931522D01*
X159185995Y-108903878D01*
X159158352Y-108899500D01*
X158953648Y-108899500D01*
X158929329Y-108903351D01*
X158751465Y-108931522D01*
X158556776Y-108994781D01*
X158374386Y-109087715D01*
X158208786Y-109208028D01*
X158064028Y-109352786D01*
X157943715Y-109518386D01*
X157850781Y-109700776D01*
X157787522Y-109895465D01*
X157755500Y-110097648D01*
X138118500Y-110097648D01*
X138118500Y-106917965D01*
X138127144Y-106888524D01*
X138133668Y-106858538D01*
X138137422Y-106853522D01*
X138138185Y-106850926D01*
X138154819Y-106830284D01*
X138199284Y-106785819D01*
X138260607Y-106752334D01*
X138286965Y-106749500D01*
X139224502Y-106749500D01*
X139291541Y-106769185D01*
X139312183Y-106785819D01*
X139331284Y-106804920D01*
X139331286Y-106804921D01*
X139331290Y-106804924D01*
X139410969Y-106850926D01*
X139468216Y-106883977D01*
X139620943Y-106924900D01*
X139620945Y-106924900D01*
X139779055Y-106924900D01*
X139779057Y-106924900D01*
X139931784Y-106883977D01*
X140068716Y-106804920D01*
X140068721Y-106804914D01*
X140074443Y-106800525D01*
X140139612Y-106775330D01*
X140149931Y-106774900D01*
X155709269Y-106774900D01*
X155776308Y-106794585D01*
X155784757Y-106800525D01*
X155790481Y-106804917D01*
X155790484Y-106804920D01*
X155790487Y-106804921D01*
X155790490Y-106804924D01*
X155870169Y-106850926D01*
X155927416Y-106883977D01*
X156080143Y-106924900D01*
X156080145Y-106924900D01*
X156238255Y-106924900D01*
X156238257Y-106924900D01*
X156390984Y-106883977D01*
X156527916Y-106804920D01*
X156639720Y-106693116D01*
X156718777Y-106556184D01*
X156759700Y-106403457D01*
X156759700Y-106245343D01*
X156718777Y-106092616D01*
X156667856Y-106004417D01*
X156639724Y-105955690D01*
X156639718Y-105955682D01*
X156527917Y-105843881D01*
X156527909Y-105843875D01*
X156390990Y-105764826D01*
X156390986Y-105764824D01*
X156390984Y-105764823D01*
X156238257Y-105723900D01*
X156080143Y-105723900D01*
X155927416Y-105764823D01*
X155927409Y-105764826D01*
X155790490Y-105843875D01*
X155784757Y-105848275D01*
X155719588Y-105873470D01*
X155709269Y-105873900D01*
X140149931Y-105873900D01*
X140082892Y-105854215D01*
X140074443Y-105848275D01*
X140068709Y-105843875D01*
X139931790Y-105764826D01*
X139931786Y-105764824D01*
X139931784Y-105764823D01*
X139779057Y-105723900D01*
X139620943Y-105723900D01*
X139468216Y-105764823D01*
X139468215Y-105764823D01*
X139352055Y-105831888D01*
X139290056Y-105848500D01*
X137989691Y-105848500D01*
X137920944Y-105866920D01*
X137875112Y-105879201D01*
X137875107Y-105879204D01*
X137831695Y-105904267D01*
X137831696Y-105904268D01*
X137772389Y-105938508D01*
X137772383Y-105938513D01*
X137307513Y-106403383D01*
X137307511Y-106403386D01*
X137248200Y-106506113D01*
X137248199Y-106506116D01*
X137241712Y-106530324D01*
X137241713Y-106530325D01*
X137217500Y-106620691D01*
X137217500Y-111014033D01*
X137197815Y-111081072D01*
X137181181Y-111101714D01*
X132018272Y-116264622D01*
X131956949Y-116298107D01*
X131887257Y-116293123D01*
X131831324Y-116251251D01*
X131806907Y-116185787D01*
X131820107Y-116120645D01*
X131875745Y-116011451D01*
X131875748Y-116011444D01*
X131931682Y-115839293D01*
X131960000Y-115660506D01*
X131960000Y-115479493D01*
X131931682Y-115300706D01*
X131875748Y-115128555D01*
X131875747Y-115128552D01*
X131793571Y-114967275D01*
X131793566Y-114967267D01*
X131782085Y-114951466D01*
X131292962Y-115440590D01*
X131275925Y-115377007D01*
X131210099Y-115262993D01*
X131117007Y-115169901D01*
X131002993Y-115104075D01*
X130939409Y-115087037D01*
X131428533Y-114597913D01*
X131412730Y-114586431D01*
X131251447Y-114504252D01*
X131251444Y-114504251D01*
X131079293Y-114448317D01*
X130917720Y-114422726D01*
X130854585Y-114392797D01*
X130817654Y-114333485D01*
X130818652Y-114263623D01*
X130857262Y-114205390D01*
X130917720Y-114177780D01*
X130932270Y-114175475D01*
X131079409Y-114152171D01*
X131251639Y-114096211D01*
X131412994Y-114013996D01*
X131559501Y-113907553D01*
X131687553Y-113779501D01*
X131793996Y-113632994D01*
X131876211Y-113471639D01*
X131932171Y-113299409D01*
X131946765Y-113207259D01*
X131960500Y-113120551D01*
X131960500Y-112939448D01*
X131933661Y-112770000D01*
X131932171Y-112760591D01*
X131892549Y-112638644D01*
X131876212Y-112588363D01*
X131876211Y-112588360D01*
X131847740Y-112532484D01*
X131793996Y-112427006D01*
X131780396Y-112408287D01*
X131687558Y-112280505D01*
X131687554Y-112280500D01*
X131559499Y-112152445D01*
X131559494Y-112152441D01*
X131412997Y-112046006D01*
X131412996Y-112046005D01*
X131412994Y-112046004D01*
X131361300Y-112019664D01*
X131251639Y-111963788D01*
X131251636Y-111963787D01*
X131079410Y-111907829D01*
X130919321Y-111882473D01*
X130856186Y-111852544D01*
X130819255Y-111793232D01*
X130820253Y-111723370D01*
X130858863Y-111665137D01*
X130919321Y-111637527D01*
X130989425Y-111626422D01*
X131079409Y-111612171D01*
X131251639Y-111556211D01*
X131412994Y-111473996D01*
X131559501Y-111367553D01*
X131687553Y-111239501D01*
X131793996Y-111092994D01*
X131876211Y-110931639D01*
X131932171Y-110759409D01*
X131957340Y-110600500D01*
X131960500Y-110580551D01*
X131960500Y-110399448D01*
X131944019Y-110295397D01*
X131932171Y-110220591D01*
X131876211Y-110048361D01*
X131876211Y-110048360D01*
X131847740Y-109992484D01*
X131793996Y-109887006D01*
X131730420Y-109799500D01*
X131687558Y-109740505D01*
X131687554Y-109740500D01*
X131559499Y-109612445D01*
X131559494Y-109612441D01*
X131412997Y-109506006D01*
X131412996Y-109506005D01*
X131412994Y-109506004D01*
X131361300Y-109479664D01*
X131251639Y-109423788D01*
X131251636Y-109423787D01*
X131079410Y-109367829D01*
X130919321Y-109342473D01*
X130856186Y-109312544D01*
X130819255Y-109253232D01*
X130820253Y-109183370D01*
X130858863Y-109125137D01*
X130919321Y-109097527D01*
X130989425Y-109086422D01*
X131079409Y-109072171D01*
X131251639Y-109016211D01*
X131412994Y-108933996D01*
X131559501Y-108827553D01*
X131687553Y-108699501D01*
X131793996Y-108552994D01*
X131876211Y-108391639D01*
X131932171Y-108219409D01*
X131946765Y-108127259D01*
X131960500Y-108040551D01*
X131960500Y-107859448D01*
X131944019Y-107755397D01*
X131932171Y-107680591D01*
X131876211Y-107508361D01*
X131876211Y-107508360D01*
X131847740Y-107452484D01*
X131793996Y-107347006D01*
X131780396Y-107328287D01*
X131687558Y-107200505D01*
X131687554Y-107200500D01*
X131559499Y-107072445D01*
X131559494Y-107072441D01*
X131412997Y-106966006D01*
X131412996Y-106966005D01*
X131412994Y-106966004D01*
X131361300Y-106939664D01*
X131251639Y-106883788D01*
X131251636Y-106883787D01*
X131079410Y-106827829D01*
X130947728Y-106806972D01*
X130884594Y-106777042D01*
X130847663Y-106717731D01*
X130848661Y-106647868D01*
X130887271Y-106589636D01*
X130951235Y-106561522D01*
X130967120Y-106560499D01*
X131704864Y-106560499D01*
X131704879Y-106560497D01*
X131704882Y-106560497D01*
X131729987Y-106557586D01*
X131729988Y-106557585D01*
X131729991Y-106557585D01*
X131832765Y-106512206D01*
X131912206Y-106432765D01*
X131957585Y-106329991D01*
X131960500Y-106304865D01*
X131960499Y-105597682D01*
X157756000Y-105597682D01*
X157756000Y-105802317D01*
X157788009Y-106004417D01*
X157851244Y-106199031D01*
X157944141Y-106381350D01*
X157944147Y-106381359D01*
X157976523Y-106425921D01*
X157976524Y-106425922D01*
X158532212Y-105870234D01*
X158543482Y-105912292D01*
X158615890Y-106037708D01*
X158718292Y-106140110D01*
X158843708Y-106212518D01*
X158885765Y-106223787D01*
X158330076Y-106779474D01*
X158374650Y-106811859D01*
X158556968Y-106904755D01*
X158751582Y-106967990D01*
X158953683Y-107000000D01*
X159158317Y-107000000D01*
X159360417Y-106967990D01*
X159555031Y-106904755D01*
X159737349Y-106811859D01*
X159781921Y-106779474D01*
X159226234Y-106223787D01*
X159268292Y-106212518D01*
X159393708Y-106140110D01*
X159496110Y-106037708D01*
X159568518Y-105912292D01*
X159579787Y-105870234D01*
X160135474Y-106425921D01*
X160167859Y-106381349D01*
X160260755Y-106199031D01*
X160323990Y-106004417D01*
X160356000Y-105802317D01*
X160356000Y-105597682D01*
X164256000Y-105597682D01*
X164256000Y-105802317D01*
X164288009Y-106004417D01*
X164351244Y-106199031D01*
X164444141Y-106381350D01*
X164444147Y-106381359D01*
X164476523Y-106425921D01*
X164476524Y-106425922D01*
X165032212Y-105870234D01*
X165043482Y-105912292D01*
X165115890Y-106037708D01*
X165218292Y-106140110D01*
X165343708Y-106212518D01*
X165385765Y-106223787D01*
X164830076Y-106779474D01*
X164874650Y-106811859D01*
X165056968Y-106904755D01*
X165251582Y-106967990D01*
X165453683Y-107000000D01*
X165658317Y-107000000D01*
X165860417Y-106967990D01*
X166055031Y-106904755D01*
X166237349Y-106811859D01*
X166281921Y-106779474D01*
X165726234Y-106223787D01*
X165768292Y-106212518D01*
X165893708Y-106140110D01*
X165996110Y-106037708D01*
X166068518Y-105912292D01*
X166079787Y-105870234D01*
X166635474Y-106425921D01*
X166667859Y-106381349D01*
X166760755Y-106199031D01*
X166823990Y-106004417D01*
X166856000Y-105802317D01*
X166856000Y-105597682D01*
X167662000Y-105597682D01*
X167662000Y-105802317D01*
X167694009Y-106004417D01*
X167757244Y-106199031D01*
X167850141Y-106381350D01*
X167850147Y-106381359D01*
X167882523Y-106425921D01*
X167882524Y-106425922D01*
X168438212Y-105870234D01*
X168449482Y-105912292D01*
X168521890Y-106037708D01*
X168624292Y-106140110D01*
X168749708Y-106212518D01*
X168791765Y-106223787D01*
X168236076Y-106779474D01*
X168280650Y-106811859D01*
X168462968Y-106904755D01*
X168657582Y-106967990D01*
X168859683Y-107000000D01*
X169064317Y-107000000D01*
X169266417Y-106967990D01*
X169461031Y-106904755D01*
X169643349Y-106811859D01*
X169687921Y-106779474D01*
X169132234Y-106223787D01*
X169174292Y-106212518D01*
X169299708Y-106140110D01*
X169402110Y-106037708D01*
X169474518Y-105912292D01*
X169485787Y-105870235D01*
X170041474Y-106425922D01*
X170041474Y-106425921D01*
X170073859Y-106381349D01*
X170166755Y-106199031D01*
X170229990Y-106004417D01*
X170262000Y-105802317D01*
X170262000Y-105597682D01*
X174162000Y-105597682D01*
X174162000Y-105802317D01*
X174194009Y-106004417D01*
X174257244Y-106199031D01*
X174350141Y-106381350D01*
X174350147Y-106381359D01*
X174382523Y-106425921D01*
X174382524Y-106425922D01*
X174938212Y-105870234D01*
X174949482Y-105912292D01*
X175021890Y-106037708D01*
X175124292Y-106140110D01*
X175249708Y-106212518D01*
X175291765Y-106223787D01*
X174736076Y-106779474D01*
X174780650Y-106811859D01*
X174962968Y-106904755D01*
X175157582Y-106967990D01*
X175359683Y-107000000D01*
X175564317Y-107000000D01*
X175766417Y-106967990D01*
X175961031Y-106904755D01*
X176143349Y-106811859D01*
X176187921Y-106779474D01*
X175632234Y-106223787D01*
X175674292Y-106212518D01*
X175799708Y-106140110D01*
X175902110Y-106037708D01*
X175974518Y-105912292D01*
X175985787Y-105870235D01*
X176541474Y-106425922D01*
X176541474Y-106425921D01*
X176573859Y-106381349D01*
X176666755Y-106199031D01*
X176729990Y-106004417D01*
X176762000Y-105802317D01*
X176762000Y-105597682D01*
X176729990Y-105395582D01*
X176666755Y-105200968D01*
X176573859Y-105018650D01*
X176541474Y-104974077D01*
X176541474Y-104974076D01*
X175985787Y-105529764D01*
X175974518Y-105487708D01*
X175902110Y-105362292D01*
X175799708Y-105259890D01*
X175674292Y-105187482D01*
X175632233Y-105176212D01*
X176187922Y-104620524D01*
X176187921Y-104620523D01*
X176143359Y-104588147D01*
X176143350Y-104588141D01*
X175961031Y-104495244D01*
X175766417Y-104432009D01*
X175564317Y-104400000D01*
X175359683Y-104400000D01*
X175157582Y-104432009D01*
X174962968Y-104495244D01*
X174780644Y-104588143D01*
X174736077Y-104620523D01*
X174736077Y-104620524D01*
X175291766Y-105176212D01*
X175249708Y-105187482D01*
X175124292Y-105259890D01*
X175021890Y-105362292D01*
X174949482Y-105487708D01*
X174938212Y-105529765D01*
X174382524Y-104974077D01*
X174382523Y-104974077D01*
X174350143Y-105018644D01*
X174257244Y-105200968D01*
X174194009Y-105395582D01*
X174162000Y-105597682D01*
X170262000Y-105597682D01*
X170229990Y-105395582D01*
X170166755Y-105200968D01*
X170073859Y-105018650D01*
X170041474Y-104974077D01*
X170041474Y-104974076D01*
X169485787Y-105529764D01*
X169474518Y-105487708D01*
X169402110Y-105362292D01*
X169299708Y-105259890D01*
X169174292Y-105187482D01*
X169132233Y-105176212D01*
X169687922Y-104620524D01*
X169687921Y-104620523D01*
X169643359Y-104588147D01*
X169643350Y-104588141D01*
X169461031Y-104495244D01*
X169266417Y-104432009D01*
X169064317Y-104400000D01*
X168859683Y-104400000D01*
X168657582Y-104432009D01*
X168462968Y-104495244D01*
X168280644Y-104588143D01*
X168236077Y-104620523D01*
X168236077Y-104620524D01*
X168791766Y-105176212D01*
X168749708Y-105187482D01*
X168624292Y-105259890D01*
X168521890Y-105362292D01*
X168449482Y-105487708D01*
X168438212Y-105529765D01*
X167882524Y-104974077D01*
X167882523Y-104974077D01*
X167850143Y-105018644D01*
X167757244Y-105200968D01*
X167694009Y-105395582D01*
X167662000Y-105597682D01*
X166856000Y-105597682D01*
X166823990Y-105395582D01*
X166760755Y-105200968D01*
X166667859Y-105018650D01*
X166635474Y-104974077D01*
X166635474Y-104974076D01*
X166079787Y-105529764D01*
X166068518Y-105487708D01*
X165996110Y-105362292D01*
X165893708Y-105259890D01*
X165768292Y-105187482D01*
X165726233Y-105176212D01*
X166281922Y-104620524D01*
X166281921Y-104620523D01*
X166237359Y-104588147D01*
X166237350Y-104588141D01*
X166055031Y-104495244D01*
X165860417Y-104432009D01*
X165658317Y-104400000D01*
X165453683Y-104400000D01*
X165251582Y-104432009D01*
X165056968Y-104495244D01*
X164874644Y-104588143D01*
X164830077Y-104620523D01*
X164830077Y-104620524D01*
X165385766Y-105176212D01*
X165343708Y-105187482D01*
X165218292Y-105259890D01*
X165115890Y-105362292D01*
X165043482Y-105487708D01*
X165032212Y-105529765D01*
X164476524Y-104974077D01*
X164476523Y-104974077D01*
X164444143Y-105018644D01*
X164351244Y-105200968D01*
X164288009Y-105395582D01*
X164256000Y-105597682D01*
X160356000Y-105597682D01*
X160323990Y-105395582D01*
X160260755Y-105200968D01*
X160167859Y-105018650D01*
X160135474Y-104974077D01*
X160135474Y-104974076D01*
X159579787Y-105529764D01*
X159568518Y-105487708D01*
X159496110Y-105362292D01*
X159393708Y-105259890D01*
X159268292Y-105187482D01*
X159226233Y-105176212D01*
X159781922Y-104620524D01*
X159781921Y-104620523D01*
X159737359Y-104588147D01*
X159737350Y-104588141D01*
X159555031Y-104495244D01*
X159360417Y-104432009D01*
X159158317Y-104400000D01*
X158953683Y-104400000D01*
X158751582Y-104432009D01*
X158556968Y-104495244D01*
X158374644Y-104588143D01*
X158330077Y-104620523D01*
X158330077Y-104620524D01*
X158885766Y-105176212D01*
X158843708Y-105187482D01*
X158718292Y-105259890D01*
X158615890Y-105362292D01*
X158543482Y-105487708D01*
X158532212Y-105529765D01*
X157976524Y-104974077D01*
X157976523Y-104974077D01*
X157944143Y-105018644D01*
X157851244Y-105200968D01*
X157788009Y-105395582D01*
X157756000Y-105597682D01*
X131960499Y-105597682D01*
X131960499Y-105395582D01*
X131960499Y-104667783D01*
X131960499Y-104515143D01*
X131960499Y-104515136D01*
X131960497Y-104515117D01*
X131957586Y-104490012D01*
X131957585Y-104490010D01*
X131957585Y-104490009D01*
X131912206Y-104387235D01*
X131832765Y-104307794D01*
X131832763Y-104307793D01*
X131729992Y-104262415D01*
X131704865Y-104259500D01*
X129915143Y-104259500D01*
X129915117Y-104259502D01*
X129890012Y-104262413D01*
X129890008Y-104262415D01*
X129787235Y-104307793D01*
X129707794Y-104387234D01*
X129662415Y-104490006D01*
X129662415Y-104490008D01*
X129659500Y-104515131D01*
X129659500Y-106304856D01*
X129659502Y-106304882D01*
X129662413Y-106329987D01*
X129662415Y-106329991D01*
X129707793Y-106432764D01*
X129707794Y-106432765D01*
X129787235Y-106512206D01*
X129890009Y-106557585D01*
X129915135Y-106560500D01*
X130652873Y-106560499D01*
X130719910Y-106580183D01*
X130765665Y-106632987D01*
X130775609Y-106702146D01*
X130746584Y-106765702D01*
X130687806Y-106803476D01*
X130672270Y-106806972D01*
X130540589Y-106827829D01*
X130368363Y-106883787D01*
X130368360Y-106883788D01*
X130207002Y-106966006D01*
X130060505Y-107072441D01*
X130060500Y-107072445D01*
X129932445Y-107200500D01*
X129932441Y-107200505D01*
X129826006Y-107347002D01*
X129743788Y-107508360D01*
X129743787Y-107508363D01*
X129687829Y-107680589D01*
X129659500Y-107859448D01*
X129659500Y-108040551D01*
X129687829Y-108219410D01*
X129743787Y-108391636D01*
X129743788Y-108391639D01*
X129826006Y-108552997D01*
X129932441Y-108699494D01*
X129932445Y-108699499D01*
X130060500Y-108827554D01*
X130060505Y-108827558D01*
X130159526Y-108899500D01*
X130207006Y-108933996D01*
X130312484Y-108987740D01*
X130368360Y-109016211D01*
X130368363Y-109016212D01*
X130454476Y-109044191D01*
X130540591Y-109072171D01*
X130613639Y-109083740D01*
X130700678Y-109097527D01*
X130763813Y-109127456D01*
X130800744Y-109186768D01*
X130799746Y-109256631D01*
X130761136Y-109314863D01*
X130700678Y-109342473D01*
X130540589Y-109367829D01*
X130368363Y-109423787D01*
X130368360Y-109423788D01*
X130207002Y-109506006D01*
X130060505Y-109612441D01*
X130060500Y-109612445D01*
X129932445Y-109740500D01*
X129932441Y-109740505D01*
X129826006Y-109887002D01*
X129743788Y-110048360D01*
X129743787Y-110048363D01*
X129687829Y-110220589D01*
X129659500Y-110399448D01*
X129659500Y-110580551D01*
X129687829Y-110759410D01*
X129743787Y-110931636D01*
X129743788Y-110931639D01*
X129785771Y-111014033D01*
X129819929Y-111081072D01*
X129826006Y-111092997D01*
X129932441Y-111239494D01*
X129932445Y-111239499D01*
X130060500Y-111367554D01*
X130060505Y-111367558D01*
X130112343Y-111405220D01*
X130207006Y-111473996D01*
X130312484Y-111527740D01*
X130368360Y-111556211D01*
X130368363Y-111556212D01*
X130454476Y-111584191D01*
X130540591Y-111612171D01*
X130613639Y-111623740D01*
X130700678Y-111637527D01*
X130763813Y-111667456D01*
X130800744Y-111726768D01*
X130799746Y-111796631D01*
X130761136Y-111854863D01*
X130700678Y-111882473D01*
X130540589Y-111907829D01*
X130368363Y-111963787D01*
X130368360Y-111963788D01*
X130207002Y-112046006D01*
X130060505Y-112152441D01*
X130060500Y-112152445D01*
X129932445Y-112280500D01*
X129932441Y-112280505D01*
X129826006Y-112427002D01*
X129743788Y-112588360D01*
X129743787Y-112588363D01*
X129687829Y-112760589D01*
X129659500Y-112939448D01*
X129659500Y-113120551D01*
X129687829Y-113299410D01*
X129743787Y-113471636D01*
X129743788Y-113471639D01*
X129826006Y-113632997D01*
X129932441Y-113779494D01*
X129932445Y-113779499D01*
X130060500Y-113907554D01*
X130060505Y-113907558D01*
X130188287Y-114000396D01*
X130207006Y-114013996D01*
X130312484Y-114067740D01*
X130368360Y-114096211D01*
X130368363Y-114096212D01*
X130454476Y-114124191D01*
X130540591Y-114152171D01*
X130660038Y-114171089D01*
X130702279Y-114177780D01*
X130765414Y-114207709D01*
X130802345Y-114267021D01*
X130801347Y-114336883D01*
X130762737Y-114395116D01*
X130702279Y-114422726D01*
X130540706Y-114448317D01*
X130368555Y-114504251D01*
X130368547Y-114504254D01*
X130207269Y-114586432D01*
X130191466Y-114597912D01*
X130191466Y-114597913D01*
X130680591Y-115087037D01*
X130617007Y-115104075D01*
X130502993Y-115169901D01*
X130409901Y-115262993D01*
X130344075Y-115377007D01*
X130327037Y-115440590D01*
X129837913Y-114951466D01*
X129837912Y-114951466D01*
X129826432Y-114967269D01*
X129744254Y-115128547D01*
X129744251Y-115128555D01*
X129688317Y-115300706D01*
X129660000Y-115479493D01*
X129660000Y-115660506D01*
X129688317Y-115839293D01*
X129744251Y-116011444D01*
X129744252Y-116011447D01*
X129826431Y-116172730D01*
X129837913Y-116188532D01*
X129837913Y-116188533D01*
X130327037Y-115699409D01*
X130344075Y-115762993D01*
X130409901Y-115877007D01*
X130502993Y-115970099D01*
X130617007Y-116035925D01*
X130680590Y-116052962D01*
X130191466Y-116542085D01*
X130191466Y-116542086D01*
X130207267Y-116553566D01*
X130207275Y-116553571D01*
X130368552Y-116635747D01*
X130368555Y-116635748D01*
X130540706Y-116691682D01*
X130702279Y-116717273D01*
X130765413Y-116747202D01*
X130802345Y-116806513D01*
X130801347Y-116876376D01*
X130762738Y-116934609D01*
X130702280Y-116962219D01*
X130540589Y-116987829D01*
X130368363Y-117043787D01*
X130368360Y-117043788D01*
X130207002Y-117126006D01*
X130060505Y-117232441D01*
X130060500Y-117232445D01*
X129932445Y-117360500D01*
X129932441Y-117360505D01*
X129826006Y-117507002D01*
X129743788Y-117668360D01*
X129743787Y-117668363D01*
X129687829Y-117840589D01*
X129659500Y-118019448D01*
X129659500Y-118200551D01*
X129687829Y-118379410D01*
X129743787Y-118551636D01*
X129743788Y-118551639D01*
X129826006Y-118712997D01*
X129932441Y-118859494D01*
X129932445Y-118859499D01*
X130060500Y-118987554D01*
X130060505Y-118987558D01*
X130207001Y-119093993D01*
X130207003Y-119093994D01*
X130207006Y-119093996D01*
X130291795Y-119137198D01*
X130342591Y-119185173D01*
X130359500Y-119247683D01*
X130359500Y-120455311D01*
X130369521Y-120492711D01*
X130369522Y-120492711D01*
X130390201Y-120569887D01*
X130449511Y-120672614D01*
X130449513Y-120672616D01*
X130977216Y-121200319D01*
X131010701Y-121261642D01*
X131005717Y-121331334D01*
X130963845Y-121387267D01*
X130898381Y-121411684D01*
X130889535Y-121412000D01*
X127632000Y-121412000D01*
X127564961Y-121392315D01*
X127519206Y-121339511D01*
X127508000Y-121288000D01*
X127508000Y-102232000D01*
X127527685Y-102164961D01*
X127580489Y-102119206D01*
X127632000Y-102108000D01*
X177168000Y-102108000D01*
X177235039Y-102127685D01*
G37*
%TD.AperFunction*%
%TD*%
M02*
