%TF.GenerationSoftware,KiCad,Pcbnew,9.0.6-9.0.6~ubuntu24.04.1*%
%TF.CreationDate,2026-01-18T16:07:11-03:00*%
%TF.ProjectId,cotti_temp_humid_sensor,636f7474-695f-4746-956d-705f68756d69,0.0*%
%TF.SameCoordinates,Original*%
%TF.FileFunction,Legend,Top*%
%TF.FilePolarity,Positive*%
%FSLAX46Y46*%
G04 Gerber Fmt 4.6, Leading zero omitted, Abs format (unit mm)*
G04 Created by KiCad (PCBNEW 9.0.6-9.0.6~ubuntu24.04.1) date 2026-01-18 16:07:11*
%MOMM*%
%LPD*%
G01*
G04 APERTURE LIST*
%ADD10C,0.150000*%
%ADD11C,0.120000*%
%ADD12C,0.127000*%
%ADD13C,0.200000*%
%ADD14C,0.100000*%
G04 APERTURE END LIST*
D10*
X132416779Y-90801819D02*
X132416779Y-89801819D01*
X132416779Y-89801819D02*
X132988207Y-90801819D01*
X132988207Y-90801819D02*
X132988207Y-89801819D01*
X134035826Y-90706580D02*
X133988207Y-90754200D01*
X133988207Y-90754200D02*
X133845350Y-90801819D01*
X133845350Y-90801819D02*
X133750112Y-90801819D01*
X133750112Y-90801819D02*
X133607255Y-90754200D01*
X133607255Y-90754200D02*
X133512017Y-90658961D01*
X133512017Y-90658961D02*
X133464398Y-90563723D01*
X133464398Y-90563723D02*
X133416779Y-90373247D01*
X133416779Y-90373247D02*
X133416779Y-90230390D01*
X133416779Y-90230390D02*
X133464398Y-90039914D01*
X133464398Y-90039914D02*
X133512017Y-89944676D01*
X133512017Y-89944676D02*
X133607255Y-89849438D01*
X133607255Y-89849438D02*
X133750112Y-89801819D01*
X133750112Y-89801819D02*
X133845350Y-89801819D01*
X133845350Y-89801819D02*
X133988207Y-89849438D01*
X133988207Y-89849438D02*
X134035826Y-89897057D01*
X132416779Y-88261819D02*
X132416779Y-87261819D01*
X132416779Y-87261819D02*
X132654874Y-87261819D01*
X132654874Y-87261819D02*
X132797731Y-87309438D01*
X132797731Y-87309438D02*
X132892969Y-87404676D01*
X132892969Y-87404676D02*
X132940588Y-87499914D01*
X132940588Y-87499914D02*
X132988207Y-87690390D01*
X132988207Y-87690390D02*
X132988207Y-87833247D01*
X132988207Y-87833247D02*
X132940588Y-88023723D01*
X132940588Y-88023723D02*
X132892969Y-88118961D01*
X132892969Y-88118961D02*
X132797731Y-88214200D01*
X132797731Y-88214200D02*
X132654874Y-88261819D01*
X132654874Y-88261819D02*
X132416779Y-88261819D01*
X133988207Y-88261819D02*
X133654874Y-87785628D01*
X133416779Y-88261819D02*
X133416779Y-87261819D01*
X133416779Y-87261819D02*
X133797731Y-87261819D01*
X133797731Y-87261819D02*
X133892969Y-87309438D01*
X133892969Y-87309438D02*
X133940588Y-87357057D01*
X133940588Y-87357057D02*
X133988207Y-87452295D01*
X133988207Y-87452295D02*
X133988207Y-87595152D01*
X133988207Y-87595152D02*
X133940588Y-87690390D01*
X133940588Y-87690390D02*
X133892969Y-87738009D01*
X133892969Y-87738009D02*
X133797731Y-87785628D01*
X133797731Y-87785628D02*
X133416779Y-87785628D01*
X134416779Y-88261819D02*
X134416779Y-87261819D01*
X134416779Y-87261819D02*
X134654874Y-87261819D01*
X134654874Y-87261819D02*
X134797731Y-87309438D01*
X134797731Y-87309438D02*
X134892969Y-87404676D01*
X134892969Y-87404676D02*
X134940588Y-87499914D01*
X134940588Y-87499914D02*
X134988207Y-87690390D01*
X134988207Y-87690390D02*
X134988207Y-87833247D01*
X134988207Y-87833247D02*
X134940588Y-88023723D01*
X134940588Y-88023723D02*
X134892969Y-88118961D01*
X134892969Y-88118961D02*
X134797731Y-88214200D01*
X134797731Y-88214200D02*
X134654874Y-88261819D01*
X134654874Y-88261819D02*
X134416779Y-88261819D01*
X135607255Y-87785628D02*
X135607255Y-88261819D01*
X135273922Y-87261819D02*
X135607255Y-87785628D01*
X135607255Y-87785628D02*
X135940588Y-87261819D01*
X132321541Y-99961819D02*
X132940588Y-99961819D01*
X132940588Y-99961819D02*
X132607255Y-100342771D01*
X132607255Y-100342771D02*
X132750112Y-100342771D01*
X132750112Y-100342771D02*
X132845350Y-100390390D01*
X132845350Y-100390390D02*
X132892969Y-100438009D01*
X132892969Y-100438009D02*
X132940588Y-100533247D01*
X132940588Y-100533247D02*
X132940588Y-100771342D01*
X132940588Y-100771342D02*
X132892969Y-100866580D01*
X132892969Y-100866580D02*
X132845350Y-100914200D01*
X132845350Y-100914200D02*
X132750112Y-100961819D01*
X132750112Y-100961819D02*
X132464398Y-100961819D01*
X132464398Y-100961819D02*
X132369160Y-100914200D01*
X132369160Y-100914200D02*
X132321541Y-100866580D01*
X133369160Y-100866580D02*
X133416779Y-100914200D01*
X133416779Y-100914200D02*
X133369160Y-100961819D01*
X133369160Y-100961819D02*
X133321541Y-100914200D01*
X133321541Y-100914200D02*
X133369160Y-100866580D01*
X133369160Y-100866580D02*
X133369160Y-100961819D01*
X133750112Y-99961819D02*
X134369159Y-99961819D01*
X134369159Y-99961819D02*
X134035826Y-100342771D01*
X134035826Y-100342771D02*
X134178683Y-100342771D01*
X134178683Y-100342771D02*
X134273921Y-100390390D01*
X134273921Y-100390390D02*
X134321540Y-100438009D01*
X134321540Y-100438009D02*
X134369159Y-100533247D01*
X134369159Y-100533247D02*
X134369159Y-100771342D01*
X134369159Y-100771342D02*
X134321540Y-100866580D01*
X134321540Y-100866580D02*
X134273921Y-100914200D01*
X134273921Y-100914200D02*
X134178683Y-100961819D01*
X134178683Y-100961819D02*
X133892969Y-100961819D01*
X133892969Y-100961819D02*
X133797731Y-100914200D01*
X133797731Y-100914200D02*
X133750112Y-100866580D01*
X134654874Y-99961819D02*
X134988207Y-100961819D01*
X134988207Y-100961819D02*
X135321540Y-99961819D01*
X132940588Y-97469438D02*
X132845350Y-97421819D01*
X132845350Y-97421819D02*
X132702493Y-97421819D01*
X132702493Y-97421819D02*
X132559636Y-97469438D01*
X132559636Y-97469438D02*
X132464398Y-97564676D01*
X132464398Y-97564676D02*
X132416779Y-97659914D01*
X132416779Y-97659914D02*
X132369160Y-97850390D01*
X132369160Y-97850390D02*
X132369160Y-97993247D01*
X132369160Y-97993247D02*
X132416779Y-98183723D01*
X132416779Y-98183723D02*
X132464398Y-98278961D01*
X132464398Y-98278961D02*
X132559636Y-98374200D01*
X132559636Y-98374200D02*
X132702493Y-98421819D01*
X132702493Y-98421819D02*
X132797731Y-98421819D01*
X132797731Y-98421819D02*
X132940588Y-98374200D01*
X132940588Y-98374200D02*
X132988207Y-98326580D01*
X132988207Y-98326580D02*
X132988207Y-97993247D01*
X132988207Y-97993247D02*
X132797731Y-97993247D01*
X133416779Y-98421819D02*
X133416779Y-97421819D01*
X133416779Y-97421819D02*
X133988207Y-98421819D01*
X133988207Y-98421819D02*
X133988207Y-97421819D01*
X134464398Y-98421819D02*
X134464398Y-97421819D01*
X134464398Y-97421819D02*
X134702493Y-97421819D01*
X134702493Y-97421819D02*
X134845350Y-97469438D01*
X134845350Y-97469438D02*
X134940588Y-97564676D01*
X134940588Y-97564676D02*
X134988207Y-97659914D01*
X134988207Y-97659914D02*
X135035826Y-97850390D01*
X135035826Y-97850390D02*
X135035826Y-97993247D01*
X135035826Y-97993247D02*
X134988207Y-98183723D01*
X134988207Y-98183723D02*
X134940588Y-98278961D01*
X134940588Y-98278961D02*
X134845350Y-98374200D01*
X134845350Y-98374200D02*
X134702493Y-98421819D01*
X134702493Y-98421819D02*
X134464398Y-98421819D01*
X132369160Y-93294200D02*
X132512017Y-93341819D01*
X132512017Y-93341819D02*
X132750112Y-93341819D01*
X132750112Y-93341819D02*
X132845350Y-93294200D01*
X132845350Y-93294200D02*
X132892969Y-93246580D01*
X132892969Y-93246580D02*
X132940588Y-93151342D01*
X132940588Y-93151342D02*
X132940588Y-93056104D01*
X132940588Y-93056104D02*
X132892969Y-92960866D01*
X132892969Y-92960866D02*
X132845350Y-92913247D01*
X132845350Y-92913247D02*
X132750112Y-92865628D01*
X132750112Y-92865628D02*
X132559636Y-92818009D01*
X132559636Y-92818009D02*
X132464398Y-92770390D01*
X132464398Y-92770390D02*
X132416779Y-92722771D01*
X132416779Y-92722771D02*
X132369160Y-92627533D01*
X132369160Y-92627533D02*
X132369160Y-92532295D01*
X132369160Y-92532295D02*
X132416779Y-92437057D01*
X132416779Y-92437057D02*
X132464398Y-92389438D01*
X132464398Y-92389438D02*
X132559636Y-92341819D01*
X132559636Y-92341819D02*
X132797731Y-92341819D01*
X132797731Y-92341819D02*
X132940588Y-92389438D01*
X133940588Y-93246580D02*
X133892969Y-93294200D01*
X133892969Y-93294200D02*
X133750112Y-93341819D01*
X133750112Y-93341819D02*
X133654874Y-93341819D01*
X133654874Y-93341819D02*
X133512017Y-93294200D01*
X133512017Y-93294200D02*
X133416779Y-93198961D01*
X133416779Y-93198961D02*
X133369160Y-93103723D01*
X133369160Y-93103723D02*
X133321541Y-92913247D01*
X133321541Y-92913247D02*
X133321541Y-92770390D01*
X133321541Y-92770390D02*
X133369160Y-92579914D01*
X133369160Y-92579914D02*
X133416779Y-92484676D01*
X133416779Y-92484676D02*
X133512017Y-92389438D01*
X133512017Y-92389438D02*
X133654874Y-92341819D01*
X133654874Y-92341819D02*
X133750112Y-92341819D01*
X133750112Y-92341819D02*
X133892969Y-92389438D01*
X133892969Y-92389438D02*
X133940588Y-92437057D01*
X134845350Y-93341819D02*
X134369160Y-93341819D01*
X134369160Y-93341819D02*
X134369160Y-92341819D01*
X132369160Y-95834200D02*
X132512017Y-95881819D01*
X132512017Y-95881819D02*
X132750112Y-95881819D01*
X132750112Y-95881819D02*
X132845350Y-95834200D01*
X132845350Y-95834200D02*
X132892969Y-95786580D01*
X132892969Y-95786580D02*
X132940588Y-95691342D01*
X132940588Y-95691342D02*
X132940588Y-95596104D01*
X132940588Y-95596104D02*
X132892969Y-95500866D01*
X132892969Y-95500866D02*
X132845350Y-95453247D01*
X132845350Y-95453247D02*
X132750112Y-95405628D01*
X132750112Y-95405628D02*
X132559636Y-95358009D01*
X132559636Y-95358009D02*
X132464398Y-95310390D01*
X132464398Y-95310390D02*
X132416779Y-95262771D01*
X132416779Y-95262771D02*
X132369160Y-95167533D01*
X132369160Y-95167533D02*
X132369160Y-95072295D01*
X132369160Y-95072295D02*
X132416779Y-94977057D01*
X132416779Y-94977057D02*
X132464398Y-94929438D01*
X132464398Y-94929438D02*
X132559636Y-94881819D01*
X132559636Y-94881819D02*
X132797731Y-94881819D01*
X132797731Y-94881819D02*
X132940588Y-94929438D01*
X133369160Y-95881819D02*
X133369160Y-94881819D01*
X133369160Y-94881819D02*
X133607255Y-94881819D01*
X133607255Y-94881819D02*
X133750112Y-94929438D01*
X133750112Y-94929438D02*
X133845350Y-95024676D01*
X133845350Y-95024676D02*
X133892969Y-95119914D01*
X133892969Y-95119914D02*
X133940588Y-95310390D01*
X133940588Y-95310390D02*
X133940588Y-95453247D01*
X133940588Y-95453247D02*
X133892969Y-95643723D01*
X133892969Y-95643723D02*
X133845350Y-95738961D01*
X133845350Y-95738961D02*
X133750112Y-95834200D01*
X133750112Y-95834200D02*
X133607255Y-95881819D01*
X133607255Y-95881819D02*
X133369160Y-95881819D01*
X134321541Y-95596104D02*
X134797731Y-95596104D01*
X134226303Y-95881819D02*
X134559636Y-94881819D01*
X134559636Y-94881819D02*
X134892969Y-95881819D01*
G36*
X138656904Y-87151847D02*
G01*
X138618961Y-87170819D01*
X138416276Y-87170819D01*
X138359234Y-87142298D01*
X138330714Y-87085256D01*
X138330714Y-87025428D01*
X138359234Y-86968386D01*
X138416276Y-86939866D01*
X138636666Y-86939866D01*
X138651298Y-86938425D01*
X138653787Y-86937393D01*
X138656475Y-86937203D01*
X138656904Y-86937038D01*
X138656904Y-87151847D01*
G37*
G36*
X139561666Y-86673123D02*
G01*
X139561666Y-87151847D01*
X139523723Y-87170819D01*
X139368657Y-87170819D01*
X139300141Y-87136561D01*
X139269734Y-87106153D01*
X139235476Y-87037637D01*
X139235476Y-86787333D01*
X139269734Y-86718817D01*
X139300141Y-86688410D01*
X139368657Y-86654152D01*
X139523723Y-86654152D01*
X139561666Y-86673123D01*
G37*
G36*
X140466428Y-86673123D02*
G01*
X140466428Y-87151847D01*
X140428485Y-87170819D01*
X140273419Y-87170819D01*
X140204903Y-87136561D01*
X140174496Y-87106153D01*
X140140238Y-87037637D01*
X140140238Y-86787333D01*
X140174496Y-86718817D01*
X140204903Y-86688410D01*
X140273419Y-86654152D01*
X140428485Y-86654152D01*
X140466428Y-86673123D01*
G37*
G36*
X141961717Y-86682672D02*
G01*
X141990238Y-86739714D01*
X141990238Y-86755762D01*
X141664048Y-86820999D01*
X141664048Y-86739714D01*
X141692568Y-86682672D01*
X141749610Y-86654152D01*
X141904676Y-86654152D01*
X141961717Y-86682672D01*
G37*
G36*
X142633095Y-85541903D02*
G01*
X142595152Y-85560875D01*
X142392467Y-85560875D01*
X142335425Y-85532354D01*
X142306905Y-85475312D01*
X142306905Y-85415484D01*
X142335425Y-85358442D01*
X142392467Y-85329922D01*
X142612857Y-85329922D01*
X142627489Y-85328481D01*
X142629978Y-85327449D01*
X142632666Y-85327259D01*
X142633095Y-85327094D01*
X142633095Y-85541903D01*
G37*
G36*
X144271241Y-85072728D02*
G01*
X144299762Y-85129770D01*
X144299762Y-85145818D01*
X143973572Y-85211055D01*
X143973572Y-85129770D01*
X144002092Y-85072728D01*
X144059134Y-85044208D01*
X144214200Y-85044208D01*
X144271241Y-85072728D01*
G37*
G36*
X144560873Y-87431930D02*
G01*
X137426746Y-87431930D01*
X137426746Y-87007723D01*
X138180714Y-87007723D01*
X138180714Y-87102961D01*
X138182155Y-87117593D01*
X138183186Y-87120082D01*
X138183377Y-87122770D01*
X138188632Y-87136502D01*
X138236251Y-87231741D01*
X138237791Y-87234187D01*
X138238176Y-87235342D01*
X138239422Y-87236779D01*
X138244083Y-87244183D01*
X138251185Y-87250342D01*
X138257349Y-87257450D01*
X138264754Y-87262111D01*
X138266191Y-87263357D01*
X138267344Y-87263741D01*
X138269792Y-87265282D01*
X138365030Y-87312901D01*
X138378761Y-87318156D01*
X138381450Y-87318347D01*
X138383939Y-87319378D01*
X138398571Y-87320819D01*
X138636666Y-87320819D01*
X138651298Y-87319378D01*
X138653787Y-87318346D01*
X138656475Y-87318156D01*
X138670207Y-87312901D01*
X138686707Y-87304650D01*
X138690236Y-87308179D01*
X138717272Y-87319378D01*
X138746536Y-87319378D01*
X138773572Y-87308179D01*
X138794264Y-87287487D01*
X138805463Y-87260451D01*
X138806904Y-87245819D01*
X138806904Y-86769628D01*
X139085476Y-86769628D01*
X139085476Y-87055342D01*
X139086917Y-87069974D01*
X139087948Y-87072463D01*
X139088139Y-87075151D01*
X139093394Y-87088883D01*
X139141013Y-87184121D01*
X139144976Y-87190417D01*
X139145734Y-87192247D01*
X139147423Y-87194305D01*
X139148845Y-87196564D01*
X139150343Y-87197863D01*
X139155061Y-87203612D01*
X139202680Y-87251232D01*
X139208429Y-87255950D01*
X139209730Y-87257450D01*
X139211989Y-87258872D01*
X139214046Y-87260560D01*
X139215873Y-87261317D01*
X139222173Y-87265282D01*
X139317411Y-87312901D01*
X139331142Y-87318156D01*
X139333831Y-87318347D01*
X139336320Y-87319378D01*
X139350952Y-87320819D01*
X139541428Y-87320819D01*
X139556060Y-87319378D01*
X139558549Y-87318346D01*
X139561237Y-87318156D01*
X139574969Y-87312901D01*
X139591469Y-87304650D01*
X139594998Y-87308179D01*
X139622034Y-87319378D01*
X139651298Y-87319378D01*
X139678334Y-87308179D01*
X139699026Y-87287487D01*
X139710225Y-87260451D01*
X139711666Y-87245819D01*
X139711666Y-86769628D01*
X139990238Y-86769628D01*
X139990238Y-87055342D01*
X139991679Y-87069974D01*
X139992710Y-87072463D01*
X139992901Y-87075151D01*
X139998156Y-87088883D01*
X140045775Y-87184121D01*
X140049738Y-87190417D01*
X140050496Y-87192247D01*
X140052185Y-87194305D01*
X140053607Y-87196564D01*
X140055105Y-87197863D01*
X140059823Y-87203612D01*
X140107442Y-87251232D01*
X140113191Y-87255950D01*
X140114492Y-87257450D01*
X140116751Y-87258872D01*
X140118808Y-87260560D01*
X140120635Y-87261317D01*
X140126935Y-87265282D01*
X140222173Y-87312901D01*
X140235904Y-87318156D01*
X140238593Y-87318347D01*
X140241082Y-87319378D01*
X140255714Y-87320819D01*
X140446190Y-87320819D01*
X140460822Y-87319378D01*
X140463311Y-87318346D01*
X140465999Y-87318156D01*
X140479731Y-87312901D01*
X140496231Y-87304650D01*
X140499760Y-87308179D01*
X140526796Y-87319378D01*
X140556060Y-87319378D01*
X140583096Y-87308179D01*
X140603788Y-87287487D01*
X140614987Y-87260451D01*
X140616428Y-87245819D01*
X140616428Y-86579152D01*
X140942619Y-86579152D01*
X140942619Y-87245819D01*
X140944060Y-87260451D01*
X140955259Y-87287487D01*
X140975951Y-87308179D01*
X141002987Y-87319378D01*
X141032251Y-87319378D01*
X141059287Y-87308179D01*
X141079979Y-87287487D01*
X141091178Y-87260451D01*
X141092619Y-87245819D01*
X141092619Y-86787333D01*
X141125281Y-86722009D01*
X141514048Y-86722009D01*
X141514048Y-87102961D01*
X141515489Y-87117593D01*
X141516520Y-87120082D01*
X141516711Y-87122770D01*
X141521966Y-87136502D01*
X141569585Y-87231741D01*
X141571125Y-87234187D01*
X141571510Y-87235342D01*
X141572756Y-87236779D01*
X141577417Y-87244183D01*
X141584519Y-87250342D01*
X141590683Y-87257450D01*
X141598088Y-87262111D01*
X141599525Y-87263357D01*
X141600678Y-87263741D01*
X141603126Y-87265282D01*
X141698364Y-87312901D01*
X141712095Y-87318156D01*
X141714784Y-87318347D01*
X141717273Y-87319378D01*
X141731905Y-87320819D01*
X141922381Y-87320819D01*
X141937013Y-87319378D01*
X141939502Y-87318346D01*
X141942190Y-87318156D01*
X141955922Y-87312901D01*
X142051160Y-87265282D01*
X142063603Y-87257450D01*
X142082776Y-87235342D01*
X142092030Y-87207581D01*
X142089956Y-87178391D01*
X142076868Y-87152216D01*
X142054761Y-87133043D01*
X142026999Y-87123789D01*
X141997809Y-87125863D01*
X141984078Y-87131118D01*
X141904676Y-87170819D01*
X141749610Y-87170819D01*
X141692568Y-87142298D01*
X141664048Y-87085256D01*
X141664048Y-86973970D01*
X142079946Y-86890791D01*
X142094012Y-86886508D01*
X142100117Y-86882419D01*
X142106906Y-86879607D01*
X142112158Y-86874354D01*
X142118326Y-86870224D01*
X142122400Y-86864113D01*
X142127598Y-86858915D01*
X142130441Y-86852051D01*
X142134558Y-86845876D01*
X142135983Y-86838670D01*
X142138797Y-86831879D01*
X142140238Y-86817247D01*
X142140238Y-86722009D01*
X142371191Y-86722009D01*
X142371191Y-86769628D01*
X142372632Y-86784260D01*
X142373663Y-86786749D01*
X142373854Y-86789437D01*
X142379109Y-86803169D01*
X142426728Y-86898407D01*
X142428268Y-86900854D01*
X142428653Y-86902008D01*
X142429898Y-86903444D01*
X142434560Y-86910850D01*
X142441664Y-86917011D01*
X142447826Y-86924116D01*
X142455231Y-86928777D01*
X142456668Y-86930023D01*
X142457821Y-86930407D01*
X142460269Y-86931948D01*
X142555507Y-86979567D01*
X142569238Y-86984822D01*
X142571927Y-86985013D01*
X142574416Y-86986044D01*
X142589048Y-86987485D01*
X142714200Y-86987485D01*
X142771241Y-87016005D01*
X142799762Y-87073047D01*
X142799762Y-87085256D01*
X142771241Y-87142298D01*
X142714200Y-87170819D01*
X142559134Y-87170819D01*
X142479732Y-87131118D01*
X142466000Y-87125863D01*
X142436810Y-87123789D01*
X142409049Y-87133043D01*
X142386941Y-87152216D01*
X142373854Y-87178391D01*
X142371780Y-87207581D01*
X142381034Y-87235342D01*
X142400207Y-87257450D01*
X142412650Y-87265282D01*
X142507888Y-87312901D01*
X142521619Y-87318156D01*
X142524308Y-87318347D01*
X142526797Y-87319378D01*
X142541429Y-87320819D01*
X142731905Y-87320819D01*
X142746537Y-87319378D01*
X142749026Y-87318346D01*
X142751714Y-87318156D01*
X142765446Y-87312901D01*
X142860684Y-87265282D01*
X142863131Y-87263741D01*
X142864285Y-87263357D01*
X142865721Y-87262111D01*
X142873127Y-87257450D01*
X142879288Y-87250345D01*
X142886393Y-87244184D01*
X142891054Y-87236778D01*
X142892300Y-87235342D01*
X142892684Y-87234188D01*
X142894225Y-87231741D01*
X142941844Y-87136502D01*
X142947099Y-87122770D01*
X142947289Y-87120082D01*
X142948321Y-87117593D01*
X142949762Y-87102961D01*
X142949762Y-87055342D01*
X142948321Y-87040710D01*
X142947290Y-87038221D01*
X142947099Y-87035532D01*
X142941844Y-87021801D01*
X142894225Y-86926563D01*
X142892684Y-86924115D01*
X142892300Y-86922962D01*
X142891054Y-86921525D01*
X142886393Y-86914120D01*
X142879288Y-86907958D01*
X142873127Y-86900854D01*
X142865721Y-86896192D01*
X142864285Y-86894947D01*
X142863131Y-86894562D01*
X142860684Y-86893022D01*
X142765446Y-86845403D01*
X142751714Y-86840148D01*
X142749026Y-86839957D01*
X142746537Y-86838926D01*
X142731905Y-86837485D01*
X142606753Y-86837485D01*
X142549711Y-86808964D01*
X142521191Y-86751923D01*
X142521191Y-86739714D01*
X142530043Y-86722009D01*
X143180715Y-86722009D01*
X143180715Y-86769628D01*
X143182156Y-86784260D01*
X143183187Y-86786749D01*
X143183378Y-86789437D01*
X143188633Y-86803169D01*
X143236252Y-86898407D01*
X143237792Y-86900854D01*
X143238177Y-86902008D01*
X143239422Y-86903444D01*
X143244084Y-86910850D01*
X143251188Y-86917011D01*
X143257350Y-86924116D01*
X143264755Y-86928777D01*
X143266192Y-86930023D01*
X143267345Y-86930407D01*
X143269793Y-86931948D01*
X143365031Y-86979567D01*
X143378762Y-86984822D01*
X143381451Y-86985013D01*
X143383940Y-86986044D01*
X143398572Y-86987485D01*
X143523724Y-86987485D01*
X143580765Y-87016005D01*
X143609286Y-87073047D01*
X143609286Y-87085256D01*
X143580765Y-87142298D01*
X143523724Y-87170819D01*
X143368658Y-87170819D01*
X143289256Y-87131118D01*
X143275524Y-87125863D01*
X143246334Y-87123789D01*
X143218573Y-87133043D01*
X143196465Y-87152216D01*
X143183378Y-87178391D01*
X143181304Y-87207581D01*
X143190558Y-87235342D01*
X143209731Y-87257450D01*
X143222174Y-87265282D01*
X143317412Y-87312901D01*
X143331143Y-87318156D01*
X143333832Y-87318347D01*
X143336321Y-87319378D01*
X143350953Y-87320819D01*
X143541429Y-87320819D01*
X143556061Y-87319378D01*
X143558550Y-87318346D01*
X143561238Y-87318156D01*
X143574970Y-87312901D01*
X143670208Y-87265282D01*
X143672655Y-87263741D01*
X143673809Y-87263357D01*
X143675245Y-87262111D01*
X143682651Y-87257450D01*
X143688812Y-87250345D01*
X143695917Y-87244184D01*
X143700578Y-87236778D01*
X143701824Y-87235342D01*
X143702208Y-87234188D01*
X143703749Y-87231741D01*
X143751368Y-87136502D01*
X143756623Y-87122770D01*
X143756813Y-87120082D01*
X143757845Y-87117593D01*
X143759286Y-87102961D01*
X143759286Y-87055342D01*
X143757845Y-87040710D01*
X143756814Y-87038221D01*
X143756623Y-87035532D01*
X143751368Y-87021801D01*
X143703749Y-86926563D01*
X143702208Y-86924115D01*
X143701824Y-86922962D01*
X143700578Y-86921525D01*
X143695917Y-86914120D01*
X143688812Y-86907958D01*
X143682651Y-86900854D01*
X143675245Y-86896192D01*
X143673809Y-86894947D01*
X143672655Y-86894562D01*
X143670208Y-86893022D01*
X143574970Y-86845403D01*
X143561238Y-86840148D01*
X143558550Y-86839957D01*
X143556061Y-86838926D01*
X143541429Y-86837485D01*
X143416277Y-86837485D01*
X143359235Y-86808964D01*
X143330715Y-86751923D01*
X143330715Y-86739714D01*
X143359235Y-86682672D01*
X143416277Y-86654152D01*
X143523724Y-86654152D01*
X143603126Y-86693853D01*
X143616857Y-86699108D01*
X143646047Y-86701182D01*
X143673809Y-86691928D01*
X143695916Y-86672755D01*
X143709004Y-86646580D01*
X143711078Y-86617390D01*
X143701824Y-86589629D01*
X143682651Y-86567521D01*
X143670208Y-86559689D01*
X143574970Y-86512070D01*
X143561238Y-86506815D01*
X143558550Y-86506624D01*
X143556061Y-86505593D01*
X143541429Y-86504152D01*
X143398572Y-86504152D01*
X143383940Y-86505593D01*
X143381451Y-86506623D01*
X143378762Y-86506815D01*
X143365031Y-86512070D01*
X143269793Y-86559689D01*
X143267345Y-86561229D01*
X143266192Y-86561614D01*
X143264755Y-86562859D01*
X143257350Y-86567521D01*
X143251188Y-86574625D01*
X143244084Y-86580787D01*
X143239422Y-86588192D01*
X143238177Y-86589629D01*
X143237792Y-86590782D01*
X143236252Y-86593230D01*
X143188633Y-86688468D01*
X143183378Y-86702200D01*
X143183187Y-86704887D01*
X143182156Y-86707377D01*
X143180715Y-86722009D01*
X142530043Y-86722009D01*
X142549711Y-86682672D01*
X142606753Y-86654152D01*
X142714200Y-86654152D01*
X142793602Y-86693853D01*
X142807333Y-86699108D01*
X142836523Y-86701182D01*
X142864285Y-86691928D01*
X142886392Y-86672755D01*
X142899480Y-86646580D01*
X142901554Y-86617390D01*
X142892300Y-86589629D01*
X142873127Y-86567521D01*
X142860684Y-86559689D01*
X142765446Y-86512070D01*
X142751714Y-86506815D01*
X142749026Y-86506624D01*
X142746537Y-86505593D01*
X142731905Y-86504152D01*
X142589048Y-86504152D01*
X142574416Y-86505593D01*
X142571927Y-86506623D01*
X142569238Y-86506815D01*
X142555507Y-86512070D01*
X142460269Y-86559689D01*
X142457821Y-86561229D01*
X142456668Y-86561614D01*
X142455231Y-86562859D01*
X142447826Y-86567521D01*
X142441664Y-86574625D01*
X142434560Y-86580787D01*
X142429898Y-86588192D01*
X142428653Y-86589629D01*
X142428268Y-86590782D01*
X142426728Y-86593230D01*
X142379109Y-86688468D01*
X142373854Y-86702200D01*
X142373663Y-86704887D01*
X142372632Y-86707377D01*
X142371191Y-86722009D01*
X142140238Y-86722009D01*
X142138797Y-86707377D01*
X142137766Y-86704888D01*
X142137575Y-86702199D01*
X142132320Y-86688468D01*
X142084701Y-86593230D01*
X142083160Y-86590782D01*
X142082776Y-86589629D01*
X142081530Y-86588192D01*
X142076869Y-86580787D01*
X142069764Y-86574625D01*
X142063603Y-86567521D01*
X142056197Y-86562859D01*
X142054761Y-86561614D01*
X142053607Y-86561229D01*
X142051160Y-86559689D01*
X141955922Y-86512070D01*
X141942190Y-86506815D01*
X141939502Y-86506624D01*
X141937013Y-86505593D01*
X141922381Y-86504152D01*
X141731905Y-86504152D01*
X141717273Y-86505593D01*
X141714784Y-86506623D01*
X141712095Y-86506815D01*
X141698364Y-86512070D01*
X141603126Y-86559689D01*
X141600678Y-86561229D01*
X141599525Y-86561614D01*
X141598088Y-86562859D01*
X141590683Y-86567521D01*
X141584521Y-86574625D01*
X141577417Y-86580787D01*
X141572755Y-86588192D01*
X141571510Y-86589629D01*
X141571125Y-86590782D01*
X141569585Y-86593230D01*
X141521966Y-86688468D01*
X141516711Y-86702200D01*
X141516520Y-86704887D01*
X141515489Y-86707377D01*
X141514048Y-86722009D01*
X141125281Y-86722009D01*
X141126877Y-86718817D01*
X141157284Y-86688410D01*
X141225800Y-86654152D01*
X141303333Y-86654152D01*
X141317965Y-86652711D01*
X141345001Y-86641512D01*
X141365693Y-86620820D01*
X141376892Y-86593784D01*
X141376892Y-86564520D01*
X141365693Y-86537484D01*
X141345001Y-86516792D01*
X141317965Y-86505593D01*
X141303333Y-86504152D01*
X141208095Y-86504152D01*
X141193463Y-86505593D01*
X141190974Y-86506623D01*
X141188285Y-86506815D01*
X141174554Y-86512070D01*
X141087484Y-86555604D01*
X141079979Y-86537484D01*
X141059287Y-86516792D01*
X141032251Y-86505593D01*
X141002987Y-86505593D01*
X140975951Y-86516792D01*
X140955259Y-86537484D01*
X140944060Y-86564520D01*
X140942619Y-86579152D01*
X140616428Y-86579152D01*
X140616428Y-86245819D01*
X140614987Y-86231187D01*
X140603788Y-86204151D01*
X140583096Y-86183459D01*
X140556060Y-86172260D01*
X140526796Y-86172260D01*
X140499760Y-86183459D01*
X140479068Y-86204151D01*
X140467869Y-86231187D01*
X140466428Y-86245819D01*
X140466428Y-86506979D01*
X140465999Y-86506815D01*
X140463311Y-86506624D01*
X140460822Y-86505593D01*
X140446190Y-86504152D01*
X140255714Y-86504152D01*
X140241082Y-86505593D01*
X140238593Y-86506623D01*
X140235904Y-86506815D01*
X140222173Y-86512070D01*
X140126935Y-86559689D01*
X140120635Y-86563653D01*
X140118808Y-86564411D01*
X140116751Y-86566099D01*
X140114492Y-86567521D01*
X140113192Y-86569019D01*
X140107443Y-86573738D01*
X140059824Y-86621357D01*
X140055105Y-86627106D01*
X140053607Y-86628406D01*
X140052185Y-86630665D01*
X140050497Y-86632722D01*
X140049739Y-86634549D01*
X140045775Y-86640849D01*
X139998156Y-86736087D01*
X139992901Y-86749819D01*
X139992710Y-86752506D01*
X139991679Y-86754996D01*
X139990238Y-86769628D01*
X139711666Y-86769628D01*
X139711666Y-86245819D01*
X139710225Y-86231187D01*
X139699026Y-86204151D01*
X139678334Y-86183459D01*
X139651298Y-86172260D01*
X139622034Y-86172260D01*
X139594998Y-86183459D01*
X139574306Y-86204151D01*
X139563107Y-86231187D01*
X139561666Y-86245819D01*
X139561666Y-86506979D01*
X139561237Y-86506815D01*
X139558549Y-86506624D01*
X139556060Y-86505593D01*
X139541428Y-86504152D01*
X139350952Y-86504152D01*
X139336320Y-86505593D01*
X139333831Y-86506623D01*
X139331142Y-86506815D01*
X139317411Y-86512070D01*
X139222173Y-86559689D01*
X139215873Y-86563653D01*
X139214046Y-86564411D01*
X139211989Y-86566099D01*
X139209730Y-86567521D01*
X139208430Y-86569019D01*
X139202681Y-86573738D01*
X139155062Y-86621357D01*
X139150343Y-86627106D01*
X139148845Y-86628406D01*
X139147423Y-86630665D01*
X139145735Y-86632722D01*
X139144977Y-86634549D01*
X139141013Y-86640849D01*
X139093394Y-86736087D01*
X139088139Y-86749819D01*
X139087948Y-86752506D01*
X139086917Y-86754996D01*
X139085476Y-86769628D01*
X138806904Y-86769628D01*
X138806904Y-86722009D01*
X138805463Y-86707377D01*
X138804432Y-86704888D01*
X138804241Y-86702199D01*
X138798986Y-86688468D01*
X138751367Y-86593230D01*
X138749826Y-86590782D01*
X138749442Y-86589629D01*
X138748196Y-86588192D01*
X138743535Y-86580787D01*
X138736430Y-86574625D01*
X138730269Y-86567521D01*
X138722863Y-86562859D01*
X138721427Y-86561614D01*
X138720273Y-86561229D01*
X138717826Y-86559689D01*
X138622588Y-86512070D01*
X138608856Y-86506815D01*
X138606168Y-86506624D01*
X138603679Y-86505593D01*
X138589047Y-86504152D01*
X138398571Y-86504152D01*
X138383939Y-86505593D01*
X138381450Y-86506623D01*
X138378761Y-86506815D01*
X138365030Y-86512070D01*
X138269792Y-86559689D01*
X138257349Y-86567521D01*
X138238176Y-86589629D01*
X138228922Y-86617390D01*
X138230996Y-86646580D01*
X138244083Y-86672755D01*
X138266191Y-86691928D01*
X138293952Y-86701182D01*
X138323142Y-86699108D01*
X138336874Y-86693853D01*
X138416276Y-86654152D01*
X138571342Y-86654152D01*
X138628383Y-86682672D01*
X138656904Y-86739714D01*
X138656904Y-86770894D01*
X138618961Y-86789866D01*
X138398571Y-86789866D01*
X138383939Y-86791307D01*
X138381450Y-86792337D01*
X138378761Y-86792529D01*
X138365030Y-86797784D01*
X138269792Y-86845403D01*
X138267344Y-86846943D01*
X138266191Y-86847328D01*
X138264754Y-86848573D01*
X138257349Y-86853235D01*
X138251187Y-86860339D01*
X138244083Y-86866501D01*
X138239421Y-86873906D01*
X138238176Y-86875343D01*
X138237791Y-86876496D01*
X138236251Y-86878944D01*
X138188632Y-86974182D01*
X138183377Y-86987914D01*
X138183186Y-86990601D01*
X138182155Y-86993091D01*
X138180714Y-87007723D01*
X137426746Y-87007723D01*
X137426746Y-84635875D01*
X137537857Y-84635875D01*
X137537857Y-85635875D01*
X137539298Y-85650507D01*
X137550497Y-85677543D01*
X137571189Y-85698235D01*
X137598225Y-85709434D01*
X137627489Y-85709434D01*
X137654525Y-85698235D01*
X137675217Y-85677543D01*
X137686416Y-85650507D01*
X137687857Y-85635875D01*
X137687857Y-85621243D01*
X137920250Y-85621243D01*
X137920250Y-85650507D01*
X137931449Y-85677543D01*
X137952141Y-85698235D01*
X137979177Y-85709434D01*
X137993809Y-85710875D01*
X138612856Y-85710875D01*
X138627488Y-85709434D01*
X138654524Y-85698235D01*
X138675216Y-85677543D01*
X138686415Y-85650507D01*
X138686415Y-85621243D01*
X138675216Y-85594207D01*
X138654524Y-85573515D01*
X138627488Y-85562316D01*
X138612856Y-85560875D01*
X138174875Y-85560875D01*
X138618270Y-85117479D01*
X138627598Y-85106114D01*
X138628629Y-85103623D01*
X138630394Y-85101589D01*
X138636388Y-85088163D01*
X138644294Y-85064446D01*
X138918809Y-85064446D01*
X138918809Y-85207303D01*
X138919060Y-85209856D01*
X138918898Y-85210949D01*
X138919707Y-85216422D01*
X138920250Y-85221935D01*
X138920672Y-85222956D01*
X138921048Y-85225493D01*
X138968667Y-85415969D01*
X138969052Y-85417048D01*
X138969091Y-85417588D01*
X138971418Y-85423669D01*
X138973614Y-85429815D01*
X138973936Y-85430250D01*
X138974346Y-85431320D01*
X139021965Y-85526558D01*
X139025928Y-85532854D01*
X139026686Y-85534684D01*
X139028375Y-85536742D01*
X139029797Y-85539001D01*
X139031295Y-85540300D01*
X139036014Y-85546050D01*
X139131252Y-85641289D01*
X139142617Y-85650617D01*
X139145107Y-85651648D01*
X139147142Y-85653413D01*
X139160568Y-85659407D01*
X139303424Y-85707026D01*
X139310679Y-85708675D01*
X139312510Y-85709434D01*
X139315163Y-85709695D01*
X139317761Y-85710286D01*
X139319735Y-85710145D01*
X139327142Y-85710875D01*
X139422380Y-85710875D01*
X139429785Y-85710145D01*
X139431760Y-85710286D01*
X139434357Y-85709695D01*
X139437012Y-85709434D01*
X139438843Y-85708675D01*
X139446097Y-85707026D01*
X139588954Y-85659407D01*
X139602379Y-85653413D01*
X139604414Y-85651647D01*
X139606905Y-85650616D01*
X139618271Y-85641288D01*
X139665889Y-85593669D01*
X139675217Y-85582303D01*
X139686415Y-85555267D01*
X139686415Y-85526004D01*
X139675216Y-85498968D01*
X139654523Y-85478275D01*
X139627487Y-85467077D01*
X139598224Y-85467077D01*
X139571188Y-85478276D01*
X139559822Y-85487604D01*
X139524723Y-85522703D01*
X139410210Y-85560875D01*
X139339312Y-85560875D01*
X139224799Y-85522704D01*
X139150686Y-85448590D01*
X139112192Y-85371603D01*
X139068809Y-85198069D01*
X139068809Y-85073680D01*
X139112192Y-84900146D01*
X139149090Y-84826351D01*
X140680714Y-84826351D01*
X140680714Y-84921589D01*
X140682155Y-84936221D01*
X140683186Y-84938710D01*
X140683377Y-84941398D01*
X140688632Y-84955130D01*
X140736251Y-85050368D01*
X140740215Y-85056667D01*
X140740973Y-85058495D01*
X140742661Y-85060551D01*
X140744083Y-85062811D01*
X140745581Y-85064110D01*
X140750300Y-85069860D01*
X140797919Y-85117479D01*
X140803668Y-85122197D01*
X140804968Y-85123696D01*
X140807227Y-85125117D01*
X140809284Y-85126806D01*
X140811111Y-85127563D01*
X140817411Y-85131528D01*
X140912649Y-85179147D01*
X140913718Y-85179556D01*
X140914154Y-85179879D01*
X140920290Y-85182071D01*
X140926380Y-85184402D01*
X140926920Y-85184440D01*
X140928000Y-85184826D01*
X141110490Y-85230448D01*
X141187477Y-85268942D01*
X141217884Y-85299349D01*
X141252142Y-85367865D01*
X141252142Y-85427693D01*
X141217883Y-85496209D01*
X141187476Y-85526617D01*
X141118961Y-85560875D01*
X140910741Y-85560875D01*
X140779431Y-85517105D01*
X140765094Y-85513845D01*
X140735904Y-85515920D01*
X140709731Y-85529006D01*
X140690557Y-85551113D01*
X140681303Y-85578876D01*
X140683378Y-85608066D01*
X140696464Y-85634239D01*
X140718571Y-85653413D01*
X140731997Y-85659407D01*
X140874853Y-85707026D01*
X140882108Y-85708675D01*
X140883939Y-85709434D01*
X140886592Y-85709695D01*
X140889190Y-85710286D01*
X140891164Y-85710145D01*
X140898571Y-85710875D01*
X141136666Y-85710875D01*
X141151298Y-85709434D01*
X141153787Y-85708402D01*
X141156475Y-85708212D01*
X141170207Y-85702957D01*
X141265445Y-85655338D01*
X141271744Y-85651373D01*
X141273572Y-85650616D01*
X141275628Y-85648928D01*
X141277888Y-85647506D01*
X141279188Y-85646006D01*
X141284938Y-85641288D01*
X141332556Y-85593669D01*
X141337274Y-85587919D01*
X141338773Y-85586620D01*
X141340194Y-85584361D01*
X141341884Y-85582303D01*
X141342641Y-85580473D01*
X141346605Y-85574177D01*
X141394224Y-85478939D01*
X141399479Y-85465208D01*
X141399670Y-85462518D01*
X141400701Y-85460030D01*
X141402142Y-85445398D01*
X141402142Y-85350160D01*
X141400701Y-85335528D01*
X141399670Y-85333039D01*
X141399479Y-85330350D01*
X141394224Y-85316619D01*
X141346605Y-85221381D01*
X141342640Y-85215081D01*
X141341883Y-85213254D01*
X141340194Y-85211197D01*
X141338773Y-85208938D01*
X141337274Y-85207638D01*
X141332556Y-85201889D01*
X141284937Y-85154270D01*
X141279187Y-85149551D01*
X141277888Y-85148053D01*
X141275628Y-85146631D01*
X141273572Y-85144943D01*
X141271744Y-85144185D01*
X141265445Y-85140221D01*
X141170207Y-85092602D01*
X141169137Y-85092192D01*
X141168702Y-85091870D01*
X141162556Y-85089674D01*
X141156475Y-85087347D01*
X141155935Y-85087308D01*
X141154856Y-85086923D01*
X140972366Y-85041300D01*
X140895379Y-85002807D01*
X140864972Y-84972400D01*
X140830714Y-84903884D01*
X140830714Y-84844056D01*
X140864972Y-84775540D01*
X140895379Y-84745133D01*
X140963895Y-84710875D01*
X141172115Y-84710875D01*
X141303424Y-84754645D01*
X141317761Y-84757905D01*
X141346951Y-84755830D01*
X141373125Y-84742744D01*
X141392299Y-84720636D01*
X141401553Y-84692874D01*
X141399478Y-84663684D01*
X141386391Y-84637511D01*
X141384505Y-84635875D01*
X141680714Y-84635875D01*
X141680714Y-85493017D01*
X141682155Y-85507649D01*
X141683186Y-85510138D01*
X141683377Y-85512826D01*
X141688632Y-85526558D01*
X141736251Y-85621797D01*
X141737791Y-85624243D01*
X141738176Y-85625398D01*
X141739422Y-85626835D01*
X141744083Y-85634239D01*
X141751185Y-85640398D01*
X141757349Y-85647506D01*
X141764754Y-85652167D01*
X141766191Y-85653413D01*
X141767344Y-85653797D01*
X141769792Y-85655338D01*
X141865030Y-85702957D01*
X141878761Y-85708212D01*
X141907951Y-85710286D01*
X141935713Y-85701032D01*
X141957820Y-85681859D01*
X141970908Y-85655684D01*
X141972982Y-85626494D01*
X141963728Y-85598733D01*
X141944555Y-85576625D01*
X141932112Y-85568793D01*
X141859234Y-85532354D01*
X141830714Y-85475312D01*
X141830714Y-85397779D01*
X142156905Y-85397779D01*
X142156905Y-85493017D01*
X142158346Y-85507649D01*
X142159377Y-85510138D01*
X142159568Y-85512826D01*
X142164823Y-85526558D01*
X142212442Y-85621797D01*
X142213982Y-85624243D01*
X142214367Y-85625398D01*
X142215613Y-85626835D01*
X142220274Y-85634239D01*
X142227376Y-85640398D01*
X142233540Y-85647506D01*
X142240945Y-85652167D01*
X142242382Y-85653413D01*
X142243535Y-85653797D01*
X142245983Y-85655338D01*
X142341221Y-85702957D01*
X142354952Y-85708212D01*
X142357641Y-85708403D01*
X142360130Y-85709434D01*
X142374762Y-85710875D01*
X142612857Y-85710875D01*
X142627489Y-85709434D01*
X142629978Y-85708402D01*
X142632666Y-85708212D01*
X142646398Y-85702957D01*
X142662898Y-85694706D01*
X142666427Y-85698235D01*
X142693463Y-85709434D01*
X142722727Y-85709434D01*
X142749763Y-85698235D01*
X142770455Y-85677543D01*
X142781654Y-85650507D01*
X142783095Y-85635875D01*
X142783095Y-85112065D01*
X142781654Y-85097433D01*
X142780623Y-85094944D01*
X142780432Y-85092255D01*
X142775177Y-85078524D01*
X142727558Y-84983286D01*
X142726017Y-84980838D01*
X142725794Y-84980169D01*
X143014853Y-84980169D01*
X143018417Y-84994433D01*
X143256512Y-85661100D01*
X143262791Y-85674395D01*
X143265317Y-85677185D01*
X143266929Y-85680588D01*
X143275064Y-85687953D01*
X143282430Y-85696089D01*
X143285832Y-85697700D01*
X143288623Y-85700227D01*
X143298960Y-85703918D01*
X143308876Y-85708616D01*
X143312634Y-85708802D01*
X143316182Y-85710070D01*
X143327143Y-85709524D01*
X143338104Y-85710070D01*
X143341651Y-85708802D01*
X143345410Y-85708616D01*
X143355325Y-85703918D01*
X143365663Y-85700227D01*
X143368453Y-85697700D01*
X143371856Y-85696089D01*
X143379224Y-85687949D01*
X143387357Y-85680587D01*
X143388967Y-85677186D01*
X143391495Y-85674395D01*
X143397774Y-85661100D01*
X143593858Y-85112065D01*
X143823572Y-85112065D01*
X143823572Y-85493017D01*
X143825013Y-85507649D01*
X143826044Y-85510138D01*
X143826235Y-85512826D01*
X143831490Y-85526558D01*
X143879109Y-85621797D01*
X143880649Y-85624243D01*
X143881034Y-85625398D01*
X143882280Y-85626835D01*
X143886941Y-85634239D01*
X143894043Y-85640398D01*
X143900207Y-85647506D01*
X143907612Y-85652167D01*
X143909049Y-85653413D01*
X143910202Y-85653797D01*
X143912650Y-85655338D01*
X144007888Y-85702957D01*
X144021619Y-85708212D01*
X144024308Y-85708403D01*
X144026797Y-85709434D01*
X144041429Y-85710875D01*
X144231905Y-85710875D01*
X144246537Y-85709434D01*
X144249026Y-85708402D01*
X144251714Y-85708212D01*
X144265446Y-85702957D01*
X144360684Y-85655338D01*
X144373127Y-85647506D01*
X144392300Y-85625398D01*
X144401554Y-85597637D01*
X144399480Y-85568447D01*
X144386392Y-85542272D01*
X144364285Y-85523099D01*
X144336523Y-85513845D01*
X144307333Y-85515919D01*
X144293602Y-85521174D01*
X144214200Y-85560875D01*
X144059134Y-85560875D01*
X144002092Y-85532354D01*
X143973572Y-85475312D01*
X143973572Y-85364026D01*
X144389470Y-85280847D01*
X144403536Y-85276564D01*
X144409641Y-85272475D01*
X144416430Y-85269663D01*
X144421682Y-85264410D01*
X144427850Y-85260280D01*
X144431924Y-85254169D01*
X144437122Y-85248971D01*
X144439965Y-85242107D01*
X144444082Y-85235932D01*
X144445507Y-85228726D01*
X144448321Y-85221935D01*
X144449762Y-85207303D01*
X144449762Y-85112065D01*
X144448321Y-85097433D01*
X144447290Y-85094944D01*
X144447099Y-85092255D01*
X144441844Y-85078524D01*
X144394225Y-84983286D01*
X144392684Y-84980838D01*
X144392300Y-84979685D01*
X144391054Y-84978248D01*
X144386393Y-84970843D01*
X144379288Y-84964681D01*
X144373127Y-84957577D01*
X144365721Y-84952915D01*
X144364285Y-84951670D01*
X144363131Y-84951285D01*
X144360684Y-84949745D01*
X144265446Y-84902126D01*
X144251714Y-84896871D01*
X144249026Y-84896680D01*
X144246537Y-84895649D01*
X144231905Y-84894208D01*
X144041429Y-84894208D01*
X144026797Y-84895649D01*
X144024308Y-84896679D01*
X144021619Y-84896871D01*
X144007888Y-84902126D01*
X143912650Y-84949745D01*
X143910202Y-84951285D01*
X143909049Y-84951670D01*
X143907612Y-84952915D01*
X143900207Y-84957577D01*
X143894045Y-84964681D01*
X143886941Y-84970843D01*
X143882279Y-84978248D01*
X143881034Y-84979685D01*
X143880649Y-84980838D01*
X143879109Y-84983286D01*
X143831490Y-85078524D01*
X143826235Y-85092256D01*
X143826044Y-85094943D01*
X143825013Y-85097433D01*
X143823572Y-85112065D01*
X143593858Y-85112065D01*
X143635869Y-84994433D01*
X143639433Y-84980169D01*
X143637979Y-84950942D01*
X143625452Y-84924496D01*
X143603758Y-84904856D01*
X143576199Y-84895013D01*
X143546971Y-84896467D01*
X143520525Y-84908994D01*
X143500886Y-84930688D01*
X143494607Y-84943983D01*
X143327143Y-85412882D01*
X143159679Y-84943983D01*
X143153400Y-84930688D01*
X143133761Y-84908994D01*
X143107315Y-84896467D01*
X143078087Y-84895013D01*
X143050528Y-84904856D01*
X143028834Y-84924495D01*
X143016307Y-84950941D01*
X143014853Y-84980169D01*
X142725794Y-84980169D01*
X142725633Y-84979685D01*
X142724387Y-84978248D01*
X142719726Y-84970843D01*
X142712621Y-84964681D01*
X142706460Y-84957577D01*
X142699054Y-84952915D01*
X142697618Y-84951670D01*
X142696464Y-84951285D01*
X142694017Y-84949745D01*
X142598779Y-84902126D01*
X142585047Y-84896871D01*
X142582359Y-84896680D01*
X142579870Y-84895649D01*
X142565238Y-84894208D01*
X142374762Y-84894208D01*
X142360130Y-84895649D01*
X142357641Y-84896679D01*
X142354952Y-84896871D01*
X142341221Y-84902126D01*
X142245983Y-84949745D01*
X142233540Y-84957577D01*
X142214367Y-84979685D01*
X142205113Y-85007446D01*
X142207187Y-85036636D01*
X142220274Y-85062811D01*
X142242382Y-85081984D01*
X142270143Y-85091238D01*
X142299333Y-85089164D01*
X142313065Y-85083909D01*
X142392467Y-85044208D01*
X142547533Y-85044208D01*
X142604574Y-85072728D01*
X142633095Y-85129770D01*
X142633095Y-85160950D01*
X142595152Y-85179922D01*
X142374762Y-85179922D01*
X142360130Y-85181363D01*
X142357641Y-85182393D01*
X142354952Y-85182585D01*
X142341221Y-85187840D01*
X142245983Y-85235459D01*
X142243535Y-85236999D01*
X142242382Y-85237384D01*
X142240945Y-85238629D01*
X142233540Y-85243291D01*
X142227378Y-85250395D01*
X142220274Y-85256557D01*
X142215612Y-85263962D01*
X142214367Y-85265399D01*
X142213982Y-85266552D01*
X142212442Y-85269000D01*
X142164823Y-85364238D01*
X142159568Y-85377970D01*
X142159377Y-85380657D01*
X142158346Y-85383147D01*
X142156905Y-85397779D01*
X141830714Y-85397779D01*
X141830714Y-84635875D01*
X141829273Y-84621243D01*
X141818074Y-84594207D01*
X141797382Y-84573515D01*
X141770346Y-84562316D01*
X141741082Y-84562316D01*
X141714046Y-84573515D01*
X141693354Y-84594207D01*
X141682155Y-84621243D01*
X141680714Y-84635875D01*
X141384505Y-84635875D01*
X141364284Y-84618337D01*
X141350859Y-84612343D01*
X141208002Y-84564724D01*
X141200748Y-84563074D01*
X141198917Y-84562316D01*
X141196262Y-84562054D01*
X141193665Y-84561464D01*
X141191690Y-84561604D01*
X141184285Y-84560875D01*
X140946190Y-84560875D01*
X140931558Y-84562316D01*
X140929069Y-84563346D01*
X140926380Y-84563538D01*
X140912649Y-84568793D01*
X140817411Y-84616412D01*
X140811111Y-84620376D01*
X140809284Y-84621134D01*
X140807227Y-84622822D01*
X140804968Y-84624244D01*
X140803668Y-84625742D01*
X140797919Y-84630461D01*
X140750300Y-84678080D01*
X140745581Y-84683829D01*
X140744083Y-84685129D01*
X140742661Y-84687388D01*
X140740973Y-84689445D01*
X140740215Y-84691272D01*
X140736251Y-84697572D01*
X140688632Y-84792810D01*
X140683377Y-84806542D01*
X140683186Y-84809229D01*
X140682155Y-84811719D01*
X140680714Y-84826351D01*
X139149090Y-84826351D01*
X139150686Y-84823159D01*
X139224799Y-84749046D01*
X139339312Y-84710875D01*
X139410210Y-84710875D01*
X139524723Y-84749046D01*
X139559823Y-84784146D01*
X139571188Y-84793473D01*
X139598224Y-84804672D01*
X139627487Y-84804672D01*
X139654523Y-84793473D01*
X139675216Y-84772780D01*
X139686415Y-84745744D01*
X139686415Y-84716481D01*
X139675216Y-84689445D01*
X139665889Y-84678080D01*
X139618270Y-84630461D01*
X139606905Y-84621134D01*
X139604414Y-84620102D01*
X139602379Y-84618337D01*
X139588954Y-84612343D01*
X139446097Y-84564724D01*
X139438843Y-84563074D01*
X139437012Y-84562316D01*
X139434357Y-84562054D01*
X139431760Y-84561464D01*
X139429785Y-84561604D01*
X139422380Y-84560875D01*
X139327142Y-84560875D01*
X139319735Y-84561604D01*
X139317761Y-84561464D01*
X139315163Y-84562054D01*
X139312510Y-84562316D01*
X139310679Y-84563074D01*
X139303424Y-84564724D01*
X139160568Y-84612343D01*
X139147142Y-84618337D01*
X139145107Y-84620101D01*
X139142617Y-84621133D01*
X139131252Y-84630461D01*
X139036014Y-84725699D01*
X139031295Y-84731448D01*
X139029797Y-84732748D01*
X139028375Y-84735007D01*
X139026687Y-84737064D01*
X139025929Y-84738891D01*
X139021965Y-84745191D01*
X138974346Y-84840429D01*
X138973936Y-84841498D01*
X138973614Y-84841934D01*
X138971418Y-84848079D01*
X138969091Y-84854161D01*
X138969052Y-84854700D01*
X138968667Y-84855780D01*
X138921048Y-85046256D01*
X138920672Y-85048792D01*
X138920250Y-85049814D01*
X138919707Y-85055326D01*
X138918898Y-85060800D01*
X138919060Y-85061892D01*
X138918809Y-85064446D01*
X138644294Y-85064446D01*
X138684007Y-84945307D01*
X138685656Y-84938051D01*
X138686415Y-84936221D01*
X138686676Y-84933567D01*
X138687267Y-84930970D01*
X138687126Y-84928995D01*
X138687856Y-84921589D01*
X138687856Y-84826351D01*
X138686415Y-84811719D01*
X138685384Y-84809230D01*
X138685193Y-84806541D01*
X138679938Y-84792810D01*
X138632319Y-84697572D01*
X138628354Y-84691272D01*
X138627597Y-84689445D01*
X138625908Y-84687388D01*
X138624487Y-84685129D01*
X138622988Y-84683829D01*
X138618270Y-84678080D01*
X138570651Y-84630461D01*
X138564901Y-84625742D01*
X138563602Y-84624244D01*
X138561342Y-84622822D01*
X138559286Y-84621134D01*
X138557458Y-84620376D01*
X138551159Y-84616412D01*
X138455921Y-84568793D01*
X138442189Y-84563538D01*
X138439501Y-84563347D01*
X138437012Y-84562316D01*
X138422380Y-84560875D01*
X138184285Y-84560875D01*
X138169653Y-84562316D01*
X138167164Y-84563346D01*
X138164475Y-84563538D01*
X138150744Y-84568793D01*
X138055506Y-84616412D01*
X138049206Y-84620376D01*
X138047379Y-84621134D01*
X138045322Y-84622822D01*
X138043063Y-84624244D01*
X138041763Y-84625742D01*
X138036014Y-84630461D01*
X137988395Y-84678080D01*
X137979068Y-84689445D01*
X137967869Y-84716482D01*
X137967869Y-84745744D01*
X137979068Y-84772781D01*
X137999760Y-84793473D01*
X138026797Y-84804672D01*
X138056059Y-84804672D01*
X138083096Y-84793473D01*
X138094461Y-84784146D01*
X138133474Y-84745133D01*
X138201990Y-84710875D01*
X138404675Y-84710875D01*
X138473191Y-84745133D01*
X138503598Y-84775540D01*
X138537856Y-84844056D01*
X138537856Y-84909419D01*
X138499684Y-85023932D01*
X137940776Y-85582842D01*
X137931449Y-85594207D01*
X137920250Y-85621243D01*
X137687857Y-85621243D01*
X137687857Y-84635875D01*
X137686416Y-84621243D01*
X137675217Y-84594207D01*
X137654525Y-84573515D01*
X137627489Y-84562316D01*
X137598225Y-84562316D01*
X137571189Y-84573515D01*
X137550497Y-84594207D01*
X137539298Y-84621243D01*
X137537857Y-84635875D01*
X137426746Y-84635875D01*
X137426746Y-84449764D01*
X144560873Y-84449764D01*
X144560873Y-87431930D01*
G37*
X142513255Y-88277819D02*
X142608493Y-88277819D01*
X142608493Y-88277819D02*
X142703731Y-88325438D01*
X142703731Y-88325438D02*
X142751350Y-88373057D01*
X142751350Y-88373057D02*
X142798969Y-88468295D01*
X142798969Y-88468295D02*
X142846588Y-88658771D01*
X142846588Y-88658771D02*
X142846588Y-88896866D01*
X142846588Y-88896866D02*
X142798969Y-89087342D01*
X142798969Y-89087342D02*
X142751350Y-89182580D01*
X142751350Y-89182580D02*
X142703731Y-89230200D01*
X142703731Y-89230200D02*
X142608493Y-89277819D01*
X142608493Y-89277819D02*
X142513255Y-89277819D01*
X142513255Y-89277819D02*
X142418017Y-89230200D01*
X142418017Y-89230200D02*
X142370398Y-89182580D01*
X142370398Y-89182580D02*
X142322779Y-89087342D01*
X142322779Y-89087342D02*
X142275160Y-88896866D01*
X142275160Y-88896866D02*
X142275160Y-88658771D01*
X142275160Y-88658771D02*
X142322779Y-88468295D01*
X142322779Y-88468295D02*
X142370398Y-88373057D01*
X142370398Y-88373057D02*
X142418017Y-88325438D01*
X142418017Y-88325438D02*
X142513255Y-88277819D01*
X143179922Y-89277819D02*
X143703731Y-88611152D01*
X143179922Y-88611152D02*
X143703731Y-89277819D01*
X144513255Y-88611152D02*
X144513255Y-89277819D01*
X144275160Y-88230200D02*
X144037065Y-88944485D01*
X144037065Y-88944485D02*
X144656112Y-88944485D01*
X145227541Y-88277819D02*
X145322779Y-88277819D01*
X145322779Y-88277819D02*
X145418017Y-88325438D01*
X145418017Y-88325438D02*
X145465636Y-88373057D01*
X145465636Y-88373057D02*
X145513255Y-88468295D01*
X145513255Y-88468295D02*
X145560874Y-88658771D01*
X145560874Y-88658771D02*
X145560874Y-88896866D01*
X145560874Y-88896866D02*
X145513255Y-89087342D01*
X145513255Y-89087342D02*
X145465636Y-89182580D01*
X145465636Y-89182580D02*
X145418017Y-89230200D01*
X145418017Y-89230200D02*
X145322779Y-89277819D01*
X145322779Y-89277819D02*
X145227541Y-89277819D01*
X145227541Y-89277819D02*
X145132303Y-89230200D01*
X145132303Y-89230200D02*
X145084684Y-89182580D01*
X145084684Y-89182580D02*
X145037065Y-89087342D01*
X145037065Y-89087342D02*
X144989446Y-88896866D01*
X144989446Y-88896866D02*
X144989446Y-88658771D01*
X144989446Y-88658771D02*
X145037065Y-88468295D01*
X145037065Y-88468295D02*
X145084684Y-88373057D01*
X145084684Y-88373057D02*
X145132303Y-88325438D01*
X145132303Y-88325438D02*
X145227541Y-88277819D01*
X136925255Y-88277819D02*
X137020493Y-88277819D01*
X137020493Y-88277819D02*
X137115731Y-88325438D01*
X137115731Y-88325438D02*
X137163350Y-88373057D01*
X137163350Y-88373057D02*
X137210969Y-88468295D01*
X137210969Y-88468295D02*
X137258588Y-88658771D01*
X137258588Y-88658771D02*
X137258588Y-88896866D01*
X137258588Y-88896866D02*
X137210969Y-89087342D01*
X137210969Y-89087342D02*
X137163350Y-89182580D01*
X137163350Y-89182580D02*
X137115731Y-89230200D01*
X137115731Y-89230200D02*
X137020493Y-89277819D01*
X137020493Y-89277819D02*
X136925255Y-89277819D01*
X136925255Y-89277819D02*
X136830017Y-89230200D01*
X136830017Y-89230200D02*
X136782398Y-89182580D01*
X136782398Y-89182580D02*
X136734779Y-89087342D01*
X136734779Y-89087342D02*
X136687160Y-88896866D01*
X136687160Y-88896866D02*
X136687160Y-88658771D01*
X136687160Y-88658771D02*
X136734779Y-88468295D01*
X136734779Y-88468295D02*
X136782398Y-88373057D01*
X136782398Y-88373057D02*
X136830017Y-88325438D01*
X136830017Y-88325438D02*
X136925255Y-88277819D01*
X137591922Y-89277819D02*
X138115731Y-88611152D01*
X137591922Y-88611152D02*
X138115731Y-89277819D01*
X138925255Y-88611152D02*
X138925255Y-89277819D01*
X138687160Y-88230200D02*
X138449065Y-88944485D01*
X138449065Y-88944485D02*
X139068112Y-88944485D01*
X139972874Y-89277819D02*
X139401446Y-89277819D01*
X139687160Y-89277819D02*
X139687160Y-88277819D01*
X139687160Y-88277819D02*
X139591922Y-88420676D01*
X139591922Y-88420676D02*
X139496684Y-88515914D01*
X139496684Y-88515914D02*
X139401446Y-88563533D01*
X144708666Y-93180819D02*
X144708666Y-93895104D01*
X144708666Y-93895104D02*
X144661047Y-94037961D01*
X144661047Y-94037961D02*
X144565809Y-94133200D01*
X144565809Y-94133200D02*
X144422952Y-94180819D01*
X144422952Y-94180819D02*
X144327714Y-94180819D01*
X145184857Y-94180819D02*
X145184857Y-93180819D01*
X145184857Y-93180819D02*
X145565809Y-93180819D01*
X145565809Y-93180819D02*
X145661047Y-93228438D01*
X145661047Y-93228438D02*
X145708666Y-93276057D01*
X145708666Y-93276057D02*
X145756285Y-93371295D01*
X145756285Y-93371295D02*
X145756285Y-93514152D01*
X145756285Y-93514152D02*
X145708666Y-93609390D01*
X145708666Y-93609390D02*
X145661047Y-93657009D01*
X145661047Y-93657009D02*
X145565809Y-93704628D01*
X145565809Y-93704628D02*
X145184857Y-93704628D01*
X146708666Y-94180819D02*
X146137238Y-94180819D01*
X146422952Y-94180819D02*
X146422952Y-93180819D01*
X146422952Y-93180819D02*
X146327714Y-93323676D01*
X146327714Y-93323676D02*
X146232476Y-93418914D01*
X146232476Y-93418914D02*
X146137238Y-93466533D01*
X136398095Y-94704819D02*
X136398095Y-95514342D01*
X136398095Y-95514342D02*
X136445714Y-95609580D01*
X136445714Y-95609580D02*
X136493333Y-95657200D01*
X136493333Y-95657200D02*
X136588571Y-95704819D01*
X136588571Y-95704819D02*
X136779047Y-95704819D01*
X136779047Y-95704819D02*
X136874285Y-95657200D01*
X136874285Y-95657200D02*
X136921904Y-95609580D01*
X136921904Y-95609580D02*
X136969523Y-95514342D01*
X136969523Y-95514342D02*
X136969523Y-94704819D01*
X137969523Y-95704819D02*
X137398095Y-95704819D01*
X137683809Y-95704819D02*
X137683809Y-94704819D01*
X137683809Y-94704819D02*
X137588571Y-94847676D01*
X137588571Y-94847676D02*
X137493333Y-94942914D01*
X137493333Y-94942914D02*
X137398095Y-94990533D01*
X139787333Y-102308819D02*
X139454000Y-101832628D01*
X139215905Y-102308819D02*
X139215905Y-101308819D01*
X139215905Y-101308819D02*
X139596857Y-101308819D01*
X139596857Y-101308819D02*
X139692095Y-101356438D01*
X139692095Y-101356438D02*
X139739714Y-101404057D01*
X139739714Y-101404057D02*
X139787333Y-101499295D01*
X139787333Y-101499295D02*
X139787333Y-101642152D01*
X139787333Y-101642152D02*
X139739714Y-101737390D01*
X139739714Y-101737390D02*
X139692095Y-101785009D01*
X139692095Y-101785009D02*
X139596857Y-101832628D01*
X139596857Y-101832628D02*
X139215905Y-101832628D01*
X140168286Y-101404057D02*
X140215905Y-101356438D01*
X140215905Y-101356438D02*
X140311143Y-101308819D01*
X140311143Y-101308819D02*
X140549238Y-101308819D01*
X140549238Y-101308819D02*
X140644476Y-101356438D01*
X140644476Y-101356438D02*
X140692095Y-101404057D01*
X140692095Y-101404057D02*
X140739714Y-101499295D01*
X140739714Y-101499295D02*
X140739714Y-101594533D01*
X140739714Y-101594533D02*
X140692095Y-101737390D01*
X140692095Y-101737390D02*
X140120667Y-102308819D01*
X140120667Y-102308819D02*
X140739714Y-102308819D01*
X137247333Y-102308819D02*
X136914000Y-101832628D01*
X136675905Y-102308819D02*
X136675905Y-101308819D01*
X136675905Y-101308819D02*
X137056857Y-101308819D01*
X137056857Y-101308819D02*
X137152095Y-101356438D01*
X137152095Y-101356438D02*
X137199714Y-101404057D01*
X137199714Y-101404057D02*
X137247333Y-101499295D01*
X137247333Y-101499295D02*
X137247333Y-101642152D01*
X137247333Y-101642152D02*
X137199714Y-101737390D01*
X137199714Y-101737390D02*
X137152095Y-101785009D01*
X137152095Y-101785009D02*
X137056857Y-101832628D01*
X137056857Y-101832628D02*
X136675905Y-101832628D01*
X138199714Y-102308819D02*
X137628286Y-102308819D01*
X137914000Y-102308819D02*
X137914000Y-101308819D01*
X137914000Y-101308819D02*
X137818762Y-101451676D01*
X137818762Y-101451676D02*
X137723524Y-101546914D01*
X137723524Y-101546914D02*
X137628286Y-101594533D01*
X130476666Y-102324819D02*
X130476666Y-103039104D01*
X130476666Y-103039104D02*
X130429047Y-103181961D01*
X130429047Y-103181961D02*
X130333809Y-103277200D01*
X130333809Y-103277200D02*
X130190952Y-103324819D01*
X130190952Y-103324819D02*
X130095714Y-103324819D01*
X131476666Y-103324819D02*
X130905238Y-103324819D01*
X131190952Y-103324819D02*
X131190952Y-102324819D01*
X131190952Y-102324819D02*
X131095714Y-102467676D01*
X131095714Y-102467676D02*
X131000476Y-102562914D01*
X131000476Y-102562914D02*
X130905238Y-102610533D01*
X143089333Y-98149580D02*
X143041714Y-98197200D01*
X143041714Y-98197200D02*
X142898857Y-98244819D01*
X142898857Y-98244819D02*
X142803619Y-98244819D01*
X142803619Y-98244819D02*
X142660762Y-98197200D01*
X142660762Y-98197200D02*
X142565524Y-98101961D01*
X142565524Y-98101961D02*
X142517905Y-98006723D01*
X142517905Y-98006723D02*
X142470286Y-97816247D01*
X142470286Y-97816247D02*
X142470286Y-97673390D01*
X142470286Y-97673390D02*
X142517905Y-97482914D01*
X142517905Y-97482914D02*
X142565524Y-97387676D01*
X142565524Y-97387676D02*
X142660762Y-97292438D01*
X142660762Y-97292438D02*
X142803619Y-97244819D01*
X142803619Y-97244819D02*
X142898857Y-97244819D01*
X142898857Y-97244819D02*
X143041714Y-97292438D01*
X143041714Y-97292438D02*
X143089333Y-97340057D01*
X144041714Y-98244819D02*
X143470286Y-98244819D01*
X143756000Y-98244819D02*
X143756000Y-97244819D01*
X143756000Y-97244819D02*
X143660762Y-97387676D01*
X143660762Y-97387676D02*
X143565524Y-97482914D01*
X143565524Y-97482914D02*
X143470286Y-97530533D01*
D11*
%TO.C,JP1*%
X139700000Y-90060000D02*
X144890000Y-90060000D01*
X144890000Y-92820000D02*
X144890000Y-90060000D01*
X139700000Y-92820000D02*
X139700000Y-90060000D01*
X139700000Y-92820000D02*
X144890000Y-92820000D01*
X138430000Y-92820000D02*
X137050000Y-92820000D01*
X137050000Y-92820000D02*
X137050000Y-91440000D01*
D12*
%TO.C,U1*%
X140944000Y-96494000D02*
X140449000Y-96494000D01*
X140944000Y-95999000D02*
X140944000Y-96494000D01*
X140944000Y-94514000D02*
X140944000Y-95009000D01*
X140449000Y-94514000D02*
X140944000Y-94514000D01*
X139459000Y-96494000D02*
X138964000Y-96494000D01*
X138964000Y-96494000D02*
X138964000Y-95999000D01*
X138964000Y-95009000D02*
X138964000Y-94514000D01*
X138964000Y-94514000D02*
X139459000Y-94514000D01*
D13*
X141454000Y-96004000D02*
G75*
G02*
X141254000Y-96004000I-100000J0D01*
G01*
X141254000Y-96004000D02*
G75*
G02*
X141454000Y-96004000I100000J0D01*
G01*
D11*
%TO.C,R2*%
X139219000Y-99541064D02*
X139219000Y-99086936D01*
X140689000Y-99541064D02*
X140689000Y-99086936D01*
%TO.C,R1*%
X136679000Y-99541064D02*
X136679000Y-99086936D01*
X138149000Y-99541064D02*
X138149000Y-99086936D01*
D14*
%TO.C,J1*%
X129540000Y-86868000D02*
X130048000Y-86360000D01*
X129540000Y-88392000D02*
X129540000Y-86868000D01*
X129540000Y-89408000D02*
X130048000Y-88900000D01*
X129540000Y-90932000D02*
X129540000Y-89408000D01*
X129540000Y-91948000D02*
X130048000Y-91440000D01*
X129540000Y-93472000D02*
X129540000Y-91948000D01*
X129540000Y-94488000D02*
X130048000Y-93980000D01*
X129540000Y-96012000D02*
X129540000Y-94488000D01*
X129540000Y-97028000D02*
X130048000Y-96520000D01*
X129540000Y-98552000D02*
X129540000Y-97028000D01*
X129540000Y-99568000D02*
X130048000Y-99060000D01*
X129540000Y-101092000D02*
X129540000Y-99568000D01*
X130048000Y-86360000D02*
X130810000Y-86360000D01*
X130048000Y-88900000D02*
X129540000Y-88392000D01*
X130048000Y-91440000D02*
X129540000Y-90932000D01*
X130048000Y-93980000D02*
X129540000Y-93472000D01*
X130048000Y-96520000D02*
X129540000Y-96012000D01*
X130048000Y-99060000D02*
X129540000Y-98552000D01*
X130048000Y-101600000D02*
X129540000Y-101092000D01*
X130810000Y-86360000D02*
X131572000Y-86360000D01*
X131572000Y-86360000D02*
X132080000Y-86868000D01*
X131572000Y-88900000D02*
X132080000Y-89408000D01*
X131572000Y-91440000D02*
X132080000Y-91948000D01*
X131572000Y-93980000D02*
X132080000Y-94488000D01*
X131572000Y-96520000D02*
X132080000Y-97028000D01*
X131572000Y-99060000D02*
X132080000Y-99568000D01*
X131572000Y-101600000D02*
X130048000Y-101600000D01*
X132080000Y-86868000D02*
X132080000Y-88392000D01*
X132080000Y-88392000D02*
X131572000Y-88900000D01*
X132080000Y-89408000D02*
X132080000Y-90932000D01*
X132080000Y-90932000D02*
X131572000Y-91440000D01*
X132080000Y-91948000D02*
X132080000Y-93472000D01*
X132080000Y-93472000D02*
X131572000Y-93980000D01*
X132080000Y-94488000D02*
X132080000Y-96012000D01*
X132080000Y-96012000D02*
X131572000Y-96520000D01*
X132080000Y-97028000D02*
X132080000Y-98552000D01*
X132080000Y-98552000D02*
X131572000Y-99060000D01*
X132080000Y-99568000D02*
X132080000Y-101092000D01*
X132080000Y-101092000D02*
X131572000Y-101600000D01*
X130810000Y-86130000D02*
X130310000Y-85368000D01*
X131310000Y-85368000D01*
X130810000Y-86130000D01*
G36*
X130810000Y-86130000D02*
G01*
X130310000Y-85368000D01*
X131310000Y-85368000D01*
X130810000Y-86130000D01*
G37*
D11*
%TO.C,C1*%
X142521000Y-95511252D02*
X142521000Y-94988748D01*
X143991000Y-95511252D02*
X143991000Y-94988748D01*
%TD*%
M02*
