%TF.GenerationSoftware,KiCad,Pcbnew,9.0.6-9.0.6~ubuntu24.04.1*%
%TF.CreationDate,2026-01-17T20:35:02-03:00*%
%TF.ProjectId,cotti_level_shifter,636f7474-695f-46c6-9576-656c5f736869,0.0*%
%TF.SameCoordinates,Original*%
%TF.FileFunction,Legend,Top*%
%TF.FilePolarity,Positive*%
%FSLAX46Y46*%
G04 Gerber Fmt 4.6, Leading zero omitted, Abs format (unit mm)*
G04 Created by KiCad (PCBNEW 9.0.6-9.0.6~ubuntu24.04.1) date 2026-01-17 20:35:02*
%MOMM*%
%LPD*%
G01*
G04 APERTURE LIST*
%ADD10C,0.150000*%
%ADD11C,0.100000*%
%ADD12C,0.000000*%
%ADD13C,0.127000*%
%ADD14C,0.200000*%
%ADD15C,0.120000*%
G04 APERTURE END LIST*
D10*
G36*
X147409310Y-168757465D02*
G01*
X147445329Y-168793484D01*
X147489111Y-168881047D01*
X147489111Y-169017066D01*
X147445329Y-169104630D01*
X147405398Y-169144560D01*
X147317835Y-169188342D01*
X146953397Y-169188342D01*
X146953397Y-168709771D01*
X147266227Y-168709771D01*
X147409310Y-168757465D01*
G37*
G36*
X147348255Y-168182123D02*
G01*
X147388185Y-168222054D01*
X147431968Y-168309619D01*
X147431968Y-168388494D01*
X147388185Y-168476058D01*
X147348255Y-168515989D01*
X147260692Y-168559771D01*
X146953397Y-168559771D01*
X146953397Y-168138342D01*
X147260692Y-168138342D01*
X147348255Y-168182123D01*
G37*
G36*
X143288627Y-168845485D02*
G01*
X142925311Y-168845485D01*
X143106969Y-168300512D01*
X143288627Y-168845485D01*
G37*
G36*
X147772444Y-169471675D02*
G01*
X142499225Y-169471675D01*
X142499225Y-169253962D01*
X142632558Y-169253962D01*
X142634633Y-169283152D01*
X142647719Y-169309325D01*
X142669826Y-169328499D01*
X142697589Y-169337753D01*
X142726779Y-169335678D01*
X142752952Y-169322592D01*
X142772126Y-169300485D01*
X142778120Y-169287059D01*
X142875311Y-168995485D01*
X143338627Y-168995485D01*
X143435818Y-169287059D01*
X143441812Y-169300484D01*
X143460986Y-169322592D01*
X143487159Y-169335678D01*
X143516349Y-169337753D01*
X143544112Y-169328499D01*
X143566219Y-169309325D01*
X143579305Y-169283152D01*
X143581380Y-169253962D01*
X143578120Y-169239625D01*
X143428768Y-168791568D01*
X143833410Y-168791568D01*
X143833410Y-168820832D01*
X143844609Y-168847868D01*
X143865301Y-168868560D01*
X143892337Y-168879759D01*
X143906969Y-168881200D01*
X144821255Y-168881200D01*
X144835887Y-168879759D01*
X144862923Y-168868560D01*
X144883615Y-168847868D01*
X144894814Y-168820832D01*
X144894814Y-168791568D01*
X144883615Y-168764532D01*
X144862923Y-168743840D01*
X144835887Y-168732641D01*
X144821255Y-168731200D01*
X143906969Y-168731200D01*
X143892337Y-168732641D01*
X143865301Y-168743840D01*
X143844609Y-168764532D01*
X143833410Y-168791568D01*
X143428768Y-168791568D01*
X143315317Y-168451214D01*
X145318670Y-168451214D01*
X145319663Y-168480461D01*
X145331772Y-168507101D01*
X145353154Y-168527080D01*
X145366349Y-168533567D01*
X146093368Y-168806199D01*
X145366349Y-169078832D01*
X145353154Y-169085319D01*
X145331772Y-169105298D01*
X145319663Y-169131938D01*
X145318670Y-169161185D01*
X145328945Y-169188586D01*
X145348924Y-169209968D01*
X145375564Y-169222077D01*
X145404811Y-169223070D01*
X145419017Y-169219282D01*
X146333303Y-168876425D01*
X146346498Y-168869938D01*
X146348382Y-168868177D01*
X146350728Y-168867111D01*
X146359013Y-168858244D01*
X146367880Y-168849959D01*
X146368946Y-168847613D01*
X146370707Y-168845729D01*
X146374969Y-168834362D01*
X146379989Y-168823319D01*
X146380076Y-168820742D01*
X146380982Y-168818328D01*
X146380570Y-168806200D01*
X146380982Y-168794072D01*
X146380076Y-168791657D01*
X146379989Y-168789081D01*
X146374969Y-168778037D01*
X146370707Y-168766671D01*
X146368946Y-168764786D01*
X146367880Y-168762441D01*
X146359013Y-168754155D01*
X146350728Y-168745289D01*
X146348382Y-168744222D01*
X146346498Y-168742462D01*
X146333303Y-168735975D01*
X145419017Y-168393117D01*
X145404811Y-168389329D01*
X145375564Y-168390322D01*
X145348924Y-168402431D01*
X145328945Y-168423813D01*
X145318670Y-168451214D01*
X143315317Y-168451214D01*
X143186026Y-168063342D01*
X146803397Y-168063342D01*
X146803397Y-169263342D01*
X146804838Y-169277974D01*
X146816037Y-169305010D01*
X146836729Y-169325702D01*
X146863765Y-169336901D01*
X146878397Y-169338342D01*
X147335540Y-169338342D01*
X147350172Y-169336901D01*
X147352661Y-169335869D01*
X147355349Y-169335679D01*
X147369081Y-169330424D01*
X147483366Y-169273282D01*
X147489663Y-169269317D01*
X147491493Y-169268560D01*
X147493552Y-169266869D01*
X147495808Y-169265450D01*
X147497105Y-169263953D01*
X147502858Y-169259233D01*
X147560001Y-169202090D01*
X147564719Y-169196340D01*
X147566218Y-169195041D01*
X147567639Y-169192781D01*
X147569328Y-169190725D01*
X147570085Y-169188897D01*
X147574050Y-169182598D01*
X147631193Y-169068312D01*
X147636448Y-169054580D01*
X147636638Y-169051892D01*
X147637670Y-169049403D01*
X147639111Y-169034771D01*
X147639111Y-168863342D01*
X147637670Y-168848710D01*
X147636638Y-168846220D01*
X147636448Y-168843533D01*
X147631193Y-168829801D01*
X147574050Y-168715516D01*
X147570086Y-168709219D01*
X147569328Y-168707389D01*
X147567636Y-168705327D01*
X147566217Y-168703073D01*
X147564721Y-168701776D01*
X147560001Y-168696024D01*
X147502858Y-168638881D01*
X147491493Y-168629554D01*
X147489004Y-168628523D01*
X147486968Y-168626757D01*
X147473542Y-168620763D01*
X147460095Y-168616280D01*
X147502859Y-168573517D01*
X147507579Y-168567765D01*
X147509074Y-168566469D01*
X147510492Y-168564215D01*
X147512186Y-168562152D01*
X147512944Y-168560320D01*
X147516907Y-168554026D01*
X147574050Y-168439741D01*
X147579305Y-168426009D01*
X147579495Y-168423321D01*
X147580527Y-168420832D01*
X147581968Y-168406200D01*
X147581968Y-168291914D01*
X147580527Y-168277282D01*
X147579495Y-168274792D01*
X147579305Y-168272105D01*
X147574050Y-168258373D01*
X147516907Y-168144087D01*
X147512943Y-168137790D01*
X147512186Y-168135961D01*
X147510496Y-168133902D01*
X147509075Y-168131644D01*
X147507576Y-168130344D01*
X147502859Y-168124596D01*
X147445716Y-168067452D01*
X147439964Y-168062731D01*
X147438667Y-168061236D01*
X147436412Y-168059816D01*
X147434351Y-168058125D01*
X147432520Y-168057366D01*
X147426224Y-168053403D01*
X147311938Y-167996260D01*
X147298206Y-167991005D01*
X147295518Y-167990814D01*
X147293029Y-167989783D01*
X147278397Y-167988342D01*
X146878397Y-167988342D01*
X146863765Y-167989783D01*
X146836729Y-168000982D01*
X146816037Y-168021674D01*
X146804838Y-168048710D01*
X146803397Y-168063342D01*
X143186026Y-168063342D01*
X143178120Y-168039625D01*
X143172126Y-168026199D01*
X143168614Y-168022150D01*
X143166219Y-168017359D01*
X143159114Y-168011196D01*
X143152952Y-168004092D01*
X143148160Y-168001696D01*
X143144112Y-167998185D01*
X143135188Y-167995210D01*
X143126779Y-167991006D01*
X143121434Y-167990626D01*
X143116349Y-167988931D01*
X143106969Y-167989597D01*
X143097589Y-167988931D01*
X143092503Y-167990626D01*
X143087159Y-167991006D01*
X143078749Y-167995210D01*
X143069826Y-167998185D01*
X143065777Y-168001696D01*
X143060986Y-168004092D01*
X143054824Y-168011195D01*
X143047719Y-168017359D01*
X143045322Y-168022152D01*
X143041812Y-168026200D01*
X143035818Y-168039625D01*
X142635818Y-169239625D01*
X142632558Y-169253962D01*
X142499225Y-169253962D01*
X142499225Y-167855009D01*
X147772444Y-167855009D01*
X147772444Y-169471675D01*
G37*
G36*
X147409310Y-165201465D02*
G01*
X147445329Y-165237484D01*
X147489111Y-165325047D01*
X147489111Y-165461066D01*
X147445329Y-165548630D01*
X147405398Y-165588560D01*
X147317835Y-165632342D01*
X146953397Y-165632342D01*
X146953397Y-165153771D01*
X147266227Y-165153771D01*
X147409310Y-165201465D01*
G37*
G36*
X147348255Y-164626123D02*
G01*
X147388185Y-164666054D01*
X147431968Y-164753619D01*
X147431968Y-164832494D01*
X147388185Y-164920058D01*
X147348255Y-164959989D01*
X147260692Y-165003771D01*
X146953397Y-165003771D01*
X146953397Y-164582342D01*
X147260692Y-164582342D01*
X147348255Y-164626123D01*
G37*
G36*
X143288627Y-165289485D02*
G01*
X142925311Y-165289485D01*
X143106969Y-164744512D01*
X143288627Y-165289485D01*
G37*
G36*
X147772444Y-165915675D02*
G01*
X142499225Y-165915675D01*
X142499225Y-165697962D01*
X142632558Y-165697962D01*
X142634633Y-165727152D01*
X142647719Y-165753325D01*
X142669826Y-165772499D01*
X142697589Y-165781753D01*
X142726779Y-165779678D01*
X142752952Y-165766592D01*
X142772126Y-165744485D01*
X142778120Y-165731059D01*
X142875311Y-165439485D01*
X143338627Y-165439485D01*
X143435818Y-165731059D01*
X143441812Y-165744484D01*
X143460986Y-165766592D01*
X143487159Y-165779678D01*
X143516349Y-165781753D01*
X143544112Y-165772499D01*
X143566219Y-165753325D01*
X143579305Y-165727152D01*
X143581380Y-165697962D01*
X143578120Y-165683625D01*
X143429602Y-165238072D01*
X143832956Y-165238072D01*
X143833367Y-165250200D01*
X143832956Y-165262328D01*
X143833861Y-165264742D01*
X143833949Y-165267319D01*
X143838968Y-165278362D01*
X143843231Y-165289729D01*
X143844991Y-165291613D01*
X143846058Y-165293959D01*
X143854924Y-165302244D01*
X143863210Y-165311111D01*
X143865555Y-165312177D01*
X143867440Y-165313938D01*
X143880635Y-165320425D01*
X144794921Y-165663282D01*
X144809127Y-165667070D01*
X144838374Y-165666077D01*
X144865014Y-165653968D01*
X144884993Y-165632586D01*
X144895268Y-165605185D01*
X144894275Y-165575938D01*
X144882166Y-165549298D01*
X144860784Y-165529319D01*
X144847589Y-165522832D01*
X144120569Y-165250199D01*
X144159585Y-165235568D01*
X145319124Y-165235568D01*
X145319124Y-165264832D01*
X145330323Y-165291868D01*
X145351015Y-165312560D01*
X145378051Y-165323759D01*
X145392683Y-165325200D01*
X146306969Y-165325200D01*
X146321601Y-165323759D01*
X146348637Y-165312560D01*
X146369329Y-165291868D01*
X146380528Y-165264832D01*
X146380528Y-165235568D01*
X146369329Y-165208532D01*
X146348637Y-165187840D01*
X146321601Y-165176641D01*
X146306969Y-165175200D01*
X145392683Y-165175200D01*
X145378051Y-165176641D01*
X145351015Y-165187840D01*
X145330323Y-165208532D01*
X145319124Y-165235568D01*
X144159585Y-165235568D01*
X144847589Y-164977567D01*
X144860784Y-164971080D01*
X144882166Y-164951101D01*
X144894275Y-164924461D01*
X144895268Y-164895214D01*
X144884993Y-164867813D01*
X144865014Y-164846431D01*
X144838374Y-164834322D01*
X144809127Y-164833329D01*
X144794921Y-164837117D01*
X143880635Y-165179975D01*
X143867440Y-165186462D01*
X143865555Y-165188222D01*
X143863210Y-165189289D01*
X143854924Y-165198155D01*
X143846058Y-165206441D01*
X143844991Y-165208786D01*
X143843231Y-165210671D01*
X143838968Y-165222037D01*
X143833949Y-165233081D01*
X143833861Y-165235657D01*
X143832956Y-165238072D01*
X143429602Y-165238072D01*
X143186026Y-164507342D01*
X146803397Y-164507342D01*
X146803397Y-165707342D01*
X146804838Y-165721974D01*
X146816037Y-165749010D01*
X146836729Y-165769702D01*
X146863765Y-165780901D01*
X146878397Y-165782342D01*
X147335540Y-165782342D01*
X147350172Y-165780901D01*
X147352661Y-165779869D01*
X147355349Y-165779679D01*
X147369081Y-165774424D01*
X147483366Y-165717282D01*
X147489663Y-165713317D01*
X147491493Y-165712560D01*
X147493552Y-165710869D01*
X147495808Y-165709450D01*
X147497105Y-165707953D01*
X147502858Y-165703233D01*
X147560001Y-165646090D01*
X147564719Y-165640340D01*
X147566218Y-165639041D01*
X147567639Y-165636781D01*
X147569328Y-165634725D01*
X147570085Y-165632897D01*
X147574050Y-165626598D01*
X147631193Y-165512312D01*
X147636448Y-165498580D01*
X147636638Y-165495892D01*
X147637670Y-165493403D01*
X147639111Y-165478771D01*
X147639111Y-165307342D01*
X147637670Y-165292710D01*
X147636638Y-165290220D01*
X147636448Y-165287533D01*
X147631193Y-165273801D01*
X147574050Y-165159516D01*
X147570086Y-165153219D01*
X147569328Y-165151389D01*
X147567636Y-165149327D01*
X147566217Y-165147073D01*
X147564721Y-165145776D01*
X147560001Y-165140024D01*
X147502858Y-165082881D01*
X147491493Y-165073554D01*
X147489004Y-165072523D01*
X147486968Y-165070757D01*
X147473542Y-165064763D01*
X147460095Y-165060280D01*
X147502859Y-165017517D01*
X147507579Y-165011765D01*
X147509074Y-165010469D01*
X147510492Y-165008215D01*
X147512186Y-165006152D01*
X147512944Y-165004320D01*
X147516907Y-164998026D01*
X147574050Y-164883741D01*
X147579305Y-164870009D01*
X147579495Y-164867321D01*
X147580527Y-164864832D01*
X147581968Y-164850200D01*
X147581968Y-164735914D01*
X147580527Y-164721282D01*
X147579495Y-164718792D01*
X147579305Y-164716105D01*
X147574050Y-164702373D01*
X147516907Y-164588087D01*
X147512943Y-164581790D01*
X147512186Y-164579961D01*
X147510496Y-164577902D01*
X147509075Y-164575644D01*
X147507576Y-164574344D01*
X147502859Y-164568596D01*
X147445716Y-164511452D01*
X147439964Y-164506731D01*
X147438667Y-164505236D01*
X147436412Y-164503816D01*
X147434351Y-164502125D01*
X147432520Y-164501366D01*
X147426224Y-164497403D01*
X147311938Y-164440260D01*
X147298206Y-164435005D01*
X147295518Y-164434814D01*
X147293029Y-164433783D01*
X147278397Y-164432342D01*
X146878397Y-164432342D01*
X146863765Y-164433783D01*
X146836729Y-164444982D01*
X146816037Y-164465674D01*
X146804838Y-164492710D01*
X146803397Y-164507342D01*
X143186026Y-164507342D01*
X143178120Y-164483625D01*
X143172126Y-164470199D01*
X143168614Y-164466150D01*
X143166219Y-164461359D01*
X143159114Y-164455196D01*
X143152952Y-164448092D01*
X143148160Y-164445696D01*
X143144112Y-164442185D01*
X143135188Y-164439210D01*
X143126779Y-164435006D01*
X143121434Y-164434626D01*
X143116349Y-164432931D01*
X143106969Y-164433597D01*
X143097589Y-164432931D01*
X143092503Y-164434626D01*
X143087159Y-164435006D01*
X143078749Y-164439210D01*
X143069826Y-164442185D01*
X143065777Y-164445696D01*
X143060986Y-164448092D01*
X143054824Y-164455195D01*
X143047719Y-164461359D01*
X143045322Y-164466152D01*
X143041812Y-164470200D01*
X143035818Y-164483625D01*
X142635818Y-165683625D01*
X142632558Y-165697962D01*
X142499225Y-165697962D01*
X142499225Y-164299009D01*
X147772444Y-164299009D01*
X147772444Y-165915675D01*
G37*
X109509160Y-159096104D02*
X109985350Y-159096104D01*
X109413922Y-159381819D02*
X109747255Y-158381819D01*
X109747255Y-158381819D02*
X110080588Y-159381819D01*
X110842493Y-158381819D02*
X110652017Y-158381819D01*
X110652017Y-158381819D02*
X110556779Y-158429438D01*
X110556779Y-158429438D02*
X110509160Y-158477057D01*
X110509160Y-158477057D02*
X110413922Y-158619914D01*
X110413922Y-158619914D02*
X110366303Y-158810390D01*
X110366303Y-158810390D02*
X110366303Y-159191342D01*
X110366303Y-159191342D02*
X110413922Y-159286580D01*
X110413922Y-159286580D02*
X110461541Y-159334200D01*
X110461541Y-159334200D02*
X110556779Y-159381819D01*
X110556779Y-159381819D02*
X110747255Y-159381819D01*
X110747255Y-159381819D02*
X110842493Y-159334200D01*
X110842493Y-159334200D02*
X110890112Y-159286580D01*
X110890112Y-159286580D02*
X110937731Y-159191342D01*
X110937731Y-159191342D02*
X110937731Y-158953247D01*
X110937731Y-158953247D02*
X110890112Y-158858009D01*
X110890112Y-158858009D02*
X110842493Y-158810390D01*
X110842493Y-158810390D02*
X110747255Y-158762771D01*
X110747255Y-158762771D02*
X110556779Y-158762771D01*
X110556779Y-158762771D02*
X110461541Y-158810390D01*
X110461541Y-158810390D02*
X110413922Y-158858009D01*
X110413922Y-158858009D02*
X110366303Y-158953247D01*
X112080588Y-158334200D02*
X111223446Y-159619914D01*
X112366303Y-159096104D02*
X112842493Y-159096104D01*
X112271065Y-159381819D02*
X112604398Y-158381819D01*
X112604398Y-158381819D02*
X112937731Y-159381819D01*
X113223446Y-158477057D02*
X113271065Y-158429438D01*
X113271065Y-158429438D02*
X113366303Y-158381819D01*
X113366303Y-158381819D02*
X113604398Y-158381819D01*
X113604398Y-158381819D02*
X113699636Y-158429438D01*
X113699636Y-158429438D02*
X113747255Y-158477057D01*
X113747255Y-158477057D02*
X113794874Y-158572295D01*
X113794874Y-158572295D02*
X113794874Y-158667533D01*
X113794874Y-158667533D02*
X113747255Y-158810390D01*
X113747255Y-158810390D02*
X113175827Y-159381819D01*
X113175827Y-159381819D02*
X113794874Y-159381819D01*
G36*
X115938429Y-165591354D02*
G01*
X115968836Y-165621761D01*
X116003094Y-165690277D01*
X116003094Y-165940581D01*
X115968835Y-166009097D01*
X115938428Y-166039505D01*
X115869913Y-166073763D01*
X115762466Y-166073763D01*
X115693950Y-166039505D01*
X115663543Y-166009097D01*
X115629285Y-165940581D01*
X115629285Y-165690277D01*
X115663543Y-165621761D01*
X115693950Y-165591354D01*
X115762466Y-165557096D01*
X115869913Y-165557096D01*
X115938429Y-165591354D01*
G37*
G36*
X116860237Y-165576067D02*
G01*
X116860237Y-166054791D01*
X116822294Y-166073763D01*
X116667228Y-166073763D01*
X116598712Y-166039505D01*
X116568305Y-166009097D01*
X116534047Y-165940581D01*
X116534047Y-165690277D01*
X116568305Y-165621761D01*
X116598712Y-165591354D01*
X116667228Y-165557096D01*
X116822294Y-165557096D01*
X116860237Y-165576067D01*
G37*
G36*
X119165050Y-165585616D02*
G01*
X119193571Y-165642658D01*
X119193571Y-165658706D01*
X118867381Y-165723943D01*
X118867381Y-165642658D01*
X118895901Y-165585616D01*
X118952943Y-165557096D01*
X119108009Y-165557096D01*
X119165050Y-165585616D01*
G37*
G36*
X118403145Y-163975672D02*
G01*
X118431666Y-164032714D01*
X118431666Y-164048762D01*
X118105476Y-164113999D01*
X118105476Y-164032714D01*
X118133996Y-163975672D01*
X118191038Y-163947152D01*
X118346104Y-163947152D01*
X118403145Y-163975672D01*
G37*
G36*
X116307907Y-162365728D02*
G01*
X116336428Y-162422770D01*
X116336428Y-162438818D01*
X116010238Y-162504055D01*
X116010238Y-162422770D01*
X116038758Y-162365728D01*
X116095800Y-162337208D01*
X116250866Y-162337208D01*
X116307907Y-162365728D01*
G37*
G36*
X117926955Y-162365728D02*
G01*
X117955476Y-162422770D01*
X117955476Y-162438818D01*
X117629286Y-162504055D01*
X117629286Y-162422770D01*
X117657806Y-162365728D01*
X117714848Y-162337208D01*
X117869914Y-162337208D01*
X117926955Y-162365728D01*
G37*
G36*
X119454682Y-166334874D02*
G01*
X114272936Y-166334874D01*
X114272936Y-165148763D01*
X114384047Y-165148763D01*
X114384047Y-166148763D01*
X114385488Y-166163395D01*
X114396687Y-166190431D01*
X114417379Y-166211123D01*
X114444415Y-166222322D01*
X114473679Y-166222322D01*
X114500715Y-166211123D01*
X114521407Y-166190431D01*
X114532606Y-166163395D01*
X114534047Y-166148763D01*
X114534047Y-165486830D01*
X114724416Y-165894765D01*
X114727590Y-165900124D01*
X114728250Y-165901937D01*
X114729424Y-165903219D01*
X114731910Y-165907415D01*
X114740319Y-165915115D01*
X114748014Y-165923518D01*
X114751032Y-165924926D01*
X114753491Y-165927178D01*
X114764203Y-165931073D01*
X114774532Y-165935894D01*
X114777860Y-165936040D01*
X114780992Y-165937179D01*
X114792386Y-165936678D01*
X114803768Y-165937178D01*
X114806896Y-165936040D01*
X114810228Y-165935894D01*
X114820563Y-165931070D01*
X114831269Y-165927178D01*
X114833724Y-165924928D01*
X114836746Y-165923519D01*
X114844447Y-165915108D01*
X114852850Y-165907414D01*
X114855333Y-165903221D01*
X114856510Y-165901937D01*
X114857170Y-165900121D01*
X114860344Y-165894764D01*
X115050713Y-165486830D01*
X115050713Y-166148763D01*
X115052154Y-166163395D01*
X115063353Y-166190431D01*
X115084045Y-166211123D01*
X115111081Y-166222322D01*
X115140345Y-166222322D01*
X115167381Y-166211123D01*
X115188073Y-166190431D01*
X115199272Y-166163395D01*
X115200713Y-166148763D01*
X115200713Y-165672572D01*
X115479285Y-165672572D01*
X115479285Y-165958286D01*
X115480726Y-165972918D01*
X115481757Y-165975407D01*
X115481948Y-165978095D01*
X115487203Y-165991827D01*
X115534822Y-166087065D01*
X115538785Y-166093361D01*
X115539543Y-166095191D01*
X115541232Y-166097249D01*
X115542654Y-166099508D01*
X115544152Y-166100807D01*
X115548870Y-166106556D01*
X115596489Y-166154176D01*
X115602238Y-166158894D01*
X115603539Y-166160394D01*
X115605798Y-166161816D01*
X115607855Y-166163504D01*
X115609682Y-166164261D01*
X115615982Y-166168226D01*
X115711220Y-166215845D01*
X115724951Y-166221100D01*
X115727640Y-166221291D01*
X115730129Y-166222322D01*
X115744761Y-166223763D01*
X115887618Y-166223763D01*
X115902250Y-166222322D01*
X115904739Y-166221290D01*
X115907427Y-166221100D01*
X115921159Y-166215845D01*
X116016397Y-166168226D01*
X116022696Y-166164261D01*
X116024524Y-166163504D01*
X116026580Y-166161816D01*
X116028840Y-166160394D01*
X116030140Y-166158894D01*
X116035890Y-166154176D01*
X116083508Y-166106557D01*
X116088226Y-166100807D01*
X116089725Y-166099508D01*
X116091146Y-166097249D01*
X116092836Y-166095191D01*
X116093593Y-166093361D01*
X116097557Y-166087065D01*
X116145176Y-165991827D01*
X116150431Y-165978096D01*
X116150622Y-165975406D01*
X116151653Y-165972918D01*
X116153094Y-165958286D01*
X116153094Y-165672572D01*
X116384047Y-165672572D01*
X116384047Y-165958286D01*
X116385488Y-165972918D01*
X116386519Y-165975407D01*
X116386710Y-165978095D01*
X116391965Y-165991827D01*
X116439584Y-166087065D01*
X116443547Y-166093361D01*
X116444305Y-166095191D01*
X116445994Y-166097249D01*
X116447416Y-166099508D01*
X116448914Y-166100807D01*
X116453632Y-166106556D01*
X116501251Y-166154176D01*
X116507000Y-166158894D01*
X116508301Y-166160394D01*
X116510560Y-166161816D01*
X116512617Y-166163504D01*
X116514444Y-166164261D01*
X116520744Y-166168226D01*
X116615982Y-166215845D01*
X116629713Y-166221100D01*
X116632402Y-166221291D01*
X116634891Y-166222322D01*
X116649523Y-166223763D01*
X116839999Y-166223763D01*
X116854631Y-166222322D01*
X116857120Y-166221290D01*
X116859808Y-166221100D01*
X116873540Y-166215845D01*
X116890040Y-166207594D01*
X116893569Y-166211123D01*
X116920605Y-166222322D01*
X116949869Y-166222322D01*
X116976905Y-166211123D01*
X116997597Y-166190431D01*
X117008796Y-166163395D01*
X117010237Y-166148763D01*
X117010237Y-165482096D01*
X117336428Y-165482096D01*
X117336428Y-166005905D01*
X117337869Y-166020537D01*
X117338900Y-166023026D01*
X117339091Y-166025714D01*
X117344346Y-166039446D01*
X117391965Y-166134685D01*
X117393505Y-166137131D01*
X117393890Y-166138286D01*
X117395136Y-166139723D01*
X117399797Y-166147127D01*
X117406899Y-166153286D01*
X117413063Y-166160394D01*
X117420468Y-166165055D01*
X117421905Y-166166301D01*
X117423058Y-166166685D01*
X117425506Y-166168226D01*
X117520744Y-166215845D01*
X117534475Y-166221100D01*
X117537164Y-166221291D01*
X117539653Y-166222322D01*
X117554285Y-166223763D01*
X117697142Y-166223763D01*
X117711774Y-166222322D01*
X117714263Y-166221290D01*
X117716951Y-166221100D01*
X117730683Y-166215845D01*
X117778929Y-166191721D01*
X117798331Y-166211123D01*
X117825367Y-166222322D01*
X117854631Y-166222322D01*
X117881667Y-166211123D01*
X117902359Y-166190431D01*
X117913558Y-166163395D01*
X117914999Y-166148763D01*
X117914999Y-165482096D01*
X117913558Y-165467464D01*
X117902359Y-165440428D01*
X117881667Y-165419736D01*
X117854631Y-165408537D01*
X117825367Y-165408537D01*
X117798331Y-165419736D01*
X117777639Y-165440428D01*
X117766440Y-165467464D01*
X117764999Y-165482096D01*
X117764999Y-166022458D01*
X117747952Y-166039505D01*
X117679437Y-166073763D01*
X117571990Y-166073763D01*
X117514948Y-166045242D01*
X117486428Y-165988200D01*
X117486428Y-165482096D01*
X117484987Y-165467464D01*
X117473788Y-165440428D01*
X117453096Y-165419736D01*
X117426060Y-165408537D01*
X117396796Y-165408537D01*
X117369760Y-165419736D01*
X117349068Y-165440428D01*
X117337869Y-165467464D01*
X117336428Y-165482096D01*
X117010237Y-165482096D01*
X117010237Y-165148763D01*
X118241190Y-165148763D01*
X118241190Y-166005905D01*
X118242631Y-166020537D01*
X118243662Y-166023026D01*
X118243853Y-166025714D01*
X118249108Y-166039446D01*
X118296727Y-166134685D01*
X118298267Y-166137131D01*
X118298652Y-166138286D01*
X118299898Y-166139723D01*
X118304559Y-166147127D01*
X118311661Y-166153286D01*
X118317825Y-166160394D01*
X118325230Y-166165055D01*
X118326667Y-166166301D01*
X118327820Y-166166685D01*
X118330268Y-166168226D01*
X118425506Y-166215845D01*
X118439237Y-166221100D01*
X118468427Y-166223174D01*
X118496189Y-166213920D01*
X118518296Y-166194747D01*
X118531384Y-166168572D01*
X118533458Y-166139382D01*
X118524204Y-166111621D01*
X118505031Y-166089513D01*
X118492588Y-166081681D01*
X118419710Y-166045242D01*
X118391190Y-165988200D01*
X118391190Y-165624953D01*
X118717381Y-165624953D01*
X118717381Y-166005905D01*
X118718822Y-166020537D01*
X118719853Y-166023026D01*
X118720044Y-166025714D01*
X118725299Y-166039446D01*
X118772918Y-166134685D01*
X118774458Y-166137131D01*
X118774843Y-166138286D01*
X118776089Y-166139723D01*
X118780750Y-166147127D01*
X118787852Y-166153286D01*
X118794016Y-166160394D01*
X118801421Y-166165055D01*
X118802858Y-166166301D01*
X118804011Y-166166685D01*
X118806459Y-166168226D01*
X118901697Y-166215845D01*
X118915428Y-166221100D01*
X118918117Y-166221291D01*
X118920606Y-166222322D01*
X118935238Y-166223763D01*
X119125714Y-166223763D01*
X119140346Y-166222322D01*
X119142835Y-166221290D01*
X119145523Y-166221100D01*
X119159255Y-166215845D01*
X119254493Y-166168226D01*
X119266936Y-166160394D01*
X119286109Y-166138286D01*
X119295363Y-166110525D01*
X119293289Y-166081335D01*
X119280201Y-166055160D01*
X119258094Y-166035987D01*
X119230332Y-166026733D01*
X119201142Y-166028807D01*
X119187411Y-166034062D01*
X119108009Y-166073763D01*
X118952943Y-166073763D01*
X118895901Y-166045242D01*
X118867381Y-165988200D01*
X118867381Y-165876914D01*
X119283279Y-165793735D01*
X119297345Y-165789452D01*
X119303450Y-165785363D01*
X119310239Y-165782551D01*
X119315491Y-165777298D01*
X119321659Y-165773168D01*
X119325733Y-165767057D01*
X119330931Y-165761859D01*
X119333774Y-165754995D01*
X119337891Y-165748820D01*
X119339316Y-165741614D01*
X119342130Y-165734823D01*
X119343571Y-165720191D01*
X119343571Y-165624953D01*
X119342130Y-165610321D01*
X119341099Y-165607832D01*
X119340908Y-165605143D01*
X119335653Y-165591412D01*
X119288034Y-165496174D01*
X119286493Y-165493726D01*
X119286109Y-165492573D01*
X119284863Y-165491136D01*
X119280202Y-165483731D01*
X119273097Y-165477569D01*
X119266936Y-165470465D01*
X119259530Y-165465803D01*
X119258094Y-165464558D01*
X119256940Y-165464173D01*
X119254493Y-165462633D01*
X119159255Y-165415014D01*
X119145523Y-165409759D01*
X119142835Y-165409568D01*
X119140346Y-165408537D01*
X119125714Y-165407096D01*
X118935238Y-165407096D01*
X118920606Y-165408537D01*
X118918117Y-165409567D01*
X118915428Y-165409759D01*
X118901697Y-165415014D01*
X118806459Y-165462633D01*
X118804011Y-165464173D01*
X118802858Y-165464558D01*
X118801421Y-165465803D01*
X118794016Y-165470465D01*
X118787854Y-165477569D01*
X118780750Y-165483731D01*
X118776088Y-165491136D01*
X118774843Y-165492573D01*
X118774458Y-165493726D01*
X118772918Y-165496174D01*
X118725299Y-165591412D01*
X118720044Y-165605144D01*
X118719853Y-165607831D01*
X118718822Y-165610321D01*
X118717381Y-165624953D01*
X118391190Y-165624953D01*
X118391190Y-165148763D01*
X118389749Y-165134131D01*
X118378550Y-165107095D01*
X118357858Y-165086403D01*
X118330822Y-165075204D01*
X118301558Y-165075204D01*
X118274522Y-165086403D01*
X118253830Y-165107095D01*
X118242631Y-165134131D01*
X118241190Y-165148763D01*
X117010237Y-165148763D01*
X117008796Y-165134131D01*
X116997597Y-165107095D01*
X116976905Y-165086403D01*
X116949869Y-165075204D01*
X116920605Y-165075204D01*
X116893569Y-165086403D01*
X116872877Y-165107095D01*
X116861678Y-165134131D01*
X116860237Y-165148763D01*
X116860237Y-165409923D01*
X116859808Y-165409759D01*
X116857120Y-165409568D01*
X116854631Y-165408537D01*
X116839999Y-165407096D01*
X116649523Y-165407096D01*
X116634891Y-165408537D01*
X116632402Y-165409567D01*
X116629713Y-165409759D01*
X116615982Y-165415014D01*
X116520744Y-165462633D01*
X116514444Y-165466597D01*
X116512617Y-165467355D01*
X116510560Y-165469043D01*
X116508301Y-165470465D01*
X116507001Y-165471963D01*
X116501252Y-165476682D01*
X116453633Y-165524301D01*
X116448914Y-165530050D01*
X116447416Y-165531350D01*
X116445994Y-165533609D01*
X116444306Y-165535666D01*
X116443548Y-165537493D01*
X116439584Y-165543793D01*
X116391965Y-165639031D01*
X116386710Y-165652763D01*
X116386519Y-165655450D01*
X116385488Y-165657940D01*
X116384047Y-165672572D01*
X116153094Y-165672572D01*
X116151653Y-165657940D01*
X116150622Y-165655451D01*
X116150431Y-165652762D01*
X116145176Y-165639031D01*
X116097557Y-165543793D01*
X116093592Y-165537493D01*
X116092835Y-165535666D01*
X116091146Y-165533609D01*
X116089725Y-165531350D01*
X116088226Y-165530050D01*
X116083508Y-165524301D01*
X116035889Y-165476682D01*
X116030139Y-165471963D01*
X116028840Y-165470465D01*
X116026580Y-165469043D01*
X116024524Y-165467355D01*
X116022696Y-165466597D01*
X116016397Y-165462633D01*
X115921159Y-165415014D01*
X115907427Y-165409759D01*
X115904739Y-165409568D01*
X115902250Y-165408537D01*
X115887618Y-165407096D01*
X115744761Y-165407096D01*
X115730129Y-165408537D01*
X115727640Y-165409567D01*
X115724951Y-165409759D01*
X115711220Y-165415014D01*
X115615982Y-165462633D01*
X115609682Y-165466597D01*
X115607855Y-165467355D01*
X115605798Y-165469043D01*
X115603539Y-165470465D01*
X115602239Y-165471963D01*
X115596490Y-165476682D01*
X115548871Y-165524301D01*
X115544152Y-165530050D01*
X115542654Y-165531350D01*
X115541232Y-165533609D01*
X115539544Y-165535666D01*
X115538786Y-165537493D01*
X115534822Y-165543793D01*
X115487203Y-165639031D01*
X115481948Y-165652763D01*
X115481757Y-165655450D01*
X115480726Y-165657940D01*
X115479285Y-165672572D01*
X115200713Y-165672572D01*
X115200713Y-165148763D01*
X115199765Y-165139141D01*
X115199843Y-165137375D01*
X115199498Y-165136426D01*
X115199272Y-165134131D01*
X115194290Y-165122104D01*
X115189843Y-165109874D01*
X115188713Y-165108640D01*
X115188073Y-165107095D01*
X115178873Y-165097895D01*
X115170079Y-165088292D01*
X115168562Y-165087584D01*
X115167381Y-165086403D01*
X115155368Y-165081426D01*
X115143561Y-165075917D01*
X115141888Y-165075843D01*
X115140345Y-165075204D01*
X115127339Y-165075204D01*
X115114325Y-165074632D01*
X115112752Y-165075204D01*
X115111081Y-165075204D01*
X115099062Y-165080182D01*
X115086824Y-165084633D01*
X115085590Y-165085763D01*
X115084045Y-165086403D01*
X115074846Y-165095601D01*
X115065243Y-165104396D01*
X115064067Y-165106380D01*
X115063353Y-165107095D01*
X115062676Y-165108728D01*
X115057749Y-165117046D01*
X114792379Y-165685694D01*
X114527011Y-165117047D01*
X114522085Y-165108731D01*
X114521407Y-165107095D01*
X114520691Y-165106379D01*
X114519517Y-165104397D01*
X114509920Y-165095608D01*
X114500715Y-165086403D01*
X114499169Y-165085762D01*
X114497936Y-165084633D01*
X114485705Y-165080185D01*
X114473679Y-165075204D01*
X114472005Y-165075204D01*
X114470435Y-165074633D01*
X114457434Y-165075204D01*
X114444415Y-165075204D01*
X114442870Y-165075843D01*
X114441199Y-165075917D01*
X114429400Y-165081423D01*
X114417379Y-165086403D01*
X114416196Y-165087585D01*
X114414681Y-165088293D01*
X114405892Y-165097889D01*
X114396687Y-165107095D01*
X114396046Y-165108640D01*
X114394917Y-165109874D01*
X114390469Y-165122104D01*
X114385488Y-165134131D01*
X114385261Y-165136426D01*
X114384917Y-165137375D01*
X114384994Y-165139141D01*
X114384047Y-165148763D01*
X114272936Y-165148763D01*
X114272936Y-163729295D01*
X114479285Y-163729295D01*
X114479285Y-163824533D01*
X114480726Y-163839165D01*
X114481757Y-163841654D01*
X114481948Y-163844342D01*
X114487203Y-163858074D01*
X114534822Y-163953312D01*
X114538786Y-163959611D01*
X114539544Y-163961439D01*
X114541232Y-163963495D01*
X114542654Y-163965755D01*
X114544152Y-163967054D01*
X114548871Y-163972804D01*
X114596490Y-164020423D01*
X114602239Y-164025141D01*
X114603539Y-164026640D01*
X114605798Y-164028061D01*
X114607855Y-164029750D01*
X114609682Y-164030507D01*
X114615982Y-164034472D01*
X114711220Y-164082091D01*
X114712289Y-164082500D01*
X114712725Y-164082823D01*
X114718861Y-164085015D01*
X114724951Y-164087346D01*
X114725491Y-164087384D01*
X114726571Y-164087770D01*
X114909061Y-164133392D01*
X114986048Y-164171886D01*
X115016455Y-164202293D01*
X115050713Y-164270809D01*
X115050713Y-164330637D01*
X115016454Y-164399153D01*
X114986047Y-164429561D01*
X114917532Y-164463819D01*
X114709312Y-164463819D01*
X114578002Y-164420049D01*
X114563665Y-164416789D01*
X114534475Y-164418864D01*
X114508302Y-164431950D01*
X114489128Y-164454057D01*
X114479874Y-164481820D01*
X114481949Y-164511010D01*
X114495035Y-164537183D01*
X114517142Y-164556357D01*
X114530568Y-164562351D01*
X114673424Y-164609970D01*
X114680679Y-164611619D01*
X114682510Y-164612378D01*
X114685163Y-164612639D01*
X114687761Y-164613230D01*
X114689735Y-164613089D01*
X114697142Y-164613819D01*
X114935237Y-164613819D01*
X114949869Y-164612378D01*
X114952358Y-164611346D01*
X114955046Y-164611156D01*
X114968778Y-164605901D01*
X115064016Y-164558282D01*
X115070315Y-164554317D01*
X115072143Y-164553560D01*
X115074199Y-164551872D01*
X115076459Y-164550450D01*
X115077759Y-164548950D01*
X115083509Y-164544232D01*
X115131127Y-164496613D01*
X115135845Y-164490863D01*
X115137344Y-164489564D01*
X115138765Y-164487305D01*
X115140455Y-164485247D01*
X115141212Y-164483417D01*
X115145176Y-164477121D01*
X115192795Y-164381883D01*
X115198050Y-164368152D01*
X115198241Y-164365462D01*
X115199272Y-164362974D01*
X115200713Y-164348342D01*
X115200713Y-164253104D01*
X115199272Y-164238472D01*
X115198241Y-164235983D01*
X115198050Y-164233294D01*
X115192795Y-164219563D01*
X115145176Y-164124325D01*
X115141211Y-164118025D01*
X115140454Y-164116198D01*
X115138765Y-164114141D01*
X115137344Y-164111882D01*
X115135845Y-164110582D01*
X115131127Y-164104833D01*
X115083508Y-164057214D01*
X115077758Y-164052495D01*
X115076459Y-164050997D01*
X115074199Y-164049575D01*
X115072143Y-164047887D01*
X115070315Y-164047129D01*
X115064016Y-164043165D01*
X114968778Y-163995546D01*
X114967708Y-163995136D01*
X114967273Y-163994814D01*
X114961127Y-163992618D01*
X114955046Y-163990291D01*
X114954506Y-163990252D01*
X114953427Y-163989867D01*
X114770937Y-163944244D01*
X114693950Y-163905751D01*
X114663543Y-163875344D01*
X114629285Y-163806828D01*
X114629285Y-163747000D01*
X114663543Y-163678484D01*
X114693950Y-163648077D01*
X114762466Y-163613819D01*
X114970686Y-163613819D01*
X115101995Y-163657589D01*
X115116332Y-163660849D01*
X115145522Y-163658774D01*
X115171696Y-163645688D01*
X115190870Y-163623580D01*
X115200124Y-163595818D01*
X115198049Y-163566628D01*
X115184962Y-163540455D01*
X115183076Y-163538819D01*
X115479285Y-163538819D01*
X115479285Y-164538819D01*
X115480726Y-164553451D01*
X115491925Y-164580487D01*
X115512617Y-164601179D01*
X115539653Y-164612378D01*
X115568917Y-164612378D01*
X115595953Y-164601179D01*
X115616645Y-164580487D01*
X115627844Y-164553451D01*
X115629285Y-164538819D01*
X115629285Y-163998456D01*
X115646331Y-163981410D01*
X115714847Y-163947152D01*
X115822294Y-163947152D01*
X115879335Y-163975672D01*
X115907856Y-164032714D01*
X115907856Y-164538819D01*
X115909297Y-164553451D01*
X115920496Y-164580487D01*
X115941188Y-164601179D01*
X115968224Y-164612378D01*
X115997488Y-164612378D01*
X116024524Y-164601179D01*
X116045216Y-164580487D01*
X116056415Y-164553451D01*
X116057856Y-164538819D01*
X116057856Y-164015009D01*
X116056415Y-164000377D01*
X116055384Y-163997888D01*
X116055193Y-163995199D01*
X116049938Y-163981468D01*
X116002319Y-163886230D01*
X116000778Y-163883782D01*
X116000394Y-163882629D01*
X115999148Y-163881192D01*
X115994487Y-163873787D01*
X115992602Y-163872152D01*
X116384047Y-163872152D01*
X116384047Y-164538819D01*
X116385488Y-164553451D01*
X116396687Y-164580487D01*
X116417379Y-164601179D01*
X116444415Y-164612378D01*
X116473679Y-164612378D01*
X116500715Y-164601179D01*
X116521407Y-164580487D01*
X116532606Y-164553451D01*
X116534047Y-164538819D01*
X116534047Y-163872152D01*
X116532606Y-163857520D01*
X116718821Y-163857520D01*
X116718821Y-163886784D01*
X116730020Y-163913820D01*
X116750712Y-163934512D01*
X116777748Y-163945711D01*
X116792380Y-163947152D01*
X116860237Y-163947152D01*
X116860237Y-164538819D01*
X116861678Y-164553451D01*
X116872877Y-164580487D01*
X116893569Y-164601179D01*
X116920605Y-164612378D01*
X116949869Y-164612378D01*
X116976905Y-164601179D01*
X116997597Y-164580487D01*
X117008796Y-164553451D01*
X117010237Y-164538819D01*
X117010237Y-163947152D01*
X117173332Y-163947152D01*
X117187964Y-163945711D01*
X117215000Y-163934512D01*
X117235692Y-163913820D01*
X117246891Y-163886784D01*
X117246891Y-163857520D01*
X117290250Y-163857520D01*
X117290250Y-163886784D01*
X117301449Y-163913820D01*
X117322141Y-163934512D01*
X117349177Y-163945711D01*
X117363809Y-163947152D01*
X117431666Y-163947152D01*
X117431666Y-164395961D01*
X117433107Y-164410593D01*
X117434138Y-164413082D01*
X117434329Y-164415770D01*
X117439584Y-164429502D01*
X117487203Y-164524741D01*
X117488743Y-164527187D01*
X117489128Y-164528342D01*
X117490374Y-164529779D01*
X117495035Y-164537183D01*
X117502137Y-164543342D01*
X117508301Y-164550450D01*
X117515706Y-164555111D01*
X117517143Y-164556357D01*
X117518296Y-164556741D01*
X117520744Y-164558282D01*
X117615982Y-164605901D01*
X117629713Y-164611156D01*
X117632402Y-164611347D01*
X117634891Y-164612378D01*
X117649523Y-164613819D01*
X117744761Y-164613819D01*
X117759393Y-164612378D01*
X117786429Y-164601179D01*
X117807121Y-164580487D01*
X117818320Y-164553451D01*
X117818320Y-164524187D01*
X117807121Y-164497151D01*
X117786429Y-164476459D01*
X117759393Y-164465260D01*
X117744761Y-164463819D01*
X117667228Y-164463819D01*
X117610186Y-164435298D01*
X117581666Y-164378256D01*
X117581666Y-164015009D01*
X117955476Y-164015009D01*
X117955476Y-164395961D01*
X117956917Y-164410593D01*
X117957948Y-164413082D01*
X117958139Y-164415770D01*
X117963394Y-164429502D01*
X118011013Y-164524741D01*
X118012553Y-164527187D01*
X118012938Y-164528342D01*
X118014184Y-164529779D01*
X118018845Y-164537183D01*
X118025947Y-164543342D01*
X118032111Y-164550450D01*
X118039516Y-164555111D01*
X118040953Y-164556357D01*
X118042106Y-164556741D01*
X118044554Y-164558282D01*
X118139792Y-164605901D01*
X118153523Y-164611156D01*
X118156212Y-164611347D01*
X118158701Y-164612378D01*
X118173333Y-164613819D01*
X118363809Y-164613819D01*
X118378441Y-164612378D01*
X118380930Y-164611346D01*
X118383618Y-164611156D01*
X118397350Y-164605901D01*
X118492588Y-164558282D01*
X118505031Y-164550450D01*
X118524204Y-164528342D01*
X118533458Y-164500581D01*
X118531384Y-164471391D01*
X118518296Y-164445216D01*
X118496189Y-164426043D01*
X118468427Y-164416789D01*
X118439237Y-164418863D01*
X118425506Y-164424118D01*
X118346104Y-164463819D01*
X118191038Y-164463819D01*
X118133996Y-164435298D01*
X118105476Y-164378256D01*
X118105476Y-164266970D01*
X118521374Y-164183791D01*
X118535440Y-164179508D01*
X118541545Y-164175419D01*
X118548334Y-164172607D01*
X118553586Y-164167354D01*
X118559754Y-164163224D01*
X118563828Y-164157113D01*
X118569026Y-164151915D01*
X118571869Y-164145051D01*
X118575986Y-164138876D01*
X118577411Y-164131670D01*
X118580225Y-164124879D01*
X118581666Y-164110247D01*
X118581666Y-164015009D01*
X118580225Y-164000377D01*
X118579194Y-163997888D01*
X118579003Y-163995199D01*
X118573748Y-163981468D01*
X118526129Y-163886230D01*
X118524588Y-163883782D01*
X118524204Y-163882629D01*
X118522958Y-163881192D01*
X118518297Y-163873787D01*
X118516412Y-163872152D01*
X118860238Y-163872152D01*
X118860238Y-164538819D01*
X118861679Y-164553451D01*
X118872878Y-164580487D01*
X118893570Y-164601179D01*
X118920606Y-164612378D01*
X118949870Y-164612378D01*
X118976906Y-164601179D01*
X118997598Y-164580487D01*
X119008797Y-164553451D01*
X119010238Y-164538819D01*
X119010238Y-164080333D01*
X119044496Y-164011817D01*
X119074903Y-163981410D01*
X119143419Y-163947152D01*
X119220952Y-163947152D01*
X119235584Y-163945711D01*
X119262620Y-163934512D01*
X119283312Y-163913820D01*
X119294511Y-163886784D01*
X119294511Y-163857520D01*
X119283312Y-163830484D01*
X119262620Y-163809792D01*
X119235584Y-163798593D01*
X119220952Y-163797152D01*
X119125714Y-163797152D01*
X119111082Y-163798593D01*
X119108593Y-163799623D01*
X119105904Y-163799815D01*
X119092173Y-163805070D01*
X119005103Y-163848604D01*
X118997598Y-163830484D01*
X118976906Y-163809792D01*
X118949870Y-163798593D01*
X118920606Y-163798593D01*
X118893570Y-163809792D01*
X118872878Y-163830484D01*
X118861679Y-163857520D01*
X118860238Y-163872152D01*
X118516412Y-163872152D01*
X118511192Y-163867625D01*
X118505031Y-163860521D01*
X118497625Y-163855859D01*
X118496189Y-163854614D01*
X118495035Y-163854229D01*
X118492588Y-163852689D01*
X118397350Y-163805070D01*
X118383618Y-163799815D01*
X118380930Y-163799624D01*
X118378441Y-163798593D01*
X118363809Y-163797152D01*
X118173333Y-163797152D01*
X118158701Y-163798593D01*
X118156212Y-163799623D01*
X118153523Y-163799815D01*
X118139792Y-163805070D01*
X118044554Y-163852689D01*
X118042106Y-163854229D01*
X118040953Y-163854614D01*
X118039516Y-163855859D01*
X118032111Y-163860521D01*
X118025949Y-163867625D01*
X118018845Y-163873787D01*
X118014183Y-163881192D01*
X118012938Y-163882629D01*
X118012553Y-163883782D01*
X118011013Y-163886230D01*
X117963394Y-163981468D01*
X117958139Y-163995200D01*
X117957948Y-163997887D01*
X117956917Y-164000377D01*
X117955476Y-164015009D01*
X117581666Y-164015009D01*
X117581666Y-163947152D01*
X117744761Y-163947152D01*
X117759393Y-163945711D01*
X117786429Y-163934512D01*
X117807121Y-163913820D01*
X117818320Y-163886784D01*
X117818320Y-163857520D01*
X117807121Y-163830484D01*
X117786429Y-163809792D01*
X117759393Y-163798593D01*
X117744761Y-163797152D01*
X117581666Y-163797152D01*
X117581666Y-163538819D01*
X117580225Y-163524187D01*
X117569026Y-163497151D01*
X117548334Y-163476459D01*
X117521298Y-163465260D01*
X117492034Y-163465260D01*
X117464998Y-163476459D01*
X117444306Y-163497151D01*
X117433107Y-163524187D01*
X117431666Y-163538819D01*
X117431666Y-163797152D01*
X117363809Y-163797152D01*
X117349177Y-163798593D01*
X117322141Y-163809792D01*
X117301449Y-163830484D01*
X117290250Y-163857520D01*
X117246891Y-163857520D01*
X117235692Y-163830484D01*
X117215000Y-163809792D01*
X117187964Y-163798593D01*
X117173332Y-163797152D01*
X117010237Y-163797152D01*
X117010237Y-163699381D01*
X117038757Y-163642339D01*
X117095799Y-163613819D01*
X117173332Y-163613819D01*
X117187964Y-163612378D01*
X117215000Y-163601179D01*
X117235692Y-163580487D01*
X117246891Y-163553451D01*
X117246891Y-163524187D01*
X117235692Y-163497151D01*
X117215000Y-163476459D01*
X117187964Y-163465260D01*
X117173332Y-163463819D01*
X117078094Y-163463819D01*
X117063462Y-163465260D01*
X117060973Y-163466290D01*
X117058284Y-163466482D01*
X117044553Y-163471737D01*
X116949315Y-163519356D01*
X116946867Y-163520896D01*
X116945714Y-163521281D01*
X116944277Y-163522526D01*
X116936872Y-163527188D01*
X116930710Y-163534292D01*
X116923606Y-163540454D01*
X116918944Y-163547859D01*
X116917699Y-163549296D01*
X116917314Y-163550449D01*
X116915774Y-163552897D01*
X116868155Y-163648135D01*
X116862900Y-163661867D01*
X116862709Y-163664554D01*
X116861678Y-163667044D01*
X116860237Y-163681676D01*
X116860237Y-163797152D01*
X116792380Y-163797152D01*
X116777748Y-163798593D01*
X116750712Y-163809792D01*
X116730020Y-163830484D01*
X116718821Y-163857520D01*
X116532606Y-163857520D01*
X116521407Y-163830484D01*
X116500715Y-163809792D01*
X116473679Y-163798593D01*
X116444415Y-163798593D01*
X116417379Y-163809792D01*
X116396687Y-163830484D01*
X116385488Y-163857520D01*
X116384047Y-163872152D01*
X115992602Y-163872152D01*
X115987382Y-163867625D01*
X115981221Y-163860521D01*
X115973815Y-163855859D01*
X115972379Y-163854614D01*
X115971225Y-163854229D01*
X115968778Y-163852689D01*
X115873540Y-163805070D01*
X115859808Y-163799815D01*
X115857120Y-163799624D01*
X115854631Y-163798593D01*
X115839999Y-163797152D01*
X115697142Y-163797152D01*
X115682510Y-163798593D01*
X115680021Y-163799623D01*
X115677332Y-163799815D01*
X115663601Y-163805070D01*
X115629285Y-163822228D01*
X115629285Y-163571807D01*
X116337869Y-163571807D01*
X116337869Y-163601069D01*
X116349068Y-163628106D01*
X116358395Y-163639471D01*
X116406014Y-163687090D01*
X116417379Y-163696417D01*
X116444415Y-163707616D01*
X116444416Y-163707616D01*
X116473678Y-163707616D01*
X116473679Y-163707616D01*
X116500715Y-163696417D01*
X116512080Y-163687090D01*
X116559699Y-163639471D01*
X116569026Y-163628106D01*
X116580225Y-163601070D01*
X116580225Y-163571807D01*
X116574767Y-163558629D01*
X116569026Y-163544770D01*
X116559699Y-163533405D01*
X116512080Y-163485786D01*
X116500715Y-163476459D01*
X116473679Y-163465260D01*
X116473678Y-163465260D01*
X116444415Y-163465260D01*
X116417379Y-163476459D01*
X116406014Y-163485786D01*
X116358395Y-163533405D01*
X116349068Y-163544770D01*
X116337869Y-163571807D01*
X115629285Y-163571807D01*
X115629285Y-163538819D01*
X115627844Y-163524187D01*
X115616645Y-163497151D01*
X115595953Y-163476459D01*
X115568917Y-163465260D01*
X115539653Y-163465260D01*
X115512617Y-163476459D01*
X115491925Y-163497151D01*
X115480726Y-163524187D01*
X115479285Y-163538819D01*
X115183076Y-163538819D01*
X115162855Y-163521281D01*
X115149430Y-163515287D01*
X115006573Y-163467668D01*
X114999319Y-163466018D01*
X114997488Y-163465260D01*
X114994833Y-163464998D01*
X114992236Y-163464408D01*
X114990261Y-163464548D01*
X114982856Y-163463819D01*
X114744761Y-163463819D01*
X114730129Y-163465260D01*
X114727640Y-163466290D01*
X114724951Y-163466482D01*
X114711220Y-163471737D01*
X114615982Y-163519356D01*
X114609682Y-163523320D01*
X114607855Y-163524078D01*
X114605798Y-163525766D01*
X114603539Y-163527188D01*
X114602239Y-163528686D01*
X114596490Y-163533405D01*
X114548871Y-163581024D01*
X114544152Y-163586773D01*
X114542654Y-163588073D01*
X114541232Y-163590332D01*
X114539544Y-163592389D01*
X114538786Y-163594216D01*
X114534822Y-163600516D01*
X114487203Y-163695754D01*
X114481948Y-163709486D01*
X114481757Y-163712173D01*
X114480726Y-163714663D01*
X114479285Y-163729295D01*
X114272936Y-163729295D01*
X114272936Y-161928875D01*
X115098333Y-161928875D01*
X115098333Y-162928875D01*
X115099774Y-162943507D01*
X115110973Y-162970543D01*
X115131665Y-162991235D01*
X115158701Y-163002434D01*
X115173333Y-163003875D01*
X115649523Y-163003875D01*
X115664155Y-163002434D01*
X115691191Y-162991235D01*
X115711883Y-162970543D01*
X115723082Y-162943507D01*
X115723082Y-162914243D01*
X115711883Y-162887207D01*
X115691191Y-162866515D01*
X115664155Y-162855316D01*
X115649523Y-162853875D01*
X115248333Y-162853875D01*
X115248333Y-162405065D01*
X115860238Y-162405065D01*
X115860238Y-162786017D01*
X115861679Y-162800649D01*
X115862710Y-162803138D01*
X115862901Y-162805826D01*
X115868156Y-162819558D01*
X115915775Y-162914797D01*
X115917315Y-162917243D01*
X115917700Y-162918398D01*
X115918946Y-162919835D01*
X115923607Y-162927239D01*
X115930709Y-162933398D01*
X115936873Y-162940506D01*
X115944278Y-162945167D01*
X115945715Y-162946413D01*
X115946868Y-162946797D01*
X115949316Y-162948338D01*
X116044554Y-162995957D01*
X116058285Y-163001212D01*
X116060974Y-163001403D01*
X116063463Y-163002434D01*
X116078095Y-163003875D01*
X116268571Y-163003875D01*
X116283203Y-163002434D01*
X116285692Y-163001402D01*
X116288380Y-163001212D01*
X116302112Y-162995957D01*
X116397350Y-162948338D01*
X116409793Y-162940506D01*
X116428966Y-162918398D01*
X116438220Y-162890637D01*
X116436146Y-162861447D01*
X116423058Y-162835272D01*
X116400951Y-162816099D01*
X116373189Y-162806845D01*
X116343999Y-162808919D01*
X116330268Y-162814174D01*
X116250866Y-162853875D01*
X116095800Y-162853875D01*
X116038758Y-162825354D01*
X116010238Y-162768312D01*
X116010238Y-162657026D01*
X116426136Y-162573847D01*
X116440202Y-162569564D01*
X116446307Y-162565475D01*
X116453096Y-162562663D01*
X116458348Y-162557410D01*
X116464516Y-162553280D01*
X116468590Y-162547169D01*
X116473788Y-162541971D01*
X116476631Y-162535107D01*
X116480748Y-162528932D01*
X116482173Y-162521726D01*
X116484987Y-162514935D01*
X116486428Y-162500303D01*
X116486428Y-162405065D01*
X116484987Y-162390433D01*
X116483956Y-162387944D01*
X116483765Y-162385255D01*
X116478510Y-162371524D01*
X116430891Y-162276286D01*
X116429350Y-162273838D01*
X116429127Y-162273169D01*
X116670567Y-162273169D01*
X116674131Y-162287433D01*
X116912226Y-162954100D01*
X116918505Y-162967395D01*
X116921031Y-162970185D01*
X116922643Y-162973588D01*
X116930778Y-162980953D01*
X116938144Y-162989089D01*
X116941546Y-162990700D01*
X116944337Y-162993227D01*
X116954674Y-162996918D01*
X116964590Y-163001616D01*
X116968348Y-163001802D01*
X116971896Y-163003070D01*
X116982857Y-163002524D01*
X116993818Y-163003070D01*
X116997365Y-163001802D01*
X117001124Y-163001616D01*
X117011039Y-162996918D01*
X117021377Y-162993227D01*
X117024167Y-162990700D01*
X117027570Y-162989089D01*
X117034938Y-162980949D01*
X117043071Y-162973587D01*
X117044681Y-162970186D01*
X117047209Y-162967395D01*
X117053488Y-162954100D01*
X117249572Y-162405065D01*
X117479286Y-162405065D01*
X117479286Y-162786017D01*
X117480727Y-162800649D01*
X117481758Y-162803138D01*
X117481949Y-162805826D01*
X117487204Y-162819558D01*
X117534823Y-162914797D01*
X117536363Y-162917243D01*
X117536748Y-162918398D01*
X117537994Y-162919835D01*
X117542655Y-162927239D01*
X117549757Y-162933398D01*
X117555921Y-162940506D01*
X117563326Y-162945167D01*
X117564763Y-162946413D01*
X117565916Y-162946797D01*
X117568364Y-162948338D01*
X117663602Y-162995957D01*
X117677333Y-163001212D01*
X117680022Y-163001403D01*
X117682511Y-163002434D01*
X117697143Y-163003875D01*
X117887619Y-163003875D01*
X117902251Y-163002434D01*
X117904740Y-163001402D01*
X117907428Y-163001212D01*
X117921160Y-162995957D01*
X118016398Y-162948338D01*
X118028841Y-162940506D01*
X118048014Y-162918398D01*
X118057268Y-162890637D01*
X118055194Y-162861447D01*
X118042106Y-162835272D01*
X118019999Y-162816099D01*
X117992237Y-162806845D01*
X117963047Y-162808919D01*
X117949316Y-162814174D01*
X117869914Y-162853875D01*
X117714848Y-162853875D01*
X117657806Y-162825354D01*
X117629286Y-162768312D01*
X117629286Y-162657026D01*
X118045184Y-162573847D01*
X118059250Y-162569564D01*
X118065355Y-162565475D01*
X118072144Y-162562663D01*
X118077396Y-162557410D01*
X118083564Y-162553280D01*
X118087638Y-162547169D01*
X118092836Y-162541971D01*
X118095679Y-162535107D01*
X118099796Y-162528932D01*
X118101221Y-162521726D01*
X118104035Y-162514935D01*
X118105476Y-162500303D01*
X118105476Y-162405065D01*
X118104035Y-162390433D01*
X118103004Y-162387944D01*
X118102813Y-162385255D01*
X118097558Y-162371524D01*
X118049939Y-162276286D01*
X118048398Y-162273838D01*
X118048014Y-162272685D01*
X118046768Y-162271248D01*
X118042107Y-162263843D01*
X118035002Y-162257681D01*
X118028841Y-162250577D01*
X118021435Y-162245915D01*
X118019999Y-162244670D01*
X118018845Y-162244285D01*
X118016398Y-162242745D01*
X117921160Y-162195126D01*
X117907428Y-162189871D01*
X117904740Y-162189680D01*
X117902251Y-162188649D01*
X117887619Y-162187208D01*
X117697143Y-162187208D01*
X117682511Y-162188649D01*
X117680022Y-162189679D01*
X117677333Y-162189871D01*
X117663602Y-162195126D01*
X117568364Y-162242745D01*
X117565916Y-162244285D01*
X117564763Y-162244670D01*
X117563326Y-162245915D01*
X117555921Y-162250577D01*
X117549759Y-162257681D01*
X117542655Y-162263843D01*
X117537993Y-162271248D01*
X117536748Y-162272685D01*
X117536363Y-162273838D01*
X117534823Y-162276286D01*
X117487204Y-162371524D01*
X117481949Y-162385256D01*
X117481758Y-162387943D01*
X117480727Y-162390433D01*
X117479286Y-162405065D01*
X117249572Y-162405065D01*
X117291583Y-162287433D01*
X117295147Y-162273169D01*
X117293693Y-162243942D01*
X117281166Y-162217496D01*
X117259472Y-162197856D01*
X117231913Y-162188013D01*
X117202685Y-162189467D01*
X117176239Y-162201994D01*
X117156600Y-162223688D01*
X117150321Y-162236983D01*
X116982857Y-162705882D01*
X116815393Y-162236983D01*
X116809114Y-162223688D01*
X116789475Y-162201994D01*
X116763029Y-162189467D01*
X116733801Y-162188013D01*
X116706242Y-162197856D01*
X116684548Y-162217495D01*
X116672021Y-162243941D01*
X116670567Y-162273169D01*
X116429127Y-162273169D01*
X116428966Y-162272685D01*
X116427720Y-162271248D01*
X116423059Y-162263843D01*
X116415954Y-162257681D01*
X116409793Y-162250577D01*
X116402387Y-162245915D01*
X116400951Y-162244670D01*
X116399797Y-162244285D01*
X116397350Y-162242745D01*
X116302112Y-162195126D01*
X116288380Y-162189871D01*
X116285692Y-162189680D01*
X116283203Y-162188649D01*
X116268571Y-162187208D01*
X116078095Y-162187208D01*
X116063463Y-162188649D01*
X116060974Y-162189679D01*
X116058285Y-162189871D01*
X116044554Y-162195126D01*
X115949316Y-162242745D01*
X115946868Y-162244285D01*
X115945715Y-162244670D01*
X115944278Y-162245915D01*
X115936873Y-162250577D01*
X115930711Y-162257681D01*
X115923607Y-162263843D01*
X115918945Y-162271248D01*
X115917700Y-162272685D01*
X115917315Y-162273838D01*
X115915775Y-162276286D01*
X115868156Y-162371524D01*
X115862901Y-162385256D01*
X115862710Y-162387943D01*
X115861679Y-162390433D01*
X115860238Y-162405065D01*
X115248333Y-162405065D01*
X115248333Y-161928875D01*
X118384048Y-161928875D01*
X118384048Y-162786017D01*
X118385489Y-162800649D01*
X118386520Y-162803138D01*
X118386711Y-162805826D01*
X118391966Y-162819558D01*
X118439585Y-162914797D01*
X118441125Y-162917243D01*
X118441510Y-162918398D01*
X118442756Y-162919835D01*
X118447417Y-162927239D01*
X118454519Y-162933398D01*
X118460683Y-162940506D01*
X118468088Y-162945167D01*
X118469525Y-162946413D01*
X118470678Y-162946797D01*
X118473126Y-162948338D01*
X118568364Y-162995957D01*
X118582095Y-163001212D01*
X118611285Y-163003286D01*
X118639047Y-162994032D01*
X118661154Y-162974859D01*
X118674242Y-162948684D01*
X118676316Y-162919494D01*
X118667062Y-162891733D01*
X118647889Y-162869625D01*
X118635446Y-162861793D01*
X118562568Y-162825354D01*
X118534048Y-162768312D01*
X118534048Y-161928875D01*
X118532607Y-161914243D01*
X118521408Y-161887207D01*
X118500716Y-161866515D01*
X118473680Y-161855316D01*
X118444416Y-161855316D01*
X118417380Y-161866515D01*
X118396688Y-161887207D01*
X118385489Y-161914243D01*
X118384048Y-161928875D01*
X115248333Y-161928875D01*
X115246892Y-161914243D01*
X115235693Y-161887207D01*
X115215001Y-161866515D01*
X115187965Y-161855316D01*
X115158701Y-161855316D01*
X115131665Y-161866515D01*
X115110973Y-161887207D01*
X115099774Y-161914243D01*
X115098333Y-161928875D01*
X114272936Y-161928875D01*
X114272936Y-161744205D01*
X119454682Y-161744205D01*
X119454682Y-166334874D01*
G37*
X109509160Y-164176104D02*
X109985350Y-164176104D01*
X109413922Y-164461819D02*
X109747255Y-163461819D01*
X109747255Y-163461819D02*
X110080588Y-164461819D01*
X110556779Y-163890390D02*
X110461541Y-163842771D01*
X110461541Y-163842771D02*
X110413922Y-163795152D01*
X110413922Y-163795152D02*
X110366303Y-163699914D01*
X110366303Y-163699914D02*
X110366303Y-163652295D01*
X110366303Y-163652295D02*
X110413922Y-163557057D01*
X110413922Y-163557057D02*
X110461541Y-163509438D01*
X110461541Y-163509438D02*
X110556779Y-163461819D01*
X110556779Y-163461819D02*
X110747255Y-163461819D01*
X110747255Y-163461819D02*
X110842493Y-163509438D01*
X110842493Y-163509438D02*
X110890112Y-163557057D01*
X110890112Y-163557057D02*
X110937731Y-163652295D01*
X110937731Y-163652295D02*
X110937731Y-163699914D01*
X110937731Y-163699914D02*
X110890112Y-163795152D01*
X110890112Y-163795152D02*
X110842493Y-163842771D01*
X110842493Y-163842771D02*
X110747255Y-163890390D01*
X110747255Y-163890390D02*
X110556779Y-163890390D01*
X110556779Y-163890390D02*
X110461541Y-163938009D01*
X110461541Y-163938009D02*
X110413922Y-163985628D01*
X110413922Y-163985628D02*
X110366303Y-164080866D01*
X110366303Y-164080866D02*
X110366303Y-164271342D01*
X110366303Y-164271342D02*
X110413922Y-164366580D01*
X110413922Y-164366580D02*
X110461541Y-164414200D01*
X110461541Y-164414200D02*
X110556779Y-164461819D01*
X110556779Y-164461819D02*
X110747255Y-164461819D01*
X110747255Y-164461819D02*
X110842493Y-164414200D01*
X110842493Y-164414200D02*
X110890112Y-164366580D01*
X110890112Y-164366580D02*
X110937731Y-164271342D01*
X110937731Y-164271342D02*
X110937731Y-164080866D01*
X110937731Y-164080866D02*
X110890112Y-163985628D01*
X110890112Y-163985628D02*
X110842493Y-163938009D01*
X110842493Y-163938009D02*
X110747255Y-163890390D01*
X112080588Y-163414200D02*
X111223446Y-164699914D01*
X112366303Y-164176104D02*
X112842493Y-164176104D01*
X112271065Y-164461819D02*
X112604398Y-163461819D01*
X112604398Y-163461819D02*
X112937731Y-164461819D01*
X113699636Y-163795152D02*
X113699636Y-164461819D01*
X113461541Y-163414200D02*
X113223446Y-164128485D01*
X113223446Y-164128485D02*
X113842493Y-164128485D01*
X149190363Y-156318009D02*
X149333220Y-156365628D01*
X149333220Y-156365628D02*
X149380839Y-156413247D01*
X149380839Y-156413247D02*
X149428458Y-156508485D01*
X149428458Y-156508485D02*
X149428458Y-156651342D01*
X149428458Y-156651342D02*
X149380839Y-156746580D01*
X149380839Y-156746580D02*
X149333220Y-156794200D01*
X149333220Y-156794200D02*
X149237982Y-156841819D01*
X149237982Y-156841819D02*
X148857030Y-156841819D01*
X148857030Y-156841819D02*
X148857030Y-155841819D01*
X148857030Y-155841819D02*
X149190363Y-155841819D01*
X149190363Y-155841819D02*
X149285601Y-155889438D01*
X149285601Y-155889438D02*
X149333220Y-155937057D01*
X149333220Y-155937057D02*
X149380839Y-156032295D01*
X149380839Y-156032295D02*
X149380839Y-156127533D01*
X149380839Y-156127533D02*
X149333220Y-156222771D01*
X149333220Y-156222771D02*
X149285601Y-156270390D01*
X149285601Y-156270390D02*
X149190363Y-156318009D01*
X149190363Y-156318009D02*
X148857030Y-156318009D01*
X150380839Y-156841819D02*
X149809411Y-156841819D01*
X150095125Y-156841819D02*
X150095125Y-155841819D01*
X150095125Y-155841819D02*
X149999887Y-155984676D01*
X149999887Y-155984676D02*
X149904649Y-156079914D01*
X149904649Y-156079914D02*
X149809411Y-156127533D01*
X151523696Y-155794200D02*
X150666554Y-157079914D01*
X152190363Y-156318009D02*
X152333220Y-156365628D01*
X152333220Y-156365628D02*
X152380839Y-156413247D01*
X152380839Y-156413247D02*
X152428458Y-156508485D01*
X152428458Y-156508485D02*
X152428458Y-156651342D01*
X152428458Y-156651342D02*
X152380839Y-156746580D01*
X152380839Y-156746580D02*
X152333220Y-156794200D01*
X152333220Y-156794200D02*
X152237982Y-156841819D01*
X152237982Y-156841819D02*
X151857030Y-156841819D01*
X151857030Y-156841819D02*
X151857030Y-155841819D01*
X151857030Y-155841819D02*
X152190363Y-155841819D01*
X152190363Y-155841819D02*
X152285601Y-155889438D01*
X152285601Y-155889438D02*
X152333220Y-155937057D01*
X152333220Y-155937057D02*
X152380839Y-156032295D01*
X152380839Y-156032295D02*
X152380839Y-156127533D01*
X152380839Y-156127533D02*
X152333220Y-156222771D01*
X152333220Y-156222771D02*
X152285601Y-156270390D01*
X152285601Y-156270390D02*
X152190363Y-156318009D01*
X152190363Y-156318009D02*
X151857030Y-156318009D01*
X153333220Y-155841819D02*
X152857030Y-155841819D01*
X152857030Y-155841819D02*
X152809411Y-156318009D01*
X152809411Y-156318009D02*
X152857030Y-156270390D01*
X152857030Y-156270390D02*
X152952268Y-156222771D01*
X152952268Y-156222771D02*
X153190363Y-156222771D01*
X153190363Y-156222771D02*
X153285601Y-156270390D01*
X153285601Y-156270390D02*
X153333220Y-156318009D01*
X153333220Y-156318009D02*
X153380839Y-156413247D01*
X153380839Y-156413247D02*
X153380839Y-156651342D01*
X153380839Y-156651342D02*
X153333220Y-156746580D01*
X153333220Y-156746580D02*
X153285601Y-156794200D01*
X153285601Y-156794200D02*
X153190363Y-156841819D01*
X153190363Y-156841819D02*
X152952268Y-156841819D01*
X152952268Y-156841819D02*
X152857030Y-156794200D01*
X152857030Y-156794200D02*
X152809411Y-156746580D01*
X149190363Y-163938009D02*
X149333220Y-163985628D01*
X149333220Y-163985628D02*
X149380839Y-164033247D01*
X149380839Y-164033247D02*
X149428458Y-164128485D01*
X149428458Y-164128485D02*
X149428458Y-164271342D01*
X149428458Y-164271342D02*
X149380839Y-164366580D01*
X149380839Y-164366580D02*
X149333220Y-164414200D01*
X149333220Y-164414200D02*
X149237982Y-164461819D01*
X149237982Y-164461819D02*
X148857030Y-164461819D01*
X148857030Y-164461819D02*
X148857030Y-163461819D01*
X148857030Y-163461819D02*
X149190363Y-163461819D01*
X149190363Y-163461819D02*
X149285601Y-163509438D01*
X149285601Y-163509438D02*
X149333220Y-163557057D01*
X149333220Y-163557057D02*
X149380839Y-163652295D01*
X149380839Y-163652295D02*
X149380839Y-163747533D01*
X149380839Y-163747533D02*
X149333220Y-163842771D01*
X149333220Y-163842771D02*
X149285601Y-163890390D01*
X149285601Y-163890390D02*
X149190363Y-163938009D01*
X149190363Y-163938009D02*
X148857030Y-163938009D01*
X150285601Y-163795152D02*
X150285601Y-164461819D01*
X150047506Y-163414200D02*
X149809411Y-164128485D01*
X149809411Y-164128485D02*
X150428458Y-164128485D01*
X151523696Y-163414200D02*
X150666554Y-164699914D01*
X152190363Y-163938009D02*
X152333220Y-163985628D01*
X152333220Y-163985628D02*
X152380839Y-164033247D01*
X152380839Y-164033247D02*
X152428458Y-164128485D01*
X152428458Y-164128485D02*
X152428458Y-164271342D01*
X152428458Y-164271342D02*
X152380839Y-164366580D01*
X152380839Y-164366580D02*
X152333220Y-164414200D01*
X152333220Y-164414200D02*
X152237982Y-164461819D01*
X152237982Y-164461819D02*
X151857030Y-164461819D01*
X151857030Y-164461819D02*
X151857030Y-163461819D01*
X151857030Y-163461819D02*
X152190363Y-163461819D01*
X152190363Y-163461819D02*
X152285601Y-163509438D01*
X152285601Y-163509438D02*
X152333220Y-163557057D01*
X152333220Y-163557057D02*
X152380839Y-163652295D01*
X152380839Y-163652295D02*
X152380839Y-163747533D01*
X152380839Y-163747533D02*
X152333220Y-163842771D01*
X152333220Y-163842771D02*
X152285601Y-163890390D01*
X152285601Y-163890390D02*
X152190363Y-163938009D01*
X152190363Y-163938009D02*
X151857030Y-163938009D01*
X152999887Y-163890390D02*
X152904649Y-163842771D01*
X152904649Y-163842771D02*
X152857030Y-163795152D01*
X152857030Y-163795152D02*
X152809411Y-163699914D01*
X152809411Y-163699914D02*
X152809411Y-163652295D01*
X152809411Y-163652295D02*
X152857030Y-163557057D01*
X152857030Y-163557057D02*
X152904649Y-163509438D01*
X152904649Y-163509438D02*
X152999887Y-163461819D01*
X152999887Y-163461819D02*
X153190363Y-163461819D01*
X153190363Y-163461819D02*
X153285601Y-163509438D01*
X153285601Y-163509438D02*
X153333220Y-163557057D01*
X153333220Y-163557057D02*
X153380839Y-163652295D01*
X153380839Y-163652295D02*
X153380839Y-163699914D01*
X153380839Y-163699914D02*
X153333220Y-163795152D01*
X153333220Y-163795152D02*
X153285601Y-163842771D01*
X153285601Y-163842771D02*
X153190363Y-163890390D01*
X153190363Y-163890390D02*
X152999887Y-163890390D01*
X152999887Y-163890390D02*
X152904649Y-163938009D01*
X152904649Y-163938009D02*
X152857030Y-163985628D01*
X152857030Y-163985628D02*
X152809411Y-164080866D01*
X152809411Y-164080866D02*
X152809411Y-164271342D01*
X152809411Y-164271342D02*
X152857030Y-164366580D01*
X152857030Y-164366580D02*
X152904649Y-164414200D01*
X152904649Y-164414200D02*
X152999887Y-164461819D01*
X152999887Y-164461819D02*
X153190363Y-164461819D01*
X153190363Y-164461819D02*
X153285601Y-164414200D01*
X153285601Y-164414200D02*
X153333220Y-164366580D01*
X153333220Y-164366580D02*
X153380839Y-164271342D01*
X153380839Y-164271342D02*
X153380839Y-164080866D01*
X153380839Y-164080866D02*
X153333220Y-163985628D01*
X153333220Y-163985628D02*
X153285601Y-163938009D01*
X153285601Y-163938009D02*
X153190363Y-163890390D01*
X109413922Y-168541819D02*
X109747255Y-169541819D01*
X109747255Y-169541819D02*
X110080588Y-168541819D01*
X110985350Y-169446580D02*
X110937731Y-169494200D01*
X110937731Y-169494200D02*
X110794874Y-169541819D01*
X110794874Y-169541819D02*
X110699636Y-169541819D01*
X110699636Y-169541819D02*
X110556779Y-169494200D01*
X110556779Y-169494200D02*
X110461541Y-169398961D01*
X110461541Y-169398961D02*
X110413922Y-169303723D01*
X110413922Y-169303723D02*
X110366303Y-169113247D01*
X110366303Y-169113247D02*
X110366303Y-168970390D01*
X110366303Y-168970390D02*
X110413922Y-168779914D01*
X110413922Y-168779914D02*
X110461541Y-168684676D01*
X110461541Y-168684676D02*
X110556779Y-168589438D01*
X110556779Y-168589438D02*
X110699636Y-168541819D01*
X110699636Y-168541819D02*
X110794874Y-168541819D01*
X110794874Y-168541819D02*
X110937731Y-168589438D01*
X110937731Y-168589438D02*
X110985350Y-168637057D01*
X111985350Y-169446580D02*
X111937731Y-169494200D01*
X111937731Y-169494200D02*
X111794874Y-169541819D01*
X111794874Y-169541819D02*
X111699636Y-169541819D01*
X111699636Y-169541819D02*
X111556779Y-169494200D01*
X111556779Y-169494200D02*
X111461541Y-169398961D01*
X111461541Y-169398961D02*
X111413922Y-169303723D01*
X111413922Y-169303723D02*
X111366303Y-169113247D01*
X111366303Y-169113247D02*
X111366303Y-168970390D01*
X111366303Y-168970390D02*
X111413922Y-168779914D01*
X111413922Y-168779914D02*
X111461541Y-168684676D01*
X111461541Y-168684676D02*
X111556779Y-168589438D01*
X111556779Y-168589438D02*
X111699636Y-168541819D01*
X111699636Y-168541819D02*
X111794874Y-168541819D01*
X111794874Y-168541819D02*
X111937731Y-168589438D01*
X111937731Y-168589438D02*
X111985350Y-168637057D01*
X112366303Y-169256104D02*
X112842493Y-169256104D01*
X112271065Y-169541819D02*
X112604398Y-168541819D01*
X112604398Y-168541819D02*
X112937731Y-169541819D01*
G36*
X139627676Y-152983990D02*
G01*
X139701789Y-153058103D01*
X139740282Y-153135090D01*
X139783666Y-153308624D01*
X139783666Y-153433013D01*
X139740282Y-153606547D01*
X139701788Y-153683534D01*
X139627676Y-153757647D01*
X139513163Y-153795819D01*
X139362238Y-153795819D01*
X139362238Y-152945819D01*
X139513163Y-152945819D01*
X139627676Y-152983990D01*
G37*
G36*
X140719001Y-152980077D02*
G01*
X140790943Y-153052019D01*
X140831285Y-153213386D01*
X140831285Y-153528251D01*
X140790943Y-153689617D01*
X140719000Y-153761561D01*
X140650485Y-153795819D01*
X140495419Y-153795819D01*
X140426903Y-153761561D01*
X140354960Y-153689617D01*
X140314619Y-153528251D01*
X140314619Y-153213386D01*
X140354960Y-153052019D01*
X140426903Y-152980077D01*
X140495419Y-152945819D01*
X140650485Y-152945819D01*
X140719001Y-152980077D01*
G37*
G36*
X134814239Y-152980077D02*
G01*
X134844646Y-153010484D01*
X134878904Y-153079000D01*
X134878904Y-153186447D01*
X134844646Y-153254963D01*
X134814239Y-153285370D01*
X134745723Y-153319628D01*
X134457476Y-153319628D01*
X134457476Y-152945819D01*
X134745723Y-152945819D01*
X134814239Y-152980077D01*
G37*
G36*
X144235253Y-154056930D02*
G01*
X134196365Y-154056930D01*
X134196365Y-152870819D01*
X134307476Y-152870819D01*
X134307476Y-153870819D01*
X134308917Y-153885451D01*
X134320116Y-153912487D01*
X134340808Y-153933179D01*
X134367844Y-153944378D01*
X134397108Y-153944378D01*
X134424144Y-153933179D01*
X134444836Y-153912487D01*
X134456035Y-153885451D01*
X134457476Y-153870819D01*
X134457476Y-153469628D01*
X134763428Y-153469628D01*
X134778060Y-153468187D01*
X134780549Y-153467155D01*
X134783237Y-153466965D01*
X134796969Y-153461710D01*
X134892207Y-153414091D01*
X134898506Y-153410126D01*
X134900334Y-153409369D01*
X134902390Y-153407680D01*
X134904650Y-153406259D01*
X134905949Y-153404760D01*
X134911699Y-153400042D01*
X134959318Y-153352423D01*
X134964036Y-153346673D01*
X134965535Y-153345374D01*
X134966956Y-153343114D01*
X134968645Y-153341058D01*
X134969402Y-153339230D01*
X134973367Y-153332931D01*
X135020986Y-153237693D01*
X135026241Y-153223962D01*
X135026432Y-153221272D01*
X135027463Y-153218784D01*
X135028904Y-153204152D01*
X135028904Y-153061295D01*
X135027463Y-153046663D01*
X135026432Y-153044174D01*
X135026241Y-153041485D01*
X135020986Y-153027754D01*
X134973367Y-152932516D01*
X134969402Y-152926216D01*
X134968645Y-152924389D01*
X134966956Y-152922332D01*
X134965535Y-152920073D01*
X134964036Y-152918773D01*
X134959318Y-152913024D01*
X134917113Y-152870819D01*
X135307476Y-152870819D01*
X135307476Y-153680342D01*
X135308917Y-153694974D01*
X135309948Y-153697463D01*
X135310139Y-153700151D01*
X135315394Y-153713883D01*
X135363013Y-153809121D01*
X135366976Y-153815417D01*
X135367734Y-153817247D01*
X135369423Y-153819305D01*
X135370845Y-153821564D01*
X135372343Y-153822863D01*
X135377061Y-153828612D01*
X135424680Y-153876232D01*
X135430429Y-153880950D01*
X135431730Y-153882450D01*
X135433989Y-153883872D01*
X135436046Y-153885560D01*
X135437873Y-153886317D01*
X135444173Y-153890282D01*
X135539411Y-153937901D01*
X135553142Y-153943156D01*
X135555831Y-153943347D01*
X135558320Y-153944378D01*
X135572952Y-153945819D01*
X135763428Y-153945819D01*
X135778060Y-153944378D01*
X135780549Y-153943346D01*
X135783237Y-153943156D01*
X135796969Y-153937901D01*
X135892207Y-153890282D01*
X135898506Y-153886317D01*
X135900334Y-153885560D01*
X135902390Y-153883872D01*
X135904650Y-153882450D01*
X135905950Y-153880950D01*
X135911700Y-153876232D01*
X135959318Y-153828613D01*
X135964036Y-153822863D01*
X135965535Y-153821564D01*
X135966956Y-153819305D01*
X135968646Y-153817247D01*
X135969403Y-153815417D01*
X135973367Y-153809121D01*
X136020986Y-153713883D01*
X136026241Y-153700152D01*
X136026432Y-153697462D01*
X136027463Y-153694974D01*
X136028904Y-153680342D01*
X136028904Y-152870819D01*
X136355095Y-152870819D01*
X136355095Y-153870819D01*
X136356536Y-153885451D01*
X136367735Y-153912487D01*
X136388427Y-153933179D01*
X136415463Y-153944378D01*
X136430095Y-153945819D01*
X136906285Y-153945819D01*
X136920917Y-153944378D01*
X136947953Y-153933179D01*
X136968645Y-153912487D01*
X136979844Y-153885451D01*
X136979844Y-153856187D01*
X136968645Y-153829151D01*
X136947953Y-153808459D01*
X136920917Y-153797260D01*
X136906285Y-153795819D01*
X136505095Y-153795819D01*
X136505095Y-152870819D01*
X137164619Y-152870819D01*
X137164619Y-153870819D01*
X137166060Y-153885451D01*
X137177259Y-153912487D01*
X137197951Y-153933179D01*
X137224987Y-153944378D01*
X137239619Y-153945819D01*
X137715809Y-153945819D01*
X137730441Y-153944378D01*
X137757477Y-153933179D01*
X137778169Y-153912487D01*
X137789368Y-153885451D01*
X137789368Y-153856187D01*
X137778169Y-153829151D01*
X137757477Y-153808459D01*
X137730441Y-153797260D01*
X137715809Y-153795819D01*
X137314619Y-153795819D01*
X137314619Y-153475234D01*
X137975584Y-153475234D01*
X137975584Y-153504498D01*
X137986783Y-153531534D01*
X138007475Y-153552226D01*
X138034511Y-153563425D01*
X138049143Y-153564866D01*
X138811048Y-153564866D01*
X138825680Y-153563425D01*
X138852716Y-153552226D01*
X138873408Y-153531534D01*
X138884607Y-153504498D01*
X138884607Y-153475234D01*
X138873408Y-153448198D01*
X138852716Y-153427506D01*
X138825680Y-153416307D01*
X138811048Y-153414866D01*
X138049143Y-153414866D01*
X138034511Y-153416307D01*
X138007475Y-153427506D01*
X137986783Y-153448198D01*
X137975584Y-153475234D01*
X137314619Y-153475234D01*
X137314619Y-152870819D01*
X139212238Y-152870819D01*
X139212238Y-153870819D01*
X139213679Y-153885451D01*
X139224878Y-153912487D01*
X139245570Y-153933179D01*
X139272606Y-153944378D01*
X139287238Y-153945819D01*
X139525333Y-153945819D01*
X139532738Y-153945089D01*
X139534713Y-153945230D01*
X139537310Y-153944639D01*
X139539965Y-153944378D01*
X139541796Y-153943619D01*
X139549050Y-153941970D01*
X139691907Y-153894351D01*
X139705332Y-153888357D01*
X139707367Y-153886591D01*
X139709858Y-153885560D01*
X139721223Y-153876233D01*
X139816462Y-153780993D01*
X139821179Y-153775244D01*
X139822678Y-153773945D01*
X139824099Y-153771686D01*
X139825789Y-153769628D01*
X139826546Y-153767798D01*
X139830510Y-153761502D01*
X139878129Y-153666264D01*
X139878538Y-153665194D01*
X139878861Y-153664759D01*
X139881053Y-153658622D01*
X139883384Y-153652533D01*
X139883422Y-153651992D01*
X139883808Y-153650913D01*
X139931427Y-153460437D01*
X139931802Y-153457900D01*
X139932225Y-153456879D01*
X139932767Y-153451366D01*
X139933577Y-153445893D01*
X139933414Y-153444800D01*
X139933666Y-153442247D01*
X139933666Y-153299390D01*
X139933414Y-153296836D01*
X139933577Y-153295744D01*
X139932767Y-153290270D01*
X139932225Y-153284758D01*
X139931802Y-153283736D01*
X139931427Y-153281200D01*
X139912165Y-153204152D01*
X140164619Y-153204152D01*
X140164619Y-153537485D01*
X140164870Y-153540038D01*
X140164708Y-153541131D01*
X140165517Y-153546604D01*
X140166060Y-153552117D01*
X140166482Y-153553138D01*
X140166858Y-153555675D01*
X140214477Y-153746151D01*
X140219424Y-153759997D01*
X140222743Y-153764476D01*
X140224877Y-153769628D01*
X140234205Y-153780994D01*
X140329443Y-153876233D01*
X140335193Y-153880953D01*
X140336492Y-153882450D01*
X140338746Y-153883869D01*
X140340808Y-153885561D01*
X140342640Y-153886319D01*
X140348935Y-153890282D01*
X140444173Y-153937901D01*
X140457904Y-153943156D01*
X140460593Y-153943347D01*
X140463082Y-153944378D01*
X140477714Y-153945819D01*
X140668190Y-153945819D01*
X140682822Y-153944378D01*
X140685311Y-153943346D01*
X140687999Y-153943156D01*
X140701731Y-153937901D01*
X140796969Y-153890282D01*
X140803268Y-153886317D01*
X140805096Y-153885560D01*
X140807152Y-153883871D01*
X140809412Y-153882450D01*
X140810711Y-153880951D01*
X140816461Y-153876233D01*
X140911700Y-153780993D01*
X140921027Y-153769628D01*
X140923160Y-153764476D01*
X140926480Y-153759997D01*
X140931427Y-153746151D01*
X140979046Y-153555675D01*
X140979421Y-153553138D01*
X140979844Y-153552117D01*
X140980386Y-153546604D01*
X140981196Y-153541131D01*
X140981033Y-153540038D01*
X140981285Y-153537485D01*
X140981285Y-153204152D01*
X140981033Y-153201598D01*
X140981196Y-153200506D01*
X140980386Y-153195032D01*
X140979844Y-153189520D01*
X140979421Y-153188498D01*
X140979046Y-153185962D01*
X140931427Y-152995486D01*
X140926480Y-152981640D01*
X140923161Y-152977161D01*
X140921027Y-152972008D01*
X140911699Y-152960643D01*
X140824679Y-152873623D01*
X141164671Y-152873623D01*
X141166659Y-152888191D01*
X141404754Y-153888191D01*
X141406483Y-153893210D01*
X141406723Y-153895012D01*
X141407665Y-153896640D01*
X141409544Y-153902091D01*
X141415930Y-153910915D01*
X141421385Y-153920337D01*
X141424442Y-153922677D01*
X141426701Y-153925798D01*
X141435976Y-153931505D01*
X141444623Y-153938124D01*
X141448343Y-153939116D01*
X141451623Y-153941134D01*
X141462377Y-153942858D01*
X141472899Y-153945664D01*
X141476714Y-153945157D01*
X141480518Y-153945767D01*
X141491116Y-153943243D01*
X141501907Y-153941810D01*
X141505238Y-153939881D01*
X141508986Y-153938989D01*
X141517810Y-153932602D01*
X141527232Y-153927148D01*
X141529572Y-153924090D01*
X141532693Y-153921832D01*
X141538400Y-153912556D01*
X141545019Y-153903910D01*
X141547044Y-153898510D01*
X141548029Y-153896910D01*
X141548316Y-153895118D01*
X141550182Y-153890144D01*
X141668189Y-153447613D01*
X141786198Y-153890144D01*
X141788063Y-153895119D01*
X141788351Y-153896910D01*
X141789335Y-153898509D01*
X141791361Y-153903911D01*
X141797981Y-153912559D01*
X141803687Y-153921832D01*
X141806807Y-153924090D01*
X141809148Y-153927148D01*
X141818569Y-153932602D01*
X141827394Y-153938989D01*
X141831141Y-153939881D01*
X141834473Y-153941810D01*
X141845266Y-153943244D01*
X141855862Y-153945767D01*
X141859663Y-153945157D01*
X141863482Y-153945665D01*
X141874013Y-153942856D01*
X141884757Y-153941134D01*
X141888033Y-153939118D01*
X141891757Y-153938125D01*
X141900407Y-153931503D01*
X141909679Y-153925798D01*
X141911937Y-153922677D01*
X141914995Y-153920337D01*
X141920450Y-153910914D01*
X141926836Y-153902091D01*
X141928713Y-153896642D01*
X141929657Y-153895013D01*
X141929896Y-153893209D01*
X141931626Y-153888191D01*
X142169722Y-152888191D01*
X142171710Y-152873623D01*
X142171260Y-152870819D01*
X142402714Y-152870819D01*
X142402714Y-153870819D01*
X142404155Y-153885451D01*
X142415354Y-153912487D01*
X142436046Y-153933179D01*
X142463082Y-153944378D01*
X142492346Y-153944378D01*
X142519382Y-153933179D01*
X142540074Y-153912487D01*
X142551273Y-153885451D01*
X142552714Y-153870819D01*
X142552714Y-153153235D01*
X142984024Y-153908030D01*
X142986213Y-153911114D01*
X142986782Y-153912487D01*
X142988179Y-153913884D01*
X142992534Y-153920019D01*
X143000422Y-153926127D01*
X143007474Y-153933179D01*
X143011892Y-153935009D01*
X143015672Y-153937936D01*
X143025293Y-153940560D01*
X143034510Y-153944378D01*
X143039291Y-153944378D01*
X143043903Y-153945636D01*
X143053800Y-153944378D01*
X143063774Y-153944378D01*
X143068189Y-153942548D01*
X143072933Y-153941946D01*
X143081597Y-153936995D01*
X143090810Y-153933179D01*
X143094188Y-153929800D01*
X143098342Y-153927427D01*
X143104451Y-153919537D01*
X143111502Y-153912487D01*
X143113331Y-153908070D01*
X143116259Y-153904290D01*
X143118883Y-153894666D01*
X143122701Y-153885451D01*
X143123437Y-153877968D01*
X143123959Y-153876058D01*
X143123771Y-153874582D01*
X143124142Y-153870819D01*
X143124142Y-153061295D01*
X143402714Y-153061295D01*
X143402714Y-153156533D01*
X143404155Y-153171165D01*
X143405186Y-153173654D01*
X143405377Y-153176342D01*
X143410632Y-153190074D01*
X143458251Y-153285312D01*
X143462215Y-153291611D01*
X143462973Y-153293439D01*
X143464661Y-153295495D01*
X143466083Y-153297755D01*
X143467581Y-153299054D01*
X143472300Y-153304804D01*
X143519919Y-153352423D01*
X143525668Y-153357141D01*
X143526968Y-153358640D01*
X143529227Y-153360061D01*
X143531284Y-153361750D01*
X143533111Y-153362507D01*
X143539411Y-153366472D01*
X143634649Y-153414091D01*
X143635718Y-153414500D01*
X143636154Y-153414823D01*
X143642290Y-153417015D01*
X143648380Y-153419346D01*
X143648920Y-153419384D01*
X143650000Y-153419770D01*
X143832490Y-153465392D01*
X143909477Y-153503886D01*
X143939884Y-153534293D01*
X143974142Y-153602809D01*
X143974142Y-153662637D01*
X143939883Y-153731153D01*
X143909476Y-153761561D01*
X143840961Y-153795819D01*
X143632741Y-153795819D01*
X143501431Y-153752049D01*
X143487094Y-153748789D01*
X143457904Y-153750864D01*
X143431731Y-153763950D01*
X143412557Y-153786057D01*
X143403303Y-153813820D01*
X143405378Y-153843010D01*
X143418464Y-153869183D01*
X143440571Y-153888357D01*
X143453997Y-153894351D01*
X143596853Y-153941970D01*
X143604108Y-153943619D01*
X143605939Y-153944378D01*
X143608592Y-153944639D01*
X143611190Y-153945230D01*
X143613164Y-153945089D01*
X143620571Y-153945819D01*
X143858666Y-153945819D01*
X143873298Y-153944378D01*
X143875787Y-153943346D01*
X143878475Y-153943156D01*
X143892207Y-153937901D01*
X143987445Y-153890282D01*
X143993744Y-153886317D01*
X143995572Y-153885560D01*
X143997628Y-153883872D01*
X143999888Y-153882450D01*
X144001188Y-153880950D01*
X144006938Y-153876232D01*
X144054556Y-153828613D01*
X144059274Y-153822863D01*
X144060773Y-153821564D01*
X144062194Y-153819305D01*
X144063884Y-153817247D01*
X144064641Y-153815417D01*
X144068605Y-153809121D01*
X144116224Y-153713883D01*
X144121479Y-153700152D01*
X144121670Y-153697462D01*
X144122701Y-153694974D01*
X144124142Y-153680342D01*
X144124142Y-153585104D01*
X144122701Y-153570472D01*
X144121670Y-153567983D01*
X144121479Y-153565294D01*
X144116224Y-153551563D01*
X144068605Y-153456325D01*
X144064640Y-153450025D01*
X144063883Y-153448198D01*
X144062194Y-153446141D01*
X144060773Y-153443882D01*
X144059274Y-153442582D01*
X144054556Y-153436833D01*
X144006937Y-153389214D01*
X144001187Y-153384495D01*
X143999888Y-153382997D01*
X143997628Y-153381575D01*
X143995572Y-153379887D01*
X143993744Y-153379129D01*
X143987445Y-153375165D01*
X143892207Y-153327546D01*
X143891137Y-153327136D01*
X143890702Y-153326814D01*
X143884556Y-153324618D01*
X143878475Y-153322291D01*
X143877935Y-153322252D01*
X143876856Y-153321867D01*
X143694366Y-153276244D01*
X143617379Y-153237751D01*
X143586972Y-153207344D01*
X143552714Y-153138828D01*
X143552714Y-153079000D01*
X143586972Y-153010484D01*
X143617379Y-152980077D01*
X143685895Y-152945819D01*
X143894115Y-152945819D01*
X144025424Y-152989589D01*
X144039761Y-152992849D01*
X144068951Y-152990774D01*
X144095125Y-152977688D01*
X144114299Y-152955580D01*
X144123553Y-152927818D01*
X144121478Y-152898628D01*
X144108391Y-152872455D01*
X144086284Y-152853281D01*
X144072859Y-152847287D01*
X143930002Y-152799668D01*
X143922748Y-152798018D01*
X143920917Y-152797260D01*
X143918262Y-152796998D01*
X143915665Y-152796408D01*
X143913690Y-152796548D01*
X143906285Y-152795819D01*
X143668190Y-152795819D01*
X143653558Y-152797260D01*
X143651069Y-152798290D01*
X143648380Y-152798482D01*
X143634649Y-152803737D01*
X143539411Y-152851356D01*
X143533111Y-152855320D01*
X143531284Y-152856078D01*
X143529227Y-152857766D01*
X143526968Y-152859188D01*
X143525668Y-152860686D01*
X143519919Y-152865405D01*
X143472300Y-152913024D01*
X143467581Y-152918773D01*
X143466083Y-152920073D01*
X143464661Y-152922332D01*
X143462973Y-152924389D01*
X143462215Y-152926216D01*
X143458251Y-152932516D01*
X143410632Y-153027754D01*
X143405377Y-153041486D01*
X143405186Y-153044173D01*
X143404155Y-153046663D01*
X143402714Y-153061295D01*
X143124142Y-153061295D01*
X143124142Y-152870819D01*
X143122701Y-152856187D01*
X143111502Y-152829151D01*
X143090810Y-152808459D01*
X143063774Y-152797260D01*
X143034510Y-152797260D01*
X143007474Y-152808459D01*
X142986782Y-152829151D01*
X142975583Y-152856187D01*
X142974142Y-152870819D01*
X142974142Y-153588402D01*
X142542832Y-152833609D01*
X142540643Y-152830525D01*
X142540074Y-152829151D01*
X142538674Y-152827751D01*
X142534322Y-152821619D01*
X142526432Y-152815509D01*
X142519382Y-152808459D01*
X142514965Y-152806629D01*
X142511185Y-152803702D01*
X142501561Y-152801077D01*
X142492346Y-152797260D01*
X142487565Y-152797260D01*
X142482953Y-152796002D01*
X142473056Y-152797260D01*
X142463082Y-152797260D01*
X142458666Y-152799089D01*
X142453923Y-152799692D01*
X142445258Y-152804642D01*
X142436046Y-152808459D01*
X142432667Y-152811837D01*
X142428514Y-152814211D01*
X142422404Y-152822100D01*
X142415354Y-152829151D01*
X142413524Y-152833567D01*
X142410597Y-152837348D01*
X142407972Y-152846971D01*
X142404155Y-152856187D01*
X142403418Y-152863669D01*
X142402897Y-152865580D01*
X142403084Y-152867055D01*
X142402714Y-152870819D01*
X142171260Y-152870819D01*
X142167077Y-152844728D01*
X142151741Y-152819806D01*
X142128034Y-152802650D01*
X142099566Y-152795871D01*
X142070671Y-152800504D01*
X142045749Y-152815840D01*
X142028592Y-152839547D01*
X142023802Y-152853448D01*
X141854549Y-153564303D01*
X141740658Y-153137208D01*
X141739372Y-153133780D01*
X141739181Y-153132339D01*
X141738189Y-153130626D01*
X141735495Y-153123442D01*
X141729480Y-153115583D01*
X141724519Y-153107015D01*
X141720660Y-153104061D01*
X141717708Y-153100204D01*
X141709143Y-153095245D01*
X141701281Y-153089227D01*
X141696584Y-153087974D01*
X141692383Y-153085542D01*
X141682576Y-153084239D01*
X141673006Y-153081687D01*
X141668187Y-153082327D01*
X141663375Y-153081688D01*
X141653814Y-153084237D01*
X141643997Y-153085542D01*
X141639791Y-153087976D01*
X141635099Y-153089228D01*
X141627239Y-153095243D01*
X141618672Y-153100204D01*
X141615718Y-153104062D01*
X141611861Y-153107015D01*
X141606902Y-153115580D01*
X141600885Y-153123441D01*
X141598188Y-153130630D01*
X141597199Y-153132340D01*
X141597007Y-153133779D01*
X141595722Y-153137208D01*
X141481830Y-153564303D01*
X141312579Y-152853447D01*
X141307789Y-152839547D01*
X141290632Y-152815840D01*
X141265710Y-152800504D01*
X141236815Y-152795871D01*
X141208347Y-152802649D01*
X141184640Y-152819806D01*
X141169304Y-152844728D01*
X141164671Y-152873623D01*
X140824679Y-152873623D01*
X140816461Y-152865405D01*
X140810711Y-152860686D01*
X140809412Y-152859188D01*
X140807152Y-152857766D01*
X140805096Y-152856078D01*
X140803268Y-152855320D01*
X140796969Y-152851356D01*
X140701731Y-152803737D01*
X140687999Y-152798482D01*
X140685311Y-152798291D01*
X140682822Y-152797260D01*
X140668190Y-152795819D01*
X140477714Y-152795819D01*
X140463082Y-152797260D01*
X140460593Y-152798290D01*
X140457904Y-152798482D01*
X140444173Y-152803737D01*
X140348935Y-152851356D01*
X140342640Y-152855318D01*
X140340808Y-152856077D01*
X140338746Y-152857768D01*
X140336492Y-152859188D01*
X140335193Y-152860684D01*
X140329443Y-152865405D01*
X140234205Y-152960643D01*
X140224878Y-152972008D01*
X140222744Y-152977158D01*
X140219424Y-152981640D01*
X140214477Y-152995486D01*
X140166858Y-153185962D01*
X140166482Y-153188498D01*
X140166060Y-153189520D01*
X140165517Y-153195032D01*
X140164708Y-153200506D01*
X140164870Y-153201598D01*
X140164619Y-153204152D01*
X139912165Y-153204152D01*
X139883808Y-153090724D01*
X139883422Y-153089644D01*
X139883384Y-153089104D01*
X139881053Y-153083014D01*
X139878861Y-153076878D01*
X139878538Y-153076442D01*
X139878129Y-153075373D01*
X139830510Y-152980135D01*
X139826547Y-152973840D01*
X139825789Y-152972008D01*
X139824097Y-152969946D01*
X139822678Y-152967692D01*
X139821181Y-152966393D01*
X139816461Y-152960643D01*
X139721223Y-152865405D01*
X139709858Y-152856078D01*
X139707367Y-152855046D01*
X139705332Y-152853281D01*
X139691907Y-152847287D01*
X139549050Y-152799668D01*
X139541796Y-152798018D01*
X139539965Y-152797260D01*
X139537310Y-152796998D01*
X139534713Y-152796408D01*
X139532738Y-152796548D01*
X139525333Y-152795819D01*
X139287238Y-152795819D01*
X139272606Y-152797260D01*
X139245570Y-152808459D01*
X139224878Y-152829151D01*
X139213679Y-152856187D01*
X139212238Y-152870819D01*
X137314619Y-152870819D01*
X137313178Y-152856187D01*
X137301979Y-152829151D01*
X137281287Y-152808459D01*
X137254251Y-152797260D01*
X137224987Y-152797260D01*
X137197951Y-152808459D01*
X137177259Y-152829151D01*
X137166060Y-152856187D01*
X137164619Y-152870819D01*
X136505095Y-152870819D01*
X136503654Y-152856187D01*
X136492455Y-152829151D01*
X136471763Y-152808459D01*
X136444727Y-152797260D01*
X136415463Y-152797260D01*
X136388427Y-152808459D01*
X136367735Y-152829151D01*
X136356536Y-152856187D01*
X136355095Y-152870819D01*
X136028904Y-152870819D01*
X136027463Y-152856187D01*
X136016264Y-152829151D01*
X135995572Y-152808459D01*
X135968536Y-152797260D01*
X135939272Y-152797260D01*
X135912236Y-152808459D01*
X135891544Y-152829151D01*
X135880345Y-152856187D01*
X135878904Y-152870819D01*
X135878904Y-153662637D01*
X135844645Y-153731153D01*
X135814238Y-153761561D01*
X135745723Y-153795819D01*
X135590657Y-153795819D01*
X135522141Y-153761561D01*
X135491734Y-153731153D01*
X135457476Y-153662637D01*
X135457476Y-152870819D01*
X135456035Y-152856187D01*
X135444836Y-152829151D01*
X135424144Y-152808459D01*
X135397108Y-152797260D01*
X135367844Y-152797260D01*
X135340808Y-152808459D01*
X135320116Y-152829151D01*
X135308917Y-152856187D01*
X135307476Y-152870819D01*
X134917113Y-152870819D01*
X134911699Y-152865405D01*
X134905949Y-152860686D01*
X134904650Y-152859188D01*
X134902390Y-152857766D01*
X134900334Y-152856078D01*
X134898506Y-152855320D01*
X134892207Y-152851356D01*
X134796969Y-152803737D01*
X134783237Y-152798482D01*
X134780549Y-152798291D01*
X134778060Y-152797260D01*
X134763428Y-152795819D01*
X134382476Y-152795819D01*
X134367844Y-152797260D01*
X134340808Y-152808459D01*
X134320116Y-152829151D01*
X134308917Y-152856187D01*
X134307476Y-152870819D01*
X134196365Y-152870819D01*
X134196365Y-152684708D01*
X144235253Y-152684708D01*
X144235253Y-154056930D01*
G37*
X151285601Y-166049438D02*
X151190363Y-166001819D01*
X151190363Y-166001819D02*
X151047506Y-166001819D01*
X151047506Y-166001819D02*
X150904649Y-166049438D01*
X150904649Y-166049438D02*
X150809411Y-166144676D01*
X150809411Y-166144676D02*
X150761792Y-166239914D01*
X150761792Y-166239914D02*
X150714173Y-166430390D01*
X150714173Y-166430390D02*
X150714173Y-166573247D01*
X150714173Y-166573247D02*
X150761792Y-166763723D01*
X150761792Y-166763723D02*
X150809411Y-166858961D01*
X150809411Y-166858961D02*
X150904649Y-166954200D01*
X150904649Y-166954200D02*
X151047506Y-167001819D01*
X151047506Y-167001819D02*
X151142744Y-167001819D01*
X151142744Y-167001819D02*
X151285601Y-166954200D01*
X151285601Y-166954200D02*
X151333220Y-166906580D01*
X151333220Y-166906580D02*
X151333220Y-166573247D01*
X151333220Y-166573247D02*
X151142744Y-166573247D01*
X151761792Y-167001819D02*
X151761792Y-166001819D01*
X151761792Y-166001819D02*
X152333220Y-167001819D01*
X152333220Y-167001819D02*
X152333220Y-166001819D01*
X152809411Y-167001819D02*
X152809411Y-166001819D01*
X152809411Y-166001819D02*
X153047506Y-166001819D01*
X153047506Y-166001819D02*
X153190363Y-166049438D01*
X153190363Y-166049438D02*
X153285601Y-166144676D01*
X153285601Y-166144676D02*
X153333220Y-166239914D01*
X153333220Y-166239914D02*
X153380839Y-166430390D01*
X153380839Y-166430390D02*
X153380839Y-166573247D01*
X153380839Y-166573247D02*
X153333220Y-166763723D01*
X153333220Y-166763723D02*
X153285601Y-166858961D01*
X153285601Y-166858961D02*
X153190363Y-166954200D01*
X153190363Y-166954200D02*
X153047506Y-167001819D01*
X153047506Y-167001819D02*
X152809411Y-167001819D01*
G36*
X119145477Y-152980077D02*
G01*
X119175884Y-153010484D01*
X119210142Y-153079000D01*
X119210142Y-153186447D01*
X119175884Y-153254963D01*
X119145477Y-153285370D01*
X119076961Y-153319628D01*
X118788714Y-153319628D01*
X118788714Y-152945819D01*
X119076961Y-152945819D01*
X119145477Y-152980077D01*
G37*
G36*
X125097858Y-152980077D02*
G01*
X125128265Y-153010484D01*
X125162523Y-153079000D01*
X125162523Y-153186447D01*
X125128265Y-153254963D01*
X125097858Y-153285370D01*
X125029342Y-153319628D01*
X124741095Y-153319628D01*
X124741095Y-152945819D01*
X125029342Y-152945819D01*
X125097858Y-152980077D01*
G37*
G36*
X126376015Y-154056930D02*
G01*
X118527603Y-154056930D01*
X118527603Y-152870819D01*
X118638714Y-152870819D01*
X118638714Y-153870819D01*
X118640155Y-153885451D01*
X118651354Y-153912487D01*
X118672046Y-153933179D01*
X118699082Y-153944378D01*
X118728346Y-153944378D01*
X118755382Y-153933179D01*
X118776074Y-153912487D01*
X118787273Y-153885451D01*
X118788714Y-153870819D01*
X118788714Y-153469628D01*
X119094666Y-153469628D01*
X119109298Y-153468187D01*
X119111787Y-153467155D01*
X119114475Y-153466965D01*
X119128207Y-153461710D01*
X119223445Y-153414091D01*
X119229744Y-153410126D01*
X119231572Y-153409369D01*
X119233628Y-153407680D01*
X119235888Y-153406259D01*
X119237187Y-153404760D01*
X119242937Y-153400042D01*
X119290556Y-153352423D01*
X119295274Y-153346673D01*
X119296773Y-153345374D01*
X119298194Y-153343114D01*
X119299883Y-153341058D01*
X119300640Y-153339230D01*
X119304605Y-153332931D01*
X119352224Y-153237693D01*
X119357479Y-153223962D01*
X119357670Y-153221272D01*
X119358701Y-153218784D01*
X119360142Y-153204152D01*
X119360142Y-153061295D01*
X119358701Y-153046663D01*
X119357670Y-153044174D01*
X119357479Y-153041485D01*
X119352224Y-153027754D01*
X119304605Y-152932516D01*
X119300640Y-152926216D01*
X119299883Y-152924389D01*
X119298194Y-152922332D01*
X119296773Y-152920073D01*
X119295274Y-152918773D01*
X119290556Y-152913024D01*
X119248351Y-152870819D01*
X119638714Y-152870819D01*
X119638714Y-153680342D01*
X119640155Y-153694974D01*
X119641186Y-153697463D01*
X119641377Y-153700151D01*
X119646632Y-153713883D01*
X119694251Y-153809121D01*
X119698214Y-153815417D01*
X119698972Y-153817247D01*
X119700661Y-153819305D01*
X119702083Y-153821564D01*
X119703581Y-153822863D01*
X119708299Y-153828612D01*
X119755918Y-153876232D01*
X119761667Y-153880950D01*
X119762968Y-153882450D01*
X119765227Y-153883872D01*
X119767284Y-153885560D01*
X119769111Y-153886317D01*
X119775411Y-153890282D01*
X119870649Y-153937901D01*
X119884380Y-153943156D01*
X119887069Y-153943347D01*
X119889558Y-153944378D01*
X119904190Y-153945819D01*
X120094666Y-153945819D01*
X120109298Y-153944378D01*
X120111787Y-153943346D01*
X120114475Y-153943156D01*
X120128207Y-153937901D01*
X120223445Y-153890282D01*
X120229744Y-153886317D01*
X120231572Y-153885560D01*
X120233628Y-153883872D01*
X120235888Y-153882450D01*
X120237188Y-153880950D01*
X120242938Y-153876232D01*
X120290556Y-153828613D01*
X120295274Y-153822863D01*
X120296773Y-153821564D01*
X120298194Y-153819305D01*
X120299884Y-153817247D01*
X120300641Y-153815417D01*
X120304605Y-153809121D01*
X120352224Y-153713883D01*
X120357479Y-153700152D01*
X120357670Y-153697462D01*
X120358701Y-153694974D01*
X120360142Y-153680342D01*
X120360142Y-152870819D01*
X120686333Y-152870819D01*
X120686333Y-153870819D01*
X120687774Y-153885451D01*
X120698973Y-153912487D01*
X120719665Y-153933179D01*
X120746701Y-153944378D01*
X120761333Y-153945819D01*
X121237523Y-153945819D01*
X121252155Y-153944378D01*
X121279191Y-153933179D01*
X121299883Y-153912487D01*
X121311082Y-153885451D01*
X121311082Y-153856187D01*
X121299883Y-153829151D01*
X121279191Y-153808459D01*
X121252155Y-153797260D01*
X121237523Y-153795819D01*
X120836333Y-153795819D01*
X120836333Y-152870819D01*
X121495857Y-152870819D01*
X121495857Y-153870819D01*
X121497298Y-153885451D01*
X121508497Y-153912487D01*
X121529189Y-153933179D01*
X121556225Y-153944378D01*
X121570857Y-153945819D01*
X122047047Y-153945819D01*
X122061679Y-153944378D01*
X122088715Y-153933179D01*
X122109407Y-153912487D01*
X122120606Y-153885451D01*
X122120606Y-153856187D01*
X122109407Y-153829151D01*
X122088715Y-153808459D01*
X122061679Y-153797260D01*
X122047047Y-153795819D01*
X121645857Y-153795819D01*
X121645857Y-153475234D01*
X122306822Y-153475234D01*
X122306822Y-153504498D01*
X122318021Y-153531534D01*
X122338713Y-153552226D01*
X122365749Y-153563425D01*
X122380381Y-153564866D01*
X123142286Y-153564866D01*
X123156918Y-153563425D01*
X123183954Y-153552226D01*
X123204646Y-153531534D01*
X123215845Y-153504498D01*
X123215845Y-153475234D01*
X123204646Y-153448198D01*
X123183954Y-153427506D01*
X123156918Y-153416307D01*
X123142286Y-153414866D01*
X122380381Y-153414866D01*
X122365749Y-153416307D01*
X122338713Y-153427506D01*
X122318021Y-153448198D01*
X122306822Y-153475234D01*
X121645857Y-153475234D01*
X121645857Y-152870819D01*
X123543476Y-152870819D01*
X123543476Y-153680342D01*
X123544917Y-153694974D01*
X123545948Y-153697463D01*
X123546139Y-153700151D01*
X123551394Y-153713883D01*
X123599013Y-153809121D01*
X123602976Y-153815417D01*
X123603734Y-153817247D01*
X123605423Y-153819305D01*
X123606845Y-153821564D01*
X123608343Y-153822863D01*
X123613061Y-153828612D01*
X123660680Y-153876232D01*
X123666429Y-153880950D01*
X123667730Y-153882450D01*
X123669989Y-153883872D01*
X123672046Y-153885560D01*
X123673873Y-153886317D01*
X123680173Y-153890282D01*
X123775411Y-153937901D01*
X123789142Y-153943156D01*
X123791831Y-153943347D01*
X123794320Y-153944378D01*
X123808952Y-153945819D01*
X123999428Y-153945819D01*
X124014060Y-153944378D01*
X124016549Y-153943346D01*
X124019237Y-153943156D01*
X124032969Y-153937901D01*
X124128207Y-153890282D01*
X124134506Y-153886317D01*
X124136334Y-153885560D01*
X124138390Y-153883872D01*
X124140650Y-153882450D01*
X124141950Y-153880950D01*
X124147700Y-153876232D01*
X124195318Y-153828613D01*
X124200036Y-153822863D01*
X124201535Y-153821564D01*
X124202956Y-153819305D01*
X124204646Y-153817247D01*
X124205403Y-153815417D01*
X124209367Y-153809121D01*
X124256986Y-153713883D01*
X124262241Y-153700152D01*
X124262432Y-153697462D01*
X124263463Y-153694974D01*
X124264904Y-153680342D01*
X124264904Y-152870819D01*
X124591095Y-152870819D01*
X124591095Y-153870819D01*
X124592536Y-153885451D01*
X124603735Y-153912487D01*
X124624427Y-153933179D01*
X124651463Y-153944378D01*
X124680727Y-153944378D01*
X124707763Y-153933179D01*
X124728455Y-153912487D01*
X124739654Y-153885451D01*
X124741095Y-153870819D01*
X124741095Y-153469628D01*
X125047047Y-153469628D01*
X125061679Y-153468187D01*
X125064168Y-153467155D01*
X125066856Y-153466965D01*
X125080588Y-153461710D01*
X125175826Y-153414091D01*
X125182125Y-153410126D01*
X125183953Y-153409369D01*
X125186009Y-153407680D01*
X125188269Y-153406259D01*
X125189568Y-153404760D01*
X125195318Y-153400042D01*
X125242937Y-153352423D01*
X125247655Y-153346673D01*
X125249154Y-153345374D01*
X125250575Y-153343114D01*
X125252264Y-153341058D01*
X125253021Y-153339230D01*
X125256986Y-153332931D01*
X125304605Y-153237693D01*
X125309860Y-153223962D01*
X125310051Y-153221272D01*
X125311082Y-153218784D01*
X125312523Y-153204152D01*
X125312523Y-153061295D01*
X125543476Y-153061295D01*
X125543476Y-153156533D01*
X125544917Y-153171165D01*
X125545948Y-153173654D01*
X125546139Y-153176342D01*
X125551394Y-153190074D01*
X125599013Y-153285312D01*
X125602977Y-153291611D01*
X125603735Y-153293439D01*
X125605423Y-153295495D01*
X125606845Y-153297755D01*
X125608343Y-153299054D01*
X125613062Y-153304804D01*
X125660681Y-153352423D01*
X125666430Y-153357141D01*
X125667730Y-153358640D01*
X125669989Y-153360061D01*
X125672046Y-153361750D01*
X125673873Y-153362507D01*
X125680173Y-153366472D01*
X125775411Y-153414091D01*
X125776480Y-153414500D01*
X125776916Y-153414823D01*
X125783052Y-153417015D01*
X125789142Y-153419346D01*
X125789682Y-153419384D01*
X125790762Y-153419770D01*
X125973252Y-153465392D01*
X126050239Y-153503886D01*
X126080646Y-153534293D01*
X126114904Y-153602809D01*
X126114904Y-153662637D01*
X126080645Y-153731153D01*
X126050238Y-153761561D01*
X125981723Y-153795819D01*
X125773503Y-153795819D01*
X125642193Y-153752049D01*
X125627856Y-153748789D01*
X125598666Y-153750864D01*
X125572493Y-153763950D01*
X125553319Y-153786057D01*
X125544065Y-153813820D01*
X125546140Y-153843010D01*
X125559226Y-153869183D01*
X125581333Y-153888357D01*
X125594759Y-153894351D01*
X125737615Y-153941970D01*
X125744870Y-153943619D01*
X125746701Y-153944378D01*
X125749354Y-153944639D01*
X125751952Y-153945230D01*
X125753926Y-153945089D01*
X125761333Y-153945819D01*
X125999428Y-153945819D01*
X126014060Y-153944378D01*
X126016549Y-153943346D01*
X126019237Y-153943156D01*
X126032969Y-153937901D01*
X126128207Y-153890282D01*
X126134506Y-153886317D01*
X126136334Y-153885560D01*
X126138390Y-153883872D01*
X126140650Y-153882450D01*
X126141950Y-153880950D01*
X126147700Y-153876232D01*
X126195318Y-153828613D01*
X126200036Y-153822863D01*
X126201535Y-153821564D01*
X126202956Y-153819305D01*
X126204646Y-153817247D01*
X126205403Y-153815417D01*
X126209367Y-153809121D01*
X126256986Y-153713883D01*
X126262241Y-153700152D01*
X126262432Y-153697462D01*
X126263463Y-153694974D01*
X126264904Y-153680342D01*
X126264904Y-153585104D01*
X126263463Y-153570472D01*
X126262432Y-153567983D01*
X126262241Y-153565294D01*
X126256986Y-153551563D01*
X126209367Y-153456325D01*
X126205402Y-153450025D01*
X126204645Y-153448198D01*
X126202956Y-153446141D01*
X126201535Y-153443882D01*
X126200036Y-153442582D01*
X126195318Y-153436833D01*
X126147699Y-153389214D01*
X126141949Y-153384495D01*
X126140650Y-153382997D01*
X126138390Y-153381575D01*
X126136334Y-153379887D01*
X126134506Y-153379129D01*
X126128207Y-153375165D01*
X126032969Y-153327546D01*
X126031899Y-153327136D01*
X126031464Y-153326814D01*
X126025318Y-153324618D01*
X126019237Y-153322291D01*
X126018697Y-153322252D01*
X126017618Y-153321867D01*
X125835128Y-153276244D01*
X125758141Y-153237751D01*
X125727734Y-153207344D01*
X125693476Y-153138828D01*
X125693476Y-153079000D01*
X125727734Y-153010484D01*
X125758141Y-152980077D01*
X125826657Y-152945819D01*
X126034877Y-152945819D01*
X126166186Y-152989589D01*
X126180523Y-152992849D01*
X126209713Y-152990774D01*
X126235887Y-152977688D01*
X126255061Y-152955580D01*
X126264315Y-152927818D01*
X126262240Y-152898628D01*
X126249153Y-152872455D01*
X126227046Y-152853281D01*
X126213621Y-152847287D01*
X126070764Y-152799668D01*
X126063510Y-152798018D01*
X126061679Y-152797260D01*
X126059024Y-152796998D01*
X126056427Y-152796408D01*
X126054452Y-152796548D01*
X126047047Y-152795819D01*
X125808952Y-152795819D01*
X125794320Y-152797260D01*
X125791831Y-152798290D01*
X125789142Y-152798482D01*
X125775411Y-152803737D01*
X125680173Y-152851356D01*
X125673873Y-152855320D01*
X125672046Y-152856078D01*
X125669989Y-152857766D01*
X125667730Y-152859188D01*
X125666430Y-152860686D01*
X125660681Y-152865405D01*
X125613062Y-152913024D01*
X125608343Y-152918773D01*
X125606845Y-152920073D01*
X125605423Y-152922332D01*
X125603735Y-152924389D01*
X125602977Y-152926216D01*
X125599013Y-152932516D01*
X125551394Y-153027754D01*
X125546139Y-153041486D01*
X125545948Y-153044173D01*
X125544917Y-153046663D01*
X125543476Y-153061295D01*
X125312523Y-153061295D01*
X125311082Y-153046663D01*
X125310051Y-153044174D01*
X125309860Y-153041485D01*
X125304605Y-153027754D01*
X125256986Y-152932516D01*
X125253021Y-152926216D01*
X125252264Y-152924389D01*
X125250575Y-152922332D01*
X125249154Y-152920073D01*
X125247655Y-152918773D01*
X125242937Y-152913024D01*
X125195318Y-152865405D01*
X125189568Y-152860686D01*
X125188269Y-152859188D01*
X125186009Y-152857766D01*
X125183953Y-152856078D01*
X125182125Y-152855320D01*
X125175826Y-152851356D01*
X125080588Y-152803737D01*
X125066856Y-152798482D01*
X125064168Y-152798291D01*
X125061679Y-152797260D01*
X125047047Y-152795819D01*
X124666095Y-152795819D01*
X124651463Y-152797260D01*
X124624427Y-152808459D01*
X124603735Y-152829151D01*
X124592536Y-152856187D01*
X124591095Y-152870819D01*
X124264904Y-152870819D01*
X124263463Y-152856187D01*
X124252264Y-152829151D01*
X124231572Y-152808459D01*
X124204536Y-152797260D01*
X124175272Y-152797260D01*
X124148236Y-152808459D01*
X124127544Y-152829151D01*
X124116345Y-152856187D01*
X124114904Y-152870819D01*
X124114904Y-153662637D01*
X124080645Y-153731153D01*
X124050238Y-153761561D01*
X123981723Y-153795819D01*
X123826657Y-153795819D01*
X123758141Y-153761561D01*
X123727734Y-153731153D01*
X123693476Y-153662637D01*
X123693476Y-152870819D01*
X123692035Y-152856187D01*
X123680836Y-152829151D01*
X123660144Y-152808459D01*
X123633108Y-152797260D01*
X123603844Y-152797260D01*
X123576808Y-152808459D01*
X123556116Y-152829151D01*
X123544917Y-152856187D01*
X123543476Y-152870819D01*
X121645857Y-152870819D01*
X121644416Y-152856187D01*
X121633217Y-152829151D01*
X121612525Y-152808459D01*
X121585489Y-152797260D01*
X121556225Y-152797260D01*
X121529189Y-152808459D01*
X121508497Y-152829151D01*
X121497298Y-152856187D01*
X121495857Y-152870819D01*
X120836333Y-152870819D01*
X120834892Y-152856187D01*
X120823693Y-152829151D01*
X120803001Y-152808459D01*
X120775965Y-152797260D01*
X120746701Y-152797260D01*
X120719665Y-152808459D01*
X120698973Y-152829151D01*
X120687774Y-152856187D01*
X120686333Y-152870819D01*
X120360142Y-152870819D01*
X120358701Y-152856187D01*
X120347502Y-152829151D01*
X120326810Y-152808459D01*
X120299774Y-152797260D01*
X120270510Y-152797260D01*
X120243474Y-152808459D01*
X120222782Y-152829151D01*
X120211583Y-152856187D01*
X120210142Y-152870819D01*
X120210142Y-153662637D01*
X120175883Y-153731153D01*
X120145476Y-153761561D01*
X120076961Y-153795819D01*
X119921895Y-153795819D01*
X119853379Y-153761561D01*
X119822972Y-153731153D01*
X119788714Y-153662637D01*
X119788714Y-152870819D01*
X119787273Y-152856187D01*
X119776074Y-152829151D01*
X119755382Y-152808459D01*
X119728346Y-152797260D01*
X119699082Y-152797260D01*
X119672046Y-152808459D01*
X119651354Y-152829151D01*
X119640155Y-152856187D01*
X119638714Y-152870819D01*
X119248351Y-152870819D01*
X119242937Y-152865405D01*
X119237187Y-152860686D01*
X119235888Y-152859188D01*
X119233628Y-152857766D01*
X119231572Y-152856078D01*
X119229744Y-152855320D01*
X119223445Y-152851356D01*
X119128207Y-152803737D01*
X119114475Y-152798482D01*
X119111787Y-152798291D01*
X119109298Y-152797260D01*
X119094666Y-152795819D01*
X118713714Y-152795819D01*
X118699082Y-152797260D01*
X118672046Y-152808459D01*
X118651354Y-152829151D01*
X118640155Y-152856187D01*
X118638714Y-152870819D01*
X118527603Y-152870819D01*
X118527603Y-152684708D01*
X126376015Y-152684708D01*
X126376015Y-154056930D01*
G37*
X149809411Y-168541819D02*
X150142744Y-169541819D01*
X150142744Y-169541819D02*
X150476077Y-168541819D01*
X151380839Y-169446580D02*
X151333220Y-169494200D01*
X151333220Y-169494200D02*
X151190363Y-169541819D01*
X151190363Y-169541819D02*
X151095125Y-169541819D01*
X151095125Y-169541819D02*
X150952268Y-169494200D01*
X150952268Y-169494200D02*
X150857030Y-169398961D01*
X150857030Y-169398961D02*
X150809411Y-169303723D01*
X150809411Y-169303723D02*
X150761792Y-169113247D01*
X150761792Y-169113247D02*
X150761792Y-168970390D01*
X150761792Y-168970390D02*
X150809411Y-168779914D01*
X150809411Y-168779914D02*
X150857030Y-168684676D01*
X150857030Y-168684676D02*
X150952268Y-168589438D01*
X150952268Y-168589438D02*
X151095125Y-168541819D01*
X151095125Y-168541819D02*
X151190363Y-168541819D01*
X151190363Y-168541819D02*
X151333220Y-168589438D01*
X151333220Y-168589438D02*
X151380839Y-168637057D01*
X152380839Y-169446580D02*
X152333220Y-169494200D01*
X152333220Y-169494200D02*
X152190363Y-169541819D01*
X152190363Y-169541819D02*
X152095125Y-169541819D01*
X152095125Y-169541819D02*
X151952268Y-169494200D01*
X151952268Y-169494200D02*
X151857030Y-169398961D01*
X151857030Y-169398961D02*
X151809411Y-169303723D01*
X151809411Y-169303723D02*
X151761792Y-169113247D01*
X151761792Y-169113247D02*
X151761792Y-168970390D01*
X151761792Y-168970390D02*
X151809411Y-168779914D01*
X151809411Y-168779914D02*
X151857030Y-168684676D01*
X151857030Y-168684676D02*
X151952268Y-168589438D01*
X151952268Y-168589438D02*
X152095125Y-168541819D01*
X152095125Y-168541819D02*
X152190363Y-168541819D01*
X152190363Y-168541819D02*
X152333220Y-168589438D01*
X152333220Y-168589438D02*
X152380839Y-168637057D01*
X153142744Y-169018009D02*
X153285601Y-169065628D01*
X153285601Y-169065628D02*
X153333220Y-169113247D01*
X153333220Y-169113247D02*
X153380839Y-169208485D01*
X153380839Y-169208485D02*
X153380839Y-169351342D01*
X153380839Y-169351342D02*
X153333220Y-169446580D01*
X153333220Y-169446580D02*
X153285601Y-169494200D01*
X153285601Y-169494200D02*
X153190363Y-169541819D01*
X153190363Y-169541819D02*
X152809411Y-169541819D01*
X152809411Y-169541819D02*
X152809411Y-168541819D01*
X152809411Y-168541819D02*
X153142744Y-168541819D01*
X153142744Y-168541819D02*
X153237982Y-168589438D01*
X153237982Y-168589438D02*
X153285601Y-168637057D01*
X153285601Y-168637057D02*
X153333220Y-168732295D01*
X153333220Y-168732295D02*
X153333220Y-168827533D01*
X153333220Y-168827533D02*
X153285601Y-168922771D01*
X153285601Y-168922771D02*
X153237982Y-168970390D01*
X153237982Y-168970390D02*
X153142744Y-169018009D01*
X153142744Y-169018009D02*
X152809411Y-169018009D01*
X109509160Y-156556104D02*
X109985350Y-156556104D01*
X109413922Y-156841819D02*
X109747255Y-155841819D01*
X109747255Y-155841819D02*
X110080588Y-156841819D01*
X110890112Y-155841819D02*
X110413922Y-155841819D01*
X110413922Y-155841819D02*
X110366303Y-156318009D01*
X110366303Y-156318009D02*
X110413922Y-156270390D01*
X110413922Y-156270390D02*
X110509160Y-156222771D01*
X110509160Y-156222771D02*
X110747255Y-156222771D01*
X110747255Y-156222771D02*
X110842493Y-156270390D01*
X110842493Y-156270390D02*
X110890112Y-156318009D01*
X110890112Y-156318009D02*
X110937731Y-156413247D01*
X110937731Y-156413247D02*
X110937731Y-156651342D01*
X110937731Y-156651342D02*
X110890112Y-156746580D01*
X110890112Y-156746580D02*
X110842493Y-156794200D01*
X110842493Y-156794200D02*
X110747255Y-156841819D01*
X110747255Y-156841819D02*
X110509160Y-156841819D01*
X110509160Y-156841819D02*
X110413922Y-156794200D01*
X110413922Y-156794200D02*
X110366303Y-156746580D01*
X112080588Y-155794200D02*
X111223446Y-157079914D01*
X112366303Y-156556104D02*
X112842493Y-156556104D01*
X112271065Y-156841819D02*
X112604398Y-155841819D01*
X112604398Y-155841819D02*
X112937731Y-156841819D01*
X113794874Y-156841819D02*
X113223446Y-156841819D01*
X113509160Y-156841819D02*
X113509160Y-155841819D01*
X113509160Y-155841819D02*
X113413922Y-155984676D01*
X113413922Y-155984676D02*
X113318684Y-156079914D01*
X113318684Y-156079914D02*
X113223446Y-156127533D01*
X114601714Y-154093104D02*
X115077904Y-154093104D01*
X114506476Y-154378819D02*
X114839809Y-153378819D01*
X114839809Y-153378819D02*
X115173142Y-154378819D01*
X116030285Y-154378819D02*
X115458857Y-154378819D01*
X115744571Y-154378819D02*
X115744571Y-153378819D01*
X115744571Y-153378819D02*
X115649333Y-153521676D01*
X115649333Y-153521676D02*
X115554095Y-153616914D01*
X115554095Y-153616914D02*
X115458857Y-153664533D01*
X110080588Y-166049438D02*
X109985350Y-166001819D01*
X109985350Y-166001819D02*
X109842493Y-166001819D01*
X109842493Y-166001819D02*
X109699636Y-166049438D01*
X109699636Y-166049438D02*
X109604398Y-166144676D01*
X109604398Y-166144676D02*
X109556779Y-166239914D01*
X109556779Y-166239914D02*
X109509160Y-166430390D01*
X109509160Y-166430390D02*
X109509160Y-166573247D01*
X109509160Y-166573247D02*
X109556779Y-166763723D01*
X109556779Y-166763723D02*
X109604398Y-166858961D01*
X109604398Y-166858961D02*
X109699636Y-166954200D01*
X109699636Y-166954200D02*
X109842493Y-167001819D01*
X109842493Y-167001819D02*
X109937731Y-167001819D01*
X109937731Y-167001819D02*
X110080588Y-166954200D01*
X110080588Y-166954200D02*
X110128207Y-166906580D01*
X110128207Y-166906580D02*
X110128207Y-166573247D01*
X110128207Y-166573247D02*
X109937731Y-166573247D01*
X110556779Y-167001819D02*
X110556779Y-166001819D01*
X110556779Y-166001819D02*
X111128207Y-167001819D01*
X111128207Y-167001819D02*
X111128207Y-166001819D01*
X111604398Y-167001819D02*
X111604398Y-166001819D01*
X111604398Y-166001819D02*
X111842493Y-166001819D01*
X111842493Y-166001819D02*
X111985350Y-166049438D01*
X111985350Y-166049438D02*
X112080588Y-166144676D01*
X112080588Y-166144676D02*
X112128207Y-166239914D01*
X112128207Y-166239914D02*
X112175826Y-166430390D01*
X112175826Y-166430390D02*
X112175826Y-166573247D01*
X112175826Y-166573247D02*
X112128207Y-166763723D01*
X112128207Y-166763723D02*
X112080588Y-166858961D01*
X112080588Y-166858961D02*
X111985350Y-166954200D01*
X111985350Y-166954200D02*
X111842493Y-167001819D01*
X111842493Y-167001819D02*
X111604398Y-167001819D01*
X114700207Y-167509819D02*
X114366874Y-167033628D01*
X114128779Y-167509819D02*
X114128779Y-166509819D01*
X114128779Y-166509819D02*
X114509731Y-166509819D01*
X114509731Y-166509819D02*
X114604969Y-166557438D01*
X114604969Y-166557438D02*
X114652588Y-166605057D01*
X114652588Y-166605057D02*
X114700207Y-166700295D01*
X114700207Y-166700295D02*
X114700207Y-166843152D01*
X114700207Y-166843152D02*
X114652588Y-166938390D01*
X114652588Y-166938390D02*
X114604969Y-166986009D01*
X114604969Y-166986009D02*
X114509731Y-167033628D01*
X114509731Y-167033628D02*
X114128779Y-167033628D01*
X115509731Y-167462200D02*
X115414493Y-167509819D01*
X115414493Y-167509819D02*
X115224017Y-167509819D01*
X115224017Y-167509819D02*
X115128779Y-167462200D01*
X115128779Y-167462200D02*
X115081160Y-167366961D01*
X115081160Y-167366961D02*
X115081160Y-166986009D01*
X115081160Y-166986009D02*
X115128779Y-166890771D01*
X115128779Y-166890771D02*
X115224017Y-166843152D01*
X115224017Y-166843152D02*
X115414493Y-166843152D01*
X115414493Y-166843152D02*
X115509731Y-166890771D01*
X115509731Y-166890771D02*
X115557350Y-166986009D01*
X115557350Y-166986009D02*
X115557350Y-167081247D01*
X115557350Y-167081247D02*
X115081160Y-167176485D01*
X115890684Y-166843152D02*
X116128779Y-167509819D01*
X116128779Y-167509819D02*
X116366874Y-166843152D01*
X117700208Y-166509819D02*
X117795446Y-166509819D01*
X117795446Y-166509819D02*
X117890684Y-166557438D01*
X117890684Y-166557438D02*
X117938303Y-166605057D01*
X117938303Y-166605057D02*
X117985922Y-166700295D01*
X117985922Y-166700295D02*
X118033541Y-166890771D01*
X118033541Y-166890771D02*
X118033541Y-167128866D01*
X118033541Y-167128866D02*
X117985922Y-167319342D01*
X117985922Y-167319342D02*
X117938303Y-167414580D01*
X117938303Y-167414580D02*
X117890684Y-167462200D01*
X117890684Y-167462200D02*
X117795446Y-167509819D01*
X117795446Y-167509819D02*
X117700208Y-167509819D01*
X117700208Y-167509819D02*
X117604970Y-167462200D01*
X117604970Y-167462200D02*
X117557351Y-167414580D01*
X117557351Y-167414580D02*
X117509732Y-167319342D01*
X117509732Y-167319342D02*
X117462113Y-167128866D01*
X117462113Y-167128866D02*
X117462113Y-166890771D01*
X117462113Y-166890771D02*
X117509732Y-166700295D01*
X117509732Y-166700295D02*
X117557351Y-166605057D01*
X117557351Y-166605057D02*
X117604970Y-166557438D01*
X117604970Y-166557438D02*
X117700208Y-166509819D01*
X118462113Y-167414580D02*
X118509732Y-167462200D01*
X118509732Y-167462200D02*
X118462113Y-167509819D01*
X118462113Y-167509819D02*
X118414494Y-167462200D01*
X118414494Y-167462200D02*
X118462113Y-167414580D01*
X118462113Y-167414580D02*
X118462113Y-167509819D01*
X119128779Y-166509819D02*
X119224017Y-166509819D01*
X119224017Y-166509819D02*
X119319255Y-166557438D01*
X119319255Y-166557438D02*
X119366874Y-166605057D01*
X119366874Y-166605057D02*
X119414493Y-166700295D01*
X119414493Y-166700295D02*
X119462112Y-166890771D01*
X119462112Y-166890771D02*
X119462112Y-167128866D01*
X119462112Y-167128866D02*
X119414493Y-167319342D01*
X119414493Y-167319342D02*
X119366874Y-167414580D01*
X119366874Y-167414580D02*
X119319255Y-167462200D01*
X119319255Y-167462200D02*
X119224017Y-167509819D01*
X119224017Y-167509819D02*
X119128779Y-167509819D01*
X119128779Y-167509819D02*
X119033541Y-167462200D01*
X119033541Y-167462200D02*
X118985922Y-167414580D01*
X118985922Y-167414580D02*
X118938303Y-167319342D01*
X118938303Y-167319342D02*
X118890684Y-167128866D01*
X118890684Y-167128866D02*
X118890684Y-166890771D01*
X118890684Y-166890771D02*
X118938303Y-166700295D01*
X118938303Y-166700295D02*
X118985922Y-166605057D01*
X118985922Y-166605057D02*
X119033541Y-166557438D01*
X119033541Y-166557438D02*
X119128779Y-166509819D01*
X149190363Y-158858009D02*
X149333220Y-158905628D01*
X149333220Y-158905628D02*
X149380839Y-158953247D01*
X149380839Y-158953247D02*
X149428458Y-159048485D01*
X149428458Y-159048485D02*
X149428458Y-159191342D01*
X149428458Y-159191342D02*
X149380839Y-159286580D01*
X149380839Y-159286580D02*
X149333220Y-159334200D01*
X149333220Y-159334200D02*
X149237982Y-159381819D01*
X149237982Y-159381819D02*
X148857030Y-159381819D01*
X148857030Y-159381819D02*
X148857030Y-158381819D01*
X148857030Y-158381819D02*
X149190363Y-158381819D01*
X149190363Y-158381819D02*
X149285601Y-158429438D01*
X149285601Y-158429438D02*
X149333220Y-158477057D01*
X149333220Y-158477057D02*
X149380839Y-158572295D01*
X149380839Y-158572295D02*
X149380839Y-158667533D01*
X149380839Y-158667533D02*
X149333220Y-158762771D01*
X149333220Y-158762771D02*
X149285601Y-158810390D01*
X149285601Y-158810390D02*
X149190363Y-158858009D01*
X149190363Y-158858009D02*
X148857030Y-158858009D01*
X149809411Y-158477057D02*
X149857030Y-158429438D01*
X149857030Y-158429438D02*
X149952268Y-158381819D01*
X149952268Y-158381819D02*
X150190363Y-158381819D01*
X150190363Y-158381819D02*
X150285601Y-158429438D01*
X150285601Y-158429438D02*
X150333220Y-158477057D01*
X150333220Y-158477057D02*
X150380839Y-158572295D01*
X150380839Y-158572295D02*
X150380839Y-158667533D01*
X150380839Y-158667533D02*
X150333220Y-158810390D01*
X150333220Y-158810390D02*
X149761792Y-159381819D01*
X149761792Y-159381819D02*
X150380839Y-159381819D01*
X151523696Y-158334200D02*
X150666554Y-159619914D01*
X152190363Y-158858009D02*
X152333220Y-158905628D01*
X152333220Y-158905628D02*
X152380839Y-158953247D01*
X152380839Y-158953247D02*
X152428458Y-159048485D01*
X152428458Y-159048485D02*
X152428458Y-159191342D01*
X152428458Y-159191342D02*
X152380839Y-159286580D01*
X152380839Y-159286580D02*
X152333220Y-159334200D01*
X152333220Y-159334200D02*
X152237982Y-159381819D01*
X152237982Y-159381819D02*
X151857030Y-159381819D01*
X151857030Y-159381819D02*
X151857030Y-158381819D01*
X151857030Y-158381819D02*
X152190363Y-158381819D01*
X152190363Y-158381819D02*
X152285601Y-158429438D01*
X152285601Y-158429438D02*
X152333220Y-158477057D01*
X152333220Y-158477057D02*
X152380839Y-158572295D01*
X152380839Y-158572295D02*
X152380839Y-158667533D01*
X152380839Y-158667533D02*
X152333220Y-158762771D01*
X152333220Y-158762771D02*
X152285601Y-158810390D01*
X152285601Y-158810390D02*
X152190363Y-158858009D01*
X152190363Y-158858009D02*
X151857030Y-158858009D01*
X153285601Y-158381819D02*
X153095125Y-158381819D01*
X153095125Y-158381819D02*
X152999887Y-158429438D01*
X152999887Y-158429438D02*
X152952268Y-158477057D01*
X152952268Y-158477057D02*
X152857030Y-158619914D01*
X152857030Y-158619914D02*
X152809411Y-158810390D01*
X152809411Y-158810390D02*
X152809411Y-159191342D01*
X152809411Y-159191342D02*
X152857030Y-159286580D01*
X152857030Y-159286580D02*
X152904649Y-159334200D01*
X152904649Y-159334200D02*
X152999887Y-159381819D01*
X152999887Y-159381819D02*
X153190363Y-159381819D01*
X153190363Y-159381819D02*
X153285601Y-159334200D01*
X153285601Y-159334200D02*
X153333220Y-159286580D01*
X153333220Y-159286580D02*
X153380839Y-159191342D01*
X153380839Y-159191342D02*
X153380839Y-158953247D01*
X153380839Y-158953247D02*
X153333220Y-158858009D01*
X153333220Y-158858009D02*
X153285601Y-158810390D01*
X153285601Y-158810390D02*
X153190363Y-158762771D01*
X153190363Y-158762771D02*
X152999887Y-158762771D01*
X152999887Y-158762771D02*
X152904649Y-158810390D01*
X152904649Y-158810390D02*
X152857030Y-158858009D01*
X152857030Y-158858009D02*
X152809411Y-158953247D01*
X146407238Y-153855009D02*
X146550095Y-153902628D01*
X146550095Y-153902628D02*
X146597714Y-153950247D01*
X146597714Y-153950247D02*
X146645333Y-154045485D01*
X146645333Y-154045485D02*
X146645333Y-154188342D01*
X146645333Y-154188342D02*
X146597714Y-154283580D01*
X146597714Y-154283580D02*
X146550095Y-154331200D01*
X146550095Y-154331200D02*
X146454857Y-154378819D01*
X146454857Y-154378819D02*
X146073905Y-154378819D01*
X146073905Y-154378819D02*
X146073905Y-153378819D01*
X146073905Y-153378819D02*
X146407238Y-153378819D01*
X146407238Y-153378819D02*
X146502476Y-153426438D01*
X146502476Y-153426438D02*
X146550095Y-153474057D01*
X146550095Y-153474057D02*
X146597714Y-153569295D01*
X146597714Y-153569295D02*
X146597714Y-153664533D01*
X146597714Y-153664533D02*
X146550095Y-153759771D01*
X146550095Y-153759771D02*
X146502476Y-153807390D01*
X146502476Y-153807390D02*
X146407238Y-153855009D01*
X146407238Y-153855009D02*
X146073905Y-153855009D01*
X147216762Y-153807390D02*
X147121524Y-153759771D01*
X147121524Y-153759771D02*
X147073905Y-153712152D01*
X147073905Y-153712152D02*
X147026286Y-153616914D01*
X147026286Y-153616914D02*
X147026286Y-153569295D01*
X147026286Y-153569295D02*
X147073905Y-153474057D01*
X147073905Y-153474057D02*
X147121524Y-153426438D01*
X147121524Y-153426438D02*
X147216762Y-153378819D01*
X147216762Y-153378819D02*
X147407238Y-153378819D01*
X147407238Y-153378819D02*
X147502476Y-153426438D01*
X147502476Y-153426438D02*
X147550095Y-153474057D01*
X147550095Y-153474057D02*
X147597714Y-153569295D01*
X147597714Y-153569295D02*
X147597714Y-153616914D01*
X147597714Y-153616914D02*
X147550095Y-153712152D01*
X147550095Y-153712152D02*
X147502476Y-153759771D01*
X147502476Y-153759771D02*
X147407238Y-153807390D01*
X147407238Y-153807390D02*
X147216762Y-153807390D01*
X147216762Y-153807390D02*
X147121524Y-153855009D01*
X147121524Y-153855009D02*
X147073905Y-153902628D01*
X147073905Y-153902628D02*
X147026286Y-153997866D01*
X147026286Y-153997866D02*
X147026286Y-154188342D01*
X147026286Y-154188342D02*
X147073905Y-154283580D01*
X147073905Y-154283580D02*
X147121524Y-154331200D01*
X147121524Y-154331200D02*
X147216762Y-154378819D01*
X147216762Y-154378819D02*
X147407238Y-154378819D01*
X147407238Y-154378819D02*
X147502476Y-154331200D01*
X147502476Y-154331200D02*
X147550095Y-154283580D01*
X147550095Y-154283580D02*
X147597714Y-154188342D01*
X147597714Y-154188342D02*
X147597714Y-153997866D01*
X147597714Y-153997866D02*
X147550095Y-153902628D01*
X147550095Y-153902628D02*
X147502476Y-153855009D01*
X147502476Y-153855009D02*
X147407238Y-153807390D01*
X128825714Y-154093104D02*
X129301904Y-154093104D01*
X128730476Y-154378819D02*
X129063809Y-153378819D01*
X129063809Y-153378819D02*
X129397142Y-154378819D01*
X129873333Y-153807390D02*
X129778095Y-153759771D01*
X129778095Y-153759771D02*
X129730476Y-153712152D01*
X129730476Y-153712152D02*
X129682857Y-153616914D01*
X129682857Y-153616914D02*
X129682857Y-153569295D01*
X129682857Y-153569295D02*
X129730476Y-153474057D01*
X129730476Y-153474057D02*
X129778095Y-153426438D01*
X129778095Y-153426438D02*
X129873333Y-153378819D01*
X129873333Y-153378819D02*
X130063809Y-153378819D01*
X130063809Y-153378819D02*
X130159047Y-153426438D01*
X130159047Y-153426438D02*
X130206666Y-153474057D01*
X130206666Y-153474057D02*
X130254285Y-153569295D01*
X130254285Y-153569295D02*
X130254285Y-153616914D01*
X130254285Y-153616914D02*
X130206666Y-153712152D01*
X130206666Y-153712152D02*
X130159047Y-153759771D01*
X130159047Y-153759771D02*
X130063809Y-153807390D01*
X130063809Y-153807390D02*
X129873333Y-153807390D01*
X129873333Y-153807390D02*
X129778095Y-153855009D01*
X129778095Y-153855009D02*
X129730476Y-153902628D01*
X129730476Y-153902628D02*
X129682857Y-153997866D01*
X129682857Y-153997866D02*
X129682857Y-154188342D01*
X129682857Y-154188342D02*
X129730476Y-154283580D01*
X129730476Y-154283580D02*
X129778095Y-154331200D01*
X129778095Y-154331200D02*
X129873333Y-154378819D01*
X129873333Y-154378819D02*
X130063809Y-154378819D01*
X130063809Y-154378819D02*
X130159047Y-154331200D01*
X130159047Y-154331200D02*
X130206666Y-154283580D01*
X130206666Y-154283580D02*
X130254285Y-154188342D01*
X130254285Y-154188342D02*
X130254285Y-153997866D01*
X130254285Y-153997866D02*
X130206666Y-153902628D01*
X130206666Y-153902628D02*
X130159047Y-153855009D01*
X130159047Y-153855009D02*
X130063809Y-153807390D01*
X109509160Y-161636104D02*
X109985350Y-161636104D01*
X109413922Y-161921819D02*
X109747255Y-160921819D01*
X109747255Y-160921819D02*
X110080588Y-161921819D01*
X110318684Y-160921819D02*
X110985350Y-160921819D01*
X110985350Y-160921819D02*
X110556779Y-161921819D01*
X112080588Y-160874200D02*
X111223446Y-162159914D01*
X112366303Y-161636104D02*
X112842493Y-161636104D01*
X112271065Y-161921819D02*
X112604398Y-160921819D01*
X112604398Y-160921819D02*
X112937731Y-161921819D01*
X113175827Y-160921819D02*
X113794874Y-160921819D01*
X113794874Y-160921819D02*
X113461541Y-161302771D01*
X113461541Y-161302771D02*
X113604398Y-161302771D01*
X113604398Y-161302771D02*
X113699636Y-161350390D01*
X113699636Y-161350390D02*
X113747255Y-161398009D01*
X113747255Y-161398009D02*
X113794874Y-161493247D01*
X113794874Y-161493247D02*
X113794874Y-161731342D01*
X113794874Y-161731342D02*
X113747255Y-161826580D01*
X113747255Y-161826580D02*
X113699636Y-161874200D01*
X113699636Y-161874200D02*
X113604398Y-161921819D01*
X113604398Y-161921819D02*
X113318684Y-161921819D01*
X113318684Y-161921819D02*
X113223446Y-161874200D01*
X113223446Y-161874200D02*
X113175827Y-161826580D01*
X132183238Y-153855009D02*
X132326095Y-153902628D01*
X132326095Y-153902628D02*
X132373714Y-153950247D01*
X132373714Y-153950247D02*
X132421333Y-154045485D01*
X132421333Y-154045485D02*
X132421333Y-154188342D01*
X132421333Y-154188342D02*
X132373714Y-154283580D01*
X132373714Y-154283580D02*
X132326095Y-154331200D01*
X132326095Y-154331200D02*
X132230857Y-154378819D01*
X132230857Y-154378819D02*
X131849905Y-154378819D01*
X131849905Y-154378819D02*
X131849905Y-153378819D01*
X131849905Y-153378819D02*
X132183238Y-153378819D01*
X132183238Y-153378819D02*
X132278476Y-153426438D01*
X132278476Y-153426438D02*
X132326095Y-153474057D01*
X132326095Y-153474057D02*
X132373714Y-153569295D01*
X132373714Y-153569295D02*
X132373714Y-153664533D01*
X132373714Y-153664533D02*
X132326095Y-153759771D01*
X132326095Y-153759771D02*
X132278476Y-153807390D01*
X132278476Y-153807390D02*
X132183238Y-153855009D01*
X132183238Y-153855009D02*
X131849905Y-153855009D01*
X133373714Y-154378819D02*
X132802286Y-154378819D01*
X133088000Y-154378819D02*
X133088000Y-153378819D01*
X133088000Y-153378819D02*
X132992762Y-153521676D01*
X132992762Y-153521676D02*
X132897524Y-153616914D01*
X132897524Y-153616914D02*
X132802286Y-153664533D01*
X149190363Y-161398009D02*
X149333220Y-161445628D01*
X149333220Y-161445628D02*
X149380839Y-161493247D01*
X149380839Y-161493247D02*
X149428458Y-161588485D01*
X149428458Y-161588485D02*
X149428458Y-161731342D01*
X149428458Y-161731342D02*
X149380839Y-161826580D01*
X149380839Y-161826580D02*
X149333220Y-161874200D01*
X149333220Y-161874200D02*
X149237982Y-161921819D01*
X149237982Y-161921819D02*
X148857030Y-161921819D01*
X148857030Y-161921819D02*
X148857030Y-160921819D01*
X148857030Y-160921819D02*
X149190363Y-160921819D01*
X149190363Y-160921819D02*
X149285601Y-160969438D01*
X149285601Y-160969438D02*
X149333220Y-161017057D01*
X149333220Y-161017057D02*
X149380839Y-161112295D01*
X149380839Y-161112295D02*
X149380839Y-161207533D01*
X149380839Y-161207533D02*
X149333220Y-161302771D01*
X149333220Y-161302771D02*
X149285601Y-161350390D01*
X149285601Y-161350390D02*
X149190363Y-161398009D01*
X149190363Y-161398009D02*
X148857030Y-161398009D01*
X149761792Y-160921819D02*
X150380839Y-160921819D01*
X150380839Y-160921819D02*
X150047506Y-161302771D01*
X150047506Y-161302771D02*
X150190363Y-161302771D01*
X150190363Y-161302771D02*
X150285601Y-161350390D01*
X150285601Y-161350390D02*
X150333220Y-161398009D01*
X150333220Y-161398009D02*
X150380839Y-161493247D01*
X150380839Y-161493247D02*
X150380839Y-161731342D01*
X150380839Y-161731342D02*
X150333220Y-161826580D01*
X150333220Y-161826580D02*
X150285601Y-161874200D01*
X150285601Y-161874200D02*
X150190363Y-161921819D01*
X150190363Y-161921819D02*
X149904649Y-161921819D01*
X149904649Y-161921819D02*
X149809411Y-161874200D01*
X149809411Y-161874200D02*
X149761792Y-161826580D01*
X151523696Y-160874200D02*
X150666554Y-162159914D01*
X152190363Y-161398009D02*
X152333220Y-161445628D01*
X152333220Y-161445628D02*
X152380839Y-161493247D01*
X152380839Y-161493247D02*
X152428458Y-161588485D01*
X152428458Y-161588485D02*
X152428458Y-161731342D01*
X152428458Y-161731342D02*
X152380839Y-161826580D01*
X152380839Y-161826580D02*
X152333220Y-161874200D01*
X152333220Y-161874200D02*
X152237982Y-161921819D01*
X152237982Y-161921819D02*
X151857030Y-161921819D01*
X151857030Y-161921819D02*
X151857030Y-160921819D01*
X151857030Y-160921819D02*
X152190363Y-160921819D01*
X152190363Y-160921819D02*
X152285601Y-160969438D01*
X152285601Y-160969438D02*
X152333220Y-161017057D01*
X152333220Y-161017057D02*
X152380839Y-161112295D01*
X152380839Y-161112295D02*
X152380839Y-161207533D01*
X152380839Y-161207533D02*
X152333220Y-161302771D01*
X152333220Y-161302771D02*
X152285601Y-161350390D01*
X152285601Y-161350390D02*
X152190363Y-161398009D01*
X152190363Y-161398009D02*
X151857030Y-161398009D01*
X152761792Y-160921819D02*
X153428458Y-160921819D01*
X153428458Y-160921819D02*
X152999887Y-161921819D01*
X155749666Y-170904819D02*
X155749666Y-171619104D01*
X155749666Y-171619104D02*
X155702047Y-171761961D01*
X155702047Y-171761961D02*
X155606809Y-171857200D01*
X155606809Y-171857200D02*
X155463952Y-171904819D01*
X155463952Y-171904819D02*
X155368714Y-171904819D01*
X156178238Y-171000057D02*
X156225857Y-170952438D01*
X156225857Y-170952438D02*
X156321095Y-170904819D01*
X156321095Y-170904819D02*
X156559190Y-170904819D01*
X156559190Y-170904819D02*
X156654428Y-170952438D01*
X156654428Y-170952438D02*
X156702047Y-171000057D01*
X156702047Y-171000057D02*
X156749666Y-171095295D01*
X156749666Y-171095295D02*
X156749666Y-171190533D01*
X156749666Y-171190533D02*
X156702047Y-171333390D01*
X156702047Y-171333390D02*
X156130619Y-171904819D01*
X156130619Y-171904819D02*
X156749666Y-171904819D01*
X157213541Y-153809819D02*
X157880207Y-153809819D01*
X157880207Y-153809819D02*
X157451636Y-154809819D01*
X142176667Y-162713200D02*
X142319524Y-162760819D01*
X142319524Y-162760819D02*
X142557619Y-162760819D01*
X142557619Y-162760819D02*
X142652857Y-162713200D01*
X142652857Y-162713200D02*
X142700476Y-162665580D01*
X142700476Y-162665580D02*
X142748095Y-162570342D01*
X142748095Y-162570342D02*
X142748095Y-162475104D01*
X142748095Y-162475104D02*
X142700476Y-162379866D01*
X142700476Y-162379866D02*
X142652857Y-162332247D01*
X142652857Y-162332247D02*
X142557619Y-162284628D01*
X142557619Y-162284628D02*
X142367143Y-162237009D01*
X142367143Y-162237009D02*
X142271905Y-162189390D01*
X142271905Y-162189390D02*
X142224286Y-162141771D01*
X142224286Y-162141771D02*
X142176667Y-162046533D01*
X142176667Y-162046533D02*
X142176667Y-161951295D01*
X142176667Y-161951295D02*
X142224286Y-161856057D01*
X142224286Y-161856057D02*
X142271905Y-161808438D01*
X142271905Y-161808438D02*
X142367143Y-161760819D01*
X142367143Y-161760819D02*
X142605238Y-161760819D01*
X142605238Y-161760819D02*
X142748095Y-161808438D01*
X143081429Y-161760819D02*
X143319524Y-162760819D01*
X143319524Y-162760819D02*
X143510000Y-162046533D01*
X143510000Y-162046533D02*
X143700476Y-162760819D01*
X143700476Y-162760819D02*
X143938572Y-161760819D01*
X144843333Y-162760819D02*
X144271905Y-162760819D01*
X144557619Y-162760819D02*
X144557619Y-161760819D01*
X144557619Y-161760819D02*
X144462381Y-161903676D01*
X144462381Y-161903676D02*
X144367143Y-161998914D01*
X144367143Y-161998914D02*
X144271905Y-162046533D01*
X106346666Y-171031819D02*
X106346666Y-171746104D01*
X106346666Y-171746104D02*
X106299047Y-171888961D01*
X106299047Y-171888961D02*
X106203809Y-171984200D01*
X106203809Y-171984200D02*
X106060952Y-172031819D01*
X106060952Y-172031819D02*
X105965714Y-172031819D01*
X107346666Y-172031819D02*
X106775238Y-172031819D01*
X107060952Y-172031819D02*
X107060952Y-171031819D01*
X107060952Y-171031819D02*
X106965714Y-171174676D01*
X106965714Y-171174676D02*
X106870476Y-171269914D01*
X106870476Y-171269914D02*
X106775238Y-171317533D01*
X105143541Y-153809819D02*
X105810207Y-153809819D01*
X105810207Y-153809819D02*
X105381636Y-154809819D01*
X140073142Y-159458819D02*
X139739809Y-158982628D01*
X139501714Y-159458819D02*
X139501714Y-158458819D01*
X139501714Y-158458819D02*
X139882666Y-158458819D01*
X139882666Y-158458819D02*
X139977904Y-158506438D01*
X139977904Y-158506438D02*
X140025523Y-158554057D01*
X140025523Y-158554057D02*
X140073142Y-158649295D01*
X140073142Y-158649295D02*
X140073142Y-158792152D01*
X140073142Y-158792152D02*
X140025523Y-158887390D01*
X140025523Y-158887390D02*
X139977904Y-158935009D01*
X139977904Y-158935009D02*
X139882666Y-158982628D01*
X139882666Y-158982628D02*
X139501714Y-158982628D01*
X140454095Y-158554057D02*
X140501714Y-158506438D01*
X140501714Y-158506438D02*
X140596952Y-158458819D01*
X140596952Y-158458819D02*
X140835047Y-158458819D01*
X140835047Y-158458819D02*
X140930285Y-158506438D01*
X140930285Y-158506438D02*
X140977904Y-158554057D01*
X140977904Y-158554057D02*
X141025523Y-158649295D01*
X141025523Y-158649295D02*
X141025523Y-158744533D01*
X141025523Y-158744533D02*
X140977904Y-158887390D01*
X140977904Y-158887390D02*
X140406476Y-159458819D01*
X140406476Y-159458819D02*
X141025523Y-159458819D01*
X141930285Y-158458819D02*
X141454095Y-158458819D01*
X141454095Y-158458819D02*
X141406476Y-158935009D01*
X141406476Y-158935009D02*
X141454095Y-158887390D01*
X141454095Y-158887390D02*
X141549333Y-158839771D01*
X141549333Y-158839771D02*
X141787428Y-158839771D01*
X141787428Y-158839771D02*
X141882666Y-158887390D01*
X141882666Y-158887390D02*
X141930285Y-158935009D01*
X141930285Y-158935009D02*
X141977904Y-159030247D01*
X141977904Y-159030247D02*
X141977904Y-159268342D01*
X141977904Y-159268342D02*
X141930285Y-159363580D01*
X141930285Y-159363580D02*
X141882666Y-159411200D01*
X141882666Y-159411200D02*
X141787428Y-159458819D01*
X141787428Y-159458819D02*
X141549333Y-159458819D01*
X141549333Y-159458819D02*
X141454095Y-159411200D01*
X141454095Y-159411200D02*
X141406476Y-159363580D01*
X118737142Y-159458819D02*
X118403809Y-158982628D01*
X118165714Y-159458819D02*
X118165714Y-158458819D01*
X118165714Y-158458819D02*
X118546666Y-158458819D01*
X118546666Y-158458819D02*
X118641904Y-158506438D01*
X118641904Y-158506438D02*
X118689523Y-158554057D01*
X118689523Y-158554057D02*
X118737142Y-158649295D01*
X118737142Y-158649295D02*
X118737142Y-158792152D01*
X118737142Y-158792152D02*
X118689523Y-158887390D01*
X118689523Y-158887390D02*
X118641904Y-158935009D01*
X118641904Y-158935009D02*
X118546666Y-158982628D01*
X118546666Y-158982628D02*
X118165714Y-158982628D01*
X119689523Y-159458819D02*
X119118095Y-159458819D01*
X119403809Y-159458819D02*
X119403809Y-158458819D01*
X119403809Y-158458819D02*
X119308571Y-158601676D01*
X119308571Y-158601676D02*
X119213333Y-158696914D01*
X119213333Y-158696914D02*
X119118095Y-158744533D01*
X120641904Y-159458819D02*
X120070476Y-159458819D01*
X120356190Y-159458819D02*
X120356190Y-158458819D01*
X120356190Y-158458819D02*
X120260952Y-158601676D01*
X120260952Y-158601676D02*
X120165714Y-158696914D01*
X120165714Y-158696914D02*
X120070476Y-158744533D01*
X132421333Y-159458819D02*
X132088000Y-158982628D01*
X131849905Y-159458819D02*
X131849905Y-158458819D01*
X131849905Y-158458819D02*
X132230857Y-158458819D01*
X132230857Y-158458819D02*
X132326095Y-158506438D01*
X132326095Y-158506438D02*
X132373714Y-158554057D01*
X132373714Y-158554057D02*
X132421333Y-158649295D01*
X132421333Y-158649295D02*
X132421333Y-158792152D01*
X132421333Y-158792152D02*
X132373714Y-158887390D01*
X132373714Y-158887390D02*
X132326095Y-158935009D01*
X132326095Y-158935009D02*
X132230857Y-158982628D01*
X132230857Y-158982628D02*
X131849905Y-158982628D01*
X133326095Y-158458819D02*
X132849905Y-158458819D01*
X132849905Y-158458819D02*
X132802286Y-158935009D01*
X132802286Y-158935009D02*
X132849905Y-158887390D01*
X132849905Y-158887390D02*
X132945143Y-158839771D01*
X132945143Y-158839771D02*
X133183238Y-158839771D01*
X133183238Y-158839771D02*
X133278476Y-158887390D01*
X133278476Y-158887390D02*
X133326095Y-158935009D01*
X133326095Y-158935009D02*
X133373714Y-159030247D01*
X133373714Y-159030247D02*
X133373714Y-159268342D01*
X133373714Y-159268342D02*
X133326095Y-159363580D01*
X133326095Y-159363580D02*
X133278476Y-159411200D01*
X133278476Y-159411200D02*
X133183238Y-159458819D01*
X133183238Y-159458819D02*
X132945143Y-159458819D01*
X132945143Y-159458819D02*
X132849905Y-159411200D01*
X132849905Y-159411200D02*
X132802286Y-159363580D01*
X122801142Y-159458819D02*
X122467809Y-158982628D01*
X122229714Y-159458819D02*
X122229714Y-158458819D01*
X122229714Y-158458819D02*
X122610666Y-158458819D01*
X122610666Y-158458819D02*
X122705904Y-158506438D01*
X122705904Y-158506438D02*
X122753523Y-158554057D01*
X122753523Y-158554057D02*
X122801142Y-158649295D01*
X122801142Y-158649295D02*
X122801142Y-158792152D01*
X122801142Y-158792152D02*
X122753523Y-158887390D01*
X122753523Y-158887390D02*
X122705904Y-158935009D01*
X122705904Y-158935009D02*
X122610666Y-158982628D01*
X122610666Y-158982628D02*
X122229714Y-158982628D01*
X123182095Y-158554057D02*
X123229714Y-158506438D01*
X123229714Y-158506438D02*
X123324952Y-158458819D01*
X123324952Y-158458819D02*
X123563047Y-158458819D01*
X123563047Y-158458819D02*
X123658285Y-158506438D01*
X123658285Y-158506438D02*
X123705904Y-158554057D01*
X123705904Y-158554057D02*
X123753523Y-158649295D01*
X123753523Y-158649295D02*
X123753523Y-158744533D01*
X123753523Y-158744533D02*
X123705904Y-158887390D01*
X123705904Y-158887390D02*
X123134476Y-159458819D01*
X123134476Y-159458819D02*
X123753523Y-159458819D01*
X124705904Y-159458819D02*
X124134476Y-159458819D01*
X124420190Y-159458819D02*
X124420190Y-158458819D01*
X124420190Y-158458819D02*
X124324952Y-158601676D01*
X124324952Y-158601676D02*
X124229714Y-158696914D01*
X124229714Y-158696914D02*
X124134476Y-158744533D01*
X120769142Y-160982819D02*
X120435809Y-160506628D01*
X120197714Y-160982819D02*
X120197714Y-159982819D01*
X120197714Y-159982819D02*
X120578666Y-159982819D01*
X120578666Y-159982819D02*
X120673904Y-160030438D01*
X120673904Y-160030438D02*
X120721523Y-160078057D01*
X120721523Y-160078057D02*
X120769142Y-160173295D01*
X120769142Y-160173295D02*
X120769142Y-160316152D01*
X120769142Y-160316152D02*
X120721523Y-160411390D01*
X120721523Y-160411390D02*
X120673904Y-160459009D01*
X120673904Y-160459009D02*
X120578666Y-160506628D01*
X120578666Y-160506628D02*
X120197714Y-160506628D01*
X121721523Y-160982819D02*
X121150095Y-160982819D01*
X121435809Y-160982819D02*
X121435809Y-159982819D01*
X121435809Y-159982819D02*
X121340571Y-160125676D01*
X121340571Y-160125676D02*
X121245333Y-160220914D01*
X121245333Y-160220914D02*
X121150095Y-160268533D01*
X122578666Y-159982819D02*
X122388190Y-159982819D01*
X122388190Y-159982819D02*
X122292952Y-160030438D01*
X122292952Y-160030438D02*
X122245333Y-160078057D01*
X122245333Y-160078057D02*
X122150095Y-160220914D01*
X122150095Y-160220914D02*
X122102476Y-160411390D01*
X122102476Y-160411390D02*
X122102476Y-160792342D01*
X122102476Y-160792342D02*
X122150095Y-160887580D01*
X122150095Y-160887580D02*
X122197714Y-160935200D01*
X122197714Y-160935200D02*
X122292952Y-160982819D01*
X122292952Y-160982819D02*
X122483428Y-160982819D01*
X122483428Y-160982819D02*
X122578666Y-160935200D01*
X122578666Y-160935200D02*
X122626285Y-160887580D01*
X122626285Y-160887580D02*
X122673904Y-160792342D01*
X122673904Y-160792342D02*
X122673904Y-160554247D01*
X122673904Y-160554247D02*
X122626285Y-160459009D01*
X122626285Y-160459009D02*
X122578666Y-160411390D01*
X122578666Y-160411390D02*
X122483428Y-160363771D01*
X122483428Y-160363771D02*
X122292952Y-160363771D01*
X122292952Y-160363771D02*
X122197714Y-160411390D01*
X122197714Y-160411390D02*
X122150095Y-160459009D01*
X122150095Y-160459009D02*
X122102476Y-160554247D01*
X117181333Y-160982819D02*
X116848000Y-160506628D01*
X116609905Y-160982819D02*
X116609905Y-159982819D01*
X116609905Y-159982819D02*
X116990857Y-159982819D01*
X116990857Y-159982819D02*
X117086095Y-160030438D01*
X117086095Y-160030438D02*
X117133714Y-160078057D01*
X117133714Y-160078057D02*
X117181333Y-160173295D01*
X117181333Y-160173295D02*
X117181333Y-160316152D01*
X117181333Y-160316152D02*
X117133714Y-160411390D01*
X117133714Y-160411390D02*
X117086095Y-160459009D01*
X117086095Y-160459009D02*
X116990857Y-160506628D01*
X116990857Y-160506628D02*
X116609905Y-160506628D01*
X118038476Y-159982819D02*
X117848000Y-159982819D01*
X117848000Y-159982819D02*
X117752762Y-160030438D01*
X117752762Y-160030438D02*
X117705143Y-160078057D01*
X117705143Y-160078057D02*
X117609905Y-160220914D01*
X117609905Y-160220914D02*
X117562286Y-160411390D01*
X117562286Y-160411390D02*
X117562286Y-160792342D01*
X117562286Y-160792342D02*
X117609905Y-160887580D01*
X117609905Y-160887580D02*
X117657524Y-160935200D01*
X117657524Y-160935200D02*
X117752762Y-160982819D01*
X117752762Y-160982819D02*
X117943238Y-160982819D01*
X117943238Y-160982819D02*
X118038476Y-160935200D01*
X118038476Y-160935200D02*
X118086095Y-160887580D01*
X118086095Y-160887580D02*
X118133714Y-160792342D01*
X118133714Y-160792342D02*
X118133714Y-160554247D01*
X118133714Y-160554247D02*
X118086095Y-160459009D01*
X118086095Y-160459009D02*
X118038476Y-160411390D01*
X118038476Y-160411390D02*
X117943238Y-160363771D01*
X117943238Y-160363771D02*
X117752762Y-160363771D01*
X117752762Y-160363771D02*
X117657524Y-160411390D01*
X117657524Y-160411390D02*
X117609905Y-160459009D01*
X117609905Y-160459009D02*
X117562286Y-160554247D01*
X136009142Y-159458819D02*
X135675809Y-158982628D01*
X135437714Y-159458819D02*
X135437714Y-158458819D01*
X135437714Y-158458819D02*
X135818666Y-158458819D01*
X135818666Y-158458819D02*
X135913904Y-158506438D01*
X135913904Y-158506438D02*
X135961523Y-158554057D01*
X135961523Y-158554057D02*
X136009142Y-158649295D01*
X136009142Y-158649295D02*
X136009142Y-158792152D01*
X136009142Y-158792152D02*
X135961523Y-158887390D01*
X135961523Y-158887390D02*
X135913904Y-158935009D01*
X135913904Y-158935009D02*
X135818666Y-158982628D01*
X135818666Y-158982628D02*
X135437714Y-158982628D01*
X136961523Y-159458819D02*
X136390095Y-159458819D01*
X136675809Y-159458819D02*
X136675809Y-158458819D01*
X136675809Y-158458819D02*
X136580571Y-158601676D01*
X136580571Y-158601676D02*
X136485333Y-158696914D01*
X136485333Y-158696914D02*
X136390095Y-158744533D01*
X137866285Y-158458819D02*
X137390095Y-158458819D01*
X137390095Y-158458819D02*
X137342476Y-158935009D01*
X137342476Y-158935009D02*
X137390095Y-158887390D01*
X137390095Y-158887390D02*
X137485333Y-158839771D01*
X137485333Y-158839771D02*
X137723428Y-158839771D01*
X137723428Y-158839771D02*
X137818666Y-158887390D01*
X137818666Y-158887390D02*
X137866285Y-158935009D01*
X137866285Y-158935009D02*
X137913904Y-159030247D01*
X137913904Y-159030247D02*
X137913904Y-159268342D01*
X137913904Y-159268342D02*
X137866285Y-159363580D01*
X137866285Y-159363580D02*
X137818666Y-159411200D01*
X137818666Y-159411200D02*
X137723428Y-159458819D01*
X137723428Y-159458819D02*
X137485333Y-159458819D01*
X137485333Y-159458819D02*
X137390095Y-159411200D01*
X137390095Y-159411200D02*
X137342476Y-159363580D01*
X133977142Y-160982819D02*
X133643809Y-160506628D01*
X133405714Y-160982819D02*
X133405714Y-159982819D01*
X133405714Y-159982819D02*
X133786666Y-159982819D01*
X133786666Y-159982819D02*
X133881904Y-160030438D01*
X133881904Y-160030438D02*
X133929523Y-160078057D01*
X133929523Y-160078057D02*
X133977142Y-160173295D01*
X133977142Y-160173295D02*
X133977142Y-160316152D01*
X133977142Y-160316152D02*
X133929523Y-160411390D01*
X133929523Y-160411390D02*
X133881904Y-160459009D01*
X133881904Y-160459009D02*
X133786666Y-160506628D01*
X133786666Y-160506628D02*
X133405714Y-160506628D01*
X134929523Y-160982819D02*
X134358095Y-160982819D01*
X134643809Y-160982819D02*
X134643809Y-159982819D01*
X134643809Y-159982819D02*
X134548571Y-160125676D01*
X134548571Y-160125676D02*
X134453333Y-160220914D01*
X134453333Y-160220914D02*
X134358095Y-160268533D01*
X135548571Y-159982819D02*
X135643809Y-159982819D01*
X135643809Y-159982819D02*
X135739047Y-160030438D01*
X135739047Y-160030438D02*
X135786666Y-160078057D01*
X135786666Y-160078057D02*
X135834285Y-160173295D01*
X135834285Y-160173295D02*
X135881904Y-160363771D01*
X135881904Y-160363771D02*
X135881904Y-160601866D01*
X135881904Y-160601866D02*
X135834285Y-160792342D01*
X135834285Y-160792342D02*
X135786666Y-160887580D01*
X135786666Y-160887580D02*
X135739047Y-160935200D01*
X135739047Y-160935200D02*
X135643809Y-160982819D01*
X135643809Y-160982819D02*
X135548571Y-160982819D01*
X135548571Y-160982819D02*
X135453333Y-160935200D01*
X135453333Y-160935200D02*
X135405714Y-160887580D01*
X135405714Y-160887580D02*
X135358095Y-160792342D01*
X135358095Y-160792342D02*
X135310476Y-160601866D01*
X135310476Y-160601866D02*
X135310476Y-160363771D01*
X135310476Y-160363771D02*
X135358095Y-160173295D01*
X135358095Y-160173295D02*
X135405714Y-160078057D01*
X135405714Y-160078057D02*
X135453333Y-160030438D01*
X135453333Y-160030438D02*
X135548571Y-159982819D01*
X138041142Y-160982819D02*
X137707809Y-160506628D01*
X137469714Y-160982819D02*
X137469714Y-159982819D01*
X137469714Y-159982819D02*
X137850666Y-159982819D01*
X137850666Y-159982819D02*
X137945904Y-160030438D01*
X137945904Y-160030438D02*
X137993523Y-160078057D01*
X137993523Y-160078057D02*
X138041142Y-160173295D01*
X138041142Y-160173295D02*
X138041142Y-160316152D01*
X138041142Y-160316152D02*
X137993523Y-160411390D01*
X137993523Y-160411390D02*
X137945904Y-160459009D01*
X137945904Y-160459009D02*
X137850666Y-160506628D01*
X137850666Y-160506628D02*
X137469714Y-160506628D01*
X138422095Y-160078057D02*
X138469714Y-160030438D01*
X138469714Y-160030438D02*
X138564952Y-159982819D01*
X138564952Y-159982819D02*
X138803047Y-159982819D01*
X138803047Y-159982819D02*
X138898285Y-160030438D01*
X138898285Y-160030438D02*
X138945904Y-160078057D01*
X138945904Y-160078057D02*
X138993523Y-160173295D01*
X138993523Y-160173295D02*
X138993523Y-160268533D01*
X138993523Y-160268533D02*
X138945904Y-160411390D01*
X138945904Y-160411390D02*
X138374476Y-160982819D01*
X138374476Y-160982819D02*
X138993523Y-160982819D01*
X139612571Y-159982819D02*
X139707809Y-159982819D01*
X139707809Y-159982819D02*
X139803047Y-160030438D01*
X139803047Y-160030438D02*
X139850666Y-160078057D01*
X139850666Y-160078057D02*
X139898285Y-160173295D01*
X139898285Y-160173295D02*
X139945904Y-160363771D01*
X139945904Y-160363771D02*
X139945904Y-160601866D01*
X139945904Y-160601866D02*
X139898285Y-160792342D01*
X139898285Y-160792342D02*
X139850666Y-160887580D01*
X139850666Y-160887580D02*
X139803047Y-160935200D01*
X139803047Y-160935200D02*
X139707809Y-160982819D01*
X139707809Y-160982819D02*
X139612571Y-160982819D01*
X139612571Y-160982819D02*
X139517333Y-160935200D01*
X139517333Y-160935200D02*
X139469714Y-160887580D01*
X139469714Y-160887580D02*
X139422095Y-160792342D01*
X139422095Y-160792342D02*
X139374476Y-160601866D01*
X139374476Y-160601866D02*
X139374476Y-160363771D01*
X139374476Y-160363771D02*
X139422095Y-160173295D01*
X139422095Y-160173295D02*
X139469714Y-160078057D01*
X139469714Y-160078057D02*
X139517333Y-160030438D01*
X139517333Y-160030438D02*
X139612571Y-159982819D01*
X146169142Y-160982819D02*
X145835809Y-160506628D01*
X145597714Y-160982819D02*
X145597714Y-159982819D01*
X145597714Y-159982819D02*
X145978666Y-159982819D01*
X145978666Y-159982819D02*
X146073904Y-160030438D01*
X146073904Y-160030438D02*
X146121523Y-160078057D01*
X146121523Y-160078057D02*
X146169142Y-160173295D01*
X146169142Y-160173295D02*
X146169142Y-160316152D01*
X146169142Y-160316152D02*
X146121523Y-160411390D01*
X146121523Y-160411390D02*
X146073904Y-160459009D01*
X146073904Y-160459009D02*
X145978666Y-160506628D01*
X145978666Y-160506628D02*
X145597714Y-160506628D01*
X147026285Y-160316152D02*
X147026285Y-160982819D01*
X146788190Y-159935200D02*
X146550095Y-160649485D01*
X146550095Y-160649485D02*
X147169142Y-160649485D01*
X147740571Y-159982819D02*
X147835809Y-159982819D01*
X147835809Y-159982819D02*
X147931047Y-160030438D01*
X147931047Y-160030438D02*
X147978666Y-160078057D01*
X147978666Y-160078057D02*
X148026285Y-160173295D01*
X148026285Y-160173295D02*
X148073904Y-160363771D01*
X148073904Y-160363771D02*
X148073904Y-160601866D01*
X148073904Y-160601866D02*
X148026285Y-160792342D01*
X148026285Y-160792342D02*
X147978666Y-160887580D01*
X147978666Y-160887580D02*
X147931047Y-160935200D01*
X147931047Y-160935200D02*
X147835809Y-160982819D01*
X147835809Y-160982819D02*
X147740571Y-160982819D01*
X147740571Y-160982819D02*
X147645333Y-160935200D01*
X147645333Y-160935200D02*
X147597714Y-160887580D01*
X147597714Y-160887580D02*
X147550095Y-160792342D01*
X147550095Y-160792342D02*
X147502476Y-160601866D01*
X147502476Y-160601866D02*
X147502476Y-160363771D01*
X147502476Y-160363771D02*
X147550095Y-160173295D01*
X147550095Y-160173295D02*
X147597714Y-160078057D01*
X147597714Y-160078057D02*
X147645333Y-160030438D01*
X147645333Y-160030438D02*
X147740571Y-159982819D01*
X124833142Y-160982819D02*
X124499809Y-160506628D01*
X124261714Y-160982819D02*
X124261714Y-159982819D01*
X124261714Y-159982819D02*
X124642666Y-159982819D01*
X124642666Y-159982819D02*
X124737904Y-160030438D01*
X124737904Y-160030438D02*
X124785523Y-160078057D01*
X124785523Y-160078057D02*
X124833142Y-160173295D01*
X124833142Y-160173295D02*
X124833142Y-160316152D01*
X124833142Y-160316152D02*
X124785523Y-160411390D01*
X124785523Y-160411390D02*
X124737904Y-160459009D01*
X124737904Y-160459009D02*
X124642666Y-160506628D01*
X124642666Y-160506628D02*
X124261714Y-160506628D01*
X125214095Y-160078057D02*
X125261714Y-160030438D01*
X125261714Y-160030438D02*
X125356952Y-159982819D01*
X125356952Y-159982819D02*
X125595047Y-159982819D01*
X125595047Y-159982819D02*
X125690285Y-160030438D01*
X125690285Y-160030438D02*
X125737904Y-160078057D01*
X125737904Y-160078057D02*
X125785523Y-160173295D01*
X125785523Y-160173295D02*
X125785523Y-160268533D01*
X125785523Y-160268533D02*
X125737904Y-160411390D01*
X125737904Y-160411390D02*
X125166476Y-160982819D01*
X125166476Y-160982819D02*
X125785523Y-160982819D01*
X126642666Y-159982819D02*
X126452190Y-159982819D01*
X126452190Y-159982819D02*
X126356952Y-160030438D01*
X126356952Y-160030438D02*
X126309333Y-160078057D01*
X126309333Y-160078057D02*
X126214095Y-160220914D01*
X126214095Y-160220914D02*
X126166476Y-160411390D01*
X126166476Y-160411390D02*
X126166476Y-160792342D01*
X126166476Y-160792342D02*
X126214095Y-160887580D01*
X126214095Y-160887580D02*
X126261714Y-160935200D01*
X126261714Y-160935200D02*
X126356952Y-160982819D01*
X126356952Y-160982819D02*
X126547428Y-160982819D01*
X126547428Y-160982819D02*
X126642666Y-160935200D01*
X126642666Y-160935200D02*
X126690285Y-160887580D01*
X126690285Y-160887580D02*
X126737904Y-160792342D01*
X126737904Y-160792342D02*
X126737904Y-160554247D01*
X126737904Y-160554247D02*
X126690285Y-160459009D01*
X126690285Y-160459009D02*
X126642666Y-160411390D01*
X126642666Y-160411390D02*
X126547428Y-160363771D01*
X126547428Y-160363771D02*
X126356952Y-160363771D01*
X126356952Y-160363771D02*
X126261714Y-160411390D01*
X126261714Y-160411390D02*
X126214095Y-160459009D01*
X126214095Y-160459009D02*
X126166476Y-160554247D01*
X126865142Y-159458819D02*
X126531809Y-158982628D01*
X126293714Y-159458819D02*
X126293714Y-158458819D01*
X126293714Y-158458819D02*
X126674666Y-158458819D01*
X126674666Y-158458819D02*
X126769904Y-158506438D01*
X126769904Y-158506438D02*
X126817523Y-158554057D01*
X126817523Y-158554057D02*
X126865142Y-158649295D01*
X126865142Y-158649295D02*
X126865142Y-158792152D01*
X126865142Y-158792152D02*
X126817523Y-158887390D01*
X126817523Y-158887390D02*
X126769904Y-158935009D01*
X126769904Y-158935009D02*
X126674666Y-158982628D01*
X126674666Y-158982628D02*
X126293714Y-158982628D01*
X127198476Y-158458819D02*
X127817523Y-158458819D01*
X127817523Y-158458819D02*
X127484190Y-158839771D01*
X127484190Y-158839771D02*
X127627047Y-158839771D01*
X127627047Y-158839771D02*
X127722285Y-158887390D01*
X127722285Y-158887390D02*
X127769904Y-158935009D01*
X127769904Y-158935009D02*
X127817523Y-159030247D01*
X127817523Y-159030247D02*
X127817523Y-159268342D01*
X127817523Y-159268342D02*
X127769904Y-159363580D01*
X127769904Y-159363580D02*
X127722285Y-159411200D01*
X127722285Y-159411200D02*
X127627047Y-159458819D01*
X127627047Y-159458819D02*
X127341333Y-159458819D01*
X127341333Y-159458819D02*
X127246095Y-159411200D01*
X127246095Y-159411200D02*
X127198476Y-159363580D01*
X128769904Y-159458819D02*
X128198476Y-159458819D01*
X128484190Y-159458819D02*
X128484190Y-158458819D01*
X128484190Y-158458819D02*
X128388952Y-158601676D01*
X128388952Y-158601676D02*
X128293714Y-158696914D01*
X128293714Y-158696914D02*
X128198476Y-158744533D01*
X115149333Y-159458819D02*
X114816000Y-158982628D01*
X114577905Y-159458819D02*
X114577905Y-158458819D01*
X114577905Y-158458819D02*
X114958857Y-158458819D01*
X114958857Y-158458819D02*
X115054095Y-158506438D01*
X115054095Y-158506438D02*
X115101714Y-158554057D01*
X115101714Y-158554057D02*
X115149333Y-158649295D01*
X115149333Y-158649295D02*
X115149333Y-158792152D01*
X115149333Y-158792152D02*
X115101714Y-158887390D01*
X115101714Y-158887390D02*
X115054095Y-158935009D01*
X115054095Y-158935009D02*
X114958857Y-158982628D01*
X114958857Y-158982628D02*
X114577905Y-158982628D01*
X116101714Y-159458819D02*
X115530286Y-159458819D01*
X115816000Y-159458819D02*
X115816000Y-158458819D01*
X115816000Y-158458819D02*
X115720762Y-158601676D01*
X115720762Y-158601676D02*
X115625524Y-158696914D01*
X115625524Y-158696914D02*
X115530286Y-158744533D01*
X144137142Y-159458819D02*
X143803809Y-158982628D01*
X143565714Y-159458819D02*
X143565714Y-158458819D01*
X143565714Y-158458819D02*
X143946666Y-158458819D01*
X143946666Y-158458819D02*
X144041904Y-158506438D01*
X144041904Y-158506438D02*
X144089523Y-158554057D01*
X144089523Y-158554057D02*
X144137142Y-158649295D01*
X144137142Y-158649295D02*
X144137142Y-158792152D01*
X144137142Y-158792152D02*
X144089523Y-158887390D01*
X144089523Y-158887390D02*
X144041904Y-158935009D01*
X144041904Y-158935009D02*
X143946666Y-158982628D01*
X143946666Y-158982628D02*
X143565714Y-158982628D01*
X144470476Y-158458819D02*
X145089523Y-158458819D01*
X145089523Y-158458819D02*
X144756190Y-158839771D01*
X144756190Y-158839771D02*
X144899047Y-158839771D01*
X144899047Y-158839771D02*
X144994285Y-158887390D01*
X144994285Y-158887390D02*
X145041904Y-158935009D01*
X145041904Y-158935009D02*
X145089523Y-159030247D01*
X145089523Y-159030247D02*
X145089523Y-159268342D01*
X145089523Y-159268342D02*
X145041904Y-159363580D01*
X145041904Y-159363580D02*
X144994285Y-159411200D01*
X144994285Y-159411200D02*
X144899047Y-159458819D01*
X144899047Y-159458819D02*
X144613333Y-159458819D01*
X144613333Y-159458819D02*
X144518095Y-159411200D01*
X144518095Y-159411200D02*
X144470476Y-159363580D01*
X145994285Y-158458819D02*
X145518095Y-158458819D01*
X145518095Y-158458819D02*
X145470476Y-158935009D01*
X145470476Y-158935009D02*
X145518095Y-158887390D01*
X145518095Y-158887390D02*
X145613333Y-158839771D01*
X145613333Y-158839771D02*
X145851428Y-158839771D01*
X145851428Y-158839771D02*
X145946666Y-158887390D01*
X145946666Y-158887390D02*
X145994285Y-158935009D01*
X145994285Y-158935009D02*
X146041904Y-159030247D01*
X146041904Y-159030247D02*
X146041904Y-159268342D01*
X146041904Y-159268342D02*
X145994285Y-159363580D01*
X145994285Y-159363580D02*
X145946666Y-159411200D01*
X145946666Y-159411200D02*
X145851428Y-159458819D01*
X145851428Y-159458819D02*
X145613333Y-159458819D01*
X145613333Y-159458819D02*
X145518095Y-159411200D01*
X145518095Y-159411200D02*
X145470476Y-159363580D01*
X128897142Y-160982819D02*
X128563809Y-160506628D01*
X128325714Y-160982819D02*
X128325714Y-159982819D01*
X128325714Y-159982819D02*
X128706666Y-159982819D01*
X128706666Y-159982819D02*
X128801904Y-160030438D01*
X128801904Y-160030438D02*
X128849523Y-160078057D01*
X128849523Y-160078057D02*
X128897142Y-160173295D01*
X128897142Y-160173295D02*
X128897142Y-160316152D01*
X128897142Y-160316152D02*
X128849523Y-160411390D01*
X128849523Y-160411390D02*
X128801904Y-160459009D01*
X128801904Y-160459009D02*
X128706666Y-160506628D01*
X128706666Y-160506628D02*
X128325714Y-160506628D01*
X129230476Y-159982819D02*
X129849523Y-159982819D01*
X129849523Y-159982819D02*
X129516190Y-160363771D01*
X129516190Y-160363771D02*
X129659047Y-160363771D01*
X129659047Y-160363771D02*
X129754285Y-160411390D01*
X129754285Y-160411390D02*
X129801904Y-160459009D01*
X129801904Y-160459009D02*
X129849523Y-160554247D01*
X129849523Y-160554247D02*
X129849523Y-160792342D01*
X129849523Y-160792342D02*
X129801904Y-160887580D01*
X129801904Y-160887580D02*
X129754285Y-160935200D01*
X129754285Y-160935200D02*
X129659047Y-160982819D01*
X129659047Y-160982819D02*
X129373333Y-160982819D01*
X129373333Y-160982819D02*
X129278095Y-160935200D01*
X129278095Y-160935200D02*
X129230476Y-160887580D01*
X130706666Y-159982819D02*
X130516190Y-159982819D01*
X130516190Y-159982819D02*
X130420952Y-160030438D01*
X130420952Y-160030438D02*
X130373333Y-160078057D01*
X130373333Y-160078057D02*
X130278095Y-160220914D01*
X130278095Y-160220914D02*
X130230476Y-160411390D01*
X130230476Y-160411390D02*
X130230476Y-160792342D01*
X130230476Y-160792342D02*
X130278095Y-160887580D01*
X130278095Y-160887580D02*
X130325714Y-160935200D01*
X130325714Y-160935200D02*
X130420952Y-160982819D01*
X130420952Y-160982819D02*
X130611428Y-160982819D01*
X130611428Y-160982819D02*
X130706666Y-160935200D01*
X130706666Y-160935200D02*
X130754285Y-160887580D01*
X130754285Y-160887580D02*
X130801904Y-160792342D01*
X130801904Y-160792342D02*
X130801904Y-160554247D01*
X130801904Y-160554247D02*
X130754285Y-160459009D01*
X130754285Y-160459009D02*
X130706666Y-160411390D01*
X130706666Y-160411390D02*
X130611428Y-160363771D01*
X130611428Y-160363771D02*
X130420952Y-160363771D01*
X130420952Y-160363771D02*
X130325714Y-160411390D01*
X130325714Y-160411390D02*
X130278095Y-160459009D01*
X130278095Y-160459009D02*
X130230476Y-160554247D01*
X142105142Y-160982819D02*
X141771809Y-160506628D01*
X141533714Y-160982819D02*
X141533714Y-159982819D01*
X141533714Y-159982819D02*
X141914666Y-159982819D01*
X141914666Y-159982819D02*
X142009904Y-160030438D01*
X142009904Y-160030438D02*
X142057523Y-160078057D01*
X142057523Y-160078057D02*
X142105142Y-160173295D01*
X142105142Y-160173295D02*
X142105142Y-160316152D01*
X142105142Y-160316152D02*
X142057523Y-160411390D01*
X142057523Y-160411390D02*
X142009904Y-160459009D01*
X142009904Y-160459009D02*
X141914666Y-160506628D01*
X141914666Y-160506628D02*
X141533714Y-160506628D01*
X142438476Y-159982819D02*
X143057523Y-159982819D01*
X143057523Y-159982819D02*
X142724190Y-160363771D01*
X142724190Y-160363771D02*
X142867047Y-160363771D01*
X142867047Y-160363771D02*
X142962285Y-160411390D01*
X142962285Y-160411390D02*
X143009904Y-160459009D01*
X143009904Y-160459009D02*
X143057523Y-160554247D01*
X143057523Y-160554247D02*
X143057523Y-160792342D01*
X143057523Y-160792342D02*
X143009904Y-160887580D01*
X143009904Y-160887580D02*
X142962285Y-160935200D01*
X142962285Y-160935200D02*
X142867047Y-160982819D01*
X142867047Y-160982819D02*
X142581333Y-160982819D01*
X142581333Y-160982819D02*
X142486095Y-160935200D01*
X142486095Y-160935200D02*
X142438476Y-160887580D01*
X143676571Y-159982819D02*
X143771809Y-159982819D01*
X143771809Y-159982819D02*
X143867047Y-160030438D01*
X143867047Y-160030438D02*
X143914666Y-160078057D01*
X143914666Y-160078057D02*
X143962285Y-160173295D01*
X143962285Y-160173295D02*
X144009904Y-160363771D01*
X144009904Y-160363771D02*
X144009904Y-160601866D01*
X144009904Y-160601866D02*
X143962285Y-160792342D01*
X143962285Y-160792342D02*
X143914666Y-160887580D01*
X143914666Y-160887580D02*
X143867047Y-160935200D01*
X143867047Y-160935200D02*
X143771809Y-160982819D01*
X143771809Y-160982819D02*
X143676571Y-160982819D01*
X143676571Y-160982819D02*
X143581333Y-160935200D01*
X143581333Y-160935200D02*
X143533714Y-160887580D01*
X143533714Y-160887580D02*
X143486095Y-160792342D01*
X143486095Y-160792342D02*
X143438476Y-160601866D01*
X143438476Y-160601866D02*
X143438476Y-160363771D01*
X143438476Y-160363771D02*
X143486095Y-160173295D01*
X143486095Y-160173295D02*
X143533714Y-160078057D01*
X143533714Y-160078057D02*
X143581333Y-160030438D01*
X143581333Y-160030438D02*
X143676571Y-159982819D01*
D11*
%TO.C,J2*%
X153670000Y-155448000D02*
X153670000Y-156972000D01*
X153670000Y-156972000D02*
X154178000Y-157480000D01*
X153670000Y-157988000D02*
X153670000Y-159512000D01*
X153670000Y-159512000D02*
X154178000Y-160020000D01*
X153670000Y-160528000D02*
X153670000Y-162052000D01*
X153670000Y-162052000D02*
X154178000Y-162560000D01*
X153670000Y-163068000D02*
X153670000Y-164592000D01*
X153670000Y-164592000D02*
X154178000Y-165100000D01*
X153670000Y-165608000D02*
X153670000Y-167132000D01*
X153670000Y-167132000D02*
X154178000Y-167640000D01*
X153670000Y-168148000D02*
X153670000Y-169672000D01*
X153670000Y-169672000D02*
X154178000Y-170180000D01*
X154178000Y-154940000D02*
X153670000Y-155448000D01*
X154178000Y-157480000D02*
X153670000Y-157988000D01*
X154178000Y-160020000D02*
X153670000Y-160528000D01*
X154178000Y-162560000D02*
X153670000Y-163068000D01*
X154178000Y-165100000D02*
X153670000Y-165608000D01*
X154178000Y-167640000D02*
X153670000Y-168148000D01*
X154178000Y-170180000D02*
X158242000Y-170180000D01*
X154940000Y-154940000D02*
X154178000Y-154940000D01*
X158242000Y-154940000D02*
X154940000Y-154940000D01*
X158242000Y-157480000D02*
X158750000Y-156972000D01*
X158242000Y-160020000D02*
X158750000Y-159512000D01*
X158242000Y-162560000D02*
X158750000Y-162052000D01*
X158242000Y-165100000D02*
X158750000Y-164592000D01*
X158242000Y-167640000D02*
X158750000Y-167132000D01*
X158242000Y-170180000D02*
X158750000Y-169672000D01*
X158750000Y-155448000D02*
X158242000Y-154940000D01*
X158750000Y-156972000D02*
X158750000Y-155448000D01*
X158750000Y-157988000D02*
X158242000Y-157480000D01*
X158750000Y-159512000D02*
X158750000Y-157988000D01*
X158750000Y-160528000D02*
X158242000Y-160020000D01*
X158750000Y-162052000D02*
X158750000Y-160528000D01*
X158750000Y-163068000D02*
X158242000Y-162560000D01*
X158750000Y-164592000D02*
X158750000Y-163068000D01*
X158750000Y-165608000D02*
X158242000Y-165100000D01*
X158750000Y-167132000D02*
X158750000Y-165608000D01*
X158750000Y-168148000D02*
X158242000Y-167640000D01*
X158750000Y-169672000D02*
X158750000Y-168148000D01*
X154940000Y-154710000D02*
X154440000Y-153948000D01*
X155440000Y-153948000D01*
X154940000Y-154710000D01*
G36*
X154940000Y-154710000D02*
G01*
X154440000Y-153948000D01*
X155440000Y-153948000D01*
X154940000Y-154710000D01*
G37*
D12*
%TO.C,REF\u002A\u002A*%
G36*
X119937111Y-171801000D02*
G01*
X119590701Y-171801000D01*
X118464868Y-169851000D01*
X118811278Y-169851000D01*
X119937111Y-171801000D01*
G37*
G36*
X114408095Y-169101000D02*
G01*
X113784890Y-169101000D01*
X113784890Y-169720615D01*
X114812795Y-171501000D01*
X115216385Y-171501000D01*
X115389590Y-171801000D01*
X114639590Y-171801000D01*
X113484890Y-169801000D01*
X113484890Y-168801000D01*
X114234890Y-168801000D01*
X114408095Y-169101000D01*
G37*
G36*
X116716941Y-170801000D02*
G01*
X116716941Y-171801000D01*
X115966941Y-171801000D01*
X114812240Y-169801000D01*
X114812240Y-169720615D01*
X115112240Y-169720615D01*
X116140146Y-171501000D01*
X116416941Y-171501000D01*
X116416941Y-170881385D01*
X115389035Y-169101000D01*
X115112240Y-169101000D01*
X115112240Y-169720615D01*
X114812240Y-169720615D01*
X114812240Y-168801000D01*
X115562240Y-168801000D01*
X116716941Y-170801000D01*
G37*
G36*
X118378265Y-169101000D02*
G01*
X117581855Y-169101000D01*
X119140701Y-171801000D01*
X118794291Y-171801000D01*
X117235445Y-169101000D01*
X116785445Y-169101000D01*
X118344291Y-171801000D01*
X117997881Y-171801000D01*
X116439035Y-169101000D01*
X116035445Y-169101000D01*
X115862240Y-168801000D01*
X117858650Y-168801000D01*
X117425637Y-168051000D01*
X117772048Y-168051000D01*
X118378265Y-169101000D01*
G37*
D13*
%TO.C,SW1*%
X120194000Y-161928000D02*
X141934000Y-161928000D01*
X120194000Y-171828000D02*
X120194000Y-161928000D01*
X141934000Y-161928000D02*
X141934000Y-171828000D01*
X141934000Y-171828000D02*
X120194000Y-171828000D01*
D14*
X122164000Y-172212000D02*
G75*
G02*
X121964000Y-172212000I-100000J0D01*
G01*
X121964000Y-172212000D02*
G75*
G02*
X122164000Y-172212000I100000J0D01*
G01*
D11*
%TO.C,J1*%
X104140000Y-155448000D02*
X104648000Y-154940000D01*
X104140000Y-156972000D02*
X104140000Y-155448000D01*
X104140000Y-157988000D02*
X104648000Y-157480000D01*
X104140000Y-159512000D02*
X104140000Y-157988000D01*
X104140000Y-160528000D02*
X104648000Y-160020000D01*
X104140000Y-162052000D02*
X104140000Y-160528000D01*
X104140000Y-163068000D02*
X104648000Y-162560000D01*
X104140000Y-164592000D02*
X104140000Y-163068000D01*
X104140000Y-165608000D02*
X104648000Y-165100000D01*
X104140000Y-167132000D02*
X104140000Y-165608000D01*
X104140000Y-168148000D02*
X104648000Y-167640000D01*
X104140000Y-169672000D02*
X104140000Y-168148000D01*
X104648000Y-154940000D02*
X107950000Y-154940000D01*
X104648000Y-157480000D02*
X104140000Y-156972000D01*
X104648000Y-160020000D02*
X104140000Y-159512000D01*
X104648000Y-162560000D02*
X104140000Y-162052000D01*
X104648000Y-165100000D02*
X104140000Y-164592000D01*
X104648000Y-167640000D02*
X104140000Y-167132000D01*
X104648000Y-170180000D02*
X104140000Y-169672000D01*
X107950000Y-154940000D02*
X108712000Y-154940000D01*
X108712000Y-154940000D02*
X109220000Y-155448000D01*
X108712000Y-157480000D02*
X109220000Y-157988000D01*
X108712000Y-160020000D02*
X109220000Y-160528000D01*
X108712000Y-162560000D02*
X109220000Y-163068000D01*
X108712000Y-165100000D02*
X109220000Y-165608000D01*
X108712000Y-167640000D02*
X109220000Y-168148000D01*
X108712000Y-170180000D02*
X104648000Y-170180000D01*
X109220000Y-155448000D02*
X109220000Y-156972000D01*
X109220000Y-156972000D02*
X108712000Y-157480000D01*
X109220000Y-157988000D02*
X109220000Y-159512000D01*
X109220000Y-159512000D02*
X108712000Y-160020000D01*
X109220000Y-160528000D02*
X109220000Y-162052000D01*
X109220000Y-162052000D02*
X108712000Y-162560000D01*
X109220000Y-163068000D02*
X109220000Y-164592000D01*
X109220000Y-164592000D02*
X108712000Y-165100000D01*
X109220000Y-165608000D02*
X109220000Y-167132000D01*
X109220000Y-167132000D02*
X108712000Y-167640000D01*
X109220000Y-168148000D02*
X109220000Y-169672000D01*
X109220000Y-169672000D02*
X108712000Y-170180000D01*
X107950000Y-154686000D02*
X107450000Y-153924000D01*
X108450000Y-153924000D01*
X107950000Y-154686000D01*
G36*
X107950000Y-154686000D02*
G01*
X107450000Y-153924000D01*
X108450000Y-153924000D01*
X107950000Y-154686000D01*
G37*
D15*
%TO.C,R25*%
X139981000Y-156691064D02*
X139981000Y-156236936D01*
X141451000Y-156691064D02*
X141451000Y-156236936D01*
%TO.C,R11*%
X118645000Y-156236936D02*
X118645000Y-156691064D01*
X120115000Y-156236936D02*
X120115000Y-156691064D01*
%TO.C,R5*%
X131853000Y-156691064D02*
X131853000Y-156236936D01*
X133323000Y-156691064D02*
X133323000Y-156236936D01*
%TO.C,R21*%
X122709000Y-156220936D02*
X122709000Y-156675064D01*
X124179000Y-156220936D02*
X124179000Y-156675064D01*
%TO.C,R16*%
X120677000Y-156236936D02*
X120677000Y-156691064D01*
X122147000Y-156236936D02*
X122147000Y-156691064D01*
%TO.C,R6*%
X116613000Y-156236936D02*
X116613000Y-156691064D01*
X118083000Y-156236936D02*
X118083000Y-156691064D01*
%TO.C,R15*%
X135917000Y-156691064D02*
X135917000Y-156236936D01*
X137387000Y-156691064D02*
X137387000Y-156236936D01*
%TO.C,R10*%
X133885000Y-156691064D02*
X133885000Y-156236936D01*
X135355000Y-156691064D02*
X135355000Y-156236936D01*
%TO.C,R20*%
X137949000Y-156691064D02*
X137949000Y-156236936D01*
X139419000Y-156691064D02*
X139419000Y-156236936D01*
%TO.C,R40*%
X146077000Y-156707064D02*
X146077000Y-156252936D01*
X147547000Y-156707064D02*
X147547000Y-156252936D01*
%TO.C,R26*%
X124741000Y-156236936D02*
X124741000Y-156691064D01*
X126211000Y-156236936D02*
X126211000Y-156691064D01*
%TO.C,R31*%
X126773000Y-156252936D02*
X126773000Y-156707064D01*
X128243000Y-156252936D02*
X128243000Y-156707064D01*
%TO.C,R1*%
X114581000Y-156236936D02*
X114581000Y-156691064D01*
X116051000Y-156236936D02*
X116051000Y-156691064D01*
%TO.C,R35*%
X144045000Y-156691064D02*
X144045000Y-156236936D01*
X145515000Y-156691064D02*
X145515000Y-156236936D01*
%TO.C,R36*%
X128805000Y-156236936D02*
X128805000Y-156691064D01*
X130275000Y-156236936D02*
X130275000Y-156691064D01*
%TO.C,R30*%
X142013000Y-156691064D02*
X142013000Y-156236936D01*
X143483000Y-156691064D02*
X143483000Y-156236936D01*
%TD*%
M02*
