%TF.GenerationSoftware,KiCad,Pcbnew,9.0.6-9.0.6~ubuntu24.04.1*%
%TF.CreationDate,2026-01-17T20:35:02-03:00*%
%TF.ProjectId,cotti_level_shifter,636f7474-695f-46c6-9576-656c5f736869,0.0*%
%TF.SameCoordinates,Original*%
%TF.FileFunction,Soldermask,Top*%
%TF.FilePolarity,Negative*%
%FSLAX46Y46*%
G04 Gerber Fmt 4.6, Leading zero omitted, Abs format (unit mm)*
G04 Created by KiCad (PCBNEW 9.0.6-9.0.6~ubuntu24.04.1) date 2026-01-17 20:35:02*
%MOMM*%
%LPD*%
G01*
G04 APERTURE LIST*
G04 Aperture macros list*
%AMRoundRect*
0 Rectangle with rounded corners*
0 $1 Rounding radius*
0 $2 $3 $4 $5 $6 $7 $8 $9 X,Y pos of 4 corners*
0 Add a 4 corners polygon primitive as box body*
4,1,4,$2,$3,$4,$5,$6,$7,$8,$9,$2,$3,0*
0 Add four circle primitives for the rounded corners*
1,1,$1+$1,$2,$3*
1,1,$1+$1,$4,$5*
1,1,$1+$1,$6,$7*
1,1,$1+$1,$8,$9*
0 Add four rect primitives between the rounded corners*
20,1,$1+$1,$2,$3,$4,$5,0*
20,1,$1+$1,$4,$5,$6,$7,0*
20,1,$1+$1,$6,$7,$8,$9,0*
20,1,$1+$1,$8,$9,$2,$3,0*%
G04 Aperture macros list end*
%ADD10R,1.700000X1.700000*%
%ADD11C,1.700000*%
%ADD12RoundRect,0.102000X-0.790000X-0.790000X0.790000X-0.790000X0.790000X0.790000X-0.790000X0.790000X0*%
%ADD13C,1.784000*%
%ADD14RoundRect,0.250000X0.450000X-0.350000X0.450000X0.350000X-0.450000X0.350000X-0.450000X-0.350000X0*%
%ADD15RoundRect,0.250000X-0.450000X0.350000X-0.450000X-0.350000X0.450000X-0.350000X0.450000X0.350000X0*%
G04 APERTURE END LIST*
D10*
%TO.C,J2*%
X154940000Y-156210000D03*
D11*
X154940000Y-158750000D03*
X154940000Y-161290000D03*
X154940000Y-163830000D03*
X154940000Y-166370000D03*
X154940000Y-168910000D03*
X157480000Y-156210000D03*
X157480000Y-158750000D03*
X157480000Y-161290000D03*
X157480000Y-163830000D03*
X157480000Y-166370000D03*
X157480000Y-168910000D03*
%TD*%
D12*
%TO.C,SW1*%
X122174000Y-170688000D03*
D13*
X124714000Y-170688000D03*
X127254000Y-170688000D03*
X129794000Y-170688000D03*
X132334000Y-170688000D03*
X134874000Y-170688000D03*
X137414000Y-170688000D03*
X139954000Y-170688000D03*
X139954000Y-163068000D03*
X137414000Y-163068000D03*
X134874000Y-163068000D03*
X132334000Y-163068000D03*
X129794000Y-163068000D03*
X127254000Y-163068000D03*
X124714000Y-163068000D03*
X122174000Y-163068000D03*
%TD*%
D10*
%TO.C,J1*%
X107950000Y-156210000D03*
D11*
X107950000Y-158750000D03*
X107950000Y-161290000D03*
X107950000Y-163830000D03*
X107950000Y-166370000D03*
X107950000Y-168910000D03*
X105410000Y-156210000D03*
X105410000Y-158750000D03*
X105410000Y-161290000D03*
X105410000Y-163830000D03*
X105410000Y-166370000D03*
X105410000Y-168910000D03*
%TD*%
D14*
%TO.C,R25*%
X140716000Y-157464000D03*
X140716000Y-155464000D03*
%TD*%
D15*
%TO.C,R11*%
X119380000Y-155464000D03*
X119380000Y-157464000D03*
%TD*%
D14*
%TO.C,R5*%
X132588000Y-157464000D03*
X132588000Y-155464000D03*
%TD*%
D15*
%TO.C,R21*%
X123444000Y-155448000D03*
X123444000Y-157448000D03*
%TD*%
%TO.C,R16*%
X121412000Y-155464000D03*
X121412000Y-157464000D03*
%TD*%
%TO.C,R6*%
X117348000Y-155464000D03*
X117348000Y-157464000D03*
%TD*%
D14*
%TO.C,R15*%
X136652000Y-157464000D03*
X136652000Y-155464000D03*
%TD*%
%TO.C,R10*%
X134620000Y-157464000D03*
X134620000Y-155464000D03*
%TD*%
%TO.C,R20*%
X138684000Y-157464000D03*
X138684000Y-155464000D03*
%TD*%
%TO.C,R40*%
X146812000Y-157480000D03*
X146812000Y-155480000D03*
%TD*%
D15*
%TO.C,R26*%
X125476000Y-155464000D03*
X125476000Y-157464000D03*
%TD*%
%TO.C,R31*%
X127508000Y-155480000D03*
X127508000Y-157480000D03*
%TD*%
%TO.C,R1*%
X115316000Y-155464000D03*
X115316000Y-157464000D03*
%TD*%
D14*
%TO.C,R35*%
X144780000Y-157464000D03*
X144780000Y-155464000D03*
%TD*%
D15*
%TO.C,R36*%
X129540000Y-155464000D03*
X129540000Y-157464000D03*
%TD*%
D14*
%TO.C,R30*%
X142748000Y-157464000D03*
X142748000Y-155464000D03*
%TD*%
M02*
