%TF.GenerationSoftware,KiCad,Pcbnew,9.0.6-9.0.6~ubuntu24.04.1*%
%TF.CreationDate,2026-01-17T20:35:02-03:00*%
%TF.ProjectId,cotti_level_shifter,636f7474-695f-46c6-9576-656c5f736869,0.0*%
%TF.SameCoordinates,Original*%
%TF.FileFunction,Copper,L1,Top*%
%TF.FilePolarity,Positive*%
%FSLAX46Y46*%
G04 Gerber Fmt 4.6, Leading zero omitted, Abs format (unit mm)*
G04 Created by KiCad (PCBNEW 9.0.6-9.0.6~ubuntu24.04.1) date 2026-01-17 20:35:02*
%MOMM*%
%LPD*%
G01*
G04 APERTURE LIST*
G04 Aperture macros list*
%AMRoundRect*
0 Rectangle with rounded corners*
0 $1 Rounding radius*
0 $2 $3 $4 $5 $6 $7 $8 $9 X,Y pos of 4 corners*
0 Add a 4 corners polygon primitive as box body*
4,1,4,$2,$3,$4,$5,$6,$7,$8,$9,$2,$3,0*
0 Add four circle primitives for the rounded corners*
1,1,$1+$1,$2,$3*
1,1,$1+$1,$4,$5*
1,1,$1+$1,$6,$7*
1,1,$1+$1,$8,$9*
0 Add four rect primitives between the rounded corners*
20,1,$1+$1,$2,$3,$4,$5,0*
20,1,$1+$1,$4,$5,$6,$7,0*
20,1,$1+$1,$6,$7,$8,$9,0*
20,1,$1+$1,$8,$9,$2,$3,0*%
G04 Aperture macros list end*
%TA.AperFunction,ComponentPad*%
%ADD10R,1.700000X1.700000*%
%TD*%
%TA.AperFunction,ComponentPad*%
%ADD11C,1.700000*%
%TD*%
%TA.AperFunction,ComponentPad*%
%ADD12R,1.580000X1.580000*%
%TD*%
%TA.AperFunction,ComponentPad*%
%ADD13C,1.580000*%
%TD*%
%TA.AperFunction,SMDPad,CuDef*%
%ADD14RoundRect,0.250000X0.450000X-0.350000X0.450000X0.350000X-0.450000X0.350000X-0.450000X-0.350000X0*%
%TD*%
%TA.AperFunction,SMDPad,CuDef*%
%ADD15RoundRect,0.250000X-0.450000X0.350000X-0.450000X-0.350000X0.450000X-0.350000X0.450000X0.350000X0*%
%TD*%
%TA.AperFunction,ViaPad*%
%ADD16C,0.600000*%
%TD*%
%TA.AperFunction,Conductor*%
%ADD17C,0.200000*%
%TD*%
%TA.AperFunction,Conductor*%
%ADD18C,0.300000*%
%TD*%
G04 APERTURE END LIST*
D10*
%TO.P,J2,1,IO1*%
%TO.N,/b1*%
X154940000Y-156210000D03*
D11*
%TO.P,J2,2,IO2/PWM*%
%TO.N,/b2*%
X154940000Y-158750000D03*
%TO.P,J2,3,IO3*%
%TO.N,/b3*%
X154940000Y-161290000D03*
%TO.P,J2,4,IO4*%
%TO.N,/b4*%
X154940000Y-163830000D03*
%TO.P,J2,5,GND*%
%TO.N,GND*%
X154940000Y-166370000D03*
%TO.P,J2,6,VCC*%
%TO.N,VCCB*%
X154940000Y-168910000D03*
%TO.P,J2,7,IO5*%
%TO.N,/b5*%
X157480000Y-156210000D03*
%TO.P,J2,8,IO6/PWM*%
%TO.N,/b6*%
X157480000Y-158750000D03*
%TO.P,J2,9,IO7*%
%TO.N,/b7*%
X157480000Y-161290000D03*
%TO.P,J2,10,IO8*%
%TO.N,/b8*%
X157480000Y-163830000D03*
%TO.P,J2,11,GND*%
%TO.N,GND*%
X157480000Y-166370000D03*
%TO.P,J2,12,VCC*%
%TO.N,VCCB*%
X157480000Y-168910000D03*
%TD*%
D12*
%TO.P,SW1,1*%
%TO.N,/dir1*%
X122174000Y-170688000D03*
D13*
%TO.P,SW1,2*%
%TO.N,/dir2*%
X124714000Y-170688000D03*
%TO.P,SW1,3*%
%TO.N,/dir3*%
X127254000Y-170688000D03*
%TO.P,SW1,4*%
%TO.N,/dir4*%
X129794000Y-170688000D03*
%TO.P,SW1,5*%
%TO.N,/dir5*%
X132334000Y-170688000D03*
%TO.P,SW1,6*%
%TO.N,/dir6*%
X134874000Y-170688000D03*
%TO.P,SW1,7*%
%TO.N,/dir7*%
X137414000Y-170688000D03*
%TO.P,SW1,8*%
%TO.N,/dir8*%
X139954000Y-170688000D03*
%TO.P,SW1,9*%
%TO.N,GND*%
X139954000Y-163068000D03*
%TO.P,SW1,10*%
X137414000Y-163068000D03*
%TO.P,SW1,11*%
X134874000Y-163068000D03*
%TO.P,SW1,12*%
X132334000Y-163068000D03*
%TO.P,SW1,13*%
X129794000Y-163068000D03*
%TO.P,SW1,14*%
X127254000Y-163068000D03*
%TO.P,SW1,15*%
X124714000Y-163068000D03*
%TO.P,SW1,16*%
X122174000Y-163068000D03*
%TD*%
D10*
%TO.P,J1,1,IO1*%
%TO.N,/a1*%
X107950000Y-156210000D03*
D11*
%TO.P,J1,2,IO2/PWM*%
%TO.N,/a2*%
X107950000Y-158750000D03*
%TO.P,J1,3,IO3*%
%TO.N,/a3*%
X107950000Y-161290000D03*
%TO.P,J1,4,IO4*%
%TO.N,/a4*%
X107950000Y-163830000D03*
%TO.P,J1,5,GND*%
%TO.N,GND*%
X107950000Y-166370000D03*
%TO.P,J1,6,VCC*%
%TO.N,VCCA*%
X107950000Y-168910000D03*
%TO.P,J1,7,IO5*%
%TO.N,/a5*%
X105410000Y-156210000D03*
%TO.P,J1,8,IO6/PWM*%
%TO.N,/a6*%
X105410000Y-158750000D03*
%TO.P,J1,9,IO7*%
%TO.N,/a7*%
X105410000Y-161290000D03*
%TO.P,J1,10,IO8*%
%TO.N,/a8*%
X105410000Y-163830000D03*
%TO.P,J1,11,GND*%
%TO.N,GND*%
X105410000Y-166370000D03*
%TO.P,J1,12,VCC*%
%TO.N,VCCA*%
X105410000Y-168910000D03*
%TD*%
D14*
%TO.P,R25,1*%
%TO.N,/b5*%
X140716000Y-157464000D03*
%TO.P,R25,2*%
%TO.N,GND*%
X140716000Y-155464000D03*
%TD*%
D15*
%TO.P,R11,1*%
%TO.N,VCCA*%
X119380000Y-155464000D03*
%TO.P,R11,2*%
%TO.N,/a3*%
X119380000Y-157464000D03*
%TD*%
D14*
%TO.P,R5,1*%
%TO.N,/b1*%
X132588000Y-157464000D03*
%TO.P,R5,2*%
%TO.N,GND*%
X132588000Y-155464000D03*
%TD*%
D15*
%TO.P,R21,1*%
%TO.N,VCCA*%
X123444000Y-155448000D03*
%TO.P,R21,2*%
%TO.N,/a5*%
X123444000Y-157448000D03*
%TD*%
%TO.P,R16,1*%
%TO.N,VCCA*%
X121412000Y-155464000D03*
%TO.P,R16,2*%
%TO.N,/a4*%
X121412000Y-157464000D03*
%TD*%
%TO.P,R6,1*%
%TO.N,VCCA*%
X117348000Y-155464000D03*
%TO.P,R6,2*%
%TO.N,/a2*%
X117348000Y-157464000D03*
%TD*%
D14*
%TO.P,R15,1*%
%TO.N,/b3*%
X136652000Y-157464000D03*
%TO.P,R15,2*%
%TO.N,GND*%
X136652000Y-155464000D03*
%TD*%
%TO.P,R10,1*%
%TO.N,/b2*%
X134620000Y-157464000D03*
%TO.P,R10,2*%
%TO.N,GND*%
X134620000Y-155464000D03*
%TD*%
%TO.P,R20,1*%
%TO.N,/b4*%
X138684000Y-157464000D03*
%TO.P,R20,2*%
%TO.N,GND*%
X138684000Y-155464000D03*
%TD*%
%TO.P,R40,1*%
%TO.N,/b8*%
X146812000Y-157480000D03*
%TO.P,R40,2*%
%TO.N,GND*%
X146812000Y-155480000D03*
%TD*%
D15*
%TO.P,R26,1*%
%TO.N,VCCA*%
X125476000Y-155464000D03*
%TO.P,R26,2*%
%TO.N,/a6*%
X125476000Y-157464000D03*
%TD*%
%TO.P,R31,1*%
%TO.N,VCCA*%
X127508000Y-155480000D03*
%TO.P,R31,2*%
%TO.N,/a7*%
X127508000Y-157480000D03*
%TD*%
%TO.P,R1,1*%
%TO.N,VCCA*%
X115316000Y-155464000D03*
%TO.P,R1,2*%
%TO.N,/a1*%
X115316000Y-157464000D03*
%TD*%
D14*
%TO.P,R35,1*%
%TO.N,/b7*%
X144780000Y-157464000D03*
%TO.P,R35,2*%
%TO.N,GND*%
X144780000Y-155464000D03*
%TD*%
D15*
%TO.P,R36,1*%
%TO.N,VCCA*%
X129540000Y-155464000D03*
%TO.P,R36,2*%
%TO.N,/a8*%
X129540000Y-157464000D03*
%TD*%
D14*
%TO.P,R30,1*%
%TO.N,/b6*%
X142748000Y-157464000D03*
%TO.P,R30,2*%
%TO.N,GND*%
X142748000Y-155464000D03*
%TD*%
D16*
%TO.N,GND*%
X153162000Y-167894000D03*
X159004000Y-166624000D03*
X111455200Y-163041000D03*
X151638000Y-163160000D03*
X108585000Y-154559000D03*
X150977600Y-158343600D03*
X122936000Y-161848800D03*
X142849600Y-156362400D03*
X115620800Y-163068000D03*
X118059200Y-163041000D03*
X134112000Y-164287200D03*
X134721600Y-156362400D03*
X132334000Y-156362400D03*
X109601000Y-163068000D03*
X143916400Y-163169600D03*
X125577600Y-161848800D03*
X136652000Y-156311600D03*
X124460000Y-156514800D03*
X148478000Y-163160000D03*
X110490000Y-154940000D03*
X110998000Y-157480000D03*
X125476000Y-164338000D03*
X113893600Y-163068000D03*
X153060400Y-160070800D03*
%TO.N,VCCA*%
X120904000Y-167995600D03*
X145542000Y-167132000D03*
X128473200Y-166928800D03*
X125564427Y-166893538D03*
X160324800Y-167571000D03*
X115060800Y-156358042D03*
X136093200Y-166928800D03*
X113131600Y-168859200D03*
X122428000Y-155942285D03*
%TO.N,VCCB*%
X123494800Y-166116000D03*
X147828000Y-166116000D03*
X164033200Y-168960800D03*
X149675988Y-169090655D03*
X114655600Y-166471600D03*
X138633200Y-166116000D03*
%TO.N,/a2*%
X111252000Y-158800800D03*
%TO.N,/a4*%
X120142000Y-163830000D03*
X131318000Y-160528000D03*
X120172985Y-161184269D03*
X120177501Y-159763186D03*
%TO.N,/a8*%
X131064000Y-164719000D03*
X158877000Y-165100000D03*
X129541000Y-156564000D03*
%TO.N,/a3*%
X119380000Y-159826400D03*
X118110000Y-153740000D03*
X119176800Y-161290000D03*
X109728000Y-153924000D03*
%TO.N,/a6*%
X143103600Y-159654800D03*
X124627252Y-157956072D03*
X124460000Y-159928000D03*
%TO.N,/a7*%
X128651000Y-161432800D03*
X128523635Y-156616100D03*
X160121600Y-158648400D03*
%TO.N,/a1*%
X111760000Y-156210000D03*
%TO.N,/a5*%
X116078000Y-153200000D03*
X145084800Y-153263600D03*
X118256487Y-156518333D03*
%TO.N,/b3*%
X131392180Y-161771911D03*
X138347260Y-161763000D03*
X136723999Y-158179506D03*
%TO.N,/b8*%
X166776400Y-163830000D03*
X159105600Y-157530800D03*
%TO.N,/b6*%
X156311600Y-155133600D03*
X150876000Y-156413200D03*
%TO.N,/b7*%
X145796000Y-162560000D03*
X166840000Y-161340800D03*
X145947116Y-158454800D03*
%TO.N,/b2*%
X133526745Y-156540281D03*
X132029200Y-158851600D03*
X122396591Y-159826400D03*
%TO.N,/b5*%
X141640000Y-156514800D03*
X141640000Y-154504000D03*
X152349200Y-154533600D03*
%TO.N,/b4*%
X139700000Y-156565600D03*
X141427200Y-163830000D03*
%TO.N,/b1*%
X154889200Y-153924000D03*
X131368800Y-157480000D03*
X119068000Y-154364000D03*
X131450165Y-154767365D03*
%TO.N,/dir6*%
X151841200Y-167944800D03*
%TO.N,/dir1*%
X119075200Y-170688000D03*
%TO.N,/dir2*%
X117348000Y-168960800D03*
%TO.N,/dir4*%
X139649200Y-160528000D03*
X133451600Y-169011600D03*
X133451600Y-160528000D03*
%TO.N,/dir5*%
X149961600Y-167802000D03*
%TO.N,/dir7*%
X165801600Y-168859200D03*
%TO.N,/dir8*%
X165100001Y-170937573D03*
%TD*%
D17*
%TO.N,/dir4*%
X133451600Y-160528000D02*
X133486600Y-160563000D01*
X133486600Y-160563000D02*
X139614200Y-160563000D01*
X139614200Y-160563000D02*
X139649200Y-160528000D01*
%TO.N,/a4*%
X131236400Y-160762000D02*
X124193100Y-160762000D01*
X131267200Y-160731200D02*
X131236400Y-160762000D01*
X131318000Y-160528000D02*
X131267200Y-160578800D01*
X131267200Y-160578800D02*
X131267200Y-160731200D01*
X120529854Y-160827400D02*
X120172985Y-161184269D01*
X124193100Y-160762000D02*
X124127700Y-160827400D01*
X124127700Y-160827400D02*
X120529854Y-160827400D01*
%TO.N,GND*%
X146796000Y-155464000D02*
X146812000Y-155480000D01*
X132588000Y-155464000D02*
X146796000Y-155464000D01*
D18*
%TO.N,VCCA*%
X128437938Y-166893538D02*
X125564427Y-166893538D01*
X122428000Y-155464000D02*
X122428000Y-155942285D01*
X154442529Y-167571000D02*
X153851129Y-166979600D01*
X122428000Y-155464000D02*
X129540000Y-155464000D01*
X160324800Y-167571000D02*
X154442529Y-167571000D01*
X112826800Y-168910000D02*
X107950000Y-168910000D01*
X105410000Y-168910000D02*
X107950000Y-168910000D01*
X136652000Y-167487600D02*
X136093200Y-166928800D01*
X114995884Y-156293126D02*
X114995884Y-155784116D01*
X113995200Y-167995600D02*
X120904000Y-167995600D01*
X145694400Y-166979600D02*
X145542000Y-167132000D01*
X112877600Y-168859200D02*
X112826800Y-168910000D01*
X114995884Y-155784116D02*
X115316000Y-155464000D01*
X128473200Y-166928800D02*
X136093200Y-166928800D01*
X115316000Y-155464000D02*
X122428000Y-155464000D01*
X113131600Y-168859200D02*
X112877600Y-168859200D01*
X153851129Y-166979600D02*
X145694400Y-166979600D01*
X113131600Y-168859200D02*
X113995200Y-167995600D01*
X115060800Y-156358042D02*
X114995884Y-156293126D01*
X145186400Y-167487600D02*
X136652000Y-167487600D01*
X145542000Y-167132000D02*
X145186400Y-167487600D01*
X128473200Y-166928800D02*
X128437938Y-166893538D01*
%TO.N,VCCB*%
X163982400Y-168910000D02*
X164033200Y-168960800D01*
X149984007Y-169090655D02*
X149991731Y-169082931D01*
X149675988Y-169090655D02*
X149984007Y-169090655D01*
X115011200Y-166116000D02*
X147828000Y-166116000D01*
X157480000Y-168910000D02*
X154940000Y-168910000D01*
X154767069Y-169082931D02*
X154940000Y-168910000D01*
X157480000Y-168910000D02*
X163982400Y-168910000D01*
X114655600Y-166471600D02*
X115011200Y-166116000D01*
X149991731Y-169082931D02*
X154767069Y-169082931D01*
D17*
%TO.N,/a2*%
X117348000Y-157886400D02*
X117348000Y-157464000D01*
X107950000Y-158750000D02*
X116484400Y-158750000D01*
X116484400Y-158750000D02*
X117348000Y-157886400D01*
%TO.N,/a4*%
X120253000Y-158623000D02*
X121412000Y-157464000D01*
X120177501Y-159763186D02*
X120253000Y-159687687D01*
X107950000Y-163830000D02*
X120142000Y-163830000D01*
X120253000Y-159687687D02*
X120253000Y-158623000D01*
%TO.N,/a8*%
X129541000Y-156564000D02*
X129540000Y-156565000D01*
X155424760Y-164973000D02*
X156995240Y-164973000D01*
X130675000Y-164981000D02*
X130937000Y-164719000D01*
X130675000Y-164981000D02*
X106561000Y-164981000D01*
X158758000Y-164981000D02*
X158877000Y-165100000D01*
X130937000Y-164719000D02*
X131064000Y-164719000D01*
X131453000Y-164981000D02*
X155416760Y-164981000D01*
X156995240Y-164973000D02*
X157003240Y-164981000D01*
X157003240Y-164981000D02*
X158758000Y-164981000D01*
X131064000Y-164719000D02*
X131191000Y-164719000D01*
X106561000Y-164981000D02*
X105410000Y-163830000D01*
X129540000Y-156565000D02*
X129540000Y-157464000D01*
X131191000Y-164719000D02*
X131453000Y-164981000D01*
X155416760Y-164981000D02*
X155424760Y-164973000D01*
%TO.N,/a3*%
X118049000Y-153801000D02*
X109851000Y-153801000D01*
X107950000Y-161290000D02*
X119176800Y-161290000D01*
X119380000Y-159826400D02*
X119380000Y-157464000D01*
X109851000Y-153801000D02*
X109728000Y-153924000D01*
X118110000Y-153740000D02*
X118049000Y-153801000D01*
%TO.N,/a6*%
X142830400Y-159928000D02*
X124460000Y-159928000D01*
X125119324Y-157464000D02*
X125476000Y-157464000D01*
X124627252Y-157956072D02*
X125119324Y-157464000D01*
X108714160Y-160426400D02*
X123961600Y-160426400D01*
X105410000Y-158750000D02*
X105714800Y-158750000D01*
X107035600Y-160070800D02*
X108358560Y-160070800D01*
X143103600Y-159654800D02*
X142830400Y-159928000D01*
X108358560Y-160070800D02*
X108714160Y-160426400D01*
X123961600Y-160426400D02*
X124460000Y-159928000D01*
X105714800Y-158750000D02*
X107035600Y-160070800D01*
%TO.N,/a7*%
X154429840Y-159918400D02*
X158851600Y-159918400D01*
X153185240Y-161163000D02*
X154429840Y-159918400D01*
X128473200Y-161442400D02*
X128270000Y-161239200D01*
X128955800Y-161163000D02*
X153185240Y-161163000D01*
X128523635Y-156616100D02*
X128371900Y-156616100D01*
X128651000Y-161432800D02*
X128641400Y-161442400D01*
X120565800Y-162441000D02*
X106561000Y-162441000D01*
X128371900Y-156616100D02*
X127508000Y-157480000D01*
X128641400Y-161442400D02*
X128473200Y-161442400D01*
X128651000Y-161432800D02*
X128686000Y-161432800D01*
X121767600Y-161239200D02*
X120565800Y-162441000D01*
X106561000Y-162441000D02*
X105410000Y-161290000D01*
X128270000Y-161239200D02*
X121767600Y-161239200D01*
X158851600Y-159918400D02*
X160121600Y-158648400D01*
X128686000Y-161432800D02*
X128955800Y-161163000D01*
%TO.N,/a1*%
X107950000Y-156210000D02*
X111760000Y-156210000D01*
X111760000Y-156210000D02*
X113014000Y-157464000D01*
X113014000Y-157464000D02*
X115316000Y-157464000D01*
%TO.N,/a5*%
X108619000Y-153001000D02*
X105410000Y-156210000D01*
X116078000Y-153200000D02*
X115879000Y-153001000D01*
X118280439Y-156542285D02*
X118256487Y-156518333D01*
X116268400Y-153009600D02*
X119879400Y-153009600D01*
X120321283Y-156542285D02*
X123268285Y-156542285D01*
X119879400Y-153009600D02*
X119888000Y-153001000D01*
X123444000Y-156718000D02*
X123444000Y-157448000D01*
X123268285Y-156542285D02*
X123444000Y-156718000D01*
X144019800Y-153001000D02*
X144282400Y-153263600D01*
X119888000Y-153001000D02*
X144019800Y-153001000D01*
X144282400Y-153263600D02*
X145084800Y-153263600D01*
X120321283Y-156542285D02*
X118280439Y-156542285D01*
X116078000Y-153200000D02*
X116268400Y-153009600D01*
X115879000Y-153001000D02*
X108619000Y-153001000D01*
%TO.N,/b3*%
X136652000Y-158107507D02*
X136652000Y-157464000D01*
X136723999Y-158179506D02*
X136652000Y-158107507D01*
X131597091Y-161567000D02*
X138531600Y-161567000D01*
X138531600Y-161578660D02*
X138531600Y-161567000D01*
X138531600Y-161567000D02*
X154663000Y-161567000D01*
X138347260Y-161763000D02*
X138531600Y-161578660D01*
X154663000Y-161567000D02*
X154940000Y-161290000D01*
X131392180Y-161771911D02*
X131597091Y-161567000D01*
%TO.N,/b8*%
X159105600Y-157530800D02*
X146862800Y-157530800D01*
X146862800Y-157530800D02*
X146812000Y-157480000D01*
X166776400Y-163830000D02*
X157480000Y-163830000D01*
%TO.N,/b6*%
X142748000Y-157464000D02*
X143798800Y-156413200D01*
X156237000Y-155059000D02*
X156311600Y-155133600D01*
X151319543Y-156413200D02*
X152673743Y-155059000D01*
X150876000Y-156413200D02*
X151319543Y-156413200D01*
X152673743Y-155059000D02*
X156237000Y-155059000D01*
X143798800Y-156413200D02*
X150876000Y-156413200D01*
%TO.N,/b7*%
X157480000Y-161290000D02*
X156210000Y-162560000D01*
X156210000Y-162560000D02*
X145796000Y-162560000D01*
X145770800Y-158454800D02*
X144780000Y-157464000D01*
X166789200Y-161290000D02*
X166840000Y-161340800D01*
X145947116Y-158454800D02*
X145770800Y-158454800D01*
X157480000Y-161290000D02*
X166789200Y-161290000D01*
%TO.N,/b2*%
X122377200Y-159224000D02*
X131656800Y-159224000D01*
X131656800Y-159224000D02*
X132029200Y-158851600D01*
X132232400Y-159054800D02*
X132029200Y-158851600D01*
X154635200Y-159054800D02*
X132232400Y-159054800D01*
X122396591Y-159243391D02*
X122377200Y-159224000D01*
X133526745Y-156540281D02*
X133696281Y-156540281D01*
X133696281Y-156540281D02*
X134620000Y-157464000D01*
X154940000Y-158750000D02*
X154635200Y-159054800D01*
X122396591Y-159826400D02*
X122396591Y-159243391D01*
%TO.N,/b5*%
X141640000Y-156540000D02*
X140716000Y-157464000D01*
X157480000Y-156210000D02*
X157480000Y-154838400D01*
X141640000Y-156514800D02*
X141640000Y-156540000D01*
X157175200Y-154533600D02*
X141669600Y-154533600D01*
X141669600Y-154533600D02*
X141640000Y-154504000D01*
X157480000Y-154838400D02*
X157175200Y-154533600D01*
%TO.N,/b4*%
X154940000Y-163830000D02*
X141630400Y-163830000D01*
X141630400Y-163830000D02*
X141427200Y-163830000D01*
X139700000Y-156565600D02*
X139582400Y-156565600D01*
X139582400Y-156565600D02*
X138684000Y-157464000D01*
%TO.N,/b1*%
X120516943Y-154395251D02*
X119099251Y-154395251D01*
X132572000Y-157480000D02*
X132588000Y-157464000D01*
X131622800Y-154594730D02*
X131450165Y-154767365D01*
X121008194Y-153904000D02*
X120516943Y-154395251D01*
X154838400Y-153924000D02*
X154818400Y-153904000D01*
X131622800Y-153904000D02*
X131622800Y-154594730D01*
X154889200Y-153924000D02*
X154838400Y-153924000D01*
X119099251Y-154395251D02*
X119068000Y-154364000D01*
X154818400Y-153904000D02*
X131622800Y-153904000D01*
X131622800Y-153904000D02*
X121008194Y-153904000D01*
X131368800Y-157480000D02*
X132572000Y-157480000D01*
%TO.N,/dir6*%
X137007600Y-168554400D02*
X134874000Y-170688000D01*
X149406857Y-168554400D02*
X137007600Y-168554400D01*
X151841200Y-168148000D02*
X151587200Y-168402000D01*
X151841200Y-167944800D02*
X151841200Y-168148000D01*
X151587200Y-168402000D02*
X149559257Y-168402000D01*
X149559257Y-168402000D02*
X149406857Y-168554400D01*
%TO.N,/dir1*%
X122174000Y-170688000D02*
X119075200Y-170688000D01*
%TO.N,/dir2*%
X122682000Y-168656000D02*
X124714000Y-170688000D01*
X117652800Y-168656000D02*
X122682000Y-168656000D01*
X117348000Y-168960800D02*
X117652800Y-168656000D01*
%TO.N,/dir4*%
X130098800Y-169062400D02*
X130149600Y-169011600D01*
X129794000Y-169367200D02*
X130098800Y-169062400D01*
X129794000Y-170688000D02*
X129794000Y-169367200D01*
X130149600Y-169011600D02*
X133451600Y-169011600D01*
%TO.N,/dir5*%
X132916951Y-170688000D02*
X132334000Y-170688000D01*
X149296957Y-168097200D02*
X135507751Y-168097200D01*
X149909800Y-167750200D02*
X149643957Y-167750200D01*
X149961600Y-167802000D02*
X149909800Y-167750200D01*
X149643957Y-167750200D02*
X149296957Y-168097200D01*
X135507751Y-168097200D02*
X132916951Y-170688000D01*
%TO.N,/dir7*%
X140410049Y-169187000D02*
X141055000Y-169831951D01*
X138853000Y-170078400D02*
X138853000Y-169831951D01*
X141055000Y-170078400D02*
X165303200Y-170078400D01*
X137414000Y-170688000D02*
X138023600Y-170078400D01*
X141055000Y-169831951D02*
X141055000Y-170078400D01*
X165303200Y-170078400D02*
X165811200Y-169570400D01*
X138023600Y-170078400D02*
X138853000Y-170078400D01*
X165811200Y-168868800D02*
X165801600Y-168859200D01*
X138853000Y-169831951D02*
X139497951Y-169187000D01*
X165811200Y-169570400D02*
X165811200Y-168868800D01*
X139497951Y-169187000D02*
X140410049Y-169187000D01*
%TO.N,/dir8*%
X165100001Y-170937573D02*
X165100001Y-170891201D01*
X165100001Y-170891201D02*
X164896800Y-170688000D01*
X164896800Y-170688000D02*
X139954000Y-170688000D01*
%TD*%
%TA.AperFunction,Conductor*%
%TO.N,GND*%
G36*
X108113712Y-152919407D02*
G01*
X108149676Y-152968907D01*
X108149676Y-153030093D01*
X108125525Y-153069504D01*
X105960291Y-155234736D01*
X105905774Y-155262513D01*
X105852402Y-155256196D01*
X105716420Y-155199870D01*
X105716418Y-155199869D01*
X105513467Y-155159500D01*
X105513465Y-155159500D01*
X105306535Y-155159500D01*
X105306532Y-155159500D01*
X105103581Y-155199869D01*
X104912402Y-155279058D01*
X104740348Y-155394020D01*
X104594020Y-155540348D01*
X104479058Y-155712402D01*
X104399869Y-155903581D01*
X104359500Y-156106532D01*
X104359500Y-156313467D01*
X104399869Y-156516418D01*
X104479058Y-156707597D01*
X104593981Y-156879592D01*
X104594023Y-156879655D01*
X104740345Y-157025977D01*
X104912402Y-157140941D01*
X105103580Y-157220130D01*
X105306535Y-157260500D01*
X105306536Y-157260500D01*
X105513464Y-157260500D01*
X105513465Y-157260500D01*
X105716420Y-157220130D01*
X105907598Y-157140941D01*
X106079655Y-157025977D01*
X106225977Y-156879655D01*
X106340941Y-156707598D01*
X106420130Y-156516420D01*
X106460500Y-156313465D01*
X106460500Y-156106535D01*
X106420130Y-155903580D01*
X106363802Y-155767595D01*
X106359002Y-155706599D01*
X106385264Y-155659706D01*
X106730497Y-155314474D01*
X106785013Y-155286697D01*
X106845445Y-155296268D01*
X106888710Y-155339533D01*
X106899500Y-155384478D01*
X106899500Y-157079746D01*
X106899501Y-157079758D01*
X106911132Y-157138227D01*
X106911134Y-157138233D01*
X106955445Y-157204548D01*
X106955448Y-157204552D01*
X107021769Y-157248867D01*
X107066231Y-157257711D01*
X107080241Y-157260498D01*
X107080246Y-157260498D01*
X107080252Y-157260500D01*
X107080253Y-157260500D01*
X108819747Y-157260500D01*
X108819748Y-157260500D01*
X108878231Y-157248867D01*
X108944552Y-157204552D01*
X108988867Y-157138231D01*
X109000500Y-157079748D01*
X109000500Y-156609500D01*
X109019407Y-156551309D01*
X109068907Y-156515345D01*
X109099500Y-156510500D01*
X111311679Y-156510500D01*
X111369870Y-156529407D01*
X111381676Y-156539490D01*
X111452686Y-156610500D01*
X111452688Y-156610501D01*
X111452690Y-156610503D01*
X111566810Y-156676390D01*
X111566808Y-156676390D01*
X111566812Y-156676391D01*
X111566814Y-156676392D01*
X111694108Y-156710500D01*
X111694110Y-156710500D01*
X111794521Y-156710500D01*
X111852712Y-156729407D01*
X111864525Y-156739496D01*
X112773540Y-157648511D01*
X112773539Y-157648511D01*
X112829489Y-157704460D01*
X112898007Y-157744019D01*
X112898011Y-157744021D01*
X112974435Y-157764499D01*
X112974437Y-157764500D01*
X112974438Y-157764500D01*
X114316500Y-157764500D01*
X114374691Y-157783407D01*
X114410655Y-157832907D01*
X114415500Y-157863500D01*
X114415500Y-157868274D01*
X114418353Y-157898694D01*
X114418355Y-157898703D01*
X114463207Y-158026883D01*
X114543845Y-158136144D01*
X114543847Y-158136146D01*
X114543850Y-158136150D01*
X114543853Y-158136152D01*
X114543855Y-158136154D01*
X114653116Y-158216792D01*
X114653117Y-158216792D01*
X114653118Y-158216793D01*
X114695003Y-158231449D01*
X114768182Y-158257056D01*
X114816862Y-158294121D01*
X114834459Y-158352722D01*
X114814251Y-158410473D01*
X114763956Y-158445317D01*
X114735484Y-158449500D01*
X111649521Y-158449500D01*
X111591330Y-158430593D01*
X111579523Y-158420509D01*
X111559314Y-158400300D01*
X111559311Y-158400298D01*
X111559309Y-158400296D01*
X111445189Y-158334409D01*
X111445191Y-158334409D01*
X111391067Y-158319907D01*
X111317892Y-158300300D01*
X111186108Y-158300300D01*
X111112933Y-158319907D01*
X111058809Y-158334409D01*
X110944690Y-158400296D01*
X110944689Y-158400297D01*
X110944686Y-158400299D01*
X110944686Y-158400300D01*
X110924480Y-158420505D01*
X110869966Y-158448281D01*
X110854479Y-158449500D01*
X109028732Y-158449500D01*
X108970541Y-158430593D01*
X108937268Y-158388386D01*
X108880941Y-158252402D01*
X108765979Y-158080348D01*
X108765977Y-158080345D01*
X108619655Y-157934023D01*
X108619651Y-157934020D01*
X108447597Y-157819058D01*
X108256418Y-157739869D01*
X108053467Y-157699500D01*
X108053465Y-157699500D01*
X107846535Y-157699500D01*
X107846532Y-157699500D01*
X107643581Y-157739869D01*
X107452402Y-157819058D01*
X107280348Y-157934020D01*
X107134020Y-158080348D01*
X107019058Y-158252402D01*
X106939869Y-158443581D01*
X106899500Y-158646532D01*
X106899500Y-158853467D01*
X106939869Y-159056418D01*
X107019058Y-159247597D01*
X107128338Y-159411147D01*
X107134023Y-159419655D01*
X107280345Y-159565977D01*
X107314665Y-159588909D01*
X107314778Y-159588984D01*
X107352658Y-159637034D01*
X107355060Y-159698172D01*
X107321068Y-159749046D01*
X107263665Y-159770224D01*
X107259777Y-159770300D01*
X107201079Y-159770300D01*
X107142888Y-159751393D01*
X107131075Y-159741304D01*
X106461870Y-159072099D01*
X106434093Y-159017582D01*
X106434775Y-158982786D01*
X106460500Y-158853465D01*
X106460500Y-158646535D01*
X106420130Y-158443580D01*
X106340941Y-158252402D01*
X106225977Y-158080345D01*
X106079655Y-157934023D01*
X106079651Y-157934020D01*
X105907597Y-157819058D01*
X105716418Y-157739869D01*
X105513467Y-157699500D01*
X105513465Y-157699500D01*
X105306535Y-157699500D01*
X105306532Y-157699500D01*
X105103581Y-157739869D01*
X104912402Y-157819058D01*
X104740348Y-157934020D01*
X104594020Y-158080348D01*
X104479058Y-158252402D01*
X104399869Y-158443581D01*
X104359500Y-158646532D01*
X104359500Y-158853467D01*
X104399869Y-159056418D01*
X104479058Y-159247597D01*
X104588338Y-159411147D01*
X104594023Y-159419655D01*
X104740345Y-159565977D01*
X104912402Y-159680941D01*
X105103580Y-159760130D01*
X105306535Y-159800500D01*
X105306536Y-159800500D01*
X105513464Y-159800500D01*
X105513465Y-159800500D01*
X105716420Y-159760130D01*
X105907598Y-159680941D01*
X106027777Y-159600640D01*
X106086663Y-159584032D01*
X106144067Y-159605209D01*
X106152781Y-159612952D01*
X106795140Y-160255311D01*
X106795139Y-160255311D01*
X106851089Y-160311260D01*
X106919607Y-160350819D01*
X106919611Y-160350821D01*
X106996035Y-160371299D01*
X106996037Y-160371300D01*
X106996038Y-160371300D01*
X107075162Y-160371300D01*
X107144061Y-160371300D01*
X107202252Y-160390207D01*
X107238216Y-160439707D01*
X107238216Y-160500893D01*
X107214066Y-160540301D01*
X107160478Y-160593890D01*
X107134020Y-160620348D01*
X107019058Y-160792402D01*
X106939869Y-160983581D01*
X106899500Y-161186532D01*
X106899500Y-161393467D01*
X106939869Y-161596418D01*
X107019058Y-161787597D01*
X107131705Y-161956186D01*
X107134023Y-161959655D01*
X107145866Y-161971498D01*
X107173642Y-162026013D01*
X107164071Y-162086445D01*
X107120806Y-162129710D01*
X107075861Y-162140500D01*
X106726479Y-162140500D01*
X106668288Y-162121593D01*
X106656475Y-162111504D01*
X106385263Y-161840292D01*
X106357486Y-161785775D01*
X106363802Y-161732405D01*
X106420130Y-161596420D01*
X106460500Y-161393465D01*
X106460500Y-161186535D01*
X106420130Y-160983580D01*
X106340941Y-160792402D01*
X106225977Y-160620345D01*
X106079655Y-160474023D01*
X106079651Y-160474020D01*
X105907597Y-160359058D01*
X105716418Y-160279869D01*
X105513467Y-160239500D01*
X105513465Y-160239500D01*
X105306535Y-160239500D01*
X105306532Y-160239500D01*
X105103581Y-160279869D01*
X104912402Y-160359058D01*
X104740348Y-160474020D01*
X104594020Y-160620348D01*
X104479058Y-160792402D01*
X104399869Y-160983581D01*
X104359500Y-161186532D01*
X104359500Y-161393467D01*
X104399869Y-161596418D01*
X104479058Y-161787597D01*
X104591705Y-161956186D01*
X104594023Y-161959655D01*
X104740345Y-162105977D01*
X104912402Y-162220941D01*
X105103580Y-162300130D01*
X105306535Y-162340500D01*
X105306536Y-162340500D01*
X105513464Y-162340500D01*
X105513465Y-162340500D01*
X105716420Y-162300130D01*
X105852405Y-162243802D01*
X105913399Y-162239002D01*
X105960292Y-162265263D01*
X106320540Y-162625511D01*
X106320539Y-162625511D01*
X106376489Y-162681460D01*
X106445007Y-162721019D01*
X106445011Y-162721021D01*
X106521435Y-162741499D01*
X106521437Y-162741500D01*
X107361846Y-162741500D01*
X107420037Y-162760407D01*
X107456001Y-162809907D01*
X107456001Y-162871093D01*
X107420037Y-162920593D01*
X107416847Y-162922816D01*
X107280348Y-163014020D01*
X107134020Y-163160348D01*
X107019058Y-163332402D01*
X106939869Y-163523581D01*
X106899500Y-163726532D01*
X106899500Y-163933467D01*
X106939869Y-164136418D01*
X107019058Y-164327597D01*
X107075244Y-164411686D01*
X107134023Y-164499655D01*
X107145866Y-164511498D01*
X107173642Y-164566013D01*
X107164071Y-164626445D01*
X107120806Y-164669710D01*
X107075861Y-164680500D01*
X106726479Y-164680500D01*
X106668288Y-164661593D01*
X106656475Y-164651504D01*
X106385263Y-164380292D01*
X106357486Y-164325775D01*
X106363802Y-164272405D01*
X106420130Y-164136420D01*
X106460500Y-163933465D01*
X106460500Y-163726535D01*
X106420130Y-163523580D01*
X106340941Y-163332402D01*
X106225977Y-163160345D01*
X106079655Y-163014023D01*
X106043841Y-162990093D01*
X105907597Y-162899058D01*
X105716418Y-162819869D01*
X105513467Y-162779500D01*
X105513465Y-162779500D01*
X105306535Y-162779500D01*
X105306532Y-162779500D01*
X105103581Y-162819869D01*
X104912402Y-162899058D01*
X104740348Y-163014020D01*
X104594020Y-163160348D01*
X104479058Y-163332402D01*
X104399869Y-163523581D01*
X104359500Y-163726532D01*
X104359500Y-163933467D01*
X104399869Y-164136418D01*
X104479058Y-164327597D01*
X104535244Y-164411686D01*
X104594023Y-164499655D01*
X104740345Y-164645977D01*
X104912402Y-164760941D01*
X105103580Y-164840130D01*
X105306535Y-164880500D01*
X105306536Y-164880500D01*
X105513464Y-164880500D01*
X105513465Y-164880500D01*
X105716420Y-164840130D01*
X105852405Y-164783802D01*
X105913399Y-164779002D01*
X105960292Y-164805263D01*
X106320540Y-165165511D01*
X106320539Y-165165511D01*
X106376489Y-165221460D01*
X106445007Y-165261019D01*
X106445011Y-165261021D01*
X106521435Y-165281499D01*
X106521437Y-165281500D01*
X107362745Y-165281500D01*
X107420936Y-165300407D01*
X107456900Y-165349907D01*
X107456900Y-165411093D01*
X107420936Y-165460593D01*
X107417746Y-165462816D01*
X107298961Y-165542183D01*
X107696047Y-165939269D01*
X107642993Y-165969901D01*
X107549901Y-166062993D01*
X107519269Y-166116047D01*
X107122183Y-165718961D01*
X107019501Y-165872638D01*
X106940349Y-166063727D01*
X106900000Y-166266581D01*
X106900000Y-166473418D01*
X106940349Y-166676272D01*
X107019501Y-166867361D01*
X107122183Y-167021037D01*
X107519269Y-166623950D01*
X107549901Y-166677007D01*
X107642993Y-166770099D01*
X107696046Y-166800729D01*
X107298961Y-167197815D01*
X107452638Y-167300498D01*
X107643727Y-167379650D01*
X107846581Y-167419999D01*
X107846586Y-167420000D01*
X108053414Y-167420000D01*
X108053418Y-167419999D01*
X108256272Y-167379650D01*
X108447360Y-167300498D01*
X108601037Y-167197815D01*
X108203952Y-166800730D01*
X108257007Y-166770099D01*
X108350099Y-166677007D01*
X108380730Y-166623952D01*
X108777815Y-167021037D01*
X108880498Y-166867360D01*
X108959650Y-166676272D01*
X108999999Y-166473418D01*
X109000000Y-166473413D01*
X109000000Y-166266586D01*
X108999999Y-166266581D01*
X108959650Y-166063727D01*
X108880498Y-165872638D01*
X108777815Y-165718961D01*
X108380729Y-166116046D01*
X108350099Y-166062993D01*
X108257007Y-165969901D01*
X108203950Y-165939269D01*
X108601037Y-165542183D01*
X108482254Y-165462816D01*
X108444374Y-165414766D01*
X108441972Y-165353628D01*
X108475964Y-165302754D01*
X108533368Y-165281576D01*
X108537255Y-165281500D01*
X130714563Y-165281500D01*
X130714563Y-165281499D01*
X130790989Y-165261021D01*
X130859511Y-165221460D01*
X130859511Y-165221459D01*
X130865131Y-165218215D01*
X130865926Y-165219592D01*
X130916199Y-165201778D01*
X130944426Y-165205116D01*
X130998108Y-165219500D01*
X130998111Y-165219500D01*
X131129893Y-165219500D01*
X131129893Y-165219499D01*
X131183565Y-165205118D01*
X131244666Y-165208319D01*
X131262740Y-165218440D01*
X131262870Y-165218216D01*
X131337007Y-165261019D01*
X131337011Y-165261021D01*
X131413435Y-165281499D01*
X131413437Y-165281500D01*
X154352745Y-165281500D01*
X154410936Y-165300407D01*
X154446900Y-165349907D01*
X154446900Y-165411093D01*
X154410936Y-165460593D01*
X154407746Y-165462816D01*
X154288961Y-165542183D01*
X154686047Y-165939269D01*
X154632993Y-165969901D01*
X154539901Y-166062993D01*
X154509270Y-166116046D01*
X154112184Y-165718961D01*
X154009501Y-165872638D01*
X153930349Y-166063727D01*
X153890000Y-166266581D01*
X153890000Y-166473420D01*
X153897433Y-166510787D01*
X153890241Y-166571548D01*
X153848708Y-166616478D01*
X153800335Y-166629100D01*
X148261721Y-166629100D01*
X148203530Y-166610193D01*
X148167566Y-166560693D01*
X148167566Y-166499507D01*
X148191715Y-166460098D01*
X148228500Y-166423314D01*
X148294392Y-166309186D01*
X148328500Y-166181892D01*
X148328500Y-166050108D01*
X148294392Y-165922814D01*
X148294390Y-165922811D01*
X148294390Y-165922809D01*
X148228503Y-165808690D01*
X148228501Y-165808688D01*
X148228500Y-165808686D01*
X148135314Y-165715500D01*
X148135311Y-165715498D01*
X148135309Y-165715496D01*
X148021189Y-165649609D01*
X148021191Y-165649609D01*
X147971799Y-165636375D01*
X147893892Y-165615500D01*
X147762108Y-165615500D01*
X147684200Y-165636375D01*
X147634809Y-165649609D01*
X147520690Y-165715496D01*
X147520689Y-165715497D01*
X147520686Y-165715499D01*
X147520686Y-165715500D01*
X147499680Y-165736505D01*
X147445166Y-165764281D01*
X147429679Y-165765500D01*
X139031521Y-165765500D01*
X138973330Y-165746593D01*
X138961523Y-165736509D01*
X138940514Y-165715500D01*
X138940511Y-165715498D01*
X138940509Y-165715496D01*
X138826389Y-165649609D01*
X138826391Y-165649609D01*
X138776999Y-165636375D01*
X138699092Y-165615500D01*
X138567308Y-165615500D01*
X138489400Y-165636375D01*
X138440009Y-165649609D01*
X138325890Y-165715496D01*
X138325889Y-165715497D01*
X138325886Y-165715499D01*
X138325886Y-165715500D01*
X138304880Y-165736505D01*
X138250366Y-165764281D01*
X138234879Y-165765500D01*
X123893121Y-165765500D01*
X123834930Y-165746593D01*
X123823123Y-165736509D01*
X123802114Y-165715500D01*
X123802111Y-165715498D01*
X123802109Y-165715496D01*
X123687989Y-165649609D01*
X123687991Y-165649609D01*
X123638599Y-165636375D01*
X123560692Y-165615500D01*
X123428908Y-165615500D01*
X123351000Y-165636375D01*
X123301609Y-165649609D01*
X123187490Y-165715496D01*
X123187489Y-165715497D01*
X123187486Y-165715499D01*
X123187486Y-165715500D01*
X123166480Y-165736505D01*
X123111966Y-165764281D01*
X123096479Y-165765500D01*
X114965056Y-165765500D01*
X114875912Y-165789386D01*
X114875911Y-165789386D01*
X114875909Y-165789387D01*
X114795989Y-165835529D01*
X114689414Y-165942104D01*
X114634898Y-165969881D01*
X114619411Y-165971100D01*
X114589708Y-165971100D01*
X114511800Y-165991975D01*
X114462409Y-166005209D01*
X114348290Y-166071096D01*
X114255096Y-166164290D01*
X114189209Y-166278409D01*
X114170139Y-166349578D01*
X114155100Y-166405708D01*
X114155100Y-166537492D01*
X114167131Y-166582392D01*
X114189209Y-166664790D01*
X114255096Y-166778909D01*
X114255098Y-166778911D01*
X114255100Y-166778914D01*
X114348286Y-166872100D01*
X114348288Y-166872101D01*
X114348290Y-166872103D01*
X114462410Y-166937990D01*
X114462408Y-166937990D01*
X114462412Y-166937991D01*
X114462414Y-166937992D01*
X114589708Y-166972100D01*
X114589710Y-166972100D01*
X114721490Y-166972100D01*
X114721492Y-166972100D01*
X114848786Y-166937992D01*
X114848788Y-166937990D01*
X114848790Y-166937990D01*
X114962909Y-166872103D01*
X114962909Y-166872102D01*
X114962914Y-166872100D01*
X115056100Y-166778914D01*
X115061189Y-166770099D01*
X115121990Y-166664790D01*
X115121990Y-166664788D01*
X115121992Y-166664786D01*
X115155461Y-166539874D01*
X115188784Y-166488563D01*
X115245905Y-166466636D01*
X115251087Y-166466500D01*
X123096479Y-166466500D01*
X123154670Y-166485407D01*
X123166476Y-166495490D01*
X123187486Y-166516500D01*
X123187488Y-166516501D01*
X123187490Y-166516503D01*
X123301610Y-166582390D01*
X123301608Y-166582390D01*
X123301612Y-166582391D01*
X123301614Y-166582392D01*
X123428908Y-166616500D01*
X123428910Y-166616500D01*
X123560690Y-166616500D01*
X123560692Y-166616500D01*
X123687986Y-166582392D01*
X123687988Y-166582390D01*
X123687990Y-166582390D01*
X123802109Y-166516503D01*
X123802109Y-166516502D01*
X123802114Y-166516500D01*
X123823119Y-166495494D01*
X123877634Y-166467719D01*
X123893121Y-166466500D01*
X125061576Y-166466500D01*
X125119767Y-166485407D01*
X125155731Y-166534907D01*
X125155731Y-166596093D01*
X125147313Y-166615000D01*
X125098035Y-166700350D01*
X125076986Y-166778909D01*
X125063927Y-166827646D01*
X125063927Y-166959430D01*
X125091872Y-167063723D01*
X125098036Y-167086728D01*
X125163923Y-167200847D01*
X125163925Y-167200849D01*
X125163927Y-167200852D01*
X125257113Y-167294038D01*
X125257115Y-167294039D01*
X125257117Y-167294041D01*
X125371237Y-167359928D01*
X125371235Y-167359928D01*
X125371239Y-167359929D01*
X125371241Y-167359930D01*
X125498535Y-167394038D01*
X125498537Y-167394038D01*
X125630317Y-167394038D01*
X125630319Y-167394038D01*
X125757613Y-167359930D01*
X125757615Y-167359928D01*
X125757617Y-167359928D01*
X125871736Y-167294041D01*
X125871736Y-167294040D01*
X125871741Y-167294038D01*
X125892746Y-167273032D01*
X125947261Y-167245257D01*
X125962748Y-167244038D01*
X128039616Y-167244038D01*
X128097807Y-167262945D01*
X128109619Y-167273034D01*
X128165885Y-167329299D01*
X128165890Y-167329303D01*
X128280010Y-167395190D01*
X128280008Y-167395190D01*
X128280012Y-167395191D01*
X128280014Y-167395192D01*
X128407308Y-167429300D01*
X128407310Y-167429300D01*
X128539090Y-167429300D01*
X128539092Y-167429300D01*
X128666386Y-167395192D01*
X128666388Y-167395190D01*
X128666390Y-167395190D01*
X128780509Y-167329303D01*
X128780509Y-167329302D01*
X128780514Y-167329300D01*
X128801519Y-167308294D01*
X128856034Y-167280519D01*
X128871521Y-167279300D01*
X135694879Y-167279300D01*
X135753070Y-167298207D01*
X135764876Y-167308290D01*
X135785886Y-167329300D01*
X135785888Y-167329301D01*
X135785890Y-167329303D01*
X135900010Y-167395190D01*
X135900008Y-167395190D01*
X135900012Y-167395191D01*
X135900014Y-167395192D01*
X136027308Y-167429300D01*
X136057010Y-167429300D01*
X136115201Y-167448207D01*
X136127013Y-167458296D01*
X136296414Y-167627696D01*
X136324192Y-167682213D01*
X136314621Y-167742645D01*
X136271356Y-167785910D01*
X136226411Y-167796700D01*
X135468186Y-167796700D01*
X135391765Y-167817177D01*
X135391760Y-167817179D01*
X135339244Y-167847498D01*
X135339245Y-167847499D01*
X135323242Y-167856738D01*
X134121104Y-169058875D01*
X134066587Y-169086652D01*
X134006155Y-169077081D01*
X133962890Y-169033816D01*
X133952100Y-168988871D01*
X133952100Y-168945709D01*
X133946575Y-168925090D01*
X133917992Y-168818414D01*
X133917990Y-168818411D01*
X133917990Y-168818409D01*
X133852103Y-168704290D01*
X133852101Y-168704288D01*
X133852100Y-168704286D01*
X133758914Y-168611100D01*
X133758911Y-168611098D01*
X133758909Y-168611096D01*
X133644789Y-168545209D01*
X133644791Y-168545209D01*
X133584266Y-168528992D01*
X133517492Y-168511100D01*
X133385708Y-168511100D01*
X133318934Y-168528992D01*
X133258409Y-168545209D01*
X133144290Y-168611096D01*
X133144289Y-168611097D01*
X133144286Y-168611099D01*
X133144286Y-168611100D01*
X133073280Y-168682105D01*
X133018766Y-168709881D01*
X133003279Y-168711100D01*
X130110035Y-168711100D01*
X130033614Y-168731577D01*
X130033609Y-168731579D01*
X129981093Y-168761898D01*
X129981094Y-168761899D01*
X129965091Y-168771138D01*
X129965087Y-168771140D01*
X129914288Y-168821939D01*
X129914289Y-168821940D01*
X129609489Y-169126740D01*
X129609488Y-169126739D01*
X129553539Y-169182689D01*
X129513980Y-169251207D01*
X129513978Y-169251211D01*
X129493500Y-169327635D01*
X129493500Y-169674211D01*
X129474593Y-169732402D01*
X129432386Y-169765675D01*
X129324823Y-169810229D01*
X129324814Y-169810233D01*
X129162593Y-169918628D01*
X129162589Y-169918631D01*
X129024631Y-170056589D01*
X129024628Y-170056593D01*
X128916233Y-170218814D01*
X128916227Y-170218826D01*
X128841564Y-170399080D01*
X128841564Y-170399082D01*
X128803500Y-170590441D01*
X128803500Y-170785558D01*
X128841564Y-170976917D01*
X128841564Y-170976919D01*
X128916227Y-171157173D01*
X128916233Y-171157185D01*
X128974832Y-171244882D01*
X129024628Y-171319407D01*
X129162593Y-171457372D01*
X129223017Y-171497746D01*
X129324814Y-171565766D01*
X129324826Y-171565772D01*
X129391412Y-171593352D01*
X129505082Y-171640436D01*
X129696444Y-171678500D01*
X129696445Y-171678500D01*
X129891555Y-171678500D01*
X129891556Y-171678500D01*
X130082918Y-171640436D01*
X130263178Y-171565770D01*
X130263180Y-171565768D01*
X130263185Y-171565766D01*
X130310026Y-171534466D01*
X130425407Y-171457372D01*
X130563372Y-171319407D01*
X130640466Y-171204026D01*
X130671766Y-171157185D01*
X130671771Y-171157176D01*
X130746436Y-170976918D01*
X130784500Y-170785556D01*
X130784500Y-170590444D01*
X130746436Y-170399082D01*
X130675133Y-170226940D01*
X130671772Y-170218826D01*
X130671766Y-170218814D01*
X130609586Y-170125757D01*
X130563372Y-170056593D01*
X130425407Y-169918628D01*
X130364964Y-169878241D01*
X130263185Y-169810233D01*
X130263176Y-169810229D01*
X130155614Y-169765675D01*
X130135167Y-169748211D01*
X130113407Y-169732402D01*
X130112158Y-169728560D01*
X130109088Y-169725938D01*
X130094500Y-169674211D01*
X130094500Y-169532679D01*
X130113407Y-169474488D01*
X130123496Y-169462675D01*
X130245075Y-169341096D01*
X130299592Y-169313319D01*
X130315079Y-169312100D01*
X133003279Y-169312100D01*
X133061470Y-169331007D01*
X133073276Y-169341090D01*
X133144286Y-169412100D01*
X133144288Y-169412101D01*
X133144290Y-169412103D01*
X133258410Y-169477990D01*
X133258408Y-169477990D01*
X133258412Y-169477991D01*
X133258414Y-169477992D01*
X133385708Y-169512100D01*
X133385710Y-169512100D01*
X133428871Y-169512100D01*
X133487062Y-169531007D01*
X133523026Y-169580507D01*
X133523026Y-169641693D01*
X133498874Y-169681104D01*
X133183381Y-169996596D01*
X133128865Y-170024373D01*
X133068433Y-170014802D01*
X133043374Y-169996595D01*
X132965415Y-169918635D01*
X132965410Y-169918631D01*
X132965407Y-169918628D01*
X132904964Y-169878241D01*
X132803185Y-169810233D01*
X132803173Y-169810227D01*
X132622918Y-169735564D01*
X132431558Y-169697500D01*
X132431556Y-169697500D01*
X132236444Y-169697500D01*
X132236441Y-169697500D01*
X132045082Y-169735564D01*
X132045080Y-169735564D01*
X131864826Y-169810227D01*
X131864814Y-169810233D01*
X131702593Y-169918628D01*
X131702589Y-169918631D01*
X131564631Y-170056589D01*
X131564628Y-170056593D01*
X131456233Y-170218814D01*
X131456227Y-170218826D01*
X131381564Y-170399080D01*
X131381564Y-170399082D01*
X131343500Y-170590441D01*
X131343500Y-170785558D01*
X131381564Y-170976917D01*
X131381564Y-170976919D01*
X131456227Y-171157173D01*
X131456233Y-171157185D01*
X131514832Y-171244882D01*
X131564628Y-171319407D01*
X131702593Y-171457372D01*
X131763017Y-171497746D01*
X131864814Y-171565766D01*
X131864826Y-171565772D01*
X131931412Y-171593352D01*
X132045082Y-171640436D01*
X132236444Y-171678500D01*
X132236445Y-171678500D01*
X132431555Y-171678500D01*
X132431556Y-171678500D01*
X132622918Y-171640436D01*
X132803178Y-171565770D01*
X132803180Y-171565768D01*
X132803185Y-171565766D01*
X132850026Y-171534466D01*
X132965407Y-171457372D01*
X133103372Y-171319407D01*
X133180466Y-171204026D01*
X133211766Y-171157185D01*
X133211771Y-171157176D01*
X133286436Y-170976918D01*
X133324500Y-170785556D01*
X133324500Y-170746430D01*
X133343407Y-170688239D01*
X133353496Y-170676427D01*
X133775204Y-170254718D01*
X133829721Y-170226940D01*
X133890153Y-170236511D01*
X133933418Y-170279776D01*
X133942989Y-170340208D01*
X133936673Y-170362605D01*
X133921563Y-170399083D01*
X133883500Y-170590441D01*
X133883500Y-170785558D01*
X133921564Y-170976917D01*
X133921564Y-170976919D01*
X133996227Y-171157173D01*
X133996233Y-171157185D01*
X134054832Y-171244882D01*
X134104628Y-171319407D01*
X134242593Y-171457372D01*
X134303017Y-171497746D01*
X134404814Y-171565766D01*
X134404826Y-171565772D01*
X134471412Y-171593352D01*
X134585082Y-171640436D01*
X134776444Y-171678500D01*
X134776445Y-171678500D01*
X134971555Y-171678500D01*
X134971556Y-171678500D01*
X135162918Y-171640436D01*
X135343178Y-171565770D01*
X135343180Y-171565768D01*
X135343185Y-171565766D01*
X135390026Y-171534466D01*
X135505407Y-171457372D01*
X135643372Y-171319407D01*
X135720466Y-171204026D01*
X135751766Y-171157185D01*
X135751771Y-171157176D01*
X135826436Y-170976918D01*
X135864500Y-170785556D01*
X135864500Y-170590444D01*
X135826436Y-170399082D01*
X135781880Y-170291516D01*
X135777080Y-170230521D01*
X135803339Y-170183630D01*
X137103075Y-168883896D01*
X137157592Y-168856119D01*
X137173079Y-168854900D01*
X139166073Y-168854900D01*
X139224264Y-168873807D01*
X139260228Y-168923307D01*
X139260228Y-168984493D01*
X139236078Y-169023901D01*
X138668489Y-169591491D01*
X138668488Y-169591490D01*
X138612539Y-169647440D01*
X138572979Y-169715960D01*
X138572635Y-169716791D01*
X138572217Y-169717280D01*
X138569734Y-169721581D01*
X138568936Y-169721120D01*
X138532895Y-169763314D01*
X138481173Y-169777900D01*
X138063162Y-169777900D01*
X137984038Y-169777900D01*
X137965233Y-169782938D01*
X137907859Y-169798311D01*
X137846757Y-169795108D01*
X137844393Y-169794164D01*
X137702918Y-169735564D01*
X137702916Y-169735563D01*
X137511558Y-169697500D01*
X137511556Y-169697500D01*
X137316444Y-169697500D01*
X137316441Y-169697500D01*
X137125082Y-169735564D01*
X137125080Y-169735564D01*
X136944826Y-169810227D01*
X136944814Y-169810233D01*
X136782593Y-169918628D01*
X136782589Y-169918631D01*
X136644631Y-170056589D01*
X136644628Y-170056593D01*
X136536233Y-170218814D01*
X136536227Y-170218826D01*
X136461564Y-170399080D01*
X136461564Y-170399082D01*
X136423500Y-170590441D01*
X136423500Y-170785558D01*
X136461564Y-170976917D01*
X136461564Y-170976919D01*
X136536227Y-171157173D01*
X136536233Y-171157185D01*
X136594832Y-171244882D01*
X136644628Y-171319407D01*
X136782593Y-171457372D01*
X136843017Y-171497746D01*
X136944814Y-171565766D01*
X136944826Y-171565772D01*
X137011412Y-171593352D01*
X137125082Y-171640436D01*
X137316444Y-171678500D01*
X137316445Y-171678500D01*
X137511555Y-171678500D01*
X137511556Y-171678500D01*
X137702918Y-171640436D01*
X137883178Y-171565770D01*
X137883180Y-171565768D01*
X137883185Y-171565766D01*
X137930026Y-171534466D01*
X138045407Y-171457372D01*
X138183372Y-171319407D01*
X138260466Y-171204026D01*
X138291766Y-171157185D01*
X138291771Y-171157176D01*
X138366436Y-170976918D01*
X138404500Y-170785556D01*
X138404500Y-170590444D01*
X138385956Y-170497214D01*
X138393148Y-170436452D01*
X138434681Y-170391523D01*
X138483054Y-170378900D01*
X138884946Y-170378900D01*
X138943137Y-170397807D01*
X138979101Y-170447307D01*
X138982044Y-170497214D01*
X138963500Y-170590440D01*
X138963500Y-170785558D01*
X139001564Y-170976917D01*
X139001564Y-170976919D01*
X139076227Y-171157173D01*
X139076233Y-171157185D01*
X139134832Y-171244882D01*
X139184628Y-171319407D01*
X139322593Y-171457372D01*
X139383017Y-171497746D01*
X139484814Y-171565766D01*
X139484826Y-171565772D01*
X139551412Y-171593352D01*
X139665082Y-171640436D01*
X139856444Y-171678500D01*
X139856445Y-171678500D01*
X140051555Y-171678500D01*
X140051556Y-171678500D01*
X140242918Y-171640436D01*
X140423178Y-171565770D01*
X140423180Y-171565768D01*
X140423185Y-171565766D01*
X140470026Y-171534466D01*
X140585407Y-171457372D01*
X140723372Y-171319407D01*
X140800466Y-171204026D01*
X140831766Y-171157185D01*
X140831767Y-171157181D01*
X140831770Y-171157178D01*
X140876325Y-171049614D01*
X140916062Y-171003088D01*
X140967789Y-170988500D01*
X164519526Y-170988500D01*
X164577717Y-171007407D01*
X164613681Y-171056907D01*
X164615145Y-171061852D01*
X164622287Y-171088503D01*
X164633610Y-171130763D01*
X164699497Y-171244882D01*
X164699499Y-171244884D01*
X164699501Y-171244887D01*
X164792687Y-171338073D01*
X164792689Y-171338074D01*
X164792691Y-171338076D01*
X164906811Y-171403963D01*
X164906809Y-171403963D01*
X164906813Y-171403964D01*
X164906815Y-171403965D01*
X165034109Y-171438073D01*
X165034111Y-171438073D01*
X165165891Y-171438073D01*
X165165893Y-171438073D01*
X165293187Y-171403965D01*
X165293189Y-171403963D01*
X165293191Y-171403963D01*
X165407310Y-171338076D01*
X165407310Y-171338075D01*
X165407315Y-171338073D01*
X165500501Y-171244887D01*
X165551143Y-171157173D01*
X165566391Y-171130763D01*
X165566391Y-171130761D01*
X165566393Y-171130759D01*
X165600501Y-171003465D01*
X165600501Y-170871681D01*
X165566393Y-170744387D01*
X165566391Y-170744384D01*
X165566391Y-170744382D01*
X165500504Y-170630263D01*
X165500502Y-170630261D01*
X165500501Y-170630259D01*
X165407315Y-170537073D01*
X165407312Y-170537071D01*
X165407310Y-170537069D01*
X165405955Y-170536287D01*
X165405205Y-170535454D01*
X165402166Y-170533122D01*
X165402598Y-170532558D01*
X165365016Y-170490816D01*
X165358623Y-170429966D01*
X165389218Y-170376979D01*
X165417590Y-170359082D01*
X165419179Y-170358423D01*
X165419189Y-170358421D01*
X165419197Y-170358415D01*
X165419200Y-170358415D01*
X165484139Y-170320922D01*
X165487711Y-170318860D01*
X165543660Y-170262911D01*
X166051660Y-169754911D01*
X166068365Y-169725977D01*
X166091221Y-169686389D01*
X166111700Y-169609962D01*
X166111700Y-169297921D01*
X166130607Y-169239730D01*
X166140690Y-169227923D01*
X166202100Y-169166514D01*
X166202103Y-169166509D01*
X166267990Y-169052390D01*
X166267990Y-169052388D01*
X166267992Y-169052386D01*
X166302100Y-168925092D01*
X166302100Y-168793308D01*
X166267992Y-168666014D01*
X166267990Y-168666011D01*
X166267990Y-168666009D01*
X166202103Y-168551890D01*
X166202101Y-168551888D01*
X166202100Y-168551886D01*
X166108914Y-168458700D01*
X166108911Y-168458698D01*
X166108909Y-168458696D01*
X165994789Y-168392809D01*
X165994791Y-168392809D01*
X165945399Y-168379575D01*
X165867492Y-168358700D01*
X165735708Y-168358700D01*
X165657800Y-168379575D01*
X165608409Y-168392809D01*
X165494290Y-168458696D01*
X165401096Y-168551890D01*
X165335209Y-168666009D01*
X165320303Y-168721641D01*
X165301100Y-168793308D01*
X165301100Y-168925092D01*
X165324779Y-169013465D01*
X165335209Y-169052390D01*
X165401096Y-169166509D01*
X165401098Y-169166511D01*
X165401100Y-169166514D01*
X165481705Y-169247119D01*
X165485330Y-169254234D01*
X165491793Y-169258930D01*
X165498956Y-169280978D01*
X165509481Y-169301634D01*
X165510700Y-169317121D01*
X165510700Y-169404921D01*
X165491793Y-169463112D01*
X165481704Y-169474925D01*
X165207725Y-169748904D01*
X165153208Y-169776681D01*
X165137721Y-169777900D01*
X158336739Y-169777900D01*
X158278548Y-169758993D01*
X158242584Y-169709493D01*
X158242584Y-169648307D01*
X158266733Y-169608898D01*
X158295977Y-169579655D01*
X158410941Y-169407598D01*
X158446557Y-169321614D01*
X158486294Y-169275089D01*
X158538021Y-169260500D01*
X163584079Y-169260500D01*
X163642270Y-169279407D01*
X163654076Y-169289490D01*
X163725886Y-169361300D01*
X163725888Y-169361301D01*
X163725890Y-169361303D01*
X163840010Y-169427190D01*
X163840008Y-169427190D01*
X163840012Y-169427191D01*
X163840014Y-169427192D01*
X163967308Y-169461300D01*
X163967310Y-169461300D01*
X164099090Y-169461300D01*
X164099092Y-169461300D01*
X164226386Y-169427192D01*
X164226388Y-169427190D01*
X164226390Y-169427190D01*
X164340509Y-169361303D01*
X164340509Y-169361302D01*
X164340514Y-169361300D01*
X164433700Y-169268114D01*
X164438558Y-169259700D01*
X164499590Y-169153990D01*
X164499590Y-169153988D01*
X164499592Y-169153986D01*
X164533700Y-169026692D01*
X164533700Y-168894908D01*
X164499592Y-168767614D01*
X164499590Y-168767611D01*
X164499590Y-168767609D01*
X164433703Y-168653490D01*
X164433701Y-168653488D01*
X164433700Y-168653486D01*
X164340514Y-168560300D01*
X164340511Y-168560298D01*
X164340509Y-168560296D01*
X164226389Y-168494409D01*
X164226391Y-168494409D01*
X164176999Y-168481175D01*
X164099092Y-168460300D01*
X163967308Y-168460300D01*
X163840014Y-168494408D01*
X163840013Y-168494408D01*
X163840011Y-168494409D01*
X163807909Y-168512944D01*
X163750244Y-168546236D01*
X163700746Y-168559500D01*
X158538021Y-168559500D01*
X158479830Y-168540593D01*
X158446557Y-168498386D01*
X158410941Y-168412402D01*
X158295979Y-168240348D01*
X158295977Y-168240345D01*
X158149655Y-168094023D01*
X158149651Y-168094020D01*
X158146215Y-168090584D01*
X158147993Y-168088805D01*
X158120269Y-168045264D01*
X158124019Y-167984194D01*
X158162950Y-167936991D01*
X158216122Y-167921500D01*
X159926479Y-167921500D01*
X159984670Y-167940407D01*
X159996476Y-167950490D01*
X160017486Y-167971500D01*
X160017488Y-167971501D01*
X160017490Y-167971503D01*
X160131610Y-168037390D01*
X160131608Y-168037390D01*
X160131612Y-168037391D01*
X160131614Y-168037392D01*
X160258908Y-168071500D01*
X160258910Y-168071500D01*
X160390690Y-168071500D01*
X160390692Y-168071500D01*
X160517986Y-168037392D01*
X160517988Y-168037390D01*
X160517990Y-168037390D01*
X160632109Y-167971503D01*
X160632109Y-167971502D01*
X160632114Y-167971500D01*
X160725300Y-167878314D01*
X160737757Y-167856738D01*
X160791190Y-167764190D01*
X160791190Y-167764188D01*
X160791192Y-167764186D01*
X160825300Y-167636892D01*
X160825300Y-167505108D01*
X160791192Y-167377814D01*
X160791190Y-167377811D01*
X160791190Y-167377809D01*
X160725303Y-167263690D01*
X160725301Y-167263688D01*
X160725300Y-167263686D01*
X160632114Y-167170500D01*
X160632111Y-167170498D01*
X160632109Y-167170496D01*
X160517989Y-167104609D01*
X160517991Y-167104609D01*
X160451241Y-167086724D01*
X160390692Y-167070500D01*
X160258908Y-167070500D01*
X160198359Y-167086724D01*
X160131609Y-167104609D01*
X160017490Y-167170496D01*
X160017489Y-167170497D01*
X160017486Y-167170499D01*
X160017486Y-167170500D01*
X159996480Y-167191505D01*
X159941966Y-167219281D01*
X159926479Y-167220500D01*
X158194730Y-167220500D01*
X158136539Y-167201593D01*
X158124726Y-167191504D01*
X157733952Y-166800730D01*
X157787007Y-166770099D01*
X157880099Y-166677007D01*
X157910730Y-166623952D01*
X158307815Y-167021037D01*
X158410498Y-166867360D01*
X158489650Y-166676272D01*
X158529999Y-166473418D01*
X158530000Y-166473413D01*
X158530000Y-166266586D01*
X158529999Y-166266581D01*
X158489650Y-166063727D01*
X158410498Y-165872638D01*
X158307815Y-165718961D01*
X157910729Y-166116046D01*
X157880099Y-166062993D01*
X157787007Y-165969901D01*
X157733950Y-165939269D01*
X158131037Y-165542183D01*
X158012254Y-165462816D01*
X157974374Y-165414766D01*
X157971972Y-165353628D01*
X158005964Y-165302754D01*
X158063368Y-165281576D01*
X158067255Y-165281500D01*
X158346704Y-165281500D01*
X158404895Y-165300407D01*
X158432438Y-165330996D01*
X158476500Y-165407314D01*
X158569686Y-165500500D01*
X158569688Y-165500501D01*
X158569690Y-165500503D01*
X158683810Y-165566390D01*
X158683808Y-165566390D01*
X158683812Y-165566391D01*
X158683814Y-165566392D01*
X158811108Y-165600500D01*
X158811110Y-165600500D01*
X158942890Y-165600500D01*
X158942892Y-165600500D01*
X159070186Y-165566392D01*
X159070188Y-165566390D01*
X159070190Y-165566390D01*
X159184309Y-165500503D01*
X159184309Y-165500502D01*
X159184314Y-165500500D01*
X159277500Y-165407314D01*
X159277503Y-165407309D01*
X159343390Y-165293190D01*
X159343390Y-165293188D01*
X159343392Y-165293186D01*
X159377500Y-165165892D01*
X159377500Y-165034108D01*
X159343392Y-164906814D01*
X159343390Y-164906811D01*
X159343390Y-164906809D01*
X159277503Y-164792690D01*
X159277501Y-164792688D01*
X159277500Y-164792686D01*
X159184314Y-164699500D01*
X159184311Y-164699498D01*
X159184309Y-164699496D01*
X159070189Y-164633609D01*
X159070191Y-164633609D01*
X159013596Y-164618445D01*
X158942892Y-164599500D01*
X158811108Y-164599500D01*
X158683814Y-164633608D01*
X158683813Y-164633608D01*
X158683811Y-164633609D01*
X158625569Y-164667236D01*
X158576068Y-164680500D01*
X158354139Y-164680500D01*
X158295948Y-164661593D01*
X158259984Y-164612093D01*
X158259984Y-164550907D01*
X158284133Y-164511498D01*
X158295977Y-164499655D01*
X158410941Y-164327598D01*
X158467268Y-164191614D01*
X158507005Y-164145088D01*
X158558732Y-164130500D01*
X166328079Y-164130500D01*
X166386270Y-164149407D01*
X166398076Y-164159490D01*
X166469086Y-164230500D01*
X166469088Y-164230501D01*
X166469090Y-164230503D01*
X166583210Y-164296390D01*
X166583208Y-164296390D01*
X166583212Y-164296391D01*
X166583214Y-164296392D01*
X166710508Y-164330500D01*
X166710510Y-164330500D01*
X166842290Y-164330500D01*
X166842292Y-164330500D01*
X166969586Y-164296392D01*
X166990999Y-164284028D01*
X167050847Y-164271307D01*
X167106743Y-164296193D01*
X167137336Y-164349180D01*
X167139500Y-164369765D01*
X167139500Y-172120500D01*
X167120593Y-172178691D01*
X167071093Y-172214655D01*
X167040500Y-172219500D01*
X102199500Y-172219500D01*
X102141309Y-172200593D01*
X102105345Y-172151093D01*
X102100500Y-172120500D01*
X102100500Y-168806532D01*
X104359500Y-168806532D01*
X104359500Y-169013467D01*
X104399869Y-169216418D01*
X104479058Y-169407597D01*
X104578917Y-169557047D01*
X104594023Y-169579655D01*
X104740345Y-169725977D01*
X104912402Y-169840941D01*
X105103580Y-169920130D01*
X105306535Y-169960500D01*
X105306536Y-169960500D01*
X105513464Y-169960500D01*
X105513465Y-169960500D01*
X105716420Y-169920130D01*
X105907598Y-169840941D01*
X106079655Y-169725977D01*
X106225977Y-169579655D01*
X106340941Y-169407598D01*
X106376557Y-169321614D01*
X106416294Y-169275089D01*
X106468021Y-169260500D01*
X106891979Y-169260500D01*
X106950170Y-169279407D01*
X106983443Y-169321614D01*
X107019058Y-169407597D01*
X107118917Y-169557047D01*
X107134023Y-169579655D01*
X107280345Y-169725977D01*
X107452402Y-169840941D01*
X107643580Y-169920130D01*
X107846535Y-169960500D01*
X107846536Y-169960500D01*
X108053464Y-169960500D01*
X108053465Y-169960500D01*
X108256420Y-169920130D01*
X108447598Y-169840941D01*
X108619655Y-169725977D01*
X108765977Y-169579655D01*
X108880941Y-169407598D01*
X108916557Y-169321614D01*
X108956294Y-169275089D01*
X109008021Y-169260500D01*
X112799146Y-169260500D01*
X112848644Y-169273763D01*
X112938414Y-169325592D01*
X113065708Y-169359700D01*
X113065710Y-169359700D01*
X113197490Y-169359700D01*
X113197492Y-169359700D01*
X113324786Y-169325592D01*
X113324788Y-169325590D01*
X113324790Y-169325590D01*
X113438909Y-169259703D01*
X113438909Y-169259702D01*
X113438914Y-169259700D01*
X113532100Y-169166514D01*
X113532103Y-169166509D01*
X113597990Y-169052390D01*
X113597990Y-169052388D01*
X113597992Y-169052386D01*
X113632100Y-168925092D01*
X113632100Y-168895390D01*
X113651007Y-168837199D01*
X113661096Y-168825386D01*
X114111386Y-168375096D01*
X114165903Y-168347319D01*
X114181390Y-168346100D01*
X117042218Y-168346100D01*
X117100409Y-168365007D01*
X117136373Y-168414507D01*
X117136373Y-168475693D01*
X117100409Y-168525193D01*
X117091723Y-168530833D01*
X117067340Y-168544911D01*
X117040687Y-168560299D01*
X116947496Y-168653490D01*
X116881609Y-168767609D01*
X116866128Y-168825386D01*
X116847500Y-168894908D01*
X116847500Y-169026692D01*
X116861002Y-169077081D01*
X116881609Y-169153990D01*
X116947496Y-169268109D01*
X116947498Y-169268111D01*
X116947500Y-169268114D01*
X117040686Y-169361300D01*
X117040688Y-169361301D01*
X117040690Y-169361303D01*
X117154810Y-169427190D01*
X117154808Y-169427190D01*
X117154812Y-169427191D01*
X117154814Y-169427192D01*
X117282108Y-169461300D01*
X117282110Y-169461300D01*
X117413890Y-169461300D01*
X117413892Y-169461300D01*
X117541186Y-169427192D01*
X117541188Y-169427190D01*
X117541190Y-169427190D01*
X117655309Y-169361303D01*
X117655309Y-169361302D01*
X117655314Y-169361300D01*
X117748500Y-169268114D01*
X117753358Y-169259700D01*
X117814390Y-169153990D01*
X117814390Y-169153988D01*
X117814392Y-169153986D01*
X117847647Y-169029875D01*
X117880970Y-168978563D01*
X117938091Y-168956636D01*
X117943273Y-168956500D01*
X122516521Y-168956500D01*
X122574712Y-168975407D01*
X122586525Y-168985496D01*
X123147685Y-169546656D01*
X123175462Y-169601173D01*
X123165891Y-169661605D01*
X123122626Y-169704870D01*
X123062194Y-169714441D01*
X123046097Y-169709902D01*
X122983758Y-169697501D01*
X122983748Y-169697500D01*
X121364252Y-169697500D01*
X121364251Y-169697500D01*
X121364241Y-169697501D01*
X121305772Y-169709132D01*
X121305766Y-169709134D01*
X121239451Y-169753445D01*
X121239445Y-169753451D01*
X121195134Y-169819766D01*
X121195132Y-169819772D01*
X121183501Y-169878241D01*
X121183500Y-169878253D01*
X121183500Y-170288500D01*
X121164593Y-170346691D01*
X121115093Y-170382655D01*
X121084500Y-170387500D01*
X119523521Y-170387500D01*
X119465330Y-170368593D01*
X119453523Y-170358509D01*
X119382514Y-170287500D01*
X119382511Y-170287498D01*
X119382509Y-170287496D01*
X119268389Y-170221609D01*
X119268391Y-170221609D01*
X119218999Y-170208375D01*
X119141092Y-170187500D01*
X119009308Y-170187500D01*
X118931400Y-170208375D01*
X118882009Y-170221609D01*
X118767890Y-170287496D01*
X118674696Y-170380690D01*
X118608809Y-170494809D01*
X118598543Y-170533122D01*
X118574700Y-170622108D01*
X118574700Y-170753892D01*
X118583185Y-170785558D01*
X118608809Y-170881190D01*
X118674696Y-170995309D01*
X118674698Y-170995311D01*
X118674700Y-170995314D01*
X118767886Y-171088500D01*
X118767888Y-171088501D01*
X118767890Y-171088503D01*
X118882010Y-171154390D01*
X118882008Y-171154390D01*
X118882012Y-171154391D01*
X118882014Y-171154392D01*
X119009308Y-171188500D01*
X119009310Y-171188500D01*
X119141090Y-171188500D01*
X119141092Y-171188500D01*
X119268386Y-171154392D01*
X119268388Y-171154390D01*
X119268390Y-171154390D01*
X119382509Y-171088503D01*
X119382509Y-171088502D01*
X119382514Y-171088500D01*
X119453519Y-171017494D01*
X119508034Y-170989719D01*
X119523521Y-170988500D01*
X121084500Y-170988500D01*
X121142691Y-171007407D01*
X121178655Y-171056907D01*
X121183500Y-171087500D01*
X121183500Y-171497746D01*
X121183501Y-171497758D01*
X121195132Y-171556227D01*
X121195133Y-171556231D01*
X121239448Y-171622552D01*
X121305769Y-171666867D01*
X121350231Y-171675711D01*
X121364241Y-171678498D01*
X121364246Y-171678498D01*
X121364252Y-171678500D01*
X121364253Y-171678500D01*
X122983747Y-171678500D01*
X122983748Y-171678500D01*
X123042231Y-171666867D01*
X123108552Y-171622552D01*
X123152867Y-171556231D01*
X123164500Y-171497748D01*
X123164500Y-169878252D01*
X123152867Y-169819769D01*
X123150965Y-169810207D01*
X123152900Y-169809821D01*
X123149074Y-169761206D01*
X123181044Y-169709037D01*
X123237572Y-169685623D01*
X123297067Y-169699907D01*
X123315343Y-169714314D01*
X123784657Y-170183628D01*
X123812434Y-170238145D01*
X123806118Y-170291516D01*
X123761563Y-170399083D01*
X123723500Y-170590441D01*
X123723500Y-170785558D01*
X123761564Y-170976917D01*
X123761564Y-170976919D01*
X123836227Y-171157173D01*
X123836233Y-171157185D01*
X123894832Y-171244882D01*
X123944628Y-171319407D01*
X124082593Y-171457372D01*
X124143017Y-171497746D01*
X124244814Y-171565766D01*
X124244826Y-171565772D01*
X124311412Y-171593352D01*
X124425082Y-171640436D01*
X124616444Y-171678500D01*
X124616445Y-171678500D01*
X124811555Y-171678500D01*
X124811556Y-171678500D01*
X125002918Y-171640436D01*
X125183178Y-171565770D01*
X125183180Y-171565768D01*
X125183185Y-171565766D01*
X125230026Y-171534466D01*
X125345407Y-171457372D01*
X125483372Y-171319407D01*
X125560466Y-171204026D01*
X125591766Y-171157185D01*
X125591771Y-171157176D01*
X125666436Y-170976918D01*
X125704500Y-170785556D01*
X125704500Y-170590444D01*
X125704499Y-170590441D01*
X126263500Y-170590441D01*
X126263500Y-170785558D01*
X126301564Y-170976917D01*
X126301564Y-170976919D01*
X126376227Y-171157173D01*
X126376233Y-171157185D01*
X126434832Y-171244882D01*
X126484628Y-171319407D01*
X126622593Y-171457372D01*
X126683017Y-171497746D01*
X126784814Y-171565766D01*
X126784826Y-171565772D01*
X126851412Y-171593352D01*
X126965082Y-171640436D01*
X127156444Y-171678500D01*
X127156445Y-171678500D01*
X127351555Y-171678500D01*
X127351556Y-171678500D01*
X127542918Y-171640436D01*
X127723178Y-171565770D01*
X127723180Y-171565768D01*
X127723185Y-171565766D01*
X127770026Y-171534466D01*
X127885407Y-171457372D01*
X128023372Y-171319407D01*
X128100466Y-171204026D01*
X128131766Y-171157185D01*
X128131771Y-171157176D01*
X128206436Y-170976918D01*
X128244500Y-170785556D01*
X128244500Y-170590444D01*
X128206436Y-170399082D01*
X128135133Y-170226940D01*
X128131772Y-170218826D01*
X128131766Y-170218814D01*
X128069586Y-170125757D01*
X128023372Y-170056593D01*
X127885407Y-169918628D01*
X127824964Y-169878241D01*
X127723185Y-169810233D01*
X127723173Y-169810227D01*
X127542918Y-169735564D01*
X127351558Y-169697500D01*
X127351556Y-169697500D01*
X127156444Y-169697500D01*
X127156441Y-169697500D01*
X126965082Y-169735564D01*
X126965080Y-169735564D01*
X126784826Y-169810227D01*
X126784814Y-169810233D01*
X126622593Y-169918628D01*
X126622589Y-169918631D01*
X126484631Y-170056589D01*
X126484628Y-170056593D01*
X126376233Y-170218814D01*
X126376227Y-170218826D01*
X126301564Y-170399080D01*
X126301564Y-170399082D01*
X126263500Y-170590441D01*
X125704499Y-170590441D01*
X125666436Y-170399082D01*
X125595133Y-170226940D01*
X125591772Y-170218826D01*
X125591766Y-170218814D01*
X125529586Y-170125757D01*
X125483372Y-170056593D01*
X125345407Y-169918628D01*
X125284964Y-169878241D01*
X125183185Y-169810233D01*
X125183173Y-169810227D01*
X125002918Y-169735564D01*
X124811558Y-169697500D01*
X124811556Y-169697500D01*
X124616444Y-169697500D01*
X124616441Y-169697500D01*
X124425083Y-169735563D01*
X124317516Y-169780118D01*
X124256519Y-169784917D01*
X124209628Y-169758657D01*
X123577710Y-169126739D01*
X122866511Y-168415540D01*
X122858980Y-168411192D01*
X122835611Y-168397699D01*
X122835611Y-168397700D01*
X122797989Y-168375979D01*
X122797988Y-168375978D01*
X122797987Y-168375978D01*
X122721564Y-168355500D01*
X122721562Y-168355500D01*
X121445613Y-168355500D01*
X121387422Y-168336593D01*
X121351458Y-168287093D01*
X121351458Y-168225907D01*
X121359877Y-168207000D01*
X121370390Y-168188790D01*
X121370390Y-168188788D01*
X121370392Y-168188786D01*
X121404500Y-168061492D01*
X121404500Y-167929708D01*
X121370392Y-167802414D01*
X121370390Y-167802411D01*
X121370390Y-167802409D01*
X121304503Y-167688290D01*
X121304501Y-167688288D01*
X121304500Y-167688286D01*
X121211314Y-167595100D01*
X121211311Y-167595098D01*
X121211309Y-167595096D01*
X121097189Y-167529209D01*
X121097191Y-167529209D01*
X121043552Y-167514837D01*
X120969892Y-167495100D01*
X120838108Y-167495100D01*
X120764448Y-167514837D01*
X120710809Y-167529209D01*
X120596690Y-167595096D01*
X120596689Y-167595097D01*
X120596686Y-167595099D01*
X120596686Y-167595100D01*
X120575680Y-167616105D01*
X120521166Y-167643881D01*
X120505679Y-167645100D01*
X114041344Y-167645100D01*
X113949056Y-167645100D01*
X113866925Y-167667107D01*
X113859912Y-167668986D01*
X113779988Y-167715130D01*
X113165414Y-168329704D01*
X113110897Y-168357481D01*
X113095410Y-168358700D01*
X113065708Y-168358700D01*
X112987800Y-168379575D01*
X112938409Y-168392809D01*
X112824286Y-168458699D01*
X112770041Y-168512944D01*
X112748988Y-168528992D01*
X112742988Y-168532404D01*
X112742312Y-168532586D01*
X112718381Y-168546402D01*
X112718118Y-168546552D01*
X112715424Y-168547106D01*
X112669168Y-168559500D01*
X109008021Y-168559500D01*
X108949830Y-168540593D01*
X108916557Y-168498386D01*
X108880941Y-168412402D01*
X108765979Y-168240348D01*
X108765977Y-168240345D01*
X108619655Y-168094023D01*
X108619651Y-168094020D01*
X108447597Y-167979058D01*
X108256418Y-167899869D01*
X108053467Y-167859500D01*
X108053465Y-167859500D01*
X107846535Y-167859500D01*
X107846532Y-167859500D01*
X107643581Y-167899869D01*
X107452402Y-167979058D01*
X107280348Y-168094020D01*
X107134020Y-168240348D01*
X107019058Y-168412402D01*
X106983443Y-168498386D01*
X106943706Y-168544911D01*
X106891979Y-168559500D01*
X106468021Y-168559500D01*
X106409830Y-168540593D01*
X106376557Y-168498386D01*
X106340941Y-168412402D01*
X106225979Y-168240348D01*
X106225977Y-168240345D01*
X106079655Y-168094023D01*
X106079651Y-168094020D01*
X105907597Y-167979058D01*
X105716418Y-167899869D01*
X105513467Y-167859500D01*
X105513465Y-167859500D01*
X105306535Y-167859500D01*
X105306532Y-167859500D01*
X105103581Y-167899869D01*
X104912402Y-167979058D01*
X104740348Y-168094020D01*
X104594020Y-168240348D01*
X104479058Y-168412402D01*
X104399869Y-168603581D01*
X104359500Y-168806532D01*
X102100500Y-168806532D01*
X102100500Y-166266581D01*
X104360000Y-166266581D01*
X104360000Y-166473418D01*
X104400349Y-166676272D01*
X104479501Y-166867361D01*
X104582183Y-167021037D01*
X104979269Y-166623950D01*
X105009901Y-166677007D01*
X105102993Y-166770099D01*
X105156046Y-166800729D01*
X104758961Y-167197815D01*
X104912638Y-167300498D01*
X105103727Y-167379650D01*
X105306581Y-167419999D01*
X105306586Y-167420000D01*
X105513414Y-167420000D01*
X105513418Y-167419999D01*
X105716272Y-167379650D01*
X105907360Y-167300498D01*
X106061037Y-167197815D01*
X105663952Y-166800730D01*
X105717007Y-166770099D01*
X105810099Y-166677007D01*
X105840730Y-166623952D01*
X106237815Y-167021037D01*
X106340498Y-166867360D01*
X106419650Y-166676272D01*
X106459999Y-166473418D01*
X106460000Y-166473413D01*
X106460000Y-166266586D01*
X106459999Y-166266581D01*
X106419650Y-166063727D01*
X106340498Y-165872638D01*
X106237815Y-165718961D01*
X105840729Y-166116046D01*
X105810099Y-166062993D01*
X105717007Y-165969901D01*
X105663950Y-165939269D01*
X106061037Y-165542183D01*
X105907361Y-165439501D01*
X105716272Y-165360349D01*
X105513418Y-165320000D01*
X105306581Y-165320000D01*
X105103727Y-165360349D01*
X104912638Y-165439501D01*
X104758961Y-165542183D01*
X105156047Y-165939269D01*
X105102993Y-165969901D01*
X105009901Y-166062993D01*
X104979269Y-166116047D01*
X104582183Y-165718961D01*
X104479501Y-165872638D01*
X104400349Y-166063727D01*
X104360000Y-166266581D01*
X102100500Y-166266581D01*
X102100500Y-152999500D01*
X102119407Y-152941309D01*
X102168907Y-152905345D01*
X102199500Y-152900500D01*
X108055521Y-152900500D01*
X108113712Y-152919407D01*
G37*
%TD.AperFunction*%
%TA.AperFunction,Conductor*%
G36*
X153723130Y-167349007D02*
G01*
X153734943Y-167359096D01*
X154227317Y-167851470D01*
X154296617Y-167891480D01*
X154307241Y-167897614D01*
X154307242Y-167897614D01*
X154307266Y-167897628D01*
X154348206Y-167943099D01*
X154354599Y-168003950D01*
X154324004Y-168056937D01*
X154312765Y-168065678D01*
X154270349Y-168094019D01*
X154124020Y-168240348D01*
X154009058Y-168412402D01*
X153929869Y-168603582D01*
X153920091Y-168652744D01*
X153890195Y-168706129D01*
X153834630Y-168731745D01*
X153822993Y-168732431D01*
X151920747Y-168732431D01*
X151898698Y-168725267D01*
X151875803Y-168721641D01*
X151870154Y-168715992D01*
X151862556Y-168713524D01*
X151848927Y-168694766D01*
X151832538Y-168678377D01*
X151831288Y-168670488D01*
X151826592Y-168664024D01*
X151826592Y-168640837D01*
X151822966Y-168617945D01*
X151826592Y-168610828D01*
X151826592Y-168602838D01*
X151850743Y-168563428D01*
X151873578Y-168540593D01*
X151972726Y-168441443D01*
X152017109Y-168415820D01*
X152034386Y-168411192D01*
X152148514Y-168345300D01*
X152241700Y-168252114D01*
X152307592Y-168137986D01*
X152341700Y-168010692D01*
X152341700Y-167878908D01*
X152307592Y-167751614D01*
X152307590Y-167751611D01*
X152307590Y-167751609D01*
X152241703Y-167637490D01*
X152241701Y-167637488D01*
X152241700Y-167637486D01*
X152148514Y-167544300D01*
X152097481Y-167514836D01*
X152056541Y-167469367D01*
X152050145Y-167408517D01*
X152080738Y-167355529D01*
X152136634Y-167330642D01*
X152146982Y-167330100D01*
X153664939Y-167330100D01*
X153723130Y-167349007D01*
G37*
%TD.AperFunction*%
%TA.AperFunction,Conductor*%
G36*
X156962909Y-165292407D02*
G01*
X156998873Y-165341907D01*
X156998873Y-165403093D01*
X156962909Y-165452593D01*
X156959719Y-165454816D01*
X156828961Y-165542183D01*
X157226047Y-165939269D01*
X157172993Y-165969901D01*
X157079901Y-166062993D01*
X157049269Y-166116047D01*
X156652183Y-165718961D01*
X156549501Y-165872638D01*
X156470349Y-166063727D01*
X156430000Y-166266581D01*
X156430000Y-166473418D01*
X156470349Y-166676272D01*
X156549501Y-166867361D01*
X156652183Y-167021037D01*
X157049269Y-166623950D01*
X157079901Y-166677007D01*
X157172993Y-166770099D01*
X157226046Y-166800729D01*
X156835273Y-167191504D01*
X156828155Y-167195130D01*
X156823460Y-167201593D01*
X156801411Y-167208756D01*
X156780756Y-167219281D01*
X156765269Y-167220500D01*
X156691729Y-167220500D01*
X156678270Y-167216127D01*
X156662162Y-167220500D01*
X155654730Y-167220500D01*
X155596539Y-167201593D01*
X155584726Y-167191503D01*
X155193953Y-166800729D01*
X155247007Y-166770099D01*
X155340099Y-166677007D01*
X155370730Y-166623952D01*
X155767815Y-167021037D01*
X155870498Y-166867360D01*
X155949650Y-166676272D01*
X155989999Y-166473418D01*
X155990000Y-166473413D01*
X155990000Y-166266586D01*
X155989999Y-166266581D01*
X155949650Y-166063727D01*
X155870498Y-165872638D01*
X155767815Y-165718961D01*
X155370729Y-166116046D01*
X155340099Y-166062993D01*
X155247007Y-165969901D01*
X155193950Y-165939269D01*
X155591037Y-165542183D01*
X155460281Y-165454816D01*
X155422401Y-165406766D01*
X155419999Y-165345628D01*
X155453991Y-165294754D01*
X155511395Y-165273576D01*
X155515282Y-165273500D01*
X156904718Y-165273500D01*
X156962909Y-165292407D01*
G37*
%TD.AperFunction*%
%TA.AperFunction,Conductor*%
G36*
X130854395Y-161472192D02*
G01*
X130881562Y-161479471D01*
X130883263Y-161481571D01*
X130885834Y-161482407D01*
X130902370Y-161505168D01*
X130920067Y-161527021D01*
X130920208Y-161529719D01*
X130921798Y-161531907D01*
X130923269Y-161588122D01*
X130891680Y-161706019D01*
X130891680Y-161837803D01*
X130911717Y-161912581D01*
X130925789Y-161965101D01*
X130991676Y-162079220D01*
X130991678Y-162079222D01*
X130991680Y-162079225D01*
X131084866Y-162172411D01*
X131084868Y-162172412D01*
X131084870Y-162172414D01*
X131198990Y-162238301D01*
X131198988Y-162238301D01*
X131198992Y-162238302D01*
X131198994Y-162238303D01*
X131326288Y-162272411D01*
X131326290Y-162272411D01*
X131458070Y-162272411D01*
X131458072Y-162272411D01*
X131585366Y-162238303D01*
X131585368Y-162238301D01*
X131585371Y-162238301D01*
X131591364Y-162235819D01*
X131592549Y-162238680D01*
X131639881Y-162228507D01*
X131695833Y-162253266D01*
X131699761Y-162256984D01*
X132080047Y-162637270D01*
X132026993Y-162667901D01*
X131933901Y-162760993D01*
X131903270Y-162814047D01*
X131549442Y-162460219D01*
X131456673Y-162599059D01*
X131382044Y-162779229D01*
X131344000Y-162970491D01*
X131344000Y-163165508D01*
X131382044Y-163356770D01*
X131456673Y-163536939D01*
X131456680Y-163536953D01*
X131549441Y-163675779D01*
X131903269Y-163321951D01*
X131933901Y-163375007D01*
X132026993Y-163468099D01*
X132080045Y-163498729D01*
X131726219Y-163852556D01*
X131865060Y-163945326D01*
X132045229Y-164019955D01*
X132236491Y-164057999D01*
X132236495Y-164058000D01*
X132431505Y-164058000D01*
X132431508Y-164057999D01*
X132622770Y-164019955D01*
X132802940Y-163945326D01*
X132941779Y-163852556D01*
X132587952Y-163498729D01*
X132641007Y-163468099D01*
X132734099Y-163375007D01*
X132764729Y-163321952D01*
X133118556Y-163675779D01*
X133211326Y-163536940D01*
X133285955Y-163356770D01*
X133323999Y-163165508D01*
X133324000Y-163165504D01*
X133324000Y-162970495D01*
X133323999Y-162970491D01*
X133884000Y-162970491D01*
X133884000Y-163165508D01*
X133922044Y-163356770D01*
X133996673Y-163536939D01*
X133996680Y-163536953D01*
X134089441Y-163675779D01*
X134443269Y-163321951D01*
X134473901Y-163375007D01*
X134566993Y-163468099D01*
X134620045Y-163498729D01*
X134266219Y-163852556D01*
X134405060Y-163945326D01*
X134585229Y-164019955D01*
X134776491Y-164057999D01*
X134776495Y-164058000D01*
X134971505Y-164058000D01*
X134971508Y-164057999D01*
X135162770Y-164019955D01*
X135342940Y-163945326D01*
X135481779Y-163852556D01*
X135127952Y-163498729D01*
X135181007Y-163468099D01*
X135274099Y-163375007D01*
X135304729Y-163321952D01*
X135658556Y-163675779D01*
X135751326Y-163536940D01*
X135825955Y-163356770D01*
X135863999Y-163165508D01*
X135864000Y-163165504D01*
X135864000Y-162970495D01*
X135863999Y-162970491D01*
X135825955Y-162779229D01*
X135751326Y-162599060D01*
X135658556Y-162460219D01*
X135304729Y-162814045D01*
X135274099Y-162760993D01*
X135181007Y-162667901D01*
X135127951Y-162637269D01*
X135481780Y-162283441D01*
X135342953Y-162190680D01*
X135342939Y-162190673D01*
X135162770Y-162116044D01*
X134971508Y-162078000D01*
X134776491Y-162078000D01*
X134585229Y-162116044D01*
X134405059Y-162190673D01*
X134266219Y-162283442D01*
X134620047Y-162637270D01*
X134566993Y-162667901D01*
X134473901Y-162760993D01*
X134443270Y-162814047D01*
X134089442Y-162460219D01*
X133996673Y-162599059D01*
X133922044Y-162779229D01*
X133884000Y-162970491D01*
X133323999Y-162970491D01*
X133285955Y-162779229D01*
X133211326Y-162599060D01*
X133118556Y-162460219D01*
X132764729Y-162814045D01*
X132734099Y-162760993D01*
X132641007Y-162667901D01*
X132587951Y-162637269D01*
X132941780Y-162283441D01*
X132802953Y-162190680D01*
X132802939Y-162190673D01*
X132622770Y-162116044D01*
X132431508Y-162078000D01*
X132236491Y-162078000D01*
X132045228Y-162116045D01*
X132045226Y-162116045D01*
X131954805Y-162153499D01*
X131893808Y-162158300D01*
X131841640Y-162126330D01*
X131818225Y-162069802D01*
X131831184Y-162012534D01*
X131858572Y-161965097D01*
X131865061Y-161940876D01*
X131898385Y-161889563D01*
X131955506Y-161867636D01*
X131960688Y-161867500D01*
X137781139Y-161867500D01*
X137839330Y-161886407D01*
X137875294Y-161935907D01*
X137876765Y-161940875D01*
X137880868Y-161956186D01*
X137880869Y-161956189D01*
X137912327Y-162010676D01*
X137925049Y-162070524D01*
X137900162Y-162126420D01*
X137847174Y-162157013D01*
X137788705Y-162151640D01*
X137702770Y-162116044D01*
X137511508Y-162078000D01*
X137316491Y-162078000D01*
X137125229Y-162116044D01*
X136945059Y-162190673D01*
X136806219Y-162283442D01*
X137160047Y-162637270D01*
X137106993Y-162667901D01*
X137013901Y-162760993D01*
X136983270Y-162814047D01*
X136629442Y-162460219D01*
X136536673Y-162599059D01*
X136462044Y-162779229D01*
X136424000Y-162970491D01*
X136424000Y-163165508D01*
X136462044Y-163356770D01*
X136536673Y-163536939D01*
X136536680Y-163536953D01*
X136629441Y-163675779D01*
X136983269Y-163321951D01*
X137013901Y-163375007D01*
X137106993Y-163468099D01*
X137160045Y-163498729D01*
X136806219Y-163852556D01*
X136945060Y-163945326D01*
X137125229Y-164019955D01*
X137316491Y-164057999D01*
X137316495Y-164058000D01*
X137511505Y-164058000D01*
X137511508Y-164057999D01*
X137702770Y-164019955D01*
X137882940Y-163945326D01*
X138021779Y-163852556D01*
X137667952Y-163498729D01*
X137721007Y-163468099D01*
X137814099Y-163375007D01*
X137844729Y-163321952D01*
X138198556Y-163675779D01*
X138291326Y-163536940D01*
X138365955Y-163356770D01*
X138403999Y-163165508D01*
X138404000Y-163165504D01*
X138404000Y-162970495D01*
X138403999Y-162970491D01*
X138365955Y-162779229D01*
X138291326Y-162599060D01*
X138198556Y-162460219D01*
X137844729Y-162814045D01*
X137814099Y-162760993D01*
X137721007Y-162667901D01*
X137667952Y-162637270D01*
X138051972Y-162253250D01*
X138106489Y-162225472D01*
X138147112Y-162230301D01*
X138147806Y-162227712D01*
X138154072Y-162229391D01*
X138154074Y-162229392D01*
X138281368Y-162263500D01*
X138281370Y-162263500D01*
X138413150Y-162263500D01*
X138413152Y-162263500D01*
X138540446Y-162229392D01*
X138540448Y-162229390D01*
X138540450Y-162229390D01*
X138654569Y-162163503D01*
X138654569Y-162163502D01*
X138654574Y-162163500D01*
X138747760Y-162070314D01*
X138754004Y-162059500D01*
X138808505Y-161965101D01*
X138813652Y-161956186D01*
X138817755Y-161940875D01*
X138851080Y-161889561D01*
X138908202Y-161867636D01*
X138913381Y-161867500D01*
X145694683Y-161867500D01*
X145752874Y-161886407D01*
X145788838Y-161935907D01*
X145788838Y-161997093D01*
X145752874Y-162046593D01*
X145720308Y-162062125D01*
X145656493Y-162079225D01*
X145602809Y-162093609D01*
X145488690Y-162159496D01*
X145395496Y-162252690D01*
X145329609Y-162366809D01*
X145329608Y-162366814D01*
X145295500Y-162494108D01*
X145295500Y-162625892D01*
X145325579Y-162738151D01*
X145329609Y-162753190D01*
X145395496Y-162867309D01*
X145395498Y-162867311D01*
X145395500Y-162867314D01*
X145488686Y-162960500D01*
X145488688Y-162960501D01*
X145488690Y-162960503D01*
X145602810Y-163026390D01*
X145602808Y-163026390D01*
X145602812Y-163026391D01*
X145602814Y-163026392D01*
X145730108Y-163060500D01*
X145730110Y-163060500D01*
X145861890Y-163060500D01*
X145861892Y-163060500D01*
X145989186Y-163026392D01*
X145989188Y-163026390D01*
X145989190Y-163026390D01*
X146103309Y-162960503D01*
X146103309Y-162960502D01*
X146103314Y-162960500D01*
X146174319Y-162889494D01*
X146228834Y-162861719D01*
X146244321Y-162860500D01*
X154184861Y-162860500D01*
X154243052Y-162879407D01*
X154279016Y-162928907D01*
X154279016Y-162990093D01*
X154254866Y-163029501D01*
X154150542Y-163133826D01*
X154124020Y-163160348D01*
X154009058Y-163332402D01*
X153952732Y-163468386D01*
X153912995Y-163514912D01*
X153861268Y-163529500D01*
X141875521Y-163529500D01*
X141817330Y-163510593D01*
X141805523Y-163500509D01*
X141734514Y-163429500D01*
X141734511Y-163429498D01*
X141734509Y-163429496D01*
X141620389Y-163363609D01*
X141620391Y-163363609D01*
X141563722Y-163348425D01*
X141493092Y-163329500D01*
X141361308Y-163329500D01*
X141290678Y-163348425D01*
X141234009Y-163363609D01*
X141119890Y-163429496D01*
X141119885Y-163429500D01*
X141055186Y-163494199D01*
X141000669Y-163521976D01*
X140940237Y-163512404D01*
X140896973Y-163469139D01*
X140887402Y-163408707D01*
X140893720Y-163386307D01*
X140905955Y-163356770D01*
X140943999Y-163165508D01*
X140944000Y-163165504D01*
X140944000Y-162970495D01*
X140943999Y-162970491D01*
X140905955Y-162779229D01*
X140831326Y-162599060D01*
X140738556Y-162460219D01*
X140384729Y-162814045D01*
X140354099Y-162760993D01*
X140261007Y-162667901D01*
X140207951Y-162637269D01*
X140561780Y-162283441D01*
X140422953Y-162190680D01*
X140422939Y-162190673D01*
X140242770Y-162116044D01*
X140051508Y-162078000D01*
X139856491Y-162078000D01*
X139665229Y-162116044D01*
X139485059Y-162190673D01*
X139346219Y-162283442D01*
X139700047Y-162637270D01*
X139646993Y-162667901D01*
X139553901Y-162760993D01*
X139523270Y-162814047D01*
X139169442Y-162460219D01*
X139076673Y-162599059D01*
X139002044Y-162779229D01*
X138964000Y-162970491D01*
X138964000Y-163165508D01*
X139002044Y-163356770D01*
X139076673Y-163536939D01*
X139076680Y-163536953D01*
X139169441Y-163675779D01*
X139523269Y-163321951D01*
X139553901Y-163375007D01*
X139646993Y-163468099D01*
X139700045Y-163498729D01*
X139346219Y-163852556D01*
X139485060Y-163945326D01*
X139665229Y-164019955D01*
X139856491Y-164057999D01*
X139856495Y-164058000D01*
X140051505Y-164058000D01*
X140051508Y-164057999D01*
X140242770Y-164019955D01*
X140422940Y-163945326D01*
X140561779Y-163852556D01*
X140207952Y-163498729D01*
X140261007Y-163468099D01*
X140354099Y-163375007D01*
X140384729Y-163321952D01*
X140738555Y-163675778D01*
X140759033Y-163645132D01*
X140807083Y-163607252D01*
X140868221Y-163604850D01*
X140919095Y-163638842D01*
X140940273Y-163696246D01*
X140936976Y-163725754D01*
X140926700Y-163764105D01*
X140926700Y-163764108D01*
X140926700Y-163895892D01*
X140936767Y-163933463D01*
X140960809Y-164023190D01*
X141026696Y-164137309D01*
X141026698Y-164137311D01*
X141026700Y-164137314D01*
X141119886Y-164230500D01*
X141119888Y-164230501D01*
X141119890Y-164230503D01*
X141234010Y-164296390D01*
X141234008Y-164296390D01*
X141234012Y-164296391D01*
X141234014Y-164296392D01*
X141361308Y-164330500D01*
X141361310Y-164330500D01*
X141493090Y-164330500D01*
X141493092Y-164330500D01*
X141620386Y-164296392D01*
X141620388Y-164296390D01*
X141620390Y-164296390D01*
X141734509Y-164230503D01*
X141734509Y-164230502D01*
X141734514Y-164230500D01*
X141805519Y-164159494D01*
X141860034Y-164131719D01*
X141875521Y-164130500D01*
X153861268Y-164130500D01*
X153919459Y-164149407D01*
X153952732Y-164191614D01*
X154009058Y-164327597D01*
X154065244Y-164411686D01*
X154124023Y-164499655D01*
X154135866Y-164511498D01*
X154163642Y-164566013D01*
X154154071Y-164626445D01*
X154110806Y-164669710D01*
X154065861Y-164680500D01*
X131647805Y-164680500D01*
X131589614Y-164661593D01*
X131553650Y-164612093D01*
X131552178Y-164607123D01*
X131530392Y-164525814D01*
X131530390Y-164525811D01*
X131530390Y-164525809D01*
X131464503Y-164411690D01*
X131464501Y-164411688D01*
X131464500Y-164411686D01*
X131371314Y-164318500D01*
X131371311Y-164318498D01*
X131371309Y-164318496D01*
X131257189Y-164252609D01*
X131257191Y-164252609D01*
X131207799Y-164239375D01*
X131129892Y-164218500D01*
X130998108Y-164218500D01*
X130920200Y-164239375D01*
X130870809Y-164252609D01*
X130756690Y-164318496D01*
X130663496Y-164411690D01*
X130597609Y-164525809D01*
X130597608Y-164525814D01*
X130576634Y-164604093D01*
X130575822Y-164607123D01*
X130542498Y-164658437D01*
X130485376Y-164680364D01*
X130480195Y-164680500D01*
X108824139Y-164680500D01*
X108765948Y-164661593D01*
X108729984Y-164612093D01*
X108729984Y-164550907D01*
X108754133Y-164511498D01*
X108765977Y-164499655D01*
X108880941Y-164327598D01*
X108937268Y-164191614D01*
X108977005Y-164145088D01*
X109028732Y-164130500D01*
X119693679Y-164130500D01*
X119751870Y-164149407D01*
X119763676Y-164159490D01*
X119834686Y-164230500D01*
X119834688Y-164230501D01*
X119834690Y-164230503D01*
X119948810Y-164296390D01*
X119948808Y-164296390D01*
X119948812Y-164296391D01*
X119948814Y-164296392D01*
X120076108Y-164330500D01*
X120076110Y-164330500D01*
X120207890Y-164330500D01*
X120207892Y-164330500D01*
X120335186Y-164296392D01*
X120335188Y-164296390D01*
X120335190Y-164296390D01*
X120449309Y-164230503D01*
X120449309Y-164230502D01*
X120449314Y-164230500D01*
X120542500Y-164137314D01*
X120608392Y-164023186D01*
X120642500Y-163895892D01*
X120642500Y-163764108D01*
X120608392Y-163636814D01*
X120608390Y-163636811D01*
X120608390Y-163636809D01*
X120542503Y-163522690D01*
X120542501Y-163522688D01*
X120542500Y-163522686D01*
X120449314Y-163429500D01*
X120449311Y-163429498D01*
X120449309Y-163429496D01*
X120335189Y-163363609D01*
X120335191Y-163363609D01*
X120278522Y-163348425D01*
X120207892Y-163329500D01*
X120076108Y-163329500D01*
X120005478Y-163348425D01*
X119948809Y-163363609D01*
X119834690Y-163429496D01*
X119834689Y-163429497D01*
X119834686Y-163429499D01*
X119834686Y-163429500D01*
X119763680Y-163500505D01*
X119709166Y-163528281D01*
X119693679Y-163529500D01*
X109028732Y-163529500D01*
X108970541Y-163510593D01*
X108937268Y-163468386D01*
X108880941Y-163332402D01*
X108765979Y-163160348D01*
X108765977Y-163160345D01*
X108619655Y-163014023D01*
X108554504Y-162970491D01*
X121184000Y-162970491D01*
X121184000Y-163165508D01*
X121222044Y-163356770D01*
X121296673Y-163536939D01*
X121296680Y-163536953D01*
X121389441Y-163675779D01*
X121743269Y-163321951D01*
X121773901Y-163375007D01*
X121866993Y-163468099D01*
X121920045Y-163498729D01*
X121566219Y-163852556D01*
X121705060Y-163945326D01*
X121885229Y-164019955D01*
X122076491Y-164057999D01*
X122076495Y-164058000D01*
X122271505Y-164058000D01*
X122271508Y-164057999D01*
X122462770Y-164019955D01*
X122642940Y-163945326D01*
X122781779Y-163852556D01*
X122427952Y-163498729D01*
X122481007Y-163468099D01*
X122574099Y-163375007D01*
X122604729Y-163321952D01*
X122958556Y-163675779D01*
X123051326Y-163536940D01*
X123125955Y-163356770D01*
X123163999Y-163165508D01*
X123164000Y-163165504D01*
X123164000Y-162970495D01*
X123163999Y-162970491D01*
X123724000Y-162970491D01*
X123724000Y-163165508D01*
X123762044Y-163356770D01*
X123836673Y-163536939D01*
X123836680Y-163536953D01*
X123929441Y-163675779D01*
X124283269Y-163321951D01*
X124313901Y-163375007D01*
X124406993Y-163468099D01*
X124460045Y-163498729D01*
X124106219Y-163852556D01*
X124245060Y-163945326D01*
X124425229Y-164019955D01*
X124616491Y-164057999D01*
X124616495Y-164058000D01*
X124811505Y-164058000D01*
X124811508Y-164057999D01*
X125002770Y-164019955D01*
X125182940Y-163945326D01*
X125321779Y-163852556D01*
X124967952Y-163498729D01*
X125021007Y-163468099D01*
X125114099Y-163375007D01*
X125144729Y-163321952D01*
X125498556Y-163675779D01*
X125591326Y-163536940D01*
X125665955Y-163356770D01*
X125703999Y-163165508D01*
X125704000Y-163165504D01*
X125704000Y-162970495D01*
X125703999Y-162970491D01*
X126264000Y-162970491D01*
X126264000Y-163165508D01*
X126302044Y-163356770D01*
X126376673Y-163536939D01*
X126376680Y-163536953D01*
X126469441Y-163675779D01*
X126823269Y-163321951D01*
X126853901Y-163375007D01*
X126946993Y-163468099D01*
X127000045Y-163498729D01*
X126646219Y-163852556D01*
X126785060Y-163945326D01*
X126965229Y-164019955D01*
X127156491Y-164057999D01*
X127156495Y-164058000D01*
X127351505Y-164058000D01*
X127351508Y-164057999D01*
X127542770Y-164019955D01*
X127722940Y-163945326D01*
X127861779Y-163852556D01*
X127507952Y-163498729D01*
X127561007Y-163468099D01*
X127654099Y-163375007D01*
X127684729Y-163321952D01*
X128038556Y-163675779D01*
X128131326Y-163536940D01*
X128205955Y-163356770D01*
X128243999Y-163165508D01*
X128244000Y-163165504D01*
X128244000Y-162970495D01*
X128243999Y-162970491D01*
X128804000Y-162970491D01*
X128804000Y-163165508D01*
X128842044Y-163356770D01*
X128916673Y-163536939D01*
X128916680Y-163536953D01*
X129009441Y-163675779D01*
X129363269Y-163321951D01*
X129393901Y-163375007D01*
X129486993Y-163468099D01*
X129540045Y-163498729D01*
X129186219Y-163852556D01*
X129325060Y-163945326D01*
X129505229Y-164019955D01*
X129696491Y-164057999D01*
X129696495Y-164058000D01*
X129891505Y-164058000D01*
X129891508Y-164057999D01*
X130082770Y-164019955D01*
X130262940Y-163945326D01*
X130401779Y-163852556D01*
X130047952Y-163498729D01*
X130101007Y-163468099D01*
X130194099Y-163375007D01*
X130224729Y-163321952D01*
X130578556Y-163675779D01*
X130671326Y-163536940D01*
X130745955Y-163356770D01*
X130783999Y-163165508D01*
X130784000Y-163165504D01*
X130784000Y-162970495D01*
X130783999Y-162970491D01*
X130745955Y-162779229D01*
X130671326Y-162599060D01*
X130578556Y-162460219D01*
X130224729Y-162814045D01*
X130194099Y-162760993D01*
X130101007Y-162667901D01*
X130047951Y-162637269D01*
X130401780Y-162283441D01*
X130262953Y-162190680D01*
X130262939Y-162190673D01*
X130082770Y-162116044D01*
X129891508Y-162078000D01*
X129696491Y-162078000D01*
X129505229Y-162116044D01*
X129325059Y-162190673D01*
X129186219Y-162283442D01*
X129540047Y-162637270D01*
X129486993Y-162667901D01*
X129393901Y-162760993D01*
X129363270Y-162814047D01*
X129009442Y-162460219D01*
X128916673Y-162599059D01*
X128842044Y-162779229D01*
X128804000Y-162970491D01*
X128243999Y-162970491D01*
X128205955Y-162779229D01*
X128131326Y-162599060D01*
X128038556Y-162460219D01*
X127684729Y-162814045D01*
X127654099Y-162760993D01*
X127561007Y-162667901D01*
X127507951Y-162637269D01*
X127861780Y-162283441D01*
X127722953Y-162190680D01*
X127722939Y-162190673D01*
X127542770Y-162116044D01*
X127351508Y-162078000D01*
X127156491Y-162078000D01*
X126965229Y-162116044D01*
X126785059Y-162190673D01*
X126646219Y-162283442D01*
X127000047Y-162637270D01*
X126946993Y-162667901D01*
X126853901Y-162760993D01*
X126823270Y-162814047D01*
X126469442Y-162460219D01*
X126376673Y-162599059D01*
X126302044Y-162779229D01*
X126264000Y-162970491D01*
X125703999Y-162970491D01*
X125665955Y-162779229D01*
X125591326Y-162599060D01*
X125498556Y-162460219D01*
X125144729Y-162814045D01*
X125114099Y-162760993D01*
X125021007Y-162667901D01*
X124967951Y-162637269D01*
X125321780Y-162283441D01*
X125182953Y-162190680D01*
X125182939Y-162190673D01*
X125002770Y-162116044D01*
X124811508Y-162078000D01*
X124616491Y-162078000D01*
X124425229Y-162116044D01*
X124245059Y-162190673D01*
X124106219Y-162283442D01*
X124460047Y-162637270D01*
X124406993Y-162667901D01*
X124313901Y-162760993D01*
X124283270Y-162814047D01*
X123929442Y-162460219D01*
X123836673Y-162599059D01*
X123762044Y-162779229D01*
X123724000Y-162970491D01*
X123163999Y-162970491D01*
X123125955Y-162779229D01*
X123051326Y-162599060D01*
X122958556Y-162460219D01*
X122604729Y-162814045D01*
X122574099Y-162760993D01*
X122481007Y-162667901D01*
X122427951Y-162637269D01*
X122781780Y-162283441D01*
X122642953Y-162190680D01*
X122642939Y-162190673D01*
X122462770Y-162116044D01*
X122271508Y-162078000D01*
X122076491Y-162078000D01*
X121885229Y-162116044D01*
X121705059Y-162190673D01*
X121566219Y-162283442D01*
X121920047Y-162637270D01*
X121866993Y-162667901D01*
X121773901Y-162760993D01*
X121743270Y-162814047D01*
X121389442Y-162460219D01*
X121296673Y-162599059D01*
X121222044Y-162779229D01*
X121184000Y-162970491D01*
X108554504Y-162970491D01*
X108483152Y-162922815D01*
X108445273Y-162874766D01*
X108442871Y-162813628D01*
X108476863Y-162762754D01*
X108534267Y-162741576D01*
X108538154Y-162741500D01*
X120605363Y-162741500D01*
X120605363Y-162741499D01*
X120681789Y-162721021D01*
X120750311Y-162681460D01*
X120806260Y-162625511D01*
X121863075Y-161568696D01*
X121917592Y-161540919D01*
X121933079Y-161539700D01*
X128085522Y-161539700D01*
X128143713Y-161558607D01*
X128179677Y-161608107D01*
X128181148Y-161613074D01*
X128184608Y-161625988D01*
X128184609Y-161625989D01*
X128250496Y-161740109D01*
X128250498Y-161740111D01*
X128250500Y-161740114D01*
X128343686Y-161833300D01*
X128343688Y-161833301D01*
X128343690Y-161833303D01*
X128457810Y-161899190D01*
X128457808Y-161899190D01*
X128457812Y-161899191D01*
X128457814Y-161899192D01*
X128585108Y-161933300D01*
X128585110Y-161933300D01*
X128716890Y-161933300D01*
X128716892Y-161933300D01*
X128844186Y-161899192D01*
X128844188Y-161899190D01*
X128844190Y-161899190D01*
X128958309Y-161833303D01*
X128958309Y-161833302D01*
X128958314Y-161833300D01*
X129051500Y-161740114D01*
X129103147Y-161650659D01*
X129117390Y-161625990D01*
X129117390Y-161625988D01*
X129117392Y-161625986D01*
X129141268Y-161536875D01*
X129174592Y-161485563D01*
X129231714Y-161463636D01*
X129236895Y-161463500D01*
X130827643Y-161463500D01*
X130854395Y-161472192D01*
G37*
%TD.AperFunction*%
%TA.AperFunction,Conductor*%
G36*
X154044818Y-159360730D02*
G01*
X154062373Y-159361420D01*
X154073191Y-159369948D01*
X154086297Y-159374207D01*
X154110422Y-159399300D01*
X154124018Y-159419649D01*
X154124020Y-159419651D01*
X154124023Y-159419655D01*
X154243816Y-159539448D01*
X154271592Y-159593963D01*
X154262021Y-159654395D01*
X154243815Y-159679454D01*
X153089765Y-160833504D01*
X153035248Y-160861281D01*
X153019761Y-160862500D01*
X140205222Y-160862500D01*
X140147031Y-160843593D01*
X140111067Y-160794093D01*
X140111067Y-160732907D01*
X140113757Y-160725617D01*
X140115590Y-160721191D01*
X140115590Y-160721188D01*
X140115592Y-160721186D01*
X140149700Y-160593892D01*
X140149700Y-160462108D01*
X140120497Y-160353120D01*
X140123700Y-160292022D01*
X140162205Y-160244472D01*
X140216124Y-160228500D01*
X142869963Y-160228500D01*
X142869963Y-160228499D01*
X142946389Y-160208021D01*
X143014733Y-160168562D01*
X143064232Y-160155300D01*
X143169490Y-160155300D01*
X143169492Y-160155300D01*
X143296786Y-160121192D01*
X143296788Y-160121190D01*
X143296790Y-160121190D01*
X143410909Y-160055303D01*
X143410909Y-160055302D01*
X143410914Y-160055300D01*
X143504100Y-159962114D01*
X143569992Y-159847986D01*
X143604100Y-159720692D01*
X143604100Y-159588908D01*
X143574897Y-159479920D01*
X143578100Y-159418822D01*
X143616605Y-159371272D01*
X143670524Y-159355300D01*
X154028106Y-159355300D01*
X154044818Y-159360730D01*
G37*
%TD.AperFunction*%
%TA.AperFunction,Conductor*%
G36*
X131124400Y-154223407D02*
G01*
X131160364Y-154272907D01*
X131160364Y-154334093D01*
X131136214Y-154373501D01*
X131085216Y-154424500D01*
X131049662Y-154460054D01*
X131049661Y-154460055D01*
X130983774Y-154574174D01*
X130983773Y-154574179D01*
X130949665Y-154701473D01*
X130949665Y-154833257D01*
X130968789Y-154904628D01*
X130983774Y-154960555D01*
X131049661Y-155074674D01*
X131049663Y-155074676D01*
X131049665Y-155074679D01*
X131142851Y-155167865D01*
X131142853Y-155167866D01*
X131142855Y-155167868D01*
X131256975Y-155233755D01*
X131256973Y-155233755D01*
X131256977Y-155233756D01*
X131256979Y-155233757D01*
X131384273Y-155267865D01*
X131384275Y-155267865D01*
X131516055Y-155267865D01*
X131516057Y-155267865D01*
X131563379Y-155255185D01*
X131591474Y-155256657D01*
X131619592Y-155256657D01*
X131621778Y-155258245D01*
X131624478Y-155258387D01*
X131646337Y-155276088D01*
X131669092Y-155292621D01*
X131669927Y-155295191D01*
X131672028Y-155296893D01*
X131683028Y-155334027D01*
X131688001Y-155339000D01*
X132462999Y-155339000D01*
X132463000Y-155338999D01*
X132463000Y-154664001D01*
X132713000Y-154664001D01*
X132713000Y-155338999D01*
X132713001Y-155339000D01*
X133487998Y-155339000D01*
X133487999Y-155338999D01*
X133487999Y-155059796D01*
X133487998Y-155059788D01*
X133720000Y-155059788D01*
X133720000Y-155338999D01*
X133720001Y-155339000D01*
X134494999Y-155339000D01*
X134495000Y-155338999D01*
X134495000Y-154664001D01*
X134745000Y-154664001D01*
X134745000Y-155338999D01*
X134745001Y-155339000D01*
X135519998Y-155339000D01*
X135519999Y-155338999D01*
X135519999Y-155059796D01*
X135519998Y-155059788D01*
X135752000Y-155059788D01*
X135752000Y-155338999D01*
X135752001Y-155339000D01*
X136526999Y-155339000D01*
X136527000Y-155338999D01*
X136527000Y-154664001D01*
X136777000Y-154664001D01*
X136777000Y-155338999D01*
X136777001Y-155339000D01*
X137551998Y-155339000D01*
X137551999Y-155338999D01*
X137551999Y-155059796D01*
X137551998Y-155059788D01*
X137784000Y-155059788D01*
X137784000Y-155338999D01*
X137784001Y-155339000D01*
X138558999Y-155339000D01*
X138559000Y-155338999D01*
X138559000Y-154664001D01*
X138809000Y-154664001D01*
X138809000Y-155338999D01*
X138809001Y-155339000D01*
X139583998Y-155339000D01*
X139583999Y-155338999D01*
X139583999Y-155059796D01*
X139583998Y-155059788D01*
X139816000Y-155059788D01*
X139816000Y-155338999D01*
X139816001Y-155339000D01*
X140590999Y-155339000D01*
X140591000Y-155338999D01*
X140591000Y-154664001D01*
X140590999Y-154664000D01*
X140211796Y-154664000D01*
X140181399Y-154666850D01*
X140181397Y-154666850D01*
X140053352Y-154711654D01*
X139944209Y-154792207D01*
X139944207Y-154792209D01*
X139863654Y-154901352D01*
X139818850Y-155029398D01*
X139816000Y-155059788D01*
X139583998Y-155059788D01*
X139581149Y-155029399D01*
X139581149Y-155029397D01*
X139536345Y-154901352D01*
X139455792Y-154792209D01*
X139455790Y-154792207D01*
X139346647Y-154711654D01*
X139218601Y-154666850D01*
X139188211Y-154664000D01*
X138809001Y-154664000D01*
X138809000Y-154664001D01*
X138559000Y-154664001D01*
X138558999Y-154664000D01*
X138179796Y-154664000D01*
X138149399Y-154666850D01*
X138149397Y-154666850D01*
X138021352Y-154711654D01*
X137912209Y-154792207D01*
X137912207Y-154792209D01*
X137831654Y-154901352D01*
X137786850Y-155029398D01*
X137784000Y-155059788D01*
X137551998Y-155059788D01*
X137549149Y-155029399D01*
X137549149Y-155029397D01*
X137504345Y-154901352D01*
X137423792Y-154792209D01*
X137423790Y-154792207D01*
X137314647Y-154711654D01*
X137186601Y-154666850D01*
X137156211Y-154664000D01*
X136777001Y-154664000D01*
X136777000Y-154664001D01*
X136527000Y-154664001D01*
X136526999Y-154664000D01*
X136147796Y-154664000D01*
X136117399Y-154666850D01*
X136117397Y-154666850D01*
X135989352Y-154711654D01*
X135880209Y-154792207D01*
X135880207Y-154792209D01*
X135799654Y-154901352D01*
X135754850Y-155029398D01*
X135752000Y-155059788D01*
X135519998Y-155059788D01*
X135517149Y-155029399D01*
X135517149Y-155029397D01*
X135472345Y-154901352D01*
X135391792Y-154792209D01*
X135391790Y-154792207D01*
X135282647Y-154711654D01*
X135154601Y-154666850D01*
X135124211Y-154664000D01*
X134745001Y-154664000D01*
X134745000Y-154664001D01*
X134495000Y-154664001D01*
X134494999Y-154664000D01*
X134115796Y-154664000D01*
X134085399Y-154666850D01*
X134085397Y-154666850D01*
X133957352Y-154711654D01*
X133848209Y-154792207D01*
X133848207Y-154792209D01*
X133767654Y-154901352D01*
X133722850Y-155029398D01*
X133720000Y-155059788D01*
X133487998Y-155059788D01*
X133485149Y-155029399D01*
X133485149Y-155029397D01*
X133440345Y-154901352D01*
X133359792Y-154792209D01*
X133359790Y-154792207D01*
X133250647Y-154711654D01*
X133122601Y-154666850D01*
X133092211Y-154664000D01*
X132713001Y-154664000D01*
X132713000Y-154664001D01*
X132463000Y-154664001D01*
X132462999Y-154664000D01*
X132083796Y-154664000D01*
X132053393Y-154666850D01*
X132047516Y-154668135D01*
X132047151Y-154666468D01*
X131993819Y-154667661D01*
X131943528Y-154632812D01*
X131923325Y-154575059D01*
X131923300Y-154572846D01*
X131923300Y-154303500D01*
X131942207Y-154245309D01*
X131991707Y-154209345D01*
X132022300Y-154204500D01*
X141073076Y-154204500D01*
X141131267Y-154223407D01*
X141167231Y-154272907D01*
X141168702Y-154329120D01*
X141139500Y-154438108D01*
X141139500Y-154438109D01*
X141139500Y-154565000D01*
X141120593Y-154623191D01*
X141071093Y-154659155D01*
X141040500Y-154664000D01*
X140841001Y-154664000D01*
X140841000Y-154664001D01*
X140841000Y-155338999D01*
X140841001Y-155339000D01*
X141615998Y-155339000D01*
X141615999Y-155338999D01*
X141615999Y-155103155D01*
X141617443Y-155098710D01*
X141616409Y-155094152D01*
X141626777Y-155069980D01*
X141634906Y-155044964D01*
X141638687Y-155042216D01*
X141640530Y-155037922D01*
X141655950Y-155029674D01*
X141684406Y-155009000D01*
X141693095Y-155006609D01*
X141702391Y-155004500D01*
X141705892Y-155004500D01*
X141725232Y-154999317D01*
X141727096Y-154998895D01*
X141755749Y-155001511D01*
X141784477Y-155003016D01*
X141786032Y-155004275D01*
X141788028Y-155004458D01*
X141809661Y-155023408D01*
X141832028Y-155041520D01*
X141832620Y-155043521D01*
X141834052Y-155044775D01*
X141837520Y-155060062D01*
X141848000Y-155095441D01*
X141848000Y-155338999D01*
X141848001Y-155339000D01*
X143647998Y-155339000D01*
X143647999Y-155338999D01*
X143647999Y-155059796D01*
X143645149Y-155029399D01*
X143645149Y-155029397D01*
X143622895Y-154965797D01*
X143622868Y-154964634D01*
X143622185Y-154963693D01*
X143622185Y-154934141D01*
X143621523Y-154904627D01*
X143622185Y-154903671D01*
X143622185Y-154902507D01*
X143639557Y-154878595D01*
X143656367Y-154854333D01*
X143657464Y-154853948D01*
X143658149Y-154853007D01*
X143686250Y-154843876D01*
X143714119Y-154834125D01*
X143716340Y-154834100D01*
X143811660Y-154834100D01*
X143869851Y-154853007D01*
X143905815Y-154902507D01*
X143905815Y-154963693D01*
X143905105Y-154965797D01*
X143882850Y-155029398D01*
X143880000Y-155059788D01*
X143880000Y-155338999D01*
X143880001Y-155339000D01*
X145679998Y-155339000D01*
X145679999Y-155338999D01*
X145679999Y-155059796D01*
X145677149Y-155029399D01*
X145677149Y-155029397D01*
X145654895Y-154965797D01*
X145654868Y-154964634D01*
X145654185Y-154963693D01*
X145654185Y-154934141D01*
X145653523Y-154904627D01*
X145654185Y-154903671D01*
X145654185Y-154902507D01*
X145671557Y-154878595D01*
X145688367Y-154854333D01*
X145689464Y-154853948D01*
X145690149Y-154853007D01*
X145718250Y-154843876D01*
X145746119Y-154834125D01*
X145748340Y-154834100D01*
X145849259Y-154834100D01*
X145907450Y-154853007D01*
X145943414Y-154902507D01*
X145943414Y-154963693D01*
X145942704Y-154965797D01*
X145914850Y-155045398D01*
X145912000Y-155075788D01*
X145912000Y-155354999D01*
X145912001Y-155355000D01*
X147711998Y-155355000D01*
X147711999Y-155354999D01*
X147711999Y-155075796D01*
X147709149Y-155045399D01*
X147709149Y-155045398D01*
X147681296Y-154965797D01*
X147679924Y-154904628D01*
X147714768Y-154854333D01*
X147772520Y-154834125D01*
X147774741Y-154834100D01*
X151900879Y-154834100D01*
X151959070Y-154853007D01*
X151970876Y-154863090D01*
X152041886Y-154934100D01*
X152140494Y-154991032D01*
X152181435Y-155036501D01*
X152187831Y-155097351D01*
X152160998Y-155146772D01*
X151307881Y-155999890D01*
X151253364Y-156027667D01*
X151192932Y-156018096D01*
X151188377Y-156015623D01*
X151069187Y-155946808D01*
X151019941Y-155933613D01*
X150941892Y-155912700D01*
X150810108Y-155912700D01*
X150742397Y-155930843D01*
X150682809Y-155946809D01*
X150568690Y-156012696D01*
X150568689Y-156012697D01*
X150568686Y-156012699D01*
X150568686Y-156012700D01*
X150497680Y-156083705D01*
X150443166Y-156111481D01*
X150427679Y-156112700D01*
X147779360Y-156112700D01*
X147721169Y-156093793D01*
X147685205Y-156044293D01*
X147685205Y-155983107D01*
X147685915Y-155981003D01*
X147709149Y-155914601D01*
X147711999Y-155884211D01*
X147712000Y-155884210D01*
X147712000Y-155605001D01*
X147711999Y-155605000D01*
X145912002Y-155605000D01*
X145912001Y-155605001D01*
X145912001Y-155884203D01*
X145914850Y-155914600D01*
X145914850Y-155914602D01*
X145938085Y-155981003D01*
X145938111Y-155982165D01*
X145938795Y-155983107D01*
X145938795Y-156012658D01*
X145939457Y-156042173D01*
X145938795Y-156043128D01*
X145938795Y-156044293D01*
X145921422Y-156068204D01*
X145904613Y-156092467D01*
X145903515Y-156092851D01*
X145902831Y-156093793D01*
X145874729Y-156102923D01*
X145846861Y-156112675D01*
X145844640Y-156112700D01*
X145741761Y-156112700D01*
X145683570Y-156093793D01*
X145647606Y-156044293D01*
X145647606Y-155983107D01*
X145648317Y-155981002D01*
X145677149Y-155898603D01*
X145679999Y-155868211D01*
X145680000Y-155868210D01*
X145680000Y-155589001D01*
X145679999Y-155589000D01*
X143880002Y-155589000D01*
X143880001Y-155589001D01*
X143880001Y-155868203D01*
X143882850Y-155898600D01*
X143882851Y-155898606D01*
X143911683Y-155981002D01*
X143912291Y-156008129D01*
X143914886Y-156035156D01*
X143912971Y-156038404D01*
X143913056Y-156042172D01*
X143897603Y-156064477D01*
X143883817Y-156087866D01*
X143880539Y-156089107D01*
X143878212Y-156092467D01*
X143827699Y-156112247D01*
X143822980Y-156112700D01*
X143759238Y-156112700D01*
X143723654Y-156122234D01*
X143715451Y-156123022D01*
X143693235Y-156118090D01*
X143670512Y-156116899D01*
X143663956Y-156111590D01*
X143655720Y-156109762D01*
X143640645Y-156092713D01*
X143622962Y-156078394D01*
X143620778Y-156070245D01*
X143615190Y-156063925D01*
X143613015Y-156041270D01*
X143607127Y-156019293D01*
X143609667Y-156006392D01*
X143609344Y-156003019D01*
X143610827Y-156000501D01*
X143612546Y-155991778D01*
X143645149Y-155898601D01*
X143647999Y-155868211D01*
X143648000Y-155868210D01*
X143648000Y-155589001D01*
X143647999Y-155589000D01*
X142873001Y-155589000D01*
X142873000Y-155589001D01*
X142873000Y-156263998D01*
X142873001Y-156263999D01*
X143252200Y-156263999D01*
X143277592Y-156261618D01*
X143337293Y-156275011D01*
X143377721Y-156320937D01*
X143383433Y-156381855D01*
X143356838Y-156430189D01*
X143152525Y-156634503D01*
X143098008Y-156662281D01*
X143082521Y-156663500D01*
X142241419Y-156663500D01*
X142241419Y-156662750D01*
X142185082Y-156647292D01*
X142146864Y-156599511D01*
X142140500Y-156564589D01*
X142140500Y-156448909D01*
X142140499Y-156448905D01*
X142133808Y-156423934D01*
X142123852Y-156386776D01*
X142127053Y-156325676D01*
X142165558Y-156278126D01*
X142224659Y-156262290D01*
X142228722Y-156262587D01*
X142243788Y-156263999D01*
X142622998Y-156263999D01*
X142623000Y-156263998D01*
X142623000Y-155589001D01*
X142622999Y-155589000D01*
X141848002Y-155589000D01*
X141848001Y-155589001D01*
X141848001Y-155868203D01*
X141850850Y-155898602D01*
X141852011Y-155903915D01*
X141851420Y-155909853D01*
X141853813Y-155915319D01*
X141848441Y-155939826D01*
X141845959Y-155964800D01*
X141841990Y-155969257D01*
X141840713Y-155975086D01*
X141821960Y-155991757D01*
X141805275Y-156010500D01*
X141799445Y-156011773D01*
X141794986Y-156015738D01*
X141774067Y-156017317D01*
X141745500Y-156023559D01*
X141734096Y-156021748D01*
X141731857Y-156021257D01*
X141705892Y-156014300D01*
X141700115Y-156014300D01*
X141689640Y-156012004D01*
X141672044Y-156001695D01*
X141652645Y-155995393D01*
X141646242Y-155986581D01*
X141636847Y-155981077D01*
X141628670Y-155962395D01*
X141616681Y-155945893D01*
X141616073Y-155933613D01*
X141612315Y-155925025D01*
X141615035Y-155912614D01*
X141614648Y-155904794D01*
X141612587Y-155904601D01*
X141615999Y-155868211D01*
X141616000Y-155868210D01*
X141616000Y-155589001D01*
X141615999Y-155589000D01*
X140841001Y-155589000D01*
X140841000Y-155589001D01*
X140841000Y-156263998D01*
X140841001Y-156263999D01*
X141060027Y-156263999D01*
X141118218Y-156282906D01*
X141154182Y-156332406D01*
X141155653Y-156388620D01*
X141139501Y-156448905D01*
X141139500Y-156448909D01*
X141139500Y-156564500D01*
X141120593Y-156622691D01*
X141071093Y-156658655D01*
X141040500Y-156663500D01*
X140299500Y-156663500D01*
X140241309Y-156644593D01*
X140205345Y-156595093D01*
X140200500Y-156564500D01*
X140200500Y-156499709D01*
X140200500Y-156499708D01*
X140170734Y-156388619D01*
X140173937Y-156327521D01*
X140212442Y-156279971D01*
X140266361Y-156263999D01*
X140590999Y-156263999D01*
X140591000Y-156263998D01*
X140591000Y-155589001D01*
X140590999Y-155589000D01*
X139816002Y-155589000D01*
X139816001Y-155589001D01*
X139816001Y-155868203D01*
X139818850Y-155898600D01*
X139818851Y-155898606D01*
X139831027Y-155933402D01*
X139831053Y-155934564D01*
X139831738Y-155935507D01*
X139831738Y-155965078D01*
X139832400Y-155994572D01*
X139831738Y-155995527D01*
X139831738Y-155996693D01*
X139814358Y-156020614D01*
X139797556Y-156044867D01*
X139796458Y-156045251D01*
X139795774Y-156046193D01*
X139767672Y-156055323D01*
X139739804Y-156065075D01*
X139737583Y-156065100D01*
X139662417Y-156065100D01*
X139604226Y-156046193D01*
X139568262Y-155996693D01*
X139568262Y-155935507D01*
X139568973Y-155933402D01*
X139581149Y-155898603D01*
X139583999Y-155868211D01*
X139584000Y-155868210D01*
X139584000Y-155589001D01*
X139583999Y-155589000D01*
X138809001Y-155589000D01*
X138809000Y-155589001D01*
X138809000Y-156263998D01*
X138809001Y-156263999D01*
X139133639Y-156263999D01*
X139160366Y-156272683D01*
X139187510Y-156279939D01*
X139189230Y-156282061D01*
X139191830Y-156282906D01*
X139208346Y-156305639D01*
X139226043Y-156327466D01*
X139226186Y-156330193D01*
X139227794Y-156332406D01*
X139229280Y-156388563D01*
X139199500Y-156499708D01*
X139199500Y-156499970D01*
X139197764Y-156506465D01*
X139184445Y-156527000D01*
X139173903Y-156549077D01*
X139172126Y-156550901D01*
X139088525Y-156634503D01*
X139034009Y-156662281D01*
X139018521Y-156663500D01*
X138179725Y-156663500D01*
X138149305Y-156666353D01*
X138149296Y-156666355D01*
X138021116Y-156711207D01*
X137911855Y-156791845D01*
X137911845Y-156791855D01*
X137831207Y-156901116D01*
X137786355Y-157029296D01*
X137786353Y-157029305D01*
X137783500Y-157059725D01*
X137783500Y-157868274D01*
X137786353Y-157898694D01*
X137786355Y-157898703D01*
X137831207Y-158026883D01*
X137911845Y-158136144D01*
X137911847Y-158136146D01*
X137911850Y-158136150D01*
X137911853Y-158136152D01*
X137911855Y-158136154D01*
X138021116Y-158216792D01*
X138021117Y-158216792D01*
X138021118Y-158216793D01*
X138149301Y-158261646D01*
X138179725Y-158264499D01*
X138179727Y-158264500D01*
X138179734Y-158264500D01*
X139188273Y-158264500D01*
X139188273Y-158264499D01*
X139218699Y-158261646D01*
X139346882Y-158216793D01*
X139456150Y-158136150D01*
X139536793Y-158026882D01*
X139581646Y-157898699D01*
X139584499Y-157868273D01*
X139584500Y-157868273D01*
X139584500Y-157165100D01*
X139589345Y-157150188D01*
X139589345Y-157134507D01*
X139598561Y-157121821D01*
X139603407Y-157106909D01*
X139616092Y-157097692D01*
X139625309Y-157085007D01*
X139640221Y-157080161D01*
X139652907Y-157070945D01*
X139683500Y-157066100D01*
X139716500Y-157066100D01*
X139774691Y-157085007D01*
X139810655Y-157134507D01*
X139815500Y-157165100D01*
X139815500Y-157868274D01*
X139818353Y-157898694D01*
X139818355Y-157898703D01*
X139863207Y-158026883D01*
X139943845Y-158136144D01*
X139943847Y-158136146D01*
X139943850Y-158136150D01*
X139943853Y-158136152D01*
X139943855Y-158136154D01*
X140053116Y-158216792D01*
X140053117Y-158216792D01*
X140053118Y-158216793D01*
X140181301Y-158261646D01*
X140211725Y-158264499D01*
X140211727Y-158264500D01*
X140211734Y-158264500D01*
X141220273Y-158264500D01*
X141220273Y-158264499D01*
X141250699Y-158261646D01*
X141378882Y-158216793D01*
X141488150Y-158136150D01*
X141568793Y-158026882D01*
X141613646Y-157898699D01*
X141616499Y-157868273D01*
X141616500Y-157868273D01*
X141616500Y-157113889D01*
X141617931Y-157109481D01*
X141616903Y-157104963D01*
X141627267Y-157080749D01*
X141635407Y-157055698D01*
X141639156Y-157052973D01*
X141640980Y-157048714D01*
X141656331Y-157040495D01*
X141684907Y-157019734D01*
X141693521Y-157017360D01*
X141702568Y-157015300D01*
X141705892Y-157015300D01*
X141724695Y-157010261D01*
X141726521Y-157009846D01*
X141755209Y-157012442D01*
X141783977Y-157013950D01*
X141785502Y-157015185D01*
X141787457Y-157015362D01*
X141809137Y-157034323D01*
X141831528Y-157052454D01*
X141832108Y-157054413D01*
X141833513Y-157055642D01*
X141836971Y-157070830D01*
X141847500Y-157106375D01*
X141847500Y-157868274D01*
X141850353Y-157898694D01*
X141850355Y-157898703D01*
X141895207Y-158026883D01*
X141975845Y-158136144D01*
X141975847Y-158136146D01*
X141975850Y-158136150D01*
X141975853Y-158136152D01*
X141975855Y-158136154D01*
X142085116Y-158216792D01*
X142085117Y-158216792D01*
X142085118Y-158216793D01*
X142213301Y-158261646D01*
X142243725Y-158264499D01*
X142243727Y-158264500D01*
X142243734Y-158264500D01*
X143252273Y-158264500D01*
X143252273Y-158264499D01*
X143282699Y-158261646D01*
X143410882Y-158216793D01*
X143520150Y-158136150D01*
X143600793Y-158026882D01*
X143645646Y-157898699D01*
X143648499Y-157868273D01*
X143648500Y-157868273D01*
X143648500Y-157059727D01*
X143648499Y-157059725D01*
X143648121Y-157055698D01*
X143647467Y-157048714D01*
X143646736Y-157040919D01*
X143649492Y-157028628D01*
X143647522Y-157016188D01*
X143656026Y-156999497D01*
X143660126Y-156981217D01*
X143675299Y-156961671D01*
X143698443Y-156938527D01*
X143723501Y-156913468D01*
X143778015Y-156885692D01*
X143838447Y-156895263D01*
X143881712Y-156938527D01*
X143891284Y-156998959D01*
X143886949Y-157016166D01*
X143882355Y-157029296D01*
X143882353Y-157029305D01*
X143879500Y-157059725D01*
X143879500Y-157868274D01*
X143882353Y-157898694D01*
X143882355Y-157898703D01*
X143927207Y-158026883D01*
X144007845Y-158136144D01*
X144007847Y-158136146D01*
X144007850Y-158136150D01*
X144007853Y-158136152D01*
X144007855Y-158136154D01*
X144117116Y-158216792D01*
X144117117Y-158216792D01*
X144117118Y-158216793D01*
X144245301Y-158261646D01*
X144275725Y-158264499D01*
X144275727Y-158264500D01*
X144275734Y-158264500D01*
X145114521Y-158264500D01*
X145172712Y-158283407D01*
X145184525Y-158293496D01*
X145440631Y-158549602D01*
X145466254Y-158593983D01*
X145475818Y-158629677D01*
X145472615Y-158690779D01*
X145434110Y-158738329D01*
X145380191Y-158754300D01*
X137095813Y-158754300D01*
X137037622Y-158735393D01*
X137001658Y-158685893D01*
X137001658Y-158624707D01*
X137028649Y-158586519D01*
X137026724Y-158584594D01*
X137031310Y-158580007D01*
X137031313Y-158580006D01*
X137124499Y-158486820D01*
X137190391Y-158372692D01*
X137210063Y-158299269D01*
X137243385Y-158247958D01*
X137272987Y-158231451D01*
X137314882Y-158216793D01*
X137424150Y-158136150D01*
X137504793Y-158026882D01*
X137549646Y-157898699D01*
X137552499Y-157868273D01*
X137552500Y-157868273D01*
X137552500Y-157059727D01*
X137552499Y-157059725D01*
X137549646Y-157029301D01*
X137504793Y-156901118D01*
X137494580Y-156887280D01*
X137424154Y-156791855D01*
X137424152Y-156791853D01*
X137424150Y-156791850D01*
X137424146Y-156791847D01*
X137424144Y-156791845D01*
X137314883Y-156711207D01*
X137186703Y-156666355D01*
X137186694Y-156666353D01*
X137156274Y-156663500D01*
X137156266Y-156663500D01*
X136147734Y-156663500D01*
X136147725Y-156663500D01*
X136117305Y-156666353D01*
X136117296Y-156666355D01*
X135989116Y-156711207D01*
X135879855Y-156791845D01*
X135879845Y-156791855D01*
X135799207Y-156901116D01*
X135754355Y-157029296D01*
X135754353Y-157029305D01*
X135751500Y-157059725D01*
X135751500Y-157868274D01*
X135754353Y-157898694D01*
X135754355Y-157898703D01*
X135799207Y-158026883D01*
X135879845Y-158136144D01*
X135879847Y-158136146D01*
X135879850Y-158136150D01*
X135879853Y-158136152D01*
X135879855Y-158136154D01*
X135989116Y-158216792D01*
X135989117Y-158216792D01*
X135989118Y-158216793D01*
X136117301Y-158261646D01*
X136147725Y-158264499D01*
X136147727Y-158264500D01*
X136147734Y-158264500D01*
X136152652Y-158264500D01*
X136210843Y-158283407D01*
X136246807Y-158332907D01*
X136248272Y-158337853D01*
X136254458Y-158360940D01*
X136257608Y-158372696D01*
X136323495Y-158486815D01*
X136323497Y-158486817D01*
X136323499Y-158486820D01*
X136416685Y-158580006D01*
X136416687Y-158580007D01*
X136421274Y-158584594D01*
X136419236Y-158586631D01*
X136447106Y-158627176D01*
X136445509Y-158688340D01*
X136408265Y-158736884D01*
X136352185Y-158754300D01*
X132597250Y-158754300D01*
X132539059Y-158735393D01*
X132503095Y-158685893D01*
X132501624Y-158680925D01*
X132495592Y-158658415D01*
X132495592Y-158658414D01*
X132429700Y-158544286D01*
X132336514Y-158451100D01*
X132336511Y-158451098D01*
X132333286Y-158449236D01*
X132331500Y-158447252D01*
X132331365Y-158447149D01*
X132331384Y-158447123D01*
X132292345Y-158403766D01*
X132285951Y-158342915D01*
X132316544Y-158289928D01*
X132372440Y-158265042D01*
X132382787Y-158264500D01*
X133092273Y-158264500D01*
X133092273Y-158264499D01*
X133122699Y-158261646D01*
X133250882Y-158216793D01*
X133360150Y-158136150D01*
X133440793Y-158026882D01*
X133485646Y-157898699D01*
X133488499Y-157868273D01*
X133488500Y-157868273D01*
X133488500Y-157139781D01*
X133491538Y-157130428D01*
X133490363Y-157120665D01*
X133500788Y-157101959D01*
X133507407Y-157081590D01*
X133515363Y-157075808D01*
X133520151Y-157067220D01*
X133535454Y-157061212D01*
X133556907Y-157045626D01*
X133575664Y-157041491D01*
X133581560Y-157040781D01*
X133592637Y-157040781D01*
X133601679Y-157038358D01*
X133608664Y-157037517D01*
X133632108Y-157042131D01*
X133655976Y-157043381D01*
X133661600Y-157047935D01*
X133668697Y-157049332D01*
X133684950Y-157066842D01*
X133703527Y-157081885D01*
X133705689Y-157089186D01*
X133710322Y-157094177D01*
X133712482Y-157112116D01*
X133719500Y-157135807D01*
X133719500Y-157868274D01*
X133722353Y-157898694D01*
X133722355Y-157898703D01*
X133767207Y-158026883D01*
X133847845Y-158136144D01*
X133847847Y-158136146D01*
X133847850Y-158136150D01*
X133847853Y-158136152D01*
X133847855Y-158136154D01*
X133957116Y-158216792D01*
X133957117Y-158216792D01*
X133957118Y-158216793D01*
X134085301Y-158261646D01*
X134115725Y-158264499D01*
X134115727Y-158264500D01*
X134115734Y-158264500D01*
X135124273Y-158264500D01*
X135124273Y-158264499D01*
X135154699Y-158261646D01*
X135282882Y-158216793D01*
X135392150Y-158136150D01*
X135472793Y-158026882D01*
X135517646Y-157898699D01*
X135520499Y-157868273D01*
X135520500Y-157868273D01*
X135520500Y-157059727D01*
X135520499Y-157059725D01*
X135517646Y-157029301D01*
X135472793Y-156901118D01*
X135462580Y-156887280D01*
X135392154Y-156791855D01*
X135392152Y-156791853D01*
X135392150Y-156791850D01*
X135392146Y-156791847D01*
X135392144Y-156791845D01*
X135282883Y-156711207D01*
X135154703Y-156666355D01*
X135154694Y-156666353D01*
X135124274Y-156663500D01*
X135124266Y-156663500D01*
X134285479Y-156663500D01*
X134227288Y-156644593D01*
X134215475Y-156634504D01*
X134035710Y-156454739D01*
X134010087Y-156410356D01*
X134009065Y-156406543D01*
X134003973Y-156387536D01*
X134007176Y-156326434D01*
X134045683Y-156278885D01*
X134104784Y-156263051D01*
X134108852Y-156263348D01*
X134115798Y-156263999D01*
X134494998Y-156263999D01*
X134495000Y-156263998D01*
X134495000Y-155589001D01*
X134745000Y-155589001D01*
X134745000Y-156263998D01*
X134745001Y-156263999D01*
X135124203Y-156263999D01*
X135154600Y-156261149D01*
X135154602Y-156261149D01*
X135282647Y-156216345D01*
X135391790Y-156135792D01*
X135391792Y-156135790D01*
X135472345Y-156026647D01*
X135517149Y-155898601D01*
X135519999Y-155868211D01*
X135520000Y-155868210D01*
X135520000Y-155589001D01*
X135752001Y-155589001D01*
X135752001Y-155868203D01*
X135754850Y-155898600D01*
X135754850Y-155898602D01*
X135799654Y-156026647D01*
X135880207Y-156135790D01*
X135880209Y-156135792D01*
X135989352Y-156216345D01*
X136117398Y-156261149D01*
X136147789Y-156263999D01*
X136526998Y-156263999D01*
X136527000Y-156263998D01*
X136527000Y-155589001D01*
X136777000Y-155589001D01*
X136777000Y-156263998D01*
X136777001Y-156263999D01*
X137156203Y-156263999D01*
X137186600Y-156261149D01*
X137186602Y-156261149D01*
X137314647Y-156216345D01*
X137423790Y-156135792D01*
X137423792Y-156135790D01*
X137504345Y-156026647D01*
X137549149Y-155898601D01*
X137551999Y-155868211D01*
X137552000Y-155868210D01*
X137552000Y-155589001D01*
X137784001Y-155589001D01*
X137784001Y-155868203D01*
X137786850Y-155898600D01*
X137786850Y-155898602D01*
X137831654Y-156026647D01*
X137912207Y-156135790D01*
X137912209Y-156135792D01*
X138021352Y-156216345D01*
X138149398Y-156261149D01*
X138179789Y-156263999D01*
X138558998Y-156263999D01*
X138559000Y-156263998D01*
X138559000Y-155589001D01*
X138558999Y-155589000D01*
X137784002Y-155589000D01*
X137784001Y-155589001D01*
X137552000Y-155589001D01*
X137551999Y-155589000D01*
X136777001Y-155589000D01*
X136777000Y-155589001D01*
X136527000Y-155589001D01*
X136526999Y-155589000D01*
X135752002Y-155589000D01*
X135752001Y-155589001D01*
X135520000Y-155589001D01*
X135519999Y-155589000D01*
X134745001Y-155589000D01*
X134745000Y-155589001D01*
X134495000Y-155589001D01*
X134494999Y-155589000D01*
X133720002Y-155589000D01*
X133720001Y-155589001D01*
X133720001Y-155868203D01*
X133722850Y-155898600D01*
X133722850Y-155898601D01*
X133728967Y-155916082D01*
X133729143Y-155923935D01*
X133732884Y-155930843D01*
X133729816Y-155953950D01*
X133730339Y-155977252D01*
X133725865Y-155983708D01*
X133724832Y-155991497D01*
X133708767Y-156008387D01*
X133695495Y-156027546D01*
X133688079Y-156030140D01*
X133682666Y-156035833D01*
X133666300Y-156037761D01*
X133637743Y-156047754D01*
X133622493Y-156046918D01*
X133616110Y-156046070D01*
X133592637Y-156039781D01*
X133568733Y-156039781D01*
X133562248Y-156038920D01*
X133540264Y-156028404D01*
X133517086Y-156020874D01*
X133513126Y-156015424D01*
X133507052Y-156012519D01*
X133495447Y-155991091D01*
X133481122Y-155971374D01*
X133481122Y-155964638D01*
X133477915Y-155958717D01*
X133481122Y-155934559D01*
X133481122Y-155910188D01*
X133481832Y-155908086D01*
X133485149Y-155898604D01*
X133487999Y-155868211D01*
X133488000Y-155868210D01*
X133488000Y-155589001D01*
X133487999Y-155589000D01*
X132713001Y-155589000D01*
X132713000Y-155589001D01*
X132713000Y-156263998D01*
X132713001Y-156263999D01*
X132953600Y-156263999D01*
X133011791Y-156282906D01*
X133047755Y-156332406D01*
X133049226Y-156388618D01*
X133026245Y-156474389D01*
X133026245Y-156474390D01*
X133026245Y-156564500D01*
X133007338Y-156622691D01*
X132957838Y-156658655D01*
X132927245Y-156663500D01*
X132083725Y-156663500D01*
X132053305Y-156666353D01*
X132053296Y-156666355D01*
X131925116Y-156711207D01*
X131815855Y-156791845D01*
X131815845Y-156791855D01*
X131735207Y-156901115D01*
X131712811Y-156965120D01*
X131675745Y-157013800D01*
X131617144Y-157031396D01*
X131569868Y-157018158D01*
X131561989Y-157013609D01*
X131561986Y-157013608D01*
X131434692Y-156979500D01*
X131302908Y-156979500D01*
X131225773Y-157000168D01*
X131175609Y-157013609D01*
X131061490Y-157079496D01*
X130968296Y-157172690D01*
X130902409Y-157286809D01*
X130902408Y-157286814D01*
X130868300Y-157414108D01*
X130868300Y-157545892D01*
X130881911Y-157596690D01*
X130902409Y-157673190D01*
X130968296Y-157787309D01*
X130968298Y-157787311D01*
X130968300Y-157787314D01*
X131061486Y-157880500D01*
X131061488Y-157880501D01*
X131061490Y-157880503D01*
X131175610Y-157946390D01*
X131175608Y-157946390D01*
X131175612Y-157946391D01*
X131175614Y-157946392D01*
X131302908Y-157980500D01*
X131302910Y-157980500D01*
X131434690Y-157980500D01*
X131434692Y-157980500D01*
X131561986Y-157946392D01*
X131561988Y-157946390D01*
X131561990Y-157946390D01*
X131579183Y-157936464D01*
X131639031Y-157923742D01*
X131694927Y-157948628D01*
X131722127Y-157989502D01*
X131735207Y-158026883D01*
X131815845Y-158136144D01*
X131815847Y-158136146D01*
X131815850Y-158136150D01*
X131815853Y-158136152D01*
X131815854Y-158136153D01*
X131903392Y-158200759D01*
X131938985Y-158250526D01*
X131938527Y-158311710D01*
X131902194Y-158360940D01*
X131870228Y-158376040D01*
X131855441Y-158380002D01*
X131836009Y-158385209D01*
X131721890Y-158451096D01*
X131628696Y-158544290D01*
X131562809Y-158658409D01*
X131555445Y-158685893D01*
X131538946Y-158747471D01*
X131528700Y-158785709D01*
X131528700Y-158824500D01*
X131509793Y-158882691D01*
X131460293Y-158918655D01*
X131429700Y-158923500D01*
X122337635Y-158923500D01*
X122261211Y-158943978D01*
X122261207Y-158943980D01*
X122192691Y-158983538D01*
X122136738Y-159039491D01*
X122097180Y-159108007D01*
X122097178Y-159108011D01*
X122076700Y-159184435D01*
X122076700Y-159263562D01*
X122076699Y-159263562D01*
X122085932Y-159298017D01*
X122090803Y-159316195D01*
X122092717Y-159323335D01*
X122096091Y-159348960D01*
X122096091Y-159378079D01*
X122077184Y-159436270D01*
X122067100Y-159448076D01*
X122026870Y-159488307D01*
X121996088Y-159519089D01*
X121996087Y-159519090D01*
X121930200Y-159633209D01*
X121919538Y-159673001D01*
X121896091Y-159760508D01*
X121896091Y-159892292D01*
X121925293Y-160001279D01*
X121922091Y-160062378D01*
X121883586Y-160109928D01*
X121829667Y-160125900D01*
X120717489Y-160125900D01*
X120659298Y-160106993D01*
X120623334Y-160057493D01*
X120623334Y-159996307D01*
X120631753Y-159977399D01*
X120643893Y-159956372D01*
X120678001Y-159829078D01*
X120678001Y-159697294D01*
X120643893Y-159570000D01*
X120643891Y-159569997D01*
X120643891Y-159569995D01*
X120578004Y-159455876D01*
X120574052Y-159450726D01*
X120576514Y-159448836D01*
X120554637Y-159405327D01*
X120553500Y-159390363D01*
X120553500Y-158788479D01*
X120572407Y-158730288D01*
X120582496Y-158718475D01*
X121007475Y-158293496D01*
X121061992Y-158265719D01*
X121077479Y-158264500D01*
X121916273Y-158264500D01*
X121916273Y-158264499D01*
X121946699Y-158261646D01*
X122074882Y-158216793D01*
X122184150Y-158136150D01*
X122264793Y-158026882D01*
X122309646Y-157898699D01*
X122312499Y-157868273D01*
X122312500Y-157868273D01*
X122312500Y-157059727D01*
X122312499Y-157059725D01*
X122309646Y-157029301D01*
X122290463Y-156974481D01*
X122290437Y-156973319D01*
X122289754Y-156972378D01*
X122289754Y-156942826D01*
X122289092Y-156913312D01*
X122289754Y-156912356D01*
X122289754Y-156911192D01*
X122307126Y-156887280D01*
X122323936Y-156863018D01*
X122325033Y-156862633D01*
X122325718Y-156861692D01*
X122353819Y-156852561D01*
X122381688Y-156842810D01*
X122383909Y-156842785D01*
X122466493Y-156842785D01*
X122524684Y-156861692D01*
X122560648Y-156911192D01*
X122560648Y-156972378D01*
X122559937Y-156974483D01*
X122546355Y-157013297D01*
X122546353Y-157013305D01*
X122543500Y-157043725D01*
X122543500Y-157852274D01*
X122546353Y-157882694D01*
X122546355Y-157882703D01*
X122591207Y-158010883D01*
X122671845Y-158120144D01*
X122671847Y-158120146D01*
X122671850Y-158120150D01*
X122671853Y-158120152D01*
X122671855Y-158120154D01*
X122781116Y-158200792D01*
X122781117Y-158200792D01*
X122781118Y-158200793D01*
X122909301Y-158245646D01*
X122939725Y-158248499D01*
X122939727Y-158248500D01*
X122939734Y-158248500D01*
X123948273Y-158248500D01*
X123948273Y-158248499D01*
X123978699Y-158245646D01*
X124099120Y-158203508D01*
X124160288Y-158202135D01*
X124210582Y-158236979D01*
X124217552Y-158247452D01*
X124223097Y-158257056D01*
X124226752Y-158263386D01*
X124319938Y-158356572D01*
X124319940Y-158356573D01*
X124319942Y-158356575D01*
X124434062Y-158422462D01*
X124434060Y-158422462D01*
X124434064Y-158422463D01*
X124434066Y-158422464D01*
X124561360Y-158456572D01*
X124561362Y-158456572D01*
X124693142Y-158456572D01*
X124693144Y-158456572D01*
X124820438Y-158422464D01*
X124820440Y-158422462D01*
X124820442Y-158422462D01*
X124934561Y-158356575D01*
X124934561Y-158356574D01*
X124934566Y-158356572D01*
X124979428Y-158311710D01*
X124997643Y-158293496D01*
X125052160Y-158265719D01*
X125067646Y-158264500D01*
X125980273Y-158264500D01*
X125980273Y-158264499D01*
X126010699Y-158261646D01*
X126138882Y-158216793D01*
X126248150Y-158136150D01*
X126328793Y-158026882D01*
X126373646Y-157898699D01*
X126376499Y-157868273D01*
X126376500Y-157868273D01*
X126376500Y-157059727D01*
X126376499Y-157059725D01*
X126373646Y-157029301D01*
X126328793Y-156901118D01*
X126318580Y-156887280D01*
X126248154Y-156791855D01*
X126248152Y-156791853D01*
X126248150Y-156791850D01*
X126248146Y-156791847D01*
X126248144Y-156791845D01*
X126138883Y-156711207D01*
X126010703Y-156666355D01*
X126010694Y-156666353D01*
X125980274Y-156663500D01*
X125980266Y-156663500D01*
X124971734Y-156663500D01*
X124971725Y-156663500D01*
X124941305Y-156666353D01*
X124941296Y-156666355D01*
X124813116Y-156711207D01*
X124703855Y-156791845D01*
X124703845Y-156791855D01*
X124623207Y-156901116D01*
X124578355Y-157029296D01*
X124578353Y-157029305D01*
X124575500Y-157059725D01*
X124575500Y-157375817D01*
X124574664Y-157378387D01*
X124575364Y-157380996D01*
X124565287Y-157407249D01*
X124556593Y-157434008D01*
X124554406Y-157435596D01*
X124553439Y-157438118D01*
X124529856Y-157453432D01*
X124507093Y-157469972D01*
X124502125Y-157471443D01*
X124469125Y-157480286D01*
X124408023Y-157477085D01*
X124360473Y-157438581D01*
X124344500Y-157384660D01*
X124344500Y-157043727D01*
X124344499Y-157043725D01*
X124344350Y-157042131D01*
X124341646Y-157013301D01*
X124296793Y-156885118D01*
X124292761Y-156879655D01*
X124216154Y-156775855D01*
X124216152Y-156775853D01*
X124216150Y-156775850D01*
X124216146Y-156775847D01*
X124216144Y-156775845D01*
X124106883Y-156695207D01*
X123978703Y-156650355D01*
X123978694Y-156650353D01*
X123948274Y-156647500D01*
X123948266Y-156647500D01*
X123807442Y-156647500D01*
X123749251Y-156628593D01*
X123721706Y-156598002D01*
X123684460Y-156533489D01*
X123568472Y-156417501D01*
X123540697Y-156362987D01*
X123550268Y-156302555D01*
X123593533Y-156259290D01*
X123638478Y-156248500D01*
X123948273Y-156248500D01*
X123948273Y-156248499D01*
X123978699Y-156245646D01*
X124106882Y-156200793D01*
X124216150Y-156120150D01*
X124296793Y-156010882D01*
X124334339Y-155903581D01*
X124342310Y-155880802D01*
X124360187Y-155857322D01*
X124377563Y-155833407D01*
X124378670Y-155833047D01*
X124379375Y-155832122D01*
X124435754Y-155814500D01*
X124480308Y-155814500D01*
X124538499Y-155833407D01*
X124574463Y-155882907D01*
X124576531Y-155892932D01*
X124577069Y-155892815D01*
X124578355Y-155898703D01*
X124623207Y-156026883D01*
X124703845Y-156136144D01*
X124703847Y-156136146D01*
X124703850Y-156136150D01*
X124703853Y-156136152D01*
X124703855Y-156136154D01*
X124813116Y-156216792D01*
X124813117Y-156216792D01*
X124813118Y-156216793D01*
X124941301Y-156261646D01*
X124971725Y-156264499D01*
X124971727Y-156264500D01*
X124971734Y-156264500D01*
X125980273Y-156264500D01*
X125980273Y-156264499D01*
X126010699Y-156261646D01*
X126138882Y-156216793D01*
X126248150Y-156136150D01*
X126328793Y-156026882D01*
X126373646Y-155898699D01*
X126373646Y-155898689D01*
X126374931Y-155892815D01*
X126377537Y-155893384D01*
X126377537Y-155882907D01*
X126389373Y-155866615D01*
X126397344Y-155848129D01*
X126406940Y-155842436D01*
X126413501Y-155833407D01*
X126432650Y-155827184D01*
X126449967Y-155816913D01*
X126471692Y-155814500D01*
X126510807Y-155814500D01*
X126568998Y-155833407D01*
X126604962Y-155882907D01*
X126609374Y-155904255D01*
X126610353Y-155914694D01*
X126610354Y-155914700D01*
X126655207Y-156042883D01*
X126735845Y-156152144D01*
X126735847Y-156152146D01*
X126735850Y-156152150D01*
X126735853Y-156152152D01*
X126735855Y-156152154D01*
X126845116Y-156232792D01*
X126845117Y-156232792D01*
X126845118Y-156232793D01*
X126973301Y-156277646D01*
X127003725Y-156280499D01*
X127003727Y-156280500D01*
X127968069Y-156280500D01*
X127995498Y-156289412D01*
X128023217Y-156297283D01*
X128024414Y-156298807D01*
X128026260Y-156299407D01*
X128043212Y-156322740D01*
X128061011Y-156345400D01*
X128060974Y-156347186D01*
X128062224Y-156348907D01*
X128063304Y-156406543D01*
X128060022Y-156418100D01*
X128057243Y-156422914D01*
X128033599Y-156511153D01*
X128033383Y-156511915D01*
X128030307Y-156516499D01*
X128008152Y-156554875D01*
X127912526Y-156650503D01*
X127858010Y-156678281D01*
X127842522Y-156679500D01*
X127003725Y-156679500D01*
X126973305Y-156682353D01*
X126973296Y-156682355D01*
X126845116Y-156727207D01*
X126735855Y-156807845D01*
X126735845Y-156807855D01*
X126655207Y-156917116D01*
X126610355Y-157045296D01*
X126610353Y-157045305D01*
X126607500Y-157075725D01*
X126607500Y-157884274D01*
X126610353Y-157914694D01*
X126610355Y-157914703D01*
X126655207Y-158042883D01*
X126735845Y-158152144D01*
X126735847Y-158152146D01*
X126735850Y-158152150D01*
X126735853Y-158152152D01*
X126735855Y-158152154D01*
X126845116Y-158232792D01*
X126845117Y-158232792D01*
X126845118Y-158232793D01*
X126973301Y-158277646D01*
X127003725Y-158280499D01*
X127003727Y-158280500D01*
X127003734Y-158280500D01*
X128012273Y-158280500D01*
X128012273Y-158280499D01*
X128042699Y-158277646D01*
X128170882Y-158232793D01*
X128280150Y-158152150D01*
X128360793Y-158042882D01*
X128405646Y-157914699D01*
X128408499Y-157884273D01*
X128408500Y-157884273D01*
X128408500Y-157215600D01*
X128413345Y-157200688D01*
X128413345Y-157185007D01*
X128422561Y-157172321D01*
X128427407Y-157157409D01*
X128440092Y-157148192D01*
X128449309Y-157135507D01*
X128464221Y-157130661D01*
X128476907Y-157121445D01*
X128507500Y-157116600D01*
X128540500Y-157116600D01*
X128598691Y-157135507D01*
X128634655Y-157185007D01*
X128639500Y-157215600D01*
X128639500Y-157868274D01*
X128642353Y-157898694D01*
X128642355Y-157898703D01*
X128687207Y-158026883D01*
X128767845Y-158136144D01*
X128767847Y-158136146D01*
X128767850Y-158136150D01*
X128767853Y-158136152D01*
X128767855Y-158136154D01*
X128877116Y-158216792D01*
X128877117Y-158216792D01*
X128877118Y-158216793D01*
X129005301Y-158261646D01*
X129035725Y-158264499D01*
X129035727Y-158264500D01*
X129035734Y-158264500D01*
X130044273Y-158264500D01*
X130044273Y-158264499D01*
X130074699Y-158261646D01*
X130202882Y-158216793D01*
X130312150Y-158136150D01*
X130392793Y-158026882D01*
X130437646Y-157898699D01*
X130440499Y-157868273D01*
X130440500Y-157868273D01*
X130440500Y-157059727D01*
X130440499Y-157059725D01*
X130437646Y-157029301D01*
X130392793Y-156901118D01*
X130382580Y-156887280D01*
X130312154Y-156791855D01*
X130312152Y-156791853D01*
X130312150Y-156791850D01*
X130312146Y-156791847D01*
X130312144Y-156791845D01*
X130202883Y-156711207D01*
X130107802Y-156677936D01*
X130059121Y-156640870D01*
X130041500Y-156584492D01*
X130041500Y-156498109D01*
X130041500Y-156498108D01*
X130010191Y-156381260D01*
X130013393Y-156320164D01*
X130051898Y-156272614D01*
X130073121Y-156262197D01*
X130074694Y-156261646D01*
X130074699Y-156261646D01*
X130202882Y-156216793D01*
X130204499Y-156215600D01*
X130250387Y-156181733D01*
X130312150Y-156136150D01*
X130392793Y-156026882D01*
X130437646Y-155898699D01*
X130440499Y-155868273D01*
X130440500Y-155868273D01*
X130440500Y-155589001D01*
X131688001Y-155589001D01*
X131688001Y-155868203D01*
X131690850Y-155898600D01*
X131690850Y-155898602D01*
X131735654Y-156026647D01*
X131816207Y-156135790D01*
X131816209Y-156135792D01*
X131925352Y-156216345D01*
X132053398Y-156261149D01*
X132083789Y-156263999D01*
X132462998Y-156263999D01*
X132463000Y-156263998D01*
X132463000Y-155589001D01*
X132462999Y-155589000D01*
X131688002Y-155589000D01*
X131688001Y-155589001D01*
X130440500Y-155589001D01*
X130440500Y-155059727D01*
X130440499Y-155059725D01*
X130439324Y-155047198D01*
X130437646Y-155029301D01*
X130392793Y-154901118D01*
X130392203Y-154900319D01*
X130312154Y-154791855D01*
X130312152Y-154791853D01*
X130312150Y-154791850D01*
X130312146Y-154791847D01*
X130312144Y-154791845D01*
X130202883Y-154711207D01*
X130074703Y-154666355D01*
X130074694Y-154666353D01*
X130044274Y-154663500D01*
X130044266Y-154663500D01*
X129035734Y-154663500D01*
X129035725Y-154663500D01*
X129005305Y-154666353D01*
X129005296Y-154666355D01*
X128877116Y-154711207D01*
X128767855Y-154791845D01*
X128767845Y-154791855D01*
X128687207Y-154901116D01*
X128642355Y-155029296D01*
X128641069Y-155035185D01*
X128638463Y-155034615D01*
X128638463Y-155045093D01*
X128626626Y-155061384D01*
X128618656Y-155079871D01*
X128609059Y-155085563D01*
X128602499Y-155094593D01*
X128583349Y-155100815D01*
X128566033Y-155111087D01*
X128544308Y-155113500D01*
X128499754Y-155113500D01*
X128441563Y-155094593D01*
X128406310Y-155047198D01*
X128377826Y-154965797D01*
X128360793Y-154917118D01*
X128351574Y-154904627D01*
X128280154Y-154807855D01*
X128280152Y-154807853D01*
X128280150Y-154807850D01*
X128280146Y-154807847D01*
X128280144Y-154807845D01*
X128170883Y-154727207D01*
X128042703Y-154682355D01*
X128042694Y-154682353D01*
X128012274Y-154679500D01*
X128012266Y-154679500D01*
X127003734Y-154679500D01*
X127003725Y-154679500D01*
X126973305Y-154682353D01*
X126973296Y-154682355D01*
X126845116Y-154727207D01*
X126735855Y-154807845D01*
X126735845Y-154807855D01*
X126655207Y-154917116D01*
X126609690Y-155047198D01*
X126591812Y-155070677D01*
X126574437Y-155094593D01*
X126573329Y-155094952D01*
X126572625Y-155095878D01*
X126516246Y-155113500D01*
X126471692Y-155113500D01*
X126413501Y-155094593D01*
X126377537Y-155045093D01*
X126375468Y-155035067D01*
X126374931Y-155035185D01*
X126373646Y-155029305D01*
X126373646Y-155029301D01*
X126328793Y-154901118D01*
X126328203Y-154900319D01*
X126248154Y-154791855D01*
X126248152Y-154791853D01*
X126248150Y-154791850D01*
X126248146Y-154791847D01*
X126248144Y-154791845D01*
X126138883Y-154711207D01*
X126010703Y-154666355D01*
X126010694Y-154666353D01*
X125980274Y-154663500D01*
X125980266Y-154663500D01*
X124971734Y-154663500D01*
X124971725Y-154663500D01*
X124941305Y-154666353D01*
X124941296Y-154666355D01*
X124813116Y-154711207D01*
X124703855Y-154791845D01*
X124703845Y-154791855D01*
X124623207Y-154901116D01*
X124578355Y-155029296D01*
X124577069Y-155035185D01*
X124574463Y-155034615D01*
X124574463Y-155045093D01*
X124562626Y-155061384D01*
X124554656Y-155079871D01*
X124545059Y-155085563D01*
X124538499Y-155094593D01*
X124519349Y-155100815D01*
X124502033Y-155111087D01*
X124480308Y-155113500D01*
X124441193Y-155113500D01*
X124383002Y-155094593D01*
X124347038Y-155045093D01*
X124342626Y-155023745D01*
X124341646Y-155013305D01*
X124341646Y-155013301D01*
X124296793Y-154885118D01*
X124289899Y-154875777D01*
X124216154Y-154775855D01*
X124216152Y-154775853D01*
X124216150Y-154775850D01*
X124216146Y-154775847D01*
X124216144Y-154775845D01*
X124106883Y-154695207D01*
X123978703Y-154650355D01*
X123978694Y-154650353D01*
X123948274Y-154647500D01*
X123948266Y-154647500D01*
X122939734Y-154647500D01*
X122939725Y-154647500D01*
X122909305Y-154650353D01*
X122909296Y-154650355D01*
X122781116Y-154695207D01*
X122671855Y-154775845D01*
X122671845Y-154775855D01*
X122591207Y-154885116D01*
X122546355Y-155013296D01*
X122546353Y-155013305D01*
X122545374Y-155023745D01*
X122540962Y-155033960D01*
X122540962Y-155045093D01*
X122529107Y-155061408D01*
X122521115Y-155079916D01*
X122511540Y-155085587D01*
X122504998Y-155094593D01*
X122485819Y-155100824D01*
X122468473Y-155111100D01*
X122446807Y-155113500D01*
X122407692Y-155113500D01*
X122349501Y-155094593D01*
X122313537Y-155045093D01*
X122311468Y-155035067D01*
X122310931Y-155035185D01*
X122309646Y-155029305D01*
X122309646Y-155029301D01*
X122264793Y-154901118D01*
X122264203Y-154900319D01*
X122184154Y-154791855D01*
X122184152Y-154791853D01*
X122184150Y-154791850D01*
X122184146Y-154791847D01*
X122184144Y-154791845D01*
X122074883Y-154711207D01*
X121946703Y-154666355D01*
X121946694Y-154666353D01*
X121916274Y-154663500D01*
X121916266Y-154663500D01*
X120912673Y-154663500D01*
X120854482Y-154644593D01*
X120818518Y-154595093D01*
X120818518Y-154533907D01*
X120842669Y-154494496D01*
X121103669Y-154233496D01*
X121158186Y-154205719D01*
X121173673Y-154204500D01*
X131066209Y-154204500D01*
X131124400Y-154223407D01*
G37*
%TD.AperFunction*%
%TA.AperFunction,Conductor*%
G36*
X154156108Y-157838463D02*
G01*
X154179006Y-157842090D01*
X154184654Y-157847738D01*
X154192252Y-157850207D01*
X154205879Y-157868963D01*
X154222271Y-157885355D01*
X154223520Y-157893244D01*
X154228216Y-157899707D01*
X154228216Y-157922892D01*
X154231842Y-157945787D01*
X154228216Y-157952903D01*
X154228216Y-157960893D01*
X154204066Y-158000301D01*
X154162063Y-158042305D01*
X154124020Y-158080348D01*
X154009058Y-158252402D01*
X153929869Y-158443581D01*
X153889500Y-158646532D01*
X153889500Y-158655300D01*
X153870593Y-158713491D01*
X153821093Y-158749455D01*
X153790500Y-158754300D01*
X146514040Y-158754300D01*
X146455849Y-158735393D01*
X146419885Y-158685893D01*
X146418413Y-158629679D01*
X146447616Y-158520692D01*
X146447616Y-158388908D01*
X146447616Y-158382419D01*
X146449931Y-158382419D01*
X146459234Y-158332253D01*
X146503620Y-158290140D01*
X146546232Y-158280500D01*
X147316273Y-158280500D01*
X147316273Y-158280499D01*
X147346699Y-158277646D01*
X147474882Y-158232793D01*
X147584150Y-158152150D01*
X147664793Y-158042882D01*
X147709646Y-157914699D01*
X147710852Y-157909178D01*
X147741739Y-157856361D01*
X147797772Y-157831786D01*
X147807572Y-157831300D01*
X154134061Y-157831300D01*
X154156108Y-157838463D01*
G37*
%TD.AperFunction*%
%TA.AperFunction,Conductor*%
G36*
X109493919Y-153320407D02*
G01*
X109529883Y-153369907D01*
X109529883Y-153431093D01*
X109493919Y-153480593D01*
X109485234Y-153486233D01*
X109460523Y-153500500D01*
X109420687Y-153523499D01*
X109327496Y-153616690D01*
X109261609Y-153730809D01*
X109261608Y-153730814D01*
X109227500Y-153858108D01*
X109227500Y-153989892D01*
X109242886Y-154047314D01*
X109261609Y-154117190D01*
X109327496Y-154231309D01*
X109327498Y-154231311D01*
X109327500Y-154231314D01*
X109420686Y-154324500D01*
X109420688Y-154324501D01*
X109420690Y-154324503D01*
X109534810Y-154390390D01*
X109534808Y-154390390D01*
X109534812Y-154390391D01*
X109534814Y-154390392D01*
X109662108Y-154424500D01*
X109662110Y-154424500D01*
X109793890Y-154424500D01*
X109793892Y-154424500D01*
X109921186Y-154390392D01*
X109921188Y-154390390D01*
X109921190Y-154390390D01*
X110035309Y-154324503D01*
X110035309Y-154324502D01*
X110035314Y-154324500D01*
X110128500Y-154231314D01*
X110174869Y-154150999D01*
X110220339Y-154110059D01*
X110260606Y-154101500D01*
X117722679Y-154101500D01*
X117780870Y-154120407D01*
X117792676Y-154130490D01*
X117802686Y-154140500D01*
X117802688Y-154140501D01*
X117802690Y-154140503D01*
X117916810Y-154206390D01*
X117916808Y-154206390D01*
X117916812Y-154206391D01*
X117916814Y-154206392D01*
X118044108Y-154240500D01*
X118044110Y-154240500D01*
X118175890Y-154240500D01*
X118175892Y-154240500D01*
X118303186Y-154206392D01*
X118303188Y-154206390D01*
X118303190Y-154206390D01*
X118417309Y-154140503D01*
X118417309Y-154140502D01*
X118417314Y-154140500D01*
X118418900Y-154138913D01*
X118420331Y-154138184D01*
X118422460Y-154136551D01*
X118422762Y-154136945D01*
X118473412Y-154111133D01*
X118533845Y-154120700D01*
X118577113Y-154163961D01*
X118586689Y-154224392D01*
X118584534Y-154234535D01*
X118572550Y-154279261D01*
X118567500Y-154298108D01*
X118567500Y-154429892D01*
X118597579Y-154542151D01*
X118601609Y-154557190D01*
X118654239Y-154648346D01*
X118666961Y-154708194D01*
X118642075Y-154764090D01*
X118627293Y-154777500D01*
X118607852Y-154791848D01*
X118607845Y-154791855D01*
X118527207Y-154901116D01*
X118482355Y-155029296D01*
X118481069Y-155035185D01*
X118478463Y-155034615D01*
X118478463Y-155045093D01*
X118466626Y-155061384D01*
X118458656Y-155079871D01*
X118449059Y-155085563D01*
X118442499Y-155094593D01*
X118423349Y-155100815D01*
X118406033Y-155111087D01*
X118384308Y-155113500D01*
X118343692Y-155113500D01*
X118285501Y-155094593D01*
X118249537Y-155045093D01*
X118247468Y-155035067D01*
X118246931Y-155035185D01*
X118245646Y-155029305D01*
X118245646Y-155029301D01*
X118200793Y-154901118D01*
X118200203Y-154900319D01*
X118120154Y-154791855D01*
X118120152Y-154791853D01*
X118120150Y-154791850D01*
X118120146Y-154791847D01*
X118120144Y-154791845D01*
X118010883Y-154711207D01*
X117882703Y-154666355D01*
X117882694Y-154666353D01*
X117852274Y-154663500D01*
X117852266Y-154663500D01*
X116843734Y-154663500D01*
X116843725Y-154663500D01*
X116813305Y-154666353D01*
X116813296Y-154666355D01*
X116685116Y-154711207D01*
X116575855Y-154791845D01*
X116575845Y-154791855D01*
X116495207Y-154901116D01*
X116450355Y-155029296D01*
X116449069Y-155035185D01*
X116446463Y-155034615D01*
X116446463Y-155045093D01*
X116434626Y-155061384D01*
X116426656Y-155079871D01*
X116417059Y-155085563D01*
X116410499Y-155094593D01*
X116391349Y-155100815D01*
X116374033Y-155111087D01*
X116352308Y-155113500D01*
X116311692Y-155113500D01*
X116253501Y-155094593D01*
X116217537Y-155045093D01*
X116215468Y-155035067D01*
X116214931Y-155035185D01*
X116213646Y-155029305D01*
X116213646Y-155029301D01*
X116168793Y-154901118D01*
X116168203Y-154900319D01*
X116088154Y-154791855D01*
X116088152Y-154791853D01*
X116088150Y-154791850D01*
X116088146Y-154791847D01*
X116088144Y-154791845D01*
X115978883Y-154711207D01*
X115850703Y-154666355D01*
X115850694Y-154666353D01*
X115820274Y-154663500D01*
X115820266Y-154663500D01*
X114811734Y-154663500D01*
X114811725Y-154663500D01*
X114781305Y-154666353D01*
X114781296Y-154666355D01*
X114653116Y-154711207D01*
X114543855Y-154791845D01*
X114543845Y-154791855D01*
X114463207Y-154901116D01*
X114418355Y-155029296D01*
X114418353Y-155029305D01*
X114415500Y-155059725D01*
X114415500Y-155868274D01*
X114418353Y-155898694D01*
X114418355Y-155898703D01*
X114463207Y-156026883D01*
X114543850Y-156136150D01*
X114549099Y-156141400D01*
X114546665Y-156143833D01*
X114573768Y-156181733D01*
X114575012Y-156237238D01*
X114560300Y-156292150D01*
X114560300Y-156423934D01*
X114568554Y-156454739D01*
X114594408Y-156551229D01*
X114632480Y-156617171D01*
X114645201Y-156677020D01*
X114620314Y-156732915D01*
X114605532Y-156746326D01*
X114543852Y-156791848D01*
X114543845Y-156791855D01*
X114463207Y-156901116D01*
X114418355Y-157029296D01*
X114418353Y-157029305D01*
X114415500Y-157059725D01*
X114415500Y-157064500D01*
X114396593Y-157122691D01*
X114347093Y-157158655D01*
X114316500Y-157163500D01*
X113179479Y-157163500D01*
X113121288Y-157144593D01*
X113109475Y-157134504D01*
X112289496Y-156314525D01*
X112261719Y-156260008D01*
X112260500Y-156244521D01*
X112260500Y-156144109D01*
X112259774Y-156141400D01*
X112226392Y-156016814D01*
X112226390Y-156016811D01*
X112226390Y-156016809D01*
X112160503Y-155902690D01*
X112160501Y-155902688D01*
X112160500Y-155902686D01*
X112067314Y-155809500D01*
X112067311Y-155809498D01*
X112067309Y-155809496D01*
X111953189Y-155743609D01*
X111953191Y-155743609D01*
X111903799Y-155730375D01*
X111825892Y-155709500D01*
X111694108Y-155709500D01*
X111616200Y-155730375D01*
X111566809Y-155743609D01*
X111452690Y-155809496D01*
X111452689Y-155809497D01*
X111452686Y-155809499D01*
X111452686Y-155809500D01*
X111381680Y-155880505D01*
X111327166Y-155908281D01*
X111311679Y-155909500D01*
X109099500Y-155909500D01*
X109041309Y-155890593D01*
X109005345Y-155841093D01*
X109000500Y-155810500D01*
X109000500Y-155340253D01*
X109000498Y-155340241D01*
X108995372Y-155314474D01*
X108988867Y-155281769D01*
X108944552Y-155215448D01*
X108930384Y-155205981D01*
X108878233Y-155171134D01*
X108878231Y-155171133D01*
X108878228Y-155171132D01*
X108878227Y-155171132D01*
X108819758Y-155159501D01*
X108819748Y-155159500D01*
X107124478Y-155159500D01*
X107066287Y-155140593D01*
X107030323Y-155091093D01*
X107030323Y-155029907D01*
X107054474Y-154990496D01*
X107550475Y-154494496D01*
X108714475Y-153330496D01*
X108768992Y-153302719D01*
X108784479Y-153301500D01*
X109435728Y-153301500D01*
X109493919Y-153320407D01*
G37*
%TD.AperFunction*%
%TD*%
M02*
