M48
; DRILL file {KiCad 9.0.6-9.0.6~ubuntu24.04.1} date 2026-01-17T20:35:05-0300
; FORMAT={-:-/ absolute / metric / decimal}
; #@! TF.CreationDate,2026-01-17T20:35:05-03:00
; #@! TF.GenerationSoftware,Kicad,Pcbnew,9.0.6-9.0.6~ubuntu24.04.1
; #@! TF.FileFunction,Plated,1,2,PTH
FMAT,2
METRIC
; #@! TA.AperFunction,Plated,PTH,ViaDrill
T1C0.300
; #@! TA.AperFunction,Plated,PTH,ComponentDrill
T2C1.000
%
G90
G05
T1
X108.585Y-154.559
X109.601Y-163.068
X109.728Y-153.924
X110.49Y-154.94
X110.998Y-157.48
X111.252Y-158.801
X111.455Y-163.041
X111.76Y-156.21
X113.132Y-168.859
X113.894Y-163.068
X114.656Y-166.472
X115.061Y-156.358
X115.621Y-163.068
X116.078Y-153.2
X117.348Y-168.961
X118.059Y-163.041
X118.11Y-153.74
X118.256Y-156.518
X119.068Y-154.364
X119.075Y-170.688
X119.177Y-161.29
X119.38Y-159.826
X120.142Y-163.83
X120.173Y-161.184
X120.178Y-159.763
X120.904Y-167.996
X122.397Y-159.826
X122.428Y-155.942
X122.936Y-161.849
X123.495Y-166.116
X124.46Y-156.515
X124.46Y-159.928
X124.627Y-157.956
X125.476Y-164.338
X125.564Y-166.894
X125.578Y-161.849
X128.473Y-166.929
X128.524Y-156.616
X128.651Y-161.433
X129.541Y-156.564
X131.064Y-164.719
X131.318Y-160.528
X131.369Y-157.48
X131.392Y-161.772
X131.45Y-154.767
X132.029Y-158.852
X132.334Y-156.362
X133.452Y-160.528
X133.452Y-169.012
X133.527Y-156.54
X134.112Y-164.287
X134.722Y-156.362
X136.093Y-166.929
X136.652Y-156.312
X136.724Y-158.18
X138.347Y-161.763
X138.633Y-166.116
X139.649Y-160.528
X139.7Y-156.566
X141.427Y-163.83
X141.64Y-154.504
X141.64Y-156.515
X142.85Y-156.362
X143.104Y-159.655
X143.916Y-163.17
X145.085Y-153.264
X145.542Y-167.132
X145.796Y-162.56
X145.947Y-158.455
X147.828Y-166.116
X148.478Y-163.16
X149.676Y-169.091
X149.962Y-167.802
X150.876Y-156.413
X150.978Y-158.344
X151.638Y-163.16
X151.841Y-167.945
X152.349Y-154.534
X153.06Y-160.071
X153.162Y-167.894
X154.889Y-153.924
X156.312Y-155.134
X158.877Y-165.1
X159.004Y-166.624
X159.106Y-157.531
X160.122Y-158.648
X160.325Y-167.571
X164.033Y-168.961
X165.1Y-170.938
X165.802Y-168.859
X166.776Y-163.83
X166.84Y-161.341
T2
X105.41Y-156.21
X105.41Y-158.75
X105.41Y-161.29
X105.41Y-163.83
X105.41Y-166.37
X105.41Y-168.91
X107.95Y-156.21
X107.95Y-158.75
X107.95Y-161.29
X107.95Y-163.83
X107.95Y-166.37
X107.95Y-168.91
X122.174Y-163.068
X122.174Y-170.688
X124.714Y-163.068
X124.714Y-170.688
X127.254Y-163.068
X127.254Y-170.688
X129.794Y-163.068
X129.794Y-170.688
X132.334Y-163.068
X132.334Y-170.688
X134.874Y-163.068
X134.874Y-170.688
X137.414Y-163.068
X137.414Y-170.688
X139.954Y-163.068
X139.954Y-170.688
X154.94Y-156.21
X154.94Y-158.75
X154.94Y-161.29
X154.94Y-163.83
X154.94Y-166.37
X154.94Y-168.91
X157.48Y-156.21
X157.48Y-158.75
X157.48Y-161.29
X157.48Y-163.83
X157.48Y-166.37
X157.48Y-168.91
M30
