%TF.GenerationSoftware,KiCad,Pcbnew,9.0.6-9.0.6~ubuntu24.04.1*%
%TF.CreationDate,2026-01-17T20:35:02-03:00*%
%TF.ProjectId,cotti_level_shifter,636f7474-695f-46c6-9576-656c5f736869,0.0*%
%TF.SameCoordinates,Original*%
%TF.FileFunction,Legend,Bot*%
%TF.FilePolarity,Positive*%
%FSLAX46Y46*%
G04 Gerber Fmt 4.6, Leading zero omitted, Abs format (unit mm)*
G04 Created by KiCad (PCBNEW 9.0.6-9.0.6~ubuntu24.04.1) date 2026-01-17 20:35:02*
%MOMM*%
%LPD*%
G01*
G04 APERTURE LIST*
%ADD10C,0.150000*%
%ADD11C,0.120000*%
G04 APERTURE END LIST*
D10*
X118109904Y-156934819D02*
X118109904Y-157744342D01*
X118109904Y-157744342D02*
X118062285Y-157839580D01*
X118062285Y-157839580D02*
X118014666Y-157887200D01*
X118014666Y-157887200D02*
X117919428Y-157934819D01*
X117919428Y-157934819D02*
X117728952Y-157934819D01*
X117728952Y-157934819D02*
X117633714Y-157887200D01*
X117633714Y-157887200D02*
X117586095Y-157839580D01*
X117586095Y-157839580D02*
X117538476Y-157744342D01*
X117538476Y-157744342D02*
X117538476Y-156934819D01*
X116538476Y-157934819D02*
X117109904Y-157934819D01*
X116824190Y-157934819D02*
X116824190Y-156934819D01*
X116824190Y-156934819D02*
X116919428Y-157077676D01*
X116919428Y-157077676D02*
X117014666Y-157172914D01*
X117014666Y-157172914D02*
X117109904Y-157220533D01*
X166369904Y-167094819D02*
X166369904Y-167904342D01*
X166369904Y-167904342D02*
X166322285Y-167999580D01*
X166322285Y-167999580D02*
X166274666Y-168047200D01*
X166274666Y-168047200D02*
X166179428Y-168094819D01*
X166179428Y-168094819D02*
X165988952Y-168094819D01*
X165988952Y-168094819D02*
X165893714Y-168047200D01*
X165893714Y-168047200D02*
X165846095Y-167999580D01*
X165846095Y-167999580D02*
X165798476Y-167904342D01*
X165798476Y-167904342D02*
X165798476Y-167094819D01*
X165179428Y-167523390D02*
X165274666Y-167475771D01*
X165274666Y-167475771D02*
X165322285Y-167428152D01*
X165322285Y-167428152D02*
X165369904Y-167332914D01*
X165369904Y-167332914D02*
X165369904Y-167285295D01*
X165369904Y-167285295D02*
X165322285Y-167190057D01*
X165322285Y-167190057D02*
X165274666Y-167142438D01*
X165274666Y-167142438D02*
X165179428Y-167094819D01*
X165179428Y-167094819D02*
X164988952Y-167094819D01*
X164988952Y-167094819D02*
X164893714Y-167142438D01*
X164893714Y-167142438D02*
X164846095Y-167190057D01*
X164846095Y-167190057D02*
X164798476Y-167285295D01*
X164798476Y-167285295D02*
X164798476Y-167332914D01*
X164798476Y-167332914D02*
X164846095Y-167428152D01*
X164846095Y-167428152D02*
X164893714Y-167475771D01*
X164893714Y-167475771D02*
X164988952Y-167523390D01*
X164988952Y-167523390D02*
X165179428Y-167523390D01*
X165179428Y-167523390D02*
X165274666Y-167571009D01*
X165274666Y-167571009D02*
X165322285Y-167618628D01*
X165322285Y-167618628D02*
X165369904Y-167713866D01*
X165369904Y-167713866D02*
X165369904Y-167904342D01*
X165369904Y-167904342D02*
X165322285Y-167999580D01*
X165322285Y-167999580D02*
X165274666Y-168047200D01*
X165274666Y-168047200D02*
X165179428Y-168094819D01*
X165179428Y-168094819D02*
X164988952Y-168094819D01*
X164988952Y-168094819D02*
X164893714Y-168047200D01*
X164893714Y-168047200D02*
X164846095Y-167999580D01*
X164846095Y-167999580D02*
X164798476Y-167904342D01*
X164798476Y-167904342D02*
X164798476Y-167713866D01*
X164798476Y-167713866D02*
X164846095Y-167618628D01*
X164846095Y-167618628D02*
X164893714Y-167571009D01*
X164893714Y-167571009D02*
X164988952Y-167523390D01*
X166369904Y-156934819D02*
X166369904Y-157744342D01*
X166369904Y-157744342D02*
X166322285Y-157839580D01*
X166322285Y-157839580D02*
X166274666Y-157887200D01*
X166274666Y-157887200D02*
X166179428Y-157934819D01*
X166179428Y-157934819D02*
X165988952Y-157934819D01*
X165988952Y-157934819D02*
X165893714Y-157887200D01*
X165893714Y-157887200D02*
X165846095Y-157839580D01*
X165846095Y-157839580D02*
X165798476Y-157744342D01*
X165798476Y-157744342D02*
X165798476Y-156934819D01*
X165417523Y-156934819D02*
X164750857Y-156934819D01*
X164750857Y-156934819D02*
X165179428Y-157934819D01*
X151129904Y-156934819D02*
X151129904Y-157744342D01*
X151129904Y-157744342D02*
X151082285Y-157839580D01*
X151082285Y-157839580D02*
X151034666Y-157887200D01*
X151034666Y-157887200D02*
X150939428Y-157934819D01*
X150939428Y-157934819D02*
X150748952Y-157934819D01*
X150748952Y-157934819D02*
X150653714Y-157887200D01*
X150653714Y-157887200D02*
X150606095Y-157839580D01*
X150606095Y-157839580D02*
X150558476Y-157744342D01*
X150558476Y-157744342D02*
X150558476Y-156934819D01*
X149653714Y-156934819D02*
X149844190Y-156934819D01*
X149844190Y-156934819D02*
X149939428Y-156982438D01*
X149939428Y-156982438D02*
X149987047Y-157030057D01*
X149987047Y-157030057D02*
X150082285Y-157172914D01*
X150082285Y-157172914D02*
X150129904Y-157363390D01*
X150129904Y-157363390D02*
X150129904Y-157744342D01*
X150129904Y-157744342D02*
X150082285Y-157839580D01*
X150082285Y-157839580D02*
X150034666Y-157887200D01*
X150034666Y-157887200D02*
X149939428Y-157934819D01*
X149939428Y-157934819D02*
X149748952Y-157934819D01*
X149748952Y-157934819D02*
X149653714Y-157887200D01*
X149653714Y-157887200D02*
X149606095Y-157839580D01*
X149606095Y-157839580D02*
X149558476Y-157744342D01*
X149558476Y-157744342D02*
X149558476Y-157506247D01*
X149558476Y-157506247D02*
X149606095Y-157411009D01*
X149606095Y-157411009D02*
X149653714Y-157363390D01*
X149653714Y-157363390D02*
X149748952Y-157315771D01*
X149748952Y-157315771D02*
X149939428Y-157315771D01*
X149939428Y-157315771D02*
X150034666Y-157363390D01*
X150034666Y-157363390D02*
X150082285Y-157411009D01*
X150082285Y-157411009D02*
X150129904Y-157506247D01*
X151129904Y-167094819D02*
X151129904Y-167904342D01*
X151129904Y-167904342D02*
X151082285Y-167999580D01*
X151082285Y-167999580D02*
X151034666Y-168047200D01*
X151034666Y-168047200D02*
X150939428Y-168094819D01*
X150939428Y-168094819D02*
X150748952Y-168094819D01*
X150748952Y-168094819D02*
X150653714Y-168047200D01*
X150653714Y-168047200D02*
X150606095Y-167999580D01*
X150606095Y-167999580D02*
X150558476Y-167904342D01*
X150558476Y-167904342D02*
X150558476Y-167094819D01*
X149606095Y-167094819D02*
X150082285Y-167094819D01*
X150082285Y-167094819D02*
X150129904Y-167571009D01*
X150129904Y-167571009D02*
X150082285Y-167523390D01*
X150082285Y-167523390D02*
X149987047Y-167475771D01*
X149987047Y-167475771D02*
X149748952Y-167475771D01*
X149748952Y-167475771D02*
X149653714Y-167523390D01*
X149653714Y-167523390D02*
X149606095Y-167571009D01*
X149606095Y-167571009D02*
X149558476Y-167666247D01*
X149558476Y-167666247D02*
X149558476Y-167904342D01*
X149558476Y-167904342D02*
X149606095Y-167999580D01*
X149606095Y-167999580D02*
X149653714Y-168047200D01*
X149653714Y-168047200D02*
X149748952Y-168094819D01*
X149748952Y-168094819D02*
X149987047Y-168094819D01*
X149987047Y-168094819D02*
X150082285Y-168047200D01*
X150082285Y-168047200D02*
X150129904Y-167999580D01*
X139953904Y-156172819D02*
X139953904Y-156982342D01*
X139953904Y-156982342D02*
X139906285Y-157077580D01*
X139906285Y-157077580D02*
X139858666Y-157125200D01*
X139858666Y-157125200D02*
X139763428Y-157172819D01*
X139763428Y-157172819D02*
X139572952Y-157172819D01*
X139572952Y-157172819D02*
X139477714Y-157125200D01*
X139477714Y-157125200D02*
X139430095Y-157077580D01*
X139430095Y-157077580D02*
X139382476Y-156982342D01*
X139382476Y-156982342D02*
X139382476Y-156172819D01*
X138477714Y-156506152D02*
X138477714Y-157172819D01*
X138715809Y-156125200D02*
X138953904Y-156839485D01*
X138953904Y-156839485D02*
X138334857Y-156839485D01*
X127761904Y-155918819D02*
X127761904Y-156728342D01*
X127761904Y-156728342D02*
X127714285Y-156823580D01*
X127714285Y-156823580D02*
X127666666Y-156871200D01*
X127666666Y-156871200D02*
X127571428Y-156918819D01*
X127571428Y-156918819D02*
X127380952Y-156918819D01*
X127380952Y-156918819D02*
X127285714Y-156871200D01*
X127285714Y-156871200D02*
X127238095Y-156823580D01*
X127238095Y-156823580D02*
X127190476Y-156728342D01*
X127190476Y-156728342D02*
X127190476Y-155918819D01*
X126809523Y-155918819D02*
X126190476Y-155918819D01*
X126190476Y-155918819D02*
X126523809Y-156299771D01*
X126523809Y-156299771D02*
X126380952Y-156299771D01*
X126380952Y-156299771D02*
X126285714Y-156347390D01*
X126285714Y-156347390D02*
X126238095Y-156395009D01*
X126238095Y-156395009D02*
X126190476Y-156490247D01*
X126190476Y-156490247D02*
X126190476Y-156728342D01*
X126190476Y-156728342D02*
X126238095Y-156823580D01*
X126238095Y-156823580D02*
X126285714Y-156871200D01*
X126285714Y-156871200D02*
X126380952Y-156918819D01*
X126380952Y-156918819D02*
X126666666Y-156918819D01*
X126666666Y-156918819D02*
X126761904Y-156871200D01*
X126761904Y-156871200D02*
X126809523Y-156823580D01*
X118109904Y-167094819D02*
X118109904Y-167904342D01*
X118109904Y-167904342D02*
X118062285Y-167999580D01*
X118062285Y-167999580D02*
X118014666Y-168047200D01*
X118014666Y-168047200D02*
X117919428Y-168094819D01*
X117919428Y-168094819D02*
X117728952Y-168094819D01*
X117728952Y-168094819D02*
X117633714Y-168047200D01*
X117633714Y-168047200D02*
X117586095Y-167999580D01*
X117586095Y-167999580D02*
X117538476Y-167904342D01*
X117538476Y-167904342D02*
X117538476Y-167094819D01*
X117109904Y-167190057D02*
X117062285Y-167142438D01*
X117062285Y-167142438D02*
X116967047Y-167094819D01*
X116967047Y-167094819D02*
X116728952Y-167094819D01*
X116728952Y-167094819D02*
X116633714Y-167142438D01*
X116633714Y-167142438D02*
X116586095Y-167190057D01*
X116586095Y-167190057D02*
X116538476Y-167285295D01*
X116538476Y-167285295D02*
X116538476Y-167380533D01*
X116538476Y-167380533D02*
X116586095Y-167523390D01*
X116586095Y-167523390D02*
X117157523Y-168094819D01*
X117157523Y-168094819D02*
X116538476Y-168094819D01*
X112942666Y-153870819D02*
X113275999Y-153394628D01*
X113514094Y-153870819D02*
X113514094Y-152870819D01*
X113514094Y-152870819D02*
X113133142Y-152870819D01*
X113133142Y-152870819D02*
X113037904Y-152918438D01*
X113037904Y-152918438D02*
X112990285Y-152966057D01*
X112990285Y-152966057D02*
X112942666Y-153061295D01*
X112942666Y-153061295D02*
X112942666Y-153204152D01*
X112942666Y-153204152D02*
X112990285Y-153299390D01*
X112990285Y-153299390D02*
X113037904Y-153347009D01*
X113037904Y-153347009D02*
X113133142Y-153394628D01*
X113133142Y-153394628D02*
X113514094Y-153394628D01*
X112561713Y-152966057D02*
X112514094Y-152918438D01*
X112514094Y-152918438D02*
X112418856Y-152870819D01*
X112418856Y-152870819D02*
X112180761Y-152870819D01*
X112180761Y-152870819D02*
X112085523Y-152918438D01*
X112085523Y-152918438D02*
X112037904Y-152966057D01*
X112037904Y-152966057D02*
X111990285Y-153061295D01*
X111990285Y-153061295D02*
X111990285Y-153156533D01*
X111990285Y-153156533D02*
X112037904Y-153299390D01*
X112037904Y-153299390D02*
X112609332Y-153870819D01*
X112609332Y-153870819D02*
X111990285Y-153870819D01*
X133738857Y-156156819D02*
X134072190Y-155680628D01*
X134310285Y-156156819D02*
X134310285Y-155156819D01*
X134310285Y-155156819D02*
X133929333Y-155156819D01*
X133929333Y-155156819D02*
X133834095Y-155204438D01*
X133834095Y-155204438D02*
X133786476Y-155252057D01*
X133786476Y-155252057D02*
X133738857Y-155347295D01*
X133738857Y-155347295D02*
X133738857Y-155490152D01*
X133738857Y-155490152D02*
X133786476Y-155585390D01*
X133786476Y-155585390D02*
X133834095Y-155633009D01*
X133834095Y-155633009D02*
X133929333Y-155680628D01*
X133929333Y-155680628D02*
X134310285Y-155680628D01*
X132786476Y-156156819D02*
X133357904Y-156156819D01*
X133072190Y-156156819D02*
X133072190Y-155156819D01*
X133072190Y-155156819D02*
X133167428Y-155299676D01*
X133167428Y-155299676D02*
X133262666Y-155394914D01*
X133262666Y-155394914D02*
X133357904Y-155442533D01*
X132453142Y-155156819D02*
X131786476Y-155156819D01*
X131786476Y-155156819D02*
X132215047Y-156156819D01*
X146438857Y-153870819D02*
X146772190Y-153394628D01*
X147010285Y-153870819D02*
X147010285Y-152870819D01*
X147010285Y-152870819D02*
X146629333Y-152870819D01*
X146629333Y-152870819D02*
X146534095Y-152918438D01*
X146534095Y-152918438D02*
X146486476Y-152966057D01*
X146486476Y-152966057D02*
X146438857Y-153061295D01*
X146438857Y-153061295D02*
X146438857Y-153204152D01*
X146438857Y-153204152D02*
X146486476Y-153299390D01*
X146486476Y-153299390D02*
X146534095Y-153347009D01*
X146534095Y-153347009D02*
X146629333Y-153394628D01*
X146629333Y-153394628D02*
X147010285Y-153394628D01*
X146057904Y-152966057D02*
X146010285Y-152918438D01*
X146010285Y-152918438D02*
X145915047Y-152870819D01*
X145915047Y-152870819D02*
X145676952Y-152870819D01*
X145676952Y-152870819D02*
X145581714Y-152918438D01*
X145581714Y-152918438D02*
X145534095Y-152966057D01*
X145534095Y-152966057D02*
X145486476Y-153061295D01*
X145486476Y-153061295D02*
X145486476Y-153156533D01*
X145486476Y-153156533D02*
X145534095Y-153299390D01*
X145534095Y-153299390D02*
X146105523Y-153870819D01*
X146105523Y-153870819D02*
X145486476Y-153870819D01*
X145153142Y-152870819D02*
X144486476Y-152870819D01*
X144486476Y-152870819D02*
X144915047Y-153870819D01*
X117006666Y-172063580D02*
X117054285Y-172111200D01*
X117054285Y-172111200D02*
X117197142Y-172158819D01*
X117197142Y-172158819D02*
X117292380Y-172158819D01*
X117292380Y-172158819D02*
X117435237Y-172111200D01*
X117435237Y-172111200D02*
X117530475Y-172015961D01*
X117530475Y-172015961D02*
X117578094Y-171920723D01*
X117578094Y-171920723D02*
X117625713Y-171730247D01*
X117625713Y-171730247D02*
X117625713Y-171587390D01*
X117625713Y-171587390D02*
X117578094Y-171396914D01*
X117578094Y-171396914D02*
X117530475Y-171301676D01*
X117530475Y-171301676D02*
X117435237Y-171206438D01*
X117435237Y-171206438D02*
X117292380Y-171158819D01*
X117292380Y-171158819D02*
X117197142Y-171158819D01*
X117197142Y-171158819D02*
X117054285Y-171206438D01*
X117054285Y-171206438D02*
X117006666Y-171254057D01*
X116673332Y-171158819D02*
X116054285Y-171158819D01*
X116054285Y-171158819D02*
X116387618Y-171539771D01*
X116387618Y-171539771D02*
X116244761Y-171539771D01*
X116244761Y-171539771D02*
X116149523Y-171587390D01*
X116149523Y-171587390D02*
X116101904Y-171635009D01*
X116101904Y-171635009D02*
X116054285Y-171730247D01*
X116054285Y-171730247D02*
X116054285Y-171968342D01*
X116054285Y-171968342D02*
X116101904Y-172063580D01*
X116101904Y-172063580D02*
X116149523Y-172111200D01*
X116149523Y-172111200D02*
X116244761Y-172158819D01*
X116244761Y-172158819D02*
X116530475Y-172158819D01*
X116530475Y-172158819D02*
X116625713Y-172111200D01*
X116625713Y-172111200D02*
X116673332Y-172063580D01*
X121546857Y-156268819D02*
X121880190Y-155792628D01*
X122118285Y-156268819D02*
X122118285Y-155268819D01*
X122118285Y-155268819D02*
X121737333Y-155268819D01*
X121737333Y-155268819D02*
X121642095Y-155316438D01*
X121642095Y-155316438D02*
X121594476Y-155364057D01*
X121594476Y-155364057D02*
X121546857Y-155459295D01*
X121546857Y-155459295D02*
X121546857Y-155602152D01*
X121546857Y-155602152D02*
X121594476Y-155697390D01*
X121594476Y-155697390D02*
X121642095Y-155745009D01*
X121642095Y-155745009D02*
X121737333Y-155792628D01*
X121737333Y-155792628D02*
X122118285Y-155792628D01*
X120594476Y-156268819D02*
X121165904Y-156268819D01*
X120880190Y-156268819D02*
X120880190Y-155268819D01*
X120880190Y-155268819D02*
X120975428Y-155411676D01*
X120975428Y-155411676D02*
X121070666Y-155506914D01*
X121070666Y-155506914D02*
X121165904Y-155554533D01*
X120213523Y-155364057D02*
X120165904Y-155316438D01*
X120165904Y-155316438D02*
X120070666Y-155268819D01*
X120070666Y-155268819D02*
X119832571Y-155268819D01*
X119832571Y-155268819D02*
X119737333Y-155316438D01*
X119737333Y-155316438D02*
X119689714Y-155364057D01*
X119689714Y-155364057D02*
X119642095Y-155459295D01*
X119642095Y-155459295D02*
X119642095Y-155554533D01*
X119642095Y-155554533D02*
X119689714Y-155697390D01*
X119689714Y-155697390D02*
X120261142Y-156268819D01*
X120261142Y-156268819D02*
X119642095Y-156268819D01*
X126118857Y-161490819D02*
X126452190Y-161014628D01*
X126690285Y-161490819D02*
X126690285Y-160490819D01*
X126690285Y-160490819D02*
X126309333Y-160490819D01*
X126309333Y-160490819D02*
X126214095Y-160538438D01*
X126214095Y-160538438D02*
X126166476Y-160586057D01*
X126166476Y-160586057D02*
X126118857Y-160681295D01*
X126118857Y-160681295D02*
X126118857Y-160824152D01*
X126118857Y-160824152D02*
X126166476Y-160919390D01*
X126166476Y-160919390D02*
X126214095Y-160967009D01*
X126214095Y-160967009D02*
X126309333Y-161014628D01*
X126309333Y-161014628D02*
X126690285Y-161014628D01*
X125166476Y-161490819D02*
X125737904Y-161490819D01*
X125452190Y-161490819D02*
X125452190Y-160490819D01*
X125452190Y-160490819D02*
X125547428Y-160633676D01*
X125547428Y-160633676D02*
X125642666Y-160728914D01*
X125642666Y-160728914D02*
X125737904Y-160776533D01*
X124833142Y-160490819D02*
X124214095Y-160490819D01*
X124214095Y-160490819D02*
X124547428Y-160871771D01*
X124547428Y-160871771D02*
X124404571Y-160871771D01*
X124404571Y-160871771D02*
X124309333Y-160919390D01*
X124309333Y-160919390D02*
X124261714Y-160967009D01*
X124261714Y-160967009D02*
X124214095Y-161062247D01*
X124214095Y-161062247D02*
X124214095Y-161300342D01*
X124214095Y-161300342D02*
X124261714Y-161395580D01*
X124261714Y-161395580D02*
X124309333Y-161443200D01*
X124309333Y-161443200D02*
X124404571Y-161490819D01*
X124404571Y-161490819D02*
X124690285Y-161490819D01*
X124690285Y-161490819D02*
X124785523Y-161443200D01*
X124785523Y-161443200D02*
X124833142Y-161395580D01*
X161678857Y-153870819D02*
X162012190Y-153394628D01*
X162250285Y-153870819D02*
X162250285Y-152870819D01*
X162250285Y-152870819D02*
X161869333Y-152870819D01*
X161869333Y-152870819D02*
X161774095Y-152918438D01*
X161774095Y-152918438D02*
X161726476Y-152966057D01*
X161726476Y-152966057D02*
X161678857Y-153061295D01*
X161678857Y-153061295D02*
X161678857Y-153204152D01*
X161678857Y-153204152D02*
X161726476Y-153299390D01*
X161726476Y-153299390D02*
X161774095Y-153347009D01*
X161774095Y-153347009D02*
X161869333Y-153394628D01*
X161869333Y-153394628D02*
X162250285Y-153394628D01*
X161345523Y-152870819D02*
X160726476Y-152870819D01*
X160726476Y-152870819D02*
X161059809Y-153251771D01*
X161059809Y-153251771D02*
X160916952Y-153251771D01*
X160916952Y-153251771D02*
X160821714Y-153299390D01*
X160821714Y-153299390D02*
X160774095Y-153347009D01*
X160774095Y-153347009D02*
X160726476Y-153442247D01*
X160726476Y-153442247D02*
X160726476Y-153680342D01*
X160726476Y-153680342D02*
X160774095Y-153775580D01*
X160774095Y-153775580D02*
X160821714Y-153823200D01*
X160821714Y-153823200D02*
X160916952Y-153870819D01*
X160916952Y-153870819D02*
X161202666Y-153870819D01*
X161202666Y-153870819D02*
X161297904Y-153823200D01*
X161297904Y-153823200D02*
X161345523Y-153775580D01*
X160345523Y-152966057D02*
X160297904Y-152918438D01*
X160297904Y-152918438D02*
X160202666Y-152870819D01*
X160202666Y-152870819D02*
X159964571Y-152870819D01*
X159964571Y-152870819D02*
X159869333Y-152918438D01*
X159869333Y-152918438D02*
X159821714Y-152966057D01*
X159821714Y-152966057D02*
X159774095Y-153061295D01*
X159774095Y-153061295D02*
X159774095Y-153156533D01*
X159774095Y-153156533D02*
X159821714Y-153299390D01*
X159821714Y-153299390D02*
X160393142Y-153870819D01*
X160393142Y-153870819D02*
X159774095Y-153870819D01*
X142933357Y-154395819D02*
X143266690Y-153919628D01*
X143504785Y-154395819D02*
X143504785Y-153395819D01*
X143504785Y-153395819D02*
X143123833Y-153395819D01*
X143123833Y-153395819D02*
X143028595Y-153443438D01*
X143028595Y-153443438D02*
X142980976Y-153491057D01*
X142980976Y-153491057D02*
X142933357Y-153586295D01*
X142933357Y-153586295D02*
X142933357Y-153729152D01*
X142933357Y-153729152D02*
X142980976Y-153824390D01*
X142980976Y-153824390D02*
X143028595Y-153872009D01*
X143028595Y-153872009D02*
X143123833Y-153919628D01*
X143123833Y-153919628D02*
X143504785Y-153919628D01*
X141980976Y-154395819D02*
X142552404Y-154395819D01*
X142266690Y-154395819D02*
X142266690Y-153395819D01*
X142266690Y-153395819D02*
X142361928Y-153538676D01*
X142361928Y-153538676D02*
X142457166Y-153633914D01*
X142457166Y-153633914D02*
X142552404Y-153681533D01*
X141504785Y-154395819D02*
X141314309Y-154395819D01*
X141314309Y-154395819D02*
X141219071Y-154348200D01*
X141219071Y-154348200D02*
X141171452Y-154300580D01*
X141171452Y-154300580D02*
X141076214Y-154157723D01*
X141076214Y-154157723D02*
X141028595Y-153967247D01*
X141028595Y-153967247D02*
X141028595Y-153586295D01*
X141028595Y-153586295D02*
X141076214Y-153491057D01*
X141076214Y-153491057D02*
X141123833Y-153443438D01*
X141123833Y-153443438D02*
X141219071Y-153395819D01*
X141219071Y-153395819D02*
X141409547Y-153395819D01*
X141409547Y-153395819D02*
X141504785Y-153443438D01*
X141504785Y-153443438D02*
X141552404Y-153491057D01*
X141552404Y-153491057D02*
X141600023Y-153586295D01*
X141600023Y-153586295D02*
X141600023Y-153824390D01*
X141600023Y-153824390D02*
X141552404Y-153919628D01*
X141552404Y-153919628D02*
X141504785Y-153967247D01*
X141504785Y-153967247D02*
X141409547Y-154014866D01*
X141409547Y-154014866D02*
X141219071Y-154014866D01*
X141219071Y-154014866D02*
X141123833Y-153967247D01*
X141123833Y-153967247D02*
X141076214Y-153919628D01*
X141076214Y-153919628D02*
X141028595Y-153824390D01*
X112942666Y-164030819D02*
X113275999Y-163554628D01*
X113514094Y-164030819D02*
X113514094Y-163030819D01*
X113514094Y-163030819D02*
X113133142Y-163030819D01*
X113133142Y-163030819D02*
X113037904Y-163078438D01*
X113037904Y-163078438D02*
X112990285Y-163126057D01*
X112990285Y-163126057D02*
X112942666Y-163221295D01*
X112942666Y-163221295D02*
X112942666Y-163364152D01*
X112942666Y-163364152D02*
X112990285Y-163459390D01*
X112990285Y-163459390D02*
X113037904Y-163507009D01*
X113037904Y-163507009D02*
X113133142Y-163554628D01*
X113133142Y-163554628D02*
X113514094Y-163554628D01*
X112609332Y-163030819D02*
X111942666Y-163030819D01*
X111942666Y-163030819D02*
X112371237Y-164030819D01*
X150502857Y-161903580D02*
X150550476Y-161951200D01*
X150550476Y-161951200D02*
X150693333Y-161998819D01*
X150693333Y-161998819D02*
X150788571Y-161998819D01*
X150788571Y-161998819D02*
X150931428Y-161951200D01*
X150931428Y-161951200D02*
X151026666Y-161855961D01*
X151026666Y-161855961D02*
X151074285Y-161760723D01*
X151074285Y-161760723D02*
X151121904Y-161570247D01*
X151121904Y-161570247D02*
X151121904Y-161427390D01*
X151121904Y-161427390D02*
X151074285Y-161236914D01*
X151074285Y-161236914D02*
X151026666Y-161141676D01*
X151026666Y-161141676D02*
X150931428Y-161046438D01*
X150931428Y-161046438D02*
X150788571Y-160998819D01*
X150788571Y-160998819D02*
X150693333Y-160998819D01*
X150693333Y-160998819D02*
X150550476Y-161046438D01*
X150550476Y-161046438D02*
X150502857Y-161094057D01*
X149550476Y-161998819D02*
X150121904Y-161998819D01*
X149836190Y-161998819D02*
X149836190Y-160998819D01*
X149836190Y-160998819D02*
X149931428Y-161141676D01*
X149931428Y-161141676D02*
X150026666Y-161236914D01*
X150026666Y-161236914D02*
X150121904Y-161284533D01*
X148598095Y-161998819D02*
X149169523Y-161998819D01*
X148883809Y-161998819D02*
X148883809Y-160998819D01*
X148883809Y-160998819D02*
X148979047Y-161141676D01*
X148979047Y-161141676D02*
X149074285Y-161236914D01*
X149074285Y-161236914D02*
X149169523Y-161284533D01*
X150082666Y-172063580D02*
X150130285Y-172111200D01*
X150130285Y-172111200D02*
X150273142Y-172158819D01*
X150273142Y-172158819D02*
X150368380Y-172158819D01*
X150368380Y-172158819D02*
X150511237Y-172111200D01*
X150511237Y-172111200D02*
X150606475Y-172015961D01*
X150606475Y-172015961D02*
X150654094Y-171920723D01*
X150654094Y-171920723D02*
X150701713Y-171730247D01*
X150701713Y-171730247D02*
X150701713Y-171587390D01*
X150701713Y-171587390D02*
X150654094Y-171396914D01*
X150654094Y-171396914D02*
X150606475Y-171301676D01*
X150606475Y-171301676D02*
X150511237Y-171206438D01*
X150511237Y-171206438D02*
X150368380Y-171158819D01*
X150368380Y-171158819D02*
X150273142Y-171158819D01*
X150273142Y-171158819D02*
X150130285Y-171206438D01*
X150130285Y-171206438D02*
X150082666Y-171254057D01*
X149606475Y-172158819D02*
X149415999Y-172158819D01*
X149415999Y-172158819D02*
X149320761Y-172111200D01*
X149320761Y-172111200D02*
X149273142Y-172063580D01*
X149273142Y-172063580D02*
X149177904Y-171920723D01*
X149177904Y-171920723D02*
X149130285Y-171730247D01*
X149130285Y-171730247D02*
X149130285Y-171349295D01*
X149130285Y-171349295D02*
X149177904Y-171254057D01*
X149177904Y-171254057D02*
X149225523Y-171206438D01*
X149225523Y-171206438D02*
X149320761Y-171158819D01*
X149320761Y-171158819D02*
X149511237Y-171158819D01*
X149511237Y-171158819D02*
X149606475Y-171206438D01*
X149606475Y-171206438D02*
X149654094Y-171254057D01*
X149654094Y-171254057D02*
X149701713Y-171349295D01*
X149701713Y-171349295D02*
X149701713Y-171587390D01*
X149701713Y-171587390D02*
X149654094Y-171682628D01*
X149654094Y-171682628D02*
X149606475Y-171730247D01*
X149606475Y-171730247D02*
X149511237Y-171777866D01*
X149511237Y-171777866D02*
X149320761Y-171777866D01*
X149320761Y-171777866D02*
X149225523Y-171730247D01*
X149225523Y-171730247D02*
X149177904Y-171682628D01*
X149177904Y-171682628D02*
X149130285Y-171587390D01*
X165742857Y-164030819D02*
X166076190Y-163554628D01*
X166314285Y-164030819D02*
X166314285Y-163030819D01*
X166314285Y-163030819D02*
X165933333Y-163030819D01*
X165933333Y-163030819D02*
X165838095Y-163078438D01*
X165838095Y-163078438D02*
X165790476Y-163126057D01*
X165790476Y-163126057D02*
X165742857Y-163221295D01*
X165742857Y-163221295D02*
X165742857Y-163364152D01*
X165742857Y-163364152D02*
X165790476Y-163459390D01*
X165790476Y-163459390D02*
X165838095Y-163507009D01*
X165838095Y-163507009D02*
X165933333Y-163554628D01*
X165933333Y-163554628D02*
X166314285Y-163554628D01*
X165409523Y-163030819D02*
X164790476Y-163030819D01*
X164790476Y-163030819D02*
X165123809Y-163411771D01*
X165123809Y-163411771D02*
X164980952Y-163411771D01*
X164980952Y-163411771D02*
X164885714Y-163459390D01*
X164885714Y-163459390D02*
X164838095Y-163507009D01*
X164838095Y-163507009D02*
X164790476Y-163602247D01*
X164790476Y-163602247D02*
X164790476Y-163840342D01*
X164790476Y-163840342D02*
X164838095Y-163935580D01*
X164838095Y-163935580D02*
X164885714Y-163983200D01*
X164885714Y-163983200D02*
X164980952Y-164030819D01*
X164980952Y-164030819D02*
X165266666Y-164030819D01*
X165266666Y-164030819D02*
X165361904Y-163983200D01*
X165361904Y-163983200D02*
X165409523Y-163935580D01*
X164314285Y-164030819D02*
X164123809Y-164030819D01*
X164123809Y-164030819D02*
X164028571Y-163983200D01*
X164028571Y-163983200D02*
X163980952Y-163935580D01*
X163980952Y-163935580D02*
X163885714Y-163792723D01*
X163885714Y-163792723D02*
X163838095Y-163602247D01*
X163838095Y-163602247D02*
X163838095Y-163221295D01*
X163838095Y-163221295D02*
X163885714Y-163126057D01*
X163885714Y-163126057D02*
X163933333Y-163078438D01*
X163933333Y-163078438D02*
X164028571Y-163030819D01*
X164028571Y-163030819D02*
X164219047Y-163030819D01*
X164219047Y-163030819D02*
X164314285Y-163078438D01*
X164314285Y-163078438D02*
X164361904Y-163126057D01*
X164361904Y-163126057D02*
X164409523Y-163221295D01*
X164409523Y-163221295D02*
X164409523Y-163459390D01*
X164409523Y-163459390D02*
X164361904Y-163554628D01*
X164361904Y-163554628D02*
X164314285Y-163602247D01*
X164314285Y-163602247D02*
X164219047Y-163649866D01*
X164219047Y-163649866D02*
X164028571Y-163649866D01*
X164028571Y-163649866D02*
X163933333Y-163602247D01*
X163933333Y-163602247D02*
X163885714Y-163554628D01*
X163885714Y-163554628D02*
X163838095Y-163459390D01*
X146494857Y-164030819D02*
X146828190Y-163554628D01*
X147066285Y-164030819D02*
X147066285Y-163030819D01*
X147066285Y-163030819D02*
X146685333Y-163030819D01*
X146685333Y-163030819D02*
X146590095Y-163078438D01*
X146590095Y-163078438D02*
X146542476Y-163126057D01*
X146542476Y-163126057D02*
X146494857Y-163221295D01*
X146494857Y-163221295D02*
X146494857Y-163364152D01*
X146494857Y-163364152D02*
X146542476Y-163459390D01*
X146542476Y-163459390D02*
X146590095Y-163507009D01*
X146590095Y-163507009D02*
X146685333Y-163554628D01*
X146685333Y-163554628D02*
X147066285Y-163554628D01*
X146113904Y-163126057D02*
X146066285Y-163078438D01*
X146066285Y-163078438D02*
X145971047Y-163030819D01*
X145971047Y-163030819D02*
X145732952Y-163030819D01*
X145732952Y-163030819D02*
X145637714Y-163078438D01*
X145637714Y-163078438D02*
X145590095Y-163126057D01*
X145590095Y-163126057D02*
X145542476Y-163221295D01*
X145542476Y-163221295D02*
X145542476Y-163316533D01*
X145542476Y-163316533D02*
X145590095Y-163459390D01*
X145590095Y-163459390D02*
X146161523Y-164030819D01*
X146161523Y-164030819D02*
X145542476Y-164030819D01*
X145161523Y-163126057D02*
X145113904Y-163078438D01*
X145113904Y-163078438D02*
X145018666Y-163030819D01*
X145018666Y-163030819D02*
X144780571Y-163030819D01*
X144780571Y-163030819D02*
X144685333Y-163078438D01*
X144685333Y-163078438D02*
X144637714Y-163126057D01*
X144637714Y-163126057D02*
X144590095Y-163221295D01*
X144590095Y-163221295D02*
X144590095Y-163316533D01*
X144590095Y-163316533D02*
X144637714Y-163459390D01*
X144637714Y-163459390D02*
X145209142Y-164030819D01*
X145209142Y-164030819D02*
X144590095Y-164030819D01*
X133770666Y-157585580D02*
X133818285Y-157633200D01*
X133818285Y-157633200D02*
X133961142Y-157680819D01*
X133961142Y-157680819D02*
X134056380Y-157680819D01*
X134056380Y-157680819D02*
X134199237Y-157633200D01*
X134199237Y-157633200D02*
X134294475Y-157537961D01*
X134294475Y-157537961D02*
X134342094Y-157442723D01*
X134342094Y-157442723D02*
X134389713Y-157252247D01*
X134389713Y-157252247D02*
X134389713Y-157109390D01*
X134389713Y-157109390D02*
X134342094Y-156918914D01*
X134342094Y-156918914D02*
X134294475Y-156823676D01*
X134294475Y-156823676D02*
X134199237Y-156728438D01*
X134199237Y-156728438D02*
X134056380Y-156680819D01*
X134056380Y-156680819D02*
X133961142Y-156680819D01*
X133961142Y-156680819D02*
X133818285Y-156728438D01*
X133818285Y-156728438D02*
X133770666Y-156776057D01*
X133199237Y-157109390D02*
X133294475Y-157061771D01*
X133294475Y-157061771D02*
X133342094Y-157014152D01*
X133342094Y-157014152D02*
X133389713Y-156918914D01*
X133389713Y-156918914D02*
X133389713Y-156871295D01*
X133389713Y-156871295D02*
X133342094Y-156776057D01*
X133342094Y-156776057D02*
X133294475Y-156728438D01*
X133294475Y-156728438D02*
X133199237Y-156680819D01*
X133199237Y-156680819D02*
X133008761Y-156680819D01*
X133008761Y-156680819D02*
X132913523Y-156728438D01*
X132913523Y-156728438D02*
X132865904Y-156776057D01*
X132865904Y-156776057D02*
X132818285Y-156871295D01*
X132818285Y-156871295D02*
X132818285Y-156918914D01*
X132818285Y-156918914D02*
X132865904Y-157014152D01*
X132865904Y-157014152D02*
X132913523Y-157061771D01*
X132913523Y-157061771D02*
X133008761Y-157109390D01*
X133008761Y-157109390D02*
X133199237Y-157109390D01*
X133199237Y-157109390D02*
X133294475Y-157157009D01*
X133294475Y-157157009D02*
X133342094Y-157204628D01*
X133342094Y-157204628D02*
X133389713Y-157299866D01*
X133389713Y-157299866D02*
X133389713Y-157490342D01*
X133389713Y-157490342D02*
X133342094Y-157585580D01*
X133342094Y-157585580D02*
X133294475Y-157633200D01*
X133294475Y-157633200D02*
X133199237Y-157680819D01*
X133199237Y-157680819D02*
X133008761Y-157680819D01*
X133008761Y-157680819D02*
X132913523Y-157633200D01*
X132913523Y-157633200D02*
X132865904Y-157585580D01*
X132865904Y-157585580D02*
X132818285Y-157490342D01*
X132818285Y-157490342D02*
X132818285Y-157299866D01*
X132818285Y-157299866D02*
X132865904Y-157204628D01*
X132865904Y-157204628D02*
X132913523Y-157157009D01*
X132913523Y-157157009D02*
X133008761Y-157109390D01*
X117006666Y-164030819D02*
X117339999Y-163554628D01*
X117578094Y-164030819D02*
X117578094Y-163030819D01*
X117578094Y-163030819D02*
X117197142Y-163030819D01*
X117197142Y-163030819D02*
X117101904Y-163078438D01*
X117101904Y-163078438D02*
X117054285Y-163126057D01*
X117054285Y-163126057D02*
X117006666Y-163221295D01*
X117006666Y-163221295D02*
X117006666Y-163364152D01*
X117006666Y-163364152D02*
X117054285Y-163459390D01*
X117054285Y-163459390D02*
X117101904Y-163507009D01*
X117101904Y-163507009D02*
X117197142Y-163554628D01*
X117197142Y-163554628D02*
X117578094Y-163554628D01*
X116530475Y-164030819D02*
X116339999Y-164030819D01*
X116339999Y-164030819D02*
X116244761Y-163983200D01*
X116244761Y-163983200D02*
X116197142Y-163935580D01*
X116197142Y-163935580D02*
X116101904Y-163792723D01*
X116101904Y-163792723D02*
X116054285Y-163602247D01*
X116054285Y-163602247D02*
X116054285Y-163221295D01*
X116054285Y-163221295D02*
X116101904Y-163126057D01*
X116101904Y-163126057D02*
X116149523Y-163078438D01*
X116149523Y-163078438D02*
X116244761Y-163030819D01*
X116244761Y-163030819D02*
X116435237Y-163030819D01*
X116435237Y-163030819D02*
X116530475Y-163078438D01*
X116530475Y-163078438D02*
X116578094Y-163126057D01*
X116578094Y-163126057D02*
X116625713Y-163221295D01*
X116625713Y-163221295D02*
X116625713Y-163459390D01*
X116625713Y-163459390D02*
X116578094Y-163554628D01*
X116578094Y-163554628D02*
X116530475Y-163602247D01*
X116530475Y-163602247D02*
X116435237Y-163649866D01*
X116435237Y-163649866D02*
X116244761Y-163649866D01*
X116244761Y-163649866D02*
X116149523Y-163602247D01*
X116149523Y-163602247D02*
X116101904Y-163554628D01*
X116101904Y-163554628D02*
X116054285Y-163459390D01*
X142882857Y-161490819D02*
X143216190Y-161014628D01*
X143454285Y-161490819D02*
X143454285Y-160490819D01*
X143454285Y-160490819D02*
X143073333Y-160490819D01*
X143073333Y-160490819D02*
X142978095Y-160538438D01*
X142978095Y-160538438D02*
X142930476Y-160586057D01*
X142930476Y-160586057D02*
X142882857Y-160681295D01*
X142882857Y-160681295D02*
X142882857Y-160824152D01*
X142882857Y-160824152D02*
X142930476Y-160919390D01*
X142930476Y-160919390D02*
X142978095Y-160967009D01*
X142978095Y-160967009D02*
X143073333Y-161014628D01*
X143073333Y-161014628D02*
X143454285Y-161014628D01*
X142549523Y-160490819D02*
X141930476Y-160490819D01*
X141930476Y-160490819D02*
X142263809Y-160871771D01*
X142263809Y-160871771D02*
X142120952Y-160871771D01*
X142120952Y-160871771D02*
X142025714Y-160919390D01*
X142025714Y-160919390D02*
X141978095Y-160967009D01*
X141978095Y-160967009D02*
X141930476Y-161062247D01*
X141930476Y-161062247D02*
X141930476Y-161300342D01*
X141930476Y-161300342D02*
X141978095Y-161395580D01*
X141978095Y-161395580D02*
X142025714Y-161443200D01*
X142025714Y-161443200D02*
X142120952Y-161490819D01*
X142120952Y-161490819D02*
X142406666Y-161490819D01*
X142406666Y-161490819D02*
X142501904Y-161443200D01*
X142501904Y-161443200D02*
X142549523Y-161395580D01*
X141359047Y-160919390D02*
X141454285Y-160871771D01*
X141454285Y-160871771D02*
X141501904Y-160824152D01*
X141501904Y-160824152D02*
X141549523Y-160728914D01*
X141549523Y-160728914D02*
X141549523Y-160681295D01*
X141549523Y-160681295D02*
X141501904Y-160586057D01*
X141501904Y-160586057D02*
X141454285Y-160538438D01*
X141454285Y-160538438D02*
X141359047Y-160490819D01*
X141359047Y-160490819D02*
X141168571Y-160490819D01*
X141168571Y-160490819D02*
X141073333Y-160538438D01*
X141073333Y-160538438D02*
X141025714Y-160586057D01*
X141025714Y-160586057D02*
X140978095Y-160681295D01*
X140978095Y-160681295D02*
X140978095Y-160728914D01*
X140978095Y-160728914D02*
X141025714Y-160824152D01*
X141025714Y-160824152D02*
X141073333Y-160871771D01*
X141073333Y-160871771D02*
X141168571Y-160919390D01*
X141168571Y-160919390D02*
X141359047Y-160919390D01*
X141359047Y-160919390D02*
X141454285Y-160967009D01*
X141454285Y-160967009D02*
X141501904Y-161014628D01*
X141501904Y-161014628D02*
X141549523Y-161109866D01*
X141549523Y-161109866D02*
X141549523Y-161300342D01*
X141549523Y-161300342D02*
X141501904Y-161395580D01*
X141501904Y-161395580D02*
X141454285Y-161443200D01*
X141454285Y-161443200D02*
X141359047Y-161490819D01*
X141359047Y-161490819D02*
X141168571Y-161490819D01*
X141168571Y-161490819D02*
X141073333Y-161443200D01*
X141073333Y-161443200D02*
X141025714Y-161395580D01*
X141025714Y-161395580D02*
X140978095Y-161300342D01*
X140978095Y-161300342D02*
X140978095Y-161109866D01*
X140978095Y-161109866D02*
X141025714Y-161014628D01*
X141025714Y-161014628D02*
X141073333Y-160967009D01*
X141073333Y-160967009D02*
X141168571Y-160919390D01*
X139834857Y-161490819D02*
X140168190Y-161014628D01*
X140406285Y-161490819D02*
X140406285Y-160490819D01*
X140406285Y-160490819D02*
X140025333Y-160490819D01*
X140025333Y-160490819D02*
X139930095Y-160538438D01*
X139930095Y-160538438D02*
X139882476Y-160586057D01*
X139882476Y-160586057D02*
X139834857Y-160681295D01*
X139834857Y-160681295D02*
X139834857Y-160824152D01*
X139834857Y-160824152D02*
X139882476Y-160919390D01*
X139882476Y-160919390D02*
X139930095Y-160967009D01*
X139930095Y-160967009D02*
X140025333Y-161014628D01*
X140025333Y-161014628D02*
X140406285Y-161014628D01*
X139501523Y-160490819D02*
X138882476Y-160490819D01*
X138882476Y-160490819D02*
X139215809Y-160871771D01*
X139215809Y-160871771D02*
X139072952Y-160871771D01*
X139072952Y-160871771D02*
X138977714Y-160919390D01*
X138977714Y-160919390D02*
X138930095Y-160967009D01*
X138930095Y-160967009D02*
X138882476Y-161062247D01*
X138882476Y-161062247D02*
X138882476Y-161300342D01*
X138882476Y-161300342D02*
X138930095Y-161395580D01*
X138930095Y-161395580D02*
X138977714Y-161443200D01*
X138977714Y-161443200D02*
X139072952Y-161490819D01*
X139072952Y-161490819D02*
X139358666Y-161490819D01*
X139358666Y-161490819D02*
X139453904Y-161443200D01*
X139453904Y-161443200D02*
X139501523Y-161395580D01*
X138549142Y-160490819D02*
X137930095Y-160490819D01*
X137930095Y-160490819D02*
X138263428Y-160871771D01*
X138263428Y-160871771D02*
X138120571Y-160871771D01*
X138120571Y-160871771D02*
X138025333Y-160919390D01*
X138025333Y-160919390D02*
X137977714Y-160967009D01*
X137977714Y-160967009D02*
X137930095Y-161062247D01*
X137930095Y-161062247D02*
X137930095Y-161300342D01*
X137930095Y-161300342D02*
X137977714Y-161395580D01*
X137977714Y-161395580D02*
X138025333Y-161443200D01*
X138025333Y-161443200D02*
X138120571Y-161490819D01*
X138120571Y-161490819D02*
X138406285Y-161490819D01*
X138406285Y-161490819D02*
X138501523Y-161443200D01*
X138501523Y-161443200D02*
X138549142Y-161395580D01*
X133738857Y-161490819D02*
X134072190Y-161014628D01*
X134310285Y-161490819D02*
X134310285Y-160490819D01*
X134310285Y-160490819D02*
X133929333Y-160490819D01*
X133929333Y-160490819D02*
X133834095Y-160538438D01*
X133834095Y-160538438D02*
X133786476Y-160586057D01*
X133786476Y-160586057D02*
X133738857Y-160681295D01*
X133738857Y-160681295D02*
X133738857Y-160824152D01*
X133738857Y-160824152D02*
X133786476Y-160919390D01*
X133786476Y-160919390D02*
X133834095Y-160967009D01*
X133834095Y-160967009D02*
X133929333Y-161014628D01*
X133929333Y-161014628D02*
X134310285Y-161014628D01*
X133357904Y-160586057D02*
X133310285Y-160538438D01*
X133310285Y-160538438D02*
X133215047Y-160490819D01*
X133215047Y-160490819D02*
X132976952Y-160490819D01*
X132976952Y-160490819D02*
X132881714Y-160538438D01*
X132881714Y-160538438D02*
X132834095Y-160586057D01*
X132834095Y-160586057D02*
X132786476Y-160681295D01*
X132786476Y-160681295D02*
X132786476Y-160776533D01*
X132786476Y-160776533D02*
X132834095Y-160919390D01*
X132834095Y-160919390D02*
X133405523Y-161490819D01*
X133405523Y-161490819D02*
X132786476Y-161490819D01*
X132453142Y-160490819D02*
X131834095Y-160490819D01*
X131834095Y-160490819D02*
X132167428Y-160871771D01*
X132167428Y-160871771D02*
X132024571Y-160871771D01*
X132024571Y-160871771D02*
X131929333Y-160919390D01*
X131929333Y-160919390D02*
X131881714Y-160967009D01*
X131881714Y-160967009D02*
X131834095Y-161062247D01*
X131834095Y-161062247D02*
X131834095Y-161300342D01*
X131834095Y-161300342D02*
X131881714Y-161395580D01*
X131881714Y-161395580D02*
X131929333Y-161443200D01*
X131929333Y-161443200D02*
X132024571Y-161490819D01*
X132024571Y-161490819D02*
X132310285Y-161490819D01*
X132310285Y-161490819D02*
X132405523Y-161443200D01*
X132405523Y-161443200D02*
X132453142Y-161395580D01*
X117006666Y-153870819D02*
X117339999Y-153394628D01*
X117578094Y-153870819D02*
X117578094Y-152870819D01*
X117578094Y-152870819D02*
X117197142Y-152870819D01*
X117197142Y-152870819D02*
X117101904Y-152918438D01*
X117101904Y-152918438D02*
X117054285Y-152966057D01*
X117054285Y-152966057D02*
X117006666Y-153061295D01*
X117006666Y-153061295D02*
X117006666Y-153204152D01*
X117006666Y-153204152D02*
X117054285Y-153299390D01*
X117054285Y-153299390D02*
X117101904Y-153347009D01*
X117101904Y-153347009D02*
X117197142Y-153394628D01*
X117197142Y-153394628D02*
X117578094Y-153394628D01*
X116149523Y-153204152D02*
X116149523Y-153870819D01*
X116387618Y-152823200D02*
X116625713Y-153537485D01*
X116625713Y-153537485D02*
X116006666Y-153537485D01*
X146494857Y-172063580D02*
X146542476Y-172111200D01*
X146542476Y-172111200D02*
X146685333Y-172158819D01*
X146685333Y-172158819D02*
X146780571Y-172158819D01*
X146780571Y-172158819D02*
X146923428Y-172111200D01*
X146923428Y-172111200D02*
X147018666Y-172015961D01*
X147018666Y-172015961D02*
X147066285Y-171920723D01*
X147066285Y-171920723D02*
X147113904Y-171730247D01*
X147113904Y-171730247D02*
X147113904Y-171587390D01*
X147113904Y-171587390D02*
X147066285Y-171396914D01*
X147066285Y-171396914D02*
X147018666Y-171301676D01*
X147018666Y-171301676D02*
X146923428Y-171206438D01*
X146923428Y-171206438D02*
X146780571Y-171158819D01*
X146780571Y-171158819D02*
X146685333Y-171158819D01*
X146685333Y-171158819D02*
X146542476Y-171206438D01*
X146542476Y-171206438D02*
X146494857Y-171254057D01*
X145542476Y-172158819D02*
X146113904Y-172158819D01*
X145828190Y-172158819D02*
X145828190Y-171158819D01*
X145828190Y-171158819D02*
X145923428Y-171301676D01*
X145923428Y-171301676D02*
X146018666Y-171396914D01*
X146018666Y-171396914D02*
X146113904Y-171444533D01*
X144923428Y-171158819D02*
X144828190Y-171158819D01*
X144828190Y-171158819D02*
X144732952Y-171206438D01*
X144732952Y-171206438D02*
X144685333Y-171254057D01*
X144685333Y-171254057D02*
X144637714Y-171349295D01*
X144637714Y-171349295D02*
X144590095Y-171539771D01*
X144590095Y-171539771D02*
X144590095Y-171777866D01*
X144590095Y-171777866D02*
X144637714Y-171968342D01*
X144637714Y-171968342D02*
X144685333Y-172063580D01*
X144685333Y-172063580D02*
X144732952Y-172111200D01*
X144732952Y-172111200D02*
X144828190Y-172158819D01*
X144828190Y-172158819D02*
X144923428Y-172158819D01*
X144923428Y-172158819D02*
X145018666Y-172111200D01*
X145018666Y-172111200D02*
X145066285Y-172063580D01*
X145066285Y-172063580D02*
X145113904Y-171968342D01*
X145113904Y-171968342D02*
X145161523Y-171777866D01*
X145161523Y-171777866D02*
X145161523Y-171539771D01*
X145161523Y-171539771D02*
X145113904Y-171349295D01*
X145113904Y-171349295D02*
X145066285Y-171254057D01*
X145066285Y-171254057D02*
X145018666Y-171206438D01*
X145018666Y-171206438D02*
X144923428Y-171158819D01*
X141949166Y-159380580D02*
X141996785Y-159428200D01*
X141996785Y-159428200D02*
X142139642Y-159475819D01*
X142139642Y-159475819D02*
X142234880Y-159475819D01*
X142234880Y-159475819D02*
X142377737Y-159428200D01*
X142377737Y-159428200D02*
X142472975Y-159332961D01*
X142472975Y-159332961D02*
X142520594Y-159237723D01*
X142520594Y-159237723D02*
X142568213Y-159047247D01*
X142568213Y-159047247D02*
X142568213Y-158904390D01*
X142568213Y-158904390D02*
X142520594Y-158713914D01*
X142520594Y-158713914D02*
X142472975Y-158618676D01*
X142472975Y-158618676D02*
X142377737Y-158523438D01*
X142377737Y-158523438D02*
X142234880Y-158475819D01*
X142234880Y-158475819D02*
X142139642Y-158475819D01*
X142139642Y-158475819D02*
X141996785Y-158523438D01*
X141996785Y-158523438D02*
X141949166Y-158571057D01*
X141615832Y-158475819D02*
X140949166Y-158475819D01*
X140949166Y-158475819D02*
X141377737Y-159475819D01*
X150558857Y-164030819D02*
X150892190Y-163554628D01*
X151130285Y-164030819D02*
X151130285Y-163030819D01*
X151130285Y-163030819D02*
X150749333Y-163030819D01*
X150749333Y-163030819D02*
X150654095Y-163078438D01*
X150654095Y-163078438D02*
X150606476Y-163126057D01*
X150606476Y-163126057D02*
X150558857Y-163221295D01*
X150558857Y-163221295D02*
X150558857Y-163364152D01*
X150558857Y-163364152D02*
X150606476Y-163459390D01*
X150606476Y-163459390D02*
X150654095Y-163507009D01*
X150654095Y-163507009D02*
X150749333Y-163554628D01*
X150749333Y-163554628D02*
X151130285Y-163554628D01*
X150177904Y-163126057D02*
X150130285Y-163078438D01*
X150130285Y-163078438D02*
X150035047Y-163030819D01*
X150035047Y-163030819D02*
X149796952Y-163030819D01*
X149796952Y-163030819D02*
X149701714Y-163078438D01*
X149701714Y-163078438D02*
X149654095Y-163126057D01*
X149654095Y-163126057D02*
X149606476Y-163221295D01*
X149606476Y-163221295D02*
X149606476Y-163316533D01*
X149606476Y-163316533D02*
X149654095Y-163459390D01*
X149654095Y-163459390D02*
X150225523Y-164030819D01*
X150225523Y-164030819D02*
X149606476Y-164030819D01*
X148749333Y-163364152D02*
X148749333Y-164030819D01*
X148987428Y-162983200D02*
X149225523Y-163697485D01*
X149225523Y-163697485D02*
X148606476Y-163697485D01*
X161678857Y-172063580D02*
X161726476Y-172111200D01*
X161726476Y-172111200D02*
X161869333Y-172158819D01*
X161869333Y-172158819D02*
X161964571Y-172158819D01*
X161964571Y-172158819D02*
X162107428Y-172111200D01*
X162107428Y-172111200D02*
X162202666Y-172015961D01*
X162202666Y-172015961D02*
X162250285Y-171920723D01*
X162250285Y-171920723D02*
X162297904Y-171730247D01*
X162297904Y-171730247D02*
X162297904Y-171587390D01*
X162297904Y-171587390D02*
X162250285Y-171396914D01*
X162250285Y-171396914D02*
X162202666Y-171301676D01*
X162202666Y-171301676D02*
X162107428Y-171206438D01*
X162107428Y-171206438D02*
X161964571Y-171158819D01*
X161964571Y-171158819D02*
X161869333Y-171158819D01*
X161869333Y-171158819D02*
X161726476Y-171206438D01*
X161726476Y-171206438D02*
X161678857Y-171254057D01*
X160726476Y-172158819D02*
X161297904Y-172158819D01*
X161012190Y-172158819D02*
X161012190Y-171158819D01*
X161012190Y-171158819D02*
X161107428Y-171301676D01*
X161107428Y-171301676D02*
X161202666Y-171396914D01*
X161202666Y-171396914D02*
X161297904Y-171444533D01*
X159869333Y-171158819D02*
X160059809Y-171158819D01*
X160059809Y-171158819D02*
X160155047Y-171206438D01*
X160155047Y-171206438D02*
X160202666Y-171254057D01*
X160202666Y-171254057D02*
X160297904Y-171396914D01*
X160297904Y-171396914D02*
X160345523Y-171587390D01*
X160345523Y-171587390D02*
X160345523Y-171968342D01*
X160345523Y-171968342D02*
X160297904Y-172063580D01*
X160297904Y-172063580D02*
X160250285Y-172111200D01*
X160250285Y-172111200D02*
X160155047Y-172158819D01*
X160155047Y-172158819D02*
X159964571Y-172158819D01*
X159964571Y-172158819D02*
X159869333Y-172111200D01*
X159869333Y-172111200D02*
X159821714Y-172063580D01*
X159821714Y-172063580D02*
X159774095Y-171968342D01*
X159774095Y-171968342D02*
X159774095Y-171730247D01*
X159774095Y-171730247D02*
X159821714Y-171635009D01*
X159821714Y-171635009D02*
X159869333Y-171587390D01*
X159869333Y-171587390D02*
X159964571Y-171539771D01*
X159964571Y-171539771D02*
X160155047Y-171539771D01*
X160155047Y-171539771D02*
X160250285Y-171587390D01*
X160250285Y-171587390D02*
X160297904Y-171635009D01*
X160297904Y-171635009D02*
X160345523Y-171730247D01*
X130690857Y-154378819D02*
X131024190Y-153902628D01*
X131262285Y-154378819D02*
X131262285Y-153378819D01*
X131262285Y-153378819D02*
X130881333Y-153378819D01*
X130881333Y-153378819D02*
X130786095Y-153426438D01*
X130786095Y-153426438D02*
X130738476Y-153474057D01*
X130738476Y-153474057D02*
X130690857Y-153569295D01*
X130690857Y-153569295D02*
X130690857Y-153712152D01*
X130690857Y-153712152D02*
X130738476Y-153807390D01*
X130738476Y-153807390D02*
X130786095Y-153855009D01*
X130786095Y-153855009D02*
X130881333Y-153902628D01*
X130881333Y-153902628D02*
X131262285Y-153902628D01*
X129738476Y-154378819D02*
X130309904Y-154378819D01*
X130024190Y-154378819D02*
X130024190Y-153378819D01*
X130024190Y-153378819D02*
X130119428Y-153521676D01*
X130119428Y-153521676D02*
X130214666Y-153616914D01*
X130214666Y-153616914D02*
X130309904Y-153664533D01*
X128881333Y-153712152D02*
X128881333Y-154378819D01*
X129119428Y-153331200D02*
X129357523Y-154045485D01*
X129357523Y-154045485D02*
X128738476Y-154045485D01*
X120562666Y-161490819D02*
X120895999Y-161014628D01*
X121134094Y-161490819D02*
X121134094Y-160490819D01*
X121134094Y-160490819D02*
X120753142Y-160490819D01*
X120753142Y-160490819D02*
X120657904Y-160538438D01*
X120657904Y-160538438D02*
X120610285Y-160586057D01*
X120610285Y-160586057D02*
X120562666Y-160681295D01*
X120562666Y-160681295D02*
X120562666Y-160824152D01*
X120562666Y-160824152D02*
X120610285Y-160919390D01*
X120610285Y-160919390D02*
X120657904Y-160967009D01*
X120657904Y-160967009D02*
X120753142Y-161014628D01*
X120753142Y-161014628D02*
X121134094Y-161014628D01*
X120229332Y-160490819D02*
X119610285Y-160490819D01*
X119610285Y-160490819D02*
X119943618Y-160871771D01*
X119943618Y-160871771D02*
X119800761Y-160871771D01*
X119800761Y-160871771D02*
X119705523Y-160919390D01*
X119705523Y-160919390D02*
X119657904Y-160967009D01*
X119657904Y-160967009D02*
X119610285Y-161062247D01*
X119610285Y-161062247D02*
X119610285Y-161300342D01*
X119610285Y-161300342D02*
X119657904Y-161395580D01*
X119657904Y-161395580D02*
X119705523Y-161443200D01*
X119705523Y-161443200D02*
X119800761Y-161490819D01*
X119800761Y-161490819D02*
X120086475Y-161490819D01*
X120086475Y-161490819D02*
X120181713Y-161443200D01*
X120181713Y-161443200D02*
X120229332Y-161395580D01*
X112942666Y-172063580D02*
X112990285Y-172111200D01*
X112990285Y-172111200D02*
X113133142Y-172158819D01*
X113133142Y-172158819D02*
X113228380Y-172158819D01*
X113228380Y-172158819D02*
X113371237Y-172111200D01*
X113371237Y-172111200D02*
X113466475Y-172015961D01*
X113466475Y-172015961D02*
X113514094Y-171920723D01*
X113514094Y-171920723D02*
X113561713Y-171730247D01*
X113561713Y-171730247D02*
X113561713Y-171587390D01*
X113561713Y-171587390D02*
X113514094Y-171396914D01*
X113514094Y-171396914D02*
X113466475Y-171301676D01*
X113466475Y-171301676D02*
X113371237Y-171206438D01*
X113371237Y-171206438D02*
X113228380Y-171158819D01*
X113228380Y-171158819D02*
X113133142Y-171158819D01*
X113133142Y-171158819D02*
X112990285Y-171206438D01*
X112990285Y-171206438D02*
X112942666Y-171254057D01*
X112085523Y-171492152D02*
X112085523Y-172158819D01*
X112323618Y-171111200D02*
X112561713Y-171825485D01*
X112561713Y-171825485D02*
X111942666Y-171825485D01*
X161678857Y-161903580D02*
X161726476Y-161951200D01*
X161726476Y-161951200D02*
X161869333Y-161998819D01*
X161869333Y-161998819D02*
X161964571Y-161998819D01*
X161964571Y-161998819D02*
X162107428Y-161951200D01*
X162107428Y-161951200D02*
X162202666Y-161855961D01*
X162202666Y-161855961D02*
X162250285Y-161760723D01*
X162250285Y-161760723D02*
X162297904Y-161570247D01*
X162297904Y-161570247D02*
X162297904Y-161427390D01*
X162297904Y-161427390D02*
X162250285Y-161236914D01*
X162250285Y-161236914D02*
X162202666Y-161141676D01*
X162202666Y-161141676D02*
X162107428Y-161046438D01*
X162107428Y-161046438D02*
X161964571Y-160998819D01*
X161964571Y-160998819D02*
X161869333Y-160998819D01*
X161869333Y-160998819D02*
X161726476Y-161046438D01*
X161726476Y-161046438D02*
X161678857Y-161094057D01*
X160726476Y-161998819D02*
X161297904Y-161998819D01*
X161012190Y-161998819D02*
X161012190Y-160998819D01*
X161012190Y-160998819D02*
X161107428Y-161141676D01*
X161107428Y-161141676D02*
X161202666Y-161236914D01*
X161202666Y-161236914D02*
X161297904Y-161284533D01*
X159869333Y-161332152D02*
X159869333Y-161998819D01*
X160107428Y-160951200D02*
X160345523Y-161665485D01*
X160345523Y-161665485D02*
X159726476Y-161665485D01*
X129674857Y-161490819D02*
X130008190Y-161014628D01*
X130246285Y-161490819D02*
X130246285Y-160490819D01*
X130246285Y-160490819D02*
X129865333Y-160490819D01*
X129865333Y-160490819D02*
X129770095Y-160538438D01*
X129770095Y-160538438D02*
X129722476Y-160586057D01*
X129722476Y-160586057D02*
X129674857Y-160681295D01*
X129674857Y-160681295D02*
X129674857Y-160824152D01*
X129674857Y-160824152D02*
X129722476Y-160919390D01*
X129722476Y-160919390D02*
X129770095Y-160967009D01*
X129770095Y-160967009D02*
X129865333Y-161014628D01*
X129865333Y-161014628D02*
X130246285Y-161014628D01*
X128722476Y-161490819D02*
X129293904Y-161490819D01*
X129008190Y-161490819D02*
X129008190Y-160490819D01*
X129008190Y-160490819D02*
X129103428Y-160633676D01*
X129103428Y-160633676D02*
X129198666Y-160728914D01*
X129198666Y-160728914D02*
X129293904Y-160776533D01*
X128151047Y-160919390D02*
X128246285Y-160871771D01*
X128246285Y-160871771D02*
X128293904Y-160824152D01*
X128293904Y-160824152D02*
X128341523Y-160728914D01*
X128341523Y-160728914D02*
X128341523Y-160681295D01*
X128341523Y-160681295D02*
X128293904Y-160586057D01*
X128293904Y-160586057D02*
X128246285Y-160538438D01*
X128246285Y-160538438D02*
X128151047Y-160490819D01*
X128151047Y-160490819D02*
X127960571Y-160490819D01*
X127960571Y-160490819D02*
X127865333Y-160538438D01*
X127865333Y-160538438D02*
X127817714Y-160586057D01*
X127817714Y-160586057D02*
X127770095Y-160681295D01*
X127770095Y-160681295D02*
X127770095Y-160728914D01*
X127770095Y-160728914D02*
X127817714Y-160824152D01*
X127817714Y-160824152D02*
X127865333Y-160871771D01*
X127865333Y-160871771D02*
X127960571Y-160919390D01*
X127960571Y-160919390D02*
X128151047Y-160919390D01*
X128151047Y-160919390D02*
X128246285Y-160967009D01*
X128246285Y-160967009D02*
X128293904Y-161014628D01*
X128293904Y-161014628D02*
X128341523Y-161109866D01*
X128341523Y-161109866D02*
X128341523Y-161300342D01*
X128341523Y-161300342D02*
X128293904Y-161395580D01*
X128293904Y-161395580D02*
X128246285Y-161443200D01*
X128246285Y-161443200D02*
X128151047Y-161490819D01*
X128151047Y-161490819D02*
X127960571Y-161490819D01*
X127960571Y-161490819D02*
X127865333Y-161443200D01*
X127865333Y-161443200D02*
X127817714Y-161395580D01*
X127817714Y-161395580D02*
X127770095Y-161300342D01*
X127770095Y-161300342D02*
X127770095Y-161109866D01*
X127770095Y-161109866D02*
X127817714Y-161014628D01*
X127817714Y-161014628D02*
X127865333Y-160967009D01*
X127865333Y-160967009D02*
X127960571Y-160919390D01*
X112942666Y-161903580D02*
X112990285Y-161951200D01*
X112990285Y-161951200D02*
X113133142Y-161998819D01*
X113133142Y-161998819D02*
X113228380Y-161998819D01*
X113228380Y-161998819D02*
X113371237Y-161951200D01*
X113371237Y-161951200D02*
X113466475Y-161855961D01*
X113466475Y-161855961D02*
X113514094Y-161760723D01*
X113514094Y-161760723D02*
X113561713Y-161570247D01*
X113561713Y-161570247D02*
X113561713Y-161427390D01*
X113561713Y-161427390D02*
X113514094Y-161236914D01*
X113514094Y-161236914D02*
X113466475Y-161141676D01*
X113466475Y-161141676D02*
X113371237Y-161046438D01*
X113371237Y-161046438D02*
X113228380Y-160998819D01*
X113228380Y-160998819D02*
X113133142Y-160998819D01*
X113133142Y-160998819D02*
X112990285Y-161046438D01*
X112990285Y-161046438D02*
X112942666Y-161094057D01*
X112561713Y-161094057D02*
X112514094Y-161046438D01*
X112514094Y-161046438D02*
X112418856Y-160998819D01*
X112418856Y-160998819D02*
X112180761Y-160998819D01*
X112180761Y-160998819D02*
X112085523Y-161046438D01*
X112085523Y-161046438D02*
X112037904Y-161094057D01*
X112037904Y-161094057D02*
X111990285Y-161189295D01*
X111990285Y-161189295D02*
X111990285Y-161284533D01*
X111990285Y-161284533D02*
X112037904Y-161427390D01*
X112037904Y-161427390D02*
X112609332Y-161998819D01*
X112609332Y-161998819D02*
X111990285Y-161998819D01*
X150502857Y-153870819D02*
X150836190Y-153394628D01*
X151074285Y-153870819D02*
X151074285Y-152870819D01*
X151074285Y-152870819D02*
X150693333Y-152870819D01*
X150693333Y-152870819D02*
X150598095Y-152918438D01*
X150598095Y-152918438D02*
X150550476Y-152966057D01*
X150550476Y-152966057D02*
X150502857Y-153061295D01*
X150502857Y-153061295D02*
X150502857Y-153204152D01*
X150502857Y-153204152D02*
X150550476Y-153299390D01*
X150550476Y-153299390D02*
X150598095Y-153347009D01*
X150598095Y-153347009D02*
X150693333Y-153394628D01*
X150693333Y-153394628D02*
X151074285Y-153394628D01*
X150121904Y-152966057D02*
X150074285Y-152918438D01*
X150074285Y-152918438D02*
X149979047Y-152870819D01*
X149979047Y-152870819D02*
X149740952Y-152870819D01*
X149740952Y-152870819D02*
X149645714Y-152918438D01*
X149645714Y-152918438D02*
X149598095Y-152966057D01*
X149598095Y-152966057D02*
X149550476Y-153061295D01*
X149550476Y-153061295D02*
X149550476Y-153156533D01*
X149550476Y-153156533D02*
X149598095Y-153299390D01*
X149598095Y-153299390D02*
X150169523Y-153870819D01*
X150169523Y-153870819D02*
X149550476Y-153870819D01*
X149074285Y-153870819D02*
X148883809Y-153870819D01*
X148883809Y-153870819D02*
X148788571Y-153823200D01*
X148788571Y-153823200D02*
X148740952Y-153775580D01*
X148740952Y-153775580D02*
X148645714Y-153632723D01*
X148645714Y-153632723D02*
X148598095Y-153442247D01*
X148598095Y-153442247D02*
X148598095Y-153061295D01*
X148598095Y-153061295D02*
X148645714Y-152966057D01*
X148645714Y-152966057D02*
X148693333Y-152918438D01*
X148693333Y-152918438D02*
X148788571Y-152870819D01*
X148788571Y-152870819D02*
X148979047Y-152870819D01*
X148979047Y-152870819D02*
X149074285Y-152918438D01*
X149074285Y-152918438D02*
X149121904Y-152966057D01*
X149121904Y-152966057D02*
X149169523Y-153061295D01*
X149169523Y-153061295D02*
X149169523Y-153299390D01*
X149169523Y-153299390D02*
X149121904Y-153394628D01*
X149121904Y-153394628D02*
X149074285Y-153442247D01*
X149074285Y-153442247D02*
X148979047Y-153489866D01*
X148979047Y-153489866D02*
X148788571Y-153489866D01*
X148788571Y-153489866D02*
X148693333Y-153442247D01*
X148693333Y-153442247D02*
X148645714Y-153394628D01*
X148645714Y-153394628D02*
X148598095Y-153299390D01*
X165742857Y-153870819D02*
X166076190Y-153394628D01*
X166314285Y-153870819D02*
X166314285Y-152870819D01*
X166314285Y-152870819D02*
X165933333Y-152870819D01*
X165933333Y-152870819D02*
X165838095Y-152918438D01*
X165838095Y-152918438D02*
X165790476Y-152966057D01*
X165790476Y-152966057D02*
X165742857Y-153061295D01*
X165742857Y-153061295D02*
X165742857Y-153204152D01*
X165742857Y-153204152D02*
X165790476Y-153299390D01*
X165790476Y-153299390D02*
X165838095Y-153347009D01*
X165838095Y-153347009D02*
X165933333Y-153394628D01*
X165933333Y-153394628D02*
X166314285Y-153394628D01*
X165409523Y-152870819D02*
X164790476Y-152870819D01*
X164790476Y-152870819D02*
X165123809Y-153251771D01*
X165123809Y-153251771D02*
X164980952Y-153251771D01*
X164980952Y-153251771D02*
X164885714Y-153299390D01*
X164885714Y-153299390D02*
X164838095Y-153347009D01*
X164838095Y-153347009D02*
X164790476Y-153442247D01*
X164790476Y-153442247D02*
X164790476Y-153680342D01*
X164790476Y-153680342D02*
X164838095Y-153775580D01*
X164838095Y-153775580D02*
X164885714Y-153823200D01*
X164885714Y-153823200D02*
X164980952Y-153870819D01*
X164980952Y-153870819D02*
X165266666Y-153870819D01*
X165266666Y-153870819D02*
X165361904Y-153823200D01*
X165361904Y-153823200D02*
X165409523Y-153775580D01*
X163933333Y-153204152D02*
X163933333Y-153870819D01*
X164171428Y-152823200D02*
X164409523Y-153537485D01*
X164409523Y-153537485D02*
X163790476Y-153537485D01*
X161678857Y-164030819D02*
X162012190Y-163554628D01*
X162250285Y-164030819D02*
X162250285Y-163030819D01*
X162250285Y-163030819D02*
X161869333Y-163030819D01*
X161869333Y-163030819D02*
X161774095Y-163078438D01*
X161774095Y-163078438D02*
X161726476Y-163126057D01*
X161726476Y-163126057D02*
X161678857Y-163221295D01*
X161678857Y-163221295D02*
X161678857Y-163364152D01*
X161678857Y-163364152D02*
X161726476Y-163459390D01*
X161726476Y-163459390D02*
X161774095Y-163507009D01*
X161774095Y-163507009D02*
X161869333Y-163554628D01*
X161869333Y-163554628D02*
X162250285Y-163554628D01*
X161345523Y-163030819D02*
X160726476Y-163030819D01*
X160726476Y-163030819D02*
X161059809Y-163411771D01*
X161059809Y-163411771D02*
X160916952Y-163411771D01*
X160916952Y-163411771D02*
X160821714Y-163459390D01*
X160821714Y-163459390D02*
X160774095Y-163507009D01*
X160774095Y-163507009D02*
X160726476Y-163602247D01*
X160726476Y-163602247D02*
X160726476Y-163840342D01*
X160726476Y-163840342D02*
X160774095Y-163935580D01*
X160774095Y-163935580D02*
X160821714Y-163983200D01*
X160821714Y-163983200D02*
X160916952Y-164030819D01*
X160916952Y-164030819D02*
X161202666Y-164030819D01*
X161202666Y-164030819D02*
X161297904Y-163983200D01*
X161297904Y-163983200D02*
X161345523Y-163935580D01*
X160393142Y-163030819D02*
X159726476Y-163030819D01*
X159726476Y-163030819D02*
X160155047Y-164030819D01*
X122848666Y-161490819D02*
X123181999Y-161014628D01*
X123420094Y-161490819D02*
X123420094Y-160490819D01*
X123420094Y-160490819D02*
X123039142Y-160490819D01*
X123039142Y-160490819D02*
X122943904Y-160538438D01*
X122943904Y-160538438D02*
X122896285Y-160586057D01*
X122896285Y-160586057D02*
X122848666Y-160681295D01*
X122848666Y-160681295D02*
X122848666Y-160824152D01*
X122848666Y-160824152D02*
X122896285Y-160919390D01*
X122896285Y-160919390D02*
X122943904Y-160967009D01*
X122943904Y-160967009D02*
X123039142Y-161014628D01*
X123039142Y-161014628D02*
X123420094Y-161014628D01*
X122277237Y-160919390D02*
X122372475Y-160871771D01*
X122372475Y-160871771D02*
X122420094Y-160824152D01*
X122420094Y-160824152D02*
X122467713Y-160728914D01*
X122467713Y-160728914D02*
X122467713Y-160681295D01*
X122467713Y-160681295D02*
X122420094Y-160586057D01*
X122420094Y-160586057D02*
X122372475Y-160538438D01*
X122372475Y-160538438D02*
X122277237Y-160490819D01*
X122277237Y-160490819D02*
X122086761Y-160490819D01*
X122086761Y-160490819D02*
X121991523Y-160538438D01*
X121991523Y-160538438D02*
X121943904Y-160586057D01*
X121943904Y-160586057D02*
X121896285Y-160681295D01*
X121896285Y-160681295D02*
X121896285Y-160728914D01*
X121896285Y-160728914D02*
X121943904Y-160824152D01*
X121943904Y-160824152D02*
X121991523Y-160871771D01*
X121991523Y-160871771D02*
X122086761Y-160919390D01*
X122086761Y-160919390D02*
X122277237Y-160919390D01*
X122277237Y-160919390D02*
X122372475Y-160967009D01*
X122372475Y-160967009D02*
X122420094Y-161014628D01*
X122420094Y-161014628D02*
X122467713Y-161109866D01*
X122467713Y-161109866D02*
X122467713Y-161300342D01*
X122467713Y-161300342D02*
X122420094Y-161395580D01*
X122420094Y-161395580D02*
X122372475Y-161443200D01*
X122372475Y-161443200D02*
X122277237Y-161490819D01*
X122277237Y-161490819D02*
X122086761Y-161490819D01*
X122086761Y-161490819D02*
X121991523Y-161443200D01*
X121991523Y-161443200D02*
X121943904Y-161395580D01*
X121943904Y-161395580D02*
X121896285Y-161300342D01*
X121896285Y-161300342D02*
X121896285Y-161109866D01*
X121896285Y-161109866D02*
X121943904Y-161014628D01*
X121943904Y-161014628D02*
X121991523Y-160967009D01*
X121991523Y-160967009D02*
X122086761Y-160919390D01*
X121578666Y-157697580D02*
X121626285Y-157745200D01*
X121626285Y-157745200D02*
X121769142Y-157792819D01*
X121769142Y-157792819D02*
X121864380Y-157792819D01*
X121864380Y-157792819D02*
X122007237Y-157745200D01*
X122007237Y-157745200D02*
X122102475Y-157649961D01*
X122102475Y-157649961D02*
X122150094Y-157554723D01*
X122150094Y-157554723D02*
X122197713Y-157364247D01*
X122197713Y-157364247D02*
X122197713Y-157221390D01*
X122197713Y-157221390D02*
X122150094Y-157030914D01*
X122150094Y-157030914D02*
X122102475Y-156935676D01*
X122102475Y-156935676D02*
X122007237Y-156840438D01*
X122007237Y-156840438D02*
X121864380Y-156792819D01*
X121864380Y-156792819D02*
X121769142Y-156792819D01*
X121769142Y-156792819D02*
X121626285Y-156840438D01*
X121626285Y-156840438D02*
X121578666Y-156888057D01*
X120721523Y-156792819D02*
X120911999Y-156792819D01*
X120911999Y-156792819D02*
X121007237Y-156840438D01*
X121007237Y-156840438D02*
X121054856Y-156888057D01*
X121054856Y-156888057D02*
X121150094Y-157030914D01*
X121150094Y-157030914D02*
X121197713Y-157221390D01*
X121197713Y-157221390D02*
X121197713Y-157602342D01*
X121197713Y-157602342D02*
X121150094Y-157697580D01*
X121150094Y-157697580D02*
X121102475Y-157745200D01*
X121102475Y-157745200D02*
X121007237Y-157792819D01*
X121007237Y-157792819D02*
X120816761Y-157792819D01*
X120816761Y-157792819D02*
X120721523Y-157745200D01*
X120721523Y-157745200D02*
X120673904Y-157697580D01*
X120673904Y-157697580D02*
X120626285Y-157602342D01*
X120626285Y-157602342D02*
X120626285Y-157364247D01*
X120626285Y-157364247D02*
X120673904Y-157269009D01*
X120673904Y-157269009D02*
X120721523Y-157221390D01*
X120721523Y-157221390D02*
X120816761Y-157173771D01*
X120816761Y-157173771D02*
X121007237Y-157173771D01*
X121007237Y-157173771D02*
X121102475Y-157221390D01*
X121102475Y-157221390D02*
X121150094Y-157269009D01*
X121150094Y-157269009D02*
X121197713Y-157364247D01*
X129706666Y-159363580D02*
X129754285Y-159411200D01*
X129754285Y-159411200D02*
X129897142Y-159458819D01*
X129897142Y-159458819D02*
X129992380Y-159458819D01*
X129992380Y-159458819D02*
X130135237Y-159411200D01*
X130135237Y-159411200D02*
X130230475Y-159315961D01*
X130230475Y-159315961D02*
X130278094Y-159220723D01*
X130278094Y-159220723D02*
X130325713Y-159030247D01*
X130325713Y-159030247D02*
X130325713Y-158887390D01*
X130325713Y-158887390D02*
X130278094Y-158696914D01*
X130278094Y-158696914D02*
X130230475Y-158601676D01*
X130230475Y-158601676D02*
X130135237Y-158506438D01*
X130135237Y-158506438D02*
X129992380Y-158458819D01*
X129992380Y-158458819D02*
X129897142Y-158458819D01*
X129897142Y-158458819D02*
X129754285Y-158506438D01*
X129754285Y-158506438D02*
X129706666Y-158554057D01*
X128801904Y-158458819D02*
X129278094Y-158458819D01*
X129278094Y-158458819D02*
X129325713Y-158935009D01*
X129325713Y-158935009D02*
X129278094Y-158887390D01*
X129278094Y-158887390D02*
X129182856Y-158839771D01*
X129182856Y-158839771D02*
X128944761Y-158839771D01*
X128944761Y-158839771D02*
X128849523Y-158887390D01*
X128849523Y-158887390D02*
X128801904Y-158935009D01*
X128801904Y-158935009D02*
X128754285Y-159030247D01*
X128754285Y-159030247D02*
X128754285Y-159268342D01*
X128754285Y-159268342D02*
X128801904Y-159363580D01*
X128801904Y-159363580D02*
X128849523Y-159411200D01*
X128849523Y-159411200D02*
X128944761Y-159458819D01*
X128944761Y-159458819D02*
X129182856Y-159458819D01*
X129182856Y-159458819D02*
X129278094Y-159411200D01*
X129278094Y-159411200D02*
X129325713Y-159363580D01*
X136786857Y-161490819D02*
X137120190Y-161014628D01*
X137358285Y-161490819D02*
X137358285Y-160490819D01*
X137358285Y-160490819D02*
X136977333Y-160490819D01*
X136977333Y-160490819D02*
X136882095Y-160538438D01*
X136882095Y-160538438D02*
X136834476Y-160586057D01*
X136834476Y-160586057D02*
X136786857Y-160681295D01*
X136786857Y-160681295D02*
X136786857Y-160824152D01*
X136786857Y-160824152D02*
X136834476Y-160919390D01*
X136834476Y-160919390D02*
X136882095Y-160967009D01*
X136882095Y-160967009D02*
X136977333Y-161014628D01*
X136977333Y-161014628D02*
X137358285Y-161014628D01*
X136405904Y-160586057D02*
X136358285Y-160538438D01*
X136358285Y-160538438D02*
X136263047Y-160490819D01*
X136263047Y-160490819D02*
X136024952Y-160490819D01*
X136024952Y-160490819D02*
X135929714Y-160538438D01*
X135929714Y-160538438D02*
X135882095Y-160586057D01*
X135882095Y-160586057D02*
X135834476Y-160681295D01*
X135834476Y-160681295D02*
X135834476Y-160776533D01*
X135834476Y-160776533D02*
X135882095Y-160919390D01*
X135882095Y-160919390D02*
X136453523Y-161490819D01*
X136453523Y-161490819D02*
X135834476Y-161490819D01*
X135263047Y-160919390D02*
X135358285Y-160871771D01*
X135358285Y-160871771D02*
X135405904Y-160824152D01*
X135405904Y-160824152D02*
X135453523Y-160728914D01*
X135453523Y-160728914D02*
X135453523Y-160681295D01*
X135453523Y-160681295D02*
X135405904Y-160586057D01*
X135405904Y-160586057D02*
X135358285Y-160538438D01*
X135358285Y-160538438D02*
X135263047Y-160490819D01*
X135263047Y-160490819D02*
X135072571Y-160490819D01*
X135072571Y-160490819D02*
X134977333Y-160538438D01*
X134977333Y-160538438D02*
X134929714Y-160586057D01*
X134929714Y-160586057D02*
X134882095Y-160681295D01*
X134882095Y-160681295D02*
X134882095Y-160728914D01*
X134882095Y-160728914D02*
X134929714Y-160824152D01*
X134929714Y-160824152D02*
X134977333Y-160871771D01*
X134977333Y-160871771D02*
X135072571Y-160919390D01*
X135072571Y-160919390D02*
X135263047Y-160919390D01*
X135263047Y-160919390D02*
X135358285Y-160967009D01*
X135358285Y-160967009D02*
X135405904Y-161014628D01*
X135405904Y-161014628D02*
X135453523Y-161109866D01*
X135453523Y-161109866D02*
X135453523Y-161300342D01*
X135453523Y-161300342D02*
X135405904Y-161395580D01*
X135405904Y-161395580D02*
X135358285Y-161443200D01*
X135358285Y-161443200D02*
X135263047Y-161490819D01*
X135263047Y-161490819D02*
X135072571Y-161490819D01*
X135072571Y-161490819D02*
X134977333Y-161443200D01*
X134977333Y-161443200D02*
X134929714Y-161395580D01*
X134929714Y-161395580D02*
X134882095Y-161300342D01*
X134882095Y-161300342D02*
X134882095Y-161109866D01*
X134882095Y-161109866D02*
X134929714Y-161014628D01*
X134929714Y-161014628D02*
X134977333Y-160967009D01*
X134977333Y-160967009D02*
X135072571Y-160919390D01*
X117006666Y-161903580D02*
X117054285Y-161951200D01*
X117054285Y-161951200D02*
X117197142Y-161998819D01*
X117197142Y-161998819D02*
X117292380Y-161998819D01*
X117292380Y-161998819D02*
X117435237Y-161951200D01*
X117435237Y-161951200D02*
X117530475Y-161855961D01*
X117530475Y-161855961D02*
X117578094Y-161760723D01*
X117578094Y-161760723D02*
X117625713Y-161570247D01*
X117625713Y-161570247D02*
X117625713Y-161427390D01*
X117625713Y-161427390D02*
X117578094Y-161236914D01*
X117578094Y-161236914D02*
X117530475Y-161141676D01*
X117530475Y-161141676D02*
X117435237Y-161046438D01*
X117435237Y-161046438D02*
X117292380Y-160998819D01*
X117292380Y-160998819D02*
X117197142Y-160998819D01*
X117197142Y-160998819D02*
X117054285Y-161046438D01*
X117054285Y-161046438D02*
X117006666Y-161094057D01*
X116054285Y-161998819D02*
X116625713Y-161998819D01*
X116339999Y-161998819D02*
X116339999Y-160998819D01*
X116339999Y-160998819D02*
X116435237Y-161141676D01*
X116435237Y-161141676D02*
X116530475Y-161236914D01*
X116530475Y-161236914D02*
X116625713Y-161284533D01*
X146438857Y-161903580D02*
X146486476Y-161951200D01*
X146486476Y-161951200D02*
X146629333Y-161998819D01*
X146629333Y-161998819D02*
X146724571Y-161998819D01*
X146724571Y-161998819D02*
X146867428Y-161951200D01*
X146867428Y-161951200D02*
X146962666Y-161855961D01*
X146962666Y-161855961D02*
X147010285Y-161760723D01*
X147010285Y-161760723D02*
X147057904Y-161570247D01*
X147057904Y-161570247D02*
X147057904Y-161427390D01*
X147057904Y-161427390D02*
X147010285Y-161236914D01*
X147010285Y-161236914D02*
X146962666Y-161141676D01*
X146962666Y-161141676D02*
X146867428Y-161046438D01*
X146867428Y-161046438D02*
X146724571Y-160998819D01*
X146724571Y-160998819D02*
X146629333Y-160998819D01*
X146629333Y-160998819D02*
X146486476Y-161046438D01*
X146486476Y-161046438D02*
X146438857Y-161094057D01*
X145486476Y-161998819D02*
X146057904Y-161998819D01*
X145772190Y-161998819D02*
X145772190Y-160998819D01*
X145772190Y-160998819D02*
X145867428Y-161141676D01*
X145867428Y-161141676D02*
X145962666Y-161236914D01*
X145962666Y-161236914D02*
X146057904Y-161284533D01*
X145105523Y-161094057D02*
X145057904Y-161046438D01*
X145057904Y-161046438D02*
X144962666Y-160998819D01*
X144962666Y-160998819D02*
X144724571Y-160998819D01*
X144724571Y-160998819D02*
X144629333Y-161046438D01*
X144629333Y-161046438D02*
X144581714Y-161094057D01*
X144581714Y-161094057D02*
X144534095Y-161189295D01*
X144534095Y-161189295D02*
X144534095Y-161284533D01*
X144534095Y-161284533D02*
X144581714Y-161427390D01*
X144581714Y-161427390D02*
X145153142Y-161998819D01*
X145153142Y-161998819D02*
X144534095Y-161998819D01*
X165742857Y-172063580D02*
X165790476Y-172111200D01*
X165790476Y-172111200D02*
X165933333Y-172158819D01*
X165933333Y-172158819D02*
X166028571Y-172158819D01*
X166028571Y-172158819D02*
X166171428Y-172111200D01*
X166171428Y-172111200D02*
X166266666Y-172015961D01*
X166266666Y-172015961D02*
X166314285Y-171920723D01*
X166314285Y-171920723D02*
X166361904Y-171730247D01*
X166361904Y-171730247D02*
X166361904Y-171587390D01*
X166361904Y-171587390D02*
X166314285Y-171396914D01*
X166314285Y-171396914D02*
X166266666Y-171301676D01*
X166266666Y-171301676D02*
X166171428Y-171206438D01*
X166171428Y-171206438D02*
X166028571Y-171158819D01*
X166028571Y-171158819D02*
X165933333Y-171158819D01*
X165933333Y-171158819D02*
X165790476Y-171206438D01*
X165790476Y-171206438D02*
X165742857Y-171254057D01*
X164790476Y-172158819D02*
X165361904Y-172158819D01*
X165076190Y-172158819D02*
X165076190Y-171158819D01*
X165076190Y-171158819D02*
X165171428Y-171301676D01*
X165171428Y-171301676D02*
X165266666Y-171396914D01*
X165266666Y-171396914D02*
X165361904Y-171444533D01*
X163885714Y-171158819D02*
X164361904Y-171158819D01*
X164361904Y-171158819D02*
X164409523Y-171635009D01*
X164409523Y-171635009D02*
X164361904Y-171587390D01*
X164361904Y-171587390D02*
X164266666Y-171539771D01*
X164266666Y-171539771D02*
X164028571Y-171539771D01*
X164028571Y-171539771D02*
X163933333Y-171587390D01*
X163933333Y-171587390D02*
X163885714Y-171635009D01*
X163885714Y-171635009D02*
X163838095Y-171730247D01*
X163838095Y-171730247D02*
X163838095Y-171968342D01*
X163838095Y-171968342D02*
X163885714Y-172063580D01*
X163885714Y-172063580D02*
X163933333Y-172111200D01*
X163933333Y-172111200D02*
X164028571Y-172158819D01*
X164028571Y-172158819D02*
X164266666Y-172158819D01*
X164266666Y-172158819D02*
X164361904Y-172111200D01*
X164361904Y-172111200D02*
X164409523Y-172063580D01*
X165742857Y-161903580D02*
X165790476Y-161951200D01*
X165790476Y-161951200D02*
X165933333Y-161998819D01*
X165933333Y-161998819D02*
X166028571Y-161998819D01*
X166028571Y-161998819D02*
X166171428Y-161951200D01*
X166171428Y-161951200D02*
X166266666Y-161855961D01*
X166266666Y-161855961D02*
X166314285Y-161760723D01*
X166314285Y-161760723D02*
X166361904Y-161570247D01*
X166361904Y-161570247D02*
X166361904Y-161427390D01*
X166361904Y-161427390D02*
X166314285Y-161236914D01*
X166314285Y-161236914D02*
X166266666Y-161141676D01*
X166266666Y-161141676D02*
X166171428Y-161046438D01*
X166171428Y-161046438D02*
X166028571Y-160998819D01*
X166028571Y-160998819D02*
X165933333Y-160998819D01*
X165933333Y-160998819D02*
X165790476Y-161046438D01*
X165790476Y-161046438D02*
X165742857Y-161094057D01*
X164790476Y-161998819D02*
X165361904Y-161998819D01*
X165076190Y-161998819D02*
X165076190Y-160998819D01*
X165076190Y-160998819D02*
X165171428Y-161141676D01*
X165171428Y-161141676D02*
X165266666Y-161236914D01*
X165266666Y-161236914D02*
X165361904Y-161284533D01*
X164457142Y-160998819D02*
X163838095Y-160998819D01*
X163838095Y-160998819D02*
X164171428Y-161379771D01*
X164171428Y-161379771D02*
X164028571Y-161379771D01*
X164028571Y-161379771D02*
X163933333Y-161427390D01*
X163933333Y-161427390D02*
X163885714Y-161475009D01*
X163885714Y-161475009D02*
X163838095Y-161570247D01*
X163838095Y-161570247D02*
X163838095Y-161808342D01*
X163838095Y-161808342D02*
X163885714Y-161903580D01*
X163885714Y-161903580D02*
X163933333Y-161951200D01*
X163933333Y-161951200D02*
X164028571Y-161998819D01*
X164028571Y-161998819D02*
X164314285Y-161998819D01*
X164314285Y-161998819D02*
X164409523Y-161951200D01*
X164409523Y-161951200D02*
X164457142Y-161903580D01*
D11*
%TO.C,U1*%
X113968000Y-158920000D02*
X113488000Y-158920000D01*
X113728000Y-158590000D01*
X113968000Y-158920000D01*
G36*
X113968000Y-158920000D02*
G01*
X113488000Y-158920000D01*
X113728000Y-158590000D01*
X113968000Y-158920000D01*
G37*
X114108000Y-156320000D02*
X115508000Y-156320000D01*
X114098000Y-158640000D02*
X115508000Y-158640000D01*
%TO.C,U8*%
X162358000Y-168800000D02*
X163768000Y-168800000D01*
X162368000Y-166480000D02*
X163768000Y-166480000D01*
X162228000Y-169080000D02*
X161748000Y-169080000D01*
X161988000Y-168750000D01*
X162228000Y-169080000D01*
G36*
X162228000Y-169080000D02*
G01*
X161748000Y-169080000D01*
X161988000Y-168750000D01*
X162228000Y-169080000D01*
G37*
%TO.C,U7*%
X162358000Y-158640000D02*
X163768000Y-158640000D01*
X162368000Y-156320000D02*
X163768000Y-156320000D01*
X162228000Y-158920000D02*
X161748000Y-158920000D01*
X161988000Y-158590000D01*
X162228000Y-158920000D01*
G36*
X162228000Y-158920000D02*
G01*
X161748000Y-158920000D01*
X161988000Y-158590000D01*
X162228000Y-158920000D01*
G37*
%TO.C,U6*%
X147118000Y-158640000D02*
X148528000Y-158640000D01*
X147128000Y-156320000D02*
X148528000Y-156320000D01*
X146988000Y-158920000D02*
X146508000Y-158920000D01*
X146748000Y-158590000D01*
X146988000Y-158920000D01*
G36*
X146988000Y-158920000D02*
G01*
X146508000Y-158920000D01*
X146748000Y-158590000D01*
X146988000Y-158920000D01*
G37*
%TO.C,U5*%
X147118000Y-168800000D02*
X148528000Y-168800000D01*
X147128000Y-166480000D02*
X148528000Y-166480000D01*
X146988000Y-169080000D02*
X146508000Y-169080000D01*
X146748000Y-168750000D01*
X146988000Y-169080000D01*
G36*
X146988000Y-169080000D02*
G01*
X146508000Y-169080000D01*
X146748000Y-168750000D01*
X146988000Y-169080000D01*
G37*
%TO.C,U4*%
X135942000Y-157624000D02*
X137352000Y-157624000D01*
X135952000Y-155304000D02*
X137352000Y-155304000D01*
X135812000Y-157904000D02*
X135332000Y-157904000D01*
X135572000Y-157574000D01*
X135812000Y-157904000D01*
G36*
X135812000Y-157904000D02*
G01*
X135332000Y-157904000D01*
X135572000Y-157574000D01*
X135812000Y-157904000D01*
G37*
%TO.C,U3*%
X123750000Y-157624000D02*
X125160000Y-157624000D01*
X123760000Y-155304000D02*
X125160000Y-155304000D01*
X123620000Y-157904000D02*
X123140000Y-157904000D01*
X123380000Y-157574000D01*
X123620000Y-157904000D01*
G36*
X123620000Y-157904000D02*
G01*
X123140000Y-157904000D01*
X123380000Y-157574000D01*
X123620000Y-157904000D01*
G37*
%TO.C,U2*%
X114098000Y-168800000D02*
X115508000Y-168800000D01*
X114108000Y-166480000D02*
X115508000Y-166480000D01*
X113968000Y-169080000D02*
X113488000Y-169080000D01*
X113728000Y-168750000D01*
X113968000Y-169080000D01*
G36*
X113968000Y-169080000D02*
G01*
X113488000Y-169080000D01*
X113728000Y-168750000D01*
X113968000Y-169080000D01*
G37*
%TO.C,R2*%
X112548936Y-154205000D02*
X113003064Y-154205000D01*
X112548936Y-155675000D02*
X113003064Y-155675000D01*
%TO.C,R17*%
X134464936Y-153206000D02*
X134919064Y-153206000D01*
X134464936Y-154676000D02*
X134919064Y-154676000D01*
%TO.C,R27*%
X145568936Y-154205000D02*
X146023064Y-154205000D01*
X145568936Y-155675000D02*
X146023064Y-155675000D01*
%TO.C,C3*%
X116578748Y-169445000D02*
X117101252Y-169445000D01*
X116578748Y-170915000D02*
X117101252Y-170915000D01*
%TO.C,R12*%
X122200936Y-153189000D02*
X122655064Y-153189000D01*
X122200936Y-154659000D02*
X122655064Y-154659000D01*
%TO.C,R13*%
X126519000Y-167105064D02*
X126519000Y-166650936D01*
X127989000Y-167105064D02*
X127989000Y-166650936D01*
%TO.C,R32*%
X160824936Y-154205000D02*
X161279064Y-154205000D01*
X160824936Y-155675000D02*
X161279064Y-155675000D01*
%TO.C,R19*%
X138528936Y-153206000D02*
X138983064Y-153206000D01*
X138528936Y-154676000D02*
X138983064Y-154676000D01*
%TO.C,R7*%
X112548936Y-164365000D02*
X113003064Y-164365000D01*
X112548936Y-165835000D02*
X113003064Y-165835000D01*
%TO.C,C11*%
X149577248Y-159285000D02*
X150099752Y-159285000D01*
X149577248Y-160755000D02*
X150099752Y-160755000D01*
%TO.C,C9*%
X149654748Y-169445000D02*
X150177252Y-169445000D01*
X149654748Y-170915000D02*
X150177252Y-170915000D01*
%TO.C,R39*%
X164872936Y-164365000D02*
X165327064Y-164365000D01*
X164872936Y-165835000D02*
X165327064Y-165835000D01*
%TO.C,R22*%
X145624936Y-164365000D02*
X146079064Y-164365000D01*
X145624936Y-165835000D02*
X146079064Y-165835000D01*
%TO.C,C8*%
X134953252Y-158286000D02*
X134430748Y-158286000D01*
X134953252Y-159756000D02*
X134430748Y-159756000D01*
%TO.C,R9*%
X116612936Y-164365000D02*
X117067064Y-164365000D01*
X116612936Y-165835000D02*
X117067064Y-165835000D01*
%TO.C,R38*%
X139219000Y-167105064D02*
X139219000Y-166650936D01*
X140689000Y-167105064D02*
X140689000Y-166650936D01*
%TO.C,R33*%
X136679000Y-167105064D02*
X136679000Y-166650936D01*
X138149000Y-167105064D02*
X138149000Y-166650936D01*
%TO.C,R23*%
X131599000Y-167105064D02*
X131599000Y-166650936D01*
X133069000Y-167105064D02*
X133069000Y-166650936D01*
%TO.C,R4*%
X116612936Y-154205000D02*
X117067064Y-154205000D01*
X116612936Y-155675000D02*
X117067064Y-155675000D01*
%TO.C,C10*%
X146113252Y-169445000D02*
X145590748Y-169445000D01*
X146113252Y-170915000D02*
X145590748Y-170915000D01*
%TO.C,C7*%
X138494748Y-158286000D02*
X139017252Y-158286000D01*
X138494748Y-159756000D02*
X139017252Y-159756000D01*
%TO.C,R24*%
X149688936Y-164365000D02*
X150143064Y-164365000D01*
X149688936Y-165835000D02*
X150143064Y-165835000D01*
%TO.C,C16*%
X161297252Y-169445000D02*
X160774748Y-169445000D01*
X161297252Y-170915000D02*
X160774748Y-170915000D01*
%TO.C,R14*%
X126264936Y-153189000D02*
X126719064Y-153189000D01*
X126264936Y-154659000D02*
X126719064Y-154659000D01*
%TO.C,R3*%
X121439000Y-167105064D02*
X121439000Y-166650936D01*
X122909000Y-167105064D02*
X122909000Y-166650936D01*
%TO.C,C4*%
X113037252Y-169445000D02*
X112514748Y-169445000D01*
X113037252Y-170915000D02*
X112514748Y-170915000D01*
%TO.C,C14*%
X161297252Y-159285000D02*
X160774748Y-159285000D01*
X161297252Y-160755000D02*
X160774748Y-160755000D01*
%TO.C,R18*%
X129059000Y-167105064D02*
X129059000Y-166650936D01*
X130529000Y-167105064D02*
X130529000Y-166650936D01*
%TO.C,C2*%
X113037252Y-159285000D02*
X112514748Y-159285000D01*
X113037252Y-160755000D02*
X112514748Y-160755000D01*
%TO.C,R29*%
X149632936Y-154205000D02*
X150087064Y-154205000D01*
X149632936Y-155675000D02*
X150087064Y-155675000D01*
%TO.C,R34*%
X164872936Y-154205000D02*
X165327064Y-154205000D01*
X164872936Y-155675000D02*
X165327064Y-155675000D01*
%TO.C,R37*%
X160824936Y-164365000D02*
X161279064Y-164365000D01*
X160824936Y-165835000D02*
X161279064Y-165835000D01*
%TO.C,R8*%
X123979000Y-167105064D02*
X123979000Y-166650936D01*
X125449000Y-167105064D02*
X125449000Y-166650936D01*
%TO.C,C6*%
X122689252Y-158269000D02*
X122166748Y-158269000D01*
X122689252Y-159739000D02*
X122166748Y-159739000D01*
%TO.C,C5*%
X126230748Y-158269000D02*
X126753252Y-158269000D01*
X126230748Y-159739000D02*
X126753252Y-159739000D01*
%TO.C,R28*%
X134139000Y-167105064D02*
X134139000Y-166650936D01*
X135609000Y-167105064D02*
X135609000Y-166650936D01*
%TO.C,C1*%
X116578748Y-159285000D02*
X117101252Y-159285000D01*
X116578748Y-160755000D02*
X117101252Y-160755000D01*
%TO.C,C12*%
X146057252Y-159285000D02*
X145534748Y-159285000D01*
X146057252Y-160755000D02*
X145534748Y-160755000D01*
%TO.C,C15*%
X164838748Y-169445000D02*
X165361252Y-169445000D01*
X164838748Y-170915000D02*
X165361252Y-170915000D01*
%TO.C,C13*%
X164838748Y-159285000D02*
X165361252Y-159285000D01*
X164838748Y-160755000D02*
X165361252Y-160755000D01*
%TD*%
M02*
