%TF.GenerationSoftware,KiCad,Pcbnew,9.0.6-9.0.6~ubuntu24.04.1*%
%TF.CreationDate,2026-01-18T13:35:56-03:00*%
%TF.ProjectId,cotti_7seg,636f7474-695f-4377-9365-672e6b696361,0.0*%
%TF.SameCoordinates,Original*%
%TF.FileFunction,Soldermask,Bot*%
%TF.FilePolarity,Negative*%
%FSLAX46Y46*%
G04 Gerber Fmt 4.6, Leading zero omitted, Abs format (unit mm)*
G04 Created by KiCad (PCBNEW 9.0.6-9.0.6~ubuntu24.04.1) date 2026-01-18 13:35:56*
%MOMM*%
%LPD*%
G01*
G04 APERTURE LIST*
G04 Aperture macros list*
%AMRoundRect*
0 Rectangle with rounded corners*
0 $1 Rounding radius*
0 $2 $3 $4 $5 $6 $7 $8 $9 X,Y pos of 4 corners*
0 Add a 4 corners polygon primitive as box body*
4,1,4,$2,$3,$4,$5,$6,$7,$8,$9,$2,$3,0*
0 Add four circle primitives for the rounded corners*
1,1,$1+$1,$2,$3*
1,1,$1+$1,$4,$5*
1,1,$1+$1,$6,$7*
1,1,$1+$1,$8,$9*
0 Add four rect primitives between the rounded corners*
20,1,$1+$1,$2,$3,$4,$5,0*
20,1,$1+$1,$4,$5,$6,$7,0*
20,1,$1+$1,$6,$7,$8,$9,0*
20,1,$1+$1,$8,$9,$2,$3,0*%
G04 Aperture macros list end*
%ADD10C,1.712000*%
%ADD11R,1.700000X1.700000*%
%ADD12C,1.700000*%
%ADD13RoundRect,0.125000X0.125000X-0.175000X0.125000X0.175000X-0.125000X0.175000X-0.125000X-0.175000X0*%
%ADD14RoundRect,0.250000X0.450000X-0.350000X0.450000X0.350000X-0.450000X0.350000X-0.450000X-0.350000X0*%
%ADD15RoundRect,0.150000X-0.825000X-0.150000X0.825000X-0.150000X0.825000X0.150000X-0.825000X0.150000X0*%
%ADD16RoundRect,0.250000X-0.450000X0.350000X-0.450000X-0.350000X0.450000X-0.350000X0.450000X0.350000X0*%
%ADD17RoundRect,0.125000X-0.125000X0.175000X-0.125000X-0.175000X0.125000X-0.175000X0.125000X0.175000X0*%
%ADD18RoundRect,0.150000X-0.512500X-0.150000X0.512500X-0.150000X0.512500X0.150000X-0.512500X0.150000X0*%
G04 APERTURE END LIST*
D10*
%TO.C,U2*%
X132180800Y-54864000D03*
X132180800Y-57404000D03*
X132180800Y-59944000D03*
X132180800Y-62484000D03*
X132180800Y-65024000D03*
X139700800Y-65024000D03*
X139700800Y-62484000D03*
X139700800Y-59944000D03*
X139700800Y-57404000D03*
X139700800Y-54864000D03*
%TD*%
D11*
%TO.C,J1*%
X107950000Y-54610000D03*
D12*
X107950000Y-57150000D03*
X107950000Y-59690000D03*
X107950000Y-62230000D03*
X107950000Y-64770000D03*
X107950000Y-67310000D03*
X105410000Y-54610000D03*
X105410000Y-57150000D03*
X105410000Y-59690000D03*
X105410000Y-62230000D03*
X105410000Y-64770000D03*
X105410000Y-67310000D03*
%TD*%
D10*
%TO.C,U5*%
X142848800Y-54864000D03*
X142848800Y-57404000D03*
X142848800Y-59944000D03*
X142848800Y-62484000D03*
X142848800Y-65024000D03*
X150368800Y-65024000D03*
X150368800Y-62484000D03*
X150368800Y-59944000D03*
X150368800Y-57404000D03*
X150368800Y-54864000D03*
%TD*%
D13*
%TO.C,Q12*%
X129024000Y-64531000D03*
X128024000Y-64531000D03*
X128524000Y-63231000D03*
%TD*%
D14*
%TO.C,R10*%
X125984000Y-55864000D03*
X125984000Y-53864000D03*
%TD*%
D15*
%TO.C,U4*%
X111887000Y-67945000D03*
X111887000Y-66675000D03*
X111887000Y-65405000D03*
X111887000Y-64135000D03*
X111887000Y-62865000D03*
X111887000Y-61595000D03*
X111887000Y-60325000D03*
X111887000Y-59055000D03*
X116837000Y-59055000D03*
X116837000Y-60325000D03*
X116837000Y-61595000D03*
X116837000Y-62865000D03*
X116837000Y-64135000D03*
X116837000Y-65405000D03*
X116837000Y-66675000D03*
X116837000Y-67945000D03*
%TD*%
D13*
%TO.C,Q13*%
X121404000Y-64531000D03*
X120404000Y-64531000D03*
X120904000Y-63231000D03*
%TD*%
%TO.C,Q14*%
X123944000Y-64531000D03*
X122944000Y-64531000D03*
X123444000Y-63231000D03*
%TD*%
D16*
%TO.C,R12*%
X128524000Y-66564000D03*
X128524000Y-68564000D03*
%TD*%
D14*
%TO.C,R11*%
X128524000Y-55864000D03*
X128524000Y-53864000D03*
%TD*%
D16*
%TO.C,R14*%
X120904000Y-66564000D03*
X120904000Y-68564000D03*
%TD*%
D17*
%TO.C,Q11*%
X128024000Y-57770000D03*
X129024000Y-57770000D03*
X128524000Y-59070000D03*
%TD*%
D18*
%TO.C,U6*%
X113162500Y-55306000D03*
X113162500Y-54356000D03*
X113162500Y-53406000D03*
X115437500Y-53406000D03*
X115437500Y-55306000D03*
%TD*%
D17*
%TO.C,Q10*%
X125484000Y-57770000D03*
X126484000Y-57770000D03*
X125984000Y-59070000D03*
%TD*%
D16*
%TO.C,R15*%
X123444000Y-66564000D03*
X123444000Y-68564000D03*
%TD*%
D13*
%TO.C,Q16*%
X126484000Y-64531000D03*
X125484000Y-64531000D03*
X125984000Y-63231000D03*
%TD*%
D14*
%TO.C,R16*%
X120904000Y-55848000D03*
X120904000Y-53848000D03*
%TD*%
D17*
%TO.C,Q15*%
X120404000Y-57770000D03*
X121404000Y-57770000D03*
X120904000Y-59070000D03*
%TD*%
D14*
%TO.C,R9*%
X123444000Y-55864000D03*
X123444000Y-53864000D03*
%TD*%
D16*
%TO.C,R13*%
X125984000Y-66564000D03*
X125984000Y-68564000D03*
%TD*%
D17*
%TO.C,Q9*%
X122944000Y-57770000D03*
X123944000Y-57770000D03*
X123444000Y-59070000D03*
%TD*%
M02*
