%TF.GenerationSoftware,KiCad,Pcbnew,9.0.6-9.0.6~ubuntu24.04.1*%
%TF.CreationDate,2026-01-18T11:39:44-03:00*%
%TF.ProjectId,cotti_7seg,636f7474-695f-4377-9365-672e6b696361,0.0*%
%TF.SameCoordinates,Original*%
%TF.FileFunction,Copper,L2,Bot*%
%TF.FilePolarity,Positive*%
%FSLAX46Y46*%
G04 Gerber Fmt 4.6, Leading zero omitted, Abs format (unit mm)*
G04 Created by KiCad (PCBNEW 9.0.6-9.0.6~ubuntu24.04.1) date 2026-01-18 11:39:44*
%MOMM*%
%LPD*%
G01*
G04 APERTURE LIST*
G04 Aperture macros list*
%AMRoundRect*
0 Rectangle with rounded corners*
0 $1 Rounding radius*
0 $2 $3 $4 $5 $6 $7 $8 $9 X,Y pos of 4 corners*
0 Add a 4 corners polygon primitive as box body*
4,1,4,$2,$3,$4,$5,$6,$7,$8,$9,$2,$3,0*
0 Add four circle primitives for the rounded corners*
1,1,$1+$1,$2,$3*
1,1,$1+$1,$4,$5*
1,1,$1+$1,$6,$7*
1,1,$1+$1,$8,$9*
0 Add four rect primitives between the rounded corners*
20,1,$1+$1,$2,$3,$4,$5,0*
20,1,$1+$1,$4,$5,$6,$7,0*
20,1,$1+$1,$6,$7,$8,$9,0*
20,1,$1+$1,$8,$9,$2,$3,0*%
G04 Aperture macros list end*
%TA.AperFunction,SMDPad,CuDef*%
%ADD10RoundRect,0.125000X0.125000X-0.175000X0.125000X0.175000X-0.125000X0.175000X-0.125000X-0.175000X0*%
%TD*%
%TA.AperFunction,SMDPad,CuDef*%
%ADD11RoundRect,0.150000X-0.512500X-0.150000X0.512500X-0.150000X0.512500X0.150000X-0.512500X0.150000X0*%
%TD*%
%TA.AperFunction,ComponentPad*%
%ADD12C,1.508000*%
%TD*%
%TA.AperFunction,SMDPad,CuDef*%
%ADD13RoundRect,0.150000X-0.825000X-0.150000X0.825000X-0.150000X0.825000X0.150000X-0.825000X0.150000X0*%
%TD*%
%TA.AperFunction,SMDPad,CuDef*%
%ADD14RoundRect,0.250000X0.450000X-0.350000X0.450000X0.350000X-0.450000X0.350000X-0.450000X-0.350000X0*%
%TD*%
%TA.AperFunction,SMDPad,CuDef*%
%ADD15RoundRect,0.250000X-0.450000X0.350000X-0.450000X-0.350000X0.450000X-0.350000X0.450000X0.350000X0*%
%TD*%
%TA.AperFunction,SMDPad,CuDef*%
%ADD16RoundRect,0.125000X-0.125000X0.175000X-0.125000X-0.175000X0.125000X-0.175000X0.125000X0.175000X0*%
%TD*%
%TA.AperFunction,ComponentPad*%
%ADD17R,1.700000X1.700000*%
%TD*%
%TA.AperFunction,ComponentPad*%
%ADD18C,1.700000*%
%TD*%
%TA.AperFunction,ViaPad*%
%ADD19C,0.600000*%
%TD*%
%TA.AperFunction,Conductor*%
%ADD20C,0.200000*%
%TD*%
G04 APERTURE END LIST*
D10*
%TO.P,Q14,3,D*%
%TO.N,VCC*%
X123444000Y-63231000D03*
%TO.P,Q14,2,S*%
%TO.N,/led_driver1/nmos_array0/g_out*%
X122944000Y-64531000D03*
%TO.P,Q14,1,G*%
%TO.N,/led_driver1/nmos_array0/g_in*%
X123944000Y-64531000D03*
%TD*%
D11*
%TO.P,U6,1*%
%TO.N,/d13*%
X113162500Y-55306000D03*
%TO.P,U6,2*%
%TO.N,/d12*%
X113162500Y-54356000D03*
%TO.P,U6,3,GND*%
%TO.N,GND*%
X113162500Y-53406000D03*
%TO.P,U6,4*%
%TO.N,/led_driver1/nmos_array0/dp_in*%
X115437500Y-53406000D03*
%TO.P,U6,5,VCC*%
%TO.N,VCC*%
X115437500Y-55306000D03*
%TD*%
D12*
%TO.P,U5,1,G*%
%TO.N,Net-(U5-G)*%
X142848800Y-54864000D03*
%TO.P,U5,2,F*%
%TO.N,Net-(U5-F)*%
X142848800Y-57404000D03*
%TO.P,U5,3,CC*%
%TO.N,GND*%
X142848800Y-59944000D03*
%TO.P,U5,4,E*%
%TO.N,Net-(U5-E)*%
X142848800Y-62484000D03*
%TO.P,U5,5,D*%
%TO.N,Net-(U5-D)*%
X142848800Y-65024000D03*
%TO.P,U5,6,DP*%
%TO.N,Net-(U5-DP)*%
X150368800Y-65024000D03*
%TO.P,U5,7,C*%
%TO.N,Net-(U5-C)*%
X150368800Y-62484000D03*
%TO.P,U5,8,CC*%
%TO.N,GND*%
X150368800Y-59944000D03*
%TO.P,U5,9,B*%
%TO.N,Net-(U5-B)*%
X150368800Y-57404000D03*
%TO.P,U5,10,A*%
%TO.N,Net-(U5-A)*%
X150368800Y-54864000D03*
%TD*%
D13*
%TO.P,U4,1,LE*%
%TO.N,VCC*%
X111887000Y-67945000D03*
%TO.P,U4,2,D2*%
%TO.N,/d12*%
X111887000Y-66675000D03*
%TO.P,U4,3,D1*%
%TO.N,/d11*%
X111887000Y-65405000D03*
%TO.P,U4,4,D3*%
%TO.N,/d13*%
X111887000Y-64135000D03*
%TO.P,U4,5,D0*%
%TO.N,/d10*%
X111887000Y-62865000D03*
%TO.P,U4,6,PH*%
%TO.N,GND*%
X111887000Y-61595000D03*
%TO.P,U4,7,BL*%
X111887000Y-60325000D03*
%TO.P,U4,8,VSS*%
X111887000Y-59055000D03*
%TO.P,U4,9,QA*%
%TO.N,/led_driver1/nmos_array0/a_in*%
X116837000Y-59055000D03*
%TO.P,U4,10,QB*%
%TO.N,/led_driver1/nmos_array0/b_in*%
X116837000Y-60325000D03*
%TO.P,U4,11,QC*%
%TO.N,/led_driver1/nmos_array0/c_in*%
X116837000Y-61595000D03*
%TO.P,U4,12,QD*%
%TO.N,/led_driver1/nmos_array0/d_in*%
X116837000Y-62865000D03*
%TO.P,U4,13,QE*%
%TO.N,/led_driver1/nmos_array0/e_in*%
X116837000Y-64135000D03*
%TO.P,U4,14,QG*%
%TO.N,/led_driver1/nmos_array0/g_in*%
X116837000Y-65405000D03*
%TO.P,U4,15,QF*%
%TO.N,/led_driver1/nmos_array0/f_in*%
X116837000Y-66675000D03*
%TO.P,U4,16,VDD*%
%TO.N,VCC*%
X116837000Y-67945000D03*
%TD*%
D12*
%TO.P,U2,1,G*%
%TO.N,Net-(U2-G)*%
X132180800Y-54864000D03*
%TO.P,U2,2,F*%
%TO.N,Net-(U2-F)*%
X132180800Y-57404000D03*
%TO.P,U2,3,CC*%
%TO.N,GND*%
X132180800Y-59944000D03*
%TO.P,U2,4,E*%
%TO.N,Net-(U2-E)*%
X132180800Y-62484000D03*
%TO.P,U2,5,D*%
%TO.N,Net-(U2-D)*%
X132180800Y-65024000D03*
%TO.P,U2,6,DP*%
%TO.N,Net-(U2-DP)*%
X139700800Y-65024000D03*
%TO.P,U2,7,C*%
%TO.N,Net-(U2-C)*%
X139700800Y-62484000D03*
%TO.P,U2,8,CC*%
%TO.N,GND*%
X139700800Y-59944000D03*
%TO.P,U2,9,B*%
%TO.N,Net-(U2-B)*%
X139700800Y-57404000D03*
%TO.P,U2,10,A*%
%TO.N,Net-(U2-A)*%
X139700800Y-54864000D03*
%TD*%
D14*
%TO.P,R16,1*%
%TO.N,/led_driver1/nmos_array0/dp_out*%
X120904000Y-55848000D03*
%TO.P,R16,2*%
%TO.N,Net-(U5-DP)*%
X120904000Y-53848000D03*
%TD*%
D15*
%TO.P,R15,1*%
%TO.N,/led_driver1/nmos_array0/g_out*%
X123444000Y-66564000D03*
%TO.P,R15,2*%
%TO.N,Net-(U5-G)*%
X123444000Y-68564000D03*
%TD*%
%TO.P,R14,1*%
%TO.N,/led_driver1/nmos_array0/f_out*%
X120904000Y-66564000D03*
%TO.P,R14,2*%
%TO.N,Net-(U5-F)*%
X120904000Y-68564000D03*
%TD*%
%TO.P,R13,1*%
%TO.N,/led_driver1/nmos_array0/e_out*%
X125984000Y-66564000D03*
%TO.P,R13,2*%
%TO.N,Net-(U5-E)*%
X125984000Y-68564000D03*
%TD*%
%TO.P,R12,1*%
%TO.N,/led_driver1/nmos_array0/d_out*%
X128524000Y-66564000D03*
%TO.P,R12,2*%
%TO.N,Net-(U5-D)*%
X128524000Y-68564000D03*
%TD*%
D14*
%TO.P,R11,1*%
%TO.N,/led_driver1/nmos_array0/c_out*%
X128524000Y-55864000D03*
%TO.P,R11,2*%
%TO.N,Net-(U5-C)*%
X128524000Y-53864000D03*
%TD*%
%TO.P,R10,1*%
%TO.N,/led_driver1/nmos_array0/b_out*%
X125984000Y-55864000D03*
%TO.P,R10,2*%
%TO.N,Net-(U5-B)*%
X125984000Y-53864000D03*
%TD*%
D10*
%TO.P,Q16,1,G*%
%TO.N,/led_driver1/nmos_array0/e_in*%
X126484000Y-64531000D03*
%TO.P,Q16,2,S*%
%TO.N,/led_driver1/nmos_array0/e_out*%
X125484000Y-64531000D03*
%TO.P,Q16,3,D*%
%TO.N,VCC*%
X125984000Y-63231000D03*
%TD*%
D16*
%TO.P,Q15,1,G*%
%TO.N,/led_driver1/nmos_array0/dp_in*%
X120404000Y-57770000D03*
%TO.P,Q15,2,S*%
%TO.N,/led_driver1/nmos_array0/dp_out*%
X121404000Y-57770000D03*
%TO.P,Q15,3,D*%
%TO.N,VCC*%
X120904000Y-59070000D03*
%TD*%
D10*
%TO.P,Q13,1,G*%
%TO.N,/led_driver1/nmos_array0/f_in*%
X121404000Y-64531000D03*
%TO.P,Q13,2,S*%
%TO.N,/led_driver1/nmos_array0/f_out*%
X120404000Y-64531000D03*
%TO.P,Q13,3,D*%
%TO.N,VCC*%
X120904000Y-63231000D03*
%TD*%
%TO.P,Q12,1,G*%
%TO.N,/led_driver1/nmos_array0/d_in*%
X129024000Y-64531000D03*
%TO.P,Q12,2,S*%
%TO.N,/led_driver1/nmos_array0/d_out*%
X128024000Y-64531000D03*
%TO.P,Q12,3,D*%
%TO.N,VCC*%
X128524000Y-63231000D03*
%TD*%
D16*
%TO.P,Q11,1,G*%
%TO.N,/led_driver1/nmos_array0/c_in*%
X128024000Y-57770000D03*
%TO.P,Q11,2,S*%
%TO.N,/led_driver1/nmos_array0/c_out*%
X129024000Y-57770000D03*
%TO.P,Q11,3,D*%
%TO.N,VCC*%
X128524000Y-59070000D03*
%TD*%
%TO.P,Q10,1,G*%
%TO.N,/led_driver1/nmos_array0/b_in*%
X125484000Y-57770000D03*
%TO.P,Q10,2,S*%
%TO.N,/led_driver1/nmos_array0/b_out*%
X126484000Y-57770000D03*
%TO.P,Q10,3,D*%
%TO.N,VCC*%
X125984000Y-59070000D03*
%TD*%
%TO.P,Q9,1,G*%
%TO.N,/led_driver1/nmos_array0/a_in*%
X122944000Y-57770000D03*
%TO.P,Q9,2,S*%
%TO.N,/led_driver1/nmos_array0/a_out*%
X123944000Y-57770000D03*
%TO.P,Q9,3,D*%
%TO.N,VCC*%
X123444000Y-59070000D03*
%TD*%
D17*
%TO.P,J1,1,IO1*%
%TO.N,/d00*%
X107950000Y-54610000D03*
D18*
%TO.P,J1,2,IO2/PWM*%
%TO.N,/d01*%
X107950000Y-57150000D03*
%TO.P,J1,3,IO3*%
%TO.N,/d02*%
X107950000Y-59690000D03*
%TO.P,J1,4,IO4*%
%TO.N,/d03*%
X107950000Y-62230000D03*
%TO.P,J1,5,GND*%
%TO.N,GND*%
X107950000Y-64770000D03*
%TO.P,J1,6,VCC*%
%TO.N,VCC*%
X107950000Y-67310000D03*
%TO.P,J1,7,IO5*%
%TO.N,/d10*%
X105410000Y-54610000D03*
%TO.P,J1,8,IO6/PWM*%
%TO.N,/d11*%
X105410000Y-57150000D03*
%TO.P,J1,9,IO7*%
%TO.N,/d12*%
X105410000Y-59690000D03*
%TO.P,J1,10,IO8*%
%TO.N,/d13*%
X105410000Y-62230000D03*
%TO.P,J1,11,GND*%
%TO.N,GND*%
X105410000Y-64770000D03*
%TO.P,J1,12,VCC*%
%TO.N,VCC*%
X105410000Y-67310000D03*
%TD*%
D14*
%TO.P,R9,1*%
%TO.N,/led_driver1/nmos_array0/a_out*%
X123444000Y-55864000D03*
%TO.P,R9,2*%
%TO.N,Net-(U5-A)*%
X123444000Y-53864000D03*
%TD*%
D19*
%TO.N,VCC*%
X127279400Y-63296800D03*
X122174000Y-63296800D03*
%TO.N,GND*%
X151587200Y-61264800D03*
X138328400Y-61214000D03*
X149047200Y-58877200D03*
X103327200Y-52425600D03*
X133553200Y-58775600D03*
X141681200Y-60833000D03*
X141833600Y-58775600D03*
X114401600Y-60680600D03*
X151536400Y-58674000D03*
X113893600Y-65176400D03*
X138277600Y-58775600D03*
X114401600Y-63271400D03*
X103632000Y-69164200D03*
X109423200Y-66090800D03*
X110490000Y-69164200D03*
X106629200Y-65963800D03*
X110210600Y-53771800D03*
X133553200Y-61112400D03*
%TO.N,VCC*%
X127508000Y-59131200D03*
X122199400Y-58826400D03*
%TD*%
D20*
%TO.N,/led_driver1/nmos_array0/g_in*%
X123943999Y-64719200D02*
X124079000Y-64584199D01*
X119972500Y-62611000D02*
X118113000Y-64470500D01*
X124079000Y-64584199D02*
X124079000Y-62826900D01*
X118113000Y-64470500D02*
X118113000Y-64475968D01*
X124079000Y-62826900D02*
X123863100Y-62611000D01*
X123863100Y-62611000D02*
X119972500Y-62611000D01*
X118113000Y-64475968D02*
X117183968Y-65405000D01*
X117183968Y-65405000D02*
X116837000Y-65405000D01*
%TO.N,/led_driver1/nmos_array0/e_in*%
X116775000Y-64135000D02*
X117881400Y-64135000D01*
X117881400Y-64135000D02*
X119833400Y-62183000D01*
X119833400Y-62183000D02*
X124413000Y-62183000D01*
X124413000Y-62183000D02*
X125069600Y-62839600D01*
X125069600Y-62839600D02*
X125069600Y-63881000D01*
X125069600Y-63881000D02*
X126212600Y-63881000D01*
X126212600Y-63881000D02*
X126483999Y-64152399D01*
X126483999Y-64152399D02*
X126483999Y-64719200D01*
X126483999Y-64719200D02*
X126492000Y-64711199D01*
%TO.N,VCC*%
X115163600Y-63474600D02*
X115172200Y-63466000D01*
X115172200Y-63466000D02*
X117983300Y-63466000D01*
X127254000Y-62280800D02*
X127254000Y-63296800D01*
X117983300Y-63466000D02*
X119667300Y-61782000D01*
X119667300Y-61782000D02*
X126755200Y-61782000D01*
X126755200Y-61782000D02*
X127254000Y-62280800D01*
%TO.N,/led_driver1/nmos_array0/d_in*%
X116775000Y-62865000D02*
X117729000Y-62865000D01*
X117729000Y-62865000D02*
X119213000Y-61381000D01*
X119213000Y-61381000D02*
X126824200Y-61381000D01*
X126824200Y-61381000D02*
X126844200Y-61361000D01*
X126844200Y-61361000D02*
X127909000Y-61361000D01*
X127909000Y-61361000D02*
X129159000Y-62611000D01*
X129159000Y-62611000D02*
X129159000Y-64584199D01*
X129159000Y-64584199D02*
X129023999Y-64719200D01*
%TO.N,/led_driver1/nmos_array0/c_in*%
X128778000Y-58420000D02*
X128143000Y-58420000D01*
X128828918Y-58469000D02*
X128827000Y-58469000D01*
X129075000Y-58717000D02*
X129075000Y-58715082D01*
X129133600Y-60096400D02*
X129133600Y-58775600D01*
X128827000Y-58469000D02*
X128778000Y-58420000D01*
X129133600Y-58775600D02*
X129075000Y-58717000D01*
X128270000Y-60960000D02*
X129133600Y-60096400D01*
X126678100Y-60960000D02*
X128270000Y-60960000D01*
X129075000Y-58715082D02*
X128828918Y-58469000D01*
X119046900Y-60980000D02*
X126658100Y-60980000D01*
X126658100Y-60980000D02*
X126678100Y-60960000D01*
X118431900Y-61595000D02*
X119046900Y-60980000D01*
X116775000Y-61595000D02*
X118431900Y-61595000D01*
X128143000Y-58420000D02*
X128024000Y-58301000D01*
X128024000Y-58301000D02*
X128024000Y-57770000D01*
%TO.N,VCC*%
X115163600Y-60934600D02*
X118237000Y-60934600D01*
X118237000Y-60934600D02*
X118592600Y-60579000D01*
X118592600Y-60579000D02*
X126492000Y-60579000D01*
X126492000Y-60579000D02*
X127508000Y-59563000D01*
X127508000Y-59563000D02*
X127508000Y-59131200D01*
%TO.N,/led_driver1/nmos_array0/b_in*%
X116775000Y-60325000D02*
X118279500Y-60325000D01*
X118279500Y-60325000D02*
X118530000Y-60074500D01*
X118530000Y-60074500D02*
X124236200Y-60074500D01*
X125349000Y-59568400D02*
X125349000Y-57843801D01*
X124236200Y-60074500D02*
X124239700Y-60071000D01*
X124239700Y-60071000D02*
X124846400Y-60071000D01*
X124846400Y-60071000D02*
X125349000Y-59568400D01*
X125349000Y-57843801D02*
X125484001Y-57708800D01*
%TO.N,/led_driver1/nmos_array0/f_in*%
X116775000Y-66675000D02*
X118237000Y-66675000D01*
X118237000Y-66675000D02*
X119761000Y-65151000D01*
X119761000Y-65151000D02*
X119761000Y-64268082D01*
X119761000Y-64268082D02*
X120099082Y-63930000D01*
X120099082Y-63930000D02*
X121165598Y-63930000D01*
X121165598Y-63930000D02*
X121403999Y-64168401D01*
X121403999Y-64168401D02*
X121403999Y-64719200D01*
%TO.N,VCC*%
X115163600Y-66040000D02*
X117983000Y-66040000D01*
X117983000Y-66040000D02*
X118999000Y-65024000D01*
X118999000Y-65024000D02*
X118999000Y-64448100D01*
X118999000Y-64448100D02*
X120150300Y-63296800D01*
X120150300Y-63296800D02*
X122174000Y-63296800D01*
%TO.N,/led_driver1/nmos_array0/a_in*%
X122944000Y-57770000D02*
X122944000Y-58174000D01*
X122944000Y-58174000D02*
X123190000Y-58420000D01*
X124206000Y-59537600D02*
X124070100Y-59673500D01*
X123190000Y-58420000D02*
X123952000Y-58420000D01*
X123952000Y-58420000D02*
X124206000Y-58674000D01*
X124206000Y-58674000D02*
X124206000Y-59537600D01*
X124070100Y-59673500D02*
X117393500Y-59673500D01*
X117393500Y-59673500D02*
X116775000Y-59055000D01*
%TO.N,VCC*%
X123444000Y-59131200D02*
X122174000Y-59131200D01*
X122199400Y-58826400D02*
X122199400Y-59105800D01*
X122199400Y-59105800D02*
X122174000Y-59131200D01*
%TO.N,/d12*%
X113162500Y-54356000D02*
X112808032Y-54356000D01*
X112808032Y-54356000D02*
X111887000Y-53434968D01*
X111887000Y-53434968D02*
X111887000Y-53080500D01*
X111887000Y-53080500D02*
X111486100Y-52679600D01*
X111486100Y-52679600D02*
X105206800Y-52679600D01*
X105206800Y-52679600D02*
X103682800Y-54203600D01*
X103682800Y-54203600D02*
X103682800Y-59690000D01*
%TO.N,Net-(U5-A)*%
X123444000Y-53864000D02*
X125085600Y-52222400D01*
X125085600Y-52222400D02*
X147726400Y-52222400D01*
X147726400Y-52222400D02*
X150368000Y-54864000D01*
%TO.N,Net-(U5-B)*%
X125984000Y-53864000D02*
X127219200Y-52628800D01*
X127219200Y-52628800D02*
X145999200Y-52628800D01*
X145999200Y-52628800D02*
X150368000Y-56997600D01*
X150368000Y-56997600D02*
X150368000Y-57404000D01*
%TO.N,Net-(U5-C)*%
X128524000Y-53864000D02*
X129200400Y-53187600D01*
X129200400Y-53187600D02*
X145542000Y-53187600D01*
X145542000Y-53187600D02*
X146253200Y-53898800D01*
X146253200Y-53898800D02*
X146253200Y-58369200D01*
X146253200Y-58369200D02*
X150368000Y-62484000D01*
%TO.N,Net-(U5-D)*%
X128524000Y-68564000D02*
X139308000Y-68564000D01*
X139308000Y-68564000D02*
X142848000Y-65024000D01*
%TO.N,Net-(U5-E)*%
X125984000Y-68564000D02*
X125984000Y-68580000D01*
X125984000Y-68580000D02*
X126873000Y-69469000D01*
X126873000Y-69469000D02*
X139894996Y-69469000D01*
X139894996Y-69469000D02*
X143903000Y-65460996D01*
X143903000Y-65460996D02*
X143903000Y-63539000D01*
X143903000Y-63539000D02*
X142848000Y-62484000D01*
%TO.N,Net-(U5-F)*%
X138822000Y-67465000D02*
X141793000Y-64494000D01*
X141793000Y-64494000D02*
X141793000Y-61610200D01*
X121987000Y-67465000D02*
X138822000Y-67465000D01*
X141793000Y-61610200D02*
X142189200Y-61214000D01*
X120904000Y-68548000D02*
X121987000Y-67465000D01*
X142189200Y-61214000D02*
X143560800Y-61214000D01*
X143560800Y-61214000D02*
X144119600Y-60655200D01*
X144119600Y-60655200D02*
X144119600Y-58675600D01*
X144119600Y-58675600D02*
X142848000Y-57404000D01*
%TO.N,Net-(U5-G)*%
X123444000Y-68564000D02*
X124755400Y-69875400D01*
X124755400Y-69875400D02*
X141147800Y-69875400D01*
X141147800Y-69875400D02*
X144780000Y-66243200D01*
X144780000Y-66243200D02*
X144780000Y-56796000D01*
X144780000Y-56796000D02*
X142848000Y-54864000D01*
%TO.N,Net-(U5-DP)*%
X130589004Y-54765000D02*
X131765404Y-53588600D01*
X121805000Y-54765000D02*
X130589004Y-54765000D01*
X131765404Y-53588600D02*
X144368200Y-53588600D01*
X120904000Y-53864000D02*
X121805000Y-54765000D01*
X144368200Y-53588600D02*
X145592800Y-54813200D01*
X145592800Y-54813200D02*
X145592800Y-64312800D01*
X145592800Y-64312800D02*
X146304000Y-65024000D01*
X146304000Y-65024000D02*
X150368000Y-65024000D01*
%TO.N,/d13*%
X106287300Y-61361000D02*
X106637500Y-61010800D01*
X113385600Y-55529100D02*
X113385600Y-63549399D01*
X105410000Y-62230000D02*
X106279000Y-61361000D01*
X113162500Y-55306000D02*
X113385600Y-55529100D01*
X109270800Y-61670120D02*
X109270800Y-62915800D01*
X108611480Y-61010800D02*
X109270800Y-61670120D01*
X112799999Y-64135000D02*
X111825000Y-64135000D01*
X109270800Y-62915800D02*
X110490000Y-64135000D01*
X106637500Y-61010800D02*
X108611480Y-61010800D01*
X110490000Y-64135000D02*
X111825000Y-64135000D01*
X113385600Y-63549399D02*
X112799999Y-64135000D01*
X106279000Y-61361000D02*
X106287300Y-61361000D01*
%TO.N,VCC*%
X127254000Y-63296800D02*
X125984000Y-63296800D01*
X107950000Y-67310000D02*
X109573032Y-67310000D01*
X114300000Y-67945000D02*
X115163600Y-67945000D01*
X109573032Y-67310000D02*
X110877032Y-66006000D01*
X127254000Y-59131200D02*
X127508000Y-59131200D01*
X118841100Y-57982700D02*
X119989600Y-59131200D01*
X119989600Y-59131200D02*
X120904000Y-59131200D01*
X115163600Y-58256600D02*
X115437500Y-57982700D01*
X115437500Y-55306000D02*
X115437500Y-57982700D01*
X111825000Y-67945000D02*
X114300000Y-67945000D01*
X114300000Y-67945000D02*
X116775000Y-67945000D01*
X125984000Y-59131200D02*
X127254000Y-59131200D01*
X115129600Y-66006000D02*
X115163600Y-66040000D01*
X115437500Y-57982700D02*
X118841100Y-57982700D01*
X115163600Y-66040000D02*
X115163600Y-63474600D01*
X115163600Y-63474600D02*
X115163600Y-58256600D01*
X122174000Y-59131200D02*
X120904000Y-59131200D01*
X127508000Y-59131200D02*
X128524000Y-59131200D01*
X110877032Y-66006000D02*
X115129600Y-66006000D01*
X115163600Y-67945000D02*
X115163600Y-66040000D01*
%TO.N,/d12*%
X105410000Y-59690000D02*
X103682800Y-59690000D01*
X103682800Y-67818000D02*
X104597200Y-68732400D01*
X111277400Y-66675000D02*
X111825000Y-66675000D01*
X109220000Y-68732400D02*
X111277400Y-66675000D01*
X103682800Y-59690000D02*
X103682800Y-67818000D01*
X104597200Y-68732400D02*
X109220000Y-68732400D01*
%TO.N,/d10*%
X105410000Y-54610000D02*
X106799000Y-55999000D01*
X109677200Y-61722000D02*
X110820200Y-62865000D01*
X106799000Y-55999000D02*
X108426760Y-55999000D01*
X109677200Y-57249440D02*
X109677200Y-61722000D01*
X110820200Y-62865000D02*
X111825000Y-62865000D01*
X108426760Y-55999000D02*
X109677200Y-57249440D01*
%TO.N,/d11*%
X106680000Y-58420000D02*
X105410000Y-57150000D01*
X104630600Y-63381000D02*
X104089200Y-62839600D01*
X104089200Y-62839600D02*
X104089200Y-61671200D01*
X104089200Y-61671200D02*
X104800400Y-60960000D01*
X106121200Y-60960000D02*
X106680000Y-60401200D01*
X111825000Y-65405000D02*
X110617000Y-65405000D01*
X106680000Y-60401200D02*
X106680000Y-58420000D01*
X110617000Y-65405000D02*
X108593000Y-63381000D01*
X104800400Y-60960000D02*
X106121200Y-60960000D01*
X108593000Y-63381000D02*
X104630600Y-63381000D01*
%TO.N,/led_driver1/nmos_array0/a_out*%
X123444000Y-55864000D02*
X123444000Y-57208801D01*
X123444000Y-57208801D02*
X123943999Y-57708800D01*
%TO.N,/led_driver1/nmos_array0/a_in*%
X123017300Y-57708800D02*
X122944001Y-57708800D01*
%TO.N,/led_driver1/nmos_array0/e_out*%
X125984000Y-65219199D02*
X125484001Y-64719200D01*
X125984000Y-66564000D02*
X125984000Y-65219199D01*
%TO.N,/led_driver1/nmos_array0/b_out*%
X125984000Y-55864000D02*
X125984000Y-57208801D01*
X125984000Y-57208801D02*
X126483999Y-57708800D01*
%TO.N,/led_driver1/nmos_array0/f_out*%
X120904000Y-65219199D02*
X120404001Y-64719200D01*
X120904000Y-66548000D02*
X120904000Y-65219199D01*
%TO.N,/led_driver1/nmos_array0/c_in*%
X128066800Y-57708800D02*
X128024001Y-57708800D01*
%TO.N,/led_driver1/nmos_array0/c_out*%
X128524000Y-57208801D02*
X129023999Y-57708800D01*
X128524000Y-55864000D02*
X128524000Y-57208801D01*
%TO.N,/led_driver1/nmos_array0/g_in*%
X116775000Y-65405000D02*
X117170200Y-65405000D01*
%TO.N,/led_driver1/nmos_array0/g_out*%
X123444000Y-65219199D02*
X122944001Y-64719200D01*
X123444000Y-66564000D02*
X123444000Y-65219199D01*
%TO.N,/led_driver1/nmos_array0/d_out*%
X128524000Y-66564000D02*
X128524000Y-65219199D01*
X128524000Y-65219199D02*
X128024001Y-64719200D01*
%TO.N,/led_driver1/nmos_array0/dp_out*%
X120904000Y-57208801D02*
X121403999Y-57708800D01*
X120904000Y-55864000D02*
X120904000Y-57208801D01*
%TO.N,/led_driver1/nmos_array0/dp_in*%
X115437500Y-53406000D02*
X115437500Y-53664700D01*
X119481600Y-57708800D02*
X120404001Y-57708800D01*
X115437500Y-53664700D02*
X119481600Y-57708800D01*
%TO.N,VCC*%
X123444000Y-63296800D02*
X122174000Y-63296800D01*
X127254000Y-63296800D02*
X127279400Y-63296800D01*
X127279400Y-63296800D02*
X128524000Y-63296800D01*
%TD*%
%TA.AperFunction,Conductor*%
%TO.N,GND*%
G36*
X107206624Y-63800407D02*
G01*
X107242588Y-63849907D01*
X107242661Y-63850528D01*
X107718461Y-64326329D01*
X107642993Y-64369901D01*
X107549901Y-64462993D01*
X107506328Y-64538461D01*
X107037423Y-64069556D01*
X106966433Y-64167265D01*
X106966431Y-64167269D01*
X106884250Y-64328559D01*
X106828316Y-64500710D01*
X106800000Y-64679489D01*
X106800000Y-64860510D01*
X106828316Y-65039289D01*
X106884250Y-65211440D01*
X106966430Y-65372728D01*
X107037424Y-65470442D01*
X107506328Y-65001536D01*
X107549901Y-65077007D01*
X107642993Y-65170099D01*
X107718460Y-65213670D01*
X107249556Y-65682574D01*
X107249556Y-65682575D01*
X107347263Y-65753564D01*
X107347269Y-65753568D01*
X107508559Y-65835749D01*
X107680710Y-65891683D01*
X107859490Y-65920000D01*
X108040510Y-65920000D01*
X108219289Y-65891683D01*
X108391440Y-65835749D01*
X108552730Y-65753568D01*
X108552735Y-65753564D01*
X108650442Y-65682575D01*
X108650442Y-65682574D01*
X108181538Y-65213670D01*
X108257007Y-65170099D01*
X108350099Y-65077007D01*
X108393670Y-65001538D01*
X108862574Y-65470442D01*
X108862575Y-65470442D01*
X108933564Y-65372735D01*
X108933568Y-65372730D01*
X109015749Y-65211440D01*
X109071683Y-65039289D01*
X109100000Y-64860510D01*
X109100000Y-64693400D01*
X109118907Y-64635209D01*
X109168407Y-64599245D01*
X109229593Y-64599245D01*
X109269001Y-64623394D01*
X110371087Y-65725480D01*
X110371089Y-65725481D01*
X110371091Y-65725483D01*
X110398871Y-65741522D01*
X110439812Y-65786991D01*
X110446208Y-65847842D01*
X110419375Y-65897262D01*
X109436135Y-66880504D01*
X109381618Y-66908281D01*
X109366131Y-66909500D01*
X109097839Y-66909500D01*
X109039648Y-66890593D01*
X109009631Y-66855447D01*
X108933996Y-66707006D01*
X108827553Y-66560499D01*
X108699501Y-66432447D01*
X108552994Y-66326004D01*
X108552993Y-66326003D01*
X108552991Y-66326002D01*
X108391637Y-66243788D01*
X108219406Y-66187828D01*
X108040549Y-66159500D01*
X108040546Y-66159500D01*
X107859454Y-66159500D01*
X107859451Y-66159500D01*
X107680593Y-66187828D01*
X107508362Y-66243788D01*
X107347008Y-66326002D01*
X107273752Y-66379225D01*
X107200499Y-66432447D01*
X107072447Y-66560499D01*
X107064217Y-66571827D01*
X106966002Y-66707008D01*
X106883788Y-66868362D01*
X106827828Y-67040593D01*
X106799500Y-67219450D01*
X106799500Y-67400549D01*
X106827828Y-67579406D01*
X106883788Y-67751637D01*
X106956578Y-67894496D01*
X106966004Y-67912994D01*
X107072447Y-68059501D01*
X107175844Y-68162898D01*
X107203620Y-68217413D01*
X107194049Y-68277845D01*
X107150784Y-68321110D01*
X107105839Y-68331900D01*
X106254161Y-68331900D01*
X106195970Y-68312993D01*
X106160006Y-68263493D01*
X106160006Y-68202307D01*
X106184155Y-68162898D01*
X106287553Y-68059501D01*
X106393996Y-67912994D01*
X106476211Y-67751639D01*
X106532171Y-67579409D01*
X106548662Y-67475290D01*
X106560500Y-67400549D01*
X106560500Y-67219450D01*
X106539918Y-67089506D01*
X106532171Y-67040591D01*
X106476211Y-66868361D01*
X106393996Y-66707006D01*
X106287553Y-66560499D01*
X106159501Y-66432447D01*
X106012994Y-66326004D01*
X106012993Y-66326003D01*
X106012991Y-66326002D01*
X105851637Y-66243788D01*
X105679406Y-66187828D01*
X105500549Y-66159500D01*
X105500546Y-66159500D01*
X105319454Y-66159500D01*
X105319451Y-66159500D01*
X105140593Y-66187828D01*
X104968362Y-66243788D01*
X104807008Y-66326002D01*
X104733752Y-66379225D01*
X104660499Y-66432447D01*
X104532447Y-66560499D01*
X104524217Y-66571827D01*
X104426002Y-66707008D01*
X104343788Y-66868362D01*
X104287828Y-67040593D01*
X104280081Y-67089506D01*
X104252303Y-67144023D01*
X104197787Y-67171800D01*
X104137355Y-67162229D01*
X104094090Y-67118964D01*
X104083300Y-67074019D01*
X104083300Y-65002782D01*
X104102207Y-64944591D01*
X104151707Y-64908627D01*
X104212893Y-64908627D01*
X104262393Y-64944591D01*
X104280081Y-64987295D01*
X104288316Y-65039289D01*
X104344250Y-65211440D01*
X104426430Y-65372728D01*
X104497424Y-65470442D01*
X104966328Y-65001536D01*
X105009901Y-65077007D01*
X105102993Y-65170099D01*
X105178460Y-65213670D01*
X104709556Y-65682574D01*
X104709556Y-65682575D01*
X104807263Y-65753564D01*
X104807269Y-65753568D01*
X104968559Y-65835749D01*
X105140710Y-65891683D01*
X105319490Y-65920000D01*
X105500510Y-65920000D01*
X105679289Y-65891683D01*
X105851440Y-65835749D01*
X106012730Y-65753568D01*
X106012735Y-65753564D01*
X106110442Y-65682575D01*
X106110442Y-65682574D01*
X105641538Y-65213670D01*
X105717007Y-65170099D01*
X105810099Y-65077007D01*
X105853670Y-65001538D01*
X106322574Y-65470442D01*
X106322575Y-65470442D01*
X106393564Y-65372735D01*
X106393568Y-65372730D01*
X106475749Y-65211440D01*
X106531683Y-65039289D01*
X106560000Y-64860510D01*
X106560000Y-64679489D01*
X106531683Y-64500710D01*
X106475749Y-64328559D01*
X106393568Y-64167269D01*
X106393564Y-64167263D01*
X106322575Y-64069556D01*
X106322574Y-64069556D01*
X105853670Y-64538460D01*
X105810099Y-64462993D01*
X105717007Y-64369901D01*
X105641536Y-64326328D01*
X106123383Y-63844482D01*
X106127156Y-63828771D01*
X106173683Y-63789035D01*
X106211566Y-63781500D01*
X107148433Y-63781500D01*
X107206624Y-63800407D01*
G37*
%TD.AperFunction*%
%TA.AperFunction,Conductor*%
G36*
X138903596Y-54008007D02*
G01*
X138939560Y-54057507D01*
X138939560Y-54118693D01*
X138915409Y-54158104D01*
X138881716Y-54191796D01*
X138766312Y-54364508D01*
X138766312Y-54364509D01*
X138686824Y-54556412D01*
X138686824Y-54556414D01*
X138646300Y-54760138D01*
X138646300Y-54967861D01*
X138662965Y-55051639D01*
X138686823Y-55171583D01*
X138686824Y-55171585D01*
X138686824Y-55171587D01*
X138766312Y-55363490D01*
X138766312Y-55363491D01*
X138881716Y-55536203D01*
X138881717Y-55536204D01*
X139028596Y-55683083D01*
X139201307Y-55798486D01*
X139393214Y-55877976D01*
X139596941Y-55918500D01*
X139596942Y-55918500D01*
X139804658Y-55918500D01*
X139804659Y-55918500D01*
X140008386Y-55877976D01*
X140200293Y-55798486D01*
X140373004Y-55683083D01*
X140519883Y-55536204D01*
X140635286Y-55363493D01*
X140714776Y-55171586D01*
X140755300Y-54967859D01*
X140755300Y-54760141D01*
X140714776Y-54556414D01*
X140635287Y-54364509D01*
X140635287Y-54364508D01*
X140519883Y-54191796D01*
X140486191Y-54158104D01*
X140458414Y-54103587D01*
X140467985Y-54043155D01*
X140511250Y-53999890D01*
X140556195Y-53989100D01*
X141993405Y-53989100D01*
X142051596Y-54008007D01*
X142087560Y-54057507D01*
X142087560Y-54118693D01*
X142063409Y-54158104D01*
X142029716Y-54191796D01*
X141914312Y-54364508D01*
X141914312Y-54364509D01*
X141834824Y-54556412D01*
X141834824Y-54556414D01*
X141794300Y-54760138D01*
X141794300Y-54967861D01*
X141810965Y-55051639D01*
X141834823Y-55171583D01*
X141834824Y-55171585D01*
X141834824Y-55171587D01*
X141914312Y-55363490D01*
X141914312Y-55363491D01*
X142029716Y-55536203D01*
X142029717Y-55536204D01*
X142176596Y-55683083D01*
X142349307Y-55798486D01*
X142541214Y-55877976D01*
X142744941Y-55918500D01*
X142744942Y-55918500D01*
X142952658Y-55918500D01*
X142952659Y-55918500D01*
X143156386Y-55877976D01*
X143193697Y-55862520D01*
X143254693Y-55857719D01*
X143301587Y-55883980D01*
X144350504Y-56932896D01*
X144378281Y-56987413D01*
X144379500Y-57002900D01*
X144379500Y-58130099D01*
X144360593Y-58188290D01*
X144311093Y-58224254D01*
X144249907Y-58224254D01*
X144210496Y-58200103D01*
X143868312Y-57857919D01*
X143840535Y-57803402D01*
X143846852Y-57750029D01*
X143862776Y-57711586D01*
X143903300Y-57507859D01*
X143903300Y-57300141D01*
X143862776Y-57096414D01*
X143783287Y-56904509D01*
X143783287Y-56904508D01*
X143667883Y-56731796D01*
X143521003Y-56584916D01*
X143348290Y-56469512D01*
X143156386Y-56390024D01*
X142952661Y-56349500D01*
X142952659Y-56349500D01*
X142744941Y-56349500D01*
X142744938Y-56349500D01*
X142541214Y-56390024D01*
X142541212Y-56390024D01*
X142349309Y-56469512D01*
X142349308Y-56469512D01*
X142176596Y-56584916D01*
X142029716Y-56731796D01*
X141914312Y-56904508D01*
X141914312Y-56904509D01*
X141834824Y-57096412D01*
X141834824Y-57096414D01*
X141794300Y-57300138D01*
X141794300Y-57507861D01*
X141810965Y-57591639D01*
X141834823Y-57711583D01*
X141834824Y-57711585D01*
X141834824Y-57711587D01*
X141914312Y-57903490D01*
X141914312Y-57903491D01*
X142029716Y-58076203D01*
X142029717Y-58076204D01*
X142176596Y-58223083D01*
X142349307Y-58338486D01*
X142541214Y-58417976D01*
X142744941Y-58458500D01*
X142744942Y-58458500D01*
X142952658Y-58458500D01*
X142952659Y-58458500D01*
X143156386Y-58417976D01*
X143193697Y-58402520D01*
X143254693Y-58397719D01*
X143301587Y-58423980D01*
X143690104Y-58812497D01*
X143717881Y-58867014D01*
X143719100Y-58882501D01*
X143719100Y-59244824D01*
X143700193Y-59303015D01*
X143690104Y-59314828D01*
X143292470Y-59712461D01*
X143248899Y-59636993D01*
X143155807Y-59543901D01*
X143080336Y-59500328D01*
X143481526Y-59099139D01*
X143348054Y-59009956D01*
X143156239Y-58930503D01*
X142952612Y-58890000D01*
X142744987Y-58890000D01*
X142541360Y-58930503D01*
X142349545Y-59009956D01*
X142349536Y-59009960D01*
X142216072Y-59099139D01*
X142617261Y-59500328D01*
X142541793Y-59543901D01*
X142448701Y-59636993D01*
X142405128Y-59712461D01*
X142003939Y-59311272D01*
X141914760Y-59444736D01*
X141914756Y-59444745D01*
X141835303Y-59636560D01*
X141794800Y-59840187D01*
X141794800Y-60047812D01*
X141835303Y-60251439D01*
X141914756Y-60443254D01*
X142003939Y-60576726D01*
X142405128Y-60175536D01*
X142448701Y-60251007D01*
X142541793Y-60344099D01*
X142617261Y-60387670D01*
X142220427Y-60784504D01*
X142165910Y-60812281D01*
X142150423Y-60813500D01*
X142136473Y-60813500D01*
X142085543Y-60827146D01*
X142034611Y-60840793D01*
X142007905Y-60856213D01*
X142007904Y-60856212D01*
X141943288Y-60893519D01*
X141472516Y-61364291D01*
X141419795Y-61455606D01*
X141419793Y-61455610D01*
X141419793Y-61455612D01*
X141403448Y-61516613D01*
X141403448Y-61516614D01*
X141403447Y-61516613D01*
X141392500Y-61557470D01*
X141392500Y-64287099D01*
X141373593Y-64345290D01*
X141363503Y-64357103D01*
X140893760Y-64826845D01*
X140839244Y-64854622D01*
X140778812Y-64845051D01*
X140735547Y-64801786D01*
X140726659Y-64776155D01*
X140725435Y-64770000D01*
X140714776Y-64716414D01*
X140646966Y-64552704D01*
X140635287Y-64524509D01*
X140635287Y-64524508D01*
X140519883Y-64351796D01*
X140373003Y-64204916D01*
X140200290Y-64089512D01*
X140008386Y-64010024D01*
X139804661Y-63969500D01*
X139804659Y-63969500D01*
X139596941Y-63969500D01*
X139596938Y-63969500D01*
X139393214Y-64010024D01*
X139393212Y-64010024D01*
X139201309Y-64089512D01*
X139201308Y-64089512D01*
X139028596Y-64204916D01*
X138881716Y-64351796D01*
X138766312Y-64524508D01*
X138766312Y-64524509D01*
X138686824Y-64716412D01*
X138686824Y-64716414D01*
X138646300Y-64920138D01*
X138646300Y-65127861D01*
X138666717Y-65230500D01*
X138681652Y-65305587D01*
X138686824Y-65331585D01*
X138686824Y-65331587D01*
X138766312Y-65523490D01*
X138766312Y-65523491D01*
X138879997Y-65693630D01*
X138881717Y-65696204D01*
X139028596Y-65843083D01*
X139201307Y-65958486D01*
X139393214Y-66037976D01*
X139452955Y-66049859D01*
X139506339Y-66079756D01*
X139531955Y-66135321D01*
X139520018Y-66195330D01*
X139503645Y-66216961D01*
X138685103Y-67035504D01*
X138630586Y-67063281D01*
X138615099Y-67064500D01*
X129623175Y-67064500D01*
X129564984Y-67045593D01*
X129529020Y-66996093D01*
X129524351Y-66959595D01*
X129524500Y-66957101D01*
X129524500Y-66170899D01*
X129524499Y-66170893D01*
X129523131Y-66159500D01*
X129513877Y-66082436D01*
X129486119Y-66012047D01*
X129458362Y-65941660D01*
X129458361Y-65941659D01*
X129458361Y-65941658D01*
X129366922Y-65821078D01*
X129246342Y-65729639D01*
X129246341Y-65729638D01*
X129246339Y-65729637D01*
X129105565Y-65674123D01*
X129014164Y-65663147D01*
X129014273Y-65662231D01*
X128960619Y-65641171D01*
X128927683Y-65589607D01*
X128924500Y-65564705D01*
X128924500Y-65230500D01*
X128943407Y-65172309D01*
X128992907Y-65136345D01*
X129023500Y-65131500D01*
X129182490Y-65131500D01*
X129205464Y-65127861D01*
X129282126Y-65115719D01*
X129402220Y-65054528D01*
X129497528Y-64959220D01*
X129517441Y-64920138D01*
X131126300Y-64920138D01*
X131126300Y-65127861D01*
X131146717Y-65230500D01*
X131161652Y-65305587D01*
X131166824Y-65331585D01*
X131166824Y-65331587D01*
X131246312Y-65523490D01*
X131246312Y-65523491D01*
X131359997Y-65693630D01*
X131361717Y-65696204D01*
X131508596Y-65843083D01*
X131681307Y-65958486D01*
X131873214Y-66037976D01*
X132076941Y-66078500D01*
X132076942Y-66078500D01*
X132284658Y-66078500D01*
X132284659Y-66078500D01*
X132488386Y-66037976D01*
X132680293Y-65958486D01*
X132853004Y-65843083D01*
X132999883Y-65696204D01*
X133115286Y-65523493D01*
X133194776Y-65331586D01*
X133235300Y-65127859D01*
X133235300Y-64920141D01*
X133194776Y-64716414D01*
X133126966Y-64552704D01*
X133115287Y-64524509D01*
X133115287Y-64524508D01*
X132999883Y-64351796D01*
X132853003Y-64204916D01*
X132680290Y-64089512D01*
X132488386Y-64010024D01*
X132284661Y-63969500D01*
X132284659Y-63969500D01*
X132076941Y-63969500D01*
X132076938Y-63969500D01*
X131873214Y-64010024D01*
X131873212Y-64010024D01*
X131681309Y-64089512D01*
X131681308Y-64089512D01*
X131508596Y-64204916D01*
X131361716Y-64351796D01*
X131246312Y-64524508D01*
X131246312Y-64524509D01*
X131166824Y-64716412D01*
X131166824Y-64716414D01*
X131126300Y-64920138D01*
X129517441Y-64920138D01*
X129558719Y-64839126D01*
X129574500Y-64739488D01*
X129574500Y-64322512D01*
X129573821Y-64318228D01*
X129560719Y-64235501D01*
X129559500Y-64220014D01*
X129559500Y-62558274D01*
X129559500Y-62558273D01*
X129545606Y-62506420D01*
X129532207Y-62456412D01*
X129509854Y-62417695D01*
X129488170Y-62380138D01*
X131126300Y-62380138D01*
X131126300Y-62587861D01*
X131150092Y-62707470D01*
X131166823Y-62791583D01*
X131166824Y-62791585D01*
X131166824Y-62791587D01*
X131246312Y-62983490D01*
X131246312Y-62983491D01*
X131361716Y-63156203D01*
X131361717Y-63156204D01*
X131508596Y-63303083D01*
X131681307Y-63418486D01*
X131873214Y-63497976D01*
X132076941Y-63538500D01*
X132076942Y-63538500D01*
X132284658Y-63538500D01*
X132284659Y-63538500D01*
X132488386Y-63497976D01*
X132680293Y-63418486D01*
X132853004Y-63303083D01*
X132999883Y-63156204D01*
X133115286Y-62983493D01*
X133194776Y-62791586D01*
X133235300Y-62587859D01*
X133235300Y-62380141D01*
X133235299Y-62380138D01*
X138646300Y-62380138D01*
X138646300Y-62587861D01*
X138670092Y-62707470D01*
X138686823Y-62791583D01*
X138686824Y-62791585D01*
X138686824Y-62791587D01*
X138766312Y-62983490D01*
X138766312Y-62983491D01*
X138881716Y-63156203D01*
X138881717Y-63156204D01*
X139028596Y-63303083D01*
X139201307Y-63418486D01*
X139393214Y-63497976D01*
X139596941Y-63538500D01*
X139596942Y-63538500D01*
X139804658Y-63538500D01*
X139804659Y-63538500D01*
X140008386Y-63497976D01*
X140200293Y-63418486D01*
X140373004Y-63303083D01*
X140519883Y-63156204D01*
X140635286Y-62983493D01*
X140714776Y-62791586D01*
X140755300Y-62587859D01*
X140755300Y-62380141D01*
X140714776Y-62176414D01*
X140635287Y-61984509D01*
X140635287Y-61984508D01*
X140519883Y-61811796D01*
X140373003Y-61664916D01*
X140200290Y-61549512D01*
X140008386Y-61470024D01*
X139804661Y-61429500D01*
X139804659Y-61429500D01*
X139596941Y-61429500D01*
X139596938Y-61429500D01*
X139393214Y-61470024D01*
X139393212Y-61470024D01*
X139201309Y-61549512D01*
X139201308Y-61549512D01*
X139028596Y-61664916D01*
X138881716Y-61811796D01*
X138766312Y-61984508D01*
X138766312Y-61984509D01*
X138686824Y-62176412D01*
X138686824Y-62176414D01*
X138646300Y-62380138D01*
X133235299Y-62380138D01*
X133194776Y-62176414D01*
X133115287Y-61984509D01*
X133115287Y-61984508D01*
X132999883Y-61811796D01*
X132853003Y-61664916D01*
X132680290Y-61549512D01*
X132488386Y-61470024D01*
X132284661Y-61429500D01*
X132284659Y-61429500D01*
X132076941Y-61429500D01*
X132076938Y-61429500D01*
X131873214Y-61470024D01*
X131873212Y-61470024D01*
X131681309Y-61549512D01*
X131681308Y-61549512D01*
X131508596Y-61664916D01*
X131361716Y-61811796D01*
X131246312Y-61984508D01*
X131246312Y-61984509D01*
X131166824Y-62176412D01*
X131166824Y-62176414D01*
X131126300Y-62380138D01*
X129488170Y-62380138D01*
X129479483Y-62365091D01*
X129479482Y-62365090D01*
X129479481Y-62365089D01*
X129479480Y-62365087D01*
X128525396Y-61411003D01*
X128497619Y-61356486D01*
X128507190Y-61296054D01*
X128525390Y-61271002D01*
X129454080Y-60342313D01*
X129482555Y-60292994D01*
X129506805Y-60250992D01*
X129506805Y-60250990D01*
X129506807Y-60250988D01*
X129534100Y-60149127D01*
X129534100Y-60043673D01*
X129534100Y-59840187D01*
X131126800Y-59840187D01*
X131126800Y-60047812D01*
X131167303Y-60251439D01*
X131246756Y-60443254D01*
X131335939Y-60576726D01*
X131737128Y-60175536D01*
X131780701Y-60251007D01*
X131873793Y-60344099D01*
X131949260Y-60387670D01*
X131548071Y-60788858D01*
X131681544Y-60878043D01*
X131873360Y-60957496D01*
X132076987Y-60997999D01*
X132076991Y-60998000D01*
X132284609Y-60998000D01*
X132284612Y-60997999D01*
X132488239Y-60957496D01*
X132680055Y-60878043D01*
X132813526Y-60788858D01*
X132412338Y-60387670D01*
X132487807Y-60344099D01*
X132580899Y-60251007D01*
X132624470Y-60175538D01*
X133025658Y-60576726D01*
X133114843Y-60443255D01*
X133194296Y-60251439D01*
X133234799Y-60047812D01*
X133234800Y-60047809D01*
X133234800Y-59840190D01*
X133234799Y-59840187D01*
X138646800Y-59840187D01*
X138646800Y-60047812D01*
X138687303Y-60251439D01*
X138766756Y-60443254D01*
X138855939Y-60576726D01*
X139257128Y-60175536D01*
X139300701Y-60251007D01*
X139393793Y-60344099D01*
X139469260Y-60387670D01*
X139068071Y-60788858D01*
X139201544Y-60878043D01*
X139393360Y-60957496D01*
X139596987Y-60997999D01*
X139596991Y-60998000D01*
X139804609Y-60998000D01*
X139804612Y-60997999D01*
X140008239Y-60957496D01*
X140200055Y-60878043D01*
X140333526Y-60788858D01*
X139932338Y-60387670D01*
X140007807Y-60344099D01*
X140100899Y-60251007D01*
X140144470Y-60175538D01*
X140545658Y-60576726D01*
X140634843Y-60443255D01*
X140714296Y-60251439D01*
X140754799Y-60047812D01*
X140754800Y-60047809D01*
X140754800Y-59840190D01*
X140754799Y-59840187D01*
X140714296Y-59636560D01*
X140634843Y-59444744D01*
X140545658Y-59311271D01*
X140144470Y-59712460D01*
X140100899Y-59636993D01*
X140007807Y-59543901D01*
X139932336Y-59500328D01*
X140333526Y-59099139D01*
X140200054Y-59009956D01*
X140008239Y-58930503D01*
X139804612Y-58890000D01*
X139596987Y-58890000D01*
X139393360Y-58930503D01*
X139201545Y-59009956D01*
X139201536Y-59009960D01*
X139068072Y-59099139D01*
X139469261Y-59500328D01*
X139393793Y-59543901D01*
X139300701Y-59636993D01*
X139257128Y-59712461D01*
X138855939Y-59311272D01*
X138766760Y-59444736D01*
X138766756Y-59444745D01*
X138687303Y-59636560D01*
X138646800Y-59840187D01*
X133234799Y-59840187D01*
X133194296Y-59636560D01*
X133114843Y-59444744D01*
X133025658Y-59311271D01*
X132624470Y-59712460D01*
X132580899Y-59636993D01*
X132487807Y-59543901D01*
X132412336Y-59500328D01*
X132813526Y-59099139D01*
X132680054Y-59009956D01*
X132488239Y-58930503D01*
X132284612Y-58890000D01*
X132076987Y-58890000D01*
X131873360Y-58930503D01*
X131681545Y-59009956D01*
X131681536Y-59009960D01*
X131548072Y-59099139D01*
X131949261Y-59500328D01*
X131873793Y-59543901D01*
X131780701Y-59636993D01*
X131737128Y-59712461D01*
X131335939Y-59311272D01*
X131246760Y-59444736D01*
X131246756Y-59444745D01*
X131167303Y-59636560D01*
X131126800Y-59840187D01*
X129534100Y-59840187D01*
X129534100Y-58722873D01*
X129521459Y-58675693D01*
X129518838Y-58665910D01*
X129518838Y-58665909D01*
X129506807Y-58621012D01*
X129506805Y-58621008D01*
X129454083Y-58529691D01*
X129454079Y-58529685D01*
X129406389Y-58481995D01*
X129404160Y-58479693D01*
X129397378Y-58472457D01*
X129395480Y-58469169D01*
X129376611Y-58450300D01*
X129375521Y-58449137D01*
X129363171Y-58422827D01*
X129349973Y-58396923D01*
X129350235Y-58395267D01*
X129349523Y-58393750D01*
X129354996Y-58365202D01*
X129359544Y-58336491D01*
X129360729Y-58335305D01*
X129361045Y-58333659D01*
X129382251Y-58313783D01*
X129396764Y-58299270D01*
X129395918Y-58298106D01*
X129402214Y-58293530D01*
X129402220Y-58293528D01*
X129497528Y-58198220D01*
X129558719Y-58078126D01*
X129574500Y-57978488D01*
X129574500Y-57561512D01*
X129558719Y-57461874D01*
X129497528Y-57341780D01*
X129455886Y-57300138D01*
X131126300Y-57300138D01*
X131126300Y-57507861D01*
X131142965Y-57591639D01*
X131166823Y-57711583D01*
X131166824Y-57711585D01*
X131166824Y-57711587D01*
X131246312Y-57903490D01*
X131246312Y-57903491D01*
X131361716Y-58076203D01*
X131361717Y-58076204D01*
X131508596Y-58223083D01*
X131681307Y-58338486D01*
X131873214Y-58417976D01*
X132076941Y-58458500D01*
X132076942Y-58458500D01*
X132284658Y-58458500D01*
X132284659Y-58458500D01*
X132488386Y-58417976D01*
X132680293Y-58338486D01*
X132853004Y-58223083D01*
X132999883Y-58076204D01*
X133115286Y-57903493D01*
X133194776Y-57711586D01*
X133235300Y-57507859D01*
X133235300Y-57300141D01*
X133235299Y-57300138D01*
X138646300Y-57300138D01*
X138646300Y-57507861D01*
X138662965Y-57591639D01*
X138686823Y-57711583D01*
X138686824Y-57711585D01*
X138686824Y-57711587D01*
X138766312Y-57903490D01*
X138766312Y-57903491D01*
X138881716Y-58076203D01*
X138881717Y-58076204D01*
X139028596Y-58223083D01*
X139201307Y-58338486D01*
X139393214Y-58417976D01*
X139596941Y-58458500D01*
X139596942Y-58458500D01*
X139804658Y-58458500D01*
X139804659Y-58458500D01*
X140008386Y-58417976D01*
X140200293Y-58338486D01*
X140373004Y-58223083D01*
X140519883Y-58076204D01*
X140635286Y-57903493D01*
X140714776Y-57711586D01*
X140755300Y-57507859D01*
X140755300Y-57300141D01*
X140714776Y-57096414D01*
X140635287Y-56904509D01*
X140635287Y-56904508D01*
X140519883Y-56731796D01*
X140373003Y-56584916D01*
X140200290Y-56469512D01*
X140008386Y-56390024D01*
X139804661Y-56349500D01*
X139804659Y-56349500D01*
X139596941Y-56349500D01*
X139596938Y-56349500D01*
X139393214Y-56390024D01*
X139393212Y-56390024D01*
X139201309Y-56469512D01*
X139201308Y-56469512D01*
X139028596Y-56584916D01*
X138881716Y-56731796D01*
X138766312Y-56904508D01*
X138766312Y-56904509D01*
X138686824Y-57096412D01*
X138686824Y-57096414D01*
X138646300Y-57300138D01*
X133235299Y-57300138D01*
X133194776Y-57096414D01*
X133115287Y-56904509D01*
X133115287Y-56904508D01*
X132999883Y-56731796D01*
X132853003Y-56584916D01*
X132680290Y-56469512D01*
X132488386Y-56390024D01*
X132284661Y-56349500D01*
X132284659Y-56349500D01*
X132076941Y-56349500D01*
X132076938Y-56349500D01*
X131873214Y-56390024D01*
X131873212Y-56390024D01*
X131681309Y-56469512D01*
X131681308Y-56469512D01*
X131508596Y-56584916D01*
X131361716Y-56731796D01*
X131246312Y-56904508D01*
X131246312Y-56904509D01*
X131166824Y-57096412D01*
X131166824Y-57096414D01*
X131126300Y-57300138D01*
X129455886Y-57300138D01*
X129402220Y-57246472D01*
X129402217Y-57246470D01*
X129282132Y-57185283D01*
X129282127Y-57185281D01*
X129282126Y-57185281D01*
X129248913Y-57180020D01*
X129182490Y-57169500D01*
X129182488Y-57169500D01*
X129092100Y-57169500D01*
X129084502Y-57167031D01*
X129076613Y-57168281D01*
X129055957Y-57157756D01*
X129033909Y-57150593D01*
X129022096Y-57140504D01*
X128953496Y-57071904D01*
X128925719Y-57017387D01*
X128924500Y-57001900D01*
X128924500Y-56863294D01*
X128943407Y-56805103D01*
X128992907Y-56769139D01*
X129014195Y-56765115D01*
X129014164Y-56764853D01*
X129030319Y-56762912D01*
X129105564Y-56753877D01*
X129246342Y-56698361D01*
X129366922Y-56606922D01*
X129458361Y-56486342D01*
X129513877Y-56345564D01*
X129524500Y-56257102D01*
X129524500Y-55470898D01*
X129513877Y-55382436D01*
X129481690Y-55300818D01*
X129477932Y-55239750D01*
X129510787Y-55188134D01*
X129567706Y-55165687D01*
X129573788Y-55165500D01*
X130641729Y-55165500D01*
X130641731Y-55165500D01*
X130743592Y-55138207D01*
X130743594Y-55138205D01*
X130743596Y-55138205D01*
X130834912Y-55085483D01*
X130834912Y-55085482D01*
X130834917Y-55085480D01*
X130966504Y-54953892D01*
X131021019Y-54926116D01*
X131081451Y-54935687D01*
X131124715Y-54978952D01*
X131133604Y-55004582D01*
X131166824Y-55171587D01*
X131246312Y-55363490D01*
X131246312Y-55363491D01*
X131361716Y-55536203D01*
X131361717Y-55536204D01*
X131508596Y-55683083D01*
X131681307Y-55798486D01*
X131873214Y-55877976D01*
X132076941Y-55918500D01*
X132076942Y-55918500D01*
X132284658Y-55918500D01*
X132284659Y-55918500D01*
X132488386Y-55877976D01*
X132680293Y-55798486D01*
X132853004Y-55683083D01*
X132999883Y-55536204D01*
X133115286Y-55363493D01*
X133194776Y-55171586D01*
X133235300Y-54967859D01*
X133235300Y-54760141D01*
X133194776Y-54556414D01*
X133115287Y-54364509D01*
X133115287Y-54364508D01*
X132999883Y-54191796D01*
X132966191Y-54158104D01*
X132938414Y-54103587D01*
X132947985Y-54043155D01*
X132991250Y-53999890D01*
X133036195Y-53989100D01*
X138845405Y-53989100D01*
X138903596Y-54008007D01*
G37*
%TD.AperFunction*%
%TA.AperFunction,Conductor*%
G36*
X104252301Y-63569094D02*
G01*
X104384687Y-63701480D01*
X104384689Y-63701481D01*
X104384691Y-63701483D01*
X104476008Y-63754205D01*
X104476006Y-63754205D01*
X104476010Y-63754206D01*
X104476012Y-63754207D01*
X104577873Y-63781500D01*
X104608433Y-63781500D01*
X104666624Y-63800407D01*
X104702588Y-63849907D01*
X104702661Y-63850528D01*
X105178461Y-64326328D01*
X105102993Y-64369901D01*
X105009901Y-64462993D01*
X104966328Y-64538461D01*
X104497423Y-64069556D01*
X104426433Y-64167265D01*
X104426431Y-64167269D01*
X104344250Y-64328559D01*
X104288316Y-64500710D01*
X104280081Y-64552704D01*
X104252303Y-64607221D01*
X104197787Y-64634998D01*
X104137355Y-64625427D01*
X104094090Y-64582162D01*
X104083300Y-64537217D01*
X104083300Y-63639100D01*
X104102207Y-63580909D01*
X104151707Y-63544945D01*
X104212893Y-63544945D01*
X104252301Y-63569094D01*
G37*
%TD.AperFunction*%
%TA.AperFunction,Conductor*%
G36*
X111337390Y-53099007D02*
G01*
X111349203Y-53109096D01*
X111457504Y-53217397D01*
X111485281Y-53271914D01*
X111486500Y-53287401D01*
X111486500Y-53382241D01*
X111486500Y-53487695D01*
X111499736Y-53537093D01*
X111513794Y-53589560D01*
X111566516Y-53680876D01*
X111566518Y-53680878D01*
X111566520Y-53680881D01*
X112170505Y-54284866D01*
X112198281Y-54339381D01*
X112199500Y-54354868D01*
X112199500Y-54560274D01*
X112202353Y-54590694D01*
X112202355Y-54590703D01*
X112247206Y-54718881D01*
X112286566Y-54772212D01*
X112305907Y-54830260D01*
X112287435Y-54888591D01*
X112286566Y-54889788D01*
X112247206Y-54943118D01*
X112202355Y-55071296D01*
X112202353Y-55071305D01*
X112199500Y-55101725D01*
X112199500Y-55510274D01*
X112202353Y-55540694D01*
X112202355Y-55540703D01*
X112247207Y-55668883D01*
X112327845Y-55778144D01*
X112327847Y-55778146D01*
X112327850Y-55778150D01*
X112327853Y-55778152D01*
X112327855Y-55778154D01*
X112437116Y-55858792D01*
X112437117Y-55858792D01*
X112437118Y-55858793D01*
X112565301Y-55903646D01*
X112595725Y-55906499D01*
X112595727Y-55906500D01*
X112595734Y-55906500D01*
X112886100Y-55906500D01*
X112944291Y-55925407D01*
X112980255Y-55974907D01*
X112985100Y-56005500D01*
X112985100Y-58384280D01*
X112966193Y-58442471D01*
X112916693Y-58478435D01*
X112855507Y-58478435D01*
X112853404Y-58477725D01*
X112796602Y-58457850D01*
X112766211Y-58455000D01*
X112037001Y-58455000D01*
X112037000Y-58455001D01*
X112037000Y-61496000D01*
X112018093Y-61554191D01*
X111968593Y-61590155D01*
X111938000Y-61595000D01*
X111887001Y-61595000D01*
X111887000Y-61595001D01*
X111887000Y-61646000D01*
X111868093Y-61704191D01*
X111818593Y-61740155D01*
X111788000Y-61745000D01*
X110612002Y-61745000D01*
X110612001Y-61745001D01*
X110612001Y-61799203D01*
X110614850Y-61829600D01*
X110616136Y-61835486D01*
X110613742Y-61836008D01*
X110614871Y-61886961D01*
X110580013Y-61937245D01*
X110522255Y-61957437D01*
X110463660Y-61939823D01*
X110450058Y-61928465D01*
X110106696Y-61585103D01*
X110103069Y-61577985D01*
X110096607Y-61573290D01*
X110089443Y-61551241D01*
X110078919Y-61530586D01*
X110077700Y-61515099D01*
X110077700Y-61390788D01*
X110612000Y-61390788D01*
X110612000Y-61444999D01*
X110612001Y-61445000D01*
X111736999Y-61445000D01*
X111737000Y-61444999D01*
X111737000Y-60475001D01*
X111736999Y-60475000D01*
X110612002Y-60475000D01*
X110612001Y-60475001D01*
X110612001Y-60529203D01*
X110614850Y-60559600D01*
X110614850Y-60559602D01*
X110659654Y-60687647D01*
X110740207Y-60796790D01*
X110740209Y-60796792D01*
X110853417Y-60880345D01*
X110889009Y-60930113D01*
X110888551Y-60991297D01*
X110853417Y-61039655D01*
X110740209Y-61123207D01*
X110740207Y-61123209D01*
X110659654Y-61232352D01*
X110614850Y-61360398D01*
X110612000Y-61390788D01*
X110077700Y-61390788D01*
X110077700Y-60120788D01*
X110612000Y-60120788D01*
X110612000Y-60174999D01*
X110612001Y-60175000D01*
X111736999Y-60175000D01*
X111737000Y-60174999D01*
X111737000Y-59205001D01*
X111736999Y-59205000D01*
X110612002Y-59205000D01*
X110612001Y-59205001D01*
X110612001Y-59259203D01*
X110614850Y-59289600D01*
X110614850Y-59289602D01*
X110659654Y-59417647D01*
X110740207Y-59526790D01*
X110740209Y-59526792D01*
X110853417Y-59610345D01*
X110889009Y-59660113D01*
X110888551Y-59721297D01*
X110853417Y-59769655D01*
X110740209Y-59853207D01*
X110740207Y-59853209D01*
X110659654Y-59962352D01*
X110614850Y-60090398D01*
X110612000Y-60120788D01*
X110077700Y-60120788D01*
X110077700Y-58850788D01*
X110612000Y-58850788D01*
X110612000Y-58904999D01*
X110612001Y-58905000D01*
X111736999Y-58905000D01*
X111737000Y-58904999D01*
X111737000Y-58455001D01*
X111736999Y-58455000D01*
X111007796Y-58455000D01*
X110977399Y-58457850D01*
X110977397Y-58457850D01*
X110849352Y-58502654D01*
X110740209Y-58583207D01*
X110740207Y-58583209D01*
X110659654Y-58692352D01*
X110614850Y-58820398D01*
X110612000Y-58850788D01*
X110077700Y-58850788D01*
X110077700Y-57196714D01*
X110077700Y-57196713D01*
X110056202Y-57116480D01*
X110056202Y-57116479D01*
X110056202Y-57116478D01*
X110054080Y-57108561D01*
X110050407Y-57094852D01*
X110037158Y-57071904D01*
X109997683Y-57003531D01*
X109997682Y-57003530D01*
X109997681Y-57003529D01*
X109997680Y-57003527D01*
X108890151Y-55895998D01*
X108862374Y-55841481D01*
X108871945Y-55781049D01*
X108915210Y-55737784D01*
X108920145Y-55735439D01*
X108972765Y-55712206D01*
X109052206Y-55632765D01*
X109097585Y-55529991D01*
X109100500Y-55504865D01*
X109100499Y-53715136D01*
X109097585Y-53690009D01*
X109052206Y-53587235D01*
X108972765Y-53507794D01*
X108869991Y-53462415D01*
X108869990Y-53462414D01*
X108869988Y-53462414D01*
X108844868Y-53459500D01*
X107055139Y-53459500D01*
X107055136Y-53459501D01*
X107030009Y-53462414D01*
X106927235Y-53507794D01*
X106847794Y-53587235D01*
X106802414Y-53690011D01*
X106799500Y-53715130D01*
X106799500Y-55194100D01*
X106780593Y-55252291D01*
X106731093Y-55288255D01*
X106669907Y-55288255D01*
X106630496Y-55264104D01*
X106504841Y-55138449D01*
X106477064Y-55083932D01*
X106480690Y-55037853D01*
X106488557Y-55013640D01*
X106532171Y-54879409D01*
X106551062Y-54760138D01*
X106560500Y-54700549D01*
X106560500Y-54519450D01*
X106541614Y-54400212D01*
X106532171Y-54340591D01*
X106476211Y-54168361D01*
X106393996Y-54007006D01*
X106287553Y-53860499D01*
X106159501Y-53732447D01*
X106012994Y-53626004D01*
X106012993Y-53626003D01*
X106012991Y-53626002D01*
X105851637Y-53543788D01*
X105679406Y-53487828D01*
X105500549Y-53459500D01*
X105500546Y-53459500D01*
X105319454Y-53459500D01*
X105319450Y-53459500D01*
X105232851Y-53473215D01*
X105172419Y-53463643D01*
X105129155Y-53420378D01*
X105119584Y-53359946D01*
X105147361Y-53305431D01*
X105293900Y-53158893D01*
X105343698Y-53109096D01*
X105398214Y-53081319D01*
X105413701Y-53080100D01*
X111279199Y-53080100D01*
X111337390Y-53099007D01*
G37*
%TD.AperFunction*%
%TA.AperFunction,Conductor*%
G36*
X151851191Y-51326907D02*
G01*
X151887155Y-51376407D01*
X151892000Y-51407000D01*
X151892000Y-70513000D01*
X151873093Y-70571191D01*
X151823593Y-70607155D01*
X151793000Y-70612000D01*
X102207000Y-70612000D01*
X102148809Y-70593093D01*
X102112845Y-70543593D01*
X102108000Y-70513000D01*
X102108000Y-54150873D01*
X103282300Y-54150873D01*
X103282300Y-59637273D01*
X103282300Y-67765273D01*
X103282300Y-67870727D01*
X103293625Y-67912994D01*
X103309594Y-67972592D01*
X103362316Y-68063908D01*
X103362318Y-68063910D01*
X103362320Y-68063913D01*
X104351287Y-69052880D01*
X104351289Y-69052881D01*
X104351291Y-69052883D01*
X104442608Y-69105605D01*
X104442606Y-69105605D01*
X104442610Y-69105606D01*
X104442612Y-69105607D01*
X104544473Y-69132900D01*
X104544475Y-69132900D01*
X109272725Y-69132900D01*
X109272727Y-69132900D01*
X109374588Y-69105607D01*
X109374590Y-69105605D01*
X109374592Y-69105605D01*
X109465908Y-69052883D01*
X109465908Y-69052882D01*
X109465913Y-69052880D01*
X110442498Y-68076294D01*
X110497013Y-68048519D01*
X110557445Y-68058090D01*
X110600710Y-68101355D01*
X110611500Y-68146300D01*
X110611500Y-68149274D01*
X110614353Y-68179694D01*
X110614355Y-68179703D01*
X110659207Y-68307883D01*
X110739845Y-68417144D01*
X110739847Y-68417146D01*
X110739850Y-68417150D01*
X110739853Y-68417152D01*
X110739855Y-68417154D01*
X110849116Y-68497792D01*
X110849117Y-68497792D01*
X110849118Y-68497793D01*
X110977301Y-68542646D01*
X111007725Y-68545499D01*
X111007727Y-68545500D01*
X111007734Y-68545500D01*
X112766273Y-68545500D01*
X112766273Y-68545499D01*
X112796699Y-68542646D01*
X112924882Y-68497793D01*
X113034150Y-68417150D01*
X113057352Y-68385711D01*
X113107120Y-68350119D01*
X113137008Y-68345500D01*
X114247273Y-68345500D01*
X115110873Y-68345500D01*
X115216327Y-68345500D01*
X115586992Y-68345500D01*
X115645183Y-68364407D01*
X115666648Y-68385712D01*
X115689850Y-68417150D01*
X115799116Y-68497792D01*
X115799117Y-68497792D01*
X115799118Y-68497793D01*
X115927301Y-68542646D01*
X115957725Y-68545499D01*
X115957727Y-68545500D01*
X115957734Y-68545500D01*
X117716273Y-68545500D01*
X117716273Y-68545499D01*
X117746699Y-68542646D01*
X117874882Y-68497793D01*
X117984150Y-68417150D01*
X118064793Y-68307882D01*
X118109646Y-68179699D01*
X118112499Y-68149273D01*
X118112500Y-68149273D01*
X118112500Y-67740727D01*
X118112499Y-67740725D01*
X118109646Y-67710301D01*
X118064793Y-67582118D01*
X118062791Y-67579406D01*
X117984154Y-67472855D01*
X117984152Y-67472853D01*
X117984150Y-67472850D01*
X117984146Y-67472847D01*
X117984144Y-67472845D01*
X117871425Y-67389655D01*
X117835832Y-67339888D01*
X117836290Y-67278704D01*
X117871425Y-67230345D01*
X117950750Y-67171800D01*
X117984150Y-67147150D01*
X118007352Y-67115711D01*
X118057120Y-67080119D01*
X118087008Y-67075500D01*
X118289725Y-67075500D01*
X118289727Y-67075500D01*
X118391588Y-67048207D01*
X118391590Y-67048205D01*
X118391592Y-67048205D01*
X118482908Y-66995483D01*
X118482908Y-66995482D01*
X118482913Y-66995480D01*
X120081480Y-65396913D01*
X120119197Y-65331585D01*
X120128619Y-65315266D01*
X120128619Y-65315263D01*
X120134206Y-65305588D01*
X120134207Y-65305587D01*
X120151545Y-65240877D01*
X120152083Y-65239134D01*
X120168678Y-65215547D01*
X120184389Y-65191355D01*
X120186184Y-65190665D01*
X120187291Y-65189093D01*
X120214597Y-65179759D01*
X120241511Y-65169428D01*
X120243366Y-65169925D01*
X120245187Y-65169303D01*
X120272767Y-65177803D01*
X120300611Y-65185264D01*
X120302845Y-65187073D01*
X120303659Y-65187324D01*
X120304438Y-65188362D01*
X120316696Y-65198288D01*
X120474504Y-65356096D01*
X120502281Y-65410613D01*
X120503500Y-65426100D01*
X120503500Y-65564705D01*
X120484593Y-65622896D01*
X120435093Y-65658860D01*
X120413804Y-65662887D01*
X120413836Y-65663147D01*
X120322434Y-65674123D01*
X120181660Y-65729637D01*
X120181656Y-65729640D01*
X120061081Y-65821075D01*
X120061075Y-65821081D01*
X119969640Y-65941656D01*
X119969637Y-65941660D01*
X119914123Y-66082434D01*
X119903500Y-66170893D01*
X119903500Y-66957106D01*
X119914123Y-67045565D01*
X119969637Y-67186339D01*
X119969638Y-67186341D01*
X119969639Y-67186342D01*
X120061078Y-67306922D01*
X120181658Y-67398361D01*
X120181659Y-67398361D01*
X120181660Y-67398362D01*
X120187206Y-67400549D01*
X120322436Y-67453877D01*
X120410898Y-67464500D01*
X120410900Y-67464500D01*
X121182100Y-67464500D01*
X121204147Y-67471663D01*
X121227045Y-67475290D01*
X121232693Y-67480938D01*
X121240291Y-67483407D01*
X121253918Y-67502163D01*
X121270310Y-67518555D01*
X121271559Y-67526444D01*
X121276255Y-67532907D01*
X121276255Y-67556092D01*
X121279881Y-67578987D01*
X121276255Y-67586103D01*
X121276255Y-67594093D01*
X121252105Y-67633501D01*
X121251101Y-67634505D01*
X121196587Y-67662281D01*
X121181100Y-67663500D01*
X120410893Y-67663500D01*
X120322434Y-67674123D01*
X120181660Y-67729637D01*
X120181656Y-67729640D01*
X120061081Y-67821075D01*
X120061075Y-67821081D01*
X119969640Y-67941656D01*
X119969637Y-67941660D01*
X119914123Y-68082434D01*
X119903500Y-68170893D01*
X119903500Y-68170897D01*
X119903500Y-68170898D01*
X119903500Y-68957102D01*
X119905360Y-68972587D01*
X119914123Y-69045565D01*
X119969637Y-69186339D01*
X119969638Y-69186341D01*
X119969639Y-69186342D01*
X120061078Y-69306922D01*
X120181658Y-69398361D01*
X120181659Y-69398361D01*
X120181660Y-69398362D01*
X120238673Y-69420845D01*
X120322436Y-69453877D01*
X120410898Y-69464500D01*
X120410900Y-69464500D01*
X121397100Y-69464500D01*
X121397102Y-69464500D01*
X121485564Y-69453877D01*
X121626342Y-69398361D01*
X121746922Y-69306922D01*
X121838361Y-69186342D01*
X121893877Y-69045564D01*
X121904500Y-68957102D01*
X121904500Y-68170898D01*
X121904126Y-68167784D01*
X121915960Y-68107754D01*
X121932417Y-68085975D01*
X122123897Y-67894496D01*
X122178413Y-67866719D01*
X122193900Y-67865500D01*
X122394212Y-67865500D01*
X122452403Y-67884407D01*
X122488367Y-67933907D01*
X122488367Y-67995093D01*
X122486309Y-68000819D01*
X122454123Y-68082434D01*
X122443500Y-68170893D01*
X122443500Y-68170897D01*
X122443500Y-68170898D01*
X122443500Y-68957102D01*
X122445360Y-68972587D01*
X122454123Y-69045565D01*
X122509637Y-69186339D01*
X122509638Y-69186341D01*
X122509639Y-69186342D01*
X122601078Y-69306922D01*
X122721658Y-69398361D01*
X122721659Y-69398361D01*
X122721660Y-69398362D01*
X122778673Y-69420845D01*
X122862436Y-69453877D01*
X122950898Y-69464500D01*
X123737099Y-69464500D01*
X123795290Y-69483407D01*
X123807103Y-69493496D01*
X124434918Y-70121310D01*
X124434920Y-70121313D01*
X124509487Y-70195880D01*
X124509492Y-70195883D01*
X124600809Y-70248605D01*
X124600813Y-70248607D01*
X124702670Y-70275900D01*
X124702672Y-70275901D01*
X124702673Y-70275901D01*
X124814190Y-70275901D01*
X124814206Y-70275900D01*
X141200525Y-70275900D01*
X141200527Y-70275900D01*
X141302388Y-70248607D01*
X141302390Y-70248605D01*
X141302392Y-70248605D01*
X141393708Y-70195883D01*
X141393708Y-70195882D01*
X141393713Y-70195880D01*
X145025910Y-66563681D01*
X145025913Y-66563680D01*
X145100480Y-66489113D01*
X145153207Y-66397787D01*
X145180501Y-66295926D01*
X145180501Y-66190473D01*
X145180501Y-66184411D01*
X145180500Y-66184393D01*
X145180500Y-64705900D01*
X145199407Y-64647709D01*
X145248907Y-64611745D01*
X145310093Y-64611745D01*
X145349501Y-64635894D01*
X145983518Y-65269910D01*
X145983520Y-65269913D01*
X146058087Y-65344480D01*
X146108847Y-65373786D01*
X146149413Y-65397207D01*
X146251270Y-65424500D01*
X146251272Y-65424501D01*
X146251273Y-65424501D01*
X146362790Y-65424501D01*
X146362806Y-65424500D01*
X149327160Y-65424500D01*
X149385351Y-65443407D01*
X149418624Y-65485614D01*
X149434313Y-65523492D01*
X149546985Y-65692115D01*
X149549717Y-65696204D01*
X149696596Y-65843083D01*
X149869307Y-65958486D01*
X150061214Y-66037976D01*
X150264941Y-66078500D01*
X150264942Y-66078500D01*
X150472658Y-66078500D01*
X150472659Y-66078500D01*
X150676386Y-66037976D01*
X150868293Y-65958486D01*
X151041004Y-65843083D01*
X151187883Y-65696204D01*
X151303286Y-65523493D01*
X151382776Y-65331586D01*
X151423300Y-65127859D01*
X151423300Y-64920141D01*
X151382776Y-64716414D01*
X151314966Y-64552704D01*
X151303287Y-64524509D01*
X151303287Y-64524508D01*
X151187883Y-64351796D01*
X151041003Y-64204916D01*
X150868290Y-64089512D01*
X150676386Y-64010024D01*
X150472661Y-63969500D01*
X150472659Y-63969500D01*
X150264941Y-63969500D01*
X150264938Y-63969500D01*
X150061214Y-64010024D01*
X150061212Y-64010024D01*
X149869309Y-64089512D01*
X149869308Y-64089512D01*
X149696596Y-64204916D01*
X149549716Y-64351796D01*
X149434313Y-64524507D01*
X149418624Y-64562386D01*
X149378887Y-64608911D01*
X149327160Y-64623500D01*
X146510899Y-64623500D01*
X146452708Y-64604593D01*
X146440895Y-64594503D01*
X146022296Y-64175903D01*
X145994519Y-64121387D01*
X145993300Y-64105900D01*
X145993300Y-58914701D01*
X146012207Y-58856510D01*
X146061707Y-58820546D01*
X146122893Y-58820546D01*
X146162304Y-58844697D01*
X149348818Y-62031211D01*
X149376595Y-62085728D01*
X149370279Y-62139099D01*
X149354825Y-62176409D01*
X149354824Y-62176412D01*
X149314300Y-62380138D01*
X149314300Y-62587861D01*
X149338092Y-62707470D01*
X149354823Y-62791583D01*
X149354824Y-62791585D01*
X149354824Y-62791587D01*
X149434312Y-62983490D01*
X149434312Y-62983491D01*
X149549716Y-63156203D01*
X149549717Y-63156204D01*
X149696596Y-63303083D01*
X149869307Y-63418486D01*
X150061214Y-63497976D01*
X150264941Y-63538500D01*
X150264942Y-63538500D01*
X150472658Y-63538500D01*
X150472659Y-63538500D01*
X150676386Y-63497976D01*
X150868293Y-63418486D01*
X151041004Y-63303083D01*
X151187883Y-63156204D01*
X151303286Y-62983493D01*
X151382776Y-62791586D01*
X151423300Y-62587859D01*
X151423300Y-62380141D01*
X151382776Y-62176414D01*
X151303287Y-61984509D01*
X151303287Y-61984508D01*
X151187883Y-61811796D01*
X151041003Y-61664916D01*
X150868290Y-61549512D01*
X150676386Y-61470024D01*
X150472661Y-61429500D01*
X150472659Y-61429500D01*
X150264941Y-61429500D01*
X150264938Y-61429500D01*
X150061214Y-61470024D01*
X150061212Y-61470024D01*
X150022767Y-61485948D01*
X149961770Y-61490747D01*
X149914880Y-61464487D01*
X148290580Y-59840187D01*
X149314800Y-59840187D01*
X149314800Y-60047812D01*
X149355303Y-60251439D01*
X149434756Y-60443254D01*
X149523939Y-60576726D01*
X149925128Y-60175536D01*
X149968701Y-60251007D01*
X150061793Y-60344099D01*
X150137260Y-60387670D01*
X149736071Y-60788858D01*
X149869544Y-60878043D01*
X150061360Y-60957496D01*
X150264987Y-60997999D01*
X150264991Y-60998000D01*
X150472609Y-60998000D01*
X150472612Y-60997999D01*
X150676239Y-60957496D01*
X150868055Y-60878043D01*
X151001526Y-60788858D01*
X150600338Y-60387670D01*
X150675807Y-60344099D01*
X150768899Y-60251007D01*
X150812470Y-60175538D01*
X151213658Y-60576726D01*
X151302843Y-60443255D01*
X151382296Y-60251439D01*
X151422799Y-60047812D01*
X151422800Y-60047809D01*
X151422800Y-59840190D01*
X151422799Y-59840187D01*
X151382296Y-59636560D01*
X151302843Y-59444744D01*
X151213658Y-59311271D01*
X150812470Y-59712460D01*
X150768899Y-59636993D01*
X150675807Y-59543901D01*
X150600336Y-59500328D01*
X151001526Y-59099139D01*
X150868054Y-59009956D01*
X150676239Y-58930503D01*
X150472612Y-58890000D01*
X150264987Y-58890000D01*
X150061360Y-58930503D01*
X149869545Y-59009956D01*
X149869536Y-59009960D01*
X149736072Y-59099139D01*
X150137261Y-59500328D01*
X150061793Y-59543901D01*
X149968701Y-59636993D01*
X149925128Y-59712461D01*
X149523939Y-59311272D01*
X149434760Y-59444736D01*
X149434756Y-59444745D01*
X149355303Y-59636560D01*
X149314800Y-59840187D01*
X148290580Y-59840187D01*
X146682696Y-58232303D01*
X146654919Y-58177786D01*
X146653700Y-58162299D01*
X146653700Y-54088701D01*
X146672607Y-54030510D01*
X146722107Y-53994546D01*
X146783293Y-53994546D01*
X146822704Y-54018697D01*
X149486692Y-56682685D01*
X149514469Y-56737202D01*
X149504898Y-56797634D01*
X149499004Y-56807690D01*
X149434312Y-56904509D01*
X149354824Y-57096412D01*
X149354824Y-57096414D01*
X149314300Y-57300138D01*
X149314300Y-57507861D01*
X149330965Y-57591639D01*
X149354823Y-57711583D01*
X149354824Y-57711585D01*
X149354824Y-57711587D01*
X149434312Y-57903490D01*
X149434312Y-57903491D01*
X149549716Y-58076203D01*
X149549717Y-58076204D01*
X149696596Y-58223083D01*
X149869307Y-58338486D01*
X150061214Y-58417976D01*
X150264941Y-58458500D01*
X150264942Y-58458500D01*
X150472658Y-58458500D01*
X150472659Y-58458500D01*
X150676386Y-58417976D01*
X150868293Y-58338486D01*
X151041004Y-58223083D01*
X151187883Y-58076204D01*
X151303286Y-57903493D01*
X151382776Y-57711586D01*
X151423300Y-57507859D01*
X151423300Y-57300141D01*
X151382776Y-57096414D01*
X151303287Y-56904509D01*
X151303287Y-56904508D01*
X151187883Y-56731796D01*
X151041003Y-56584916D01*
X150868290Y-56469512D01*
X150676386Y-56390024D01*
X150472661Y-56349500D01*
X150472659Y-56349500D01*
X150327301Y-56349500D01*
X150269110Y-56330593D01*
X150257297Y-56320504D01*
X149984347Y-56047554D01*
X149956570Y-55993037D01*
X149966141Y-55932605D01*
X150009406Y-55889340D01*
X150069838Y-55879769D01*
X150073632Y-55880446D01*
X150264941Y-55918500D01*
X150264942Y-55918500D01*
X150472658Y-55918500D01*
X150472659Y-55918500D01*
X150676386Y-55877976D01*
X150868293Y-55798486D01*
X151041004Y-55683083D01*
X151187883Y-55536204D01*
X151303286Y-55363493D01*
X151382776Y-55171586D01*
X151423300Y-54967859D01*
X151423300Y-54760141D01*
X151382776Y-54556414D01*
X151303287Y-54364509D01*
X151303287Y-54364508D01*
X151187883Y-54191796D01*
X151041003Y-54044916D01*
X150868290Y-53929512D01*
X150676386Y-53850024D01*
X150472661Y-53809500D01*
X150472659Y-53809500D01*
X150264941Y-53809500D01*
X150264938Y-53809500D01*
X150061214Y-53850024D01*
X150061212Y-53850024D01*
X150022769Y-53865948D01*
X149961772Y-53870748D01*
X149914880Y-53844488D01*
X148971528Y-52901136D01*
X147972313Y-51901920D01*
X147972310Y-51901918D01*
X147972308Y-51901916D01*
X147880991Y-51849194D01*
X147880993Y-51849194D01*
X147841470Y-51838604D01*
X147779127Y-51821900D01*
X125138327Y-51821900D01*
X125032873Y-51821900D01*
X124970529Y-51838604D01*
X124931007Y-51849194D01*
X124839691Y-51901916D01*
X123807103Y-52934504D01*
X123752586Y-52962281D01*
X123737099Y-52963500D01*
X122950893Y-52963500D01*
X122862434Y-52974123D01*
X122721660Y-53029637D01*
X122721656Y-53029640D01*
X122601081Y-53121075D01*
X122601075Y-53121081D01*
X122509640Y-53241656D01*
X122509637Y-53241660D01*
X122454123Y-53382434D01*
X122443500Y-53470893D01*
X122443500Y-54257101D01*
X122443649Y-54259595D01*
X122428246Y-54318810D01*
X122380979Y-54357662D01*
X122344825Y-54364500D01*
X122011901Y-54364500D01*
X122004303Y-54362031D01*
X121996414Y-54363281D01*
X121975758Y-54352756D01*
X121953710Y-54345593D01*
X121941897Y-54335504D01*
X121932416Y-54326023D01*
X121904639Y-54271506D01*
X121904127Y-54244208D01*
X121904137Y-54244118D01*
X121904500Y-54241102D01*
X121904500Y-53454898D01*
X121893877Y-53366436D01*
X121855483Y-53269075D01*
X121838362Y-53225660D01*
X121838361Y-53225659D01*
X121838361Y-53225658D01*
X121746922Y-53105078D01*
X121626342Y-53013639D01*
X121626341Y-53013638D01*
X121626339Y-53013637D01*
X121485565Y-52958123D01*
X121397106Y-52947500D01*
X121397102Y-52947500D01*
X120410898Y-52947500D01*
X120410893Y-52947500D01*
X120322434Y-52958123D01*
X120181660Y-53013637D01*
X120181656Y-53013640D01*
X120061081Y-53105075D01*
X120061075Y-53105081D01*
X119969640Y-53225656D01*
X119969637Y-53225660D01*
X119914123Y-53366434D01*
X119903500Y-53454893D01*
X119903500Y-54241106D01*
X119914123Y-54329565D01*
X119969637Y-54470339D01*
X119969638Y-54470341D01*
X119969639Y-54470342D01*
X120061078Y-54590922D01*
X120181658Y-54682361D01*
X120181659Y-54682361D01*
X120181660Y-54682362D01*
X120227772Y-54700546D01*
X120322436Y-54737877D01*
X120410898Y-54748500D01*
X121181099Y-54748500D01*
X121188696Y-54750968D01*
X121196586Y-54749719D01*
X121217241Y-54760243D01*
X121239290Y-54767407D01*
X121251103Y-54777496D01*
X121252103Y-54778496D01*
X121279880Y-54833013D01*
X121270309Y-54893445D01*
X121227044Y-54936710D01*
X121182099Y-54947500D01*
X120410893Y-54947500D01*
X120322434Y-54958123D01*
X120181660Y-55013637D01*
X120181656Y-55013640D01*
X120061081Y-55105075D01*
X120061075Y-55105081D01*
X119969640Y-55225656D01*
X119969637Y-55225660D01*
X119914123Y-55366434D01*
X119903500Y-55454893D01*
X119903500Y-56241106D01*
X119914123Y-56329565D01*
X119969637Y-56470339D01*
X119969638Y-56470341D01*
X119969639Y-56470342D01*
X120061078Y-56590922D01*
X120181658Y-56682361D01*
X120181659Y-56682361D01*
X120181660Y-56682362D01*
X120222226Y-56698359D01*
X120322436Y-56737877D01*
X120395635Y-56746667D01*
X120413836Y-56748853D01*
X120413724Y-56749778D01*
X120467350Y-56770803D01*
X120500307Y-56822354D01*
X120503500Y-56847294D01*
X120503500Y-57070500D01*
X120484593Y-57128691D01*
X120435093Y-57164655D01*
X120404500Y-57169500D01*
X120245510Y-57169500D01*
X120145874Y-57185281D01*
X120145867Y-57185283D01*
X120025782Y-57246470D01*
X120025777Y-57246473D01*
X119992947Y-57279304D01*
X119938430Y-57307081D01*
X119922944Y-57308300D01*
X119688501Y-57308300D01*
X119630310Y-57289393D01*
X119618497Y-57279304D01*
X116309119Y-53969926D01*
X116281342Y-53915409D01*
X116290913Y-53854977D01*
X116299459Y-53841146D01*
X116352793Y-53768882D01*
X116397646Y-53640699D01*
X116400499Y-53610273D01*
X116400500Y-53610273D01*
X116400500Y-53201727D01*
X116400499Y-53201725D01*
X116397646Y-53171305D01*
X116397646Y-53171301D01*
X116352793Y-53043118D01*
X116346648Y-53034792D01*
X116272154Y-52933855D01*
X116272152Y-52933853D01*
X116272150Y-52933850D01*
X116272146Y-52933847D01*
X116272144Y-52933845D01*
X116162883Y-52853207D01*
X116034703Y-52808355D01*
X116034694Y-52808353D01*
X116004274Y-52805500D01*
X116004266Y-52805500D01*
X114870734Y-52805500D01*
X114870725Y-52805500D01*
X114840305Y-52808353D01*
X114840296Y-52808355D01*
X114712116Y-52853207D01*
X114602855Y-52933845D01*
X114602845Y-52933855D01*
X114522207Y-53043116D01*
X114477355Y-53171296D01*
X114477353Y-53171305D01*
X114474500Y-53201725D01*
X114474500Y-53610274D01*
X114477353Y-53640694D01*
X114477355Y-53640703D01*
X114522207Y-53768883D01*
X114602845Y-53878144D01*
X114602847Y-53878146D01*
X114602850Y-53878150D01*
X114602853Y-53878152D01*
X114602855Y-53878154D01*
X114712116Y-53958792D01*
X114712117Y-53958792D01*
X114712118Y-53958793D01*
X114840301Y-54003646D01*
X114870725Y-54006499D01*
X114870727Y-54006500D01*
X114870734Y-54006500D01*
X115171899Y-54006500D01*
X115230090Y-54025407D01*
X115241903Y-54035496D01*
X115742903Y-54536496D01*
X115770680Y-54591013D01*
X115761109Y-54651445D01*
X115717844Y-54694710D01*
X115672899Y-54705500D01*
X114870725Y-54705500D01*
X114840305Y-54708353D01*
X114840296Y-54708355D01*
X114712116Y-54753207D01*
X114602855Y-54833845D01*
X114602845Y-54833855D01*
X114522207Y-54943116D01*
X114477355Y-55071296D01*
X114477353Y-55071305D01*
X114474500Y-55101725D01*
X114474500Y-55510274D01*
X114477353Y-55540694D01*
X114477355Y-55540703D01*
X114522207Y-55668883D01*
X114602845Y-55778144D01*
X114602847Y-55778146D01*
X114602850Y-55778150D01*
X114602853Y-55778152D01*
X114602855Y-55778154D01*
X114712116Y-55858792D01*
X114712117Y-55858792D01*
X114712118Y-55858793D01*
X114840301Y-55903646D01*
X114870725Y-55906499D01*
X114870727Y-55906500D01*
X114870734Y-55906500D01*
X114938000Y-55906500D01*
X114996191Y-55925407D01*
X115032155Y-55974907D01*
X115037000Y-56005500D01*
X115037000Y-57775799D01*
X115018093Y-57833990D01*
X115008004Y-57845802D01*
X114843120Y-58010686D01*
X114843116Y-58010691D01*
X114790395Y-58102006D01*
X114790393Y-58102010D01*
X114790393Y-58102012D01*
X114781823Y-58133996D01*
X114771175Y-58173737D01*
X114763100Y-58203873D01*
X114763100Y-65506500D01*
X114744193Y-65564691D01*
X114694693Y-65600655D01*
X114664100Y-65605500D01*
X113261500Y-65605500D01*
X113203309Y-65586593D01*
X113167345Y-65537093D01*
X113162500Y-65506500D01*
X113162500Y-65200727D01*
X113162499Y-65200725D01*
X113162293Y-65198524D01*
X113159646Y-65170301D01*
X113114793Y-65042118D01*
X113112705Y-65039289D01*
X113034154Y-64932855D01*
X113034152Y-64932853D01*
X113034150Y-64932850D01*
X113034146Y-64932847D01*
X113034144Y-64932845D01*
X112921425Y-64849655D01*
X112885832Y-64799888D01*
X112886290Y-64738704D01*
X112921425Y-64690345D01*
X113012137Y-64623396D01*
X113034150Y-64607150D01*
X113114793Y-64497882D01*
X113159646Y-64369699D01*
X113159646Y-64369689D01*
X113160931Y-64363815D01*
X113163529Y-64364382D01*
X113183449Y-64318228D01*
X113187754Y-64313637D01*
X113706080Y-63795312D01*
X113709704Y-63789035D01*
X113758805Y-63703991D01*
X113758805Y-63703989D01*
X113758807Y-63703987D01*
X113786100Y-63602126D01*
X113786100Y-63496672D01*
X113786100Y-55964651D01*
X113805007Y-55906460D01*
X113852403Y-55871207D01*
X113887882Y-55858793D01*
X113997150Y-55778150D01*
X114077793Y-55668882D01*
X114122646Y-55540699D01*
X114125499Y-55510273D01*
X114125500Y-55510273D01*
X114125500Y-55101727D01*
X114125499Y-55101725D01*
X114123976Y-55085483D01*
X114122646Y-55071301D01*
X114077793Y-54943118D01*
X114038434Y-54889788D01*
X114019092Y-54831741D01*
X114037563Y-54773410D01*
X114038434Y-54772212D01*
X114077792Y-54718883D01*
X114077791Y-54718883D01*
X114077793Y-54718882D01*
X114122646Y-54590699D01*
X114125499Y-54560273D01*
X114125500Y-54560273D01*
X114125500Y-54151727D01*
X114125499Y-54151725D01*
X114122646Y-54121305D01*
X114122646Y-54121301D01*
X114077793Y-53993118D01*
X114060677Y-53969926D01*
X114038123Y-53939366D01*
X114018781Y-53881318D01*
X114037252Y-53822988D01*
X114038124Y-53821788D01*
X114077344Y-53768647D01*
X114122149Y-53640601D01*
X114124999Y-53610211D01*
X114125000Y-53610210D01*
X114125000Y-53556001D01*
X114124999Y-53556000D01*
X113261500Y-53556000D01*
X113203309Y-53537093D01*
X113167345Y-53487593D01*
X113162500Y-53457000D01*
X113162500Y-53406001D01*
X113162499Y-53406000D01*
X113111500Y-53406000D01*
X113053309Y-53387093D01*
X113017345Y-53337593D01*
X113012500Y-53307000D01*
X113012500Y-52806001D01*
X113312500Y-52806001D01*
X113312500Y-53255999D01*
X113312501Y-53256000D01*
X114124998Y-53256000D01*
X114124999Y-53255999D01*
X114124999Y-53201796D01*
X114122149Y-53171399D01*
X114122149Y-53171397D01*
X114077345Y-53043352D01*
X113996792Y-52934209D01*
X113996790Y-52934207D01*
X113887647Y-52853654D01*
X113759601Y-52808850D01*
X113729211Y-52806000D01*
X113312501Y-52806000D01*
X113312500Y-52806001D01*
X113012500Y-52806001D01*
X113012499Y-52806000D01*
X112595796Y-52806000D01*
X112565399Y-52808850D01*
X112565397Y-52808850D01*
X112437350Y-52853655D01*
X112373017Y-52901136D01*
X112314969Y-52920478D01*
X112256639Y-52902007D01*
X112228493Y-52870981D01*
X112207483Y-52834591D01*
X112207481Y-52834589D01*
X112207480Y-52834587D01*
X111732013Y-52359120D01*
X111732010Y-52359118D01*
X111732008Y-52359116D01*
X111640691Y-52306394D01*
X111640693Y-52306394D01*
X111601170Y-52295804D01*
X111538827Y-52279100D01*
X105154073Y-52279100D01*
X105052213Y-52306393D01*
X105052212Y-52306393D01*
X105052210Y-52306394D01*
X105052209Y-52306394D01*
X104960889Y-52359118D01*
X103362316Y-53957691D01*
X103309594Y-54049008D01*
X103309593Y-54049011D01*
X103305710Y-54063498D01*
X103305711Y-54063499D01*
X103282300Y-54150873D01*
X102108000Y-54150873D01*
X102108000Y-51407000D01*
X102126907Y-51348809D01*
X102176407Y-51312845D01*
X102207000Y-51308000D01*
X151793000Y-51308000D01*
X151851191Y-51326907D01*
G37*
%TD.AperFunction*%
%TD*%
M02*
