%TF.GenerationSoftware,KiCad,Pcbnew,9.0.6-9.0.6~ubuntu24.04.1*%
%TF.CreationDate,2026-01-18T13:35:56-03:00*%
%TF.ProjectId,cotti_7seg,636f7474-695f-4377-9365-672e6b696361,0.0*%
%TF.SameCoordinates,Original*%
%TF.FileFunction,Legend,Top*%
%TF.FilePolarity,Positive*%
%FSLAX46Y46*%
G04 Gerber Fmt 4.6, Leading zero omitted, Abs format (unit mm)*
G04 Created by KiCad (PCBNEW 9.0.6-9.0.6~ubuntu24.04.1) date 2026-01-18 13:35:56*
%MOMM*%
%LPD*%
G01*
G04 APERTURE LIST*
%ADD10C,0.150000*%
%ADD11C,0.120000*%
%ADD12C,0.200000*%
%ADD13C,0.400000*%
%ADD14C,0.100000*%
G04 APERTURE END LIST*
D10*
X109556779Y-55241819D02*
X109556779Y-54241819D01*
X109556779Y-54241819D02*
X109794874Y-54241819D01*
X109794874Y-54241819D02*
X109937731Y-54289438D01*
X109937731Y-54289438D02*
X110032969Y-54384676D01*
X110032969Y-54384676D02*
X110080588Y-54479914D01*
X110080588Y-54479914D02*
X110128207Y-54670390D01*
X110128207Y-54670390D02*
X110128207Y-54813247D01*
X110128207Y-54813247D02*
X110080588Y-55003723D01*
X110080588Y-55003723D02*
X110032969Y-55098961D01*
X110032969Y-55098961D02*
X109937731Y-55194200D01*
X109937731Y-55194200D02*
X109794874Y-55241819D01*
X109794874Y-55241819D02*
X109556779Y-55241819D01*
X110747255Y-54241819D02*
X110842493Y-54241819D01*
X110842493Y-54241819D02*
X110937731Y-54289438D01*
X110937731Y-54289438D02*
X110985350Y-54337057D01*
X110985350Y-54337057D02*
X111032969Y-54432295D01*
X111032969Y-54432295D02*
X111080588Y-54622771D01*
X111080588Y-54622771D02*
X111080588Y-54860866D01*
X111080588Y-54860866D02*
X111032969Y-55051342D01*
X111032969Y-55051342D02*
X110985350Y-55146580D01*
X110985350Y-55146580D02*
X110937731Y-55194200D01*
X110937731Y-55194200D02*
X110842493Y-55241819D01*
X110842493Y-55241819D02*
X110747255Y-55241819D01*
X110747255Y-55241819D02*
X110652017Y-55194200D01*
X110652017Y-55194200D02*
X110604398Y-55146580D01*
X110604398Y-55146580D02*
X110556779Y-55051342D01*
X110556779Y-55051342D02*
X110509160Y-54860866D01*
X110509160Y-54860866D02*
X110509160Y-54622771D01*
X110509160Y-54622771D02*
X110556779Y-54432295D01*
X110556779Y-54432295D02*
X110604398Y-54337057D01*
X110604398Y-54337057D02*
X110652017Y-54289438D01*
X110652017Y-54289438D02*
X110747255Y-54241819D01*
X109556779Y-62861819D02*
X109556779Y-61861819D01*
X109556779Y-61861819D02*
X109794874Y-61861819D01*
X109794874Y-61861819D02*
X109937731Y-61909438D01*
X109937731Y-61909438D02*
X110032969Y-62004676D01*
X110032969Y-62004676D02*
X110080588Y-62099914D01*
X110080588Y-62099914D02*
X110128207Y-62290390D01*
X110128207Y-62290390D02*
X110128207Y-62433247D01*
X110128207Y-62433247D02*
X110080588Y-62623723D01*
X110080588Y-62623723D02*
X110032969Y-62718961D01*
X110032969Y-62718961D02*
X109937731Y-62814200D01*
X109937731Y-62814200D02*
X109794874Y-62861819D01*
X109794874Y-62861819D02*
X109556779Y-62861819D01*
X110461541Y-61861819D02*
X111080588Y-61861819D01*
X111080588Y-61861819D02*
X110747255Y-62242771D01*
X110747255Y-62242771D02*
X110890112Y-62242771D01*
X110890112Y-62242771D02*
X110985350Y-62290390D01*
X110985350Y-62290390D02*
X111032969Y-62338009D01*
X111032969Y-62338009D02*
X111080588Y-62433247D01*
X111080588Y-62433247D02*
X111080588Y-62671342D01*
X111080588Y-62671342D02*
X111032969Y-62766580D01*
X111032969Y-62766580D02*
X110985350Y-62814200D01*
X110985350Y-62814200D02*
X110890112Y-62861819D01*
X110890112Y-62861819D02*
X110604398Y-62861819D01*
X110604398Y-62861819D02*
X110509160Y-62814200D01*
X110509160Y-62814200D02*
X110461541Y-62766580D01*
G36*
X145839001Y-69162410D02*
G01*
X145869408Y-69192817D01*
X145903666Y-69261333D01*
X145903666Y-69511637D01*
X145869407Y-69580153D01*
X145839000Y-69610561D01*
X145770485Y-69644819D01*
X145615419Y-69644819D01*
X145577476Y-69625847D01*
X145577476Y-69147123D01*
X145615419Y-69128152D01*
X145770485Y-69128152D01*
X145839001Y-69162410D01*
G37*
G36*
X146100906Y-67552466D02*
G01*
X146131313Y-67582873D01*
X146165571Y-67651389D01*
X146165571Y-67901693D01*
X146131312Y-67970209D01*
X146100905Y-68000617D01*
X146032390Y-68034875D01*
X145877324Y-68034875D01*
X145839381Y-68015903D01*
X145839381Y-67537179D01*
X145877324Y-67518208D01*
X146032390Y-67518208D01*
X146100906Y-67552466D01*
G37*
G36*
X145196144Y-67552466D02*
G01*
X145226551Y-67582873D01*
X145260809Y-67651389D01*
X145260809Y-67901693D01*
X145226550Y-67970209D01*
X145196143Y-68000617D01*
X145127628Y-68034875D01*
X145020181Y-68034875D01*
X144951665Y-68000617D01*
X144921258Y-67970209D01*
X144887000Y-67901693D01*
X144887000Y-67651389D01*
X144921258Y-67582873D01*
X144951665Y-67552466D01*
X145020181Y-67518208D01*
X145127628Y-67518208D01*
X145196144Y-67552466D01*
G37*
G36*
X148386621Y-67552466D02*
G01*
X148417028Y-67582873D01*
X148451286Y-67651389D01*
X148451286Y-67901693D01*
X148417027Y-67970209D01*
X148386620Y-68000617D01*
X148318105Y-68034875D01*
X148210658Y-68034875D01*
X148142142Y-68000617D01*
X148111735Y-67970209D01*
X148077477Y-67901693D01*
X148077477Y-67651389D01*
X148111735Y-67582873D01*
X148142142Y-67552466D01*
X148210658Y-67518208D01*
X148318105Y-67518208D01*
X148386621Y-67552466D01*
G37*
G36*
X149807383Y-70237822D02*
G01*
X143770187Y-70237822D01*
X143770187Y-69053152D01*
X145427476Y-69053152D01*
X145427476Y-70053152D01*
X145428917Y-70067784D01*
X145440116Y-70094820D01*
X145460808Y-70115512D01*
X145487844Y-70126711D01*
X145517108Y-70126711D01*
X145544144Y-70115512D01*
X145564836Y-70094820D01*
X145576035Y-70067784D01*
X145577476Y-70053152D01*
X145577476Y-69791992D01*
X145577904Y-69792156D01*
X145580593Y-69792347D01*
X145583082Y-69793378D01*
X145597714Y-69794819D01*
X145788190Y-69794819D01*
X145802822Y-69793378D01*
X145805311Y-69792346D01*
X145807999Y-69792156D01*
X145821731Y-69786901D01*
X145916969Y-69739282D01*
X145923268Y-69735317D01*
X145925096Y-69734560D01*
X145927152Y-69732872D01*
X145929412Y-69731450D01*
X145930712Y-69729950D01*
X145936462Y-69725232D01*
X145984080Y-69677613D01*
X145988798Y-69671863D01*
X145990297Y-69670564D01*
X145991718Y-69668305D01*
X145993408Y-69666247D01*
X145994165Y-69664417D01*
X145998129Y-69658121D01*
X146045748Y-69562883D01*
X146051003Y-69549152D01*
X146051194Y-69546462D01*
X146052225Y-69543974D01*
X146053666Y-69529342D01*
X146053666Y-69243628D01*
X146052225Y-69228996D01*
X146051194Y-69226507D01*
X146051003Y-69223818D01*
X146045748Y-69210087D01*
X145998129Y-69114849D01*
X145994164Y-69108549D01*
X145993407Y-69106722D01*
X145991718Y-69104665D01*
X145990297Y-69102406D01*
X145988798Y-69101106D01*
X145984080Y-69095357D01*
X145941875Y-69053152D01*
X146332238Y-69053152D01*
X146332238Y-69719819D01*
X146333679Y-69734451D01*
X146344878Y-69761487D01*
X146365570Y-69782179D01*
X146392606Y-69793378D01*
X146421870Y-69793378D01*
X146448906Y-69782179D01*
X146469598Y-69761487D01*
X146480797Y-69734451D01*
X146482238Y-69719819D01*
X146482238Y-69053152D01*
X146808428Y-69053152D01*
X146808428Y-69719819D01*
X146809869Y-69734451D01*
X146821068Y-69761487D01*
X146841760Y-69782179D01*
X146868796Y-69793378D01*
X146898060Y-69793378D01*
X146925096Y-69782179D01*
X146945788Y-69761487D01*
X146956987Y-69734451D01*
X146958428Y-69719819D01*
X146958428Y-69179456D01*
X146975474Y-69162410D01*
X147043990Y-69128152D01*
X147151437Y-69128152D01*
X147208478Y-69156672D01*
X147236999Y-69213714D01*
X147236999Y-69719819D01*
X147238440Y-69734451D01*
X147249639Y-69761487D01*
X147270331Y-69782179D01*
X147297367Y-69793378D01*
X147326631Y-69793378D01*
X147353667Y-69782179D01*
X147374359Y-69761487D01*
X147385558Y-69734451D01*
X147386999Y-69719819D01*
X147386999Y-69196009D01*
X147665571Y-69196009D01*
X147665571Y-69243628D01*
X147667012Y-69258260D01*
X147668043Y-69260749D01*
X147668234Y-69263437D01*
X147673489Y-69277169D01*
X147721108Y-69372407D01*
X147722648Y-69374854D01*
X147723033Y-69376008D01*
X147724278Y-69377444D01*
X147728940Y-69384850D01*
X147736044Y-69391011D01*
X147742206Y-69398116D01*
X147749611Y-69402777D01*
X147751048Y-69404023D01*
X147752201Y-69404407D01*
X147754649Y-69405948D01*
X147849887Y-69453567D01*
X147863618Y-69458822D01*
X147866307Y-69459013D01*
X147868796Y-69460044D01*
X147883428Y-69461485D01*
X148008580Y-69461485D01*
X148065621Y-69490005D01*
X148094142Y-69547047D01*
X148094142Y-69559256D01*
X148065621Y-69616298D01*
X148008580Y-69644819D01*
X147853514Y-69644819D01*
X147774112Y-69605118D01*
X147760380Y-69599863D01*
X147731190Y-69597789D01*
X147703429Y-69607043D01*
X147681321Y-69626216D01*
X147668234Y-69652391D01*
X147666160Y-69681581D01*
X147675414Y-69709342D01*
X147694587Y-69731450D01*
X147707030Y-69739282D01*
X147802268Y-69786901D01*
X147815999Y-69792156D01*
X147818688Y-69792347D01*
X147821177Y-69793378D01*
X147835809Y-69794819D01*
X148026285Y-69794819D01*
X148040917Y-69793378D01*
X148043406Y-69792346D01*
X148046094Y-69792156D01*
X148059826Y-69786901D01*
X148155064Y-69739282D01*
X148157511Y-69737741D01*
X148158665Y-69737357D01*
X148160101Y-69736111D01*
X148167507Y-69731450D01*
X148173668Y-69724345D01*
X148180773Y-69718184D01*
X148185434Y-69710778D01*
X148186680Y-69709342D01*
X148187064Y-69708188D01*
X148188605Y-69705741D01*
X148236224Y-69610502D01*
X148241479Y-69596770D01*
X148241669Y-69594082D01*
X148242701Y-69591593D01*
X148244142Y-69576961D01*
X148244142Y-69529342D01*
X148242701Y-69514710D01*
X148241670Y-69512221D01*
X148241479Y-69509532D01*
X148236224Y-69495801D01*
X148188605Y-69400563D01*
X148187064Y-69398115D01*
X148186680Y-69396962D01*
X148185434Y-69395525D01*
X148180773Y-69388120D01*
X148173668Y-69381958D01*
X148167507Y-69374854D01*
X148160101Y-69370192D01*
X148158665Y-69368947D01*
X148157511Y-69368562D01*
X148155064Y-69367022D01*
X148059826Y-69319403D01*
X148046094Y-69314148D01*
X148043406Y-69313957D01*
X148040917Y-69312926D01*
X148026285Y-69311485D01*
X147901133Y-69311485D01*
X147844091Y-69282964D01*
X147815571Y-69225923D01*
X147815571Y-69213714D01*
X147844091Y-69156672D01*
X147901133Y-69128152D01*
X148008580Y-69128152D01*
X148087982Y-69167853D01*
X148101713Y-69173108D01*
X148130903Y-69175182D01*
X148158665Y-69165928D01*
X148180772Y-69146755D01*
X148193860Y-69120580D01*
X148195934Y-69091390D01*
X148186680Y-69063629D01*
X148167507Y-69041521D01*
X148155064Y-69033689D01*
X148059826Y-68986070D01*
X148046094Y-68980815D01*
X148043406Y-68980624D01*
X148040917Y-68979593D01*
X148026285Y-68978152D01*
X147883428Y-68978152D01*
X147868796Y-68979593D01*
X147866307Y-68980623D01*
X147863618Y-68980815D01*
X147849887Y-68986070D01*
X147754649Y-69033689D01*
X147752201Y-69035229D01*
X147751048Y-69035614D01*
X147749611Y-69036859D01*
X147742206Y-69041521D01*
X147736044Y-69048625D01*
X147728940Y-69054787D01*
X147724278Y-69062192D01*
X147723033Y-69063629D01*
X147722648Y-69064782D01*
X147721108Y-69067230D01*
X147673489Y-69162468D01*
X147668234Y-69176200D01*
X147668043Y-69178887D01*
X147667012Y-69181377D01*
X147665571Y-69196009D01*
X147386999Y-69196009D01*
X147385558Y-69181377D01*
X147384527Y-69178888D01*
X147384336Y-69176199D01*
X147379081Y-69162468D01*
X147331462Y-69067230D01*
X147329921Y-69064782D01*
X147329537Y-69063629D01*
X147328291Y-69062192D01*
X147323630Y-69054787D01*
X147316525Y-69048625D01*
X147310364Y-69041521D01*
X147302958Y-69036859D01*
X147301522Y-69035614D01*
X147300368Y-69035229D01*
X147297921Y-69033689D01*
X147202683Y-68986070D01*
X147188951Y-68980815D01*
X147186263Y-68980624D01*
X147183774Y-68979593D01*
X147169142Y-68978152D01*
X147026285Y-68978152D01*
X147011653Y-68979593D01*
X147009164Y-68980623D01*
X147006475Y-68980815D01*
X146992744Y-68986070D01*
X146944497Y-69010193D01*
X146925096Y-68990792D01*
X146898060Y-68979593D01*
X146868796Y-68979593D01*
X146841760Y-68990792D01*
X146821068Y-69011484D01*
X146809869Y-69038520D01*
X146808428Y-69053152D01*
X146482238Y-69053152D01*
X146480797Y-69038520D01*
X146469598Y-69011484D01*
X146448906Y-68990792D01*
X146421870Y-68979593D01*
X146392606Y-68979593D01*
X146365570Y-68990792D01*
X146344878Y-69011484D01*
X146333679Y-69038520D01*
X146332238Y-69053152D01*
X145941875Y-69053152D01*
X145936461Y-69047738D01*
X145930711Y-69043019D01*
X145929412Y-69041521D01*
X145927152Y-69040099D01*
X145925096Y-69038411D01*
X145923268Y-69037653D01*
X145916969Y-69033689D01*
X145821731Y-68986070D01*
X145807999Y-68980815D01*
X145805311Y-68980624D01*
X145802822Y-68979593D01*
X145788190Y-68978152D01*
X145597714Y-68978152D01*
X145583082Y-68979593D01*
X145580593Y-68980623D01*
X145577904Y-68980815D01*
X145564173Y-68986070D01*
X145547672Y-68994320D01*
X145544144Y-68990792D01*
X145517108Y-68979593D01*
X145487844Y-68979593D01*
X145460808Y-68990792D01*
X145440116Y-69011484D01*
X145428917Y-69038520D01*
X145427476Y-69053152D01*
X143770187Y-69053152D01*
X143770187Y-68752807D01*
X146286060Y-68752807D01*
X146286060Y-68782069D01*
X146297259Y-68809106D01*
X146306586Y-68820471D01*
X146354205Y-68868090D01*
X146365570Y-68877417D01*
X146392606Y-68888616D01*
X146392607Y-68888616D01*
X146421869Y-68888616D01*
X146421870Y-68888616D01*
X146448906Y-68877417D01*
X146460271Y-68868090D01*
X146507890Y-68820471D01*
X146517217Y-68809106D01*
X146528416Y-68782070D01*
X146528416Y-68752807D01*
X146520813Y-68734451D01*
X146517217Y-68725770D01*
X146507890Y-68714405D01*
X146460271Y-68666786D01*
X146448906Y-68657459D01*
X146421870Y-68646260D01*
X146421869Y-68646260D01*
X146392606Y-68646260D01*
X146365570Y-68657459D01*
X146354205Y-68666786D01*
X146306586Y-68714405D01*
X146297259Y-68725770D01*
X146286060Y-68752807D01*
X143770187Y-68752807D01*
X143770187Y-67095243D01*
X143881298Y-67095243D01*
X143881298Y-67124507D01*
X143892497Y-67151543D01*
X143913189Y-67172235D01*
X143940225Y-67183434D01*
X143954857Y-67184875D01*
X144165571Y-67184875D01*
X144165571Y-68109875D01*
X144167012Y-68124507D01*
X144178211Y-68151543D01*
X144198903Y-68172235D01*
X144225939Y-68183434D01*
X144255203Y-68183434D01*
X144282239Y-68172235D01*
X144302931Y-68151543D01*
X144314130Y-68124507D01*
X144315571Y-68109875D01*
X144315571Y-67633684D01*
X144737000Y-67633684D01*
X144737000Y-67919398D01*
X144738441Y-67934030D01*
X144739472Y-67936519D01*
X144739663Y-67939207D01*
X144744918Y-67952939D01*
X144792537Y-68048177D01*
X144796500Y-68054473D01*
X144797258Y-68056303D01*
X144798947Y-68058361D01*
X144800369Y-68060620D01*
X144801867Y-68061919D01*
X144806585Y-68067668D01*
X144854204Y-68115288D01*
X144859953Y-68120006D01*
X144861254Y-68121506D01*
X144863513Y-68122928D01*
X144865570Y-68124616D01*
X144867397Y-68125373D01*
X144873697Y-68129338D01*
X144968935Y-68176957D01*
X144982666Y-68182212D01*
X144985355Y-68182403D01*
X144987844Y-68183434D01*
X145002476Y-68184875D01*
X145145333Y-68184875D01*
X145159965Y-68183434D01*
X145162454Y-68182402D01*
X145165142Y-68182212D01*
X145178874Y-68176957D01*
X145274112Y-68129338D01*
X145280411Y-68125373D01*
X145282239Y-68124616D01*
X145284295Y-68122928D01*
X145286555Y-68121506D01*
X145287855Y-68120006D01*
X145293605Y-68115288D01*
X145341223Y-68067669D01*
X145345941Y-68061919D01*
X145347440Y-68060620D01*
X145348861Y-68058361D01*
X145350551Y-68056303D01*
X145351308Y-68054473D01*
X145355272Y-68048177D01*
X145402891Y-67952939D01*
X145408146Y-67939208D01*
X145408337Y-67936518D01*
X145409368Y-67934030D01*
X145410809Y-67919398D01*
X145410809Y-67633684D01*
X145409368Y-67619052D01*
X145408337Y-67616563D01*
X145408146Y-67613874D01*
X145402891Y-67600143D01*
X145355272Y-67504905D01*
X145351307Y-67498605D01*
X145350550Y-67496778D01*
X145348861Y-67494721D01*
X145347440Y-67492462D01*
X145345941Y-67491162D01*
X145341223Y-67485413D01*
X145299018Y-67443208D01*
X145689381Y-67443208D01*
X145689381Y-68443208D01*
X145690822Y-68457840D01*
X145702021Y-68484876D01*
X145722713Y-68505568D01*
X145749749Y-68516767D01*
X145779013Y-68516767D01*
X145806049Y-68505568D01*
X145826741Y-68484876D01*
X145837940Y-68457840D01*
X145839381Y-68443208D01*
X145839381Y-68182048D01*
X145839809Y-68182212D01*
X145842498Y-68182403D01*
X145844987Y-68183434D01*
X145859619Y-68184875D01*
X146050095Y-68184875D01*
X146064727Y-68183434D01*
X146067216Y-68182402D01*
X146069904Y-68182212D01*
X146083636Y-68176957D01*
X146178874Y-68129338D01*
X146185173Y-68125373D01*
X146187001Y-68124616D01*
X146189057Y-68122928D01*
X146191317Y-68121506D01*
X146192617Y-68120006D01*
X146198367Y-68115288D01*
X146245985Y-68067669D01*
X146250703Y-68061919D01*
X146252202Y-68060620D01*
X146253623Y-68058361D01*
X146255313Y-68056303D01*
X146256070Y-68054473D01*
X146260034Y-68048177D01*
X146307653Y-67952939D01*
X146312908Y-67939208D01*
X146313099Y-67936518D01*
X146314130Y-67934030D01*
X146315571Y-67919398D01*
X146315571Y-67633684D01*
X146314130Y-67619052D01*
X146313099Y-67616563D01*
X146312908Y-67613874D01*
X146307653Y-67600143D01*
X146260034Y-67504905D01*
X146256069Y-67498605D01*
X146255312Y-67496778D01*
X146253623Y-67494721D01*
X146252202Y-67492462D01*
X146250703Y-67491162D01*
X146245985Y-67485413D01*
X146203780Y-67443208D01*
X147356048Y-67443208D01*
X147356048Y-68109875D01*
X147357489Y-68124507D01*
X147368688Y-68151543D01*
X147389380Y-68172235D01*
X147416416Y-68183434D01*
X147445680Y-68183434D01*
X147472716Y-68172235D01*
X147493408Y-68151543D01*
X147504607Y-68124507D01*
X147506048Y-68109875D01*
X147506048Y-67651389D01*
X147514901Y-67633684D01*
X147927477Y-67633684D01*
X147927477Y-67919398D01*
X147928918Y-67934030D01*
X147929949Y-67936519D01*
X147930140Y-67939207D01*
X147935395Y-67952939D01*
X147983014Y-68048177D01*
X147986977Y-68054473D01*
X147987735Y-68056303D01*
X147989424Y-68058361D01*
X147990846Y-68060620D01*
X147992344Y-68061919D01*
X147997062Y-68067668D01*
X148044681Y-68115288D01*
X148050430Y-68120006D01*
X148051731Y-68121506D01*
X148053990Y-68122928D01*
X148056047Y-68124616D01*
X148057874Y-68125373D01*
X148064174Y-68129338D01*
X148159412Y-68176957D01*
X148173143Y-68182212D01*
X148175832Y-68182403D01*
X148178321Y-68183434D01*
X148192953Y-68184875D01*
X148335810Y-68184875D01*
X148350442Y-68183434D01*
X148352931Y-68182402D01*
X148355619Y-68182212D01*
X148369351Y-68176957D01*
X148464589Y-68129338D01*
X148470888Y-68125373D01*
X148472716Y-68124616D01*
X148474772Y-68122928D01*
X148477032Y-68121506D01*
X148478332Y-68120006D01*
X148484082Y-68115288D01*
X148531700Y-68067669D01*
X148536418Y-68061919D01*
X148537917Y-68060620D01*
X148539338Y-68058361D01*
X148541028Y-68056303D01*
X148541785Y-68054473D01*
X148545749Y-68048177D01*
X148593368Y-67952939D01*
X148598623Y-67939208D01*
X148598814Y-67936518D01*
X148599845Y-67934030D01*
X148601286Y-67919398D01*
X148601286Y-67633684D01*
X148599845Y-67619052D01*
X148598814Y-67616563D01*
X148598623Y-67613874D01*
X148593368Y-67600143D01*
X148545749Y-67504905D01*
X148541784Y-67498605D01*
X148541027Y-67496778D01*
X148539338Y-67494721D01*
X148537917Y-67492462D01*
X148536418Y-67491162D01*
X148531700Y-67485413D01*
X148495634Y-67449347D01*
X148784872Y-67449347D01*
X148787506Y-67463812D01*
X148977982Y-68130479D01*
X148983387Y-68144152D01*
X148986362Y-68147899D01*
X148988248Y-68152300D01*
X148995385Y-68159265D01*
X149001582Y-68167071D01*
X149005763Y-68169394D01*
X149009191Y-68172739D01*
X149018450Y-68176442D01*
X149027163Y-68181283D01*
X149031917Y-68181829D01*
X149036362Y-68183607D01*
X149046332Y-68183485D01*
X149056235Y-68184623D01*
X149060836Y-68183308D01*
X149065624Y-68183250D01*
X149074789Y-68179321D01*
X149084373Y-68176584D01*
X149088120Y-68173608D01*
X149092521Y-68171723D01*
X149099486Y-68164585D01*
X149107292Y-68158389D01*
X149109615Y-68154207D01*
X149112960Y-68150780D01*
X149119732Y-68137729D01*
X149240572Y-67835628D01*
X149361412Y-68137729D01*
X149368184Y-68150779D01*
X149371527Y-68154204D01*
X149373852Y-68158389D01*
X149381661Y-68164588D01*
X149388623Y-68171722D01*
X149393021Y-68173607D01*
X149396771Y-68176584D01*
X149406356Y-68179322D01*
X149415520Y-68183250D01*
X149420307Y-68183308D01*
X149424909Y-68184623D01*
X149434811Y-68183485D01*
X149444782Y-68183607D01*
X149449225Y-68181829D01*
X149453981Y-68181283D01*
X149462699Y-68176439D01*
X149471952Y-68172738D01*
X149475376Y-68169396D01*
X149479562Y-68167071D01*
X149485760Y-68159262D01*
X149492896Y-68152300D01*
X149494781Y-68147899D01*
X149497757Y-68144152D01*
X149503162Y-68130479D01*
X149693638Y-67463812D01*
X149696272Y-67449347D01*
X149692932Y-67420275D01*
X149678720Y-67394694D01*
X149655801Y-67376499D01*
X149627663Y-67368460D01*
X149598591Y-67371800D01*
X149573010Y-67386012D01*
X149554815Y-67408931D01*
X149549410Y-67422604D01*
X149419204Y-67878322D01*
X149310208Y-67605830D01*
X149303436Y-67592779D01*
X149302785Y-67592112D01*
X149302420Y-67591259D01*
X149292609Y-67581685D01*
X149282997Y-67571836D01*
X149282139Y-67571468D01*
X149281476Y-67570821D01*
X149268744Y-67565727D01*
X149256100Y-67560309D01*
X149255170Y-67560297D01*
X149254306Y-67559952D01*
X149240572Y-67560119D01*
X149226838Y-67559952D01*
X149225973Y-67560297D01*
X149225044Y-67560309D01*
X149212442Y-67565710D01*
X149199667Y-67570820D01*
X149198999Y-67571471D01*
X149198147Y-67571837D01*
X149188574Y-67581645D01*
X149178724Y-67591259D01*
X149178357Y-67592114D01*
X149177708Y-67592780D01*
X149170936Y-67605830D01*
X149061939Y-67878322D01*
X148931734Y-67422604D01*
X148926329Y-67408931D01*
X148908134Y-67386012D01*
X148882553Y-67371800D01*
X148853481Y-67368460D01*
X148825343Y-67376499D01*
X148802424Y-67394694D01*
X148788212Y-67420275D01*
X148784872Y-67449347D01*
X148495634Y-67449347D01*
X148484081Y-67437794D01*
X148478331Y-67433075D01*
X148477032Y-67431577D01*
X148474772Y-67430155D01*
X148472716Y-67428467D01*
X148470888Y-67427709D01*
X148464589Y-67423745D01*
X148369351Y-67376126D01*
X148355619Y-67370871D01*
X148352931Y-67370680D01*
X148350442Y-67369649D01*
X148335810Y-67368208D01*
X148192953Y-67368208D01*
X148178321Y-67369649D01*
X148175832Y-67370679D01*
X148173143Y-67370871D01*
X148159412Y-67376126D01*
X148064174Y-67423745D01*
X148057874Y-67427709D01*
X148056047Y-67428467D01*
X148053990Y-67430155D01*
X148051731Y-67431577D01*
X148050431Y-67433075D01*
X148044682Y-67437794D01*
X147997063Y-67485413D01*
X147992344Y-67491162D01*
X147990846Y-67492462D01*
X147989424Y-67494721D01*
X147987736Y-67496778D01*
X147986978Y-67498605D01*
X147983014Y-67504905D01*
X147935395Y-67600143D01*
X147930140Y-67613875D01*
X147929949Y-67616562D01*
X147928918Y-67619052D01*
X147927477Y-67633684D01*
X147514901Y-67633684D01*
X147540306Y-67582873D01*
X147570713Y-67552466D01*
X147639229Y-67518208D01*
X147716762Y-67518208D01*
X147731394Y-67516767D01*
X147758430Y-67505568D01*
X147779122Y-67484876D01*
X147790321Y-67457840D01*
X147790321Y-67428576D01*
X147779122Y-67401540D01*
X147758430Y-67380848D01*
X147731394Y-67369649D01*
X147716762Y-67368208D01*
X147621524Y-67368208D01*
X147606892Y-67369649D01*
X147604403Y-67370679D01*
X147601714Y-67370871D01*
X147587983Y-67376126D01*
X147500913Y-67419660D01*
X147493408Y-67401540D01*
X147472716Y-67380848D01*
X147445680Y-67369649D01*
X147416416Y-67369649D01*
X147389380Y-67380848D01*
X147368688Y-67401540D01*
X147357489Y-67428576D01*
X147356048Y-67443208D01*
X146203780Y-67443208D01*
X146198366Y-67437794D01*
X146192616Y-67433075D01*
X146191317Y-67431577D01*
X146189057Y-67430155D01*
X146187001Y-67428467D01*
X146185173Y-67427709D01*
X146178874Y-67423745D01*
X146083636Y-67376126D01*
X146069904Y-67370871D01*
X146067216Y-67370680D01*
X146064727Y-67369649D01*
X146050095Y-67368208D01*
X145859619Y-67368208D01*
X145844987Y-67369649D01*
X145842498Y-67370679D01*
X145839809Y-67370871D01*
X145826078Y-67376126D01*
X145809577Y-67384376D01*
X145806049Y-67380848D01*
X145779013Y-67369649D01*
X145749749Y-67369649D01*
X145722713Y-67380848D01*
X145702021Y-67401540D01*
X145690822Y-67428576D01*
X145689381Y-67443208D01*
X145299018Y-67443208D01*
X145293604Y-67437794D01*
X145287854Y-67433075D01*
X145286555Y-67431577D01*
X145284295Y-67430155D01*
X145282239Y-67428467D01*
X145280411Y-67427709D01*
X145274112Y-67423745D01*
X145178874Y-67376126D01*
X145165142Y-67370871D01*
X145162454Y-67370680D01*
X145159965Y-67369649D01*
X145145333Y-67368208D01*
X145002476Y-67368208D01*
X144987844Y-67369649D01*
X144985355Y-67370679D01*
X144982666Y-67370871D01*
X144968935Y-67376126D01*
X144873697Y-67423745D01*
X144867397Y-67427709D01*
X144865570Y-67428467D01*
X144863513Y-67430155D01*
X144861254Y-67431577D01*
X144859954Y-67433075D01*
X144854205Y-67437794D01*
X144806586Y-67485413D01*
X144801867Y-67491162D01*
X144800369Y-67492462D01*
X144798947Y-67494721D01*
X144797259Y-67496778D01*
X144796501Y-67498605D01*
X144792537Y-67504905D01*
X144744918Y-67600143D01*
X144739663Y-67613875D01*
X144739472Y-67616562D01*
X144738441Y-67619052D01*
X144737000Y-67633684D01*
X144315571Y-67633684D01*
X144315571Y-67184875D01*
X144526285Y-67184875D01*
X144540917Y-67183434D01*
X144567953Y-67172235D01*
X144588645Y-67151543D01*
X144599844Y-67124507D01*
X144599844Y-67095243D01*
X144588645Y-67068207D01*
X144567953Y-67047515D01*
X144540917Y-67036316D01*
X144526285Y-67034875D01*
X143954857Y-67034875D01*
X143940225Y-67036316D01*
X143913189Y-67047515D01*
X143892497Y-67068207D01*
X143881298Y-67095243D01*
X143770187Y-67095243D01*
X143770187Y-66923764D01*
X149807383Y-66923764D01*
X149807383Y-70237822D01*
G37*
X109556779Y-57781819D02*
X109556779Y-56781819D01*
X109556779Y-56781819D02*
X109794874Y-56781819D01*
X109794874Y-56781819D02*
X109937731Y-56829438D01*
X109937731Y-56829438D02*
X110032969Y-56924676D01*
X110032969Y-56924676D02*
X110080588Y-57019914D01*
X110080588Y-57019914D02*
X110128207Y-57210390D01*
X110128207Y-57210390D02*
X110128207Y-57353247D01*
X110128207Y-57353247D02*
X110080588Y-57543723D01*
X110080588Y-57543723D02*
X110032969Y-57638961D01*
X110032969Y-57638961D02*
X109937731Y-57734200D01*
X109937731Y-57734200D02*
X109794874Y-57781819D01*
X109794874Y-57781819D02*
X109556779Y-57781819D01*
X111080588Y-57781819D02*
X110509160Y-57781819D01*
X110794874Y-57781819D02*
X110794874Y-56781819D01*
X110794874Y-56781819D02*
X110699636Y-56924676D01*
X110699636Y-56924676D02*
X110604398Y-57019914D01*
X110604398Y-57019914D02*
X110509160Y-57067533D01*
X109461541Y-66941819D02*
X110080588Y-66941819D01*
X110080588Y-66941819D02*
X109747255Y-67322771D01*
X109747255Y-67322771D02*
X109890112Y-67322771D01*
X109890112Y-67322771D02*
X109985350Y-67370390D01*
X109985350Y-67370390D02*
X110032969Y-67418009D01*
X110032969Y-67418009D02*
X110080588Y-67513247D01*
X110080588Y-67513247D02*
X110080588Y-67751342D01*
X110080588Y-67751342D02*
X110032969Y-67846580D01*
X110032969Y-67846580D02*
X109985350Y-67894200D01*
X109985350Y-67894200D02*
X109890112Y-67941819D01*
X109890112Y-67941819D02*
X109604398Y-67941819D01*
X109604398Y-67941819D02*
X109509160Y-67894200D01*
X109509160Y-67894200D02*
X109461541Y-67846580D01*
X110509160Y-67846580D02*
X110556779Y-67894200D01*
X110556779Y-67894200D02*
X110509160Y-67941819D01*
X110509160Y-67941819D02*
X110461541Y-67894200D01*
X110461541Y-67894200D02*
X110509160Y-67846580D01*
X110509160Y-67846580D02*
X110509160Y-67941819D01*
X110890112Y-66941819D02*
X111509159Y-66941819D01*
X111509159Y-66941819D02*
X111175826Y-67322771D01*
X111175826Y-67322771D02*
X111318683Y-67322771D01*
X111318683Y-67322771D02*
X111413921Y-67370390D01*
X111413921Y-67370390D02*
X111461540Y-67418009D01*
X111461540Y-67418009D02*
X111509159Y-67513247D01*
X111509159Y-67513247D02*
X111509159Y-67751342D01*
X111509159Y-67751342D02*
X111461540Y-67846580D01*
X111461540Y-67846580D02*
X111413921Y-67894200D01*
X111413921Y-67894200D02*
X111318683Y-67941819D01*
X111318683Y-67941819D02*
X111032969Y-67941819D01*
X111032969Y-67941819D02*
X110937731Y-67894200D01*
X110937731Y-67894200D02*
X110890112Y-67846580D01*
X111794874Y-66941819D02*
X112128207Y-67941819D01*
X112128207Y-67941819D02*
X112461540Y-66941819D01*
X110080588Y-64449438D02*
X109985350Y-64401819D01*
X109985350Y-64401819D02*
X109842493Y-64401819D01*
X109842493Y-64401819D02*
X109699636Y-64449438D01*
X109699636Y-64449438D02*
X109604398Y-64544676D01*
X109604398Y-64544676D02*
X109556779Y-64639914D01*
X109556779Y-64639914D02*
X109509160Y-64830390D01*
X109509160Y-64830390D02*
X109509160Y-64973247D01*
X109509160Y-64973247D02*
X109556779Y-65163723D01*
X109556779Y-65163723D02*
X109604398Y-65258961D01*
X109604398Y-65258961D02*
X109699636Y-65354200D01*
X109699636Y-65354200D02*
X109842493Y-65401819D01*
X109842493Y-65401819D02*
X109937731Y-65401819D01*
X109937731Y-65401819D02*
X110080588Y-65354200D01*
X110080588Y-65354200D02*
X110128207Y-65306580D01*
X110128207Y-65306580D02*
X110128207Y-64973247D01*
X110128207Y-64973247D02*
X109937731Y-64973247D01*
X110556779Y-65401819D02*
X110556779Y-64401819D01*
X110556779Y-64401819D02*
X111128207Y-65401819D01*
X111128207Y-65401819D02*
X111128207Y-64401819D01*
X111604398Y-65401819D02*
X111604398Y-64401819D01*
X111604398Y-64401819D02*
X111842493Y-64401819D01*
X111842493Y-64401819D02*
X111985350Y-64449438D01*
X111985350Y-64449438D02*
X112080588Y-64544676D01*
X112080588Y-64544676D02*
X112128207Y-64639914D01*
X112128207Y-64639914D02*
X112175826Y-64830390D01*
X112175826Y-64830390D02*
X112175826Y-64973247D01*
X112175826Y-64973247D02*
X112128207Y-65163723D01*
X112128207Y-65163723D02*
X112080588Y-65258961D01*
X112080588Y-65258961D02*
X111985350Y-65354200D01*
X111985350Y-65354200D02*
X111842493Y-65401819D01*
X111842493Y-65401819D02*
X111604398Y-65401819D01*
X109556779Y-60321819D02*
X109556779Y-59321819D01*
X109556779Y-59321819D02*
X109794874Y-59321819D01*
X109794874Y-59321819D02*
X109937731Y-59369438D01*
X109937731Y-59369438D02*
X110032969Y-59464676D01*
X110032969Y-59464676D02*
X110080588Y-59559914D01*
X110080588Y-59559914D02*
X110128207Y-59750390D01*
X110128207Y-59750390D02*
X110128207Y-59893247D01*
X110128207Y-59893247D02*
X110080588Y-60083723D01*
X110080588Y-60083723D02*
X110032969Y-60178961D01*
X110032969Y-60178961D02*
X109937731Y-60274200D01*
X109937731Y-60274200D02*
X109794874Y-60321819D01*
X109794874Y-60321819D02*
X109556779Y-60321819D01*
X110509160Y-59417057D02*
X110556779Y-59369438D01*
X110556779Y-59369438D02*
X110652017Y-59321819D01*
X110652017Y-59321819D02*
X110890112Y-59321819D01*
X110890112Y-59321819D02*
X110985350Y-59369438D01*
X110985350Y-59369438D02*
X111032969Y-59417057D01*
X111032969Y-59417057D02*
X111080588Y-59512295D01*
X111080588Y-59512295D02*
X111080588Y-59607533D01*
X111080588Y-59607533D02*
X111032969Y-59750390D01*
X111032969Y-59750390D02*
X110461541Y-60321819D01*
X110461541Y-60321819D02*
X111080588Y-60321819D01*
G36*
X134917001Y-69162410D02*
G01*
X134947408Y-69192817D01*
X134981666Y-69261333D01*
X134981666Y-69511637D01*
X134947407Y-69580153D01*
X134917000Y-69610561D01*
X134848485Y-69644819D01*
X134693419Y-69644819D01*
X134655476Y-69625847D01*
X134655476Y-69147123D01*
X134693419Y-69128152D01*
X134848485Y-69128152D01*
X134917001Y-69162410D01*
G37*
G36*
X132254247Y-67699236D02*
G01*
X132280741Y-67725730D01*
X132314999Y-67794246D01*
X132314999Y-67901693D01*
X132280740Y-67970209D01*
X132250333Y-68000617D01*
X132181818Y-68034875D01*
X131893571Y-68034875D01*
X131893571Y-67661065D01*
X132139734Y-67661065D01*
X132254247Y-67699236D01*
G37*
G36*
X132202715Y-67219133D02*
G01*
X132233122Y-67249540D01*
X132267380Y-67318056D01*
X132267380Y-67377884D01*
X132233122Y-67446400D01*
X132202715Y-67476807D01*
X132134199Y-67511065D01*
X131893571Y-67511065D01*
X131893571Y-67184875D01*
X132134199Y-67184875D01*
X132202715Y-67219133D01*
G37*
G36*
X133155096Y-67552466D02*
G01*
X133185503Y-67582873D01*
X133219761Y-67651389D01*
X133219761Y-67901693D01*
X133185502Y-67970209D01*
X133155095Y-68000617D01*
X133086580Y-68034875D01*
X132979133Y-68034875D01*
X132910617Y-68000617D01*
X132880210Y-67970209D01*
X132845952Y-67901693D01*
X132845952Y-67651389D01*
X132880210Y-67582873D01*
X132910617Y-67552466D01*
X132979133Y-67518208D01*
X133086580Y-67518208D01*
X133155096Y-67552466D01*
G37*
G36*
X135202716Y-67552466D02*
G01*
X135233123Y-67582873D01*
X135267381Y-67651389D01*
X135267381Y-67901693D01*
X135233122Y-67970209D01*
X135202715Y-68000617D01*
X135134200Y-68034875D01*
X135026753Y-68034875D01*
X134958237Y-68000617D01*
X134927830Y-67970209D01*
X134893572Y-67901693D01*
X134893572Y-67651389D01*
X134927830Y-67582873D01*
X134958237Y-67552466D01*
X135026753Y-67518208D01*
X135134200Y-67518208D01*
X135202716Y-67552466D01*
G37*
G36*
X138821764Y-67552466D02*
G01*
X138852171Y-67582873D01*
X138886429Y-67651389D01*
X138886429Y-67901693D01*
X138852170Y-67970209D01*
X138821763Y-68000617D01*
X138753248Y-68034875D01*
X138645801Y-68034875D01*
X138577285Y-68000617D01*
X138546878Y-67970209D01*
X138512620Y-67901693D01*
X138512620Y-67651389D01*
X138546878Y-67582873D01*
X138577285Y-67552466D01*
X138645801Y-67518208D01*
X138753248Y-67518208D01*
X138821764Y-67552466D01*
G37*
G36*
X140242526Y-70237822D02*
G01*
X131632460Y-70237822D01*
X131632460Y-69053152D01*
X134505476Y-69053152D01*
X134505476Y-70053152D01*
X134506917Y-70067784D01*
X134518116Y-70094820D01*
X134538808Y-70115512D01*
X134565844Y-70126711D01*
X134595108Y-70126711D01*
X134622144Y-70115512D01*
X134642836Y-70094820D01*
X134654035Y-70067784D01*
X134655476Y-70053152D01*
X134655476Y-69791992D01*
X134655904Y-69792156D01*
X134658593Y-69792347D01*
X134661082Y-69793378D01*
X134675714Y-69794819D01*
X134866190Y-69794819D01*
X134880822Y-69793378D01*
X134883311Y-69792346D01*
X134885999Y-69792156D01*
X134899731Y-69786901D01*
X134994969Y-69739282D01*
X135001268Y-69735317D01*
X135003096Y-69734560D01*
X135005152Y-69732872D01*
X135007412Y-69731450D01*
X135008712Y-69729950D01*
X135014462Y-69725232D01*
X135062080Y-69677613D01*
X135066798Y-69671863D01*
X135068297Y-69670564D01*
X135069718Y-69668305D01*
X135071408Y-69666247D01*
X135072165Y-69664417D01*
X135076129Y-69658121D01*
X135123748Y-69562883D01*
X135129003Y-69549152D01*
X135129194Y-69546462D01*
X135130225Y-69543974D01*
X135131666Y-69529342D01*
X135131666Y-69243628D01*
X135130225Y-69228996D01*
X135129194Y-69226507D01*
X135129003Y-69223818D01*
X135123748Y-69210087D01*
X135076129Y-69114849D01*
X135072164Y-69108549D01*
X135071407Y-69106722D01*
X135069718Y-69104665D01*
X135068297Y-69102406D01*
X135066798Y-69101106D01*
X135062080Y-69095357D01*
X135019875Y-69053152D01*
X135410238Y-69053152D01*
X135410238Y-69719819D01*
X135411679Y-69734451D01*
X135422878Y-69761487D01*
X135443570Y-69782179D01*
X135470606Y-69793378D01*
X135499870Y-69793378D01*
X135526906Y-69782179D01*
X135547598Y-69761487D01*
X135558797Y-69734451D01*
X135560238Y-69719819D01*
X135560238Y-69053152D01*
X135886428Y-69053152D01*
X135886428Y-69719819D01*
X135887869Y-69734451D01*
X135899068Y-69761487D01*
X135919760Y-69782179D01*
X135946796Y-69793378D01*
X135976060Y-69793378D01*
X136003096Y-69782179D01*
X136023788Y-69761487D01*
X136034987Y-69734451D01*
X136036428Y-69719819D01*
X136036428Y-69179456D01*
X136053474Y-69162410D01*
X136121990Y-69128152D01*
X136229437Y-69128152D01*
X136286478Y-69156672D01*
X136314999Y-69213714D01*
X136314999Y-69719819D01*
X136316440Y-69734451D01*
X136327639Y-69761487D01*
X136348331Y-69782179D01*
X136375367Y-69793378D01*
X136404631Y-69793378D01*
X136431667Y-69782179D01*
X136452359Y-69761487D01*
X136463558Y-69734451D01*
X136464999Y-69719819D01*
X136464999Y-69196009D01*
X136743571Y-69196009D01*
X136743571Y-69243628D01*
X136745012Y-69258260D01*
X136746043Y-69260749D01*
X136746234Y-69263437D01*
X136751489Y-69277169D01*
X136799108Y-69372407D01*
X136800648Y-69374854D01*
X136801033Y-69376008D01*
X136802278Y-69377444D01*
X136806940Y-69384850D01*
X136814044Y-69391011D01*
X136820206Y-69398116D01*
X136827611Y-69402777D01*
X136829048Y-69404023D01*
X136830201Y-69404407D01*
X136832649Y-69405948D01*
X136927887Y-69453567D01*
X136941618Y-69458822D01*
X136944307Y-69459013D01*
X136946796Y-69460044D01*
X136961428Y-69461485D01*
X137086580Y-69461485D01*
X137143621Y-69490005D01*
X137172142Y-69547047D01*
X137172142Y-69559256D01*
X137143621Y-69616298D01*
X137086580Y-69644819D01*
X136931514Y-69644819D01*
X136852112Y-69605118D01*
X136838380Y-69599863D01*
X136809190Y-69597789D01*
X136781429Y-69607043D01*
X136759321Y-69626216D01*
X136746234Y-69652391D01*
X136744160Y-69681581D01*
X136753414Y-69709342D01*
X136772587Y-69731450D01*
X136785030Y-69739282D01*
X136880268Y-69786901D01*
X136893999Y-69792156D01*
X136896688Y-69792347D01*
X136899177Y-69793378D01*
X136913809Y-69794819D01*
X137104285Y-69794819D01*
X137118917Y-69793378D01*
X137121406Y-69792346D01*
X137124094Y-69792156D01*
X137137826Y-69786901D01*
X137233064Y-69739282D01*
X137235511Y-69737741D01*
X137236665Y-69737357D01*
X137238101Y-69736111D01*
X137245507Y-69731450D01*
X137251668Y-69724345D01*
X137258773Y-69718184D01*
X137263434Y-69710778D01*
X137264680Y-69709342D01*
X137265064Y-69708188D01*
X137266605Y-69705741D01*
X137314224Y-69610502D01*
X137319479Y-69596770D01*
X137319669Y-69594082D01*
X137320701Y-69591593D01*
X137322142Y-69576961D01*
X137322142Y-69529342D01*
X137320701Y-69514710D01*
X137319670Y-69512221D01*
X137319479Y-69509532D01*
X137314224Y-69495801D01*
X137266605Y-69400563D01*
X137265064Y-69398115D01*
X137264680Y-69396962D01*
X137263434Y-69395525D01*
X137258773Y-69388120D01*
X137251668Y-69381958D01*
X137245507Y-69374854D01*
X137238101Y-69370192D01*
X137236665Y-69368947D01*
X137235511Y-69368562D01*
X137233064Y-69367022D01*
X137137826Y-69319403D01*
X137124094Y-69314148D01*
X137121406Y-69313957D01*
X137118917Y-69312926D01*
X137104285Y-69311485D01*
X136979133Y-69311485D01*
X136922091Y-69282964D01*
X136893571Y-69225923D01*
X136893571Y-69213714D01*
X136922091Y-69156672D01*
X136979133Y-69128152D01*
X137086580Y-69128152D01*
X137165982Y-69167853D01*
X137179713Y-69173108D01*
X137208903Y-69175182D01*
X137236665Y-69165928D01*
X137258772Y-69146755D01*
X137271860Y-69120580D01*
X137273934Y-69091390D01*
X137264680Y-69063629D01*
X137245507Y-69041521D01*
X137233064Y-69033689D01*
X137137826Y-68986070D01*
X137124094Y-68980815D01*
X137121406Y-68980624D01*
X137118917Y-68979593D01*
X137104285Y-68978152D01*
X136961428Y-68978152D01*
X136946796Y-68979593D01*
X136944307Y-68980623D01*
X136941618Y-68980815D01*
X136927887Y-68986070D01*
X136832649Y-69033689D01*
X136830201Y-69035229D01*
X136829048Y-69035614D01*
X136827611Y-69036859D01*
X136820206Y-69041521D01*
X136814044Y-69048625D01*
X136806940Y-69054787D01*
X136802278Y-69062192D01*
X136801033Y-69063629D01*
X136800648Y-69064782D01*
X136799108Y-69067230D01*
X136751489Y-69162468D01*
X136746234Y-69176200D01*
X136746043Y-69178887D01*
X136745012Y-69181377D01*
X136743571Y-69196009D01*
X136464999Y-69196009D01*
X136463558Y-69181377D01*
X136462527Y-69178888D01*
X136462336Y-69176199D01*
X136457081Y-69162468D01*
X136409462Y-69067230D01*
X136407921Y-69064782D01*
X136407537Y-69063629D01*
X136406291Y-69062192D01*
X136401630Y-69054787D01*
X136394525Y-69048625D01*
X136388364Y-69041521D01*
X136380958Y-69036859D01*
X136379522Y-69035614D01*
X136378368Y-69035229D01*
X136375921Y-69033689D01*
X136280683Y-68986070D01*
X136266951Y-68980815D01*
X136264263Y-68980624D01*
X136261774Y-68979593D01*
X136247142Y-68978152D01*
X136104285Y-68978152D01*
X136089653Y-68979593D01*
X136087164Y-68980623D01*
X136084475Y-68980815D01*
X136070744Y-68986070D01*
X136022497Y-69010193D01*
X136003096Y-68990792D01*
X135976060Y-68979593D01*
X135946796Y-68979593D01*
X135919760Y-68990792D01*
X135899068Y-69011484D01*
X135887869Y-69038520D01*
X135886428Y-69053152D01*
X135560238Y-69053152D01*
X135558797Y-69038520D01*
X135547598Y-69011484D01*
X135526906Y-68990792D01*
X135499870Y-68979593D01*
X135470606Y-68979593D01*
X135443570Y-68990792D01*
X135422878Y-69011484D01*
X135411679Y-69038520D01*
X135410238Y-69053152D01*
X135019875Y-69053152D01*
X135014461Y-69047738D01*
X135008711Y-69043019D01*
X135007412Y-69041521D01*
X135005152Y-69040099D01*
X135003096Y-69038411D01*
X135001268Y-69037653D01*
X134994969Y-69033689D01*
X134899731Y-68986070D01*
X134885999Y-68980815D01*
X134883311Y-68980624D01*
X134880822Y-68979593D01*
X134866190Y-68978152D01*
X134675714Y-68978152D01*
X134661082Y-68979593D01*
X134658593Y-68980623D01*
X134655904Y-68980815D01*
X134642173Y-68986070D01*
X134625672Y-68994320D01*
X134622144Y-68990792D01*
X134595108Y-68979593D01*
X134565844Y-68979593D01*
X134538808Y-68990792D01*
X134518116Y-69011484D01*
X134506917Y-69038520D01*
X134505476Y-69053152D01*
X131632460Y-69053152D01*
X131632460Y-68752807D01*
X135364060Y-68752807D01*
X135364060Y-68782069D01*
X135375259Y-68809106D01*
X135384586Y-68820471D01*
X135432205Y-68868090D01*
X135443570Y-68877417D01*
X135470606Y-68888616D01*
X135470607Y-68888616D01*
X135499869Y-68888616D01*
X135499870Y-68888616D01*
X135526906Y-68877417D01*
X135538271Y-68868090D01*
X135585890Y-68820471D01*
X135595217Y-68809106D01*
X135606416Y-68782070D01*
X135606416Y-68752807D01*
X135598813Y-68734451D01*
X135595217Y-68725770D01*
X135585890Y-68714405D01*
X135538271Y-68666786D01*
X135526906Y-68657459D01*
X135499870Y-68646260D01*
X135499869Y-68646260D01*
X135470606Y-68646260D01*
X135443570Y-68657459D01*
X135432205Y-68666786D01*
X135384586Y-68714405D01*
X135375259Y-68725770D01*
X135364060Y-68752807D01*
X131632460Y-68752807D01*
X131632460Y-67109875D01*
X131743571Y-67109875D01*
X131743571Y-68109875D01*
X131745012Y-68124507D01*
X131756211Y-68151543D01*
X131776903Y-68172235D01*
X131803939Y-68183434D01*
X131818571Y-68184875D01*
X132199523Y-68184875D01*
X132214155Y-68183434D01*
X132216644Y-68182402D01*
X132219332Y-68182212D01*
X132233064Y-68176957D01*
X132328302Y-68129338D01*
X132334601Y-68125373D01*
X132336429Y-68124616D01*
X132338485Y-68122928D01*
X132340745Y-68121506D01*
X132342045Y-68120006D01*
X132347795Y-68115288D01*
X132395413Y-68067669D01*
X132400131Y-68061919D01*
X132401630Y-68060620D01*
X132403051Y-68058361D01*
X132404741Y-68056303D01*
X132405498Y-68054473D01*
X132409462Y-68048177D01*
X132457081Y-67952939D01*
X132462336Y-67939208D01*
X132462527Y-67936518D01*
X132463558Y-67934030D01*
X132464999Y-67919398D01*
X132464999Y-67776541D01*
X132463558Y-67761909D01*
X132462527Y-67759420D01*
X132462336Y-67756731D01*
X132457081Y-67743000D01*
X132409462Y-67647762D01*
X132405497Y-67641462D01*
X132404740Y-67639635D01*
X132403051Y-67637578D01*
X132401630Y-67635319D01*
X132400131Y-67634019D01*
X132399856Y-67633684D01*
X132695952Y-67633684D01*
X132695952Y-67919398D01*
X132697393Y-67934030D01*
X132698424Y-67936519D01*
X132698615Y-67939207D01*
X132703870Y-67952939D01*
X132751489Y-68048177D01*
X132755452Y-68054473D01*
X132756210Y-68056303D01*
X132757899Y-68058361D01*
X132759321Y-68060620D01*
X132760819Y-68061919D01*
X132765537Y-68067668D01*
X132813156Y-68115288D01*
X132818905Y-68120006D01*
X132820206Y-68121506D01*
X132822465Y-68122928D01*
X132824522Y-68124616D01*
X132826349Y-68125373D01*
X132832649Y-68129338D01*
X132927887Y-68176957D01*
X132941618Y-68182212D01*
X132944307Y-68182403D01*
X132946796Y-68183434D01*
X132961428Y-68184875D01*
X133104285Y-68184875D01*
X133118917Y-68183434D01*
X133121406Y-68182402D01*
X133124094Y-68182212D01*
X133137826Y-68176957D01*
X133233064Y-68129338D01*
X133239363Y-68125373D01*
X133241191Y-68124616D01*
X133243247Y-68122928D01*
X133245507Y-68121506D01*
X133246807Y-68120006D01*
X133252557Y-68115288D01*
X133300175Y-68067669D01*
X133304893Y-68061919D01*
X133306392Y-68060620D01*
X133307813Y-68058361D01*
X133309503Y-68056303D01*
X133310260Y-68054473D01*
X133314224Y-68048177D01*
X133361843Y-67952939D01*
X133367098Y-67939208D01*
X133367289Y-67936518D01*
X133368320Y-67934030D01*
X133369761Y-67919398D01*
X133369761Y-67633684D01*
X133368320Y-67619052D01*
X133367289Y-67616563D01*
X133367098Y-67613874D01*
X133361843Y-67600143D01*
X133314224Y-67504905D01*
X133310259Y-67498605D01*
X133309502Y-67496778D01*
X133307813Y-67494721D01*
X133306392Y-67492462D01*
X133304893Y-67491162D01*
X133300175Y-67485413D01*
X133252556Y-67437794D01*
X133246806Y-67433075D01*
X133245507Y-67431577D01*
X133243247Y-67430155D01*
X133241324Y-67428576D01*
X133506917Y-67428576D01*
X133506917Y-67457840D01*
X133518116Y-67484876D01*
X133538808Y-67505568D01*
X133565844Y-67516767D01*
X133580476Y-67518208D01*
X133648333Y-67518208D01*
X133648333Y-67967017D01*
X133649774Y-67981649D01*
X133650805Y-67984138D01*
X133650996Y-67986826D01*
X133656251Y-68000558D01*
X133703870Y-68095797D01*
X133705410Y-68098243D01*
X133705795Y-68099398D01*
X133707041Y-68100835D01*
X133711702Y-68108239D01*
X133718804Y-68114398D01*
X133724968Y-68121506D01*
X133732373Y-68126167D01*
X133733810Y-68127413D01*
X133734963Y-68127797D01*
X133737411Y-68129338D01*
X133832649Y-68176957D01*
X133846380Y-68182212D01*
X133849069Y-68182403D01*
X133851558Y-68183434D01*
X133866190Y-68184875D01*
X133961428Y-68184875D01*
X133976060Y-68183434D01*
X134003096Y-68172235D01*
X134023788Y-68151543D01*
X134034987Y-68124507D01*
X134034987Y-68095243D01*
X134023788Y-68068207D01*
X134003096Y-68047515D01*
X133976060Y-68036316D01*
X133961428Y-68034875D01*
X133883895Y-68034875D01*
X133826853Y-68006354D01*
X133798333Y-67949312D01*
X133798333Y-67518208D01*
X133961428Y-67518208D01*
X133976060Y-67516767D01*
X134003096Y-67505568D01*
X134023788Y-67484876D01*
X134034987Y-67457840D01*
X134034987Y-67428576D01*
X134078346Y-67428576D01*
X134078346Y-67457840D01*
X134089545Y-67484876D01*
X134110237Y-67505568D01*
X134137273Y-67516767D01*
X134151905Y-67518208D01*
X134219762Y-67518208D01*
X134219762Y-67967017D01*
X134221203Y-67981649D01*
X134222234Y-67984138D01*
X134222425Y-67986826D01*
X134227680Y-68000558D01*
X134275299Y-68095797D01*
X134276839Y-68098243D01*
X134277224Y-68099398D01*
X134278470Y-68100835D01*
X134283131Y-68108239D01*
X134290233Y-68114398D01*
X134296397Y-68121506D01*
X134303802Y-68126167D01*
X134305239Y-68127413D01*
X134306392Y-68127797D01*
X134308840Y-68129338D01*
X134404078Y-68176957D01*
X134417809Y-68182212D01*
X134420498Y-68182403D01*
X134422987Y-68183434D01*
X134437619Y-68184875D01*
X134532857Y-68184875D01*
X134547489Y-68183434D01*
X134574525Y-68172235D01*
X134595217Y-68151543D01*
X134606416Y-68124507D01*
X134606416Y-68095243D01*
X134595217Y-68068207D01*
X134574525Y-68047515D01*
X134547489Y-68036316D01*
X134532857Y-68034875D01*
X134455324Y-68034875D01*
X134398282Y-68006354D01*
X134369762Y-67949312D01*
X134369762Y-67633684D01*
X134743572Y-67633684D01*
X134743572Y-67919398D01*
X134745013Y-67934030D01*
X134746044Y-67936519D01*
X134746235Y-67939207D01*
X134751490Y-67952939D01*
X134799109Y-68048177D01*
X134803072Y-68054473D01*
X134803830Y-68056303D01*
X134805519Y-68058361D01*
X134806941Y-68060620D01*
X134808439Y-68061919D01*
X134813157Y-68067668D01*
X134860776Y-68115288D01*
X134866525Y-68120006D01*
X134867826Y-68121506D01*
X134870085Y-68122928D01*
X134872142Y-68124616D01*
X134873969Y-68125373D01*
X134880269Y-68129338D01*
X134975507Y-68176957D01*
X134989238Y-68182212D01*
X134991927Y-68182403D01*
X134994416Y-68183434D01*
X135009048Y-68184875D01*
X135151905Y-68184875D01*
X135166537Y-68183434D01*
X135169026Y-68182402D01*
X135171714Y-68182212D01*
X135185446Y-68176957D01*
X135280684Y-68129338D01*
X135286983Y-68125373D01*
X135288811Y-68124616D01*
X135290867Y-68122928D01*
X135293127Y-68121506D01*
X135294427Y-68120006D01*
X135300177Y-68115288D01*
X135347795Y-68067669D01*
X135352513Y-68061919D01*
X135354012Y-68060620D01*
X135355433Y-68058361D01*
X135357123Y-68056303D01*
X135357880Y-68054473D01*
X135361844Y-68048177D01*
X135409463Y-67952939D01*
X135414718Y-67939208D01*
X135414909Y-67936518D01*
X135415940Y-67934030D01*
X135417381Y-67919398D01*
X135417381Y-67633684D01*
X135415940Y-67619052D01*
X135414909Y-67616563D01*
X135414718Y-67613874D01*
X135409463Y-67600143D01*
X135361844Y-67504905D01*
X135357879Y-67498605D01*
X135357122Y-67496778D01*
X135355433Y-67494721D01*
X135354012Y-67492462D01*
X135352513Y-67491162D01*
X135347795Y-67485413D01*
X135305590Y-67443208D01*
X135695953Y-67443208D01*
X135695953Y-68109875D01*
X135697394Y-68124507D01*
X135708593Y-68151543D01*
X135729285Y-68172235D01*
X135756321Y-68183434D01*
X135785585Y-68183434D01*
X135812621Y-68172235D01*
X135833313Y-68151543D01*
X135844512Y-68124507D01*
X135845953Y-68109875D01*
X135845953Y-67569512D01*
X135862999Y-67552466D01*
X135931515Y-67518208D01*
X136038962Y-67518208D01*
X136096003Y-67546728D01*
X136124524Y-67603770D01*
X136124524Y-68109875D01*
X136125965Y-68124507D01*
X136137164Y-68151543D01*
X136157856Y-68172235D01*
X136184892Y-68183434D01*
X136214156Y-68183434D01*
X136241192Y-68172235D01*
X136261884Y-68151543D01*
X136273083Y-68124507D01*
X136274524Y-68109875D01*
X136274524Y-67603770D01*
X136303044Y-67546728D01*
X136360086Y-67518208D01*
X136467533Y-67518208D01*
X136524575Y-67546728D01*
X136553096Y-67603770D01*
X136553096Y-68109875D01*
X136554537Y-68124507D01*
X136565736Y-68151543D01*
X136586428Y-68172235D01*
X136613464Y-68183434D01*
X136642728Y-68183434D01*
X136669764Y-68172235D01*
X136690456Y-68151543D01*
X136701655Y-68124507D01*
X136703096Y-68109875D01*
X136703096Y-67586065D01*
X136701655Y-67571433D01*
X136700624Y-67568944D01*
X136700433Y-67566255D01*
X136695178Y-67552524D01*
X136647559Y-67457286D01*
X136646018Y-67454838D01*
X136645634Y-67453685D01*
X136644388Y-67452248D01*
X136639727Y-67444843D01*
X136637842Y-67443208D01*
X137791191Y-67443208D01*
X137791191Y-68109875D01*
X137792632Y-68124507D01*
X137803831Y-68151543D01*
X137824523Y-68172235D01*
X137851559Y-68183434D01*
X137880823Y-68183434D01*
X137907859Y-68172235D01*
X137928551Y-68151543D01*
X137939750Y-68124507D01*
X137941191Y-68109875D01*
X137941191Y-67651389D01*
X137950044Y-67633684D01*
X138362620Y-67633684D01*
X138362620Y-67919398D01*
X138364061Y-67934030D01*
X138365092Y-67936519D01*
X138365283Y-67939207D01*
X138370538Y-67952939D01*
X138418157Y-68048177D01*
X138422120Y-68054473D01*
X138422878Y-68056303D01*
X138424567Y-68058361D01*
X138425989Y-68060620D01*
X138427487Y-68061919D01*
X138432205Y-68067668D01*
X138479824Y-68115288D01*
X138485573Y-68120006D01*
X138486874Y-68121506D01*
X138489133Y-68122928D01*
X138491190Y-68124616D01*
X138493017Y-68125373D01*
X138499317Y-68129338D01*
X138594555Y-68176957D01*
X138608286Y-68182212D01*
X138610975Y-68182403D01*
X138613464Y-68183434D01*
X138628096Y-68184875D01*
X138770953Y-68184875D01*
X138785585Y-68183434D01*
X138788074Y-68182402D01*
X138790762Y-68182212D01*
X138804494Y-68176957D01*
X138899732Y-68129338D01*
X138906031Y-68125373D01*
X138907859Y-68124616D01*
X138909915Y-68122928D01*
X138912175Y-68121506D01*
X138913475Y-68120006D01*
X138919225Y-68115288D01*
X138966843Y-68067669D01*
X138971561Y-68061919D01*
X138973060Y-68060620D01*
X138974481Y-68058361D01*
X138976171Y-68056303D01*
X138976928Y-68054473D01*
X138980892Y-68048177D01*
X139028511Y-67952939D01*
X139033766Y-67939208D01*
X139033957Y-67936518D01*
X139034988Y-67934030D01*
X139036429Y-67919398D01*
X139036429Y-67633684D01*
X139034988Y-67619052D01*
X139033957Y-67616563D01*
X139033766Y-67613874D01*
X139028511Y-67600143D01*
X138980892Y-67504905D01*
X138976927Y-67498605D01*
X138976170Y-67496778D01*
X138974481Y-67494721D01*
X138973060Y-67492462D01*
X138971561Y-67491162D01*
X138966843Y-67485413D01*
X138930777Y-67449347D01*
X139220015Y-67449347D01*
X139222649Y-67463812D01*
X139413125Y-68130479D01*
X139418530Y-68144152D01*
X139421505Y-68147899D01*
X139423391Y-68152300D01*
X139430528Y-68159265D01*
X139436725Y-68167071D01*
X139440906Y-68169394D01*
X139444334Y-68172739D01*
X139453593Y-68176442D01*
X139462306Y-68181283D01*
X139467060Y-68181829D01*
X139471505Y-68183607D01*
X139481475Y-68183485D01*
X139491378Y-68184623D01*
X139495979Y-68183308D01*
X139500767Y-68183250D01*
X139509932Y-68179321D01*
X139519516Y-68176584D01*
X139523263Y-68173608D01*
X139527664Y-68171723D01*
X139534629Y-68164585D01*
X139542435Y-68158389D01*
X139544758Y-68154207D01*
X139548103Y-68150780D01*
X139554875Y-68137729D01*
X139675715Y-67835628D01*
X139796555Y-68137729D01*
X139803327Y-68150779D01*
X139806670Y-68154204D01*
X139808995Y-68158389D01*
X139816804Y-68164588D01*
X139823766Y-68171722D01*
X139828164Y-68173607D01*
X139831914Y-68176584D01*
X139841499Y-68179322D01*
X139850663Y-68183250D01*
X139855450Y-68183308D01*
X139860052Y-68184623D01*
X139869954Y-68183485D01*
X139879925Y-68183607D01*
X139884368Y-68181829D01*
X139889124Y-68181283D01*
X139897842Y-68176439D01*
X139907095Y-68172738D01*
X139910519Y-68169396D01*
X139914705Y-68167071D01*
X139920903Y-68159262D01*
X139928039Y-68152300D01*
X139929924Y-68147899D01*
X139932900Y-68144152D01*
X139938305Y-68130479D01*
X140128781Y-67463812D01*
X140131415Y-67449347D01*
X140128075Y-67420275D01*
X140113863Y-67394694D01*
X140090944Y-67376499D01*
X140062806Y-67368460D01*
X140033734Y-67371800D01*
X140008153Y-67386012D01*
X139989958Y-67408931D01*
X139984553Y-67422604D01*
X139854347Y-67878322D01*
X139745351Y-67605830D01*
X139738579Y-67592779D01*
X139737928Y-67592112D01*
X139737563Y-67591259D01*
X139727752Y-67581685D01*
X139718140Y-67571836D01*
X139717282Y-67571468D01*
X139716619Y-67570821D01*
X139703887Y-67565727D01*
X139691243Y-67560309D01*
X139690313Y-67560297D01*
X139689449Y-67559952D01*
X139675715Y-67560119D01*
X139661981Y-67559952D01*
X139661116Y-67560297D01*
X139660187Y-67560309D01*
X139647585Y-67565710D01*
X139634810Y-67570820D01*
X139634142Y-67571471D01*
X139633290Y-67571837D01*
X139623717Y-67581645D01*
X139613867Y-67591259D01*
X139613500Y-67592114D01*
X139612851Y-67592780D01*
X139606079Y-67605830D01*
X139497082Y-67878322D01*
X139366877Y-67422604D01*
X139361472Y-67408931D01*
X139343277Y-67386012D01*
X139317696Y-67371800D01*
X139288624Y-67368460D01*
X139260486Y-67376499D01*
X139237567Y-67394694D01*
X139223355Y-67420275D01*
X139220015Y-67449347D01*
X138930777Y-67449347D01*
X138919224Y-67437794D01*
X138913474Y-67433075D01*
X138912175Y-67431577D01*
X138909915Y-67430155D01*
X138907859Y-67428467D01*
X138906031Y-67427709D01*
X138899732Y-67423745D01*
X138804494Y-67376126D01*
X138790762Y-67370871D01*
X138788074Y-67370680D01*
X138785585Y-67369649D01*
X138770953Y-67368208D01*
X138628096Y-67368208D01*
X138613464Y-67369649D01*
X138610975Y-67370679D01*
X138608286Y-67370871D01*
X138594555Y-67376126D01*
X138499317Y-67423745D01*
X138493017Y-67427709D01*
X138491190Y-67428467D01*
X138489133Y-67430155D01*
X138486874Y-67431577D01*
X138485574Y-67433075D01*
X138479825Y-67437794D01*
X138432206Y-67485413D01*
X138427487Y-67491162D01*
X138425989Y-67492462D01*
X138424567Y-67494721D01*
X138422879Y-67496778D01*
X138422121Y-67498605D01*
X138418157Y-67504905D01*
X138370538Y-67600143D01*
X138365283Y-67613875D01*
X138365092Y-67616562D01*
X138364061Y-67619052D01*
X138362620Y-67633684D01*
X137950044Y-67633684D01*
X137975449Y-67582873D01*
X138005856Y-67552466D01*
X138074372Y-67518208D01*
X138151905Y-67518208D01*
X138166537Y-67516767D01*
X138193573Y-67505568D01*
X138214265Y-67484876D01*
X138225464Y-67457840D01*
X138225464Y-67428576D01*
X138214265Y-67401540D01*
X138193573Y-67380848D01*
X138166537Y-67369649D01*
X138151905Y-67368208D01*
X138056667Y-67368208D01*
X138042035Y-67369649D01*
X138039546Y-67370679D01*
X138036857Y-67370871D01*
X138023126Y-67376126D01*
X137936056Y-67419660D01*
X137928551Y-67401540D01*
X137907859Y-67380848D01*
X137880823Y-67369649D01*
X137851559Y-67369649D01*
X137824523Y-67380848D01*
X137803831Y-67401540D01*
X137792632Y-67428576D01*
X137791191Y-67443208D01*
X136637842Y-67443208D01*
X136632619Y-67438679D01*
X136626460Y-67431577D01*
X136619056Y-67426916D01*
X136617619Y-67425670D01*
X136616464Y-67425285D01*
X136614018Y-67423745D01*
X136518779Y-67376126D01*
X136505047Y-67370871D01*
X136502359Y-67370680D01*
X136499870Y-67369649D01*
X136485238Y-67368208D01*
X136342381Y-67368208D01*
X136327749Y-67369649D01*
X136325260Y-67370679D01*
X136322571Y-67370871D01*
X136308840Y-67376126D01*
X136213602Y-67423745D01*
X136211154Y-67425285D01*
X136210001Y-67425670D01*
X136208564Y-67426915D01*
X136201159Y-67431577D01*
X136199524Y-67433462D01*
X136197889Y-67431577D01*
X136190483Y-67426915D01*
X136189047Y-67425670D01*
X136187893Y-67425285D01*
X136185446Y-67423745D01*
X136090208Y-67376126D01*
X136076476Y-67370871D01*
X136073788Y-67370680D01*
X136071299Y-67369649D01*
X136056667Y-67368208D01*
X135913810Y-67368208D01*
X135899178Y-67369649D01*
X135896689Y-67370679D01*
X135894000Y-67370871D01*
X135880269Y-67376126D01*
X135832022Y-67400249D01*
X135812621Y-67380848D01*
X135785585Y-67369649D01*
X135756321Y-67369649D01*
X135729285Y-67380848D01*
X135708593Y-67401540D01*
X135697394Y-67428576D01*
X135695953Y-67443208D01*
X135305590Y-67443208D01*
X135300176Y-67437794D01*
X135294426Y-67433075D01*
X135293127Y-67431577D01*
X135290867Y-67430155D01*
X135288811Y-67428467D01*
X135286983Y-67427709D01*
X135280684Y-67423745D01*
X135185446Y-67376126D01*
X135171714Y-67370871D01*
X135169026Y-67370680D01*
X135166537Y-67369649D01*
X135151905Y-67368208D01*
X135009048Y-67368208D01*
X134994416Y-67369649D01*
X134991927Y-67370679D01*
X134989238Y-67370871D01*
X134975507Y-67376126D01*
X134880269Y-67423745D01*
X134873969Y-67427709D01*
X134872142Y-67428467D01*
X134870085Y-67430155D01*
X134867826Y-67431577D01*
X134866526Y-67433075D01*
X134860777Y-67437794D01*
X134813158Y-67485413D01*
X134808439Y-67491162D01*
X134806941Y-67492462D01*
X134805519Y-67494721D01*
X134803831Y-67496778D01*
X134803073Y-67498605D01*
X134799109Y-67504905D01*
X134751490Y-67600143D01*
X134746235Y-67613875D01*
X134746044Y-67616562D01*
X134745013Y-67619052D01*
X134743572Y-67633684D01*
X134369762Y-67633684D01*
X134369762Y-67518208D01*
X134532857Y-67518208D01*
X134547489Y-67516767D01*
X134574525Y-67505568D01*
X134595217Y-67484876D01*
X134606416Y-67457840D01*
X134606416Y-67428576D01*
X134595217Y-67401540D01*
X134574525Y-67380848D01*
X134547489Y-67369649D01*
X134532857Y-67368208D01*
X134369762Y-67368208D01*
X134369762Y-67109875D01*
X134368321Y-67095243D01*
X134357122Y-67068207D01*
X134336430Y-67047515D01*
X134309394Y-67036316D01*
X134280130Y-67036316D01*
X134253094Y-67047515D01*
X134232402Y-67068207D01*
X134221203Y-67095243D01*
X134219762Y-67109875D01*
X134219762Y-67368208D01*
X134151905Y-67368208D01*
X134137273Y-67369649D01*
X134110237Y-67380848D01*
X134089545Y-67401540D01*
X134078346Y-67428576D01*
X134034987Y-67428576D01*
X134023788Y-67401540D01*
X134003096Y-67380848D01*
X133976060Y-67369649D01*
X133961428Y-67368208D01*
X133798333Y-67368208D01*
X133798333Y-67109875D01*
X133796892Y-67095243D01*
X133785693Y-67068207D01*
X133765001Y-67047515D01*
X133737965Y-67036316D01*
X133708701Y-67036316D01*
X133681665Y-67047515D01*
X133660973Y-67068207D01*
X133649774Y-67095243D01*
X133648333Y-67109875D01*
X133648333Y-67368208D01*
X133580476Y-67368208D01*
X133565844Y-67369649D01*
X133538808Y-67380848D01*
X133518116Y-67401540D01*
X133506917Y-67428576D01*
X133241324Y-67428576D01*
X133241191Y-67428467D01*
X133239363Y-67427709D01*
X133233064Y-67423745D01*
X133137826Y-67376126D01*
X133124094Y-67370871D01*
X133121406Y-67370680D01*
X133118917Y-67369649D01*
X133104285Y-67368208D01*
X132961428Y-67368208D01*
X132946796Y-67369649D01*
X132944307Y-67370679D01*
X132941618Y-67370871D01*
X132927887Y-67376126D01*
X132832649Y-67423745D01*
X132826349Y-67427709D01*
X132824522Y-67428467D01*
X132822465Y-67430155D01*
X132820206Y-67431577D01*
X132818906Y-67433075D01*
X132813157Y-67437794D01*
X132765538Y-67485413D01*
X132760819Y-67491162D01*
X132759321Y-67492462D01*
X132757899Y-67494721D01*
X132756211Y-67496778D01*
X132755453Y-67498605D01*
X132751489Y-67504905D01*
X132703870Y-67600143D01*
X132698615Y-67613875D01*
X132698424Y-67616562D01*
X132697393Y-67619052D01*
X132695952Y-67633684D01*
X132399856Y-67633684D01*
X132395413Y-67628270D01*
X132347794Y-67580651D01*
X132336429Y-67571324D01*
X132333938Y-67570292D01*
X132331903Y-67568527D01*
X132325835Y-67565818D01*
X132347794Y-67543860D01*
X132352512Y-67538110D01*
X132354011Y-67536811D01*
X132355432Y-67534551D01*
X132357121Y-67532495D01*
X132357878Y-67530667D01*
X132361843Y-67524368D01*
X132409462Y-67429130D01*
X132414717Y-67415399D01*
X132414908Y-67412709D01*
X132415939Y-67410221D01*
X132417380Y-67395589D01*
X132417380Y-67300351D01*
X132415939Y-67285719D01*
X132414908Y-67283230D01*
X132414717Y-67280541D01*
X132409462Y-67266810D01*
X132361843Y-67171572D01*
X132357878Y-67165272D01*
X132357121Y-67163445D01*
X132355432Y-67161388D01*
X132354011Y-67159129D01*
X132352512Y-67157829D01*
X132347794Y-67152080D01*
X132300175Y-67104461D01*
X132294425Y-67099742D01*
X132293126Y-67098244D01*
X132290866Y-67096822D01*
X132288810Y-67095134D01*
X132286982Y-67094376D01*
X132280683Y-67090412D01*
X132185445Y-67042793D01*
X132171713Y-67037538D01*
X132169025Y-67037347D01*
X132166536Y-67036316D01*
X132151904Y-67034875D01*
X131818571Y-67034875D01*
X131803939Y-67036316D01*
X131776903Y-67047515D01*
X131756211Y-67068207D01*
X131745012Y-67095243D01*
X131743571Y-67109875D01*
X131632460Y-67109875D01*
X131632460Y-66923764D01*
X140242526Y-66923764D01*
X140242526Y-70237822D01*
G37*
X120737333Y-70558819D02*
X120404000Y-70082628D01*
X120165905Y-70558819D02*
X120165905Y-69558819D01*
X120165905Y-69558819D02*
X120546857Y-69558819D01*
X120546857Y-69558819D02*
X120642095Y-69606438D01*
X120642095Y-69606438D02*
X120689714Y-69654057D01*
X120689714Y-69654057D02*
X120737333Y-69749295D01*
X120737333Y-69749295D02*
X120737333Y-69892152D01*
X120737333Y-69892152D02*
X120689714Y-69987390D01*
X120689714Y-69987390D02*
X120642095Y-70035009D01*
X120642095Y-70035009D02*
X120546857Y-70082628D01*
X120546857Y-70082628D02*
X120165905Y-70082628D01*
X121308762Y-69987390D02*
X121213524Y-69939771D01*
X121213524Y-69939771D02*
X121165905Y-69892152D01*
X121165905Y-69892152D02*
X121118286Y-69796914D01*
X121118286Y-69796914D02*
X121118286Y-69749295D01*
X121118286Y-69749295D02*
X121165905Y-69654057D01*
X121165905Y-69654057D02*
X121213524Y-69606438D01*
X121213524Y-69606438D02*
X121308762Y-69558819D01*
X121308762Y-69558819D02*
X121499238Y-69558819D01*
X121499238Y-69558819D02*
X121594476Y-69606438D01*
X121594476Y-69606438D02*
X121642095Y-69654057D01*
X121642095Y-69654057D02*
X121689714Y-69749295D01*
X121689714Y-69749295D02*
X121689714Y-69796914D01*
X121689714Y-69796914D02*
X121642095Y-69892152D01*
X121642095Y-69892152D02*
X121594476Y-69939771D01*
X121594476Y-69939771D02*
X121499238Y-69987390D01*
X121499238Y-69987390D02*
X121308762Y-69987390D01*
X121308762Y-69987390D02*
X121213524Y-70035009D01*
X121213524Y-70035009D02*
X121165905Y-70082628D01*
X121165905Y-70082628D02*
X121118286Y-70177866D01*
X121118286Y-70177866D02*
X121118286Y-70368342D01*
X121118286Y-70368342D02*
X121165905Y-70463580D01*
X121165905Y-70463580D02*
X121213524Y-70511200D01*
X121213524Y-70511200D02*
X121308762Y-70558819D01*
X121308762Y-70558819D02*
X121499238Y-70558819D01*
X121499238Y-70558819D02*
X121594476Y-70511200D01*
X121594476Y-70511200D02*
X121642095Y-70463580D01*
X121642095Y-70463580D02*
X121689714Y-70368342D01*
X121689714Y-70368342D02*
X121689714Y-70177866D01*
X121689714Y-70177866D02*
X121642095Y-70082628D01*
X121642095Y-70082628D02*
X121594476Y-70035009D01*
X121594476Y-70035009D02*
X121499238Y-69987390D01*
X125888761Y-60875057D02*
X125793523Y-60827438D01*
X125793523Y-60827438D02*
X125698285Y-60732200D01*
X125698285Y-60732200D02*
X125555428Y-60589342D01*
X125555428Y-60589342D02*
X125460190Y-60541723D01*
X125460190Y-60541723D02*
X125364952Y-60541723D01*
X125412571Y-60779819D02*
X125317333Y-60732200D01*
X125317333Y-60732200D02*
X125222095Y-60636961D01*
X125222095Y-60636961D02*
X125174476Y-60446485D01*
X125174476Y-60446485D02*
X125174476Y-60113152D01*
X125174476Y-60113152D02*
X125222095Y-59922676D01*
X125222095Y-59922676D02*
X125317333Y-59827438D01*
X125317333Y-59827438D02*
X125412571Y-59779819D01*
X125412571Y-59779819D02*
X125603047Y-59779819D01*
X125603047Y-59779819D02*
X125698285Y-59827438D01*
X125698285Y-59827438D02*
X125793523Y-59922676D01*
X125793523Y-59922676D02*
X125841142Y-60113152D01*
X125841142Y-60113152D02*
X125841142Y-60446485D01*
X125841142Y-60446485D02*
X125793523Y-60636961D01*
X125793523Y-60636961D02*
X125698285Y-60732200D01*
X125698285Y-60732200D02*
X125603047Y-60779819D01*
X125603047Y-60779819D02*
X125412571Y-60779819D01*
X126412571Y-60208390D02*
X126317333Y-60160771D01*
X126317333Y-60160771D02*
X126269714Y-60113152D01*
X126269714Y-60113152D02*
X126222095Y-60017914D01*
X126222095Y-60017914D02*
X126222095Y-59970295D01*
X126222095Y-59970295D02*
X126269714Y-59875057D01*
X126269714Y-59875057D02*
X126317333Y-59827438D01*
X126317333Y-59827438D02*
X126412571Y-59779819D01*
X126412571Y-59779819D02*
X126603047Y-59779819D01*
X126603047Y-59779819D02*
X126698285Y-59827438D01*
X126698285Y-59827438D02*
X126745904Y-59875057D01*
X126745904Y-59875057D02*
X126793523Y-59970295D01*
X126793523Y-59970295D02*
X126793523Y-60017914D01*
X126793523Y-60017914D02*
X126745904Y-60113152D01*
X126745904Y-60113152D02*
X126698285Y-60160771D01*
X126698285Y-60160771D02*
X126603047Y-60208390D01*
X126603047Y-60208390D02*
X126412571Y-60208390D01*
X126412571Y-60208390D02*
X126317333Y-60256009D01*
X126317333Y-60256009D02*
X126269714Y-60303628D01*
X126269714Y-60303628D02*
X126222095Y-60398866D01*
X126222095Y-60398866D02*
X126222095Y-60589342D01*
X126222095Y-60589342D02*
X126269714Y-60684580D01*
X126269714Y-60684580D02*
X126317333Y-60732200D01*
X126317333Y-60732200D02*
X126412571Y-60779819D01*
X126412571Y-60779819D02*
X126603047Y-60779819D01*
X126603047Y-60779819D02*
X126698285Y-60732200D01*
X126698285Y-60732200D02*
X126745904Y-60684580D01*
X126745904Y-60684580D02*
X126793523Y-60589342D01*
X126793523Y-60589342D02*
X126793523Y-60398866D01*
X126793523Y-60398866D02*
X126745904Y-60303628D01*
X126745904Y-60303628D02*
X126698285Y-60256009D01*
X126698285Y-60256009D02*
X126603047Y-60208390D01*
X120737333Y-52778819D02*
X120404000Y-52302628D01*
X120165905Y-52778819D02*
X120165905Y-51778819D01*
X120165905Y-51778819D02*
X120546857Y-51778819D01*
X120546857Y-51778819D02*
X120642095Y-51826438D01*
X120642095Y-51826438D02*
X120689714Y-51874057D01*
X120689714Y-51874057D02*
X120737333Y-51969295D01*
X120737333Y-51969295D02*
X120737333Y-52112152D01*
X120737333Y-52112152D02*
X120689714Y-52207390D01*
X120689714Y-52207390D02*
X120642095Y-52255009D01*
X120642095Y-52255009D02*
X120546857Y-52302628D01*
X120546857Y-52302628D02*
X120165905Y-52302628D01*
X121594476Y-51778819D02*
X121404000Y-51778819D01*
X121404000Y-51778819D02*
X121308762Y-51826438D01*
X121308762Y-51826438D02*
X121261143Y-51874057D01*
X121261143Y-51874057D02*
X121165905Y-52016914D01*
X121165905Y-52016914D02*
X121118286Y-52207390D01*
X121118286Y-52207390D02*
X121118286Y-52588342D01*
X121118286Y-52588342D02*
X121165905Y-52683580D01*
X121165905Y-52683580D02*
X121213524Y-52731200D01*
X121213524Y-52731200D02*
X121308762Y-52778819D01*
X121308762Y-52778819D02*
X121499238Y-52778819D01*
X121499238Y-52778819D02*
X121594476Y-52731200D01*
X121594476Y-52731200D02*
X121642095Y-52683580D01*
X121642095Y-52683580D02*
X121689714Y-52588342D01*
X121689714Y-52588342D02*
X121689714Y-52350247D01*
X121689714Y-52350247D02*
X121642095Y-52255009D01*
X121642095Y-52255009D02*
X121594476Y-52207390D01*
X121594476Y-52207390D02*
X121499238Y-52159771D01*
X121499238Y-52159771D02*
X121308762Y-52159771D01*
X121308762Y-52159771D02*
X121213524Y-52207390D01*
X121213524Y-52207390D02*
X121165905Y-52255009D01*
X121165905Y-52255009D02*
X121118286Y-52350247D01*
X128357333Y-52778819D02*
X128024000Y-52302628D01*
X127785905Y-52778819D02*
X127785905Y-51778819D01*
X127785905Y-51778819D02*
X128166857Y-51778819D01*
X128166857Y-51778819D02*
X128262095Y-51826438D01*
X128262095Y-51826438D02*
X128309714Y-51874057D01*
X128309714Y-51874057D02*
X128357333Y-51969295D01*
X128357333Y-51969295D02*
X128357333Y-52112152D01*
X128357333Y-52112152D02*
X128309714Y-52207390D01*
X128309714Y-52207390D02*
X128262095Y-52255009D01*
X128262095Y-52255009D02*
X128166857Y-52302628D01*
X128166857Y-52302628D02*
X127785905Y-52302628D01*
X129214476Y-52112152D02*
X129214476Y-52778819D01*
X128976381Y-51731200D02*
X128738286Y-52445485D01*
X128738286Y-52445485D02*
X129357333Y-52445485D01*
X125817333Y-52778819D02*
X125484000Y-52302628D01*
X125245905Y-52778819D02*
X125245905Y-51778819D01*
X125245905Y-51778819D02*
X125626857Y-51778819D01*
X125626857Y-51778819D02*
X125722095Y-51826438D01*
X125722095Y-51826438D02*
X125769714Y-51874057D01*
X125769714Y-51874057D02*
X125817333Y-51969295D01*
X125817333Y-51969295D02*
X125817333Y-52112152D01*
X125817333Y-52112152D02*
X125769714Y-52207390D01*
X125769714Y-52207390D02*
X125722095Y-52255009D01*
X125722095Y-52255009D02*
X125626857Y-52302628D01*
X125626857Y-52302628D02*
X125245905Y-52302628D01*
X126722095Y-51778819D02*
X126245905Y-51778819D01*
X126245905Y-51778819D02*
X126198286Y-52255009D01*
X126198286Y-52255009D02*
X126245905Y-52207390D01*
X126245905Y-52207390D02*
X126341143Y-52159771D01*
X126341143Y-52159771D02*
X126579238Y-52159771D01*
X126579238Y-52159771D02*
X126674476Y-52207390D01*
X126674476Y-52207390D02*
X126722095Y-52255009D01*
X126722095Y-52255009D02*
X126769714Y-52350247D01*
X126769714Y-52350247D02*
X126769714Y-52588342D01*
X126769714Y-52588342D02*
X126722095Y-52683580D01*
X126722095Y-52683580D02*
X126674476Y-52731200D01*
X126674476Y-52731200D02*
X126579238Y-52778819D01*
X126579238Y-52778819D02*
X126341143Y-52778819D01*
X126341143Y-52778819D02*
X126245905Y-52731200D01*
X126245905Y-52731200D02*
X126198286Y-52683580D01*
X114554095Y-52990819D02*
X114554095Y-53800342D01*
X114554095Y-53800342D02*
X114601714Y-53895580D01*
X114601714Y-53895580D02*
X114649333Y-53943200D01*
X114649333Y-53943200D02*
X114744571Y-53990819D01*
X114744571Y-53990819D02*
X114935047Y-53990819D01*
X114935047Y-53990819D02*
X115030285Y-53943200D01*
X115030285Y-53943200D02*
X115077904Y-53895580D01*
X115077904Y-53895580D02*
X115125523Y-53800342D01*
X115125523Y-53800342D02*
X115125523Y-52990819D01*
X116125523Y-53990819D02*
X115554095Y-53990819D01*
X115839809Y-53990819D02*
X115839809Y-52990819D01*
X115839809Y-52990819D02*
X115744571Y-53133676D01*
X115744571Y-53133676D02*
X115649333Y-53228914D01*
X115649333Y-53228914D02*
X115554095Y-53276533D01*
X123348761Y-62526057D02*
X123253523Y-62478438D01*
X123253523Y-62478438D02*
X123158285Y-62383200D01*
X123158285Y-62383200D02*
X123015428Y-62240342D01*
X123015428Y-62240342D02*
X122920190Y-62192723D01*
X122920190Y-62192723D02*
X122824952Y-62192723D01*
X122872571Y-62430819D02*
X122777333Y-62383200D01*
X122777333Y-62383200D02*
X122682095Y-62287961D01*
X122682095Y-62287961D02*
X122634476Y-62097485D01*
X122634476Y-62097485D02*
X122634476Y-61764152D01*
X122634476Y-61764152D02*
X122682095Y-61573676D01*
X122682095Y-61573676D02*
X122777333Y-61478438D01*
X122777333Y-61478438D02*
X122872571Y-61430819D01*
X122872571Y-61430819D02*
X123063047Y-61430819D01*
X123063047Y-61430819D02*
X123158285Y-61478438D01*
X123158285Y-61478438D02*
X123253523Y-61573676D01*
X123253523Y-61573676D02*
X123301142Y-61764152D01*
X123301142Y-61764152D02*
X123301142Y-62097485D01*
X123301142Y-62097485D02*
X123253523Y-62287961D01*
X123253523Y-62287961D02*
X123158285Y-62383200D01*
X123158285Y-62383200D02*
X123063047Y-62430819D01*
X123063047Y-62430819D02*
X122872571Y-62430819D01*
X124253523Y-62430819D02*
X123682095Y-62430819D01*
X123967809Y-62430819D02*
X123967809Y-61430819D01*
X123967809Y-61430819D02*
X123872571Y-61573676D01*
X123872571Y-61573676D02*
X123777333Y-61668914D01*
X123777333Y-61668914D02*
X123682095Y-61716533D01*
X120808761Y-60875057D02*
X120713523Y-60827438D01*
X120713523Y-60827438D02*
X120618285Y-60732200D01*
X120618285Y-60732200D02*
X120475428Y-60589342D01*
X120475428Y-60589342D02*
X120380190Y-60541723D01*
X120380190Y-60541723D02*
X120284952Y-60541723D01*
X120332571Y-60779819D02*
X120237333Y-60732200D01*
X120237333Y-60732200D02*
X120142095Y-60636961D01*
X120142095Y-60636961D02*
X120094476Y-60446485D01*
X120094476Y-60446485D02*
X120094476Y-60113152D01*
X120094476Y-60113152D02*
X120142095Y-59922676D01*
X120142095Y-59922676D02*
X120237333Y-59827438D01*
X120237333Y-59827438D02*
X120332571Y-59779819D01*
X120332571Y-59779819D02*
X120523047Y-59779819D01*
X120523047Y-59779819D02*
X120618285Y-59827438D01*
X120618285Y-59827438D02*
X120713523Y-59922676D01*
X120713523Y-59922676D02*
X120761142Y-60113152D01*
X120761142Y-60113152D02*
X120761142Y-60446485D01*
X120761142Y-60446485D02*
X120713523Y-60636961D01*
X120713523Y-60636961D02*
X120618285Y-60732200D01*
X120618285Y-60732200D02*
X120523047Y-60779819D01*
X120523047Y-60779819D02*
X120332571Y-60779819D01*
X121665904Y-59779819D02*
X121189714Y-59779819D01*
X121189714Y-59779819D02*
X121142095Y-60256009D01*
X121142095Y-60256009D02*
X121189714Y-60208390D01*
X121189714Y-60208390D02*
X121284952Y-60160771D01*
X121284952Y-60160771D02*
X121523047Y-60160771D01*
X121523047Y-60160771D02*
X121618285Y-60208390D01*
X121618285Y-60208390D02*
X121665904Y-60256009D01*
X121665904Y-60256009D02*
X121713523Y-60351247D01*
X121713523Y-60351247D02*
X121713523Y-60589342D01*
X121713523Y-60589342D02*
X121665904Y-60684580D01*
X121665904Y-60684580D02*
X121618285Y-60732200D01*
X121618285Y-60732200D02*
X121523047Y-60779819D01*
X121523047Y-60779819D02*
X121284952Y-60779819D01*
X121284952Y-60779819D02*
X121189714Y-60732200D01*
X121189714Y-60732200D02*
X121142095Y-60684580D01*
X123226533Y-70542819D02*
X122893200Y-70066628D01*
X122655105Y-70542819D02*
X122655105Y-69542819D01*
X122655105Y-69542819D02*
X123036057Y-69542819D01*
X123036057Y-69542819D02*
X123131295Y-69590438D01*
X123131295Y-69590438D02*
X123178914Y-69638057D01*
X123178914Y-69638057D02*
X123226533Y-69733295D01*
X123226533Y-69733295D02*
X123226533Y-69876152D01*
X123226533Y-69876152D02*
X123178914Y-69971390D01*
X123178914Y-69971390D02*
X123131295Y-70019009D01*
X123131295Y-70019009D02*
X123036057Y-70066628D01*
X123036057Y-70066628D02*
X122655105Y-70066628D01*
X124178914Y-70542819D02*
X123607486Y-70542819D01*
X123893200Y-70542819D02*
X123893200Y-69542819D01*
X123893200Y-69542819D02*
X123797962Y-69685676D01*
X123797962Y-69685676D02*
X123702724Y-69780914D01*
X123702724Y-69780914D02*
X123607486Y-69828533D01*
X128428761Y-62526057D02*
X128333523Y-62478438D01*
X128333523Y-62478438D02*
X128238285Y-62383200D01*
X128238285Y-62383200D02*
X128095428Y-62240342D01*
X128095428Y-62240342D02*
X128000190Y-62192723D01*
X128000190Y-62192723D02*
X127904952Y-62192723D01*
X127952571Y-62430819D02*
X127857333Y-62383200D01*
X127857333Y-62383200D02*
X127762095Y-62287961D01*
X127762095Y-62287961D02*
X127714476Y-62097485D01*
X127714476Y-62097485D02*
X127714476Y-61764152D01*
X127714476Y-61764152D02*
X127762095Y-61573676D01*
X127762095Y-61573676D02*
X127857333Y-61478438D01*
X127857333Y-61478438D02*
X127952571Y-61430819D01*
X127952571Y-61430819D02*
X128143047Y-61430819D01*
X128143047Y-61430819D02*
X128238285Y-61478438D01*
X128238285Y-61478438D02*
X128333523Y-61573676D01*
X128333523Y-61573676D02*
X128381142Y-61764152D01*
X128381142Y-61764152D02*
X128381142Y-62097485D01*
X128381142Y-62097485D02*
X128333523Y-62287961D01*
X128333523Y-62287961D02*
X128238285Y-62383200D01*
X128238285Y-62383200D02*
X128143047Y-62430819D01*
X128143047Y-62430819D02*
X127952571Y-62430819D01*
X128714476Y-61430819D02*
X129333523Y-61430819D01*
X129333523Y-61430819D02*
X129000190Y-61811771D01*
X129000190Y-61811771D02*
X129143047Y-61811771D01*
X129143047Y-61811771D02*
X129238285Y-61859390D01*
X129238285Y-61859390D02*
X129285904Y-61907009D01*
X129285904Y-61907009D02*
X129333523Y-62002247D01*
X129333523Y-62002247D02*
X129333523Y-62240342D01*
X129333523Y-62240342D02*
X129285904Y-62335580D01*
X129285904Y-62335580D02*
X129238285Y-62383200D01*
X129238285Y-62383200D02*
X129143047Y-62430819D01*
X129143047Y-62430819D02*
X128857333Y-62430819D01*
X128857333Y-62430819D02*
X128762095Y-62383200D01*
X128762095Y-62383200D02*
X128714476Y-62335580D01*
X125888761Y-62526057D02*
X125793523Y-62478438D01*
X125793523Y-62478438D02*
X125698285Y-62383200D01*
X125698285Y-62383200D02*
X125555428Y-62240342D01*
X125555428Y-62240342D02*
X125460190Y-62192723D01*
X125460190Y-62192723D02*
X125364952Y-62192723D01*
X125412571Y-62430819D02*
X125317333Y-62383200D01*
X125317333Y-62383200D02*
X125222095Y-62287961D01*
X125222095Y-62287961D02*
X125174476Y-62097485D01*
X125174476Y-62097485D02*
X125174476Y-61764152D01*
X125174476Y-61764152D02*
X125222095Y-61573676D01*
X125222095Y-61573676D02*
X125317333Y-61478438D01*
X125317333Y-61478438D02*
X125412571Y-61430819D01*
X125412571Y-61430819D02*
X125603047Y-61430819D01*
X125603047Y-61430819D02*
X125698285Y-61478438D01*
X125698285Y-61478438D02*
X125793523Y-61573676D01*
X125793523Y-61573676D02*
X125841142Y-61764152D01*
X125841142Y-61764152D02*
X125841142Y-62097485D01*
X125841142Y-62097485D02*
X125793523Y-62287961D01*
X125793523Y-62287961D02*
X125698285Y-62383200D01*
X125698285Y-62383200D02*
X125603047Y-62430819D01*
X125603047Y-62430819D02*
X125412571Y-62430819D01*
X126222095Y-61526057D02*
X126269714Y-61478438D01*
X126269714Y-61478438D02*
X126364952Y-61430819D01*
X126364952Y-61430819D02*
X126603047Y-61430819D01*
X126603047Y-61430819D02*
X126698285Y-61478438D01*
X126698285Y-61478438D02*
X126745904Y-61526057D01*
X126745904Y-61526057D02*
X126793523Y-61621295D01*
X126793523Y-61621295D02*
X126793523Y-61716533D01*
X126793523Y-61716533D02*
X126745904Y-61859390D01*
X126745904Y-61859390D02*
X126174476Y-62430819D01*
X126174476Y-62430819D02*
X126793523Y-62430819D01*
X114554095Y-65126819D02*
X114554095Y-65936342D01*
X114554095Y-65936342D02*
X114601714Y-66031580D01*
X114601714Y-66031580D02*
X114649333Y-66079200D01*
X114649333Y-66079200D02*
X114744571Y-66126819D01*
X114744571Y-66126819D02*
X114935047Y-66126819D01*
X114935047Y-66126819D02*
X115030285Y-66079200D01*
X115030285Y-66079200D02*
X115077904Y-66031580D01*
X115077904Y-66031580D02*
X115125523Y-65936342D01*
X115125523Y-65936342D02*
X115125523Y-65126819D01*
X115506476Y-65126819D02*
X116125523Y-65126819D01*
X116125523Y-65126819D02*
X115792190Y-65507771D01*
X115792190Y-65507771D02*
X115935047Y-65507771D01*
X115935047Y-65507771D02*
X116030285Y-65555390D01*
X116030285Y-65555390D02*
X116077904Y-65603009D01*
X116077904Y-65603009D02*
X116125523Y-65698247D01*
X116125523Y-65698247D02*
X116125523Y-65936342D01*
X116125523Y-65936342D02*
X116077904Y-66031580D01*
X116077904Y-66031580D02*
X116030285Y-66079200D01*
X116030285Y-66079200D02*
X115935047Y-66126819D01*
X115935047Y-66126819D02*
X115649333Y-66126819D01*
X115649333Y-66126819D02*
X115554095Y-66079200D01*
X115554095Y-66079200D02*
X115506476Y-66031580D01*
X131318095Y-51905819D02*
X131318095Y-52715342D01*
X131318095Y-52715342D02*
X131365714Y-52810580D01*
X131365714Y-52810580D02*
X131413333Y-52858200D01*
X131413333Y-52858200D02*
X131508571Y-52905819D01*
X131508571Y-52905819D02*
X131699047Y-52905819D01*
X131699047Y-52905819D02*
X131794285Y-52858200D01*
X131794285Y-52858200D02*
X131841904Y-52810580D01*
X131841904Y-52810580D02*
X131889523Y-52715342D01*
X131889523Y-52715342D02*
X131889523Y-51905819D01*
X132318095Y-52001057D02*
X132365714Y-51953438D01*
X132365714Y-51953438D02*
X132460952Y-51905819D01*
X132460952Y-51905819D02*
X132699047Y-51905819D01*
X132699047Y-51905819D02*
X132794285Y-51953438D01*
X132794285Y-51953438D02*
X132841904Y-52001057D01*
X132841904Y-52001057D02*
X132889523Y-52096295D01*
X132889523Y-52096295D02*
X132889523Y-52191533D01*
X132889523Y-52191533D02*
X132841904Y-52334390D01*
X132841904Y-52334390D02*
X132270476Y-52905819D01*
X132270476Y-52905819D02*
X132889523Y-52905819D01*
X120808761Y-62526057D02*
X120713523Y-62478438D01*
X120713523Y-62478438D02*
X120618285Y-62383200D01*
X120618285Y-62383200D02*
X120475428Y-62240342D01*
X120475428Y-62240342D02*
X120380190Y-62192723D01*
X120380190Y-62192723D02*
X120284952Y-62192723D01*
X120332571Y-62430819D02*
X120237333Y-62383200D01*
X120237333Y-62383200D02*
X120142095Y-62287961D01*
X120142095Y-62287961D02*
X120094476Y-62097485D01*
X120094476Y-62097485D02*
X120094476Y-61764152D01*
X120094476Y-61764152D02*
X120142095Y-61573676D01*
X120142095Y-61573676D02*
X120237333Y-61478438D01*
X120237333Y-61478438D02*
X120332571Y-61430819D01*
X120332571Y-61430819D02*
X120523047Y-61430819D01*
X120523047Y-61430819D02*
X120618285Y-61478438D01*
X120618285Y-61478438D02*
X120713523Y-61573676D01*
X120713523Y-61573676D02*
X120761142Y-61764152D01*
X120761142Y-61764152D02*
X120761142Y-62097485D01*
X120761142Y-62097485D02*
X120713523Y-62287961D01*
X120713523Y-62287961D02*
X120618285Y-62383200D01*
X120618285Y-62383200D02*
X120523047Y-62430819D01*
X120523047Y-62430819D02*
X120332571Y-62430819D01*
X121094476Y-61430819D02*
X121761142Y-61430819D01*
X121761142Y-61430819D02*
X121332571Y-62430819D01*
X123277333Y-52778819D02*
X122944000Y-52302628D01*
X122705905Y-52778819D02*
X122705905Y-51778819D01*
X122705905Y-51778819D02*
X123086857Y-51778819D01*
X123086857Y-51778819D02*
X123182095Y-51826438D01*
X123182095Y-51826438D02*
X123229714Y-51874057D01*
X123229714Y-51874057D02*
X123277333Y-51969295D01*
X123277333Y-51969295D02*
X123277333Y-52112152D01*
X123277333Y-52112152D02*
X123229714Y-52207390D01*
X123229714Y-52207390D02*
X123182095Y-52255009D01*
X123182095Y-52255009D02*
X123086857Y-52302628D01*
X123086857Y-52302628D02*
X122705905Y-52302628D01*
X123610667Y-51778819D02*
X124277333Y-51778819D01*
X124277333Y-51778819D02*
X123848762Y-52778819D01*
X125817333Y-70558819D02*
X125484000Y-70082628D01*
X125245905Y-70558819D02*
X125245905Y-69558819D01*
X125245905Y-69558819D02*
X125626857Y-69558819D01*
X125626857Y-69558819D02*
X125722095Y-69606438D01*
X125722095Y-69606438D02*
X125769714Y-69654057D01*
X125769714Y-69654057D02*
X125817333Y-69749295D01*
X125817333Y-69749295D02*
X125817333Y-69892152D01*
X125817333Y-69892152D02*
X125769714Y-69987390D01*
X125769714Y-69987390D02*
X125722095Y-70035009D01*
X125722095Y-70035009D02*
X125626857Y-70082628D01*
X125626857Y-70082628D02*
X125245905Y-70082628D01*
X126198286Y-69654057D02*
X126245905Y-69606438D01*
X126245905Y-69606438D02*
X126341143Y-69558819D01*
X126341143Y-69558819D02*
X126579238Y-69558819D01*
X126579238Y-69558819D02*
X126674476Y-69606438D01*
X126674476Y-69606438D02*
X126722095Y-69654057D01*
X126722095Y-69654057D02*
X126769714Y-69749295D01*
X126769714Y-69749295D02*
X126769714Y-69844533D01*
X126769714Y-69844533D02*
X126722095Y-69987390D01*
X126722095Y-69987390D02*
X126150667Y-70558819D01*
X126150667Y-70558819D02*
X126769714Y-70558819D01*
X106346666Y-69431819D02*
X106346666Y-70146104D01*
X106346666Y-70146104D02*
X106299047Y-70288961D01*
X106299047Y-70288961D02*
X106203809Y-70384200D01*
X106203809Y-70384200D02*
X106060952Y-70431819D01*
X106060952Y-70431819D02*
X105965714Y-70431819D01*
X107346666Y-70431819D02*
X106775238Y-70431819D01*
X107060952Y-70431819D02*
X107060952Y-69431819D01*
X107060952Y-69431819D02*
X106965714Y-69574676D01*
X106965714Y-69574676D02*
X106870476Y-69669914D01*
X106870476Y-69669914D02*
X106775238Y-69717533D01*
X105143541Y-52209819D02*
X105810207Y-52209819D01*
X105810207Y-52209819D02*
X105381636Y-53209819D01*
X128357333Y-70558819D02*
X128024000Y-70082628D01*
X127785905Y-70558819D02*
X127785905Y-69558819D01*
X127785905Y-69558819D02*
X128166857Y-69558819D01*
X128166857Y-69558819D02*
X128262095Y-69606438D01*
X128262095Y-69606438D02*
X128309714Y-69654057D01*
X128309714Y-69654057D02*
X128357333Y-69749295D01*
X128357333Y-69749295D02*
X128357333Y-69892152D01*
X128357333Y-69892152D02*
X128309714Y-69987390D01*
X128309714Y-69987390D02*
X128262095Y-70035009D01*
X128262095Y-70035009D02*
X128166857Y-70082628D01*
X128166857Y-70082628D02*
X127785905Y-70082628D01*
X128690667Y-69558819D02*
X129309714Y-69558819D01*
X129309714Y-69558819D02*
X128976381Y-69939771D01*
X128976381Y-69939771D02*
X129119238Y-69939771D01*
X129119238Y-69939771D02*
X129214476Y-69987390D01*
X129214476Y-69987390D02*
X129262095Y-70035009D01*
X129262095Y-70035009D02*
X129309714Y-70130247D01*
X129309714Y-70130247D02*
X129309714Y-70368342D01*
X129309714Y-70368342D02*
X129262095Y-70463580D01*
X129262095Y-70463580D02*
X129214476Y-70511200D01*
X129214476Y-70511200D02*
X129119238Y-70558819D01*
X129119238Y-70558819D02*
X128833524Y-70558819D01*
X128833524Y-70558819D02*
X128738286Y-70511200D01*
X128738286Y-70511200D02*
X128690667Y-70463580D01*
X123348761Y-60875057D02*
X123253523Y-60827438D01*
X123253523Y-60827438D02*
X123158285Y-60732200D01*
X123158285Y-60732200D02*
X123015428Y-60589342D01*
X123015428Y-60589342D02*
X122920190Y-60541723D01*
X122920190Y-60541723D02*
X122824952Y-60541723D01*
X122872571Y-60779819D02*
X122777333Y-60732200D01*
X122777333Y-60732200D02*
X122682095Y-60636961D01*
X122682095Y-60636961D02*
X122634476Y-60446485D01*
X122634476Y-60446485D02*
X122634476Y-60113152D01*
X122634476Y-60113152D02*
X122682095Y-59922676D01*
X122682095Y-59922676D02*
X122777333Y-59827438D01*
X122777333Y-59827438D02*
X122872571Y-59779819D01*
X122872571Y-59779819D02*
X123063047Y-59779819D01*
X123063047Y-59779819D02*
X123158285Y-59827438D01*
X123158285Y-59827438D02*
X123253523Y-59922676D01*
X123253523Y-59922676D02*
X123301142Y-60113152D01*
X123301142Y-60113152D02*
X123301142Y-60446485D01*
X123301142Y-60446485D02*
X123253523Y-60636961D01*
X123253523Y-60636961D02*
X123158285Y-60732200D01*
X123158285Y-60732200D02*
X123063047Y-60779819D01*
X123063047Y-60779819D02*
X122872571Y-60779819D01*
X124158285Y-59779819D02*
X123967809Y-59779819D01*
X123967809Y-59779819D02*
X123872571Y-59827438D01*
X123872571Y-59827438D02*
X123824952Y-59875057D01*
X123824952Y-59875057D02*
X123729714Y-60017914D01*
X123729714Y-60017914D02*
X123682095Y-60208390D01*
X123682095Y-60208390D02*
X123682095Y-60589342D01*
X123682095Y-60589342D02*
X123729714Y-60684580D01*
X123729714Y-60684580D02*
X123777333Y-60732200D01*
X123777333Y-60732200D02*
X123872571Y-60779819D01*
X123872571Y-60779819D02*
X124063047Y-60779819D01*
X124063047Y-60779819D02*
X124158285Y-60732200D01*
X124158285Y-60732200D02*
X124205904Y-60684580D01*
X124205904Y-60684580D02*
X124253523Y-60589342D01*
X124253523Y-60589342D02*
X124253523Y-60351247D01*
X124253523Y-60351247D02*
X124205904Y-60256009D01*
X124205904Y-60256009D02*
X124158285Y-60208390D01*
X124158285Y-60208390D02*
X124063047Y-60160771D01*
X124063047Y-60160771D02*
X123872571Y-60160771D01*
X123872571Y-60160771D02*
X123777333Y-60208390D01*
X123777333Y-60208390D02*
X123729714Y-60256009D01*
X123729714Y-60256009D02*
X123682095Y-60351247D01*
X128428761Y-60875057D02*
X128333523Y-60827438D01*
X128333523Y-60827438D02*
X128238285Y-60732200D01*
X128238285Y-60732200D02*
X128095428Y-60589342D01*
X128095428Y-60589342D02*
X128000190Y-60541723D01*
X128000190Y-60541723D02*
X127904952Y-60541723D01*
X127952571Y-60779819D02*
X127857333Y-60732200D01*
X127857333Y-60732200D02*
X127762095Y-60636961D01*
X127762095Y-60636961D02*
X127714476Y-60446485D01*
X127714476Y-60446485D02*
X127714476Y-60113152D01*
X127714476Y-60113152D02*
X127762095Y-59922676D01*
X127762095Y-59922676D02*
X127857333Y-59827438D01*
X127857333Y-59827438D02*
X127952571Y-59779819D01*
X127952571Y-59779819D02*
X128143047Y-59779819D01*
X128143047Y-59779819D02*
X128238285Y-59827438D01*
X128238285Y-59827438D02*
X128333523Y-59922676D01*
X128333523Y-59922676D02*
X128381142Y-60113152D01*
X128381142Y-60113152D02*
X128381142Y-60446485D01*
X128381142Y-60446485D02*
X128333523Y-60636961D01*
X128333523Y-60636961D02*
X128238285Y-60732200D01*
X128238285Y-60732200D02*
X128143047Y-60779819D01*
X128143047Y-60779819D02*
X127952571Y-60779819D01*
X129238285Y-60113152D02*
X129238285Y-60779819D01*
X129000190Y-59732200D02*
X128762095Y-60446485D01*
X128762095Y-60446485D02*
X129381142Y-60446485D01*
X149860095Y-51778819D02*
X149860095Y-52588342D01*
X149860095Y-52588342D02*
X149907714Y-52683580D01*
X149907714Y-52683580D02*
X149955333Y-52731200D01*
X149955333Y-52731200D02*
X150050571Y-52778819D01*
X150050571Y-52778819D02*
X150241047Y-52778819D01*
X150241047Y-52778819D02*
X150336285Y-52731200D01*
X150336285Y-52731200D02*
X150383904Y-52683580D01*
X150383904Y-52683580D02*
X150431523Y-52588342D01*
X150431523Y-52588342D02*
X150431523Y-51778819D01*
X151383904Y-51778819D02*
X150907714Y-51778819D01*
X150907714Y-51778819D02*
X150860095Y-52255009D01*
X150860095Y-52255009D02*
X150907714Y-52207390D01*
X150907714Y-52207390D02*
X151002952Y-52159771D01*
X151002952Y-52159771D02*
X151241047Y-52159771D01*
X151241047Y-52159771D02*
X151336285Y-52207390D01*
X151336285Y-52207390D02*
X151383904Y-52255009D01*
X151383904Y-52255009D02*
X151431523Y-52350247D01*
X151431523Y-52350247D02*
X151431523Y-52588342D01*
X151431523Y-52588342D02*
X151383904Y-52683580D01*
X151383904Y-52683580D02*
X151336285Y-52731200D01*
X151336285Y-52731200D02*
X151241047Y-52778819D01*
X151241047Y-52778819D02*
X151002952Y-52778819D01*
X151002952Y-52778819D02*
X150907714Y-52731200D01*
X150907714Y-52731200D02*
X150860095Y-52683580D01*
D11*
%TO.C,R8*%
X120169000Y-67336936D02*
X120169000Y-67791064D01*
X121639000Y-67336936D02*
X121639000Y-67791064D01*
%TO.C,Q8*%
X125024000Y-58930000D02*
X125024000Y-57770000D01*
X125024000Y-58930000D02*
X125334000Y-58930000D01*
X126944000Y-58930000D02*
X126634000Y-58930000D01*
X126944000Y-58930000D02*
X126944000Y-57770000D01*
D10*
X126559000Y-57120000D02*
G75*
G02*
X126409000Y-57120000I-75000J0D01*
G01*
X126409000Y-57120000D02*
G75*
G02*
X126559000Y-57120000I75000J0D01*
G01*
D11*
%TO.C,R6*%
X120169000Y-55075064D02*
X120169000Y-54620936D01*
X121639000Y-55075064D02*
X121639000Y-54620936D01*
%TO.C,R4*%
X127789000Y-55091064D02*
X127789000Y-54636936D01*
X129259000Y-55091064D02*
X129259000Y-54636936D01*
%TO.C,R5*%
X125249000Y-55091064D02*
X125249000Y-54636936D01*
X126719000Y-55091064D02*
X126719000Y-54636936D01*
%TO.C,U1*%
X113256000Y-54376000D02*
X117376000Y-54376000D01*
X113256000Y-54431000D02*
X113256000Y-54376000D01*
X113256000Y-64496000D02*
X113256000Y-64441000D01*
X117376000Y-54376000D02*
X117376000Y-54431000D01*
X117376000Y-64441000D02*
X117376000Y-64496000D01*
X117376000Y-64496000D02*
X113256000Y-64496000D01*
X112716000Y-54426000D02*
X112476000Y-54096000D01*
X112956000Y-54096000D01*
X112716000Y-54426000D01*
G36*
X112716000Y-54426000D02*
G01*
X112476000Y-54096000D01*
X112956000Y-54096000D01*
X112716000Y-54426000D01*
G37*
%TO.C,Q1*%
X122484000Y-63371000D02*
X122484000Y-64531000D01*
X122484000Y-63371000D02*
X122794000Y-63371000D01*
X124404000Y-63371000D02*
X124094000Y-63371000D01*
X124404000Y-63371000D02*
X124404000Y-64531000D01*
D10*
X123019000Y-65181000D02*
G75*
G02*
X122869000Y-65181000I-75000J0D01*
G01*
X122869000Y-65181000D02*
G75*
G02*
X123019000Y-65181000I75000J0D01*
G01*
D11*
%TO.C,Q5*%
X119944000Y-58930000D02*
X119944000Y-57770000D01*
X119944000Y-58930000D02*
X120254000Y-58930000D01*
X121864000Y-58930000D02*
X121554000Y-58930000D01*
X121864000Y-58930000D02*
X121864000Y-57770000D01*
D10*
X121479000Y-57120000D02*
G75*
G02*
X121329000Y-57120000I-75000J0D01*
G01*
X121329000Y-57120000D02*
G75*
G02*
X121479000Y-57120000I75000J0D01*
G01*
D11*
%TO.C,R1*%
X122709000Y-67336936D02*
X122709000Y-67791064D01*
X124179000Y-67336936D02*
X124179000Y-67791064D01*
%TO.C,Q3*%
X127564000Y-63371000D02*
X127564000Y-64531000D01*
X127564000Y-63371000D02*
X127874000Y-63371000D01*
X129484000Y-63371000D02*
X129174000Y-63371000D01*
X129484000Y-63371000D02*
X129484000Y-64531000D01*
D10*
X128099000Y-65181000D02*
G75*
G02*
X127949000Y-65181000I-75000J0D01*
G01*
X127949000Y-65181000D02*
G75*
G02*
X128099000Y-65181000I75000J0D01*
G01*
D11*
%TO.C,Q2*%
X125024000Y-63371000D02*
X125024000Y-64531000D01*
X125024000Y-63371000D02*
X125334000Y-63371000D01*
X126944000Y-63371000D02*
X126634000Y-63371000D01*
X126944000Y-63371000D02*
X126944000Y-64531000D01*
D10*
X125559000Y-65181000D02*
G75*
G02*
X125409000Y-65181000I-75000J0D01*
G01*
X125409000Y-65181000D02*
G75*
G02*
X125559000Y-65181000I75000J0D01*
G01*
D11*
%TO.C,U3*%
X114406000Y-66512000D02*
X116226000Y-66512000D01*
X114406000Y-66562000D02*
X114406000Y-66512000D01*
X114406000Y-69632000D02*
X114406000Y-69582000D01*
X116226000Y-66512000D02*
X116226000Y-66562000D01*
X116226000Y-67682000D02*
X116226000Y-68462000D01*
X116226000Y-69582000D02*
X116226000Y-69632000D01*
X116226000Y-69632000D02*
X114406000Y-69632000D01*
X113866000Y-66562000D02*
X113626000Y-66232000D01*
X114106000Y-66232000D01*
X113866000Y-66562000D01*
G36*
X113866000Y-66562000D02*
G01*
X113626000Y-66232000D01*
X114106000Y-66232000D01*
X113866000Y-66562000D01*
G37*
D12*
%TO.C,U2*%
X130840800Y-53344000D02*
X141040800Y-53344000D01*
X130840800Y-66544000D02*
X130840800Y-53344000D01*
X141040800Y-53344000D02*
X141040800Y-66544000D01*
X141040800Y-66544000D02*
X130840800Y-66544000D01*
D13*
X130140800Y-53944000D02*
G75*
G02*
X129740800Y-53944000I-200000J0D01*
G01*
X129740800Y-53944000D02*
G75*
G02*
X130140800Y-53944000I200000J0D01*
G01*
D14*
X138440800Y-65044000D02*
G75*
G02*
X137240800Y-65044000I-600000J0D01*
G01*
X137240800Y-65044000D02*
G75*
G02*
X138440800Y-65044000I600000J0D01*
G01*
D11*
%TO.C,Q7*%
X119944000Y-63386000D02*
X119944000Y-64546000D01*
X119944000Y-63386000D02*
X120254000Y-63386000D01*
X121864000Y-63386000D02*
X121554000Y-63386000D01*
X121864000Y-63386000D02*
X121864000Y-64546000D01*
D10*
X120479000Y-65196000D02*
G75*
G02*
X120329000Y-65196000I-75000J0D01*
G01*
X120329000Y-65196000D02*
G75*
G02*
X120479000Y-65196000I75000J0D01*
G01*
D11*
%TO.C,R7*%
X122709000Y-55091064D02*
X122709000Y-54636936D01*
X124179000Y-55091064D02*
X124179000Y-54636936D01*
%TO.C,R2*%
X125249000Y-67336936D02*
X125249000Y-67791064D01*
X126719000Y-67336936D02*
X126719000Y-67791064D01*
D14*
%TO.C,J1*%
X104140000Y-53848000D02*
X104648000Y-53340000D01*
X104140000Y-55372000D02*
X104140000Y-53848000D01*
X104140000Y-56388000D02*
X104648000Y-55880000D01*
X104140000Y-57912000D02*
X104140000Y-56388000D01*
X104140000Y-58928000D02*
X104648000Y-58420000D01*
X104140000Y-60452000D02*
X104140000Y-58928000D01*
X104140000Y-61468000D02*
X104648000Y-60960000D01*
X104140000Y-62992000D02*
X104140000Y-61468000D01*
X104140000Y-64008000D02*
X104648000Y-63500000D01*
X104140000Y-65532000D02*
X104140000Y-64008000D01*
X104140000Y-66548000D02*
X104648000Y-66040000D01*
X104140000Y-68072000D02*
X104140000Y-66548000D01*
X104648000Y-53340000D02*
X107950000Y-53340000D01*
X104648000Y-55880000D02*
X104140000Y-55372000D01*
X104648000Y-58420000D02*
X104140000Y-57912000D01*
X104648000Y-60960000D02*
X104140000Y-60452000D01*
X104648000Y-63500000D02*
X104140000Y-62992000D01*
X104648000Y-66040000D02*
X104140000Y-65532000D01*
X104648000Y-68580000D02*
X104140000Y-68072000D01*
X107950000Y-53340000D02*
X108712000Y-53340000D01*
X108712000Y-53340000D02*
X109220000Y-53848000D01*
X108712000Y-55880000D02*
X109220000Y-56388000D01*
X108712000Y-58420000D02*
X109220000Y-58928000D01*
X108712000Y-60960000D02*
X109220000Y-61468000D01*
X108712000Y-63500000D02*
X109220000Y-64008000D01*
X108712000Y-66040000D02*
X109220000Y-66548000D01*
X108712000Y-68580000D02*
X104648000Y-68580000D01*
X109220000Y-53848000D02*
X109220000Y-55372000D01*
X109220000Y-55372000D02*
X108712000Y-55880000D01*
X109220000Y-56388000D02*
X109220000Y-57912000D01*
X109220000Y-57912000D02*
X108712000Y-58420000D01*
X109220000Y-58928000D02*
X109220000Y-60452000D01*
X109220000Y-60452000D02*
X108712000Y-60960000D01*
X109220000Y-61468000D02*
X109220000Y-62992000D01*
X109220000Y-62992000D02*
X108712000Y-63500000D01*
X109220000Y-64008000D02*
X109220000Y-65532000D01*
X109220000Y-65532000D02*
X108712000Y-66040000D01*
X109220000Y-66548000D02*
X109220000Y-68072000D01*
X109220000Y-68072000D02*
X108712000Y-68580000D01*
X107950000Y-53086000D02*
X107450000Y-52324000D01*
X108450000Y-52324000D01*
X107950000Y-53086000D01*
G36*
X107950000Y-53086000D02*
G01*
X107450000Y-52324000D01*
X108450000Y-52324000D01*
X107950000Y-53086000D01*
G37*
D11*
%TO.C,R3*%
X127789000Y-67336936D02*
X127789000Y-67791064D01*
X129259000Y-67336936D02*
X129259000Y-67791064D01*
%TO.C,Q6*%
X122484000Y-58930000D02*
X122484000Y-57770000D01*
X122484000Y-58930000D02*
X122794000Y-58930000D01*
X124404000Y-58930000D02*
X124094000Y-58930000D01*
X124404000Y-58930000D02*
X124404000Y-57770000D01*
D10*
X124019000Y-57120000D02*
G75*
G02*
X123869000Y-57120000I-75000J0D01*
G01*
X123869000Y-57120000D02*
G75*
G02*
X124019000Y-57120000I75000J0D01*
G01*
D11*
%TO.C,Q4*%
X127564000Y-58930000D02*
X127564000Y-57770000D01*
X127564000Y-58930000D02*
X127874000Y-58930000D01*
X129484000Y-58930000D02*
X129174000Y-58930000D01*
X129484000Y-58930000D02*
X129484000Y-57770000D01*
D10*
X129099000Y-57120000D02*
G75*
G02*
X128949000Y-57120000I-75000J0D01*
G01*
X128949000Y-57120000D02*
G75*
G02*
X129099000Y-57120000I75000J0D01*
G01*
D12*
%TO.C,U5*%
X141508800Y-53344000D02*
X151708800Y-53344000D01*
X141508800Y-66544000D02*
X141508800Y-53344000D01*
X151708800Y-53344000D02*
X151708800Y-66544000D01*
X151708800Y-66544000D02*
X141508800Y-66544000D01*
D13*
X140808800Y-53944000D02*
G75*
G02*
X140408800Y-53944000I-200000J0D01*
G01*
X140408800Y-53944000D02*
G75*
G02*
X140808800Y-53944000I200000J0D01*
G01*
D14*
X149108800Y-65044000D02*
G75*
G02*
X147908800Y-65044000I-600000J0D01*
G01*
X147908800Y-65044000D02*
G75*
G02*
X149108800Y-65044000I600000J0D01*
G01*
%TD*%
M02*
