M48
; DRILL file {KiCad 9.0.6-9.0.6~ubuntu24.04.1} date 2026-01-18T13:36:00-0300
; FORMAT={-:-/ absolute / metric / decimal}
; #@! TF.CreationDate,2026-01-18T13:36:00-03:00
; #@! TF.GenerationSoftware,Kicad,Pcbnew,9.0.6-9.0.6~ubuntu24.04.1
; #@! TF.FileFunction,Plated,1,2,PTH
FMAT,2
METRIC
; #@! TA.AperFunction,Plated,PTH,ViaDrill
T1C0.300
; #@! TA.AperFunction,Plated,PTH,ComponentDrill
T2C1.000
%
G90
G05
T1
X103.327Y-52.426
X103.632Y-69.164
X106.629Y-65.964
X109.423Y-66.091
X110.211Y-53.772
X110.49Y-69.164
X113.894Y-65.176
X114.402Y-60.681
X114.402Y-63.271
X122.174Y-63.297
X122.199Y-58.826
X127.279Y-63.297
X127.508Y-59.131
X133.553Y-58.776
X133.553Y-61.112
X138.278Y-58.776
X138.328Y-61.214
X141.681Y-60.833
X141.834Y-58.776
X149.047Y-58.877
X151.536Y-58.674
X151.587Y-61.265
T2
X105.41Y-54.61
X105.41Y-57.15
X105.41Y-59.69
X105.41Y-62.23
X105.41Y-64.77
X105.41Y-67.31
X107.95Y-54.61
X107.95Y-57.15
X107.95Y-59.69
X107.95Y-62.23
X107.95Y-64.77
X107.95Y-67.31
X132.181Y-54.864
X132.181Y-57.404
X132.181Y-59.944
X132.181Y-62.484
X132.181Y-65.024
X139.701Y-54.864
X139.701Y-57.404
X139.701Y-59.944
X139.701Y-62.484
X139.701Y-65.024
X142.849Y-54.864
X142.849Y-57.404
X142.849Y-59.944
X142.849Y-62.484
X142.849Y-65.024
X150.369Y-54.864
X150.369Y-57.404
X150.369Y-59.944
X150.369Y-62.484
X150.369Y-65.024
M30
