%TF.GenerationSoftware,KiCad,Pcbnew,9.0.6-9.0.6~ubuntu24.04.1*%
%TF.CreationDate,2026-01-25T19:23:25-03:00*%
%TF.ProjectId,cotti_probe,636f7474-695f-4707-926f-62652e6b6963,0.0*%
%TF.SameCoordinates,Original*%
%TF.FileFunction,Soldermask,Bot*%
%TF.FilePolarity,Negative*%
%FSLAX46Y46*%
G04 Gerber Fmt 4.6, Leading zero omitted, Abs format (unit mm)*
G04 Created by KiCad (PCBNEW 9.0.6-9.0.6~ubuntu24.04.1) date 2026-01-25 19:23:25*
%MOMM*%
%LPD*%
G01*
G04 APERTURE LIST*
%ADD10C,2.200000*%
%ADD11R,1.700000X1.700000*%
%ADD12C,1.700000*%
%ADD13C,0.550000*%
G04 APERTURE END LIST*
D10*
%TO.C,H3*%
X183134000Y-27686000D03*
%TD*%
D11*
%TO.C,J6*%
X186690000Y-64770000D03*
D12*
X186690000Y-62230000D03*
X186690000Y-59690000D03*
X186690000Y-57150000D03*
X186690000Y-54610000D03*
X186690000Y-52070000D03*
X189230000Y-64770000D03*
X189230000Y-62230000D03*
X189230000Y-59690000D03*
X189230000Y-57150000D03*
X189230000Y-54610000D03*
X189230000Y-52070000D03*
%TD*%
D11*
%TO.C,J2*%
X137414000Y-44704000D03*
D12*
X137414000Y-47244000D03*
%TD*%
D11*
%TO.C,J3*%
X186690000Y-110490000D03*
D12*
X186690000Y-107950000D03*
X186690000Y-105410000D03*
X186690000Y-102870000D03*
X186690000Y-100330000D03*
X186690000Y-97790000D03*
X189230000Y-110490000D03*
X189230000Y-107950000D03*
X189230000Y-105410000D03*
X189230000Y-102870000D03*
X189230000Y-100330000D03*
X189230000Y-97790000D03*
%TD*%
D10*
%TO.C,H4*%
X183134000Y-112014000D03*
%TD*%
%TO.C,H1*%
X134366000Y-112014000D03*
%TD*%
D13*
%TO.C,J7*%
X166720000Y-31701000D03*
X160940000Y-31701000D03*
%TD*%
D11*
%TO.C,J1*%
X137414000Y-38349000D03*
D12*
X137414000Y-40889000D03*
%TD*%
D11*
%TO.C,J5*%
X186690000Y-41910000D03*
D12*
X186690000Y-39370000D03*
X186690000Y-36830000D03*
X186690000Y-34290000D03*
X186690000Y-31750000D03*
X186690000Y-29210000D03*
X189230000Y-41910000D03*
X189230000Y-39370000D03*
X189230000Y-36830000D03*
X189230000Y-34290000D03*
X189230000Y-31750000D03*
X189230000Y-29210000D03*
%TD*%
D10*
%TO.C,H2*%
X134366000Y-27686000D03*
%TD*%
D11*
%TO.C,J4*%
X186690000Y-87630000D03*
D12*
X186690000Y-85090000D03*
X186690000Y-82550000D03*
X186690000Y-80010000D03*
X186690000Y-77470000D03*
X186690000Y-74930000D03*
X189230000Y-87630000D03*
X189230000Y-85090000D03*
X189230000Y-82550000D03*
X189230000Y-80010000D03*
X189230000Y-77470000D03*
X189230000Y-74930000D03*
%TD*%
M02*
