M48
; DRILL file {KiCad 9.0.6-9.0.6~ubuntu24.04.1} date 2026-01-25T19:23:27-0300
; FORMAT={-:-/ absolute / metric / decimal}
; #@! TF.CreationDate,2026-01-25T19:23:27-03:00
; #@! TF.GenerationSoftware,Kicad,Pcbnew,9.0.6-9.0.6~ubuntu24.04.1
; #@! TF.FileFunction,Plated,1,4,PTH
FMAT,2
METRIC
; #@! TA.AperFunction,Plated,PTH,ViaDrill
T1C0.300
; #@! TA.AperFunction,Plated,PTH,ComponentDrill
T2C1.000
%
G90
G05
T1
X133.985Y-52.451
X133.985Y-53.213
X133.985Y-57.785
X133.985Y-58.547
X133.985Y-74.93
X133.985Y-75.692
X133.985Y-84.582
X133.985Y-85.344
X134.62Y-31.115
X134.62Y-31.877
X134.874Y-74.93
X134.874Y-75.692
X134.874Y-84.582
X134.874Y-85.348
X135.001Y-52.451
X135.001Y-53.213
X135.001Y-57.785
X135.001Y-58.547
X135.636Y-31.115
X135.636Y-31.877
X136.5Y-33.579
X136.666Y-69.962
X137.033Y-35.56
X137.376Y-78.74
X137.465Y-70.002
X138.088Y-81.316
X138.176Y-78.74
X138.697Y-83.312
X138.887Y-81.28
X138.938Y-50.8
X138.938Y-52.832
X139.04Y-48.768
X139.196Y-88.584
X139.497Y-83.312
X139.649Y-54.865
X139.65Y-54.065
X139.7Y-89.205
X139.7Y-95.504
X139.7Y-96.304
X139.827Y-90.17
X140.087Y-56.12
X140.143Y-76.73
X140.164Y-77.53
X140.462Y-86.868
X140.462Y-93.472
X140.498Y-55.433
X140.767Y-82.296
X140.882Y-56.209
X141.199Y-56.944
X141.224Y-31.547
X141.367Y-79.705
X141.367Y-80.505
X141.427Y-28.499
X141.54Y-82.092
X141.999Y-77.724
X141.999Y-56.953
X142.0Y-54.182
X142.001Y-59.531
X142.199Y-60.307
X142.199Y-62.611
X142.199Y-69.469
X142.307Y-57.691
X142.787Y-59.764
X142.799Y-54.233
X142.799Y-77.724
X142.801Y-56.932
X143.266Y-48.87
X143.266Y-50.8
X143.308Y-46.902
X143.346Y-50.004
X143.349Y-48.074
X143.51Y-60.757
X143.561Y-75.946
X143.977Y-47.473
X144.076Y-46.679
X144.187Y-85.455
X144.221Y-61.214
X144.268Y-75.572
X144.882Y-85.852
X144.932Y-60.706
X144.983Y-33.528
X145.034Y-35.56
X145.085Y-30.074
X145.644Y-31.902
X145.669Y-86.868
X145.669Y-87.668
X145.694Y-28.346
X145.853Y-62.541
X145.923Y-65.786
X146.152Y-90.17
X146.152Y-93.421
X146.177Y-53.333
X146.253Y-59.03
X146.286Y-84.247
X146.304Y-54.356
X146.337Y-66.501
X146.723Y-65.786
X146.872Y-42.875
X146.89Y-48.065
X146.939Y-84.709
X147.102Y-54.413
X147.272Y-48.768
X147.631Y-43.59
X147.79Y-42.806
X147.955Y-65.786
X148.209Y-60.475
X148.382Y-66.505
X148.387Y-43.993
X148.779Y-65.81
X148.851Y-38.107
X148.972Y-45.11
X149.149Y-44.298
X149.435Y-38.654
X149.472Y-46.025
X149.579Y-65.776
X149.86Y-27.521
X149.86Y-28.321
X149.86Y-29.21
X149.936Y-46.898
X150.079Y-66.533
X150.266Y-46.126
X150.368Y-51.765
X150.378Y-65.791
X150.46Y-29.844
X150.466Y-35.675
X150.534Y-36.472
X151.332Y-36.525
X151.384Y-110.744
X151.638Y-65.659
X151.987Y-69.303
X152.009Y-66.368
X152.202Y-91.592
X152.298Y-38.1
X152.4Y-41.046
X152.438Y-65.659
X152.455Y-69.952
X152.654Y-90.932
X152.777Y-89.948
X152.857Y-33.985
X152.857Y-37.338
X152.972Y-48.616
X153.017Y-47.817
X153.238Y-65.739
X153.254Y-89.306
X153.261Y-41.008
X153.272Y-41.808
X153.429Y-60.452
X153.765Y-66.4
X153.822Y-37.236
X154.033Y-65.646
X154.421Y-39.558
X154.432Y-88.595
X154.432Y-110.744
X154.435Y-38.758
X154.531Y-57.217
X154.639Y-54.343
X154.838Y-53.34
X154.838Y-55.118
X154.853Y-65.618
X154.98Y-89.195
X155.022Y-59.332
X155.042Y-57.833
X155.143Y-61.773
X155.194Y-87.757
X155.488Y-38.891
X155.64Y-65.473
X155.794Y-87.115
X156.007Y-32.41
X156.286Y-38.938
X156.464Y-94.996
X156.464Y-96.012
X156.566Y-48.616
X157.337Y-48.844
X157.48Y-48.057
X157.48Y-110.744
X157.724Y-69.745
X157.826Y-91.227
X157.978Y-68.986
X157.988Y-94.996
X157.988Y-96.012
X158.547Y-89.357
X158.623Y-91.161
X158.75Y-27.051
X159.347Y-89.357
X159.512Y-94.996
X159.512Y-96.012
X160.528Y-110.744
X160.63Y-34.138
X161.036Y-94.996
X161.036Y-96.012
X161.188Y-87.732
X161.188Y-91.237
X161.793Y-90.713
X161.988Y-87.732
X162.052Y-29.21
X162.103Y-47.752
X162.306Y-53.848
X162.306Y-60.96
X162.306Y-65.024
X162.306Y-67.056
X162.306Y-69.088
X162.433Y-51.816
X162.56Y-34.646
X162.56Y-49.784
X162.56Y-94.996
X162.56Y-96.012
X162.852Y-29.21
X163.576Y-110.744
X164.084Y-94.996
X164.084Y-96.012
X165.1Y-28.321
X165.899Y-28.29
X165.989Y-98.187
X166.116Y-57.658
X166.116Y-62.23
X166.624Y-110.744
X166.916Y-57.658
X167.03Y-34.138
X167.513Y-94.488
X167.833Y-44.085
X168.656Y-43.942
X168.95Y-27.051
X169.57Y-43.12
X170.224Y-45.38
X170.254Y-43.536
X170.291Y-46.177
X170.891Y-42.926
X171.555Y-43.372
X171.653Y-45.415
X172.415Y-38.913
X172.415Y-47.65
X172.466Y-45.415
X173.025Y-39.43
X173.228Y-29.21
X173.228Y-47.498
X173.33Y-35.217
X173.33Y-36.017
X173.33Y-38.1
X173.348Y-37.285
X173.38Y-33.287
X173.38Y-34.087
X173.431Y-40.234
X173.482Y-43.396
X173.482Y-44.196
X173.482Y-101.702
X173.533Y-41.466
X173.533Y-42.266
X173.634Y-29.972
X173.736Y-109.83
X173.736Y-111.76
X173.787Y-97.536
X173.888Y-46.685
X173.888Y-105.715
X174.763Y-47.564
X174.784Y-48.444
X178.606Y-62.22
X178.816Y-39.268
X178.816Y-40.132
X178.816Y-44.958
X178.816Y-62.992
X178.816Y-67.945
X179.615Y-67.976
X179.629Y-44.958
X180.848Y-35.268
X180.848Y-36.068
X180.848Y-44.958
X180.848Y-58.128
X180.848Y-58.928
X180.848Y-67.945
X181.647Y-67.981
X181.648Y-44.958
X182.88Y-33.02
X182.88Y-44.958
X182.88Y-55.88
X182.88Y-67.945
X183.185Y-32.258
X183.671Y-55.761
X183.68Y-44.958
X183.744Y-67.97
T2
X137.414Y-38.349
X137.414Y-40.889
X137.414Y-44.704
X137.414Y-47.244
X186.69Y-29.21
X186.69Y-31.75
X186.69Y-34.29
X186.69Y-36.83
X186.69Y-39.37
X186.69Y-41.91
X186.69Y-52.07
X186.69Y-54.61
X186.69Y-57.15
X186.69Y-59.69
X186.69Y-62.23
X186.69Y-64.77
X186.69Y-74.93
X186.69Y-77.47
X186.69Y-80.01
X186.69Y-82.55
X186.69Y-85.09
X186.69Y-87.63
X186.69Y-97.79
X186.69Y-100.33
X186.69Y-102.87
X186.69Y-105.41
X186.69Y-107.95
X186.69Y-110.49
X189.23Y-29.21
X189.23Y-31.75
X189.23Y-34.29
X189.23Y-36.83
X189.23Y-39.37
X189.23Y-41.91
X189.23Y-52.07
X189.23Y-54.61
X189.23Y-57.15
X189.23Y-59.69
X189.23Y-62.23
X189.23Y-64.77
X189.23Y-74.93
X189.23Y-77.47
X189.23Y-80.01
X189.23Y-82.55
X189.23Y-85.09
X189.23Y-87.63
X189.23Y-97.79
X189.23Y-100.33
X189.23Y-102.87
X189.23Y-105.41
X189.23Y-107.95
X189.23Y-110.49
M30
